1	
2	
3	
4	
5	
6	control_change channel=0 control=0 value=0 time=0
7	program_change channel=0 program=119 time=0
8	control_change channel=0 control=7 value=90 time=0
9	control_change channel=0 control=10 value=64 time=0
10	control_change channel=0 control=91 value=0 time=0
11	control_change channel=0 control=93 value=0 time=0
12	control_change channel=1 control=0 value=0 time=0
13	program_change channel=1 program=32 time=0
14	control_change channel=1 control=7 value=78 time=0
15	control_change channel=1 control=10 value=64 time=0
16	control_change channel=1 control=91 value=0 time=0
17	control_change channel=1 control=93 value=0 time=0
18	control_change channel=2 control=0 value=0 time=0
19	program_change channel=2 program=12 time=0
20	control_change channel=2 control=7 value=49 time=0
21	control_change channel=2 control=10 value=64 time=0
22	control_change channel=2 control=91 value=0 time=0
23	control_change channel=2 control=93 value=0 time=0
24	control_change channel=3 control=0 value=0 time=0
25	program_change channel=3 program=50 time=0
26	control_change channel=3 control=7 value=111 time=0
27	control_change channel=3 control=10 value=64 time=0
28	control_change channel=3 control=91 value=0 time=0
29	control_change channel=3 control=93 value=0 time=0
30	control_change channel=4 control=0 value=0 time=0
31	program_change channel=4 program=76 time=0
32	control_change channel=4 control=7 value=90 time=0
33	control_change channel=4 control=10 value=64 time=0
34	control_change channel=4 control=91 value=50 time=0
35	control_change channel=4 control=93 value=0 time=0
36	control_change channel=5 control=0 value=0 time=0
37	program_change channel=5 program=122 time=0
38	control_change channel=5 control=7 value=90 time=0
39	control_change channel=5 control=10 value=64 time=0
40	control_change channel=5 control=91 value=50 time=0
41	control_change channel=5 control=93 value=0 time=0
42	control_change channel=6 control=0 value=0 time=0
43	program_change channel=6 program=104 time=0
44	control_change channel=6 control=7 value=90 time=0
45	control_change channel=6 control=10 value=64 time=0
46	control_change channel=6 control=91 value=50 time=0
47	control_change channel=6 control=93 value=0 time=0
48	control_change channel=7 control=0 value=0 time=0
49	program_change channel=7 program=107 time=0
50	control_change channel=7 control=7 value=90 time=0
51	control_change channel=7 control=10 value=64 time=0
52	control_change channel=7 control=91 value=50 time=0
53	control_change channel=7 control=93 value=0 time=0
54	control_change channel=8 control=0 value=0 time=0
55	program_change channel=8 program=51 time=0
56	control_change channel=8 control=7 value=66 time=0
57	control_change channel=8 control=10 value=64 time=0
58	control_change channel=8 control=91 value=20 time=0
59	control_change channel=8 control=93 value=0 time=0
60	program_change channel=9 program=0 time=0
61	control_change channel=9 control=7 value=90 time=0
62	control_change channel=9 control=10 value=64 time=0
63	control_change channel=9 control=91 value=64 time=0
64	control_change channel=9 control=93 value=0 time=0
65	control_change channel=10 control=0 value=0 time=0
66	program_change channel=10 program=78 time=0
67	control_change channel=10 control=7 value=28 time=0
68	control_change channel=10 control=10 value=64 time=0
69	control_change channel=10 control=91 value=50 time=0
70	control_change channel=10 control=93 value=10 time=0
71	control_change channel=11 control=0 value=0 time=0
72	program_change channel=11 program=28 time=0
73	control_change channel=11 control=7 value=90 time=0
74	control_change channel=11 control=10 value=64 time=0
75	control_change channel=11 control=91 value=50 time=0
76	control_change channel=11 control=93 value=0 time=0
77	control_change channel=12 control=0 value=0 time=0
78	program_change channel=12 program=54 time=0
79	control_change channel=12 control=7 value=90 time=0
80	control_change channel=12 control=10 value=64 time=0
81	control_change channel=12 control=91 value=50 time=0
82	control_change channel=12 control=93 value=10 time=0
83	control_change channel=13 control=0 value=0 time=0
84	program_change channel=13 program=15 time=0
85	control_change channel=13 control=7 value=90 time=0
86	control_change channel=13 control=10 value=64 time=0
87	control_change channel=13 control=91 value=0 time=0
88	control_change channel=13 control=93 value=0 time=0
89	control_change channel=14 control=0 value=0 time=0
90	program_change channel=14 program=95 time=0
91	control_change channel=14 control=7 value=127 time=0
92	control_change channel=14 control=10 value=64 time=0
93	control_change channel=14 control=91 value=20 time=0
94	control_change channel=14 control=93 value=0 time=0
95	control_change channel=15 control=0 value=0 time=0
96	program_change channel=15 program=90 time=0
97	control_change channel=15 control=7 value=86 time=0
98	control_change channel=15 control=10 value=64 time=0
99	control_change channel=15 control=91 value=20 time=0
100	control_change channel=15 control=93 value=0 time=0
101	note_on channel=9 note=35 velocity=127 time=480
102	note_on channel=9 note=35 velocity=0 time=10
103	note_on channel=9 note=36 velocity=127 time=80
104	note_on channel=9 note=35 velocity=127 time=0
105	note_on channel=9 note=35 velocity=0 time=10
106	note_on channel=9 note=36 velocity=0 time=0
107	note_on channel=9 note=35 velocity=127 time=80
108	note_on channel=9 note=35 velocity=0 time=10
109	note_on channel=9 note=35 velocity=127 time=110
110	note_on channel=9 note=35 velocity=0 time=10
111	note_on channel=9 note=36 velocity=127 time=50
112	note_on channel=9 note=35 velocity=127 time=0
113	note_on channel=9 note=35 velocity=0 time=10
114	note_on channel=9 note=36 velocity=0 time=0
115	note_on channel=9 note=35 velocity=127 time=20
116	note_on channel=9 note=35 velocity=0 time=10
117	note_on channel=9 note=35 velocity=127 time=80
118	note_on channel=9 note=35 velocity=0 time=10
119	note_on channel=9 note=36 velocity=127 time=80
120	note_on channel=9 note=35 velocity=127 time=0
121	note_on channel=9 note=35 velocity=0 time=10
122	note_on channel=9 note=36 velocity=0 time=0
123	note_on channel=9 note=35 velocity=127 time=80
124	note_on channel=9 note=35 velocity=0 time=10
125	note_on channel=9 note=35 velocity=127 time=110
126	note_on channel=9 note=35 velocity=0 time=10
127	note_on channel=9 note=36 velocity=127 time=50
128	note_on channel=9 note=35 velocity=127 time=0
129	note_on channel=9 note=35 velocity=0 time=10
130	note_on channel=9 note=36 velocity=0 time=0
131	note_on channel=9 note=35 velocity=127 time=20
132	note_on channel=9 note=35 velocity=0 time=10
133	note_on channel=9 note=35 velocity=127 time=80
134	note_on channel=9 note=35 velocity=0 time=10
135	note_on channel=9 note=36 velocity=127 time=80
136	note_on channel=9 note=35 velocity=127 time=0
137	note_on channel=9 note=35 velocity=0 time=10
138	note_on channel=9 note=36 velocity=0 time=0
139	note_on channel=9 note=35 velocity=127 time=80
140	note_on channel=9 note=35 velocity=0 time=10
141	note_on channel=9 note=35 velocity=127 time=110
142	note_on channel=9 note=35 velocity=0 time=10
143	note_on channel=9 note=36 velocity=127 time=50
144	note_on channel=9 note=35 velocity=127 time=0
145	note_on channel=9 note=35 velocity=0 time=10
146	note_on channel=9 note=36 velocity=0 time=0
147	note_on channel=9 note=35 velocity=127 time=20
148	note_on channel=9 note=35 velocity=0 time=10
149	note_on channel=9 note=35 velocity=127 time=80
150	note_on channel=9 note=35 velocity=0 time=10
151	note_on channel=9 note=36 velocity=127 time=80
152	note_on channel=9 note=35 velocity=127 time=0
153	note_on channel=9 note=35 velocity=0 time=10
154	note_on channel=9 note=36 velocity=0 time=0
155	note_on channel=9 note=35 velocity=127 time=50
156	note_on channel=9 note=35 velocity=0 time=10
157	note_on channel=0 note=66 velocity=70 time=8
158	note_on channel=9 note=35 velocity=127 time=12
159	note_on channel=9 note=35 velocity=0 time=10
160	note_on channel=9 note=35 velocity=127 time=110
161	note_on channel=9 note=35 velocity=0 time=10
162	note_on channel=9 note=36 velocity=127 time=50
163	note_on channel=9 note=35 velocity=127 time=0
164	note_on channel=9 note=35 velocity=0 time=10
165	note_on channel=9 note=36 velocity=0 time=0
166	note_on channel=9 note=35 velocity=127 time=20
167	note_on channel=9 note=35 velocity=0 time=10
168	note_on channel=0 note=66 velocity=0 time=80
169	note_on channel=9 note=36 velocity=127 time=0
170	note_on channel=9 note=35 velocity=127 time=0
171	note_on channel=9 note=62 velocity=111 time=0
172	note_on channel=9 note=55 velocity=110 time=0
173	note_on channel=1 note=30 velocity=90 time=4
174	note_on channel=9 note=55 velocity=0 time=6
175	note_on channel=9 note=62 velocity=0 time=0
176	note_on channel=9 note=35 velocity=0 time=0
177	note_on channel=9 note=36 velocity=0 time=2
178	note_on channel=9 note=63 velocity=60 time=18
179	note_on channel=9 note=62 velocity=109 time=0
180	note_on channel=9 note=62 velocity=0 time=10
181	note_on channel=9 note=63 velocity=0 time=0
182	note_on channel=9 note=82 velocity=109 time=20
183	note_on channel=1 note=30 velocity=0 time=3
184	note_on channel=1 note=30 velocity=90 time=1
185	note_on channel=9 note=82 velocity=0 time=6
186	note_on channel=1 note=31 velocity=90 time=10
187	note_on channel=1 note=30 velocity=0 time=2
188	note_on channel=9 note=38 velocity=85 time=38
189	note_on channel=9 note=62 velocity=108 time=0
190	note_on channel=9 note=37 velocity=127 time=0
191	note_on channel=1 note=30 velocity=90 time=4
192	note_on channel=1 note=31 velocity=0 time=4
193	note_on channel=9 note=37 velocity=0 time=2
194	note_on channel=9 note=38 velocity=0 time=0
195	note_on channel=9 note=62 velocity=0 time=0
196	note_on channel=9 note=82 velocity=111 time=50
197	note_on channel=9 note=82 velocity=0 time=10
198	note_on channel=9 note=62 velocity=109 time=20
199	note_on channel=9 note=62 velocity=0 time=10
200	note_on channel=2 note=17 velocity=90 time=20
201	note_on channel=9 note=64 velocity=68 time=0
202	note_on channel=9 note=64 velocity=0 time=10
203	note_on channel=2 note=17 velocity=0 time=14
204	note_on channel=2 note=17 velocity=90 time=6
205	note_on channel=9 note=63 velocity=58 time=0
206	note_on channel=9 note=62 velocity=108 time=0
207	note_on channel=9 note=62 velocity=0 time=10
208	note_on channel=9 note=63 velocity=0 time=0
209	note_on channel=9 note=82 velocity=110 time=20
210	note_on channel=9 note=63 velocity=59 time=0
211	note_on channel=2 note=17 velocity=0 time=6
212	note_on channel=9 note=63 velocity=0 time=4
213	note_on channel=9 note=82 velocity=0 time=0
214	note_on channel=9 note=63 velocity=59 time=20
215	note_on channel=9 note=63 velocity=0 time=10
216	note_on channel=9 note=38 velocity=86 time=20
217	note_on channel=9 note=64 velocity=67 time=0
218	note_on channel=9 note=37 velocity=127 time=0
219	note_on channel=9 note=37 velocity=0 time=10
220	note_on channel=9 note=64 velocity=0 time=0
221	note_on channel=9 note=38 velocity=0 time=0
222	note_on channel=2 note=15 velocity=90 time=20
223	note_on channel=9 note=62 velocity=109 time=0
224	note_on channel=9 note=62 velocity=0 time=10
225	note_on channel=2 note=15 velocity=0 time=19
226	note_on channel=2 note=15 velocity=90 time=1
227	note_on channel=9 note=36 velocity=127 time=0
228	note_on channel=9 note=82 velocity=111 time=0
229	note_on channel=9 note=62 velocity=108 time=0
230	note_on channel=9 note=62 velocity=0 time=10
231	note_on channel=9 note=82 velocity=0 time=0
232	note_on channel=9 note=36 velocity=0 time=2
233	note_on channel=2 note=15 velocity=0 time=17
234	note_on channel=2 note=15 velocity=90 time=1
235	note_on channel=9 note=35 velocity=127 time=0
236	note_on channel=9 note=62 velocity=110 time=0
237	note_on channel=9 note=62 velocity=0 time=10
238	note_on channel=9 note=35 velocity=0 time=4
239	note_on channel=1 note=30 velocity=0 time=10
240	note_on channel=2 note=15 velocity=0 time=4
241	note_on channel=2 note=15 velocity=90 time=2
242	note_on channel=9 note=36 velocity=127 time=0
243	note_on channel=9 note=35 velocity=127 time=0
244	note_on channel=9 note=62 velocity=110 time=0
245	note_on channel=1 note=30 velocity=90 time=2
246	note_on channel=9 note=62 velocity=0 time=8
247	note_on channel=9 note=35 velocity=0 time=4
248	note_on channel=9 note=36 velocity=0 time=2
249	note_on channel=2 note=15 velocity=0 time=12
250	note_on channel=2 note=17 velocity=90 time=2
251	note_on channel=9 note=63 velocity=59 time=0
252	note_on channel=9 note=62 velocity=110 time=0
253	note_on channel=9 note=62 velocity=0 time=10
254	note_on channel=9 note=63 velocity=0 time=0
255	note_on channel=9 note=82 velocity=111 time=20
256	note_on channel=2 note=17 velocity=0 time=2
257	note_on channel=9 note=82 velocity=0 time=8
258	note_on channel=9 note=38 velocity=86 time=50
259	note_on channel=9 note=62 velocity=108 time=0
260	note_on channel=9 note=37 velocity=127 time=0
261	note_on channel=9 note=37 velocity=0 time=10
262	note_on channel=9 note=62 velocity=0 time=0
263	note_on channel=9 note=38 velocity=0 time=0
264	note_on channel=9 note=82 velocity=110 time=50
265	note_on channel=9 note=82 velocity=0 time=10
266	note_on channel=9 note=62 velocity=110 time=20
267	note_on channel=9 note=62 velocity=0 time=10
268	note_on channel=2 note=17 velocity=90 time=20
269	note_on channel=9 note=64 velocity=68 time=0
270	note_on channel=9 note=64 velocity=0 time=10
271	note_on channel=2 note=17 velocity=0 time=18
272	note_on channel=2 note=17 velocity=90 time=2
273	note_on channel=9 note=63 velocity=59 time=0
274	note_on channel=9 note=62 velocity=109 time=0
275	note_on channel=9 note=62 velocity=0 time=10
276	note_on channel=9 note=63 velocity=0 time=0
277	note_on channel=9 note=82 velocity=111 time=20
278	note_on channel=9 note=63 velocity=57 time=0
279	note_on channel=2 note=17 velocity=0 time=4
280	note_on channel=9 note=63 velocity=0 time=6
281	note_on channel=9 note=82 velocity=0 time=0
282	note_on channel=9 note=63 velocity=58 time=20
283	note_on channel=9 note=63 velocity=0 time=10
284	note_on channel=1 note=30 velocity=0 time=16
285	note_on channel=9 note=38 velocity=88 time=4
286	note_on channel=9 note=64 velocity=69 time=0
287	note_on channel=9 note=37 velocity=127 time=0
288	note_on channel=9 note=37 velocity=0 time=10
289	note_on channel=9 note=64 velocity=0 time=0
290	note_on channel=9 note=38 velocity=0 time=0
291	note_on channel=9 note=62 velocity=110 time=20
292	note_on channel=9 note=62 velocity=0 time=10
293	note_on channel=1 note=28 velocity=90 time=20
294	note_on channel=9 note=82 velocity=111 time=0
295	note_on channel=9 note=62 velocity=110 time=0
296	note_on channel=9 note=62 velocity=0 time=10
297	note_on channel=9 note=82 velocity=0 time=0
298	note_on channel=9 note=62 velocity=109 time=20
299	note_on channel=9 note=62 velocity=0 time=10
300	note_on channel=1 note=28 velocity=0 time=18
301	note_on channel=9 note=36 velocity=127 time=2
302	note_on channel=9 note=35 velocity=127 time=0
303	note_on channel=9 note=62 velocity=111 time=0
304	note_on channel=1 note=30 velocity=90 time=4
305	note_on channel=9 note=62 velocity=0 time=6
306	note_on channel=9 note=35 velocity=0 time=0
307	note_on channel=9 note=36 velocity=0 time=2
308	note_on channel=9 note=63 velocity=60 time=18
309	note_on channel=9 note=62 velocity=109 time=0
310	note_on channel=9 note=62 velocity=0 time=10
311	note_on channel=9 note=63 velocity=0 time=0
312	note_on channel=9 note=82 velocity=109 time=20
313	note_on channel=1 note=30 velocity=0 time=3
314	note_on channel=1 note=30 velocity=90 time=1
315	note_on channel=9 note=82 velocity=0 time=6
316	note_on channel=1 note=31 velocity=90 time=10
317	note_on channel=1 note=30 velocity=0 time=2
318	note_on channel=9 note=38 velocity=85 time=38
319	note_on channel=9 note=62 velocity=108 time=0
320	note_on channel=9 note=37 velocity=127 time=0
321	note_on channel=1 note=30 velocity=90 time=4
322	note_on channel=1 note=31 velocity=0 time=4
323	note_on channel=9 note=37 velocity=0 time=2
324	note_on channel=9 note=38 velocity=0 time=0
325	note_on channel=9 note=62 velocity=0 time=0
326	note_on channel=9 note=82 velocity=111 time=50
327	note_on channel=9 note=82 velocity=0 time=10
328	note_on channel=9 note=62 velocity=109 time=20
329	note_on channel=9 note=62 velocity=0 time=10
330	note_on channel=2 note=17 velocity=90 time=20
331	note_on channel=9 note=64 velocity=68 time=0
332	note_on channel=9 note=64 velocity=0 time=10
333	note_on channel=2 note=17 velocity=0 time=14
334	note_on channel=2 note=17 velocity=90 time=6
335	note_on channel=9 note=63 velocity=58 time=0
336	note_on channel=9 note=62 velocity=108 time=0
337	note_on channel=9 note=62 velocity=0 time=10
338	note_on channel=9 note=63 velocity=0 time=0
339	note_on channel=9 note=82 velocity=110 time=20
340	note_on channel=9 note=63 velocity=59 time=0
341	note_on channel=2 note=17 velocity=0 time=6
342	note_on channel=9 note=63 velocity=0 time=4
343	note_on channel=9 note=82 velocity=0 time=0
344	note_on channel=9 note=63 velocity=59 time=20
345	note_on channel=9 note=63 velocity=0 time=10
346	note_on channel=9 note=38 velocity=86 time=20
347	note_on channel=9 note=64 velocity=67 time=0
348	note_on channel=9 note=37 velocity=127 time=0
349	note_on channel=9 note=37 velocity=0 time=10
350	note_on channel=9 note=64 velocity=0 time=0
351	note_on channel=9 note=38 velocity=0 time=0
352	note_on channel=2 note=15 velocity=90 time=20
353	note_on channel=9 note=62 velocity=109 time=0
354	note_on channel=9 note=62 velocity=0 time=10
355	note_on channel=2 note=15 velocity=0 time=19
356	note_on channel=2 note=15 velocity=90 time=1
357	note_on channel=9 note=36 velocity=127 time=0
358	note_on channel=9 note=82 velocity=111 time=0
359	note_on channel=9 note=62 velocity=108 time=0
360	note_on channel=9 note=62 velocity=0 time=10
361	note_on channel=9 note=82 velocity=0 time=0
362	note_on channel=9 note=36 velocity=0 time=2
363	note_on channel=2 note=15 velocity=0 time=17
364	note_on channel=2 note=15 velocity=90 time=1
365	note_on channel=9 note=35 velocity=127 time=0
366	note_on channel=9 note=62 velocity=110 time=0
367	note_on channel=9 note=62 velocity=0 time=10
368	note_on channel=9 note=35 velocity=0 time=4
369	note_on channel=1 note=30 velocity=0 time=4
370	note_on channel=2 note=15 velocity=0 time=10
371	note_on channel=2 note=15 velocity=90 time=2
372	note_on channel=9 note=36 velocity=127 time=0
373	note_on channel=9 note=35 velocity=127 time=0
374	note_on channel=9 note=62 velocity=110 time=0
375	note_on channel=1 note=30 velocity=90 time=2
376	note_on channel=9 note=62 velocity=0 time=8
377	note_on channel=9 note=35 velocity=0 time=4
378	note_on channel=9 note=36 velocity=0 time=2
379	note_on channel=2 note=15 velocity=0 time=12
380	note_on channel=2 note=17 velocity=90 time=2
381	note_on channel=9 note=63 velocity=59 time=0
382	note_on channel=9 note=62 velocity=110 time=0
383	note_on channel=9 note=62 velocity=0 time=10
384	note_on channel=9 note=63 velocity=0 time=0
385	note_on channel=9 note=82 velocity=111 time=20
386	note_on channel=2 note=17 velocity=0 time=2
387	note_on channel=9 note=82 velocity=0 time=8
388	note_on channel=9 note=38 velocity=86 time=50
389	note_on channel=9 note=62 velocity=108 time=0
390	note_on channel=9 note=37 velocity=127 time=0
391	note_on channel=9 note=37 velocity=0 time=10
392	note_on channel=9 note=62 velocity=0 time=0
393	note_on channel=9 note=38 velocity=0 time=0
394	note_on channel=9 note=82 velocity=110 time=50
395	note_on channel=9 note=82 velocity=0 time=10
396	note_on channel=9 note=62 velocity=110 time=20
397	note_on channel=9 note=62 velocity=0 time=10
398	note_on channel=2 note=17 velocity=90 time=20
399	note_on channel=9 note=64 velocity=68 time=0
400	note_on channel=9 note=64 velocity=0 time=10
401	note_on channel=2 note=17 velocity=0 time=18
402	note_on channel=2 note=17 velocity=90 time=2
403	note_on channel=9 note=63 velocity=59 time=0
404	note_on channel=9 note=62 velocity=109 time=0
405	note_on channel=9 note=62 velocity=0 time=10
406	note_on channel=9 note=63 velocity=0 time=0
407	note_on channel=9 note=82 velocity=111 time=20
408	note_on channel=9 note=63 velocity=57 time=0
409	note_on channel=2 note=17 velocity=0 time=4
410	note_on channel=9 note=63 velocity=0 time=6
411	note_on channel=9 note=82 velocity=0 time=0
412	note_on channel=9 note=63 velocity=58 time=20
413	note_on channel=9 note=63 velocity=0 time=10
414	note_on channel=9 note=38 velocity=88 time=20
415	note_on channel=9 note=64 velocity=69 time=0
416	note_on channel=9 note=37 velocity=127 time=0
417	note_on channel=9 note=37 velocity=0 time=10
418	note_on channel=9 note=64 velocity=0 time=0
419	note_on channel=9 note=38 velocity=0 time=0
420	note_on channel=9 note=62 velocity=110 time=20
421	note_on channel=9 note=62 velocity=0 time=10
422	note_on channel=9 note=82 velocity=111 time=20
423	note_on channel=9 note=62 velocity=110 time=0
424	note_on channel=9 note=62 velocity=0 time=10
425	note_on channel=9 note=82 velocity=0 time=0
426	note_on channel=9 note=62 velocity=109 time=20
427	note_on channel=1 note=30 velocity=0 time=8
428	note_on channel=9 note=62 velocity=0 time=2
429	note_on channel=1 note=30 velocity=116 time=20
430	note_on channel=3 note=54 velocity=90 time=0
431	note_on channel=3 note=42 velocity=90 time=0
432	note_on channel=9 note=36 velocity=127 time=0
433	note_on channel=9 note=35 velocity=127 time=0
434	note_on channel=9 note=82 velocity=108 time=0
435	note_on channel=9 note=82 velocity=0 time=10
436	note_on channel=9 note=36 velocity=0 time=0
437	note_on channel=9 note=35 velocity=0 time=0
438	note_on channel=9 note=82 velocity=90 time=50
439	note_on channel=9 note=27 velocity=103 time=0
440	note_on channel=9 note=27 velocity=0 time=10
441	note_on channel=9 note=82 velocity=0 time=0
442	note_on channel=9 note=36 velocity=127 time=20
443	note_on channel=9 note=35 velocity=127 time=0
444	note_on channel=9 note=35 velocity=0 time=10
445	note_on channel=9 note=36 velocity=0 time=0
446	note_on channel=9 note=82 velocity=88 time=20
447	note_on channel=9 note=27 velocity=101 time=0
448	note_on channel=9 note=27 velocity=0 time=10
449	note_on channel=9 note=82 velocity=0 time=0
450	note_on channel=9 note=38 velocity=88 time=50
451	note_on channel=9 note=82 velocity=67 time=0
452	note_on channel=9 note=37 velocity=127 time=0
453	note_on channel=9 note=37 velocity=0 time=10
454	note_on channel=9 note=38 velocity=0 time=0
455	note_on channel=9 note=82 velocity=0 time=0
456	note_on channel=1 note=30 velocity=0 time=36
457	note_on channel=3 note=42 velocity=0 time=10
458	note_on channel=3 note=54 velocity=0 time=0
459	note_on channel=1 note=33 velocity=114 time=4
460	note_on channel=3 note=57 velocity=90 time=0
461	note_on channel=3 note=45 velocity=90 time=0
462	note_on channel=9 note=82 velocity=109 time=0
463	note_on channel=9 note=82 velocity=0 time=10
464	note_on channel=9 note=38 velocity=87 time=20
465	note_on channel=9 note=37 velocity=127 time=0
466	note_on channel=9 note=37 velocity=0 time=10
467	note_on channel=9 note=38 velocity=0 time=0
468	note_on channel=9 note=36 velocity=127 time=20
469	note_on channel=9 note=35 velocity=127 time=0
470	note_on channel=9 note=82 velocity=88 time=0
471	note_on channel=9 note=82 velocity=0 time=10
472	note_on channel=9 note=36 velocity=0 time=0
473	note_on channel=9 note=35 velocity=0 time=0
474	note_on channel=9 note=38 velocity=86 time=50
475	note_on channel=9 note=82 velocity=90 time=0
476	note_on channel=9 note=37 velocity=127 time=0
477	note_on channel=9 note=37 velocity=0 time=10
478	note_on channel=9 note=38 velocity=0 time=0
479	note_on channel=9 note=82 velocity=0 time=0
480	note_on channel=9 note=36 velocity=127 time=20
481	note_on channel=9 note=35 velocity=127 time=0
482	note_on channel=9 note=35 velocity=0 time=10
483	note_on channel=9 note=36 velocity=0 time=0
484	note_on channel=9 note=82 velocity=67 time=20
485	note_on channel=9 note=82 velocity=0 time=10
486	note_on channel=9 note=36 velocity=127 time=20
487	note_on channel=9 note=35 velocity=127 time=0
488	note_on channel=9 note=35 velocity=0 time=10
489	note_on channel=9 note=36 velocity=0 time=0
490	note_on channel=3 note=45 velocity=0 time=16
491	note_on channel=1 note=33 velocity=0 time=0
492	note_on channel=3 note=57 velocity=0 time=0
493	note_on channel=1 note=35 velocity=114 time=4
494	note_on channel=3 note=59 velocity=90 time=0
495	note_on channel=3 note=47 velocity=90 time=0
496	note_on channel=9 note=36 velocity=127 time=0
497	note_on channel=9 note=35 velocity=127 time=0
498	note_on channel=9 note=82 velocity=110 time=0
499	note_on channel=9 note=82 velocity=0 time=10
500	note_on channel=9 note=36 velocity=0 time=0
501	note_on channel=9 note=35 velocity=0 time=0
502	note_on channel=9 note=82 velocity=91 time=50
503	note_on channel=9 note=27 velocity=103 time=0
504	note_on channel=9 note=27 velocity=0 time=10
505	note_on channel=9 note=82 velocity=0 time=0
506	note_on channel=9 note=36 velocity=127 time=20
507	note_on channel=9 note=35 velocity=127 time=0
508	note_on channel=9 note=35 velocity=0 time=10
509	note_on channel=9 note=36 velocity=0 time=0
510	note_on channel=9 note=82 velocity=91 time=20
511	note_on channel=9 note=27 velocity=103 time=0
512	note_on channel=9 note=27 velocity=0 time=10
513	note_on channel=9 note=82 velocity=0 time=0
514	note_on channel=9 note=38 velocity=87 time=50
515	note_on channel=9 note=82 velocity=73 time=0
516	note_on channel=9 note=37 velocity=127 time=0
517	note_on channel=9 note=37 velocity=0 time=10
518	note_on channel=9 note=38 velocity=0 time=0
519	note_on channel=9 note=82 velocity=0 time=0
520	note_on channel=3 note=47 velocity=0 time=34
521	note_on channel=3 note=59 velocity=0 time=4
522	note_on channel=1 note=35 velocity=0 time=4
523	note_on channel=1 note=37 velocity=112 time=8
524	note_on channel=3 note=61 velocity=90 time=0
525	note_on channel=3 note=49 velocity=90 time=0
526	note_on channel=9 note=82 velocity=109 time=0
527	note_on channel=9 note=82 velocity=0 time=10
528	note_on channel=9 note=38 velocity=86 time=20
529	note_on channel=9 note=37 velocity=127 time=0
530	note_on channel=9 note=37 velocity=0 time=10
531	note_on channel=9 note=38 velocity=0 time=0
532	note_on channel=9 note=82 velocity=91 time=20
533	note_on channel=9 note=82 velocity=0 time=10
534	note_on channel=9 note=38 velocity=85 time=50
535	note_on channel=9 note=82 velocity=89 time=0
536	note_on channel=9 note=37 velocity=127 time=0
537	note_on channel=9 note=37 velocity=0 time=10
538	note_on channel=9 note=38 velocity=0 time=0
539	note_on channel=9 note=82 velocity=0 time=0
540	note_on channel=9 note=36 velocity=127 time=20
541	note_on channel=9 note=35 velocity=127 time=0
542	note_on channel=9 note=35 velocity=0 time=10
543	note_on channel=9 note=36 velocity=0 time=0
544	note_on channel=9 note=82 velocity=68 time=20
545	note_on channel=9 note=82 velocity=0 time=10
546	note_on channel=3 note=61 velocity=0 time=38
547	note_on channel=3 note=49 velocity=0 time=4
548	note_on channel=1 note=37 velocity=0 time=4
549	note_on channel=1 note=30 velocity=116 time=4
550	note_on channel=3 note=54 velocity=90 time=0
551	note_on channel=3 note=42 velocity=90 time=0
552	note_on channel=9 note=36 velocity=127 time=0
553	note_on channel=9 note=35 velocity=127 time=0
554	note_on channel=9 note=82 velocity=108 time=0
555	note_on channel=9 note=82 velocity=0 time=10
556	note_on channel=9 note=36 velocity=0 time=0
557	note_on channel=9 note=35 velocity=0 time=0
558	note_on channel=9 note=82 velocity=90 time=50
559	note_on channel=9 note=27 velocity=103 time=0
560	note_on channel=9 note=27 velocity=0 time=10
561	note_on channel=9 note=82 velocity=0 time=0
562	note_on channel=9 note=36 velocity=127 time=20
563	note_on channel=9 note=35 velocity=127 time=0
564	note_on channel=9 note=35 velocity=0 time=10
565	note_on channel=9 note=36 velocity=0 time=0
566	note_on channel=9 note=82 velocity=88 time=20
567	note_on channel=9 note=27 velocity=101 time=0
568	note_on channel=9 note=27 velocity=0 time=10
569	note_on channel=9 note=82 velocity=0 time=0
570	note_on channel=9 note=38 velocity=88 time=50
571	note_on channel=9 note=82 velocity=67 time=0
572	note_on channel=9 note=37 velocity=127 time=0
573	note_on channel=9 note=37 velocity=0 time=10
574	note_on channel=9 note=38 velocity=0 time=0
575	note_on channel=9 note=82 velocity=0 time=0
576	note_on channel=1 note=30 velocity=0 time=36
577	note_on channel=3 note=42 velocity=0 time=10
578	note_on channel=3 note=54 velocity=0 time=0
579	note_on channel=1 note=33 velocity=114 time=4
580	note_on channel=3 note=57 velocity=90 time=0
581	note_on channel=3 note=45 velocity=90 time=0
582	note_on channel=9 note=82 velocity=109 time=0
583	note_on channel=9 note=82 velocity=0 time=10
584	note_on channel=9 note=38 velocity=87 time=20
585	note_on channel=9 note=37 velocity=127 time=0
586	note_on channel=9 note=37 velocity=0 time=10
587	note_on channel=9 note=38 velocity=0 time=0
588	note_on channel=9 note=36 velocity=127 time=20
589	note_on channel=9 note=35 velocity=127 time=0
590	note_on channel=9 note=82 velocity=88 time=0
591	note_on channel=9 note=82 velocity=0 time=10
592	note_on channel=9 note=36 velocity=0 time=0
593	note_on channel=9 note=35 velocity=0 time=0
594	note_on channel=9 note=38 velocity=86 time=50
595	note_on channel=9 note=82 velocity=90 time=0
596	note_on channel=9 note=37 velocity=127 time=0
597	note_on channel=9 note=37 velocity=0 time=10
598	note_on channel=9 note=38 velocity=0 time=0
599	note_on channel=9 note=82 velocity=0 time=0
600	note_on channel=9 note=36 velocity=127 time=20
601	note_on channel=9 note=35 velocity=127 time=0
602	note_on channel=9 note=35 velocity=0 time=10
603	note_on channel=9 note=36 velocity=0 time=0
604	note_on channel=9 note=82 velocity=67 time=20
605	note_on channel=9 note=82 velocity=0 time=10
606	note_on channel=9 note=36 velocity=127 time=20
607	note_on channel=9 note=35 velocity=127 time=0
608	note_on channel=9 note=35 velocity=0 time=10
609	note_on channel=9 note=36 velocity=0 time=0
610	note_on channel=3 note=45 velocity=0 time=16
611	note_on channel=1 note=33 velocity=0 time=0
612	note_on channel=3 note=57 velocity=0 time=0
613	note_on channel=1 note=35 velocity=114 time=4
614	note_on channel=3 note=59 velocity=90 time=0
615	note_on channel=3 note=47 velocity=90 time=0
616	note_on channel=9 note=36 velocity=127 time=0
617	note_on channel=9 note=35 velocity=127 time=0
618	note_on channel=9 note=82 velocity=110 time=0
619	note_on channel=9 note=82 velocity=0 time=10
620	note_on channel=9 note=36 velocity=0 time=0
621	note_on channel=9 note=35 velocity=0 time=0
622	note_on channel=9 note=82 velocity=91 time=50
623	note_on channel=9 note=27 velocity=103 time=0
624	note_on channel=9 note=27 velocity=0 time=10
625	note_on channel=9 note=82 velocity=0 time=0
626	note_on channel=9 note=36 velocity=127 time=20
627	note_on channel=9 note=35 velocity=127 time=0
628	note_on channel=9 note=35 velocity=0 time=10
629	note_on channel=9 note=36 velocity=0 time=0
630	note_on channel=9 note=82 velocity=91 time=20
631	note_on channel=9 note=27 velocity=103 time=0
632	note_on channel=9 note=27 velocity=0 time=10
633	note_on channel=9 note=82 velocity=0 time=0
634	note_on channel=9 note=82 velocity=73 time=50
635	note_on channel=9 note=37 velocity=127 time=0
636	note_on channel=9 note=37 velocity=0 time=10
637	note_on channel=9 note=82 velocity=0 time=0
638	note_on channel=3 note=47 velocity=0 time=34
639	note_on channel=3 note=59 velocity=0 time=4
640	note_on channel=1 note=35 velocity=0 time=4
641	note_on channel=1 note=37 velocity=112 time=8
642	note_on channel=3 note=61 velocity=90 time=0
643	note_on channel=3 note=49 velocity=90 time=0
644	note_on channel=9 note=38 velocity=92 time=0
645	note_on channel=9 note=82 velocity=109 time=0
646	note_on channel=9 note=82 velocity=0 time=10
647	note_on channel=9 note=38 velocity=0 time=1
648	note_on channel=9 note=38 velocity=93 time=4
649	note_on channel=9 note=38 velocity=0 time=13
650	note_on channel=9 note=38 velocity=93 time=2
651	note_on channel=9 note=37 velocity=127 time=0
652	note_on channel=9 note=37 velocity=0 time=10
653	note_on channel=9 note=38 velocity=0 time=0
654	note_on channel=9 note=38 velocity=93 time=5
655	note_on channel=9 note=38 velocity=0 time=9
656	note_on channel=9 note=82 velocity=91 time=6
657	note_on channel=9 note=82 velocity=0 time=10
658	note_on channel=9 note=38 velocity=67 time=20
659	note_on channel=9 note=38 velocity=0 time=11
660	note_on channel=9 note=38 velocity=85 time=19
661	note_on channel=9 note=82 velocity=89 time=0
662	note_on channel=9 note=37 velocity=127 time=0
663	note_on channel=9 note=37 velocity=0 time=10
664	note_on channel=9 note=38 velocity=0 time=0
665	note_on channel=9 note=82 velocity=0 time=0
666	note_on channel=9 note=36 velocity=127 time=20
667	note_on channel=9 note=35 velocity=127 time=0
668	note_on channel=9 note=35 velocity=0 time=10
669	note_on channel=9 note=36 velocity=0 time=0
670	note_on channel=9 note=82 velocity=68 time=20
671	note_on channel=9 note=82 velocity=0 time=10
672	note_on channel=3 note=61 velocity=0 time=38
673	note_on channel=3 note=49 velocity=0 time=4
674	note_on channel=1 note=37 velocity=0 time=4
675	note_on channel=9 note=55 velocity=127 time=2
676	note_on channel=1 note=30 velocity=116 time=2
677	note_on channel=3 note=54 velocity=90 time=0
678	note_on channel=3 note=42 velocity=90 time=0
679	note_on channel=9 note=36 velocity=127 time=0
680	note_on channel=9 note=35 velocity=127 time=0
681	note_on channel=9 note=82 velocity=108 time=0
682	note_on channel=9 note=82 velocity=0 time=10
683	note_on channel=9 note=36 velocity=0 time=0
684	note_on channel=9 note=35 velocity=0 time=0
685	note_on channel=4 note=73 velocity=127 time=50
686	note_on channel=9 note=82 velocity=90 time=0
687	note_on channel=9 note=27 velocity=103 time=0
688	note_on channel=9 note=27 velocity=0 time=10
689	note_on channel=9 note=82 velocity=0 time=0
690	note_on channel=4 note=70 velocity=127 time=20
691	note_on channel=9 note=36 velocity=127 time=0
692	note_on channel=9 note=35 velocity=127 time=0
693	note_on channel=4 note=73 velocity=0 time=2
694	note_on channel=9 note=35 velocity=0 time=8
695	note_on channel=9 note=36 velocity=0 time=0
696	note_on channel=4 note=70 velocity=0 time=20
697	note_on channel=9 note=82 velocity=88 time=0
698	note_on channel=9 note=27 velocity=101 time=0
699	note_on channel=9 note=27 velocity=0 time=10
700	note_on channel=9 note=82 velocity=0 time=0
701	note_on channel=9 note=38 velocity=88 time=50
702	note_on channel=9 note=82 velocity=67 time=0
703	note_on channel=9 note=37 velocity=127 time=0
704	note_on channel=9 note=37 velocity=0 time=10
705	note_on channel=9 note=38 velocity=0 time=0
706	note_on channel=9 note=82 velocity=0 time=0
707	note_on channel=1 note=30 velocity=0 time=36
708	note_on channel=3 note=42 velocity=0 time=10
709	note_on channel=3 note=54 velocity=0 time=0
710	note_on channel=1 note=33 velocity=114 time=4
711	note_on channel=3 note=57 velocity=90 time=0
712	note_on channel=3 note=45 velocity=90 time=0
713	note_on channel=9 note=82 velocity=109 time=0
714	note_on channel=9 note=82 velocity=0 time=10
715	note_on channel=9 note=38 velocity=87 time=20
716	note_on channel=9 note=37 velocity=127 time=0
717	note_on channel=9 note=37 velocity=0 time=10
718	note_on channel=9 note=38 velocity=0 time=0
719	note_on channel=4 note=73 velocity=127 time=20
720	note_on channel=9 note=36 velocity=127 time=0
721	note_on channel=9 note=35 velocity=127 time=0
722	note_on channel=9 note=82 velocity=88 time=0
723	note_on channel=9 note=82 velocity=0 time=10
724	note_on channel=9 note=35 velocity=0 time=0
725	note_on channel=9 note=36 velocity=0 time=0
726	note_on channel=9 note=55 velocity=0 time=4
727	note_on channel=4 note=66 velocity=127 time=16
728	note_on channel=4 note=73 velocity=0 time=2
729	note_on channel=4 note=66 velocity=0 time=28
730	note_on channel=9 note=38 velocity=86 time=0
731	note_on channel=9 note=82 velocity=90 time=0
732	note_on channel=9 note=37 velocity=127 time=0
733	note_on channel=9 note=37 velocity=0 time=10
734	note_on channel=9 note=38 velocity=0 time=0
735	note_on channel=9 note=82 velocity=0 time=0
736	note_on channel=9 note=36 velocity=127 time=20
737	note_on channel=9 note=35 velocity=127 time=0
738	note_on channel=9 note=35 velocity=0 time=10
739	note_on channel=9 note=36 velocity=0 time=0
740	note_on channel=9 note=82 velocity=67 time=20
741	note_on channel=9 note=82 velocity=0 time=10
742	note_on channel=9 note=36 velocity=127 time=20
743	note_on channel=9 note=35 velocity=127 time=0
744	note_on channel=9 note=35 velocity=0 time=10
745	note_on channel=9 note=36 velocity=0 time=0
746	note_on channel=3 note=57 velocity=0 time=16
747	note_on channel=1 note=33 velocity=0 time=0
748	note_on channel=3 note=45 velocity=0 time=0
749	note_on channel=1 note=40 velocity=114 time=4
750	note_on channel=3 note=52 velocity=90 time=0
751	note_on channel=4 note=66 velocity=127 time=0
752	note_on channel=9 note=36 velocity=127 time=0
753	note_on channel=9 note=35 velocity=127 time=0
754	note_on channel=9 note=82 velocity=110 time=0
755	note_on channel=3 note=57 velocity=90 time=4
756	note_on channel=9 note=82 velocity=0 time=6
757	note_on channel=9 note=36 velocity=0 time=0
758	note_on channel=9 note=35 velocity=0 time=0
759	note_on channel=4 note=66 velocity=0 time=20
760	note_on channel=4 note=64 velocity=127 time=30
761	note_on channel=9 note=82 velocity=91 time=0
762	note_on channel=9 note=27 velocity=103 time=0
763	note_on channel=9 note=27 velocity=0 time=10
764	note_on channel=9 note=82 velocity=0 time=0
765	note_on channel=4 note=64 velocity=0 time=10
766	note_on channel=4 note=66 velocity=127 time=10
767	note_on channel=9 note=36 velocity=127 time=0
768	note_on channel=9 note=35 velocity=127 time=0
769	note_on channel=9 note=35 velocity=0 time=10
770	note_on channel=9 note=36 velocity=0 time=0
771	note_on channel=4 note=66 velocity=0 time=6
772	note_on channel=9 note=82 velocity=91 time=14
773	note_on channel=9 note=27 velocity=103 time=0
774	note_on channel=9 note=27 velocity=0 time=10
775	note_on channel=9 note=82 velocity=0 time=0
776	note_on channel=4 note=66 velocity=127 time=20
777	note_on channel=9 note=38 velocity=87 time=30
778	note_on channel=9 note=82 velocity=73 time=0
779	note_on channel=9 note=37 velocity=127 time=0
780	note_on channel=9 note=37 velocity=0 time=10
781	note_on channel=9 note=38 velocity=0 time=0
782	note_on channel=9 note=82 velocity=0 time=0
783	note_on channel=4 note=66 velocity=0 time=2
784	note_on channel=4 note=71 velocity=127 time=18
785	note_on channel=3 note=52 velocity=0 time=14
786	note_on channel=3 note=57 velocity=0 time=6
787	note_on channel=1 note=40 velocity=0 time=2
788	note_on channel=4 note=71 velocity=0 time=0
789	note_on channel=1 note=42 velocity=112 time=8
790	note_on channel=3 note=66 velocity=90 time=0
791	note_on channel=3 note=54 velocity=90 time=0
792	note_on channel=9 note=82 velocity=109 time=0
793	note_on channel=9 note=82 velocity=0 time=10
794	note_on channel=4 note=69 velocity=127 time=20
795	note_on channel=9 note=38 velocity=86 time=0
796	note_on channel=9 note=37 velocity=127 time=0
797	note_on channel=9 note=37 velocity=0 time=10
798	note_on channel=9 note=38 velocity=0 time=0
799	note_on channel=9 note=82 velocity=91 time=20
800	note_on channel=9 note=82 velocity=0 time=10
801	note_on channel=4 note=69 velocity=0 time=46
802	note_on channel=9 note=38 velocity=85 time=4
803	note_on channel=9 note=82 velocity=89 time=0
804	note_on channel=9 note=37 velocity=127 time=0
805	note_on channel=9 note=37 velocity=0 time=10
806	note_on channel=9 note=38 velocity=0 time=0
807	note_on channel=9 note=82 velocity=0 time=0
808	note_on channel=9 note=36 velocity=127 time=20
809	note_on channel=9 note=35 velocity=127 time=0
810	note_on channel=9 note=35 velocity=0 time=10
811	note_on channel=9 note=36 velocity=0 time=0
812	note_on channel=9 note=82 velocity=68 time=20
813	note_on channel=9 note=82 velocity=0 time=10
814	note_on channel=3 note=66 velocity=0 time=38
815	note_on channel=3 note=54 velocity=0 time=4
816	note_on channel=1 note=42 velocity=0 time=4
817	note_on channel=1 note=30 velocity=116 time=4
818	note_on channel=3 note=54 velocity=90 time=0
819	note_on channel=3 note=42 velocity=90 time=0
820	note_on channel=9 note=36 velocity=127 time=0
821	note_on channel=9 note=35 velocity=127 time=0
822	note_on channel=9 note=82 velocity=108 time=0
823	note_on channel=9 note=82 velocity=0 time=10
824	note_on channel=9 note=36 velocity=0 time=0
825	note_on channel=9 note=35 velocity=0 time=0
826	note_on channel=4 note=73 velocity=127 time=50
827	note_on channel=9 note=82 velocity=90 time=0
828	note_on channel=9 note=27 velocity=103 time=0
829	note_on channel=9 note=27 velocity=0 time=10
830	note_on channel=9 note=82 velocity=0 time=0
831	note_on channel=4 note=70 velocity=127 time=20
832	note_on channel=9 note=36 velocity=127 time=0
833	note_on channel=9 note=35 velocity=127 time=0
834	note_on channel=4 note=73 velocity=0 time=2
835	note_on channel=9 note=36 velocity=0 time=8
836	note_on channel=9 note=35 velocity=0 time=0
837	note_on channel=4 note=70 velocity=0 time=20
838	note_on channel=9 note=82 velocity=88 time=0
839	note_on channel=9 note=27 velocity=101 time=0
840	note_on channel=9 note=27 velocity=0 time=10
841	note_on channel=9 note=82 velocity=0 time=0
842	note_on channel=9 note=38 velocity=88 time=50
843	note_on channel=9 note=82 velocity=67 time=0
844	note_on channel=9 note=37 velocity=127 time=0
845	note_on channel=9 note=37 velocity=0 time=10
846	note_on channel=9 note=38 velocity=0 time=0
847	note_on channel=9 note=82 velocity=0 time=0
848	note_on channel=1 note=30 velocity=0 time=36
849	note_on channel=3 note=42 velocity=0 time=10
850	note_on channel=3 note=54 velocity=0 time=0
851	note_on channel=1 note=33 velocity=114 time=4
852	note_on channel=3 note=57 velocity=90 time=0
853	note_on channel=3 note=45 velocity=90 time=0
854	note_on channel=9 note=82 velocity=109 time=0
855	note_on channel=9 note=82 velocity=0 time=10
856	note_on channel=9 note=38 velocity=87 time=20
857	note_on channel=9 note=37 velocity=127 time=0
858	note_on channel=9 note=37 velocity=0 time=10
859	note_on channel=9 note=38 velocity=0 time=0
860	note_on channel=4 note=73 velocity=127 time=20
861	note_on channel=9 note=36 velocity=127 time=0
862	note_on channel=9 note=35 velocity=127 time=0
863	note_on channel=9 note=82 velocity=88 time=0
864	note_on channel=9 note=82 velocity=0 time=10
865	note_on channel=9 note=36 velocity=0 time=0
866	note_on channel=9 note=35 velocity=0 time=0
867	note_on channel=4 note=66 velocity=127 time=20
868	note_on channel=4 note=73 velocity=0 time=2
869	note_on channel=4 note=66 velocity=0 time=28
870	note_on channel=9 note=38 velocity=86 time=0
871	note_on channel=9 note=82 velocity=90 time=0
872	note_on channel=9 note=37 velocity=127 time=0
873	note_on channel=9 note=37 velocity=0 time=10
874	note_on channel=9 note=38 velocity=0 time=0
875	note_on channel=9 note=82 velocity=0 time=0
876	note_on channel=9 note=36 velocity=127 time=20
877	note_on channel=9 note=35 velocity=127 time=0
878	note_on channel=9 note=35 velocity=0 time=10
879	note_on channel=9 note=36 velocity=0 time=0
880	note_on channel=9 note=82 velocity=67 time=20
881	note_on channel=9 note=82 velocity=0 time=10
882	note_on channel=9 note=36 velocity=127 time=20
883	note_on channel=9 note=35 velocity=127 time=0
884	note_on channel=9 note=35 velocity=0 time=10
885	note_on channel=9 note=36 velocity=0 time=0
886	note_on channel=3 note=57 velocity=0 time=16
887	note_on channel=1 note=33 velocity=0 time=0
888	note_on channel=3 note=45 velocity=0 time=0
889	note_on channel=3 note=54 velocity=90 time=4
890	note_on channel=3 note=66 velocity=90 time=0
891	note_on channel=4 note=66 velocity=127 time=0
892	note_on channel=5 note=57 velocity=127 time=0
893	note_on channel=9 note=36 velocity=127 time=0
894	note_on channel=9 note=35 velocity=127 time=0
895	note_on channel=1 note=42 velocity=108 time=2
896	note_on channel=9 note=35 velocity=0 time=8
897	note_on channel=9 note=36 velocity=0 time=0
898	note_on channel=4 note=66 velocity=0 time=20
899	note_on channel=4 note=64 velocity=127 time=30
900	note_on channel=5 note=54 velocity=127 time=0
901	note_on channel=4 note=64 velocity=0 time=20
902	note_on channel=4 note=66 velocity=127 time=10
903	note_on channel=4 note=66 velocity=0 time=16
904	note_on channel=5 note=57 velocity=127 time=14
905	note_on channel=4 note=64 velocity=127 time=30
906	note_on channel=4 note=64 velocity=0 time=18
907	note_on channel=5 note=61 velocity=127 time=12
908	note_on channel=4 note=71 velocity=127 time=30
909	note_on channel=4 note=71 velocity=0 time=20
910	note_on channel=5 note=54 velocity=127 time=10
911	note_on channel=4 note=69 velocity=127 time=38
912	note_on channel=4 note=69 velocity=0 time=18
913	note_on channel=5 note=61 velocity=127 time=4
914	note_on channel=4 note=78 velocity=127 time=36
915	note_on channel=5 note=54 velocity=127 time=24
916	note_on channel=1 note=42 velocity=0 time=26
917	note_on channel=5 note=57 velocity=127 time=34
918	note_on channel=4 note=78 velocity=0 time=24
919	note_on channel=3 note=66 velocity=0 time=26
920	note_on channel=5 note=57 velocity=0 time=7
921	note_on channel=5 note=54 velocity=0 time=0
922	note_on channel=5 note=54 velocity=0 time=0
923	note_on channel=5 note=57 velocity=0 time=0
924	note_on channel=5 note=54 velocity=0 time=0
925	note_on channel=5 note=57 velocity=0 time=0
926	note_on channel=5 note=61 velocity=0 time=0
927	note_on channel=5 note=61 velocity=0 time=0
928	note_on channel=3 note=54 velocity=0 time=3
929	note_on channel=1 note=28 velocity=109 time=0
930	note_on channel=6 note=59 velocity=90 time=0
931	note_on channel=8 note=66 velocity=61 time=0
932	note_on channel=8 note=69 velocity=61 time=0
933	note_on channel=8 note=73 velocity=61 time=0
934	note_on channel=9 note=36 velocity=127 time=0
935	note_on channel=9 note=35 velocity=127 time=0
936	note_on channel=9 note=82 velocity=108 time=0
937	note_on channel=7 note=59 velocity=90 time=1
938	note_on channel=9 note=82 velocity=0 time=9
939	note_on channel=9 note=35 velocity=0 time=0
940	note_on channel=9 note=36 velocity=0 time=0
941	note_on channel=6 note=61 velocity=90 time=20
942	note_on channel=7 note=61 velocity=90 time=1
943	note_on channel=6 note=59 velocity=0 time=13
944	note_on channel=7 note=59 velocity=0 time=1
945	note_on channel=1 note=28 velocity=0 time=15
946	note_on channel=1 note=30 velocity=110 time=0
947	note_on channel=6 note=61 velocity=90 time=0
948	note_on channel=9 note=82 velocity=90 time=0
949	note_on channel=9 note=27 velocity=103 time=0
950	note_on channel=7 note=61 velocity=90 time=1
951	note_on channel=9 note=27 velocity=0 time=9
952	note_on channel=9 note=82 velocity=0 time=0
953	note_on channel=6 note=61 velocity=0 time=4
954	note_on channel=7 note=61 velocity=0 time=1
955	note_on channel=1 note=30 velocity=0 time=5
956	note_on channel=6 note=62 velocity=90 time=10
957	note_on channel=7 note=62 velocity=90 time=1
958	note_on channel=6 note=61 velocity=0 time=13
959	note_on channel=7 note=61 velocity=0 time=1
960	note_on channel=1 note=31 velocity=70 time=15
961	note_on channel=6 note=61 velocity=90 time=0
962	note_on channel=9 note=82 velocity=88 time=0
963	note_on channel=9 note=27 velocity=101 time=0
964	note_on channel=7 note=61 velocity=90 time=1
965	note_on channel=9 note=27 velocity=0 time=9
966	note_on channel=9 note=82 velocity=0 time=0
967	note_on channel=1 note=31 velocity=0 time=0
968	note_on channel=6 note=62 velocity=0 time=4
969	note_on channel=7 note=62 velocity=0 time=1
970	note_on channel=6 note=61 velocity=0 time=13
971	note_on channel=7 note=61 velocity=0 time=1
972	note_on channel=1 note=33 velocity=71 time=1
973	note_on channel=6 note=61 velocity=90 time=0
974	note_on channel=7 note=61 velocity=90 time=1
975	note_on channel=1 note=33 velocity=0 time=9
976	note_on channel=6 note=61 velocity=0 time=18
977	note_on channel=7 note=61 velocity=0 time=1
978	note_on channel=1 note=30 velocity=112 time=1
979	note_on channel=6 note=61 velocity=90 time=0
980	note_on channel=9 note=38 velocity=88 time=0
981	note_on channel=9 note=82 velocity=67 time=0
982	note_on channel=9 note=37 velocity=127 time=0
983	note_on channel=7 note=61 velocity=90 time=1
984	note_on channel=9 note=37 velocity=0 time=9
985	note_on channel=9 note=82 velocity=0 time=0
986	note_on channel=9 note=38 velocity=0 time=0
987	note_on channel=6 note=61 velocity=0 time=16
988	note_on channel=7 note=61 velocity=0 time=1
989	note_on channel=6 note=61 velocity=90 time=3
990	note_on channel=7 note=61 velocity=90 time=1
991	note_on channel=6 note=61 velocity=0 time=29
992	note_on channel=1 note=30 velocity=0 time=0
993	note_on channel=1 note=31 velocity=68 time=0
994	note_on channel=6 note=59 velocity=90 time=0
995	note_on channel=9 note=82 velocity=109 time=0
996	note_on channel=7 note=61 velocity=0 time=1
997	note_on channel=7 note=59 velocity=90 time=0
998	note_on channel=9 note=82 velocity=0 time=9
999	note_on channel=1 note=31 velocity=0 time=10
1000	note_on channel=1 note=30 velocity=91 time=10
1001	note_on channel=6 note=61 velocity=90 time=0
1002	note_on channel=9 note=38 velocity=87 time=0
1003	note_on channel=9 note=37 velocity=127 time=0
1004	note_on channel=7 note=61 velocity=90 time=1
1005	note_on channel=9 note=37 velocity=0 time=9
1006	note_on channel=9 note=38 velocity=0 time=0
1007	note_on channel=1 note=30 velocity=0 time=0
1008	note_on channel=6 note=59 velocity=0 time=4
1009	note_on channel=7 note=59 velocity=0 time=1
1010	note_on channel=6 note=61 velocity=0 time=13
1011	note_on channel=7 note=61 velocity=0 time=1
1012	note_on channel=1 note=31 velocity=69 time=1
1013	note_on channel=6 note=61 velocity=90 time=0
1014	note_on channel=9 note=82 velocity=88 time=0
1015	note_on channel=7 note=61 velocity=90 time=1
1016	note_on channel=9 note=82 velocity=0 time=9
1017	note_on channel=1 note=31 velocity=0 time=0
1018	note_on channel=1 note=40 velocity=91 time=20
1019	note_on channel=6 note=62 velocity=90 time=0
1020	note_on channel=7 note=62 velocity=90 time=1
1021	note_on channel=6 note=61 velocity=0 time=13
1022	note_on channel=7 note=61 velocity=0 time=1
1023	note_on channel=1 note=40 velocity=0 time=15
1024	note_on channel=1 note=30 velocity=88 time=0
1025	note_on channel=6 note=61 velocity=90 time=0
1026	note_on channel=9 note=38 velocity=86 time=0
1027	note_on channel=9 note=82 velocity=90 time=0
1028	note_on channel=9 note=37 velocity=127 time=0
1029	note_on channel=7 note=61 velocity=90 time=1
1030	note_on channel=9 note=37 velocity=0 time=9
1031	note_on channel=9 note=82 velocity=0 time=0
1032	note_on channel=1 note=30 velocity=0 time=0
1033	note_on channel=9 note=38 velocity=0 time=0
1034	note_on channel=6 note=62 velocity=0 time=4
1035	note_on channel=7 note=62 velocity=0 time=1
1036	note_on channel=6 note=61 velocity=0 time=13
1037	note_on channel=7 note=61 velocity=0 time=1
1038	note_on channel=1 note=31 velocity=68 time=1
1039	note_on channel=6 note=61 velocity=90 time=0
1040	note_on channel=7 note=61 velocity=90 time=1
1041	note_on channel=1 note=31 velocity=0 time=19
1042	note_on channel=6 note=61 velocity=0 time=8
1043	note_on channel=7 note=61 velocity=0 time=1
1044	note_on channel=1 note=40 velocity=90 time=1
1045	note_on channel=6 note=61 velocity=90 time=0
1046	note_on channel=9 note=82 velocity=67 time=0
1047	note_on channel=7 note=61 velocity=90 time=1
1048	note_on channel=9 note=82 velocity=0 time=9
1049	note_on channel=1 note=40 velocity=0 time=10
1050	note_on channel=6 note=61 velocity=0 time=4
1051	note_on channel=7 note=61 velocity=0 time=1
1052	note_on channel=1 note=42 velocity=91 time=5
1053	note_on channel=6 note=61 velocity=90 time=0
1054	note_on channel=7 note=61 velocity=90 time=1
1055	note_on channel=1 note=42 velocity=0 time=9
1056	note_on channel=6 note=61 velocity=0 time=12
1057	note_on channel=7 note=61 velocity=0 time=1
1058	note_on channel=1 note=30 velocity=109 time=7
1059	note_on channel=6 note=59 velocity=90 time=0
1060	note_on channel=9 note=36 velocity=127 time=0
1061	note_on channel=9 note=35 velocity=127 time=0
1062	note_on channel=9 note=82 velocity=110 time=0
1063	note_on channel=7 note=59 velocity=90 time=1
1064	note_on channel=9 note=82 velocity=0 time=9
1065	note_on channel=9 note=35 velocity=0 time=0
1066	note_on channel=9 note=36 velocity=0 time=0
1067	note_on channel=6 note=61 velocity=90 time=20
1068	note_on channel=7 note=61 velocity=90 time=1
1069	note_on channel=6 note=59 velocity=0 time=13
1070	note_on channel=7 note=59 velocity=0 time=1
1071	note_on channel=1 note=30 velocity=0 time=15
1072	note_on channel=1 note=31 velocity=69 time=0
1073	note_on channel=6 note=61 velocity=90 time=0
1074	note_on channel=9 note=82 velocity=91 time=0
1075	note_on channel=9 note=27 velocity=103 time=0
1076	note_on channel=7 note=61 velocity=90 time=1
1077	note_on channel=9 note=27 velocity=0 time=9
1078	note_on channel=9 note=82 velocity=0 time=0
1079	note_on channel=1 note=31 velocity=0 time=0
1080	note_on channel=6 note=61 velocity=0 time=4
1081	note_on channel=7 note=61 velocity=0 time=1
1082	note_on channel=1 note=33 velocity=90 time=15
1083	note_on channel=6 note=62 velocity=90 time=0
1084	note_on channel=9 note=36 velocity=127 time=0
1085	note_on channel=9 note=35 velocity=127 time=0
1086	note_on channel=7 note=62 velocity=90 time=1
1087	note_on channel=9 note=35 velocity=0 time=9
1088	note_on channel=9 note=36 velocity=0 time=0
1089	note_on channel=1 note=33 velocity=0 time=0
1090	note_on channel=6 note=61 velocity=0 time=4
1091	note_on channel=7 note=61 velocity=0 time=1
1092	note_on channel=1 note=37 velocity=69 time=15
1093	note_on channel=6 note=61 velocity=90 time=0
1094	note_on channel=9 note=82 velocity=91 time=0
1095	note_on channel=9 note=27 velocity=103 time=0
1096	note_on channel=7 note=61 velocity=90 time=1
1097	note_on channel=9 note=27 velocity=0 time=9
1098	note_on channel=9 note=82 velocity=0 time=0
1099	note_on channel=1 note=37 velocity=0 time=0
1100	note_on channel=6 note=62 velocity=0 time=4
1101	note_on channel=7 note=62 velocity=0 time=1
1102	note_on channel=6 note=61 velocity=0 time=13
1103	note_on channel=7 note=61 velocity=0 time=1
1104	note_on channel=1 note=38 velocity=68 time=1
1105	note_on channel=6 note=61 velocity=90 time=0
1106	note_on channel=7 note=61 velocity=90 time=1
1107	note_on channel=1 note=38 velocity=0 time=9
1108	note_on channel=6 note=61 velocity=0 time=18
1109	note_on channel=7 note=61 velocity=0 time=1
1110	note_on channel=1 note=28 velocity=91 time=1
1111	note_on channel=6 note=61 velocity=90 time=0
1112	note_on channel=9 note=38 velocity=87 time=0
1113	note_on channel=9 note=82 velocity=73 time=0
1114	note_on channel=9 note=37 velocity=127 time=0
1115	note_on channel=7 note=61 velocity=90 time=1
1116	note_on channel=9 note=37 velocity=0 time=9
1117	note_on channel=9 note=82 velocity=0 time=0
1118	note_on channel=9 note=38 velocity=0 time=0
1119	note_on channel=6 note=61 velocity=0 time=16
1120	note_on channel=7 note=61 velocity=0 time=1
1121	note_on channel=6 note=61 velocity=90 time=3
1122	note_on channel=7 note=61 velocity=90 time=1
1123	note_on channel=6 note=61 velocity=0 time=29
1124	note_on channel=1 note=28 velocity=0 time=0
1125	note_on channel=1 note=30 velocity=111 time=0
1126	note_on channel=6 note=59 velocity=90 time=0
1127	note_on channel=9 note=82 velocity=109 time=0
1128	note_on channel=7 note=61 velocity=0 time=1
1129	note_on channel=7 note=59 velocity=90 time=0
1130	note_on channel=9 note=82 velocity=0 time=9
1131	note_on channel=6 note=61 velocity=90 time=20
1132	note_on channel=9 note=38 velocity=86 time=0
1133	note_on channel=9 note=37 velocity=127 time=0
1134	note_on channel=7 note=61 velocity=90 time=1
1135	note_on channel=9 note=37 velocity=0 time=9
1136	note_on channel=9 note=38 velocity=0 time=0
1137	note_on channel=6 note=59 velocity=0 time=4
1138	note_on channel=7 note=59 velocity=0 time=1
1139	note_on channel=1 note=30 velocity=0 time=5
1140	note_on channel=6 note=61 velocity=0 time=8
1141	note_on channel=7 note=61 velocity=0 time=1
1142	note_on channel=1 note=31 velocity=71 time=1
1143	note_on channel=6 note=61 velocity=90 time=0
1144	note_on channel=9 note=82 velocity=91 time=0
1145	note_on channel=7 note=61 velocity=90 time=1
1146	note_on channel=9 note=82 velocity=0 time=9
1147	note_on channel=1 note=31 velocity=0 time=0
1148	note_on channel=1 note=33 velocity=88 time=20
1149	note_on channel=6 note=66 velocity=90 time=0
1150	note_on channel=7 note=66 velocity=90 time=1
1151	note_on channel=6 note=61 velocity=0 time=13
1152	note_on channel=7 note=61 velocity=0 time=1
1153	note_on channel=1 note=33 velocity=0 time=15
1154	note_on channel=1 note=37 velocity=71 time=0
1155	note_on channel=6 note=61 velocity=90 time=0
1156	note_on channel=9 note=38 velocity=85 time=0
1157	note_on channel=9 note=82 velocity=89 time=0
1158	note_on channel=9 note=37 velocity=127 time=0
1159	note_on channel=7 note=61 velocity=90 time=1
1160	note_on channel=9 note=37 velocity=0 time=9
1161	note_on channel=9 note=82 velocity=0 time=0
1162	note_on channel=1 note=37 velocity=0 time=0
1163	note_on channel=9 note=38 velocity=0 time=0
1164	note_on channel=6 note=66 velocity=0 time=4
1165	note_on channel=7 note=66 velocity=0 time=1
1166	note_on channel=6 note=61 velocity=0 time=13
1167	note_on channel=7 note=61 velocity=0 time=1
1168	note_on channel=1 note=38 velocity=68 time=1
1169	note_on channel=6 note=61 velocity=90 time=0
1170	note_on channel=9 note=36 velocity=127 time=0
1171	note_on channel=9 note=35 velocity=127 time=0
1172	note_on channel=7 note=61 velocity=90 time=1
1173	note_on channel=9 note=35 velocity=0 time=9
1174	note_on channel=9 note=36 velocity=0 time=0
1175	note_on channel=1 note=38 velocity=0 time=0
1176	note_on channel=6 note=61 velocity=0 time=18
1177	note_on channel=7 note=61 velocity=0 time=1
1178	note_on channel=1 note=37 velocity=89 time=1
1179	note_on channel=6 note=61 velocity=90 time=0
1180	note_on channel=9 note=82 velocity=68 time=0
1181	note_on channel=7 note=61 velocity=90 time=1
1182	note_on channel=9 note=82 velocity=0 time=9
1183	note_on channel=1 note=37 velocity=0 time=0
1184	note_on channel=6 note=61 velocity=0 time=14
1185	note_on channel=7 note=61 velocity=0 time=1
1186	note_on channel=1 note=33 velocity=68 time=5
1187	note_on channel=6 note=61 velocity=90 time=0
1188	note_on channel=7 note=61 velocity=90 time=1
1189	note_on channel=1 note=33 velocity=0 time=9
1190	note_on channel=6 note=61 velocity=0 time=12
1191	note_on channel=7 note=61 velocity=0 time=1
1192	note_on channel=1 note=30 velocity=112 time=7
1193	note_on channel=6 note=59 velocity=90 time=0
1194	note_on channel=9 note=36 velocity=127 time=0
1195	note_on channel=9 note=35 velocity=127 time=0
1196	note_on channel=9 note=82 velocity=108 time=0
1197	note_on channel=7 note=59 velocity=90 time=1
1198	note_on channel=9 note=82 velocity=0 time=9
1199	note_on channel=9 note=35 velocity=0 time=0
1200	note_on channel=9 note=36 velocity=0 time=0
1201	note_on channel=6 note=61 velocity=90 time=20
1202	note_on channel=7 note=61 velocity=90 time=1
1203	note_on channel=6 note=59 velocity=0 time=13
1204	note_on channel=7 note=59 velocity=0 time=1
1205	note_on channel=6 note=61 velocity=90 time=15
1206	note_on channel=9 note=82 velocity=90 time=0
1207	note_on channel=9 note=27 velocity=103 time=0
1208	note_on channel=7 note=61 velocity=90 time=1
1209	note_on channel=9 note=27 velocity=0 time=9
1210	note_on channel=9 note=82 velocity=0 time=0
1211	note_on channel=6 note=61 velocity=0 time=4
1212	note_on channel=7 note=61 velocity=0 time=1
1213	note_on channel=1 note=30 velocity=0 time=15
1214	note_on channel=6 note=62 velocity=90 time=0
1215	note_on channel=9 note=36 velocity=127 time=0
1216	note_on channel=9 note=35 velocity=127 time=0
1217	note_on channel=7 note=62 velocity=90 time=1
1218	note_on channel=9 note=35 velocity=0 time=9
1219	note_on channel=9 note=36 velocity=0 time=0
1220	note_on channel=6 note=61 velocity=0 time=4
1221	note_on channel=7 note=61 velocity=0 time=1
1222	note_on channel=6 note=61 velocity=90 time=15
1223	note_on channel=9 note=82 velocity=88 time=0
1224	note_on channel=9 note=27 velocity=101 time=0
1225	note_on channel=7 note=61 velocity=90 time=1
1226	note_on channel=9 note=27 velocity=0 time=9
1227	note_on channel=9 note=82 velocity=0 time=0
1228	note_on channel=6 note=62 velocity=0 time=4
1229	note_on channel=7 note=62 velocity=0 time=1
1230	note_on channel=6 note=61 velocity=0 time=13
1231	note_on channel=7 note=61 velocity=0 time=1
1232	note_on channel=6 note=61 velocity=90 time=1
1233	note_on channel=7 note=61 velocity=90 time=1
1234	note_on channel=6 note=61 velocity=0 time=27
1235	note_on channel=7 note=61 velocity=0 time=1
1236	note_on channel=1 note=30 velocity=110 time=1
1237	note_on channel=6 note=61 velocity=90 time=0
1238	note_on channel=9 note=38 velocity=88 time=0
1239	note_on channel=9 note=82 velocity=67 time=0
1240	note_on channel=9 note=37 velocity=127 time=0
1241	note_on channel=7 note=61 velocity=90 time=1
1242	note_on channel=9 note=37 velocity=0 time=9
1243	note_on channel=9 note=82 velocity=0 time=0
1244	note_on channel=9 note=38 velocity=0 time=0
1245	note_on channel=6 note=61 velocity=0 time=16
1246	note_on channel=7 note=61 velocity=0 time=1
1247	note_on channel=6 note=61 velocity=90 time=3
1248	note_on channel=7 note=61 velocity=90 time=1
1249	note_on channel=6 note=61 velocity=0 time=29
1250	note_on channel=1 note=30 velocity=0 time=0
1251	note_on channel=1 note=30 velocity=92 time=0
1252	note_on channel=6 note=59 velocity=90 time=0
1253	note_on channel=9 note=82 velocity=109 time=0
1254	note_on channel=7 note=61 velocity=0 time=1
1255	note_on channel=7 note=59 velocity=90 time=0
1256	note_on channel=9 note=82 velocity=0 time=9
1257	note_on channel=6 note=61 velocity=90 time=20
1258	note_on channel=9 note=38 velocity=87 time=0
1259	note_on channel=9 note=37 velocity=127 time=0
1260	note_on channel=7 note=61 velocity=90 time=1
1261	note_on channel=9 note=37 velocity=0 time=9
1262	note_on channel=9 note=38 velocity=0 time=0
1263	note_on channel=6 note=59 velocity=0 time=4
1264	note_on channel=7 note=59 velocity=0 time=1
1265	note_on channel=6 note=61 velocity=0 time=13
1266	note_on channel=7 note=61 velocity=0 time=1
1267	note_on channel=6 note=61 velocity=90 time=1
1268	note_on channel=9 note=36 velocity=127 time=0
1269	note_on channel=9 note=35 velocity=127 time=0
1270	note_on channel=9 note=82 velocity=88 time=0
1271	note_on channel=7 note=61 velocity=90 time=1
1272	note_on channel=9 note=82 velocity=0 time=9
1273	note_on channel=9 note=35 velocity=0 time=0
1274	note_on channel=9 note=36 velocity=0 time=0
1275	note_on channel=1 note=30 velocity=0 time=20
1276	note_on channel=6 note=62 velocity=90 time=0
1277	note_on channel=7 note=62 velocity=90 time=1
1278	note_on channel=6 note=61 velocity=0 time=13
1279	note_on channel=7 note=61 velocity=0 time=1
1280	note_on channel=6 note=61 velocity=90 time=15
1281	note_on channel=9 note=38 velocity=86 time=0
1282	note_on channel=9 note=82 velocity=90 time=0
1283	note_on channel=9 note=37 velocity=127 time=0
1284	note_on channel=7 note=61 velocity=90 time=1
1285	note_on channel=9 note=37 velocity=0 time=9
1286	note_on channel=9 note=82 velocity=0 time=0
1287	note_on channel=9 note=38 velocity=0 time=0
1288	note_on channel=6 note=62 velocity=0 time=4
1289	note_on channel=7 note=62 velocity=0 time=1
1290	note_on channel=6 note=61 velocity=0 time=13
1291	note_on channel=7 note=61 velocity=0 time=1
1292	note_on channel=6 note=61 velocity=90 time=1
1293	note_on channel=9 note=36 velocity=127 time=0
1294	note_on channel=9 note=35 velocity=127 time=0
1295	note_on channel=7 note=61 velocity=90 time=1
1296	note_on channel=9 note=35 velocity=0 time=9
1297	note_on channel=9 note=36 velocity=0 time=0
1298	note_on channel=6 note=61 velocity=0 time=18
1299	note_on channel=7 note=61 velocity=0 time=1
1300	note_on channel=6 note=61 velocity=90 time=1
1301	note_on channel=9 note=82 velocity=67 time=0
1302	note_on channel=7 note=61 velocity=90 time=1
1303	note_on channel=9 note=82 velocity=0 time=9
1304	note_on channel=6 note=61 velocity=0 time=14
1305	note_on channel=7 note=61 velocity=0 time=1
1306	note_on channel=6 note=61 velocity=90 time=5
1307	note_on channel=9 note=36 velocity=127 time=0
1308	note_on channel=9 note=35 velocity=127 time=0
1309	note_on channel=7 note=61 velocity=90 time=1
1310	note_on channel=9 note=35 velocity=0 time=9
1311	note_on channel=9 note=36 velocity=0 time=0
1312	note_on channel=6 note=61 velocity=0 time=12
1313	note_on channel=7 note=61 velocity=0 time=1
1314	note_on channel=1 note=30 velocity=108 time=7
1315	note_on channel=6 note=59 velocity=90 time=0
1316	note_on channel=9 note=36 velocity=127 time=0
1317	note_on channel=9 note=35 velocity=127 time=0
1318	note_on channel=9 note=82 velocity=110 time=0
1319	note_on channel=7 note=59 velocity=90 time=1
1320	note_on channel=9 note=82 velocity=0 time=9
1321	note_on channel=9 note=35 velocity=0 time=0
1322	note_on channel=9 note=36 velocity=0 time=0
1323	note_on channel=6 note=61 velocity=90 time=20
1324	note_on channel=7 note=61 velocity=90 time=1
1325	note_on channel=6 note=59 velocity=0 time=13
1326	note_on channel=7 note=59 velocity=0 time=1
1327	note_on channel=1 note=30 velocity=0 time=15
1328	note_on channel=1 note=31 velocity=70 time=0
1329	note_on channel=6 note=61 velocity=90 time=0
1330	note_on channel=9 note=82 velocity=91 time=0
1331	note_on channel=9 note=27 velocity=103 time=0
1332	note_on channel=7 note=61 velocity=90 time=1
1333	note_on channel=9 note=27 velocity=0 time=9
1334	note_on channel=9 note=82 velocity=0 time=0
1335	note_on channel=1 note=31 velocity=0 time=0
1336	note_on channel=6 note=61 velocity=0 time=4
1337	note_on channel=7 note=61 velocity=0 time=1
1338	note_on channel=1 note=33 velocity=89 time=15
1339	note_on channel=6 note=62 velocity=90 time=0
1340	note_on channel=9 note=36 velocity=127 time=0
1341	note_on channel=9 note=35 velocity=127 time=0
1342	note_on channel=7 note=62 velocity=90 time=1
1343	note_on channel=9 note=35 velocity=0 time=9
1344	note_on channel=9 note=36 velocity=0 time=0
1345	note_on channel=1 note=33 velocity=0 time=0
1346	note_on channel=6 note=61 velocity=0 time=4
1347	note_on channel=7 note=61 velocity=0 time=1
1348	note_on channel=1 note=37 velocity=72 time=15
1349	note_on channel=6 note=61 velocity=90 time=0
1350	note_on channel=9 note=82 velocity=91 time=0
1351	note_on channel=9 note=27 velocity=103 time=0
1352	note_on channel=7 note=61 velocity=90 time=1
1353	note_on channel=9 note=27 velocity=0 time=9
1354	note_on channel=9 note=82 velocity=0 time=0
1355	note_on channel=1 note=37 velocity=0 time=0
1356	note_on channel=6 note=62 velocity=0 time=4
1357	note_on channel=7 note=62 velocity=0 time=1
1358	note_on channel=6 note=61 velocity=0 time=13
1359	note_on channel=7 note=61 velocity=0 time=1
1360	note_on channel=1 note=38 velocity=72 time=1
1361	note_on channel=6 note=61 velocity=90 time=0
1362	note_on channel=7 note=61 velocity=90 time=1
1363	note_on channel=1 note=38 velocity=0 time=9
1364	note_on channel=6 note=61 velocity=0 time=18
1365	note_on channel=7 note=61 velocity=0 time=1
1366	note_on channel=1 note=28 velocity=89 time=1
1367	note_on channel=6 note=61 velocity=90 time=0
1368	note_on channel=9 note=38 velocity=87 time=0
1369	note_on channel=9 note=82 velocity=73 time=0
1370	note_on channel=9 note=37 velocity=127 time=0
1371	note_on channel=7 note=61 velocity=90 time=1
1372	note_on channel=9 note=37 velocity=0 time=9
1373	note_on channel=9 note=82 velocity=0 time=0
1374	note_on channel=9 note=38 velocity=0 time=0
1375	note_on channel=6 note=61 velocity=0 time=16
1376	note_on channel=7 note=61 velocity=0 time=1
1377	note_on channel=6 note=61 velocity=90 time=3
1378	note_on channel=7 note=61 velocity=90 time=1
1379	note_on channel=6 note=61 velocity=0 time=29
1380	note_on channel=1 note=28 velocity=0 time=0
1381	note_on channel=1 note=30 velocity=112 time=0
1382	note_on channel=6 note=59 velocity=90 time=0
1383	note_on channel=9 note=82 velocity=109 time=0
1384	note_on channel=7 note=61 velocity=0 time=1
1385	note_on channel=7 note=59 velocity=90 time=0
1386	note_on channel=9 note=82 velocity=0 time=9
1387	note_on channel=6 note=61 velocity=90 time=20
1388	note_on channel=9 note=38 velocity=86 time=0
1389	note_on channel=9 note=37 velocity=127 time=0
1390	note_on channel=7 note=61 velocity=90 time=1
1391	note_on channel=9 note=37 velocity=0 time=9
1392	note_on channel=9 note=38 velocity=0 time=0
1393	note_on channel=6 note=59 velocity=0 time=4
1394	note_on channel=7 note=59 velocity=0 time=1
1395	note_on channel=1 note=30 velocity=0 time=5
1396	note_on channel=6 note=61 velocity=0 time=8
1397	note_on channel=7 note=61 velocity=0 time=1
1398	note_on channel=1 note=31 velocity=68 time=1
1399	note_on channel=6 note=61 velocity=90 time=0
1400	note_on channel=9 note=82 velocity=91 time=0
1401	note_on channel=7 note=61 velocity=90 time=1
1402	note_on channel=9 note=82 velocity=0 time=9
1403	note_on channel=1 note=31 velocity=0 time=0
1404	note_on channel=1 note=33 velocity=92 time=20
1405	note_on channel=6 note=66 velocity=90 time=0
1406	note_on channel=7 note=66 velocity=90 time=1
1407	note_on channel=6 note=61 velocity=0 time=13
1408	note_on channel=7 note=61 velocity=0 time=1
1409	note_on channel=1 note=33 velocity=0 time=15
1410	note_on channel=1 note=37 velocity=71 time=0
1411	note_on channel=6 note=61 velocity=90 time=0
1412	note_on channel=8 note=69 velocity=58 time=0
1413	note_on channel=9 note=38 velocity=85 time=0
1414	note_on channel=9 note=82 velocity=89 time=0
1415	note_on channel=9 note=37 velocity=127 time=0
1416	note_on channel=7 note=61 velocity=90 time=1
1417	note_on channel=9 note=37 velocity=0 time=9
1418	note_on channel=9 note=82 velocity=0 time=0
1419	note_on channel=9 note=38 velocity=0 time=0
1420	note_on channel=1 note=37 velocity=0 time=0
1421	note_on channel=6 note=66 velocity=0 time=4
1422	note_on channel=7 note=66 velocity=0 time=1
1423	note_on channel=6 note=61 velocity=0 time=13
1424	note_on channel=7 note=61 velocity=0 time=1
1425	note_on channel=1 note=38 velocity=70 time=1
1426	note_on channel=6 note=61 velocity=90 time=0
1427	note_on channel=9 note=36 velocity=127 time=0
1428	note_on channel=9 note=35 velocity=127 time=0
1429	note_on channel=7 note=61 velocity=90 time=1
1430	note_on channel=9 note=35 velocity=0 time=9
1431	note_on channel=9 note=36 velocity=0 time=0
1432	note_on channel=1 note=38 velocity=0 time=0
1433	note_on channel=6 note=61 velocity=0 time=18
1434	note_on channel=7 note=61 velocity=0 time=1
1435	note_on channel=1 note=37 velocity=91 time=1
1436	note_on channel=6 note=61 velocity=90 time=0
1437	note_on channel=9 note=82 velocity=68 time=0
1438	note_on channel=7 note=61 velocity=90 time=1
1439	note_on channel=9 note=82 velocity=0 time=9
1440	note_on channel=1 note=37 velocity=0 time=0
1441	note_on channel=6 note=61 velocity=0 time=14
1442	note_on channel=7 note=61 velocity=0 time=1
1443	note_on channel=1 note=33 velocity=72 time=5
1444	note_on channel=6 note=61 velocity=90 time=0
1445	note_on channel=7 note=61 velocity=90 time=1
1446	note_on channel=1 note=33 velocity=0 time=9
1447	note_on channel=6 note=61 velocity=0 time=12
1448	note_on channel=7 note=61 velocity=0 time=1
1449	note_on channel=8 note=73 velocity=0 time=4
1450	note_on channel=8 note=69 velocity=0 time=0
1451	note_on channel=8 note=66 velocity=0 time=0
1452	note_on channel=8 note=69 velocity=0 time=3
1453	note_on channel=1 note=28 velocity=89 time=0
1454	note_on channel=4 note=71 velocity=127 time=0
1455	note_on channel=6 note=59 velocity=70 time=0
1456	note_on channel=8 note=66 velocity=61 time=0
1457	note_on channel=8 note=69 velocity=61 time=0
1458	note_on channel=8 note=73 velocity=61 time=0
1459	note_on channel=9 note=36 velocity=127 time=0
1460	note_on channel=9 note=35 velocity=127 time=0
1461	note_on channel=9 note=82 velocity=88 time=0
1462	note_on channel=7 note=59 velocity=70 time=1
1463	note_on channel=9 note=82 velocity=0 time=9
1464	note_on channel=9 note=35 velocity=0 time=0
1465	note_on channel=9 note=36 velocity=0 time=0
1466	note_on channel=4 note=71 velocity=0 time=18
1467	note_on channel=4 note=73 velocity=127 time=2
1468	note_on channel=6 note=61 velocity=70 time=0
1469	note_on channel=7 note=61 velocity=70 time=1
1470	note_on channel=6 note=59 velocity=0 time=13
1471	note_on channel=7 note=59 velocity=0 time=1
1472	note_on channel=4 note=73 velocity=0 time=9
1473	note_on channel=1 note=28 velocity=0 time=6
1474	note_on channel=1 note=30 velocity=90 time=0
1475	note_on channel=6 note=61 velocity=70 time=0
1476	note_on channel=9 note=82 velocity=70 time=0
1477	note_on channel=9 note=27 velocity=83 time=0
1478	note_on channel=7 note=61 velocity=70 time=1
1479	note_on channel=9 note=27 velocity=0 time=9
1480	note_on channel=9 note=82 velocity=0 time=0
1481	note_on channel=6 note=61 velocity=0 time=4
1482	note_on channel=7 note=61 velocity=0 time=1
1483	note_on channel=1 note=30 velocity=0 time=5
1484	note_on channel=4 note=74 velocity=127 time=10
1485	note_on channel=6 note=62 velocity=70 time=0
1486	note_on channel=7 note=62 velocity=70 time=1
1487	note_on channel=6 note=61 velocity=0 time=13
1488	note_on channel=7 note=61 velocity=0 time=1
1489	note_on channel=4 note=74 velocity=0 time=5
1490	note_on channel=1 note=31 velocity=50 time=10
1491	note_on channel=6 note=61 velocity=70 time=0
1492	note_on channel=9 note=82 velocity=68 time=0
1493	note_on channel=9 note=27 velocity=81 time=0
1494	note_on channel=7 note=61 velocity=70 time=1
1495	note_on channel=9 note=27 velocity=0 time=9
1496	note_on channel=9 note=82 velocity=0 time=0
1497	note_on channel=1 note=31 velocity=0 time=0
1498	note_on channel=6 note=62 velocity=0 time=4
1499	note_on channel=7 note=62 velocity=0 time=1
1500	note_on channel=6 note=61 velocity=0 time=13
1501	note_on channel=7 note=61 velocity=0 time=1
1502	note_on channel=1 note=33 velocity=51 time=1
1503	note_on channel=4 note=74 velocity=127 time=0
1504	note_on channel=6 note=61 velocity=70 time=0
1505	note_on channel=7 note=61 velocity=70 time=1
1506	note_on channel=1 note=33 velocity=0 time=9
1507	note_on channel=4 note=74 velocity=0 time=10
1508	note_on channel=6 note=61 velocity=0 time=8
1509	note_on channel=7 note=61 velocity=0 time=1
1510	note_on channel=1 note=30 velocity=92 time=1
1511	note_on channel=4 note=73 velocity=127 time=0
1512	note_on channel=6 note=61 velocity=70 time=0
1513	note_on channel=9 note=38 velocity=68 time=0
1514	note_on channel=9 note=82 velocity=47 time=0
1515	note_on channel=9 note=37 velocity=127 time=0
1516	note_on channel=7 note=61 velocity=70 time=1
1517	note_on channel=9 note=37 velocity=0 time=9
1518	note_on channel=9 note=82 velocity=0 time=0
1519	note_on channel=9 note=38 velocity=0 time=0
1520	note_on channel=4 note=73 velocity=0 time=6
1521	note_on channel=6 note=61 velocity=0 time=10
1522	note_on channel=7 note=61 velocity=0 time=1
1523	note_on channel=4 note=71 velocity=127 time=3
1524	note_on channel=6 note=61 velocity=70 time=0
1525	note_on channel=7 note=61 velocity=70 time=1
1526	note_on channel=4 note=71 velocity=0 time=21
1527	note_on channel=1 note=30 velocity=0 time=8
1528	note_on channel=6 note=61 velocity=0 time=0
1529	note_on channel=1 note=31 velocity=48 time=0
1530	note_on channel=4 note=71 velocity=127 time=0
1531	note_on channel=6 note=59 velocity=70 time=0
1532	note_on channel=9 note=82 velocity=89 time=0
1533	note_on channel=7 note=61 velocity=0 time=1
1534	note_on channel=7 note=59 velocity=70 time=0
1535	note_on channel=9 note=82 velocity=0 time=9
1536	note_on channel=1 note=31 velocity=0 time=10
1537	note_on channel=4 note=71 velocity=0 time=6
1538	note_on channel=1 note=30 velocity=71 time=4
1539	note_on channel=4 note=73 velocity=127 time=0
1540	note_on channel=6 note=61 velocity=70 time=0
1541	note_on channel=9 note=38 velocity=67 time=0
1542	note_on channel=9 note=37 velocity=127 time=0
1543	note_on channel=7 note=61 velocity=70 time=1
1544	note_on channel=9 note=37 velocity=0 time=9
1545	note_on channel=9 note=38 velocity=0 time=0
1546	note_on channel=1 note=30 velocity=0 time=0
1547	note_on channel=6 note=59 velocity=0 time=4
1548	note_on channel=7 note=59 velocity=0 time=1
1549	note_on channel=4 note=73 velocity=0 time=3
1550	note_on channel=6 note=61 velocity=0 time=10
1551	note_on channel=7 note=61 velocity=0 time=1
1552	note_on channel=1 note=31 velocity=49 time=1
1553	note_on channel=6 note=61 velocity=70 time=0
1554	note_on channel=9 note=82 velocity=68 time=0
1555	note_on channel=7 note=61 velocity=70 time=1
1556	note_on channel=9 note=82 velocity=0 time=9
1557	note_on channel=1 note=31 velocity=0 time=0
1558	note_on channel=1 note=40 velocity=71 time=20
1559	note_on channel=4 note=74 velocity=127 time=0
1560	note_on channel=6 note=62 velocity=70 time=0
1561	note_on channel=7 note=62 velocity=70 time=1
1562	note_on channel=6 note=61 velocity=0 time=13
1563	note_on channel=7 note=61 velocity=0 time=1
1564	note_on channel=4 note=74 velocity=0 time=3
1565	note_on channel=1 note=40 velocity=0 time=12
1566	note_on channel=1 note=30 velocity=68 time=0
1567	note_on channel=6 note=61 velocity=70 time=0
1568	note_on channel=9 note=38 velocity=66 time=0
1569	note_on channel=9 note=82 velocity=70 time=0
1570	note_on channel=9 note=37 velocity=127 time=0
1571	note_on channel=7 note=61 velocity=70 time=1
1572	note_on channel=9 note=37 velocity=0 time=9
1573	note_on channel=9 note=82 velocity=0 time=0
1574	note_on channel=1 note=30 velocity=0 time=0
1575	note_on channel=9 note=38 velocity=0 time=0
1576	note_on channel=6 note=62 velocity=0 time=4
1577	note_on channel=7 note=62 velocity=0 time=1
1578	note_on channel=6 note=61 velocity=0 time=13
1579	note_on channel=7 note=61 velocity=0 time=1
1580	note_on channel=1 note=31 velocity=48 time=1
1581	note_on channel=4 note=74 velocity=127 time=0
1582	note_on channel=6 note=61 velocity=70 time=0
1583	note_on channel=7 note=61 velocity=70 time=1
1584	note_on channel=4 note=74 velocity=0 time=19
1585	note_on channel=1 note=31 velocity=0 time=0
1586	note_on channel=6 note=61 velocity=0 time=8
1587	note_on channel=7 note=61 velocity=0 time=1
1588	note_on channel=1 note=40 velocity=70 time=1
1589	note_on channel=4 note=73 velocity=127 time=0
1590	note_on channel=6 note=61 velocity=70 time=0
1591	note_on channel=9 note=82 velocity=47 time=0
1592	note_on channel=7 note=61 velocity=70 time=1
1593	note_on channel=9 note=82 velocity=0 time=9
1594	note_on channel=1 note=40 velocity=0 time=10
1595	note_on channel=4 note=73 velocity=0 time=4
1596	note_on channel=6 note=61 velocity=0 time=0
1597	note_on channel=7 note=61 velocity=0 time=1
1598	note_on channel=1 note=42 velocity=71 time=5
1599	note_on channel=4 note=71 velocity=127 time=0
1600	note_on channel=6 note=61 velocity=70 time=0
1601	note_on channel=7 note=61 velocity=70 time=1
1602	note_on channel=1 note=42 velocity=0 time=9
1603	note_on channel=6 note=61 velocity=0 time=12
1604	note_on channel=7 note=61 velocity=0 time=1
1605	note_on channel=4 note=71 velocity=0 time=3
1606	note_on channel=1 note=30 velocity=89 time=4
1607	note_on channel=4 note=71 velocity=127 time=0
1608	note_on channel=6 note=59 velocity=70 time=0
1609	note_on channel=9 note=36 velocity=127 time=0
1610	note_on channel=9 note=35 velocity=127 time=0
1611	note_on channel=9 note=82 velocity=90 time=0
1612	note_on channel=7 note=59 velocity=70 time=1
1613	note_on channel=9 note=82 velocity=0 time=9
1614	note_on channel=9 note=35 velocity=0 time=0
1615	note_on channel=9 note=36 velocity=0 time=0
1616	note_on channel=4 note=71 velocity=0 time=18
1617	note_on channel=4 note=73 velocity=127 time=2
1618	note_on channel=6 note=61 velocity=70 time=0
1619	note_on channel=7 note=61 velocity=70 time=1
1620	note_on channel=6 note=59 velocity=0 time=13
1621	note_on channel=7 note=59 velocity=0 time=1
1622	note_on channel=4 note=73 velocity=0 time=9
1623	note_on channel=1 note=30 velocity=0 time=6
1624	note_on channel=1 note=31 velocity=49 time=0
1625	note_on channel=6 note=61 velocity=70 time=0
1626	note_on channel=9 note=82 velocity=71 time=0
1627	note_on channel=9 note=27 velocity=83 time=0
1628	note_on channel=7 note=61 velocity=70 time=1
1629	note_on channel=9 note=27 velocity=0 time=9
1630	note_on channel=9 note=82 velocity=0 time=0
1631	note_on channel=1 note=31 velocity=0 time=0
1632	note_on channel=6 note=61 velocity=0 time=4
1633	note_on channel=7 note=61 velocity=0 time=1
1634	note_on channel=1 note=33 velocity=70 time=15
1635	note_on channel=4 note=74 velocity=127 time=0
1636	note_on channel=6 note=62 velocity=70 time=0
1637	note_on channel=9 note=36 velocity=127 time=0
1638	note_on channel=9 note=35 velocity=127 time=0
1639	note_on channel=7 note=62 velocity=70 time=1
1640	note_on channel=9 note=35 velocity=0 time=9
1641	note_on channel=9 note=36 velocity=0 time=0
1642	note_on channel=1 note=33 velocity=0 time=0
1643	note_on channel=6 note=61 velocity=0 time=4
1644	note_on channel=7 note=61 velocity=0 time=1
1645	note_on channel=4 note=74 velocity=0 time=5
1646	note_on channel=1 note=37 velocity=49 time=10
1647	note_on channel=6 note=61 velocity=70 time=0
1648	note_on channel=9 note=82 velocity=71 time=0
1649	note_on channel=9 note=27 velocity=83 time=0
1650	note_on channel=7 note=61 velocity=70 time=1
1651	note_on channel=9 note=27 velocity=0 time=9
1652	note_on channel=9 note=82 velocity=0 time=0
1653	note_on channel=1 note=37 velocity=0 time=0
1654	note_on channel=6 note=62 velocity=0 time=4
1655	note_on channel=7 note=62 velocity=0 time=1
1656	note_on channel=6 note=61 velocity=0 time=13
1657	note_on channel=7 note=61 velocity=0 time=1
1658	note_on channel=1 note=38 velocity=48 time=1
1659	note_on channel=4 note=74 velocity=127 time=0
1660	note_on channel=6 note=61 velocity=70 time=0
1661	note_on channel=7 note=61 velocity=70 time=1
1662	note_on channel=1 note=38 velocity=0 time=9
1663	note_on channel=4 note=74 velocity=0 time=10
1664	note_on channel=6 note=61 velocity=0 time=8
1665	note_on channel=7 note=61 velocity=0 time=1
1666	note_on channel=1 note=28 velocity=71 time=1
1667	note_on channel=4 note=73 velocity=127 time=0
1668	note_on channel=6 note=61 velocity=70 time=0
1669	note_on channel=9 note=38 velocity=67 time=0
1670	note_on channel=9 note=82 velocity=53 time=0
1671	note_on channel=9 note=37 velocity=127 time=0
1672	note_on channel=7 note=61 velocity=70 time=1
1673	note_on channel=9 note=37 velocity=0 time=9
1674	note_on channel=9 note=82 velocity=0 time=0
1675	note_on channel=9 note=38 velocity=0 time=0
1676	note_on channel=4 note=73 velocity=0 time=6
1677	note_on channel=6 note=61 velocity=0 time=10
1678	note_on channel=7 note=61 velocity=0 time=1
1679	note_on channel=4 note=71 velocity=127 time=3
1680	note_on channel=6 note=61 velocity=70 time=0
1681	note_on channel=7 note=61 velocity=70 time=1
1682	note_on channel=4 note=71 velocity=0 time=21
1683	note_on channel=1 note=28 velocity=0 time=8
1684	note_on channel=6 note=61 velocity=0 time=0
1685	note_on channel=1 note=30 velocity=91 time=0
1686	note_on channel=4 note=71 velocity=127 time=0
1687	note_on channel=6 note=59 velocity=70 time=0
1688	note_on channel=9 note=82 velocity=89 time=0
1689	note_on channel=7 note=61 velocity=0 time=1
1690	note_on channel=7 note=59 velocity=70 time=0
1691	note_on channel=9 note=82 velocity=0 time=9
1692	note_on channel=4 note=71 velocity=0 time=16
1693	note_on channel=4 note=73 velocity=127 time=4
1694	note_on channel=6 note=61 velocity=70 time=0
1695	note_on channel=9 note=38 velocity=66 time=0
1696	note_on channel=9 note=37 velocity=127 time=0
1697	note_on channel=7 note=61 velocity=70 time=1
1698	note_on channel=9 note=37 velocity=0 time=9
1699	note_on channel=9 note=38 velocity=0 time=0
1700	note_on channel=6 note=59 velocity=0 time=4
1701	note_on channel=7 note=59 velocity=0 time=1
1702	note_on channel=4 note=73 velocity=0 time=3
1703	note_on channel=1 note=30 velocity=0 time=2
1704	note_on channel=6 note=61 velocity=0 time=8
1705	note_on channel=7 note=61 velocity=0 time=1
1706	note_on channel=1 note=31 velocity=51 time=1
1707	note_on channel=6 note=61 velocity=70 time=0
1708	note_on channel=9 note=82 velocity=71 time=0
1709	note_on channel=7 note=61 velocity=70 time=1
1710	note_on channel=9 note=82 velocity=0 time=9
1711	note_on channel=1 note=31 velocity=0 time=0
1712	note_on channel=1 note=33 velocity=68 time=20
1713	note_on channel=4 note=78 velocity=127 time=0
1714	note_on channel=6 note=66 velocity=70 time=0
1715	note_on channel=7 note=66 velocity=70 time=1
1716	note_on channel=6 note=61 velocity=0 time=13
1717	note_on channel=7 note=61 velocity=0 time=1
1718	note_on channel=4 note=78 velocity=0 time=3
1719	note_on channel=1 note=33 velocity=0 time=12
1720	note_on channel=1 note=37 velocity=51 time=0
1721	note_on channel=6 note=61 velocity=70 time=0
1722	note_on channel=9 note=38 velocity=65 time=0
1723	note_on channel=9 note=82 velocity=69 time=0
1724	note_on channel=9 note=37 velocity=127 time=0
1725	note_on channel=7 note=61 velocity=70 time=1
1726	note_on channel=9 note=37 velocity=0 time=9
1727	note_on channel=9 note=82 velocity=0 time=0
1728	note_on channel=1 note=37 velocity=0 time=0
1729	note_on channel=9 note=38 velocity=0 time=0
1730	note_on channel=6 note=66 velocity=0 time=4
1731	note_on channel=7 note=66 velocity=0 time=1
1732	note_on channel=6 note=61 velocity=0 time=13
1733	note_on channel=7 note=61 velocity=0 time=1
1734	note_on channel=1 note=38 velocity=48 time=1
1735	note_on channel=4 note=78 velocity=127 time=0
1736	note_on channel=6 note=61 velocity=70 time=0
1737	note_on channel=9 note=36 velocity=127 time=0
1738	note_on channel=9 note=35 velocity=127 time=0
1739	note_on channel=7 note=61 velocity=70 time=1
1740	note_on channel=9 note=35 velocity=0 time=9
1741	note_on channel=9 note=36 velocity=0 time=0
1742	note_on channel=1 note=38 velocity=0 time=0
1743	note_on channel=4 note=78 velocity=0 time=10
1744	note_on channel=6 note=61 velocity=0 time=8
1745	note_on channel=7 note=61 velocity=0 time=1
1746	note_on channel=1 note=37 velocity=69 time=1
1747	note_on channel=4 note=73 velocity=127 time=0
1748	note_on channel=6 note=61 velocity=70 time=0
1749	note_on channel=9 note=82 velocity=48 time=0
1750	note_on channel=7 note=61 velocity=70 time=1
1751	note_on channel=9 note=82 velocity=0 time=9
1752	note_on channel=1 note=37 velocity=0 time=0
1753	note_on channel=4 note=73 velocity=0 time=14
1754	note_on channel=6 note=61 velocity=0 time=0
1755	note_on channel=7 note=61 velocity=0 time=1
1756	note_on channel=1 note=33 velocity=48 time=5
1757	note_on channel=4 note=71 velocity=127 time=0
1758	note_on channel=6 note=61 velocity=70 time=0
1759	note_on channel=7 note=61 velocity=70 time=1
1760	note_on channel=1 note=33 velocity=0 time=9
1761	note_on channel=6 note=61 velocity=0 time=12
1762	note_on channel=7 note=61 velocity=0 time=1
1763	note_on channel=4 note=71 velocity=0 time=3
1764	note_on channel=1 note=30 velocity=92 time=4
1765	note_on channel=4 note=71 velocity=127 time=0
1766	note_on channel=6 note=59 velocity=70 time=0
1767	note_on channel=9 note=36 velocity=127 time=0
1768	note_on channel=9 note=35 velocity=127 time=0
1769	note_on channel=9 note=82 velocity=88 time=0
1770	note_on channel=7 note=59 velocity=70 time=1
1771	note_on channel=9 note=82 velocity=0 time=9
1772	note_on channel=9 note=35 velocity=0 time=0
1773	note_on channel=9 note=36 velocity=0 time=0
1774	note_on channel=4 note=71 velocity=0 time=18
1775	note_on channel=4 note=73 velocity=127 time=2
1776	note_on channel=6 note=61 velocity=70 time=0
1777	note_on channel=7 note=61 velocity=70 time=1
1778	note_on channel=6 note=59 velocity=0 time=13
1779	note_on channel=7 note=59 velocity=0 time=1
1780	note_on channel=4 note=73 velocity=0 time=9
1781	note_on channel=6 note=61 velocity=70 time=6
1782	note_on channel=9 note=82 velocity=70 time=0
1783	note_on channel=9 note=27 velocity=83 time=0
1784	note_on channel=7 note=61 velocity=70 time=1
1785	note_on channel=9 note=27 velocity=0 time=9
1786	note_on channel=9 note=82 velocity=0 time=0
1787	note_on channel=6 note=61 velocity=0 time=4
1788	note_on channel=7 note=61 velocity=0 time=1
1789	note_on channel=1 note=30 velocity=0 time=15
1790	note_on channel=4 note=74 velocity=127 time=0
1791	note_on channel=6 note=62 velocity=70 time=0
1792	note_on channel=9 note=36 velocity=127 time=0
1793	note_on channel=9 note=35 velocity=127 time=0
1794	note_on channel=7 note=62 velocity=70 time=1
1795	note_on channel=9 note=35 velocity=0 time=9
1796	note_on channel=9 note=36 velocity=0 time=0
1797	note_on channel=6 note=61 velocity=0 time=4
1798	note_on channel=7 note=61 velocity=0 time=1
1799	note_on channel=4 note=74 velocity=0 time=5
1800	note_on channel=6 note=61 velocity=70 time=10
1801	note_on channel=9 note=82 velocity=68 time=0
1802	note_on channel=9 note=27 velocity=81 time=0
1803	note_on channel=7 note=61 velocity=70 time=1
1804	note_on channel=9 note=27 velocity=0 time=9
1805	note_on channel=9 note=82 velocity=0 time=0
1806	note_on channel=6 note=62 velocity=0 time=4
1807	note_on channel=7 note=62 velocity=0 time=1
1808	note_on channel=6 note=61 velocity=0 time=13
1809	note_on channel=7 note=61 velocity=0 time=1
1810	note_on channel=4 note=74 velocity=127 time=1
1811	note_on channel=6 note=61 velocity=70 time=0
1812	note_on channel=7 note=61 velocity=70 time=1
1813	note_on channel=4 note=74 velocity=0 time=19
1814	note_on channel=6 note=61 velocity=0 time=8
1815	note_on channel=7 note=61 velocity=0 time=1
1816	note_on channel=1 note=30 velocity=90 time=1
1817	note_on channel=4 note=73 velocity=127 time=0
1818	note_on channel=6 note=61 velocity=70 time=0
1819	note_on channel=9 note=38 velocity=68 time=0
1820	note_on channel=9 note=82 velocity=47 time=0
1821	note_on channel=9 note=37 velocity=127 time=0
1822	note_on channel=7 note=61 velocity=70 time=1
1823	note_on channel=9 note=37 velocity=0 time=9
1824	note_on channel=9 note=82 velocity=0 time=0
1825	note_on channel=9 note=38 velocity=0 time=0
1826	note_on channel=4 note=73 velocity=0 time=6
1827	note_on channel=6 note=61 velocity=0 time=10
1828	note_on channel=7 note=61 velocity=0 time=1
1829	note_on channel=4 note=71 velocity=127 time=3
1830	note_on channel=6 note=61 velocity=70 time=0
1831	note_on channel=7 note=61 velocity=70 time=1
1832	note_on channel=4 note=71 velocity=0 time=21
1833	note_on channel=1 note=30 velocity=0 time=8
1834	note_on channel=6 note=61 velocity=0 time=0
1835	note_on channel=1 note=30 velocity=72 time=0
1836	note_on channel=4 note=71 velocity=127 time=0
1837	note_on channel=6 note=59 velocity=70 time=0
1838	note_on channel=9 note=82 velocity=89 time=0
1839	note_on channel=7 note=61 velocity=0 time=1
1840	note_on channel=7 note=59 velocity=70 time=0
1841	note_on channel=9 note=82 velocity=0 time=9
1842	note_on channel=4 note=71 velocity=0 time=16
1843	note_on channel=4 note=73 velocity=127 time=4
1844	note_on channel=6 note=61 velocity=70 time=0
1845	note_on channel=9 note=38 velocity=67 time=0
1846	note_on channel=9 note=37 velocity=127 time=0
1847	note_on channel=7 note=61 velocity=70 time=1
1848	note_on channel=9 note=37 velocity=0 time=9
1849	note_on channel=9 note=38 velocity=0 time=0
1850	note_on channel=6 note=59 velocity=0 time=4
1851	note_on channel=7 note=59 velocity=0 time=1
1852	note_on channel=4 note=73 velocity=0 time=3
1853	note_on channel=6 note=61 velocity=0 time=10
1854	note_on channel=7 note=61 velocity=0 time=1
1855	note_on channel=6 note=61 velocity=70 time=1
1856	note_on channel=9 note=36 velocity=127 time=0
1857	note_on channel=9 note=35 velocity=127 time=0
1858	note_on channel=9 note=82 velocity=68 time=0
1859	note_on channel=7 note=61 velocity=70 time=1
1860	note_on channel=9 note=82 velocity=0 time=9
1861	note_on channel=9 note=35 velocity=0 time=0
1862	note_on channel=9 note=36 velocity=0 time=0
1863	note_on channel=1 note=30 velocity=0 time=20
1864	note_on channel=4 note=74 velocity=127 time=0
1865	note_on channel=6 note=62 velocity=70 time=0
1866	note_on channel=7 note=62 velocity=70 time=1
1867	note_on channel=6 note=61 velocity=0 time=13
1868	note_on channel=7 note=61 velocity=0 time=1
1869	note_on channel=4 note=74 velocity=0 time=3
1870	note_on channel=6 note=61 velocity=70 time=12
1871	note_on channel=9 note=38 velocity=66 time=0
1872	note_on channel=9 note=82 velocity=70 time=0
1873	note_on channel=9 note=37 velocity=127 time=0
1874	note_on channel=7 note=61 velocity=70 time=1
1875	note_on channel=9 note=37 velocity=0 time=9
1876	note_on channel=9 note=82 velocity=0 time=0
1877	note_on channel=9 note=38 velocity=0 time=0
1878	note_on channel=6 note=62 velocity=0 time=4
1879	note_on channel=7 note=62 velocity=0 time=1
1880	note_on channel=6 note=61 velocity=0 time=13
1881	note_on channel=7 note=61 velocity=0 time=1
1882	note_on channel=4 note=74 velocity=127 time=1
1883	note_on channel=6 note=61 velocity=70 time=0
1884	note_on channel=9 note=36 velocity=127 time=0
1885	note_on channel=9 note=35 velocity=127 time=0
1886	note_on channel=7 note=61 velocity=70 time=1
1887	note_on channel=9 note=35 velocity=0 time=9
1888	note_on channel=9 note=36 velocity=0 time=0
1889	note_on channel=4 note=74 velocity=0 time=10
1890	note_on channel=6 note=61 velocity=0 time=8
1891	note_on channel=7 note=61 velocity=0 time=1
1892	note_on channel=4 note=73 velocity=127 time=1
1893	note_on channel=6 note=61 velocity=70 time=0
1894	note_on channel=9 note=82 velocity=47 time=0
1895	note_on channel=7 note=61 velocity=70 time=1
1896	note_on channel=9 note=82 velocity=0 time=9
1897	note_on channel=4 note=73 velocity=0 time=14
1898	note_on channel=6 note=61 velocity=0 time=0
1899	note_on channel=7 note=61 velocity=0 time=1
1900	note_on channel=4 note=71 velocity=127 time=5
1901	note_on channel=6 note=61 velocity=70 time=0
1902	note_on channel=9 note=36 velocity=127 time=0
1903	note_on channel=9 note=35 velocity=127 time=0
1904	note_on channel=7 note=61 velocity=70 time=1
1905	note_on channel=9 note=35 velocity=0 time=9
1906	note_on channel=9 note=36 velocity=0 time=0
1907	note_on channel=6 note=61 velocity=0 time=12
1908	note_on channel=7 note=61 velocity=0 time=1
1909	note_on channel=4 note=71 velocity=0 time=3
1910	note_on channel=1 note=30 velocity=88 time=4
1911	note_on channel=4 note=71 velocity=127 time=0
1912	note_on channel=6 note=59 velocity=70 time=0
1913	note_on channel=9 note=36 velocity=127 time=0
1914	note_on channel=9 note=35 velocity=127 time=0
1915	note_on channel=9 note=82 velocity=90 time=0
1916	note_on channel=7 note=59 velocity=70 time=1
1917	note_on channel=9 note=82 velocity=0 time=9
1918	note_on channel=9 note=35 velocity=0 time=0
1919	note_on channel=9 note=36 velocity=0 time=0
1920	note_on channel=4 note=71 velocity=0 time=18
1921	note_on channel=4 note=73 velocity=127 time=2
1922	note_on channel=6 note=61 velocity=70 time=0
1923	note_on channel=7 note=61 velocity=70 time=1
1924	note_on channel=6 note=59 velocity=0 time=13
1925	note_on channel=7 note=59 velocity=0 time=1
1926	note_on channel=4 note=73 velocity=0 time=9
1927	note_on channel=1 note=30 velocity=0 time=6
1928	note_on channel=1 note=31 velocity=50 time=0
1929	note_on channel=6 note=61 velocity=70 time=0
1930	note_on channel=9 note=82 velocity=71 time=0
1931	note_on channel=9 note=27 velocity=83 time=0
1932	note_on channel=7 note=61 velocity=70 time=1
1933	note_on channel=9 note=27 velocity=0 time=9
1934	note_on channel=9 note=82 velocity=0 time=0
1935	note_on channel=1 note=31 velocity=0 time=0
1936	note_on channel=6 note=61 velocity=0 time=4
1937	note_on channel=7 note=61 velocity=0 time=1
1938	note_on channel=1 note=33 velocity=69 time=15
1939	note_on channel=4 note=74 velocity=127 time=0
1940	note_on channel=6 note=62 velocity=70 time=0
1941	note_on channel=9 note=36 velocity=127 time=0
1942	note_on channel=9 note=35 velocity=127 time=0
1943	note_on channel=7 note=62 velocity=70 time=1
1944	note_on channel=9 note=35 velocity=0 time=9
1945	note_on channel=9 note=36 velocity=0 time=0
1946	note_on channel=1 note=33 velocity=0 time=0
1947	note_on channel=6 note=61 velocity=0 time=4
1948	note_on channel=7 note=61 velocity=0 time=1
1949	note_on channel=4 note=74 velocity=0 time=5
1950	note_on channel=1 note=37 velocity=52 time=10
1951	note_on channel=6 note=61 velocity=70 time=0
1952	note_on channel=9 note=82 velocity=71 time=0
1953	note_on channel=9 note=27 velocity=83 time=0
1954	note_on channel=7 note=61 velocity=70 time=1
1955	note_on channel=9 note=27 velocity=0 time=9
1956	note_on channel=9 note=82 velocity=0 time=0
1957	note_on channel=1 note=37 velocity=0 time=0
1958	note_on channel=6 note=62 velocity=0 time=4
1959	note_on channel=7 note=62 velocity=0 time=1
1960	note_on channel=6 note=61 velocity=0 time=13
1961	note_on channel=7 note=61 velocity=0 time=1
1962	note_on channel=1 note=38 velocity=52 time=1
1963	note_on channel=4 note=74 velocity=127 time=0
1964	note_on channel=6 note=61 velocity=70 time=0
1965	note_on channel=7 note=61 velocity=70 time=1
1966	note_on channel=1 note=38 velocity=0 time=9
1967	note_on channel=4 note=74 velocity=0 time=10
1968	note_on channel=6 note=61 velocity=0 time=8
1969	note_on channel=7 note=61 velocity=0 time=1
1970	note_on channel=1 note=28 velocity=69 time=1
1971	note_on channel=4 note=73 velocity=127 time=0
1972	note_on channel=6 note=61 velocity=70 time=0
1973	note_on channel=9 note=82 velocity=53 time=0
1974	note_on channel=9 note=37 velocity=127 time=0
1975	note_on channel=7 note=61 velocity=70 time=1
1976	note_on channel=9 note=37 velocity=0 time=9
1977	note_on channel=9 note=82 velocity=0 time=0
1978	note_on channel=4 note=73 velocity=0 time=6
1979	note_on channel=6 note=61 velocity=0 time=10
1980	note_on channel=7 note=61 velocity=0 time=1
1981	note_on channel=4 note=71 velocity=127 time=3
1982	note_on channel=6 note=61 velocity=70 time=0
1983	note_on channel=7 note=61 velocity=70 time=1
1984	note_on channel=4 note=71 velocity=0 time=21
1985	note_on channel=1 note=28 velocity=0 time=8
1986	note_on channel=6 note=61 velocity=0 time=0
1987	note_on channel=1 note=30 velocity=92 time=0
1988	note_on channel=4 note=71 velocity=127 time=0
1989	note_on channel=6 note=59 velocity=70 time=0
1990	note_on channel=9 note=38 velocity=92 time=0
1991	note_on channel=9 note=82 velocity=89 time=0
1992	note_on channel=7 note=61 velocity=0 time=1
1993	note_on channel=7 note=59 velocity=70 time=0
1994	note_on channel=9 note=82 velocity=0 time=9
1995	note_on channel=9 note=38 velocity=0 time=1
1996	note_on channel=9 note=38 velocity=93 time=4
1997	note_on channel=4 note=71 velocity=0 time=11
1998	note_on channel=9 note=38 velocity=0 time=2
1999	note_on channel=4 note=73 velocity=127 time=2
2000	note_on channel=6 note=61 velocity=70 time=0
2001	note_on channel=9 note=38 velocity=93 time=0
2002	note_on channel=9 note=37 velocity=127 time=0
2003	note_on channel=7 note=61 velocity=70 time=1
2004	note_on channel=9 note=37 velocity=0 time=9
2005	note_on channel=9 note=38 velocity=0 time=0
2006	note_on channel=6 note=59 velocity=0 time=4
2007	note_on channel=7 note=59 velocity=0 time=1
2008	note_on channel=9 note=38 velocity=93 time=0
2009	note_on channel=4 note=73 velocity=0 time=3
2010	note_on channel=1 note=30 velocity=0 time=2
2011	note_on channel=9 note=38 velocity=0 time=4
2012	note_on channel=6 note=61 velocity=0 time=4
2013	note_on channel=7 note=61 velocity=0 time=1
2014	note_on channel=1 note=31 velocity=48 time=1
2015	note_on channel=6 note=61 velocity=70 time=0
2016	note_on channel=9 note=82 velocity=71 time=0
2017	note_on channel=7 note=61 velocity=70 time=1
2018	note_on channel=9 note=82 velocity=0 time=9
2019	note_on channel=1 note=31 velocity=0 time=0
2020	note_on channel=1 note=33 velocity=72 time=20
2021	note_on channel=4 note=78 velocity=127 time=0
2022	note_on channel=6 note=66 velocity=70 time=0
2023	note_on channel=9 note=38 velocity=67 time=0
2024	note_on channel=7 note=66 velocity=70 time=1
2025	note_on channel=9 note=38 velocity=0 time=10
2026	note_on channel=6 note=61 velocity=0 time=3
2027	note_on channel=7 note=61 velocity=0 time=1
2028	note_on channel=4 note=78 velocity=0 time=3
2029	note_on channel=1 note=33 velocity=0 time=12
2030	note_on channel=1 note=37 velocity=51 time=0
2031	note_on channel=6 note=61 velocity=70 time=0
2032	note_on channel=9 note=38 velocity=85 time=0
2033	note_on channel=9 note=82 velocity=69 time=0
2034	note_on channel=9 note=37 velocity=127 time=0
2035	note_on channel=7 note=61 velocity=70 time=1
2036	note_on channel=9 note=37 velocity=0 time=9
2037	note_on channel=9 note=82 velocity=0 time=0
2038	note_on channel=1 note=37 velocity=0 time=0
2039	note_on channel=9 note=38 velocity=0 time=0
2040	note_on channel=6 note=66 velocity=0 time=4
2041	note_on channel=7 note=66 velocity=0 time=1
2042	note_on channel=6 note=61 velocity=0 time=13
2043	note_on channel=7 note=61 velocity=0 time=1
2044	note_on channel=1 note=38 velocity=50 time=1
2045	note_on channel=4 note=78 velocity=127 time=0
2046	note_on channel=6 note=61 velocity=70 time=0
2047	note_on channel=9 note=36 velocity=127 time=0
2048	note_on channel=9 note=35 velocity=127 time=0
2049	note_on channel=7 note=61 velocity=70 time=1
2050	note_on channel=9 note=35 velocity=0 time=9
2051	note_on channel=9 note=36 velocity=0 time=0
2052	note_on channel=1 note=38 velocity=0 time=0
2053	note_on channel=4 note=78 velocity=0 time=10
2054	note_on channel=6 note=61 velocity=0 time=8
2055	note_on channel=7 note=61 velocity=0 time=1
2056	note_on channel=1 note=37 velocity=71 time=1
2057	note_on channel=4 note=73 velocity=127 time=0
2058	note_on channel=6 note=61 velocity=70 time=0
2059	note_on channel=9 note=82 velocity=48 time=0
2060	note_on channel=7 note=61 velocity=70 time=1
2061	note_on channel=9 note=82 velocity=0 time=9
2062	note_on channel=1 note=37 velocity=0 time=0
2063	note_on channel=4 note=73 velocity=0 time=14
2064	note_on channel=6 note=61 velocity=0 time=0
2065	note_on channel=7 note=61 velocity=0 time=1
2066	note_on channel=1 note=33 velocity=52 time=5
2067	note_on channel=4 note=71 velocity=127 time=0
2068	note_on channel=6 note=61 velocity=70 time=0
2069	note_on channel=7 note=61 velocity=70 time=1
2070	note_on channel=1 note=33 velocity=0 time=9
2071	note_on channel=6 note=61 velocity=0 time=12
2072	note_on channel=7 note=61 velocity=0 time=1
2073	note_on channel=8 note=73 velocity=0 time=3
2074	note_on channel=4 note=71 velocity=0 time=0
2075	note_on channel=8 note=66 velocity=0 time=1
2076	note_on channel=8 note=69 velocity=0 time=0
2077	note_on channel=1 note=30 velocity=109 time=3
2078	note_on channel=8 note=66 velocity=61 time=0
2079	note_on channel=8 note=69 velocity=61 time=0
2080	note_on channel=8 note=73 velocity=61 time=0
2081	note_on channel=9 note=36 velocity=127 time=0
2082	note_on channel=9 note=35 velocity=127 time=0
2083	note_on channel=9 note=82 velocity=108 time=0
2084	note_on channel=9 note=82 velocity=0 time=10
2085	note_on channel=9 note=36 velocity=0 time=0
2086	note_on channel=9 note=35 velocity=0 time=0
2087	
2088	note_on channel=1 note=30 velocity=0 time=0
2089	note_on channel=1 note=32 velocity=68 time=0
2090	note_on channel=9 note=82 velocity=90 time=0
2091	note_on channel=9 note=27 velocity=103 time=0
2092	note_on channel=10 note=71 velocity=90 time=0
2093	note_on channel=9 note=27 velocity=0 time=10
2094	note_on channel=1 note=32 velocity=0 time=0
2095	note_on channel=9 note=82 velocity=0 time=0
2096	note_on channel=10 note=71 velocity=0 time=12
2097	note_on channel=1 note=33 velocity=90 time=8
2098	note_on channel=10 note=71 velocity=90 time=0
2099	note_on channel=1 note=33 velocity=0 time=10
2100	note_on channel=10 note=71 velocity=0 time=12
2101	
2102	note_on channel=1 note=35 velocity=72 time=0
2103	note_on channel=9 note=82 velocity=88 time=0
2104	note_on channel=9 note=27 velocity=101 time=0
2105	note_on channel=10 note=71 velocity=90 time=0
2106	note_on channel=9 note=27 velocity=0 time=10
2107	note_on channel=1 note=35 velocity=0 time=0
2108	note_on channel=9 note=82 velocity=0 time=0
2109	note_on channel=1 note=37 velocity=69 time=20
2110	note_on channel=1 note=37 velocity=0 time=10
2111	note_on channel=10 note=71 velocity=0 time=16
2112	
2113	note_on channel=1 note=28 velocity=91 time=0
2114	note_on channel=9 note=38 velocity=88 time=0
2115	note_on channel=9 note=82 velocity=67 time=0
2116	note_on channel=9 note=37 velocity=127 time=0
2117	note_on channel=10 note=71 velocity=90 time=0
2118	note_on channel=9 note=37 velocity=0 time=10
2119	note_on channel=9 note=82 velocity=0 time=0
2120	note_on channel=9 note=38 velocity=0 time=0
2121	note_on channel=8 note=66 velocity=0 time=46
2122	note_on channel=8 note=69 velocity=0 time=0
2123	note_on channel=8 note=73 velocity=0 time=1
2124	note_on channel=10 note=71 velocity=0 time=1
2125	
2126	note_on channel=1 note=28 velocity=0 time=0
2127	note_on channel=1 note=30 velocity=108 time=0
2128	note_on channel=8 note=66 velocity=54 time=0
2129	note_on channel=8 note=69 velocity=54 time=0
2130	note_on channel=8 note=73 velocity=54 time=0
2131	note_on channel=9 note=82 velocity=109 time=0
2132	note_on channel=10 note=71 velocity=90 time=0
2133	note_on channel=9 note=82 velocity=0 time=10
2134	note_on channel=9 note=38 velocity=87 time=20
2135	note_on channel=9 note=37 velocity=127 time=0
2136	note_on channel=9 note=37 velocity=0 time=10
2137	note_on channel=9 note=38 velocity=0 time=0
2138	note_on channel=1 note=30 velocity=0 time=10
2139	note_on channel=10 note=71 velocity=0 time=4
2140	note_on channel=1 note=32 velocity=69 time=6
2141	note_on channel=9 note=82 velocity=88 time=0
2142	note_on channel=10 note=73 velocity=90 time=0
2143	note_on channel=9 note=82 velocity=0 time=10
2144	note_on channel=1 note=32 velocity=0 time=0
2145	note_on channel=1 note=33 velocity=90 time=20
2146	note_on channel=10 note=73 velocity=0 time=26
2147	
2148	note_on channel=1 note=33 velocity=0 time=0
2149	note_on channel=1 note=35 velocity=70 time=0
2150	note_on channel=9 note=38 velocity=86 time=0
2151	note_on channel=9 note=82 velocity=90 time=0
2152	note_on channel=9 note=37 velocity=127 time=0
2153	note_on channel=10 note=73 velocity=90 time=0
2154	note_on channel=9 note=37 velocity=0 time=10
2155	note_on channel=1 note=35 velocity=0 time=0
2156	note_on channel=9 note=38 velocity=0 time=0
2157	note_on channel=9 note=82 velocity=0 time=0
2158	note_on channel=1 note=37 velocity=72 time=20
2159	note_on channel=1 note=37 velocity=0 time=10
2160	note_on channel=10 note=73 velocity=0 time=18
2161	note_on channel=1 note=38 velocity=89 time=2
2162	note_on channel=9 note=82 velocity=67 time=0
2163	note_on channel=9 note=82 velocity=0 time=10
2164	note_on channel=1 note=38 velocity=0 time=0
2165	note_on channel=1 note=40 velocity=71 time=20
2166	note_on channel=1 note=40 velocity=0 time=10
2167	note_on channel=8 note=73 velocity=0 time=16
2168	note_on channel=8 note=66 velocity=0 time=0
2169	note_on channel=8 note=69 velocity=0 time=0
2170	note_on channel=1 note=33 velocity=109 time=4
2171	note_on channel=8 note=69 velocity=60 time=0
2172	note_on channel=8 note=73 velocity=60 time=0
2173	note_on channel=8 note=76 velocity=60 time=0
2174	note_on channel=9 note=36 velocity=127 time=0
2175	note_on channel=9 note=35 velocity=127 time=0
2176	note_on channel=9 note=82 velocity=110 time=0
2177	note_on channel=9 note=82 velocity=0 time=10
2178	note_on channel=9 note=36 velocity=0 time=0
2179	note_on channel=9 note=35 velocity=0 time=0
2180	note_on channel=1 note=33 velocity=0 time=40
2181	
2182	note_on channel=9 note=82 velocity=91 time=0
2183	note_on channel=9 note=27 velocity=103 time=0
2184	note_on channel=10 note=71 velocity=90 time=0
2185	note_on channel=9 note=27 velocity=0 time=10
2186	note_on channel=9 note=82 velocity=0 time=0
2187	note_on channel=9 note=36 velocity=127 time=20
2188	note_on channel=9 note=35 velocity=127 time=0
2189	note_on channel=9 note=35 velocity=0 time=10
2190	note_on channel=9 note=36 velocity=0 time=0
2191	note_on channel=10 note=71 velocity=0 time=14
2192	
2193	note_on channel=9 note=82 velocity=91 time=0
2194	note_on channel=9 note=27 velocity=103 time=0
2195	note_on channel=10 note=71 velocity=90 time=0
2196	note_on channel=9 note=27 velocity=0 time=10
2197	note_on channel=9 note=82 velocity=0 time=0
2198	note_on channel=10 note=71 velocity=0 time=42
2199	
2200	note_on channel=1 note=33 velocity=112 time=0
2201	note_on channel=9 note=38 velocity=87 time=0
2202	note_on channel=9 note=82 velocity=73 time=0
2203	note_on channel=9 note=37 velocity=127 time=0
2204	note_on channel=10 note=71 velocity=90 time=0
2205	note_on channel=9 note=37 velocity=0 time=10
2206	note_on channel=9 note=82 velocity=0 time=0
2207	note_on channel=9 note=38 velocity=0 time=0
2208	note_on channel=10 note=71 velocity=0 time=32
2209	note_on channel=8 note=76 velocity=0 time=14
2210	note_on channel=8 note=69 velocity=0 time=1
2211	note_on channel=8 note=73 velocity=0 time=0
2212	
2213	note_on channel=1 note=33 velocity=0 time=0
2214	note_on channel=1 note=28 velocity=77 time=0
2215	note_on channel=8 note=68 velocity=55 time=0
2216	note_on channel=8 note=71 velocity=55 time=0
2217	note_on channel=8 note=76 velocity=55 time=0
2218	note_on channel=9 note=82 velocity=109 time=0
2219	note_on channel=10 note=69 velocity=90 time=0
2220	note_on channel=9 note=82 velocity=0 time=10
2221	note_on channel=9 note=38 velocity=86 time=20
2222	note_on channel=9 note=37 velocity=127 time=0
2223	note_on channel=10 note=71 velocity=90 time=0
2224	note_on channel=10 note=69 velocity=0 time=2
2225	note_on channel=10 note=69 velocity=90 time=4
2226	note_on channel=9 note=37 velocity=0 time=4
2227	note_on channel=9 note=38 velocity=0 time=0
2228	note_on channel=9 note=82 velocity=91 time=20
2229	note_on channel=10 note=69 velocity=0 time=2
2230	note_on channel=9 note=82 velocity=0 time=8
2231	note_on channel=10 note=71 velocity=0 time=4
2232	note_on channel=10 note=66 velocity=90 time=16
2233	
2234	note_on channel=9 note=38 velocity=85 time=0
2235	note_on channel=9 note=82 velocity=89 time=0
2236	note_on channel=9 note=37 velocity=127 time=0
2237	note_on channel=10 note=64 velocity=90 time=0
2238	note_on channel=10 note=66 velocity=0 time=8
2239	note_on channel=9 note=37 velocity=0 time=2
2240	note_on channel=9 note=82 velocity=0 time=0
2241	note_on channel=9 note=38 velocity=0 time=0
2242	note_on channel=1 note=28 velocity=0 time=20
2243	note_on channel=9 note=36 velocity=127 time=0
2244	note_on channel=9 note=35 velocity=127 time=0
2245	note_on channel=9 note=35 velocity=0 time=10
2246	note_on channel=9 note=36 velocity=0 time=0
2247	note_on channel=10 note=64 velocity=0 time=20
2248	note_on channel=9 note=82 velocity=68 time=0
2249	note_on channel=9 note=82 velocity=0 time=10
2250	note_on channel=8 note=71 velocity=0 time=47
2251	note_on channel=8 note=68 velocity=0 time=1
2252	note_on channel=8 note=76 velocity=0 time=0
2253	note_on channel=1 note=30 velocity=111 time=2
2254	note_on channel=8 note=66 velocity=61 time=0
2255	note_on channel=8 note=69 velocity=61 time=0
2256	note_on channel=8 note=73 velocity=61 time=0
2257	note_on channel=9 note=36 velocity=127 time=0
2258	note_on channel=9 note=35 velocity=127 time=0
2259	note_on channel=9 note=82 velocity=108 time=0
2260	note_on channel=9 note=82 velocity=0 time=10
2261	note_on channel=9 note=36 velocity=0 time=0
2262	note_on channel=9 note=35 velocity=0 time=0
2263	
2264	note_on channel=9 note=82 velocity=90 time=0
2265	note_on channel=9 note=27 velocity=103 time=0
2266	note_on channel=10 note=71 velocity=90 time=0
2267	note_on channel=9 note=27 velocity=0 time=10
2268	note_on channel=9 note=82 velocity=0 time=0
2269	note_on channel=10 note=71 velocity=0 time=12
2270	note_on channel=1 note=30 velocity=0 time=8
2271	note_on channel=9 note=36 velocity=127 time=0
2272	note_on channel=9 note=35 velocity=127 time=0
2273	note_on channel=10 note=71 velocity=90 time=0
2274	note_on channel=9 note=35 velocity=0 time=10
2275	note_on channel=9 note=36 velocity=0 time=0
2276	note_on channel=10 note=71 velocity=0 time=12
2277	
2278	note_on channel=9 note=82 velocity=88 time=0
2279	note_on channel=9 note=27 velocity=101 time=0
2280	note_on channel=10 note=71 velocity=90 time=0
2281	note_on channel=9 note=27 velocity=0 time=10
2282	note_on channel=9 note=82 velocity=0 time=0
2283	note_on channel=10 note=71 velocity=0 time=46
2284	
2285	note_on channel=1 note=30 velocity=112 time=0
2286	note_on channel=9 note=38 velocity=88 time=0
2287	note_on channel=9 note=82 velocity=67 time=0
2288	note_on channel=9 note=37 velocity=127 time=0
2289	note_on channel=10 note=71 velocity=90 time=0
2290	note_on channel=9 note=37 velocity=0 time=10
2291	note_on channel=9 note=82 velocity=0 time=0
2292	note_on channel=9 note=38 velocity=0 time=0
2293	note_on channel=8 note=66 velocity=0 time=46
2294	note_on channel=8 note=73 velocity=0 time=1
2295	note_on channel=8 note=69 velocity=0 time=0
2296	note_on channel=10 note=71 velocity=0 time=1
2297	
2298	note_on channel=1 note=30 velocity=0 time=0
2299	note_on channel=1 note=30 velocity=77 time=0
2300	note_on channel=8 note=66 velocity=55 time=0
2301	note_on channel=8 note=69 velocity=55 time=0
2302	note_on channel=8 note=73 velocity=55 time=0
2303	note_on channel=9 note=82 velocity=109 time=0
2304	note_on channel=10 note=71 velocity=90 time=0
2305	note_on channel=9 note=82 velocity=0 time=10
2306	note_on channel=9 note=38 velocity=87 time=20
2307	note_on channel=9 note=37 velocity=127 time=0
2308	note_on channel=9 note=37 velocity=0 time=10
2309	note_on channel=9 note=38 velocity=0 time=0
2310	note_on channel=10 note=71 velocity=0 time=14
2311	
2312	note_on channel=9 note=36 velocity=127 time=0
2313	note_on channel=9 note=35 velocity=127 time=0
2314	note_on channel=9 note=82 velocity=88 time=0
2315	note_on channel=10 note=71 velocity=90 time=0
2316	note_on channel=9 note=82 velocity=0 time=10
2317	note_on channel=9 note=35 velocity=0 time=0
2318	note_on channel=9 note=36 velocity=0 time=0
2319	note_on channel=10 note=71 velocity=0 time=46
2320	
2321	note_on channel=9 note=38 velocity=86 time=0
2322	note_on channel=9 note=82 velocity=90 time=0
2323	note_on channel=9 note=37 velocity=127 time=0
2324	note_on channel=10 note=71 velocity=90 time=0
2325	note_on channel=9 note=37 velocity=0 time=10
2326	note_on channel=9 note=82 velocity=0 time=0
2327	note_on channel=9 note=38 velocity=0 time=0
2328	
2329	note_on channel=1 note=30 velocity=0 time=0
2330	note_on channel=9 note=36 velocity=127 time=0
2331	note_on channel=9 note=35 velocity=127 time=0
2332	note_on channel=10 note=73 velocity=90 time=0
2333	note_on channel=10 note=71 velocity=0 time=2
2334	note_on channel=9 note=36 velocity=0 time=8
2335	note_on channel=9 note=35 velocity=0 time=0
2336	note_on channel=9 note=82 velocity=67 time=20
2337	note_on channel=9 note=82 velocity=0 time=10
2338	note_on channel=10 note=73 velocity=0 time=18
2339	note_on channel=9 note=36 velocity=127 time=2
2340	note_on channel=9 note=35 velocity=127 time=0
2341	note_on channel=9 note=35 velocity=0 time=10
2342	note_on channel=9 note=36 velocity=0 time=0
2343	note_on channel=8 note=66 velocity=0 time=16
2344	note_on channel=8 note=69 velocity=0 time=0
2345	note_on channel=8 note=73 velocity=0 time=2
2346	
2347	note_on channel=1 note=33 velocity=108 time=0
2348	note_on channel=8 note=69 velocity=60 time=0
2349	note_on channel=8 note=73 velocity=60 time=0
2350	note_on channel=8 note=76 velocity=60 time=0
2351	note_on channel=9 note=36 velocity=127 time=0
2352	note_on channel=9 note=35 velocity=127 time=0
2353	note_on channel=9 note=82 velocity=110 time=0
2354	note_on channel=10 note=71 velocity=90 time=0
2355	note_on channel=9 note=82 velocity=0 time=10
2356	note_on channel=9 note=35 velocity=0 time=0
2357	note_on channel=9 note=36 velocity=0 time=0
2358	note_on channel=10 note=71 velocity=0 time=34
2359	
2360	note_on channel=9 note=82 velocity=91 time=0
2361	note_on channel=9 note=27 velocity=103 time=0
2362	note_on channel=10 note=71 velocity=90 time=0
2363	note_on channel=9 note=27 velocity=0 time=10
2364	note_on channel=9 note=82 velocity=0 time=0
2365	note_on channel=1 note=33 velocity=0 time=20
2366	note_on channel=9 note=36 velocity=127 time=0
2367	note_on channel=9 note=35 velocity=127 time=0
2368	note_on channel=9 note=35 velocity=0 time=10
2369	note_on channel=9 note=36 velocity=0 time=0
2370	note_on channel=10 note=71 velocity=0 time=14
2371	
2372	note_on channel=9 note=82 velocity=91 time=0
2373	note_on channel=9 note=27 velocity=103 time=0
2374	note_on channel=10 note=71 velocity=90 time=0
2375	note_on channel=9 note=27 velocity=0 time=10
2376	note_on channel=9 note=82 velocity=0 time=0
2377	note_on channel=10 note=71 velocity=0 time=42
2378	
2379	note_on channel=1 note=33 velocity=109 time=0
2380	note_on channel=9 note=38 velocity=87 time=0
2381	note_on channel=9 note=82 velocity=73 time=0
2382	note_on channel=9 note=37 velocity=127 time=0
2383	note_on channel=10 note=71 velocity=90 time=0
2384	note_on channel=9 note=37 velocity=0 time=10
2385	note_on channel=9 note=82 velocity=0 time=0
2386	note_on channel=9 note=38 velocity=0 time=0
2387	note_on channel=10 note=71 velocity=0 time=32
2388	note_on channel=8 note=76 velocity=0 time=14
2389	note_on channel=8 note=69 velocity=0 time=0
2390	note_on channel=8 note=73 velocity=0 time=2
2391	
2392	note_on channel=1 note=33 velocity=0 time=0
2393	note_on channel=1 note=28 velocity=88 time=0
2394	note_on channel=8 note=68 velocity=56 time=0
2395	note_on channel=8 note=71 velocity=56 time=0
2396	note_on channel=8 note=76 velocity=56 time=0
2397	note_on channel=9 note=82 velocity=109 time=0
2398	note_on channel=10 note=69 velocity=90 time=0
2399	note_on channel=9 note=82 velocity=0 time=10
2400	note_on channel=9 note=38 velocity=86 time=20
2401	note_on channel=9 note=37 velocity=127 time=0
2402	note_on channel=10 note=71 velocity=90 time=0
2403	note_on channel=10 note=69 velocity=0 time=2
2404	note_on channel=10 note=69 velocity=90 time=4
2405	note_on channel=9 note=37 velocity=0 time=4
2406	note_on channel=9 note=38 velocity=0 time=0
2407	note_on channel=9 note=82 velocity=91 time=20
2408	note_on channel=10 note=69 velocity=0 time=2
2409	note_on channel=9 note=82 velocity=0 time=8
2410	note_on channel=10 note=71 velocity=0 time=4
2411	note_on channel=1 note=28 velocity=0 time=16
2412	note_on channel=10 note=66 velocity=90 time=0
2413	
2414	note_on channel=9 note=38 velocity=85 time=0
2415	note_on channel=9 note=82 velocity=89 time=0
2416	note_on channel=9 note=37 velocity=127 time=0
2417	note_on channel=10 note=64 velocity=90 time=0
2418	note_on channel=10 note=66 velocity=0 time=8
2419	note_on channel=9 note=38 velocity=0 time=2
2420	note_on channel=9 note=82 velocity=0 time=0
2421	note_on channel=9 note=37 velocity=0 time=0
2422	note_on channel=9 note=36 velocity=127 time=20
2423	note_on channel=9 note=35 velocity=127 time=0
2424	note_on channel=9 note=35 velocity=0 time=10
2425	note_on channel=9 note=36 velocity=0 time=0
2426	note_on channel=10 note=64 velocity=0 time=20
2427	note_on channel=9 note=82 velocity=68 time=0
2428	note_on channel=9 note=82 velocity=0 time=10
2429	note_on channel=8 note=71 velocity=0 time=46
2430	note_on channel=8 note=76 velocity=0 time=2
2431	note_on channel=8 note=68 velocity=0 time=0
2432	note_on channel=1 note=28 velocity=109 time=2
2433	note_on channel=6 note=59 velocity=90 time=0
2434	note_on channel=8 note=66 velocity=61 time=0
2435	note_on channel=8 note=69 velocity=61 time=0
2436	note_on channel=8 note=73 velocity=61 time=0
2437	note_on channel=9 note=36 velocity=127 time=0
2438	note_on channel=9 note=35 velocity=127 time=0
2439	note_on channel=9 note=82 velocity=108 time=0
2440	note_on channel=7 note=59 velocity=90 time=1
2441	note_on channel=9 note=82 velocity=0 time=9
2442	note_on channel=9 note=35 velocity=0 time=0
2443	note_on channel=9 note=36 velocity=0 time=0
2444	note_on channel=6 note=61 velocity=90 time=20
2445	note_on channel=7 note=61 velocity=90 time=1
2446	note_on channel=6 note=59 velocity=0 time=13
2447	note_on channel=7 note=59 velocity=0 time=1
2448	note_on channel=1 note=28 velocity=0 time=15
2449	note_on channel=1 note=30 velocity=110 time=0
2450	note_on channel=6 note=61 velocity=90 time=0
2451	note_on channel=9 note=82 velocity=90 time=0
2452	note_on channel=9 note=27 velocity=103 time=0
2453	note_on channel=7 note=61 velocity=90 time=1
2454	note_on channel=9 note=27 velocity=0 time=9
2455	note_on channel=9 note=82 velocity=0 time=0
2456	note_on channel=6 note=61 velocity=0 time=4
2457	note_on channel=7 note=61 velocity=0 time=1
2458	note_on channel=1 note=30 velocity=0 time=5
2459	note_on channel=6 note=62 velocity=90 time=10
2460	note_on channel=7 note=62 velocity=90 time=1
2461	note_on channel=6 note=61 velocity=0 time=13
2462	note_on channel=7 note=61 velocity=0 time=1
2463	note_on channel=1 note=31 velocity=70 time=15
2464	note_on channel=6 note=61 velocity=90 time=0
2465	note_on channel=9 note=82 velocity=88 time=0
2466	note_on channel=9 note=27 velocity=101 time=0
2467	note_on channel=7 note=61 velocity=90 time=1
2468	note_on channel=9 note=27 velocity=0 time=9
2469	note_on channel=9 note=82 velocity=0 time=0
2470	note_on channel=1 note=31 velocity=0 time=0
2471	note_on channel=6 note=62 velocity=0 time=4
2472	note_on channel=7 note=62 velocity=0 time=1
2473	note_on channel=6 note=61 velocity=0 time=13
2474	note_on channel=7 note=61 velocity=0 time=1
2475	note_on channel=1 note=33 velocity=71 time=1
2476	note_on channel=6 note=61 velocity=90 time=0
2477	note_on channel=7 note=61 velocity=90 time=1
2478	note_on channel=1 note=33 velocity=0 time=9
2479	note_on channel=6 note=61 velocity=0 time=18
2480	note_on channel=7 note=61 velocity=0 time=1
2481	note_on channel=1 note=30 velocity=112 time=1
2482	note_on channel=6 note=61 velocity=90 time=0
2483	note_on channel=9 note=38 velocity=88 time=0
2484	note_on channel=9 note=82 velocity=67 time=0
2485	note_on channel=9 note=37 velocity=127 time=0
2486	note_on channel=7 note=61 velocity=90 time=1
2487	note_on channel=9 note=37 velocity=0 time=9
2488	note_on channel=9 note=82 velocity=0 time=0
2489	note_on channel=9 note=38 velocity=0 time=0
2490	note_on channel=6 note=61 velocity=0 time=16
2491	note_on channel=7 note=61 velocity=0 time=1
2492	note_on channel=6 note=61 velocity=90 time=3
2493	note_on channel=7 note=61 velocity=90 time=1
2494	note_on channel=6 note=61 velocity=0 time=29
2495	note_on channel=1 note=30 velocity=0 time=0
2496	note_on channel=1 note=31 velocity=68 time=0
2497	note_on channel=6 note=59 velocity=90 time=0
2498	note_on channel=9 note=82 velocity=109 time=0
2499	note_on channel=7 note=61 velocity=0 time=1
2500	note_on channel=7 note=59 velocity=90 time=0
2501	note_on channel=9 note=82 velocity=0 time=9
2502	note_on channel=1 note=31 velocity=0 time=10
2503	note_on channel=1 note=30 velocity=91 time=10
2504	note_on channel=6 note=61 velocity=90 time=0
2505	note_on channel=9 note=38 velocity=87 time=0
2506	note_on channel=9 note=37 velocity=127 time=0
2507	note_on channel=7 note=61 velocity=90 time=1
2508	note_on channel=9 note=37 velocity=0 time=9
2509	note_on channel=9 note=38 velocity=0 time=0
2510	note_on channel=1 note=30 velocity=0 time=0
2511	note_on channel=6 note=59 velocity=0 time=4
2512	note_on channel=7 note=59 velocity=0 time=1
2513	note_on channel=6 note=61 velocity=0 time=13
2514	note_on channel=7 note=61 velocity=0 time=1
2515	note_on channel=1 note=31 velocity=69 time=1
2516	note_on channel=6 note=61 velocity=90 time=0
2517	note_on channel=9 note=82 velocity=88 time=0
2518	note_on channel=7 note=61 velocity=90 time=1
2519	note_on channel=9 note=82 velocity=0 time=9
2520	note_on channel=1 note=31 velocity=0 time=0
2521	note_on channel=1 note=40 velocity=91 time=20
2522	note_on channel=6 note=62 velocity=90 time=0
2523	note_on channel=7 note=62 velocity=90 time=1
2524	note_on channel=6 note=61 velocity=0 time=13
2525	note_on channel=7 note=61 velocity=0 time=1
2526	note_on channel=1 note=40 velocity=0 time=15
2527	note_on channel=1 note=30 velocity=88 time=0
2528	note_on channel=6 note=61 velocity=90 time=0
2529	note_on channel=9 note=38 velocity=86 time=0
2530	note_on channel=9 note=82 velocity=90 time=0
2531	note_on channel=9 note=37 velocity=127 time=0
2532	note_on channel=7 note=61 velocity=90 time=1
2533	note_on channel=9 note=37 velocity=0 time=9
2534	note_on channel=9 note=82 velocity=0 time=0
2535	note_on channel=1 note=30 velocity=0 time=0
2536	note_on channel=9 note=38 velocity=0 time=0
2537	note_on channel=6 note=62 velocity=0 time=4
2538	note_on channel=7 note=62 velocity=0 time=1
2539	note_on channel=6 note=61 velocity=0 time=13
2540	note_on channel=7 note=61 velocity=0 time=1
2541	note_on channel=1 note=31 velocity=68 time=1
2542	note_on channel=6 note=61 velocity=90 time=0
2543	note_on channel=7 note=61 velocity=90 time=1
2544	note_on channel=1 note=31 velocity=0 time=19
2545	note_on channel=6 note=61 velocity=0 time=8
2546	note_on channel=7 note=61 velocity=0 time=1
2547	note_on channel=1 note=40 velocity=90 time=1
2548	note_on channel=6 note=61 velocity=90 time=0
2549	note_on channel=9 note=82 velocity=67 time=0
2550	note_on channel=7 note=61 velocity=90 time=1
2551	note_on channel=9 note=82 velocity=0 time=9
2552	note_on channel=1 note=40 velocity=0 time=10
2553	note_on channel=6 note=61 velocity=0 time=4
2554	note_on channel=7 note=61 velocity=0 time=1
2555	note_on channel=1 note=42 velocity=91 time=5
2556	note_on channel=6 note=61 velocity=90 time=0
2557	note_on channel=7 note=61 velocity=90 time=1
2558	note_on channel=1 note=42 velocity=0 time=9
2559	note_on channel=6 note=61 velocity=0 time=12
2560	note_on channel=7 note=61 velocity=0 time=1
2561	note_on channel=1 note=30 velocity=109 time=7
2562	note_on channel=6 note=59 velocity=90 time=0
2563	note_on channel=9 note=36 velocity=127 time=0
2564	note_on channel=9 note=35 velocity=127 time=0
2565	note_on channel=9 note=82 velocity=110 time=0
2566	note_on channel=7 note=59 velocity=90 time=1
2567	note_on channel=9 note=82 velocity=0 time=9
2568	note_on channel=9 note=35 velocity=0 time=0
2569	note_on channel=9 note=36 velocity=0 time=0
2570	note_on channel=6 note=61 velocity=90 time=20
2571	note_on channel=7 note=61 velocity=90 time=1
2572	note_on channel=6 note=59 velocity=0 time=13
2573	note_on channel=7 note=59 velocity=0 time=1
2574	note_on channel=1 note=30 velocity=0 time=15
2575	note_on channel=1 note=31 velocity=69 time=0
2576	note_on channel=6 note=61 velocity=90 time=0
2577	note_on channel=9 note=82 velocity=91 time=0
2578	note_on channel=9 note=27 velocity=103 time=0
2579	note_on channel=7 note=61 velocity=90 time=1
2580	note_on channel=9 note=27 velocity=0 time=9
2581	note_on channel=9 note=82 velocity=0 time=0
2582	note_on channel=1 note=31 velocity=0 time=0
2583	note_on channel=6 note=61 velocity=0 time=4
2584	note_on channel=7 note=61 velocity=0 time=1
2585	note_on channel=1 note=33 velocity=90 time=15
2586	note_on channel=6 note=62 velocity=90 time=0
2587	note_on channel=9 note=36 velocity=127 time=0
2588	note_on channel=9 note=35 velocity=127 time=0
2589	note_on channel=7 note=62 velocity=90 time=1
2590	note_on channel=9 note=35 velocity=0 time=9
2591	note_on channel=9 note=36 velocity=0 time=0
2592	note_on channel=1 note=33 velocity=0 time=0
2593	note_on channel=6 note=61 velocity=0 time=4
2594	note_on channel=7 note=61 velocity=0 time=1
2595	note_on channel=1 note=37 velocity=69 time=15
2596	note_on channel=6 note=61 velocity=90 time=0
2597	note_on channel=9 note=82 velocity=91 time=0
2598	note_on channel=9 note=27 velocity=103 time=0
2599	note_on channel=7 note=61 velocity=90 time=1
2600	note_on channel=9 note=27 velocity=0 time=9
2601	note_on channel=9 note=82 velocity=0 time=0
2602	note_on channel=1 note=37 velocity=0 time=0
2603	note_on channel=6 note=62 velocity=0 time=4
2604	note_on channel=7 note=62 velocity=0 time=1
2605	note_on channel=6 note=61 velocity=0 time=13
2606	note_on channel=7 note=61 velocity=0 time=1
2607	note_on channel=1 note=38 velocity=68 time=1
2608	note_on channel=6 note=61 velocity=90 time=0
2609	note_on channel=7 note=61 velocity=90 time=1
2610	note_on channel=1 note=38 velocity=0 time=9
2611	note_on channel=6 note=61 velocity=0 time=18
2612	note_on channel=7 note=61 velocity=0 time=1
2613	note_on channel=1 note=28 velocity=91 time=1
2614	note_on channel=6 note=61 velocity=90 time=0
2615	note_on channel=9 note=38 velocity=87 time=0
2616	note_on channel=9 note=82 velocity=73 time=0
2617	note_on channel=9 note=37 velocity=127 time=0
2618	note_on channel=7 note=61 velocity=90 time=1
2619	note_on channel=9 note=37 velocity=0 time=9
2620	note_on channel=9 note=82 velocity=0 time=0
2621	note_on channel=9 note=38 velocity=0 time=0
2622	note_on channel=6 note=61 velocity=0 time=16
2623	note_on channel=7 note=61 velocity=0 time=1
2624	note_on channel=6 note=61 velocity=90 time=3
2625	note_on channel=7 note=61 velocity=90 time=1
2626	note_on channel=6 note=61 velocity=0 time=29
2627	note_on channel=1 note=28 velocity=0 time=0
2628	note_on channel=1 note=30 velocity=111 time=0
2629	note_on channel=6 note=59 velocity=90 time=0
2630	note_on channel=9 note=82 velocity=109 time=0
2631	note_on channel=7 note=61 velocity=0 time=1
2632	note_on channel=7 note=59 velocity=90 time=0
2633	note_on channel=9 note=82 velocity=0 time=9
2634	note_on channel=6 note=61 velocity=90 time=20
2635	note_on channel=9 note=38 velocity=86 time=0
2636	note_on channel=9 note=37 velocity=127 time=0
2637	note_on channel=7 note=61 velocity=90 time=1
2638	note_on channel=9 note=37 velocity=0 time=9
2639	note_on channel=9 note=38 velocity=0 time=0
2640	note_on channel=6 note=59 velocity=0 time=4
2641	note_on channel=7 note=59 velocity=0 time=1
2642	note_on channel=1 note=30 velocity=0 time=5
2643	note_on channel=6 note=61 velocity=0 time=8
2644	note_on channel=7 note=61 velocity=0 time=1
2645	note_on channel=1 note=31 velocity=71 time=1
2646	note_on channel=6 note=61 velocity=90 time=0
2647	note_on channel=9 note=82 velocity=91 time=0
2648	note_on channel=7 note=61 velocity=90 time=1
2649	note_on channel=9 note=82 velocity=0 time=9
2650	note_on channel=1 note=31 velocity=0 time=0
2651	note_on channel=1 note=33 velocity=88 time=20
2652	note_on channel=6 note=66 velocity=90 time=0
2653	note_on channel=7 note=66 velocity=90 time=1
2654	note_on channel=6 note=61 velocity=0 time=13
2655	note_on channel=7 note=61 velocity=0 time=1
2656	note_on channel=1 note=33 velocity=0 time=15
2657	note_on channel=1 note=37 velocity=71 time=0
2658	note_on channel=6 note=61 velocity=90 time=0
2659	note_on channel=9 note=38 velocity=85 time=0
2660	note_on channel=9 note=82 velocity=89 time=0
2661	note_on channel=9 note=37 velocity=127 time=0
2662	note_on channel=7 note=61 velocity=90 time=1
2663	note_on channel=9 note=37 velocity=0 time=9
2664	note_on channel=9 note=82 velocity=0 time=0
2665	note_on channel=1 note=37 velocity=0 time=0
2666	note_on channel=9 note=38 velocity=0 time=0
2667	note_on channel=6 note=66 velocity=0 time=4
2668	note_on channel=7 note=66 velocity=0 time=1
2669	note_on channel=6 note=61 velocity=0 time=13
2670	note_on channel=7 note=61 velocity=0 time=1
2671	note_on channel=1 note=38 velocity=68 time=1
2672	note_on channel=6 note=61 velocity=90 time=0
2673	note_on channel=9 note=36 velocity=127 time=0
2674	note_on channel=9 note=35 velocity=127 time=0
2675	note_on channel=7 note=61 velocity=90 time=1
2676	note_on channel=9 note=35 velocity=0 time=9
2677	note_on channel=9 note=36 velocity=0 time=0
2678	note_on channel=1 note=38 velocity=0 time=0
2679	note_on channel=6 note=61 velocity=0 time=18
2680	note_on channel=7 note=61 velocity=0 time=1
2681	note_on channel=1 note=37 velocity=89 time=1
2682	note_on channel=6 note=61 velocity=90 time=0
2683	note_on channel=9 note=82 velocity=68 time=0
2684	note_on channel=7 note=61 velocity=90 time=1
2685	note_on channel=9 note=82 velocity=0 time=9
2686	note_on channel=1 note=37 velocity=0 time=0
2687	note_on channel=6 note=61 velocity=0 time=14
2688	note_on channel=7 note=61 velocity=0 time=1
2689	note_on channel=1 note=33 velocity=68 time=5
2690	note_on channel=6 note=61 velocity=90 time=0
2691	note_on channel=7 note=61 velocity=90 time=1
2692	note_on channel=1 note=33 velocity=0 time=9
2693	note_on channel=6 note=61 velocity=0 time=12
2694	note_on channel=7 note=61 velocity=0 time=1
2695	note_on channel=1 note=30 velocity=112 time=7
2696	note_on channel=6 note=59 velocity=90 time=0
2697	note_on channel=9 note=36 velocity=127 time=0
2698	note_on channel=9 note=35 velocity=127 time=0
2699	note_on channel=9 note=82 velocity=108 time=0
2700	note_on channel=7 note=59 velocity=90 time=1
2701	note_on channel=9 note=82 velocity=0 time=9
2702	note_on channel=9 note=35 velocity=0 time=0
2703	note_on channel=9 note=36 velocity=0 time=0
2704	note_on channel=6 note=61 velocity=90 time=20
2705	note_on channel=7 note=61 velocity=90 time=1
2706	note_on channel=6 note=59 velocity=0 time=13
2707	note_on channel=7 note=59 velocity=0 time=1
2708	note_on channel=6 note=61 velocity=90 time=15
2709	note_on channel=9 note=82 velocity=90 time=0
2710	note_on channel=9 note=27 velocity=103 time=0
2711	note_on channel=7 note=61 velocity=90 time=1
2712	note_on channel=9 note=27 velocity=0 time=9
2713	note_on channel=9 note=82 velocity=0 time=0
2714	note_on channel=6 note=61 velocity=0 time=4
2715	note_on channel=7 note=61 velocity=0 time=1
2716	note_on channel=1 note=30 velocity=0 time=15
2717	note_on channel=6 note=62 velocity=90 time=0
2718	note_on channel=9 note=36 velocity=127 time=0
2719	note_on channel=9 note=35 velocity=127 time=0
2720	note_on channel=7 note=62 velocity=90 time=1
2721	note_on channel=9 note=35 velocity=0 time=9
2722	note_on channel=9 note=36 velocity=0 time=0
2723	note_on channel=6 note=61 velocity=0 time=4
2724	note_on channel=7 note=61 velocity=0 time=1
2725	note_on channel=6 note=61 velocity=90 time=15
2726	note_on channel=9 note=82 velocity=88 time=0
2727	note_on channel=9 note=27 velocity=101 time=0
2728	note_on channel=7 note=61 velocity=90 time=1
2729	note_on channel=9 note=27 velocity=0 time=9
2730	note_on channel=9 note=82 velocity=0 time=0
2731	note_on channel=6 note=62 velocity=0 time=4
2732	note_on channel=7 note=62 velocity=0 time=1
2733	note_on channel=6 note=61 velocity=0 time=13
2734	note_on channel=7 note=61 velocity=0 time=1
2735	note_on channel=6 note=61 velocity=90 time=1
2736	note_on channel=7 note=61 velocity=90 time=1
2737	note_on channel=6 note=61 velocity=0 time=27
2738	note_on channel=7 note=61 velocity=0 time=1
2739	note_on channel=1 note=30 velocity=110 time=1
2740	note_on channel=6 note=61 velocity=90 time=0
2741	note_on channel=9 note=38 velocity=88 time=0
2742	note_on channel=9 note=82 velocity=67 time=0
2743	note_on channel=9 note=37 velocity=127 time=0
2744	note_on channel=7 note=61 velocity=90 time=1
2745	note_on channel=9 note=37 velocity=0 time=9
2746	note_on channel=9 note=82 velocity=0 time=0
2747	note_on channel=9 note=38 velocity=0 time=0
2748	note_on channel=6 note=61 velocity=0 time=16
2749	note_on channel=7 note=61 velocity=0 time=1
2750	note_on channel=6 note=61 velocity=90 time=3
2751	note_on channel=7 note=61 velocity=90 time=1
2752	note_on channel=6 note=61 velocity=0 time=29
2753	note_on channel=1 note=30 velocity=0 time=0
2754	note_on channel=1 note=30 velocity=92 time=0
2755	note_on channel=6 note=59 velocity=90 time=0
2756	note_on channel=9 note=82 velocity=109 time=0
2757	note_on channel=7 note=61 velocity=0 time=1
2758	note_on channel=7 note=59 velocity=90 time=0
2759	note_on channel=9 note=82 velocity=0 time=9
2760	note_on channel=6 note=61 velocity=90 time=20
2761	note_on channel=9 note=38 velocity=87 time=0
2762	note_on channel=9 note=37 velocity=127 time=0
2763	note_on channel=7 note=61 velocity=90 time=1
2764	note_on channel=9 note=37 velocity=0 time=9
2765	note_on channel=9 note=38 velocity=0 time=0
2766	note_on channel=6 note=59 velocity=0 time=4
2767	note_on channel=7 note=59 velocity=0 time=1
2768	note_on channel=6 note=61 velocity=0 time=13
2769	note_on channel=7 note=61 velocity=0 time=1
2770	note_on channel=6 note=61 velocity=90 time=1
2771	note_on channel=9 note=36 velocity=127 time=0
2772	note_on channel=9 note=35 velocity=127 time=0
2773	note_on channel=9 note=82 velocity=88 time=0
2774	note_on channel=7 note=61 velocity=90 time=1
2775	note_on channel=9 note=82 velocity=0 time=9
2776	note_on channel=9 note=35 velocity=0 time=0
2777	note_on channel=9 note=36 velocity=0 time=0
2778	note_on channel=1 note=30 velocity=0 time=20
2779	note_on channel=6 note=62 velocity=90 time=0
2780	note_on channel=7 note=62 velocity=90 time=1
2781	note_on channel=6 note=61 velocity=0 time=13
2782	note_on channel=7 note=61 velocity=0 time=1
2783	note_on channel=6 note=61 velocity=90 time=15
2784	note_on channel=9 note=38 velocity=86 time=0
2785	note_on channel=9 note=82 velocity=90 time=0
2786	note_on channel=9 note=37 velocity=127 time=0
2787	note_on channel=7 note=61 velocity=90 time=1
2788	note_on channel=9 note=37 velocity=0 time=9
2789	note_on channel=9 note=82 velocity=0 time=0
2790	note_on channel=9 note=38 velocity=0 time=0
2791	note_on channel=6 note=62 velocity=0 time=4
2792	note_on channel=7 note=62 velocity=0 time=1
2793	note_on channel=6 note=61 velocity=0 time=13
2794	note_on channel=7 note=61 velocity=0 time=1
2795	note_on channel=6 note=61 velocity=90 time=1
2796	note_on channel=9 note=36 velocity=127 time=0
2797	note_on channel=9 note=35 velocity=127 time=0
2798	note_on channel=7 note=61 velocity=90 time=1
2799	note_on channel=9 note=35 velocity=0 time=9
2800	note_on channel=9 note=36 velocity=0 time=0
2801	note_on channel=6 note=61 velocity=0 time=18
2802	note_on channel=7 note=61 velocity=0 time=1
2803	note_on channel=6 note=61 velocity=90 time=1
2804	note_on channel=9 note=82 velocity=67 time=0
2805	note_on channel=7 note=61 velocity=90 time=1
2806	note_on channel=9 note=82 velocity=0 time=9
2807	note_on channel=6 note=61 velocity=0 time=14
2808	note_on channel=7 note=61 velocity=0 time=1
2809	note_on channel=6 note=61 velocity=90 time=5
2810	note_on channel=9 note=36 velocity=127 time=0
2811	note_on channel=9 note=35 velocity=127 time=0
2812	note_on channel=7 note=61 velocity=90 time=1
2813	note_on channel=9 note=35 velocity=0 time=9
2814	note_on channel=9 note=36 velocity=0 time=0
2815	note_on channel=6 note=61 velocity=0 time=12
2816	note_on channel=7 note=61 velocity=0 time=1
2817	note_on channel=1 note=30 velocity=108 time=7
2818	note_on channel=6 note=59 velocity=90 time=0
2819	note_on channel=9 note=36 velocity=127 time=0
2820	note_on channel=9 note=35 velocity=127 time=0
2821	note_on channel=9 note=82 velocity=110 time=0
2822	note_on channel=7 note=59 velocity=90 time=1
2823	note_on channel=9 note=82 velocity=0 time=9
2824	note_on channel=9 note=35 velocity=0 time=0
2825	note_on channel=9 note=36 velocity=0 time=0
2826	note_on channel=6 note=61 velocity=90 time=20
2827	note_on channel=7 note=61 velocity=90 time=1
2828	note_on channel=6 note=59 velocity=0 time=13
2829	note_on channel=7 note=59 velocity=0 time=1
2830	note_on channel=1 note=30 velocity=0 time=15
2831	note_on channel=1 note=31 velocity=70 time=0
2832	note_on channel=6 note=61 velocity=90 time=0
2833	note_on channel=9 note=82 velocity=91 time=0
2834	note_on channel=9 note=27 velocity=103 time=0
2835	note_on channel=7 note=61 velocity=90 time=1
2836	note_on channel=9 note=27 velocity=0 time=9
2837	note_on channel=9 note=82 velocity=0 time=0
2838	note_on channel=1 note=31 velocity=0 time=0
2839	note_on channel=6 note=61 velocity=0 time=4
2840	note_on channel=7 note=61 velocity=0 time=1
2841	note_on channel=1 note=33 velocity=89 time=15
2842	note_on channel=6 note=62 velocity=90 time=0
2843	note_on channel=9 note=36 velocity=127 time=0
2844	note_on channel=9 note=35 velocity=127 time=0
2845	note_on channel=7 note=62 velocity=90 time=1
2846	note_on channel=9 note=35 velocity=0 time=9
2847	note_on channel=9 note=36 velocity=0 time=0
2848	note_on channel=1 note=33 velocity=0 time=0
2849	note_on channel=6 note=61 velocity=0 time=4
2850	note_on channel=7 note=61 velocity=0 time=1
2851	note_on channel=1 note=37 velocity=72 time=15
2852	note_on channel=6 note=61 velocity=90 time=0
2853	note_on channel=9 note=82 velocity=91 time=0
2854	note_on channel=9 note=27 velocity=103 time=0
2855	note_on channel=7 note=61 velocity=90 time=1
2856	note_on channel=9 note=27 velocity=0 time=9
2857	note_on channel=9 note=82 velocity=0 time=0
2858	note_on channel=1 note=37 velocity=0 time=0
2859	note_on channel=6 note=62 velocity=0 time=4
2860	note_on channel=7 note=62 velocity=0 time=1
2861	note_on channel=6 note=61 velocity=0 time=13
2862	note_on channel=7 note=61 velocity=0 time=1
2863	note_on channel=1 note=38 velocity=72 time=1
2864	note_on channel=6 note=61 velocity=90 time=0
2865	note_on channel=7 note=61 velocity=90 time=1
2866	note_on channel=1 note=38 velocity=0 time=9
2867	note_on channel=6 note=61 velocity=0 time=18
2868	note_on channel=7 note=61 velocity=0 time=1
2869	note_on channel=1 note=28 velocity=89 time=1
2870	note_on channel=6 note=61 velocity=90 time=0
2871	note_on channel=9 note=38 velocity=87 time=0
2872	note_on channel=9 note=82 velocity=73 time=0
2873	note_on channel=9 note=37 velocity=127 time=0
2874	note_on channel=7 note=61 velocity=90 time=1
2875	note_on channel=9 note=37 velocity=0 time=9
2876	note_on channel=9 note=82 velocity=0 time=0
2877	note_on channel=9 note=38 velocity=0 time=0
2878	note_on channel=6 note=61 velocity=0 time=16
2879	note_on channel=7 note=61 velocity=0 time=1
2880	note_on channel=6 note=61 velocity=90 time=3
2881	note_on channel=7 note=61 velocity=90 time=1
2882	note_on channel=6 note=61 velocity=0 time=29
2883	note_on channel=1 note=28 velocity=0 time=0
2884	note_on channel=1 note=30 velocity=112 time=0
2885	note_on channel=6 note=59 velocity=90 time=0
2886	note_on channel=9 note=82 velocity=109 time=0
2887	note_on channel=7 note=61 velocity=0 time=1
2888	note_on channel=7 note=59 velocity=90 time=0
2889	note_on channel=9 note=82 velocity=0 time=9
2890	note_on channel=6 note=61 velocity=90 time=20
2891	note_on channel=9 note=38 velocity=86 time=0
2892	note_on channel=9 note=37 velocity=127 time=0
2893	note_on channel=7 note=61 velocity=90 time=1
2894	note_on channel=9 note=37 velocity=0 time=9
2895	note_on channel=9 note=38 velocity=0 time=0
2896	note_on channel=6 note=59 velocity=0 time=4
2897	note_on channel=7 note=59 velocity=0 time=1
2898	note_on channel=1 note=30 velocity=0 time=5
2899	note_on channel=6 note=61 velocity=0 time=8
2900	note_on channel=7 note=61 velocity=0 time=1
2901	note_on channel=1 note=31 velocity=68 time=1
2902	note_on channel=6 note=61 velocity=90 time=0
2903	note_on channel=9 note=82 velocity=91 time=0
2904	note_on channel=7 note=61 velocity=90 time=1
2905	note_on channel=9 note=82 velocity=0 time=9
2906	note_on channel=1 note=31 velocity=0 time=0
2907	note_on channel=1 note=33 velocity=92 time=20
2908	note_on channel=6 note=66 velocity=90 time=0
2909	note_on channel=7 note=66 velocity=90 time=1
2910	note_on channel=6 note=61 velocity=0 time=13
2911	note_on channel=7 note=61 velocity=0 time=1
2912	note_on channel=1 note=33 velocity=0 time=15
2913	note_on channel=1 note=37 velocity=71 time=0
2914	note_on channel=6 note=61 velocity=90 time=0
2915	note_on channel=8 note=69 velocity=58 time=0
2916	note_on channel=9 note=38 velocity=85 time=0
2917	note_on channel=9 note=82 velocity=89 time=0
2918	note_on channel=9 note=37 velocity=127 time=0
2919	note_on channel=7 note=61 velocity=90 time=1
2920	note_on channel=9 note=37 velocity=0 time=9
2921	note_on channel=9 note=82 velocity=0 time=0
2922	note_on channel=9 note=38 velocity=0 time=0
2923	note_on channel=1 note=37 velocity=0 time=0
2924	note_on channel=6 note=66 velocity=0 time=4
2925	note_on channel=7 note=66 velocity=0 time=1
2926	note_on channel=6 note=61 velocity=0 time=13
2927	note_on channel=7 note=61 velocity=0 time=1
2928	note_on channel=1 note=38 velocity=70 time=1
2929	note_on channel=6 note=61 velocity=90 time=0
2930	note_on channel=9 note=36 velocity=127 time=0
2931	note_on channel=9 note=35 velocity=127 time=0
2932	note_on channel=7 note=61 velocity=90 time=1
2933	note_on channel=9 note=35 velocity=0 time=9
2934	note_on channel=9 note=36 velocity=0 time=0
2935	note_on channel=1 note=38 velocity=0 time=0
2936	note_on channel=6 note=61 velocity=0 time=18
2937	note_on channel=7 note=61 velocity=0 time=1
2938	note_on channel=1 note=37 velocity=91 time=1
2939	note_on channel=6 note=61 velocity=90 time=0
2940	note_on channel=9 note=82 velocity=68 time=0
2941	note_on channel=7 note=61 velocity=90 time=1
2942	note_on channel=9 note=82 velocity=0 time=9
2943	note_on channel=1 note=37 velocity=0 time=0
2944	note_on channel=6 note=61 velocity=0 time=14
2945	note_on channel=7 note=61 velocity=0 time=1
2946	note_on channel=1 note=33 velocity=72 time=5
2947	note_on channel=6 note=61 velocity=90 time=0
2948	note_on channel=7 note=61 velocity=90 time=1
2949	note_on channel=1 note=33 velocity=0 time=9
2950	note_on channel=6 note=61 velocity=0 time=12
2951	note_on channel=7 note=61 velocity=0 time=1
2952	note_on channel=8 note=73 velocity=0 time=4
2953	note_on channel=8 note=69 velocity=0 time=0
2954	note_on channel=8 note=66 velocity=0 time=0
2955	note_on channel=8 note=69 velocity=0 time=3
2956	note_on channel=1 note=30 velocity=109 time=0
2957	note_on channel=8 note=66 velocity=61 time=0
2958	note_on channel=8 note=69 velocity=61 time=0
2959	note_on channel=8 note=73 velocity=61 time=0
2960	note_on channel=9 note=36 velocity=127 time=0
2961	note_on channel=9 note=35 velocity=127 time=0
2962	note_on channel=9 note=82 velocity=108 time=0
2963	note_on channel=9 note=82 velocity=0 time=10
2964	note_on channel=9 note=36 velocity=0 time=0
2965	note_on channel=9 note=35 velocity=0 time=0
2966	
2967	note_on channel=1 note=30 velocity=0 time=0
2968	note_on channel=1 note=32 velocity=68 time=0
2969	note_on channel=9 note=82 velocity=90 time=0
2970	note_on channel=9 note=27 velocity=103 time=0
2971	note_on channel=10 note=71 velocity=90 time=0
2972	note_on channel=9 note=27 velocity=0 time=10
2973	note_on channel=1 note=32 velocity=0 time=0
2974	note_on channel=9 note=82 velocity=0 time=0
2975	note_on channel=10 note=71 velocity=0 time=12
2976	note_on channel=1 note=33 velocity=90 time=8
2977	note_on channel=10 note=71 velocity=90 time=0
2978	note_on channel=1 note=33 velocity=0 time=10
2979	note_on channel=10 note=71 velocity=0 time=12
2980	
2981	note_on channel=1 note=35 velocity=72 time=0
2982	note_on channel=9 note=82 velocity=88 time=0
2983	note_on channel=9 note=27 velocity=101 time=0
2984	note_on channel=10 note=71 velocity=90 time=0
2985	note_on channel=9 note=27 velocity=0 time=10
2986	note_on channel=1 note=35 velocity=0 time=0
2987	note_on channel=9 note=82 velocity=0 time=0
2988	note_on channel=1 note=37 velocity=69 time=20
2989	note_on channel=1 note=37 velocity=0 time=10
2990	note_on channel=10 note=71 velocity=0 time=16
2991	
2992	note_on channel=1 note=28 velocity=91 time=0
2993	note_on channel=9 note=38 velocity=88 time=0
2994	note_on channel=9 note=82 velocity=67 time=0
2995	note_on channel=9 note=37 velocity=127 time=0
2996	note_on channel=10 note=71 velocity=90 time=0
2997	note_on channel=9 note=37 velocity=0 time=10
2998	note_on channel=9 note=82 velocity=0 time=0
2999	note_on channel=9 note=38 velocity=0 time=0
3000	note_on channel=8 note=66 velocity=0 time=46
3001	note_on channel=8 note=69 velocity=0 time=0
3002	note_on channel=8 note=73 velocity=0 time=1
3003	note_on channel=10 note=71 velocity=0 time=1
3004	
3005	note_on channel=1 note=28 velocity=0 time=0
3006	note_on channel=1 note=30 velocity=108 time=0
3007	note_on channel=8 note=66 velocity=54 time=0
3008	note_on channel=8 note=69 velocity=54 time=0
3009	note_on channel=8 note=73 velocity=54 time=0
3010	note_on channel=9 note=82 velocity=109 time=0
3011	note_on channel=10 note=71 velocity=90 time=0
3012	note_on channel=9 note=82 velocity=0 time=10
3013	note_on channel=9 note=38 velocity=87 time=20
3014	note_on channel=9 note=37 velocity=127 time=0
3015	note_on channel=9 note=37 velocity=0 time=10
3016	note_on channel=9 note=38 velocity=0 time=0
3017	note_on channel=1 note=30 velocity=0 time=10
3018	note_on channel=10 note=71 velocity=0 time=4
3019	note_on channel=1 note=32 velocity=69 time=6
3020	note_on channel=9 note=82 velocity=88 time=0
3021	note_on channel=10 note=73 velocity=90 time=0
3022	note_on channel=9 note=82 velocity=0 time=10
3023	note_on channel=1 note=32 velocity=0 time=0
3024	note_on channel=1 note=33 velocity=90 time=20
3025	note_on channel=10 note=73 velocity=0 time=26
3026	
3027	note_on channel=1 note=33 velocity=0 time=0
3028	note_on channel=1 note=35 velocity=70 time=0
3029	note_on channel=9 note=38 velocity=86 time=0
3030	note_on channel=9 note=82 velocity=90 time=0
3031	note_on channel=9 note=37 velocity=127 time=0
3032	note_on channel=10 note=73 velocity=90 time=0
3033	note_on channel=9 note=37 velocity=0 time=10
3034	note_on channel=1 note=35 velocity=0 time=0
3035	note_on channel=9 note=38 velocity=0 time=0
3036	note_on channel=9 note=82 velocity=0 time=0
3037	note_on channel=1 note=37 velocity=72 time=20
3038	note_on channel=1 note=37 velocity=0 time=10
3039	note_on channel=10 note=73 velocity=0 time=18
3040	note_on channel=1 note=38 velocity=89 time=2
3041	note_on channel=9 note=82 velocity=67 time=0
3042	note_on channel=9 note=82 velocity=0 time=10
3043	note_on channel=1 note=38 velocity=0 time=0
3044	note_on channel=1 note=40 velocity=71 time=20
3045	note_on channel=1 note=40 velocity=0 time=10
3046	note_on channel=8 note=73 velocity=0 time=16
3047	note_on channel=8 note=66 velocity=0 time=0
3048	note_on channel=8 note=69 velocity=0 time=0
3049	note_on channel=1 note=33 velocity=109 time=4
3050	note_on channel=8 note=69 velocity=60 time=0
3051	note_on channel=8 note=73 velocity=60 time=0
3052	note_on channel=8 note=76 velocity=60 time=0
3053	note_on channel=9 note=36 velocity=127 time=0
3054	note_on channel=9 note=35 velocity=127 time=0
3055	note_on channel=9 note=82 velocity=110 time=0
3056	note_on channel=9 note=82 velocity=0 time=10
3057	note_on channel=9 note=36 velocity=0 time=0
3058	note_on channel=9 note=35 velocity=0 time=0
3059	note_on channel=1 note=33 velocity=0 time=40
3060	
3061	note_on channel=9 note=82 velocity=91 time=0
3062	note_on channel=9 note=27 velocity=103 time=0
3063	note_on channel=10 note=71 velocity=90 time=0
3064	note_on channel=9 note=27 velocity=0 time=10
3065	note_on channel=9 note=82 velocity=0 time=0
3066	note_on channel=9 note=36 velocity=127 time=20
3067	note_on channel=9 note=35 velocity=127 time=0
3068	note_on channel=9 note=35 velocity=0 time=10
3069	note_on channel=9 note=36 velocity=0 time=0
3070	note_on channel=10 note=71 velocity=0 time=14
3071	
3072	note_on channel=9 note=82 velocity=91 time=0
3073	note_on channel=9 note=27 velocity=103 time=0
3074	note_on channel=10 note=71 velocity=90 time=0
3075	note_on channel=9 note=27 velocity=0 time=10
3076	note_on channel=9 note=82 velocity=0 time=0
3077	note_on channel=10 note=71 velocity=0 time=42
3078	
3079	note_on channel=1 note=33 velocity=112 time=0
3080	note_on channel=9 note=38 velocity=87 time=0
3081	note_on channel=9 note=82 velocity=73 time=0
3082	note_on channel=9 note=37 velocity=127 time=0
3083	note_on channel=10 note=71 velocity=90 time=0
3084	note_on channel=9 note=37 velocity=0 time=10
3085	note_on channel=9 note=82 velocity=0 time=0
3086	note_on channel=9 note=38 velocity=0 time=0
3087	note_on channel=10 note=71 velocity=0 time=32
3088	note_on channel=8 note=76 velocity=0 time=14
3089	note_on channel=8 note=69 velocity=0 time=1
3090	note_on channel=8 note=73 velocity=0 time=0
3091	
3092	note_on channel=1 note=33 velocity=0 time=0
3093	note_on channel=1 note=28 velocity=77 time=0
3094	note_on channel=8 note=68 velocity=55 time=0
3095	note_on channel=8 note=71 velocity=55 time=0
3096	note_on channel=8 note=76 velocity=55 time=0
3097	note_on channel=9 note=82 velocity=109 time=0
3098	note_on channel=10 note=69 velocity=90 time=0
3099	note_on channel=9 note=82 velocity=0 time=10
3100	note_on channel=9 note=38 velocity=86 time=20
3101	note_on channel=9 note=37 velocity=127 time=0
3102	note_on channel=10 note=71 velocity=90 time=0
3103	note_on channel=10 note=69 velocity=0 time=2
3104	note_on channel=10 note=69 velocity=90 time=4
3105	note_on channel=9 note=37 velocity=0 time=4
3106	note_on channel=9 note=38 velocity=0 time=0
3107	note_on channel=9 note=82 velocity=91 time=20
3108	note_on channel=10 note=69 velocity=0 time=2
3109	note_on channel=9 note=82 velocity=0 time=8
3110	note_on channel=10 note=71 velocity=0 time=4
3111	note_on channel=10 note=66 velocity=90 time=16
3112	
3113	note_on channel=9 note=38 velocity=85 time=0
3114	note_on channel=9 note=82 velocity=89 time=0
3115	note_on channel=9 note=37 velocity=127 time=0
3116	note_on channel=10 note=64 velocity=90 time=0
3117	note_on channel=10 note=66 velocity=0 time=8
3118	note_on channel=9 note=37 velocity=0 time=2
3119	note_on channel=9 note=82 velocity=0 time=0
3120	note_on channel=9 note=38 velocity=0 time=0
3121	note_on channel=1 note=28 velocity=0 time=20
3122	note_on channel=9 note=36 velocity=127 time=0
3123	note_on channel=9 note=35 velocity=127 time=0
3124	note_on channel=9 note=35 velocity=0 time=10
3125	note_on channel=9 note=36 velocity=0 time=0
3126	note_on channel=10 note=64 velocity=0 time=20
3127	note_on channel=9 note=82 velocity=68 time=0
3128	note_on channel=9 note=82 velocity=0 time=10
3129	note_on channel=8 note=71 velocity=0 time=47
3130	note_on channel=8 note=68 velocity=0 time=1
3131	note_on channel=8 note=76 velocity=0 time=0
3132	note_on channel=1 note=30 velocity=111 time=2
3133	note_on channel=8 note=66 velocity=61 time=0
3134	note_on channel=8 note=69 velocity=61 time=0
3135	note_on channel=8 note=73 velocity=61 time=0
3136	note_on channel=9 note=36 velocity=127 time=0
3137	note_on channel=9 note=35 velocity=127 time=0
3138	note_on channel=9 note=82 velocity=108 time=0
3139	note_on channel=9 note=82 velocity=0 time=10
3140	note_on channel=9 note=36 velocity=0 time=0
3141	note_on channel=9 note=35 velocity=0 time=0
3142	
3143	note_on channel=9 note=82 velocity=90 time=0
3144	note_on channel=9 note=27 velocity=103 time=0
3145	note_on channel=10 note=71 velocity=90 time=0
3146	note_on channel=9 note=27 velocity=0 time=10
3147	note_on channel=9 note=82 velocity=0 time=0
3148	note_on channel=10 note=71 velocity=0 time=12
3149	note_on channel=1 note=30 velocity=0 time=8
3150	note_on channel=9 note=36 velocity=127 time=0
3151	note_on channel=9 note=35 velocity=127 time=0
3152	note_on channel=10 note=71 velocity=90 time=0
3153	note_on channel=9 note=35 velocity=0 time=10
3154	note_on channel=9 note=36 velocity=0 time=0
3155	note_on channel=10 note=71 velocity=0 time=12
3156	
3157	note_on channel=9 note=82 velocity=88 time=0
3158	note_on channel=9 note=27 velocity=101 time=0
3159	note_on channel=10 note=71 velocity=90 time=0
3160	note_on channel=9 note=27 velocity=0 time=10
3161	note_on channel=9 note=82 velocity=0 time=0
3162	note_on channel=10 note=71 velocity=0 time=46
3163	
3164	note_on channel=1 note=30 velocity=112 time=0
3165	note_on channel=9 note=38 velocity=88 time=0
3166	note_on channel=9 note=82 velocity=67 time=0
3167	note_on channel=9 note=37 velocity=127 time=0
3168	note_on channel=10 note=71 velocity=90 time=0
3169	note_on channel=9 note=37 velocity=0 time=10
3170	note_on channel=9 note=82 velocity=0 time=0
3171	note_on channel=9 note=38 velocity=0 time=0
3172	note_on channel=8 note=66 velocity=0 time=46
3173	note_on channel=8 note=73 velocity=0 time=1
3174	note_on channel=8 note=69 velocity=0 time=0
3175	note_on channel=10 note=71 velocity=0 time=1
3176	
3177	note_on channel=1 note=30 velocity=0 time=0
3178	note_on channel=1 note=30 velocity=77 time=0
3179	note_on channel=8 note=66 velocity=55 time=0
3180	note_on channel=8 note=69 velocity=55 time=0
3181	note_on channel=8 note=73 velocity=55 time=0
3182	note_on channel=9 note=82 velocity=109 time=0
3183	note_on channel=10 note=71 velocity=90 time=0
3184	note_on channel=9 note=82 velocity=0 time=10
3185	note_on channel=9 note=38 velocity=87 time=20
3186	note_on channel=9 note=37 velocity=127 time=0
3187	note_on channel=9 note=37 velocity=0 time=10
3188	note_on channel=9 note=38 velocity=0 time=0
3189	note_on channel=10 note=71 velocity=0 time=14
3190	
3191	note_on channel=9 note=36 velocity=127 time=0
3192	note_on channel=9 note=35 velocity=127 time=0
3193	note_on channel=9 note=82 velocity=88 time=0
3194	note_on channel=10 note=71 velocity=90 time=0
3195	note_on channel=9 note=82 velocity=0 time=10
3196	note_on channel=9 note=35 velocity=0 time=0
3197	note_on channel=9 note=36 velocity=0 time=0
3198	note_on channel=10 note=71 velocity=0 time=46
3199	
3200	note_on channel=9 note=38 velocity=86 time=0
3201	note_on channel=9 note=82 velocity=90 time=0
3202	note_on channel=9 note=37 velocity=127 time=0
3203	note_on channel=10 note=71 velocity=90 time=0
3204	note_on channel=9 note=37 velocity=0 time=10
3205	note_on channel=9 note=82 velocity=0 time=0
3206	note_on channel=9 note=38 velocity=0 time=0
3207	
3208	note_on channel=1 note=30 velocity=0 time=0
3209	note_on channel=9 note=36 velocity=127 time=0
3210	note_on channel=9 note=35 velocity=127 time=0
3211	note_on channel=10 note=73 velocity=90 time=0
3212	note_on channel=10 note=71 velocity=0 time=2
3213	note_on channel=9 note=36 velocity=0 time=8
3214	note_on channel=9 note=35 velocity=0 time=0
3215	note_on channel=9 note=82 velocity=67 time=20
3216	note_on channel=9 note=82 velocity=0 time=10
3217	note_on channel=10 note=73 velocity=0 time=18
3218	note_on channel=9 note=36 velocity=127 time=2
3219	note_on channel=9 note=35 velocity=127 time=0
3220	note_on channel=9 note=35 velocity=0 time=10
3221	note_on channel=9 note=36 velocity=0 time=0
3222	note_on channel=8 note=66 velocity=0 time=16
3223	note_on channel=8 note=69 velocity=0 time=0
3224	note_on channel=8 note=73 velocity=0 time=2
3225	
3226	note_on channel=1 note=33 velocity=108 time=0
3227	note_on channel=8 note=69 velocity=60 time=0
3228	note_on channel=8 note=73 velocity=60 time=0
3229	note_on channel=8 note=76 velocity=60 time=0
3230	note_on channel=9 note=36 velocity=127 time=0
3231	note_on channel=9 note=35 velocity=127 time=0
3232	note_on channel=9 note=82 velocity=110 time=0
3233	note_on channel=10 note=71 velocity=90 time=0
3234	note_on channel=9 note=82 velocity=0 time=10
3235	note_on channel=9 note=35 velocity=0 time=0
3236	note_on channel=9 note=36 velocity=0 time=0
3237	note_on channel=10 note=71 velocity=0 time=34
3238	
3239	note_on channel=9 note=82 velocity=91 time=0
3240	note_on channel=9 note=27 velocity=103 time=0
3241	note_on channel=10 note=71 velocity=90 time=0
3242	note_on channel=9 note=27 velocity=0 time=10
3243	note_on channel=9 note=82 velocity=0 time=0
3244	note_on channel=1 note=33 velocity=0 time=20
3245	note_on channel=9 note=36 velocity=127 time=0
3246	note_on channel=9 note=35 velocity=127 time=0
3247	note_on channel=9 note=35 velocity=0 time=10
3248	note_on channel=9 note=36 velocity=0 time=0
3249	note_on channel=10 note=71 velocity=0 time=14
3250	
3251	note_on channel=9 note=82 velocity=91 time=0
3252	note_on channel=9 note=27 velocity=103 time=0
3253	note_on channel=10 note=71 velocity=90 time=0
3254	note_on channel=9 note=27 velocity=0 time=10
3255	note_on channel=9 note=82 velocity=0 time=0
3256	note_on channel=10 note=71 velocity=0 time=42
3257	
3258	note_on channel=1 note=33 velocity=109 time=0
3259	note_on channel=9 note=38 velocity=87 time=0
3260	note_on channel=9 note=82 velocity=73 time=0
3261	note_on channel=9 note=37 velocity=127 time=0
3262	note_on channel=10 note=71 velocity=90 time=0
3263	note_on channel=9 note=37 velocity=0 time=10
3264	note_on channel=9 note=82 velocity=0 time=0
3265	note_on channel=9 note=38 velocity=0 time=0
3266	note_on channel=10 note=71 velocity=0 time=32
3267	note_on channel=8 note=76 velocity=0 time=14
3268	note_on channel=8 note=69 velocity=0 time=0
3269	note_on channel=8 note=73 velocity=0 time=2
3270	
3271	note_on channel=1 note=33 velocity=0 time=0
3272	note_on channel=1 note=28 velocity=88 time=0
3273	note_on channel=8 note=68 velocity=56 time=0
3274	note_on channel=8 note=71 velocity=56 time=0
3275	note_on channel=8 note=76 velocity=56 time=0
3276	note_on channel=9 note=82 velocity=109 time=0
3277	note_on channel=10 note=69 velocity=90 time=0
3278	note_on channel=9 note=82 velocity=0 time=10
3279	note_on channel=9 note=38 velocity=86 time=20
3280	note_on channel=9 note=37 velocity=127 time=0
3281	note_on channel=10 note=71 velocity=90 time=0
3282	note_on channel=10 note=69 velocity=0 time=2
3283	note_on channel=10 note=69 velocity=90 time=4
3284	note_on channel=9 note=37 velocity=0 time=4
3285	note_on channel=9 note=38 velocity=0 time=0
3286	note_on channel=9 note=82 velocity=91 time=20
3287	note_on channel=10 note=69 velocity=0 time=2
3288	note_on channel=9 note=82 velocity=0 time=8
3289	note_on channel=10 note=71 velocity=0 time=4
3290	note_on channel=1 note=28 velocity=0 time=16
3291	note_on channel=10 note=66 velocity=90 time=0
3292	
3293	note_on channel=9 note=38 velocity=85 time=0
3294	note_on channel=9 note=82 velocity=89 time=0
3295	note_on channel=9 note=37 velocity=127 time=0
3296	note_on channel=10 note=64 velocity=90 time=0
3297	note_on channel=10 note=66 velocity=0 time=8
3298	note_on channel=9 note=38 velocity=0 time=2
3299	note_on channel=9 note=82 velocity=0 time=0
3300	note_on channel=9 note=37 velocity=0 time=0
3301	note_on channel=9 note=36 velocity=127 time=20
3302	note_on channel=9 note=35 velocity=127 time=0
3303	note_on channel=9 note=35 velocity=0 time=10
3304	note_on channel=9 note=36 velocity=0 time=0
3305	note_on channel=10 note=64 velocity=0 time=20
3306	note_on channel=9 note=82 velocity=68 time=0
3307	note_on channel=9 note=82 velocity=0 time=10
3308	note_on channel=8 note=71 velocity=0 time=46
3309	note_on channel=8 note=76 velocity=0 time=2
3310	note_on channel=8 note=68 velocity=0 time=0
3311	note_on channel=1 note=33 velocity=110 time=2
3312	note_on channel=8 note=69 velocity=60 time=0
3313	note_on channel=8 note=73 velocity=60 time=0
3314	note_on channel=8 note=76 velocity=60 time=0
3315	note_on channel=9 note=36 velocity=127 time=0
3316	note_on channel=9 note=35 velocity=127 time=0
3317	note_on channel=9 note=82 velocity=108 time=0
3318	note_on channel=9 note=82 velocity=0 time=10
3319	note_on channel=9 note=36 velocity=0 time=0
3320	note_on channel=9 note=35 velocity=0 time=0
3321	
3322	note_on channel=1 note=33 velocity=0 time=0
3323	note_on channel=1 note=35 velocity=69 time=0
3324	note_on channel=9 note=82 velocity=90 time=0
3325	note_on channel=9 note=27 velocity=103 time=0
3326	note_on channel=10 note=69 velocity=90 time=0
3327	note_on channel=9 note=27 velocity=0 time=10
3328	note_on channel=1 note=35 velocity=0 time=0
3329	note_on channel=9 note=82 velocity=0 time=0
3330	note_on channel=10 note=69 velocity=0 time=20
3331	note_on channel=1 note=37 velocity=92 time=0
3332	
3333	note_on channel=10 note=69 velocity=90 time=0
3334	note_on channel=1 note=37 velocity=0 time=8
3335	note_on channel=1 note=35 velocity=69 time=20
3336	note_on channel=9 note=82 velocity=88 time=0
3337	note_on channel=9 note=27 velocity=101 time=0
3338	note_on channel=9 note=27 velocity=0 time=10
3339	note_on channel=1 note=35 velocity=0 time=0
3340	note_on channel=9 note=82 velocity=0 time=0
3341	note_on channel=10 note=69 velocity=0 time=12
3342	
3343	note_on channel=10 note=69 velocity=90 time=0
3344	note_on channel=1 note=37 velocity=68 time=4
3345	note_on channel=1 note=37 velocity=0 time=10
3346	note_on channel=10 note=69 velocity=0 time=12
3347	
3348	note_on channel=10 note=69 velocity=90 time=0
3349	note_on channel=1 note=31 velocity=91 time=2
3350	note_on channel=9 note=38 velocity=88 time=0
3351	note_on channel=9 note=82 velocity=67 time=0
3352	note_on channel=9 note=37 velocity=127 time=0
3353	note_on channel=9 note=37 velocity=0 time=10
3354	note_on channel=9 note=82 velocity=0 time=0
3355	note_on channel=9 note=38 velocity=0 time=0
3356	note_on channel=8 note=69 velocity=0 time=46
3357	note_on channel=8 note=76 velocity=0 time=0
3358	note_on channel=10 note=69 velocity=0 time=0
3359	note_on channel=8 note=73 velocity=0 time=2
3360	
3361	note_on channel=1 note=31 velocity=0 time=0
3362	note_on channel=1 note=40 velocity=112 time=0
3363	note_on channel=8 note=68 velocity=56 time=0
3364	note_on channel=8 note=71 velocity=56 time=0
3365	note_on channel=8 note=76 velocity=56 time=0
3366	note_on channel=9 note=82 velocity=109 time=0
3367	note_on channel=10 note=68 velocity=90 time=0
3368	note_on channel=9 note=82 velocity=0 time=10
3369	note_on channel=9 note=38 velocity=87 time=20
3370	note_on channel=9 note=37 velocity=127 time=0
3371	note_on channel=9 note=37 velocity=0 time=10
3372	note_on channel=9 note=38 velocity=0 time=0
3373	note_on channel=1 note=40 velocity=0 time=10
3374	note_on channel=10 note=68 velocity=0 time=8
3375	
3376	note_on channel=1 note=37 velocity=69 time=0
3377	note_on channel=9 note=82 velocity=88 time=0
3378	note_on channel=10 note=68 velocity=90 time=0
3379	note_on channel=9 note=82 velocity=0 time=10
3380	note_on channel=1 note=37 velocity=0 time=0
3381	note_on channel=1 note=40 velocity=90 time=20
3382	note_on channel=10 note=68 velocity=0 time=26
3383	
3384	note_on channel=1 note=40 velocity=0 time=0
3385	note_on channel=1 note=37 velocity=68 time=0
3386	note_on channel=9 note=38 velocity=86 time=0
3387	note_on channel=9 note=82 velocity=90 time=0
3388	note_on channel=9 note=37 velocity=127 time=0
3389	note_on channel=10 note=68 velocity=90 time=0
3390	note_on channel=9 note=37 velocity=0 time=10
3391	note_on channel=1 note=37 velocity=0 time=0
3392	note_on channel=9 note=38 velocity=0 time=0
3393	note_on channel=9 note=82 velocity=0 time=0
3394	note_on channel=1 note=35 velocity=71 time=20
3395	note_on channel=1 note=35 velocity=0 time=10
3396	note_on channel=10 note=68 velocity=0 time=12
3397	
3398	note_on channel=1 note=32 velocity=92 time=0
3399	note_on channel=9 note=82 velocity=67 time=0
3400	note_on channel=10 note=68 velocity=90 time=0
3401	note_on channel=11 note=69 velocity=90 time=0
3402	note_on channel=11 note=61 velocity=90 time=0
3403	note_on channel=11 note=57 velocity=90 time=0
3404	note_on channel=9 note=82 velocity=0 time=10
3405	note_on channel=1 note=32 velocity=0 time=0
3406	note_on channel=11 note=61 velocity=0 time=4
3407	note_on channel=11 note=57 velocity=0 time=0
3408	note_on channel=11 note=69 velocity=0 time=0
3409	note_on channel=1 note=30 velocity=72 time=16
3410	note_on channel=11 note=69 velocity=90 time=0
3411	note_on channel=11 note=61 velocity=90 time=0
3412	note_on channel=11 note=57 velocity=90 time=0
3413	note_on channel=1 note=30 velocity=0 time=10
3414	note_on channel=11 note=57 velocity=0 time=2
3415	note_on channel=11 note=69 velocity=0 time=4
3416	note_on channel=11 note=61 velocity=0 time=0
3417	note_on channel=10 note=68 velocity=0 time=6
3418	note_on channel=8 note=68 velocity=0 time=4
3419	note_on channel=8 note=71 velocity=0 time=0
3420	note_on channel=8 note=76 velocity=0 time=1
3421	note_on channel=1 note=33 velocity=109 time=3
3422	note_on channel=8 note=69 velocity=61 time=0
3423	note_on channel=8 note=73 velocity=61 time=0
3424	note_on channel=8 note=76 velocity=61 time=0
3425	note_on channel=9 note=36 velocity=127 time=0
3426	note_on channel=9 note=35 velocity=127 time=0
3427	note_on channel=9 note=82 velocity=110 time=0
3428	note_on channel=9 note=82 velocity=0 time=10
3429	note_on channel=9 note=36 velocity=0 time=0
3430	note_on channel=9 note=35 velocity=0 time=0
3431	note_on channel=1 note=33 velocity=0 time=40
3432	
3433	note_on channel=9 note=82 velocity=91 time=0
3434	note_on channel=9 note=27 velocity=103 time=0
3435	note_on channel=10 note=69 velocity=90 time=0
3436	note_on channel=9 note=27 velocity=0 time=10
3437	note_on channel=9 note=82 velocity=0 time=0
3438	note_on channel=10 note=69 velocity=0 time=20
3439	note_on channel=9 note=36 velocity=127 time=0
3440	note_on channel=9 note=35 velocity=127 time=0
3441	
3442	note_on channel=10 note=69 velocity=90 time=0
3443	note_on channel=9 note=35 velocity=0 time=8
3444	note_on channel=9 note=36 velocity=0 time=0
3445	note_on channel=9 note=82 velocity=91 time=20
3446	note_on channel=9 note=27 velocity=103 time=0
3447	note_on channel=9 note=27 velocity=0 time=10
3448	note_on channel=9 note=82 velocity=0 time=0
3449	note_on channel=10 note=69 velocity=0 time=12
3450	
3451	note_on channel=10 note=69 velocity=90 time=0
3452	note_on channel=10 note=69 velocity=0 time=26
3453	
3454	note_on channel=10 note=69 velocity=90 time=0
3455	note_on channel=1 note=37 velocity=111 time=2
3456	note_on channel=9 note=38 velocity=87 time=0
3457	note_on channel=9 note=82 velocity=73 time=0
3458	note_on channel=9 note=37 velocity=127 time=0
3459	note_on channel=9 note=37 velocity=0 time=10
3460	note_on channel=9 note=82 velocity=0 time=0
3461	note_on channel=9 note=38 velocity=0 time=0
3462	note_on channel=8 note=69 velocity=0 time=46
3463	note_on channel=10 note=69 velocity=0 time=0
3464	note_on channel=8 note=73 velocity=0 time=1
3465	note_on channel=8 note=76 velocity=0 time=1
3466	
3467	note_on channel=1 note=37 velocity=0 time=0
3468	note_on channel=1 note=28 velocity=103 time=0
3469	note_on channel=8 note=68 velocity=54 time=0
3470	note_on channel=8 note=71 velocity=54 time=0
3471	note_on channel=8 note=76 velocity=54 time=0
3472	note_on channel=9 note=82 velocity=109 time=0
3473	note_on channel=10 note=68 velocity=90 time=0
3474	note_on channel=9 note=82 velocity=0 time=10
3475	note_on channel=9 note=38 velocity=86 time=20
3476	note_on channel=9 note=37 velocity=127 time=0
3477	note_on channel=9 note=37 velocity=0 time=10
3478	note_on channel=9 note=38 velocity=0 time=0
3479	note_on channel=10 note=68 velocity=0 time=18
3480	
3481	note_on channel=9 note=82 velocity=91 time=0
3482	note_on channel=10 note=68 velocity=90 time=0
3483	note_on channel=9 note=82 velocity=0 time=10
3484	note_on channel=10 note=68 velocity=0 time=46
3485	
3486	note_on channel=9 note=38 velocity=85 time=0
3487	note_on channel=9 note=82 velocity=89 time=0
3488	note_on channel=9 note=37 velocity=127 time=0
3489	note_on channel=10 note=68 velocity=90 time=0
3490	note_on channel=9 note=37 velocity=0 time=10
3491	note_on channel=9 note=82 velocity=0 time=0
3492	note_on channel=9 note=38 velocity=0 time=0
3493	note_on channel=9 note=36 velocity=127 time=20
3494	note_on channel=9 note=35 velocity=127 time=0
3495	note_on channel=9 note=35 velocity=0 time=10
3496	note_on channel=9 note=36 velocity=0 time=0
3497	note_on channel=9 note=82 velocity=68 time=20
3498	note_on channel=11 note=69 velocity=90 time=0
3499	note_on channel=11 note=61 velocity=90 time=0
3500	note_on channel=11 note=57 velocity=90 time=0
3501	note_on channel=9 note=82 velocity=0 time=10
3502	note_on channel=11 note=57 velocity=0 time=4
3503	note_on channel=11 note=61 velocity=0 time=0
3504	note_on channel=11 note=69 velocity=0 time=0
3505	note_on channel=11 note=69 velocity=90 time=16
3506	note_on channel=11 note=61 velocity=90 time=0
3507	note_on channel=11 note=57 velocity=90 time=0
3508	note_on channel=11 note=57 velocity=0 time=12
3509	note_on channel=11 note=61 velocity=0 time=4
3510	note_on channel=10 note=68 velocity=0 time=0
3511	note_on channel=11 note=69 velocity=0 time=0
3512	note_on channel=8 note=71 velocity=0 time=11
3513	note_on channel=8 note=76 velocity=0 time=0
3514	note_on channel=8 note=68 velocity=0 time=1
3515	note_on channel=1 note=28 velocity=0 time=2
3516	note_on channel=1 note=33 velocity=110 time=0
3517	note_on channel=8 note=69 velocity=61 time=0
3518	note_on channel=8 note=73 velocity=61 time=0
3519	note_on channel=8 note=76 velocity=61 time=0
3520	note_on channel=9 note=36 velocity=127 time=0
3521	note_on channel=9 note=35 velocity=127 time=0
3522	note_on channel=9 note=82 velocity=108 time=0
3523	note_on channel=9 note=82 velocity=0 time=10
3524	note_on channel=9 note=36 velocity=0 time=0
3525	note_on channel=9 note=35 velocity=0 time=0
3526	
3527	note_on channel=9 note=82 velocity=90 time=0
3528	note_on channel=9 note=27 velocity=103 time=0
3529	note_on channel=10 note=69 velocity=90 time=0
3530	note_on channel=9 note=27 velocity=0 time=10
3531	note_on channel=9 note=82 velocity=0 time=0
3532	note_on channel=1 note=33 velocity=0 time=20
3533	note_on channel=10 note=69 velocity=0 time=0
3534	note_on channel=9 note=36 velocity=127 time=0
3535	note_on channel=9 note=35 velocity=127 time=0
3536	
3537	note_on channel=10 note=69 velocity=90 time=0
3538	note_on channel=9 note=35 velocity=0 time=8
3539	note_on channel=9 note=36 velocity=0 time=0
3540	note_on channel=9 note=82 velocity=88 time=20
3541	note_on channel=9 note=27 velocity=101 time=0
3542	note_on channel=9 note=27 velocity=0 time=10
3543	note_on channel=9 note=82 velocity=0 time=0
3544	note_on channel=10 note=69 velocity=0 time=12
3545	
3546	note_on channel=10 note=69 velocity=90 time=0
3547	note_on channel=10 note=69 velocity=0 time=26
3548	
3549	note_on channel=10 note=69 velocity=90 time=0
3550	note_on channel=1 note=33 velocity=108 time=2
3551	note_on channel=9 note=38 velocity=88 time=0
3552	note_on channel=9 note=82 velocity=67 time=0
3553	note_on channel=9 note=37 velocity=127 time=0
3554	note_on channel=9 note=37 velocity=0 time=10
3555	note_on channel=9 note=82 velocity=0 time=0
3556	note_on channel=9 note=38 velocity=0 time=0
3557	note_on channel=10 note=69 velocity=0 time=46
3558	note_on channel=8 note=73 velocity=0 time=1
3559	note_on channel=8 note=69 velocity=0 time=1
3560	note_on channel=8 note=76 velocity=0 time=0
3561	
3562	note_on channel=1 note=33 velocity=0 time=0
3563	note_on channel=1 note=40 velocity=100 time=0
3564	note_on channel=8 note=68 velocity=55 time=0
3565	note_on channel=8 note=71 velocity=55 time=0
3566	note_on channel=8 note=76 velocity=55 time=0
3567	note_on channel=9 note=82 velocity=109 time=0
3568	note_on channel=10 note=68 velocity=90 time=0
3569	note_on channel=9 note=82 velocity=0 time=10
3570	note_on channel=9 note=38 velocity=87 time=20
3571	note_on channel=9 note=37 velocity=127 time=0
3572	note_on channel=9 note=37 velocity=0 time=10
3573	note_on channel=9 note=38 velocity=0 time=0
3574	note_on channel=10 note=68 velocity=0 time=18
3575	
3576	note_on channel=9 note=36 velocity=127 time=0
3577	note_on channel=9 note=35 velocity=127 time=0
3578	note_on channel=9 note=82 velocity=88 time=0
3579	note_on channel=10 note=68 velocity=90 time=0
3580	note_on channel=9 note=82 velocity=0 time=10
3581	note_on channel=9 note=35 velocity=0 time=0
3582	note_on channel=9 note=36 velocity=0 time=0
3583	note_on channel=10 note=68 velocity=0 time=46
3584	
3585	note_on channel=9 note=38 velocity=86 time=0
3586	note_on channel=9 note=82 velocity=90 time=0
3587	note_on channel=9 note=37 velocity=127 time=0
3588	note_on channel=10 note=68 velocity=90 time=0
3589	note_on channel=9 note=37 velocity=0 time=10
3590	note_on channel=9 note=82 velocity=0 time=0
3591	note_on channel=9 note=38 velocity=0 time=0
3592	note_on channel=9 note=36 velocity=127 time=20
3593	note_on channel=9 note=35 velocity=127 time=0
3594	note_on channel=9 note=35 velocity=0 time=10
3595	note_on channel=9 note=36 velocity=0 time=0
3596	note_on channel=10 note=68 velocity=0 time=12
3597	
3598	note_on channel=9 note=82 velocity=67 time=0
3599	note_on channel=10 note=68 velocity=90 time=0
3600	note_on channel=11 note=69 velocity=90 time=0
3601	note_on channel=11 note=61 velocity=90 time=0
3602	note_on channel=11 note=57 velocity=90 time=0
3603	note_on channel=9 note=82 velocity=0 time=10
3604	note_on channel=11 note=57 velocity=0 time=4
3605	note_on channel=11 note=61 velocity=0 time=0
3606	note_on channel=11 note=69 velocity=0 time=0
3607	note_on channel=9 note=36 velocity=127 time=16
3608	note_on channel=9 note=35 velocity=127 time=0
3609	note_on channel=11 note=69 velocity=90 time=0
3610	note_on channel=11 note=61 velocity=90 time=0
3611	note_on channel=11 note=57 velocity=90 time=0
3612	note_on channel=9 note=35 velocity=0 time=10
3613	note_on channel=9 note=36 velocity=0 time=0
3614	note_on channel=11 note=57 velocity=0 time=2
3615	note_on channel=11 note=69 velocity=0 time=4
3616	note_on channel=11 note=61 velocity=0 time=0
3617	note_on channel=10 note=68 velocity=0 time=6
3618	note_on channel=8 note=71 velocity=0 time=4
3619	note_on channel=8 note=68 velocity=0 time=1
3620	note_on channel=8 note=76 velocity=0 time=1
3621	note_on channel=1 note=40 velocity=0 time=2
3622	note_on channel=1 note=31 velocity=110 time=0
3623	note_on channel=8 note=69 velocity=59 time=0
3624	note_on channel=8 note=73 velocity=59 time=0
3625	note_on channel=8 note=76 velocity=59 time=0
3626	note_on channel=9 note=36 velocity=127 time=0
3627	note_on channel=9 note=35 velocity=127 time=0
3628	note_on channel=9 note=82 velocity=110 time=0
3629	note_on channel=9 note=82 velocity=0 time=10
3630	note_on channel=9 note=36 velocity=0 time=0
3631	note_on channel=9 note=35 velocity=0 time=0
3632	
3633	note_on channel=1 note=31 velocity=0 time=0
3634	note_on channel=1 note=33 velocity=108 time=0
3635	note_on channel=9 note=82 velocity=91 time=0
3636	note_on channel=9 note=27 velocity=103 time=0
3637	note_on channel=10 note=69 velocity=90 time=0
3638	note_on channel=9 note=27 velocity=0 time=10
3639	note_on channel=9 note=82 velocity=0 time=0
3640	note_on channel=1 note=33 velocity=0 time=10
3641	note_on channel=10 note=69 velocity=0 time=10
3642	note_on channel=9 note=36 velocity=127 time=0
3643	note_on channel=9 note=35 velocity=127 time=0
3644	
3645	note_on channel=10 note=69 velocity=90 time=0
3646	note_on channel=9 note=35 velocity=0 time=8
3647	note_on channel=9 note=36 velocity=0 time=0
3648	note_on channel=1 note=37 velocity=72 time=20
3649	note_on channel=9 note=82 velocity=91 time=0
3650	note_on channel=9 note=27 velocity=103 time=0
3651	note_on channel=9 note=27 velocity=0 time=10
3652	note_on channel=1 note=37 velocity=0 time=0
3653	note_on channel=9 note=82 velocity=0 time=0
3654	note_on channel=10 note=69 velocity=0 time=12
3655	
3656	note_on channel=10 note=69 velocity=90 time=0
3657	note_on channel=1 note=33 velocity=69 time=4
3658	note_on channel=1 note=33 velocity=0 time=10
3659	note_on channel=10 note=69 velocity=0 time=12
3660	
3661	note_on channel=10 note=69 velocity=90 time=0
3662	note_on channel=1 note=33 velocity=108 time=2
3663	note_on channel=9 note=38 velocity=87 time=0
3664	note_on channel=9 note=82 velocity=73 time=0
3665	note_on channel=9 note=37 velocity=127 time=0
3666	note_on channel=9 note=37 velocity=0 time=10
3667	note_on channel=9 note=82 velocity=0 time=0
3668	note_on channel=9 note=38 velocity=0 time=0
3669	note_on channel=10 note=69 velocity=0 time=46
3670	note_on channel=8 note=73 velocity=0 time=1
3671	note_on channel=8 note=76 velocity=0 time=1
3672	note_on channel=8 note=69 velocity=0 time=0
3673	
3674	note_on channel=1 note=33 velocity=0 time=0
3675	note_on channel=1 note=28 velocity=72 time=0
3676	note_on channel=8 note=68 velocity=56 time=0
3677	note_on channel=8 note=71 velocity=56 time=0
3678	note_on channel=8 note=76 velocity=56 time=0
3679	note_on channel=9 note=82 velocity=109 time=0
3680	note_on channel=10 note=68 velocity=90 time=0
3681	note_on channel=9 note=82 velocity=0 time=10
3682	note_on channel=1 note=28 velocity=0 time=10
3683	note_on channel=1 note=40 velocity=89 time=10
3684	note_on channel=9 note=38 velocity=86 time=0
3685	note_on channel=9 note=37 velocity=127 time=0
3686	note_on channel=9 note=37 velocity=0 time=10
3687	note_on channel=1 note=40 velocity=0 time=0
3688	note_on channel=9 note=38 velocity=0 time=0
3689	note_on channel=10 note=68 velocity=0 time=18
3690	
3691	note_on channel=1 note=38 velocity=72 time=0
3692	note_on channel=9 note=82 velocity=91 time=0
3693	note_on channel=10 note=68 velocity=90 time=0
3694	note_on channel=9 note=82 velocity=0 time=10
3695	note_on channel=1 note=38 velocity=0 time=0
3696	note_on channel=1 note=50 velocity=92 time=20
3697	note_on channel=10 note=68 velocity=0 time=26
3698	
3699	note_on channel=1 note=50 velocity=0 time=0
3700	note_on channel=1 note=40 velocity=88 time=0
3701	note_on channel=9 note=38 velocity=85 time=0
3702	note_on channel=9 note=82 velocity=89 time=0
3703	note_on channel=9 note=37 velocity=127 time=0
3704	note_on channel=10 note=68 velocity=90 time=0
3705	note_on channel=9 note=37 velocity=0 time=10
3706	note_on channel=1 note=40 velocity=0 time=0
3707	note_on channel=9 note=38 velocity=0 time=0
3708	note_on channel=9 note=82 velocity=0 time=0
3709	note_on channel=1 note=38 velocity=71 time=20
3710	note_on channel=9 note=36 velocity=127 time=0
3711	note_on channel=9 note=35 velocity=127 time=0
3712	note_on channel=9 note=35 velocity=0 time=10
3713	note_on channel=9 note=36 velocity=0 time=0
3714	note_on channel=1 note=38 velocity=0 time=10
3715	
3716	note_on channel=1 note=50 velocity=89 time=0
3717	note_on channel=9 note=82 velocity=68 time=0
3718	note_on channel=10 note=73 velocity=90 time=0
3719	note_on channel=9 note=82 velocity=0 time=10
3720	note_on channel=10 note=68 velocity=0 time=8
3721	note_on channel=1 note=50 velocity=0 time=2
3722	note_on channel=1 note=52 velocity=91 time=10
3723	note_on channel=1 note=52 velocity=0 time=10
3724	note_on channel=10 note=73 velocity=0 time=10
3725	note_on channel=8 note=71 velocity=0 time=6
3726	note_on channel=8 note=68 velocity=0 time=1
3727	note_on channel=8 note=76 velocity=0 time=1
3728	
3729	note_on channel=1 note=33 velocity=111 time=0
3730	note_on channel=8 note=69 velocity=61 time=0
3731	note_on channel=8 note=73 velocity=61 time=0
3732	note_on channel=8 note=76 velocity=61 time=0
3733	note_on channel=9 note=36 velocity=127 time=0
3734	note_on channel=9 note=35 velocity=127 time=0
3735	note_on channel=9 note=82 velocity=88 time=0
3736	note_on channel=10 note=76 velocity=90 time=0
3737	note_on channel=9 note=82 velocity=0 time=10
3738	note_on channel=9 note=35 velocity=0 time=0
3739	note_on channel=9 note=36 velocity=0 time=0
3740	note_on channel=1 note=33 velocity=0 time=50
3741	note_on channel=1 note=37 velocity=71 time=0
3742	note_on channel=9 note=82 velocity=70 time=0
3743	note_on channel=9 note=27 velocity=83 time=0
3744	note_on channel=9 note=27 velocity=0 time=10
3745	note_on channel=1 note=37 velocity=0 time=0
3746	note_on channel=9 note=82 velocity=0 time=0
3747	note_on channel=1 note=33 velocity=88 time=20
3748	note_on channel=1 note=33 velocity=0 time=10
3749	note_on channel=1 note=31 velocity=91 time=20
3750	note_on channel=9 note=82 velocity=68 time=0
3751	note_on channel=9 note=27 velocity=81 time=0
3752	note_on channel=9 note=27 velocity=0 time=10
3753	note_on channel=9 note=82 velocity=0 time=0
3754	note_on channel=1 note=31 velocity=0 time=10
3755	note_on channel=10 note=76 velocity=0 time=6
3756	
3757	note_on channel=10 note=74 velocity=90 time=0
3758	note_on channel=1 note=33 velocity=112 time=30
3759	note_on channel=9 note=38 velocity=68 time=0
3760	note_on channel=9 note=82 velocity=47 time=0
3761	note_on channel=9 note=37 velocity=127 time=0
3762	note_on channel=9 note=37 velocity=0 time=10
3763	note_on channel=9 note=82 velocity=0 time=0
3764	note_on channel=9 note=38 velocity=0 time=0
3765	
3766	note_on channel=10 note=74 velocity=0 time=0
3767	note_on channel=10 note=73 velocity=90 time=0
3768	note_on channel=8 note=73 velocity=0 time=26
3769	note_on channel=8 note=76 velocity=0 time=2
3770	note_on channel=10 note=73 velocity=0 time=0
3771	note_on channel=8 note=69 velocity=0 time=0
3772	
3773	note_on channel=1 note=33 velocity=0 time=0
3774	note_on channel=1 note=35 velocity=75 time=0
3775	note_on channel=8 note=66 velocity=56 time=0
3776	note_on channel=8 note=71 velocity=56 time=0
3777	note_on channel=8 note=74 velocity=56 time=0
3778	note_on channel=9 note=82 velocity=89 time=0
3779	note_on channel=10 note=74 velocity=90 time=0
3780	note_on channel=9 note=82 velocity=0 time=10
3781	note_on channel=1 note=35 velocity=0 time=0
3782	note_on channel=9 note=38 velocity=67 time=20
3783	note_on channel=9 note=37 velocity=127 time=0
3784	note_on channel=9 note=37 velocity=0 time=10
3785	note_on channel=9 note=38 velocity=0 time=0
3786	note_on channel=1 note=36 velocity=92 time=20
3787	note_on channel=9 note=82 velocity=68 time=0
3788	note_on channel=9 note=82 velocity=0 time=10
3789	note_on channel=1 note=36 velocity=0 time=10
3790	note_on channel=1 note=45 velocity=92 time=10
3791	note_on channel=9 note=38 velocity=66 time=30
3792	note_on channel=9 note=82 velocity=70 time=0
3793	note_on channel=9 note=37 velocity=127 time=0
3794	note_on channel=9 note=37 velocity=0 time=10
3795	note_on channel=9 note=82 velocity=0 time=0
3796	note_on channel=9 note=38 velocity=0 time=0
3797	note_on channel=1 note=45 velocity=0 time=10
3798	note_on channel=10 note=74 velocity=0 time=6
3799	
3800	note_on channel=1 note=42 velocity=92 time=0
3801	note_on channel=10 note=73 velocity=90 time=0
3802	note_on channel=1 note=42 velocity=0 time=30
3803	note_on channel=1 note=45 velocity=90 time=0
3804	note_on channel=9 note=82 velocity=47 time=0
3805	note_on channel=9 note=82 velocity=0 time=10
3806	note_on channel=10 note=73 velocity=0 time=12
3807	note_on channel=1 note=45 velocity=0 time=8
3808	note_on channel=1 note=47 velocity=92 time=0
3809	note_on channel=1 note=47 velocity=0 time=20
3810	note_on channel=8 note=66 velocity=0 time=6
3811	note_on channel=8 note=74 velocity=0 time=0
3812	note_on channel=8 note=71 velocity=0 time=1
3813	
3814	note_on channel=1 note=30 velocity=111 time=0
3815	note_on channel=8 note=66 velocity=59 time=0
3816	note_on channel=8 note=69 velocity=59 time=0
3817	note_on channel=8 note=73 velocity=59 time=0
3818	note_on channel=9 note=36 velocity=127 time=0
3819	note_on channel=9 note=35 velocity=127 time=0
3820	note_on channel=9 note=82 velocity=90 time=0
3821	note_on channel=10 note=73 velocity=90 time=0
3822	note_on channel=9 note=82 velocity=0 time=10
3823	note_on channel=1 note=30 velocity=0 time=0
3824	note_on channel=9 note=36 velocity=0 time=0
3825	note_on channel=9 note=35 velocity=0 time=0
3826	note_on channel=1 note=32 velocity=71 time=20
3827	note_on channel=1 note=32 velocity=0 time=10
3828	note_on channel=10 note=73 velocity=0 time=16
3829	note_on channel=1 note=40 velocity=89 time=4
3830	note_on channel=9 note=82 velocity=71 time=0
3831	note_on channel=9 note=27 velocity=83 time=0
3832	note_on channel=10 note=69 velocity=90 time=0
3833	note_on channel=9 note=27 velocity=0 time=10
3834	note_on channel=9 note=82 velocity=0 time=0
3835	note_on channel=1 note=40 velocity=0 time=20
3836	note_on channel=9 note=36 velocity=127 time=0
3837	note_on channel=9 note=35 velocity=127 time=0
3838	note_on channel=9 note=35 velocity=0 time=10
3839	note_on channel=9 note=36 velocity=0 time=0
3840	
3841	note_on channel=10 note=69 velocity=0 time=0
3842	note_on channel=1 note=38 velocity=89 time=0
3843	note_on channel=9 note=82 velocity=71 time=0
3844	note_on channel=9 note=27 velocity=83 time=0
3845	note_on channel=10 note=71 velocity=90 time=0
3846	note_on channel=9 note=27 velocity=0 time=10
3847	note_on channel=9 note=82 velocity=0 time=0
3848	note_on channel=1 note=38 velocity=0 time=10
3849	note_on channel=1 note=40 velocity=88 time=10
3850	note_on channel=10 note=71 velocity=0 time=28
3851	
3852	note_on channel=1 note=40 velocity=0 time=0
3853	note_on channel=1 note=30 velocity=91 time=0
3854	note_on channel=9 note=82 velocity=53 time=0
3855	note_on channel=9 note=37 velocity=127 time=0
3856	note_on channel=10 note=68 velocity=90 time=0
3857	note_on channel=9 note=37 velocity=0 time=10
3858	note_on channel=1 note=30 velocity=0 time=0
3859	note_on channel=9 note=82 velocity=0 time=0
3860	note_on channel=1 note=30 velocity=112 time=20
3861	note_on channel=8 note=73 velocity=0 time=26
3862	note_on channel=8 note=69 velocity=0 time=0
3863	note_on channel=8 note=66 velocity=0 time=2
3864	note_on channel=10 note=68 velocity=0 time=0
3865	
3866	note_on channel=1 note=30 velocity=0 time=0
3867	note_on channel=1 note=28 velocity=78 time=0
3868	note_on channel=8 note=68 velocity=56 time=0
3869	note_on channel=8 note=71 velocity=56 time=0
3870	note_on channel=8 note=76 velocity=56 time=0
3871	note_on channel=9 note=38 velocity=92 time=0
3872	note_on channel=9 note=82 velocity=89 time=0
3873	note_on channel=10 note=69 velocity=90 time=0
3874	note_on channel=9 note=82 velocity=0 time=10
3875	note_on channel=9 note=38 velocity=0 time=1
3876	note_on channel=9 note=38 velocity=93 time=4
3877	note_on channel=1 note=28 velocity=0 time=5
3878	note_on channel=9 note=38 velocity=0 time=8
3879	note_on channel=9 note=38 velocity=93 time=2
3880	note_on channel=9 note=37 velocity=127 time=0
3881	note_on channel=9 note=37 velocity=0 time=10
3882	note_on channel=9 note=38 velocity=0 time=0
3883	note_on channel=9 note=38 velocity=93 time=5
3884	note_on channel=9 note=38 velocity=0 time=9
3885	note_on channel=10 note=69 velocity=0 time=2
3886	note_on channel=1 note=32 velocity=71 time=4
3887	note_on channel=9 note=82 velocity=71 time=0
3888	note_on channel=10 note=68 velocity=90 time=0
3889	note_on channel=9 note=82 velocity=0 time=10
3890	note_on channel=1 note=32 velocity=0 time=0
3891	note_on channel=1 note=38 velocity=89 time=20
3892	note_on channel=9 note=38 velocity=67 time=0
3893	note_on channel=9 note=38 velocity=0 time=11
3894	note_on channel=10 note=68 velocity=0 time=17
3895	
3896	note_on channel=1 note=38 velocity=0 time=0
3897	note_on channel=1 note=40 velocity=92 time=0
3898	note_on channel=9 note=38 velocity=85 time=0
3899	note_on channel=9 note=82 velocity=69 time=0
3900	note_on channel=9 note=37 velocity=127 time=0
3901	note_on channel=10 note=66 velocity=90 time=0
3902	note_on channel=9 note=37 velocity=0 time=10
3903	note_on channel=1 note=40 velocity=0 time=0
3904	note_on channel=9 note=38 velocity=0 time=0
3905	note_on channel=9 note=82 velocity=0 time=0
3906	note_on channel=1 note=38 velocity=89 time=20
3907	note_on channel=9 note=36 velocity=127 time=0
3908	note_on channel=9 note=35 velocity=127 time=0
3909	note_on channel=9 note=35 velocity=0 time=10
3910	note_on channel=1 note=38 velocity=0 time=0
3911	note_on channel=9 note=36 velocity=0 time=0
3912	note_on channel=10 note=66 velocity=0 time=8
3913	note_on channel=1 note=35 velocity=91 time=12
3914	note_on channel=9 note=82 velocity=48 time=0
3915	note_on channel=9 note=82 velocity=0 time=10
3916	note_on channel=1 note=35 velocity=0 time=20
3917	note_on channel=1 note=33 velocity=69 time=0
3918	note_on channel=1 note=33 velocity=0 time=20
3919	note_on channel=8 note=76 velocity=0 time=8
3920	note_on channel=8 note=68 velocity=0 time=0
3921	note_on channel=8 note=71 velocity=0 time=0
3922	
3923	note_on channel=1 note=30 velocity=109 time=0
3924	note_on channel=8 note=66 velocity=60 time=0
3925	note_on channel=8 note=69 velocity=60 time=0
3926	note_on channel=8 note=73 velocity=60 time=0
3927	note_on channel=9 note=36 velocity=127 time=0
3928	note_on channel=9 note=35 velocity=127 time=0
3929	note_on channel=9 note=55 velocity=108 time=0
3930	note_on channel=10 note=69 velocity=90 time=0
3931	note_on channel=13 note=69 velocity=90 time=0
3932	note_on channel=9 note=55 velocity=0 time=10
3933	note_on channel=9 note=35 velocity=0 time=0
3934	note_on channel=9 note=36 velocity=0 time=0
3935	note_on channel=1 note=30 velocity=0 time=40
3936	note_on channel=13 note=69 velocity=0 time=64
3937	note_on channel=10 note=69 velocity=0 time=0
3938	
3939	note_on channel=10 note=68 velocity=90 time=0
3940	note_on channel=13 note=68 velocity=90 time=0
3941	note_on channel=1 note=31 velocity=91 time=30
3942	note_on channel=1 note=31 velocity=0 time=10
3943	
3944	note_on channel=10 note=68 velocity=0 time=0
3945	note_on channel=13 note=68 velocity=0 time=0
3946	note_on channel=1 note=28 velocity=111 time=0
3947	note_on channel=10 note=71 velocity=90 time=0
3948	note_on channel=13 note=71 velocity=90 time=0
3949	note_on channel=1 note=28 velocity=0 time=50
3950	note_on channel=8 note=73 velocity=0 time=7
3951	note_on channel=8 note=66 velocity=0 time=1
3952	note_on channel=8 note=69 velocity=0 time=0
3953	
3954	note_on channel=13 note=71 velocity=0 time=0
3955	note_on channel=10 note=71 velocity=0 time=0
3956	note_on channel=1 note=35 velocity=108 time=0
3957	note_on channel=8 note=66 velocity=54 time=0
3958	note_on channel=8 note=71 velocity=54 time=0
3959	note_on channel=8 note=74 velocity=54 time=0
3960	note_on channel=10 note=69 velocity=90 time=0
3961	note_on channel=13 note=69 velocity=90 time=0
3962	note_on channel=1 note=35 velocity=0 time=40
3963	
3964	note_on channel=10 note=69 velocity=0 time=0
3965	note_on channel=13 note=69 velocity=0 time=0
3966	note_on channel=10 note=68 velocity=90 time=0
3967	note_on channel=13 note=68 velocity=90 time=0
3968	note_on channel=13 note=68 velocity=0 time=50
3969	note_on channel=10 note=68 velocity=0 time=0
3970	
3971	note_on channel=10 note=66 velocity=90 time=0
3972	note_on channel=13 note=66 velocity=90 time=0
3973	
3974	note_on channel=1 note=37 velocity=92 time=0
3975	note_on channel=9 note=38 velocity=67 time=0
3976	note_on channel=10 note=62 velocity=90 time=0
3977	note_on channel=13 note=62 velocity=90 time=0
3978	note_on channel=13 note=66 velocity=0 time=2
3979	note_on channel=10 note=66 velocity=0 time=0
3980	note_on channel=9 note=38 velocity=0 time=8
3981	note_on channel=1 note=37 velocity=0 time=10
3982	note_on channel=9 note=38 velocity=67 time=10
3983	note_on channel=9 note=38 velocity=0 time=10
3984	note_on channel=8 note=74 velocity=0 time=16
3985	note_on channel=8 note=71 velocity=0 time=0
3986	note_on channel=8 note=66 velocity=0 time=0
3987	note_on channel=13 note=62 velocity=0 time=2
3988	note_on channel=10 note=62 velocity=0 time=0
3989	
3990	note_on channel=1 note=30 velocity=112 time=0
3991	note_on channel=8 note=66 velocity=59 time=0
3992	note_on channel=8 note=69 velocity=59 time=0
3993	note_on channel=8 note=73 velocity=59 time=0
3994	note_on channel=9 note=36 velocity=127 time=0
3995	note_on channel=9 note=35 velocity=127 time=0
3996	note_on channel=9 note=62 velocity=111 time=0
3997	note_on channel=9 note=55 velocity=110 time=0
3998	note_on channel=10 note=61 velocity=90 time=0
3999	note_on channel=12 note=66 velocity=90 time=0
4000	note_on channel=13 note=61 velocity=90 time=0
4001	note_on channel=9 note=55 velocity=0 time=10
4002	note_on channel=9 note=62 velocity=0 time=0
4003	note_on channel=9 note=35 velocity=0 time=0
4004	note_on channel=9 note=36 velocity=0 time=2
4005	note_on channel=9 note=63 velocity=60 time=18
4006	note_on channel=9 note=62 velocity=109 time=0
4007	note_on channel=9 note=62 velocity=0 time=10
4008	note_on channel=9 note=63 velocity=0 time=0
4009	note_on channel=1 note=30 velocity=0 time=10
4010	note_on channel=1 note=32 velocity=92 time=10
4011	note_on channel=9 note=82 velocity=109 time=0
4012	note_on channel=9 note=82 velocity=0 time=10
4013	note_on channel=1 note=32 velocity=0 time=50
4014	note_on channel=1 note=30 velocity=91 time=0
4015	note_on channel=9 note=38 velocity=85 time=0
4016	note_on channel=9 note=62 velocity=108 time=0
4017	note_on channel=9 note=37 velocity=127 time=0
4018	note_on channel=9 note=37 velocity=0 time=10
4019	note_on channel=9 note=62 velocity=0 time=0
4020	note_on channel=9 note=38 velocity=0 time=0
4021	note_on channel=1 note=30 velocity=0 time=20
4022	note_on channel=10 note=61 velocity=0 time=8
4023	note_on channel=13 note=61 velocity=0 time=0
4024	
4025	note_on channel=1 note=30 velocity=91 time=0
4026	note_on channel=9 note=82 velocity=111 time=0
4027	note_on channel=10 note=69 velocity=90 time=0
4028	note_on channel=13 note=69 velocity=90 time=0
4029	note_on channel=9 note=82 velocity=0 time=10
4030	note_on channel=1 note=30 velocity=0 time=20
4031	note_on channel=9 note=62 velocity=109 time=0
4032	note_on channel=9 note=62 velocity=0 time=10
4033	note_on channel=12 note=66 velocity=0 time=8
4034	note_on channel=13 note=69 velocity=0 time=6
4035	note_on channel=10 note=69 velocity=0 time=0
4036	note_on channel=8 note=73 velocity=0 time=2
4037	note_on channel=8 note=69 velocity=0 time=1
4038	note_on channel=8 note=66 velocity=0 time=1
4039	
4040	note_on channel=1 note=28 velocity=88 time=0
4041	note_on channel=8 note=68 velocity=54 time=0
4042	note_on channel=8 note=71 velocity=54 time=0
4043	note_on channel=8 note=76 velocity=54 time=0
4044	note_on channel=9 note=64 velocity=68 time=0
4045	note_on channel=10 note=68 velocity=90 time=0
4046	note_on channel=12 note=64 velocity=90 time=0
4047	note_on channel=13 note=68 velocity=90 time=0
4048	note_on channel=9 note=64 velocity=0 time=10
4049	note_on channel=1 note=28 velocity=0 time=20
4050	note_on channel=9 note=63 velocity=58 time=0
4051	note_on channel=9 note=62 velocity=108 time=0
4052	note_on channel=9 note=62 velocity=0 time=10
4053	note_on channel=9 note=63 velocity=0 time=0
4054	note_on channel=1 note=28 velocity=92 time=20
4055	note_on channel=9 note=82 velocity=110 time=0
4056	note_on channel=9 note=63 velocity=59 time=0
4057	note_on channel=9 note=63 velocity=0 time=10
4058	note_on channel=9 note=82 velocity=0 time=0
4059	note_on channel=1 note=28 velocity=0 time=20
4060	note_on channel=9 note=63 velocity=59 time=0
4061	note_on channel=9 note=63 velocity=0 time=10
4062	note_on channel=1 note=28 velocity=89 time=20
4063	note_on channel=9 note=38 velocity=86 time=0
4064	note_on channel=9 note=64 velocity=67 time=0
4065	note_on channel=9 note=37 velocity=127 time=0
4066	note_on channel=9 note=37 velocity=0 time=10
4067	note_on channel=9 note=64 velocity=0 time=0
4068	note_on channel=9 note=38 velocity=0 time=0
4069	note_on channel=9 note=62 velocity=109 time=20
4070	note_on channel=9 note=62 velocity=0 time=10
4071	note_on channel=1 note=28 velocity=0 time=10
4072	note_on channel=12 note=64 velocity=0 time=8
4073	note_on channel=1 note=28 velocity=89 time=2
4074	note_on channel=9 note=36 velocity=127 time=0
4075	note_on channel=9 note=82 velocity=111 time=0
4076	note_on channel=9 note=62 velocity=108 time=0
4077	note_on channel=12 note=66 velocity=90 time=0
4078	note_on channel=13 note=68 velocity=0 time=4
4079	note_on channel=10 note=68 velocity=0 time=0
4080	note_on channel=9 note=62 velocity=0 time=6
4081	note_on channel=9 note=82 velocity=0 time=0
4082	note_on channel=9 note=36 velocity=0 time=2
4083	note_on channel=9 note=35 velocity=127 time=18
4084	note_on channel=9 note=62 velocity=110 time=0
4085	note_on channel=9 note=62 velocity=0 time=10
4086	note_on channel=9 note=35 velocity=0 time=4
4087	note_on channel=8 note=68 velocity=0 time=12
4088	note_on channel=8 note=71 velocity=0 time=1
4089	note_on channel=8 note=76 velocity=0 time=1
4090	
4091	note_on channel=1 note=28 velocity=0 time=0
4092	note_on channel=1 note=30 velocity=108 time=0
4093	note_on channel=8 note=66 velocity=59 time=0
4094	note_on channel=8 note=69 velocity=59 time=0
4095	note_on channel=8 note=73 velocity=59 time=0
4096	note_on channel=9 note=36 velocity=127 time=0
4097	note_on channel=9 note=35 velocity=127 time=0
4098	note_on channel=9 note=62 velocity=111 time=0
4099	note_on channel=10 note=69 velocity=90 time=0
4100	note_on channel=12 note=61 velocity=90 time=0
4101	note_on channel=13 note=69 velocity=90 time=0
4102	note_on channel=12 note=66 velocity=0 time=2
4103	note_on channel=9 note=62 velocity=0 time=8
4104	note_on channel=9 note=35 velocity=0 time=0
4105	note_on channel=9 note=36 velocity=0 time=2
4106	note_on channel=1 note=30 velocity=0 time=18
4107	note_on channel=9 note=63 velocity=60 time=0
4108	note_on channel=9 note=62 velocity=109 time=0
4109	note_on channel=9 note=62 velocity=0 time=10
4110	note_on channel=9 note=63 velocity=0 time=0
4111	note_on channel=1 note=30 velocity=88 time=20
4112	note_on channel=9 note=82 velocity=109 time=0
4113	note_on channel=9 note=82 velocity=0 time=10
4114	note_on channel=1 note=30 velocity=0 time=20
4115	note_on channel=10 note=69 velocity=0 time=24
4116	note_on channel=13 note=69 velocity=0 time=0
4117	
4118	note_on channel=1 note=30 velocity=89 time=0
4119	note_on channel=9 note=38 velocity=85 time=0
4120	note_on channel=9 note=62 velocity=108 time=0
4121	note_on channel=9 note=37 velocity=127 time=0
4122	note_on channel=10 note=68 velocity=90 time=0
4123	note_on channel=13 note=68 velocity=90 time=0
4124	note_on channel=9 note=37 velocity=0 time=10
4125	note_on channel=9 note=62 velocity=0 time=0
4126	note_on channel=9 note=38 velocity=0 time=0
4127	note_on channel=1 note=30 velocity=0 time=40
4128	
4129	note_on channel=10 note=68 velocity=0 time=0
4130	note_on channel=13 note=68 velocity=0 time=0
4131	note_on channel=1 note=30 velocity=91 time=0
4132	note_on channel=9 note=82 velocity=111 time=0
4133	note_on channel=10 note=71 velocity=90 time=0
4134	note_on channel=13 note=71 velocity=90 time=0
4135	note_on channel=9 note=82 velocity=0 time=10
4136	note_on channel=9 note=62 velocity=109 time=20
4137	note_on channel=9 note=62 velocity=0 time=10
4138	note_on channel=8 note=66 velocity=0 time=16
4139	note_on channel=8 note=69 velocity=0 time=0
4140	note_on channel=8 note=73 velocity=0 time=1
4141	
4142	note_on channel=1 note=30 velocity=0 time=0
4143	note_on channel=13 note=71 velocity=0 time=0
4144	note_on channel=10 note=71 velocity=0 time=0
4145	note_on channel=1 note=35 velocity=88 time=0
4146	note_on channel=8 note=66 velocity=56 time=0
4147	note_on channel=8 note=71 velocity=56 time=0
4148	note_on channel=8 note=74 velocity=56 time=0
4149	note_on channel=9 note=64 velocity=68 time=0
4150	note_on channel=10 note=69 velocity=90 time=0
4151	note_on channel=13 note=69 velocity=90 time=0
4152	note_on channel=12 note=61 velocity=0 time=6
4153	note_on channel=9 note=64 velocity=0 time=4
4154	note_on channel=9 note=63 velocity=58 time=20
4155	note_on channel=9 note=62 velocity=108 time=0
4156	note_on channel=9 note=62 velocity=0 time=10
4157	note_on channel=9 note=63 velocity=0 time=0
4158	note_on channel=1 note=35 velocity=0 time=10
4159	note_on channel=13 note=69 velocity=0 time=10
4160	note_on channel=10 note=69 velocity=0 time=0
4161	note_on channel=1 note=35 velocity=91 time=0
4162	note_on channel=9 note=82 velocity=110 time=0
4163	note_on channel=9 note=63 velocity=59 time=0
4164	note_on channel=10 note=68 velocity=90 time=0
4165	note_on channel=13 note=68 velocity=90 time=0
4166	note_on channel=9 note=63 velocity=0 time=10
4167	note_on channel=9 note=82 velocity=0 time=0
4168	note_on channel=9 note=63 velocity=59 time=20
4169	note_on channel=9 note=63 velocity=0 time=10
4170	note_on channel=10 note=68 velocity=0 time=10
4171	note_on channel=13 note=68 velocity=0 time=0
4172	
4173	note_on channel=1 note=35 velocity=0 time=0
4174	note_on channel=1 note=35 velocity=91 time=0
4175	note_on channel=9 note=38 velocity=86 time=0
4176	note_on channel=9 note=64 velocity=67 time=0
4177	note_on channel=9 note=37 velocity=127 time=0
4178	note_on channel=10 note=66 velocity=90 time=0
4179	note_on channel=13 note=66 velocity=90 time=0
4180	note_on channel=9 note=37 velocity=0 time=10
4181	note_on channel=9 note=64 velocity=0 time=0
4182	note_on channel=9 note=38 velocity=0 time=0
4183	note_on channel=9 note=62 velocity=109 time=20
4184	note_on channel=9 note=62 velocity=0 time=10
4185	note_on channel=1 note=35 velocity=0 time=10
4186	note_on channel=1 note=35 velocity=88 time=10
4187	note_on channel=9 note=36 velocity=127 time=0
4188	note_on channel=9 note=82 velocity=111 time=0
4189	note_on channel=9 note=62 velocity=108 time=0
4190	note_on channel=10 note=62 velocity=90 time=0
4191	note_on channel=13 note=62 velocity=90 time=0
4192	note_on channel=13 note=66 velocity=0 time=2
4193	note_on channel=10 note=66 velocity=0 time=0
4194	note_on channel=9 note=62 velocity=0 time=8
4195	note_on channel=9 note=82 velocity=0 time=0
4196	note_on channel=9 note=36 velocity=0 time=2
4197	note_on channel=9 note=35 velocity=127 time=18
4198	note_on channel=9 note=62 velocity=110 time=0
4199	note_on channel=9 note=62 velocity=0 time=10
4200	note_on channel=9 note=35 velocity=0 time=4
4201	note_on channel=8 note=71 velocity=0 time=12
4202	note_on channel=8 note=66 velocity=0 time=1
4203	note_on channel=8 note=74 velocity=0 time=0
4204	note_on channel=13 note=62 velocity=0 time=1
4205	note_on channel=10 note=62 velocity=0 time=0
4206	
4207	note_on channel=1 note=35 velocity=0 time=0
4208	note_on channel=1 note=30 velocity=108 time=0
4209	note_on channel=8 note=66 velocity=61 time=0
4210	note_on channel=8 note=69 velocity=61 time=0
4211	note_on channel=8 note=73 velocity=61 time=0
4212	note_on channel=9 note=36 velocity=127 time=0
4213	note_on channel=9 note=35 velocity=127 time=0
4214	note_on channel=9 note=62 velocity=111 time=0
4215	note_on channel=10 note=61 velocity=90 time=0
4216	note_on channel=12 note=66 velocity=90 time=0
4217	note_on channel=13 note=61 velocity=90 time=0
4218	note_on channel=9 note=62 velocity=0 time=10
4219	note_on channel=9 note=35 velocity=0 time=0
4220	note_on channel=9 note=36 velocity=0 time=2
4221	note_on channel=9 note=63 velocity=60 time=18
4222	note_on channel=9 note=62 velocity=109 time=0
4223	note_on channel=9 note=62 velocity=0 time=10
4224	note_on channel=9 note=63 velocity=0 time=0
4225	note_on channel=1 note=30 velocity=0 time=10
4226	note_on channel=1 note=30 velocity=92 time=10
4227	note_on channel=9 note=82 velocity=109 time=0
4228	note_on channel=9 note=82 velocity=0 time=10
4229	note_on channel=1 note=30 velocity=0 time=50
4230	note_on channel=1 note=28 velocity=92 time=0
4231	note_on channel=9 note=38 velocity=85 time=0
4232	note_on channel=9 note=62 velocity=108 time=0
4233	note_on channel=9 note=37 velocity=127 time=0
4234	note_on channel=9 note=37 velocity=0 time=10
4235	note_on channel=9 note=62 velocity=0 time=0
4236	note_on channel=9 note=38 velocity=0 time=0
4237	note_on channel=1 note=28 velocity=0 time=20
4238	note_on channel=10 note=61 velocity=0 time=8
4239	note_on channel=13 note=61 velocity=0 time=0
4240	
4241	note_on channel=1 note=30 velocity=88 time=0
4242	note_on channel=9 note=82 velocity=111 time=0
4243	note_on channel=10 note=74 velocity=90 time=0
4244	note_on channel=13 note=74 velocity=90 time=0
4245	note_on channel=9 note=82 velocity=0 time=10
4246	note_on channel=1 note=30 velocity=0 time=20
4247	note_on channel=9 note=62 velocity=109 time=0
4248	note_on channel=9 note=62 velocity=0 time=10
4249	note_on channel=12 note=66 velocity=0 time=8
4250	note_on channel=13 note=74 velocity=0 time=6
4251	note_on channel=10 note=74 velocity=0 time=0
4252	note_on channel=8 note=73 velocity=0 time=2
4253	note_on channel=8 note=69 velocity=0 time=1
4254	note_on channel=8 note=66 velocity=0 time=1
4255	
4256	note_on channel=1 note=30 velocity=88 time=0
4257	note_on channel=8 note=66 velocity=54 time=0
4258	note_on channel=8 note=69 velocity=54 time=0
4259	note_on channel=8 note=73 velocity=54 time=0
4260	note_on channel=9 note=64 velocity=68 time=0
4261	note_on channel=10 note=73 velocity=90 time=0
4262	note_on channel=12 note=64 velocity=90 time=0
4263	note_on channel=13 note=73 velocity=90 time=0
4264	note_on channel=9 note=64 velocity=0 time=10
4265	note_on channel=1 note=30 velocity=0 time=20
4266	note_on channel=9 note=63 velocity=58 time=0
4267	note_on channel=9 note=62 velocity=108 time=0
4268	note_on channel=9 note=62 velocity=0 time=10
4269	note_on channel=9 note=63 velocity=0 time=0
4270	note_on channel=1 note=28 velocity=91 time=20
4271	note_on channel=9 note=82 velocity=110 time=0
4272	note_on channel=9 note=63 velocity=59 time=0
4273	note_on channel=9 note=63 velocity=0 time=10
4274	note_on channel=9 note=82 velocity=0 time=0
4275	note_on channel=1 note=28 velocity=0 time=20
4276	note_on channel=9 note=63 velocity=59 time=0
4277	note_on channel=9 note=63 velocity=0 time=10
4278	note_on channel=1 note=30 velocity=91 time=20
4279	note_on channel=9 note=38 velocity=86 time=0
4280	note_on channel=9 note=64 velocity=67 time=0
4281	note_on channel=9 note=37 velocity=127 time=0
4282	note_on channel=9 note=37 velocity=0 time=10
4283	note_on channel=9 note=64 velocity=0 time=0
4284	note_on channel=9 note=38 velocity=0 time=0
4285	note_on channel=9 note=62 velocity=109 time=20
4286	note_on channel=9 note=62 velocity=0 time=10
4287	note_on channel=1 note=30 velocity=0 time=10
4288	note_on channel=12 note=64 velocity=0 time=8
4289	note_on channel=1 note=32 velocity=91 time=2
4290	note_on channel=9 note=36 velocity=127 time=0
4291	note_on channel=9 note=82 velocity=111 time=0
4292	note_on channel=9 note=62 velocity=108 time=0
4293	note_on channel=12 note=66 velocity=90 time=0
4294	note_on channel=13 note=73 velocity=0 time=4
4295	note_on channel=10 note=73 velocity=0 time=0
4296	note_on channel=9 note=62 velocity=0 time=6
4297	note_on channel=9 note=82 velocity=0 time=0
4298	note_on channel=9 note=36 velocity=0 time=2
4299	note_on channel=9 note=35 velocity=127 time=18
4300	note_on channel=9 note=62 velocity=110 time=0
4301	note_on channel=9 note=62 velocity=0 time=10
4302	note_on channel=9 note=35 velocity=0 time=4
4303	note_on channel=8 note=66 velocity=0 time=12
4304	note_on channel=8 note=69 velocity=0 time=2
4305	note_on channel=8 note=73 velocity=0 time=0
4306	
4307	note_on channel=1 note=32 velocity=0 time=0
4308	note_on channel=1 note=30 velocity=111 time=0
4309	note_on channel=8 note=66 velocity=60 time=0
4310	note_on channel=8 note=69 velocity=60 time=0
4311	note_on channel=8 note=73 velocity=60 time=0
4312	note_on channel=9 note=36 velocity=127 time=0
4313	note_on channel=9 note=35 velocity=127 time=0
4314	note_on channel=9 note=62 velocity=111 time=0
4315	note_on channel=10 note=69 velocity=90 time=0
4316	note_on channel=12 note=61 velocity=90 time=0
4317	note_on channel=13 note=69 velocity=90 time=0
4318	note_on channel=12 note=66 velocity=0 time=2
4319	note_on channel=9 note=62 velocity=0 time=8
4320	note_on channel=9 note=35 velocity=0 time=0
4321	note_on channel=9 note=36 velocity=0 time=2
4322	note_on channel=1 note=30 velocity=0 time=18
4323	note_on channel=9 note=63 velocity=60 time=0
4324	note_on channel=9 note=62 velocity=109 time=0
4325	note_on channel=9 note=62 velocity=0 time=10
4326	note_on channel=9 note=63 velocity=0 time=0
4327	note_on channel=1 note=28 velocity=91 time=20
4328	note_on channel=9 note=82 velocity=109 time=0
4329	note_on channel=9 note=82 velocity=0 time=10
4330	note_on channel=1 note=28 velocity=0 time=20
4331	note_on channel=10 note=69 velocity=0 time=24
4332	note_on channel=13 note=69 velocity=0 time=0
4333	
4334	note_on channel=1 note=30 velocity=91 time=0
4335	note_on channel=9 note=38 velocity=85 time=0
4336	note_on channel=9 note=62 velocity=108 time=0
4337	note_on channel=9 note=37 velocity=127 time=0
4338	note_on channel=10 note=68 velocity=90 time=0
4339	note_on channel=13 note=68 velocity=90 time=0
4340	note_on channel=9 note=37 velocity=0 time=10
4341	note_on channel=9 note=62 velocity=0 time=0
4342	note_on channel=9 note=38 velocity=0 time=0
4343	note_on channel=1 note=30 velocity=0 time=40
4344	
4345	note_on channel=10 note=68 velocity=0 time=0
4346	note_on channel=13 note=68 velocity=0 time=0
4347	note_on channel=1 note=30 velocity=90 time=0
4348	note_on channel=9 note=82 velocity=111 time=0
4349	note_on channel=10 note=71 velocity=90 time=0
4350	note_on channel=13 note=71 velocity=90 time=0
4351	note_on channel=9 note=82 velocity=0 time=10
4352	note_on channel=9 note=62 velocity=109 time=20
4353	note_on channel=9 note=62 velocity=0 time=10
4354	note_on channel=8 note=73 velocity=0 time=16
4355	note_on channel=8 note=69 velocity=0 time=2
4356	note_on channel=8 note=66 velocity=0 time=0
4357	
4358	note_on channel=1 note=30 velocity=0 time=0
4359	note_on channel=13 note=71 velocity=0 time=0
4360	note_on channel=10 note=71 velocity=0 time=0
4361	note_on channel=1 note=35 velocity=90 time=0
4362	note_on channel=8 note=66 velocity=54 time=0
4363	note_on channel=8 note=71 velocity=54 time=0
4364	note_on channel=8 note=74 velocity=54 time=0
4365	note_on channel=9 note=64 velocity=68 time=0
4366	note_on channel=10 note=69 velocity=90 time=0
4367	note_on channel=13 note=69 velocity=90 time=0
4368	note_on channel=12 note=61 velocity=0 time=6
4369	note_on channel=9 note=64 velocity=0 time=4
4370	note_on channel=1 note=35 velocity=0 time=20
4371	note_on channel=9 note=63 velocity=58 time=0
4372	note_on channel=9 note=62 velocity=108 time=0
4373	note_on channel=9 note=62 velocity=0 time=10
4374	note_on channel=9 note=63 velocity=0 time=0
4375	
4376	note_on channel=10 note=69 velocity=0 time=0
4377	note_on channel=13 note=69 velocity=0 time=0
4378	note_on channel=1 note=35 velocity=88 time=0
4379	note_on channel=9 note=82 velocity=110 time=0
4380	note_on channel=9 note=63 velocity=59 time=0
4381	note_on channel=10 note=68 velocity=90 time=0
4382	note_on channel=13 note=68 velocity=90 time=0
4383	note_on channel=9 note=63 velocity=0 time=10
4384	note_on channel=9 note=82 velocity=0 time=0
4385	note_on channel=1 note=35 velocity=0 time=20
4386	note_on channel=9 note=63 velocity=59 time=0
4387	note_on channel=9 note=63 velocity=0 time=10
4388	note_on channel=10 note=68 velocity=0 time=10
4389	note_on channel=13 note=68 velocity=0 time=0
4390	
4391	note_on channel=1 note=33 velocity=88 time=0
4392	note_on channel=9 note=38 velocity=86 time=0
4393	note_on channel=9 note=64 velocity=67 time=0
4394	note_on channel=9 note=37 velocity=127 time=0
4395	note_on channel=10 note=66 velocity=90 time=0
4396	note_on channel=13 note=66 velocity=90 time=0
4397	note_on channel=9 note=37 velocity=0 time=10
4398	note_on channel=9 note=64 velocity=0 time=0
4399	note_on channel=9 note=38 velocity=0 time=0
4400	note_on channel=9 note=62 velocity=109 time=20
4401	note_on channel=9 note=62 velocity=0 time=10
4402	note_on channel=1 note=33 velocity=0 time=10
4403	
4404	note_on channel=1 note=31 velocity=91 time=0
4405	note_on channel=9 note=36 velocity=127 time=0
4406	note_on channel=9 note=82 velocity=111 time=0
4407	note_on channel=9 note=62 velocity=108 time=0
4408	note_on channel=10 note=62 velocity=90 time=0
4409	note_on channel=13 note=62 velocity=90 time=0
4410	note_on channel=13 note=66 velocity=0 time=2
4411	note_on channel=10 note=66 velocity=0 time=0
4412	note_on channel=9 note=62 velocity=0 time=8
4413	note_on channel=9 note=82 velocity=0 time=0
4414	note_on channel=9 note=36 velocity=0 time=2
4415	note_on channel=9 note=35 velocity=127 time=18
4416	note_on channel=9 note=62 velocity=110 time=0
4417	note_on channel=9 note=62 velocity=0 time=10
4418	note_on channel=9 note=35 velocity=0 time=4
4419	note_on channel=8 note=74 velocity=0 time=12
4420	note_on channel=8 note=71 velocity=0 time=1
4421	note_on channel=13 note=62 velocity=0 time=1
4422	note_on channel=10 note=62 velocity=0 time=0
4423	note_on channel=8 note=66 velocity=0 time=0
4424	
4425	note_on channel=1 note=31 velocity=0 time=0
4426	note_on channel=1 note=30 velocity=110 time=0
4427	note_on channel=8 note=66 velocity=59 time=0
4428	note_on channel=8 note=69 velocity=59 time=0
4429	note_on channel=8 note=73 velocity=59 time=0
4430	note_on channel=9 note=36 velocity=127 time=0
4431	note_on channel=9 note=35 velocity=127 time=0
4432	note_on channel=9 note=62 velocity=111 time=0
4433	note_on channel=10 note=61 velocity=90 time=0
4434	note_on channel=12 note=66 velocity=90 time=0
4435	note_on channel=13 note=61 velocity=90 time=0
4436	note_on channel=9 note=62 velocity=0 time=10
4437	note_on channel=9 note=35 velocity=0 time=0
4438	note_on channel=9 note=36 velocity=0 time=2
4439	note_on channel=9 note=63 velocity=60 time=18
4440	note_on channel=9 note=62 velocity=109 time=0
4441	note_on channel=9 note=62 velocity=0 time=10
4442	note_on channel=9 note=63 velocity=0 time=0
4443	note_on channel=1 note=30 velocity=0 time=10
4444	note_on channel=1 note=32 velocity=91 time=10
4445	note_on channel=9 note=82 velocity=109 time=0
4446	note_on channel=9 note=82 velocity=0 time=10
4447	note_on channel=1 note=32 velocity=0 time=50
4448	note_on channel=1 note=30 velocity=88 time=0
4449	note_on channel=9 note=38 velocity=85 time=0
4450	note_on channel=9 note=62 velocity=108 time=0
4451	note_on channel=9 note=37 velocity=127 time=0
4452	note_on channel=9 note=37 velocity=0 time=10
4453	note_on channel=9 note=62 velocity=0 time=0
4454	note_on channel=9 note=38 velocity=0 time=0
4455	note_on channel=13 note=61 velocity=0 time=28
4456	note_on channel=10 note=61 velocity=0 time=0
4457	note_on channel=1 note=30 velocity=0 time=12
4458	
4459	note_on channel=1 note=30 velocity=88 time=0
4460	note_on channel=9 note=82 velocity=111 time=0
4461	note_on channel=10 note=69 velocity=90 time=0
4462	note_on channel=13 note=69 velocity=90 time=0
4463	note_on channel=9 note=82 velocity=0 time=10
4464	note_on channel=9 note=62 velocity=109 time=20
4465	note_on channel=9 note=62 velocity=0 time=10
4466	note_on channel=12 note=66 velocity=0 time=8
4467	note_on channel=1 note=30 velocity=0 time=2
4468	note_on channel=13 note=69 velocity=0 time=4
4469	note_on channel=10 note=69 velocity=0 time=0
4470	note_on channel=8 note=73 velocity=0 time=3
4471	note_on channel=8 note=69 velocity=0 time=1
4472	note_on channel=8 note=66 velocity=0 time=0
4473	
4474	note_on channel=1 note=28 velocity=92 time=0
4475	note_on channel=8 note=68 velocity=54 time=0
4476	note_on channel=8 note=71 velocity=54 time=0
4477	note_on channel=8 note=76 velocity=54 time=0
4478	note_on channel=9 note=64 velocity=68 time=0
4479	note_on channel=10 note=68 velocity=90 time=0
4480	note_on channel=12 note=64 velocity=90 time=0
4481	note_on channel=13 note=68 velocity=90 time=0
4482	note_on channel=9 note=64 velocity=0 time=10
4483	note_on channel=9 note=63 velocity=58 time=20
4484	note_on channel=9 note=62 velocity=108 time=0
4485	note_on channel=9 note=62 velocity=0 time=10
4486	note_on channel=9 note=63 velocity=0 time=0
4487	note_on channel=1 note=28 velocity=0 time=10
4488	note_on channel=1 note=30 velocity=89 time=10
4489	note_on channel=9 note=82 velocity=110 time=0
4490	note_on channel=9 note=63 velocity=59 time=0
4491	note_on channel=9 note=63 velocity=0 time=10
4492	note_on channel=9 note=82 velocity=0 time=0
4493	note_on channel=9 note=63 velocity=59 time=20
4494	note_on channel=9 note=63 velocity=0 time=10
4495	note_on channel=1 note=30 velocity=0 time=20
4496	note_on channel=1 note=28 velocity=91 time=0
4497	note_on channel=9 note=38 velocity=86 time=0
4498	note_on channel=9 note=64 velocity=67 time=0
4499	note_on channel=9 note=37 velocity=127 time=0
4500	note_on channel=9 note=37 velocity=0 time=10
4501	note_on channel=9 note=64 velocity=0 time=0
4502	note_on channel=9 note=38 velocity=0 time=0
4503	note_on channel=9 note=62 velocity=109 time=20
4504	note_on channel=9 note=62 velocity=0 time=10
4505	note_on channel=1 note=28 velocity=0 time=10
4506	note_on channel=12 note=64 velocity=0 time=8
4507	note_on channel=1 note=28 velocity=92 time=2
4508	note_on channel=9 note=36 velocity=127 time=0
4509	note_on channel=9 note=82 velocity=111 time=0
4510	note_on channel=9 note=62 velocity=108 time=0
4511	note_on channel=12 note=66 velocity=90 time=0
4512	note_on channel=13 note=68 velocity=0 time=4
4513	note_on channel=10 note=68 velocity=0 time=0
4514	note_on channel=9 note=62 velocity=0 time=6
4515	note_on channel=9 note=82 velocity=0 time=0
4516	note_on channel=9 note=36 velocity=0 time=2
4517	note_on channel=9 note=35 velocity=127 time=18
4518	note_on channel=9 note=62 velocity=110 time=0
4519	note_on channel=9 note=62 velocity=0 time=10
4520	note_on channel=9 note=35 velocity=0 time=4
4521	note_on channel=8 note=76 velocity=0 time=12
4522	note_on channel=8 note=68 velocity=0 time=1
4523	note_on channel=8 note=71 velocity=0 time=1
4524	
4525	note_on channel=1 note=28 velocity=0 time=0
4526	note_on channel=1 note=30 velocity=108 time=0
4527	note_on channel=8 note=66 velocity=59 time=0
4528	note_on channel=8 note=69 velocity=59 time=0
4529	note_on channel=8 note=73 velocity=59 time=0
4530	note_on channel=9 note=36 velocity=127 time=0
4531	note_on channel=9 note=35 velocity=127 time=0
4532	note_on channel=9 note=62 velocity=111 time=0
4533	note_on channel=10 note=69 velocity=90 time=0
4534	note_on channel=12 note=61 velocity=90 time=0
4535	note_on channel=13 note=69 velocity=90 time=0
4536	note_on channel=12 note=66 velocity=0 time=2
4537	note_on channel=9 note=62 velocity=0 time=8
4538	note_on channel=9 note=35 velocity=0 time=0
4539	note_on channel=9 note=36 velocity=0 time=2
4540	note_on channel=1 note=30 velocity=0 time=18
4541	note_on channel=9 note=63 velocity=60 time=0
4542	note_on channel=9 note=62 velocity=109 time=0
4543	note_on channel=9 note=62 velocity=0 time=10
4544	note_on channel=9 note=63 velocity=0 time=0
4545	note_on channel=1 note=30 velocity=88 time=20
4546	note_on channel=9 note=82 velocity=109 time=0
4547	note_on channel=9 note=82 velocity=0 time=10
4548	note_on channel=1 note=30 velocity=0 time=20
4549	note_on channel=10 note=69 velocity=0 time=24
4550	note_on channel=13 note=69 velocity=0 time=0
4551	
4552	note_on channel=1 note=30 velocity=89 time=0
4553	note_on channel=9 note=38 velocity=85 time=0
4554	note_on channel=9 note=62 velocity=108 time=0
4555	note_on channel=9 note=37 velocity=127 time=0
4556	note_on channel=10 note=68 velocity=90 time=0
4557	note_on channel=13 note=68 velocity=90 time=0
4558	note_on channel=9 note=37 velocity=0 time=10
4559	note_on channel=9 note=62 velocity=0 time=0
4560	note_on channel=9 note=38 velocity=0 time=0
4561	note_on channel=1 note=30 velocity=0 time=40
4562	
4563	note_on channel=10 note=68 velocity=0 time=0
4564	note_on channel=13 note=68 velocity=0 time=0
4565	note_on channel=1 note=30 velocity=91 time=0
4566	note_on channel=9 note=82 velocity=111 time=0
4567	note_on channel=10 note=71 velocity=90 time=0
4568	note_on channel=13 note=71 velocity=90 time=0
4569	note_on channel=9 note=82 velocity=0 time=10
4570	note_on channel=9 note=62 velocity=109 time=20
4571	note_on channel=9 note=62 velocity=0 time=10
4572	note_on channel=8 note=66 velocity=0 time=16
4573	note_on channel=8 note=69 velocity=0 time=0
4574	note_on channel=8 note=73 velocity=0 time=1
4575	
4576	note_on channel=1 note=30 velocity=0 time=0
4577	note_on channel=13 note=71 velocity=0 time=0
4578	note_on channel=10 note=71 velocity=0 time=0
4579	note_on channel=1 note=35 velocity=88 time=0
4580	note_on channel=8 note=66 velocity=56 time=0
4581	note_on channel=8 note=71 velocity=56 time=0
4582	note_on channel=8 note=74 velocity=56 time=0
4583	note_on channel=9 note=64 velocity=68 time=0
4584	note_on channel=10 note=69 velocity=90 time=0
4585	note_on channel=13 note=69 velocity=90 time=0
4586	note_on channel=12 note=61 velocity=0 time=6
4587	note_on channel=9 note=64 velocity=0 time=4
4588	note_on channel=9 note=63 velocity=58 time=20
4589	note_on channel=9 note=62 velocity=108 time=0
4590	note_on channel=9 note=62 velocity=0 time=10
4591	note_on channel=9 note=63 velocity=0 time=0
4592	note_on channel=1 note=35 velocity=0 time=10
4593	note_on channel=13 note=69 velocity=0 time=10
4594	note_on channel=10 note=69 velocity=0 time=0
4595	note_on channel=1 note=35 velocity=91 time=0
4596	note_on channel=9 note=82 velocity=110 time=0
4597	note_on channel=9 note=63 velocity=59 time=0
4598	note_on channel=10 note=68 velocity=90 time=0
4599	note_on channel=13 note=68 velocity=90 time=0
4600	note_on channel=9 note=63 velocity=0 time=10
4601	note_on channel=9 note=82 velocity=0 time=0
4602	note_on channel=9 note=63 velocity=59 time=20
4603	note_on channel=9 note=63 velocity=0 time=10
4604	note_on channel=10 note=68 velocity=0 time=10
4605	note_on channel=13 note=68 velocity=0 time=0
4606	
4607	note_on channel=1 note=35 velocity=0 time=0
4608	note_on channel=1 note=35 velocity=91 time=0
4609	note_on channel=9 note=38 velocity=86 time=0
4610	note_on channel=9 note=64 velocity=67 time=0
4611	note_on channel=9 note=37 velocity=127 time=0
4612	note_on channel=10 note=66 velocity=90 time=0
4613	note_on channel=13 note=66 velocity=90 time=0
4614	note_on channel=9 note=37 velocity=0 time=10
4615	note_on channel=9 note=64 velocity=0 time=0
4616	note_on channel=9 note=38 velocity=0 time=0
4617	note_on channel=9 note=62 velocity=109 time=20
4618	note_on channel=9 note=62 velocity=0 time=10
4619	note_on channel=1 note=35 velocity=0 time=10
4620	note_on channel=1 note=35 velocity=88 time=10
4621	note_on channel=9 note=36 velocity=127 time=0
4622	note_on channel=9 note=82 velocity=111 time=0
4623	note_on channel=9 note=62 velocity=108 time=0
4624	note_on channel=10 note=62 velocity=90 time=0
4625	note_on channel=13 note=62 velocity=90 time=0
4626	note_on channel=13 note=66 velocity=0 time=2
4627	note_on channel=10 note=66 velocity=0 time=0
4628	note_on channel=9 note=62 velocity=0 time=8
4629	note_on channel=9 note=82 velocity=0 time=0
4630	note_on channel=9 note=36 velocity=0 time=2
4631	note_on channel=9 note=35 velocity=127 time=18
4632	note_on channel=9 note=62 velocity=110 time=0
4633	note_on channel=9 note=62 velocity=0 time=10
4634	note_on channel=9 note=35 velocity=0 time=4
4635	note_on channel=8 note=71 velocity=0 time=12
4636	note_on channel=8 note=66 velocity=0 time=1
4637	note_on channel=8 note=74 velocity=0 time=0
4638	note_on channel=13 note=62 velocity=0 time=1
4639	note_on channel=10 note=62 velocity=0 time=0
4640	
4641	note_on channel=1 note=35 velocity=0 time=0
4642	note_on channel=1 note=30 velocity=108 time=0
4643	note_on channel=8 note=66 velocity=61 time=0
4644	note_on channel=8 note=69 velocity=61 time=0
4645	note_on channel=8 note=73 velocity=61 time=0
4646	note_on channel=9 note=36 velocity=127 time=0
4647	note_on channel=9 note=35 velocity=127 time=0
4648	note_on channel=9 note=62 velocity=111 time=0
4649	note_on channel=10 note=61 velocity=90 time=0
4650	note_on channel=12 note=66 velocity=90 time=0
4651	note_on channel=13 note=61 velocity=90 time=0
4652	note_on channel=9 note=62 velocity=0 time=10
4653	note_on channel=9 note=35 velocity=0 time=0
4654	note_on channel=9 note=36 velocity=0 time=2
4655	note_on channel=9 note=63 velocity=60 time=18
4656	note_on channel=9 note=62 velocity=109 time=0
4657	note_on channel=9 note=62 velocity=0 time=10
4658	note_on channel=9 note=63 velocity=0 time=0
4659	note_on channel=1 note=30 velocity=0 time=10
4660	note_on channel=1 note=30 velocity=92 time=10
4661	note_on channel=9 note=82 velocity=109 time=0
4662	note_on channel=9 note=82 velocity=0 time=10
4663	note_on channel=1 note=30 velocity=0 time=50
4664	note_on channel=1 note=28 velocity=92 time=0
4665	note_on channel=9 note=38 velocity=85 time=0
4666	note_on channel=9 note=62 velocity=108 time=0
4667	note_on channel=9 note=37 velocity=127 time=0
4668	note_on channel=9 note=37 velocity=0 time=10
4669	note_on channel=9 note=62 velocity=0 time=0
4670	note_on channel=9 note=38 velocity=0 time=0
4671	note_on channel=1 note=28 velocity=0 time=20
4672	note_on channel=10 note=61 velocity=0 time=8
4673	note_on channel=13 note=61 velocity=0 time=0
4674	
4675	note_on channel=1 note=30 velocity=88 time=0
4676	note_on channel=9 note=82 velocity=111 time=0
4677	note_on channel=10 note=74 velocity=90 time=0
4678	note_on channel=13 note=74 velocity=90 time=0
4679	note_on channel=9 note=82 velocity=0 time=10
4680	note_on channel=1 note=30 velocity=0 time=20
4681	note_on channel=9 note=62 velocity=109 time=0
4682	note_on channel=9 note=62 velocity=0 time=10
4683	note_on channel=12 note=66 velocity=0 time=8
4684	note_on channel=13 note=74 velocity=0 time=6
4685	note_on channel=10 note=74 velocity=0 time=0
4686	note_on channel=8 note=73 velocity=0 time=2
4687	note_on channel=8 note=69 velocity=0 time=1
4688	note_on channel=8 note=66 velocity=0 time=1
4689	
4690	note_on channel=1 note=30 velocity=88 time=0
4691	note_on channel=8 note=66 velocity=54 time=0
4692	note_on channel=8 note=69 velocity=54 time=0
4693	note_on channel=8 note=73 velocity=54 time=0
4694	note_on channel=9 note=64 velocity=68 time=0
4695	note_on channel=10 note=73 velocity=90 time=0
4696	note_on channel=12 note=64 velocity=90 time=0
4697	note_on channel=13 note=73 velocity=90 time=0
4698	note_on channel=9 note=64 velocity=0 time=10
4699	note_on channel=1 note=30 velocity=0 time=20
4700	note_on channel=9 note=63 velocity=58 time=0
4701	note_on channel=9 note=62 velocity=108 time=0
4702	note_on channel=9 note=62 velocity=0 time=10
4703	note_on channel=9 note=63 velocity=0 time=0
4704	note_on channel=1 note=28 velocity=91 time=20
4705	note_on channel=9 note=82 velocity=110 time=0
4706	note_on channel=9 note=63 velocity=59 time=0
4707	note_on channel=9 note=63 velocity=0 time=10
4708	note_on channel=9 note=82 velocity=0 time=0
4709	note_on channel=1 note=28 velocity=0 time=20
4710	note_on channel=9 note=63 velocity=59 time=0
4711	note_on channel=9 note=63 velocity=0 time=10
4712	note_on channel=1 note=30 velocity=91 time=20
4713	note_on channel=9 note=38 velocity=86 time=0
4714	note_on channel=9 note=64 velocity=67 time=0
4715	note_on channel=9 note=37 velocity=127 time=0
4716	note_on channel=9 note=37 velocity=0 time=10
4717	note_on channel=9 note=64 velocity=0 time=0
4718	note_on channel=9 note=38 velocity=0 time=0
4719	note_on channel=9 note=62 velocity=109 time=20
4720	note_on channel=9 note=62 velocity=0 time=10
4721	note_on channel=1 note=30 velocity=0 time=10
4722	note_on channel=1 note=32 velocity=91 time=10
4723	note_on channel=9 note=36 velocity=127 time=0
4724	note_on channel=9 note=82 velocity=111 time=0
4725	note_on channel=9 note=62 velocity=108 time=0
4726	note_on channel=13 note=73 velocity=0 time=4
4727	note_on channel=10 note=73 velocity=0 time=0
4728	note_on channel=9 note=62 velocity=0 time=6
4729	note_on channel=9 note=82 velocity=0 time=0
4730	note_on channel=9 note=36 velocity=0 time=2
4731	note_on channel=9 note=35 velocity=127 time=18
4732	note_on channel=9 note=62 velocity=110 time=0
4733	note_on channel=9 note=62 velocity=0 time=10
4734	note_on channel=9 note=35 velocity=0 time=4
4735	note_on channel=8 note=66 velocity=0 time=12
4736	note_on channel=8 note=73 velocity=0 time=2
4737	note_on channel=8 note=69 velocity=0 time=0
4738	note_on channel=1 note=32 velocity=0 time=2
4739	note_on channel=1 note=28 velocity=109 time=0
4740	note_on channel=6 note=59 velocity=90 time=0
4741	note_on channel=8 note=66 velocity=61 time=0
4742	note_on channel=8 note=69 velocity=61 time=0
4743	note_on channel=8 note=73 velocity=61 time=0
4744	note_on channel=9 note=36 velocity=127 time=0
4745	note_on channel=9 note=35 velocity=127 time=0
4746	note_on channel=9 note=82 velocity=108 time=0
4747	note_on channel=7 note=59 velocity=90 time=1
4748	note_on channel=12 note=64 velocity=0 time=3
4749	note_on channel=9 note=82 velocity=0 time=6
4750	note_on channel=9 note=35 velocity=0 time=0
4751	note_on channel=9 note=36 velocity=0 time=0
4752	note_on channel=6 note=61 velocity=90 time=20
4753	note_on channel=7 note=61 velocity=90 time=1
4754	note_on channel=6 note=59 velocity=0 time=13
4755	note_on channel=7 note=59 velocity=0 time=1
4756	note_on channel=1 note=28 velocity=0 time=15
4757	note_on channel=1 note=30 velocity=110 time=0
4758	note_on channel=6 note=61 velocity=90 time=0
4759	note_on channel=9 note=82 velocity=90 time=0
4760	note_on channel=9 note=27 velocity=103 time=0
4761	note_on channel=7 note=61 velocity=90 time=1
4762	note_on channel=9 note=27 velocity=0 time=9
4763	note_on channel=9 note=82 velocity=0 time=0
4764	note_on channel=6 note=61 velocity=0 time=4
4765	note_on channel=7 note=61 velocity=0 time=1
4766	note_on channel=1 note=30 velocity=0 time=5
4767	note_on channel=6 note=62 velocity=90 time=10
4768	note_on channel=7 note=62 velocity=90 time=1
4769	note_on channel=6 note=61 velocity=0 time=13
4770	note_on channel=7 note=61 velocity=0 time=1
4771	note_on channel=1 note=31 velocity=70 time=15
4772	note_on channel=6 note=61 velocity=90 time=0
4773	note_on channel=9 note=82 velocity=88 time=0
4774	note_on channel=9 note=27 velocity=101 time=0
4775	note_on channel=7 note=61 velocity=90 time=1
4776	note_on channel=9 note=27 velocity=0 time=9
4777	note_on channel=9 note=82 velocity=0 time=0
4778	note_on channel=1 note=31 velocity=0 time=0
4779	note_on channel=6 note=62 velocity=0 time=4
4780	note_on channel=7 note=62 velocity=0 time=1
4781	note_on channel=6 note=61 velocity=0 time=13
4782	note_on channel=7 note=61 velocity=0 time=1
4783	note_on channel=1 note=33 velocity=71 time=1
4784	note_on channel=6 note=61 velocity=90 time=0
4785	note_on channel=7 note=61 velocity=90 time=1
4786	note_on channel=1 note=33 velocity=0 time=9
4787	note_on channel=6 note=61 velocity=0 time=18
4788	note_on channel=7 note=61 velocity=0 time=1
4789	note_on channel=1 note=30 velocity=112 time=1
4790	note_on channel=6 note=61 velocity=90 time=0
4791	note_on channel=9 note=38 velocity=88 time=0
4792	note_on channel=9 note=82 velocity=67 time=0
4793	note_on channel=9 note=37 velocity=127 time=0
4794	note_on channel=7 note=61 velocity=90 time=1
4795	note_on channel=9 note=37 velocity=0 time=9
4796	note_on channel=9 note=82 velocity=0 time=0
4797	note_on channel=9 note=38 velocity=0 time=0
4798	note_on channel=6 note=61 velocity=0 time=16
4799	note_on channel=7 note=61 velocity=0 time=1
4800	note_on channel=6 note=61 velocity=90 time=3
4801	note_on channel=7 note=61 velocity=90 time=1
4802	note_on channel=6 note=61 velocity=0 time=29
4803	note_on channel=1 note=30 velocity=0 time=0
4804	note_on channel=1 note=31 velocity=68 time=0
4805	note_on channel=6 note=59 velocity=90 time=0
4806	note_on channel=9 note=82 velocity=109 time=0
4807	note_on channel=7 note=61 velocity=0 time=1
4808	note_on channel=7 note=59 velocity=90 time=0
4809	note_on channel=9 note=82 velocity=0 time=9
4810	note_on channel=1 note=31 velocity=0 time=10
4811	note_on channel=1 note=30 velocity=91 time=10
4812	note_on channel=6 note=61 velocity=90 time=0
4813	note_on channel=9 note=38 velocity=87 time=0
4814	note_on channel=9 note=37 velocity=127 time=0
4815	note_on channel=7 note=61 velocity=90 time=1
4816	note_on channel=9 note=37 velocity=0 time=9
4817	note_on channel=9 note=38 velocity=0 time=0
4818	note_on channel=1 note=30 velocity=0 time=0
4819	note_on channel=6 note=59 velocity=0 time=4
4820	note_on channel=7 note=59 velocity=0 time=1
4821	note_on channel=6 note=61 velocity=0 time=13
4822	note_on channel=7 note=61 velocity=0 time=1
4823	note_on channel=1 note=31 velocity=69 time=1
4824	note_on channel=6 note=61 velocity=90 time=0
4825	note_on channel=9 note=82 velocity=88 time=0
4826	note_on channel=7 note=61 velocity=90 time=1
4827	note_on channel=9 note=82 velocity=0 time=9
4828	note_on channel=1 note=31 velocity=0 time=0
4829	note_on channel=1 note=40 velocity=91 time=20
4830	note_on channel=6 note=62 velocity=90 time=0
4831	note_on channel=7 note=62 velocity=90 time=1
4832	note_on channel=6 note=61 velocity=0 time=13
4833	note_on channel=7 note=61 velocity=0 time=1
4834	note_on channel=1 note=40 velocity=0 time=15
4835	note_on channel=1 note=30 velocity=88 time=0
4836	note_on channel=6 note=61 velocity=90 time=0
4837	note_on channel=9 note=38 velocity=86 time=0
4838	note_on channel=9 note=82 velocity=90 time=0
4839	note_on channel=9 note=37 velocity=127 time=0
4840	note_on channel=7 note=61 velocity=90 time=1
4841	note_on channel=9 note=37 velocity=0 time=9
4842	note_on channel=9 note=82 velocity=0 time=0
4843	note_on channel=1 note=30 velocity=0 time=0
4844	note_on channel=9 note=38 velocity=0 time=0
4845	note_on channel=6 note=62 velocity=0 time=4
4846	note_on channel=7 note=62 velocity=0 time=1
4847	note_on channel=6 note=61 velocity=0 time=13
4848	note_on channel=7 note=61 velocity=0 time=1
4849	note_on channel=1 note=31 velocity=68 time=1
4850	note_on channel=6 note=61 velocity=90 time=0
4851	note_on channel=7 note=61 velocity=90 time=1
4852	note_on channel=1 note=31 velocity=0 time=19
4853	note_on channel=6 note=61 velocity=0 time=8
4854	note_on channel=7 note=61 velocity=0 time=1
4855	note_on channel=1 note=40 velocity=90 time=1
4856	note_on channel=6 note=61 velocity=90 time=0
4857	note_on channel=9 note=82 velocity=67 time=0
4858	note_on channel=7 note=61 velocity=90 time=1
4859	note_on channel=9 note=82 velocity=0 time=9
4860	note_on channel=1 note=40 velocity=0 time=10
4861	note_on channel=6 note=61 velocity=0 time=4
4862	note_on channel=7 note=61 velocity=0 time=1
4863	note_on channel=1 note=42 velocity=91 time=5
4864	note_on channel=6 note=61 velocity=90 time=0
4865	note_on channel=7 note=61 velocity=90 time=1
4866	note_on channel=1 note=42 velocity=0 time=9
4867	note_on channel=6 note=61 velocity=0 time=12
4868	note_on channel=7 note=61 velocity=0 time=1
4869	note_on channel=1 note=30 velocity=109 time=7
4870	note_on channel=6 note=59 velocity=90 time=0
4871	note_on channel=9 note=36 velocity=127 time=0
4872	note_on channel=9 note=35 velocity=127 time=0
4873	note_on channel=9 note=82 velocity=110 time=0
4874	note_on channel=7 note=59 velocity=90 time=1
4875	note_on channel=9 note=82 velocity=0 time=9
4876	note_on channel=9 note=35 velocity=0 time=0
4877	note_on channel=9 note=36 velocity=0 time=0
4878	note_on channel=6 note=61 velocity=90 time=20
4879	note_on channel=7 note=61 velocity=90 time=1
4880	note_on channel=6 note=59 velocity=0 time=13
4881	note_on channel=7 note=59 velocity=0 time=1
4882	note_on channel=1 note=30 velocity=0 time=15
4883	note_on channel=1 note=31 velocity=69 time=0
4884	note_on channel=6 note=61 velocity=90 time=0
4885	note_on channel=9 note=82 velocity=91 time=0
4886	note_on channel=9 note=27 velocity=103 time=0
4887	note_on channel=7 note=61 velocity=90 time=1
4888	note_on channel=9 note=27 velocity=0 time=9
4889	note_on channel=9 note=82 velocity=0 time=0
4890	note_on channel=1 note=31 velocity=0 time=0
4891	note_on channel=6 note=61 velocity=0 time=4
4892	note_on channel=7 note=61 velocity=0 time=1
4893	note_on channel=1 note=33 velocity=90 time=15
4894	note_on channel=6 note=62 velocity=90 time=0
4895	note_on channel=9 note=36 velocity=127 time=0
4896	note_on channel=9 note=35 velocity=127 time=0
4897	note_on channel=7 note=62 velocity=90 time=1
4898	note_on channel=9 note=35 velocity=0 time=9
4899	note_on channel=9 note=36 velocity=0 time=0
4900	note_on channel=1 note=33 velocity=0 time=0
4901	note_on channel=6 note=61 velocity=0 time=4
4902	note_on channel=7 note=61 velocity=0 time=1
4903	note_on channel=1 note=37 velocity=69 time=15
4904	note_on channel=6 note=61 velocity=90 time=0
4905	note_on channel=9 note=82 velocity=91 time=0
4906	note_on channel=9 note=27 velocity=103 time=0
4907	note_on channel=7 note=61 velocity=90 time=1
4908	note_on channel=9 note=27 velocity=0 time=9
4909	note_on channel=9 note=82 velocity=0 time=0
4910	note_on channel=1 note=37 velocity=0 time=0
4911	note_on channel=6 note=62 velocity=0 time=4
4912	note_on channel=7 note=62 velocity=0 time=1
4913	note_on channel=6 note=61 velocity=0 time=13
4914	note_on channel=7 note=61 velocity=0 time=1
4915	note_on channel=1 note=38 velocity=68 time=1
4916	note_on channel=6 note=61 velocity=90 time=0
4917	note_on channel=7 note=61 velocity=90 time=1
4918	note_on channel=1 note=38 velocity=0 time=9
4919	note_on channel=6 note=61 velocity=0 time=18
4920	note_on channel=7 note=61 velocity=0 time=1
4921	note_on channel=1 note=28 velocity=91 time=1
4922	note_on channel=6 note=61 velocity=90 time=0
4923	note_on channel=9 note=38 velocity=87 time=0
4924	note_on channel=9 note=82 velocity=73 time=0
4925	note_on channel=9 note=37 velocity=127 time=0
4926	note_on channel=7 note=61 velocity=90 time=1
4927	note_on channel=9 note=37 velocity=0 time=9
4928	note_on channel=9 note=82 velocity=0 time=0
4929	note_on channel=9 note=38 velocity=0 time=0
4930	note_on channel=6 note=61 velocity=0 time=16
4931	note_on channel=7 note=61 velocity=0 time=1
4932	note_on channel=6 note=61 velocity=90 time=3
4933	note_on channel=7 note=61 velocity=90 time=1
4934	note_on channel=6 note=61 velocity=0 time=29
4935	note_on channel=1 note=28 velocity=0 time=0
4936	note_on channel=1 note=30 velocity=111 time=0
4937	note_on channel=6 note=59 velocity=90 time=0
4938	note_on channel=9 note=82 velocity=109 time=0
4939	note_on channel=7 note=61 velocity=0 time=1
4940	note_on channel=7 note=59 velocity=90 time=0
4941	note_on channel=9 note=82 velocity=0 time=9
4942	note_on channel=6 note=61 velocity=90 time=20
4943	note_on channel=9 note=38 velocity=86 time=0
4944	note_on channel=9 note=37 velocity=127 time=0
4945	note_on channel=7 note=61 velocity=90 time=1
4946	note_on channel=9 note=37 velocity=0 time=9
4947	note_on channel=9 note=38 velocity=0 time=0
4948	note_on channel=6 note=59 velocity=0 time=4
4949	note_on channel=7 note=59 velocity=0 time=1
4950	note_on channel=1 note=30 velocity=0 time=5
4951	note_on channel=6 note=61 velocity=0 time=8
4952	note_on channel=7 note=61 velocity=0 time=1
4953	note_on channel=1 note=31 velocity=71 time=1
4954	note_on channel=6 note=61 velocity=90 time=0
4955	note_on channel=9 note=82 velocity=91 time=0
4956	note_on channel=7 note=61 velocity=90 time=1
4957	note_on channel=9 note=82 velocity=0 time=9
4958	note_on channel=1 note=31 velocity=0 time=0
4959	note_on channel=1 note=33 velocity=88 time=20
4960	note_on channel=6 note=66 velocity=90 time=0
4961	note_on channel=7 note=66 velocity=90 time=1
4962	note_on channel=6 note=61 velocity=0 time=13
4963	note_on channel=7 note=61 velocity=0 time=1
4964	note_on channel=1 note=33 velocity=0 time=15
4965	note_on channel=1 note=37 velocity=71 time=0
4966	note_on channel=6 note=61 velocity=90 time=0
4967	note_on channel=9 note=38 velocity=85 time=0
4968	note_on channel=9 note=82 velocity=89 time=0
4969	note_on channel=9 note=37 velocity=127 time=0
4970	note_on channel=7 note=61 velocity=90 time=1
4971	note_on channel=9 note=37 velocity=0 time=9
4972	note_on channel=9 note=82 velocity=0 time=0
4973	note_on channel=1 note=37 velocity=0 time=0
4974	note_on channel=9 note=38 velocity=0 time=0
4975	note_on channel=6 note=66 velocity=0 time=4
4976	note_on channel=7 note=66 velocity=0 time=1
4977	note_on channel=6 note=61 velocity=0 time=13
4978	note_on channel=7 note=61 velocity=0 time=1
4979	note_on channel=1 note=38 velocity=68 time=1
4980	note_on channel=6 note=61 velocity=90 time=0
4981	note_on channel=9 note=36 velocity=127 time=0
4982	note_on channel=9 note=35 velocity=127 time=0
4983	note_on channel=7 note=61 velocity=90 time=1
4984	note_on channel=9 note=35 velocity=0 time=9
4985	note_on channel=9 note=36 velocity=0 time=0
4986	note_on channel=1 note=38 velocity=0 time=0
4987	note_on channel=6 note=61 velocity=0 time=18
4988	note_on channel=7 note=61 velocity=0 time=1
4989	note_on channel=1 note=37 velocity=89 time=1
4990	note_on channel=6 note=61 velocity=90 time=0
4991	note_on channel=9 note=82 velocity=68 time=0
4992	note_on channel=7 note=61 velocity=90 time=1
4993	note_on channel=9 note=82 velocity=0 time=9
4994	note_on channel=1 note=37 velocity=0 time=0
4995	note_on channel=6 note=61 velocity=0 time=14
4996	note_on channel=7 note=61 velocity=0 time=1
4997	note_on channel=1 note=33 velocity=68 time=5
4998	note_on channel=6 note=61 velocity=90 time=0
4999	note_on channel=7 note=61 velocity=90 time=1
5000	note_on channel=1 note=33 velocity=0 time=9
5001	note_on channel=6 note=61 velocity=0 time=12
5002	note_on channel=7 note=61 velocity=0 time=1
5003	note_on channel=1 note=30 velocity=112 time=7
5004	note_on channel=6 note=59 velocity=90 time=0
5005	note_on channel=9 note=36 velocity=127 time=0
5006	note_on channel=9 note=35 velocity=127 time=0
5007	note_on channel=9 note=82 velocity=108 time=0
5008	note_on channel=7 note=59 velocity=90 time=1
5009	note_on channel=9 note=82 velocity=0 time=9
5010	note_on channel=9 note=35 velocity=0 time=0
5011	note_on channel=9 note=36 velocity=0 time=0
5012	note_on channel=6 note=61 velocity=90 time=20
5013	note_on channel=7 note=61 velocity=90 time=1
5014	note_on channel=6 note=59 velocity=0 time=13
5015	note_on channel=7 note=59 velocity=0 time=1
5016	note_on channel=6 note=61 velocity=90 time=15
5017	note_on channel=9 note=82 velocity=90 time=0
5018	note_on channel=9 note=27 velocity=103 time=0
5019	note_on channel=7 note=61 velocity=90 time=1
5020	note_on channel=9 note=27 velocity=0 time=9
5021	note_on channel=9 note=82 velocity=0 time=0
5022	note_on channel=6 note=61 velocity=0 time=4
5023	note_on channel=7 note=61 velocity=0 time=1
5024	note_on channel=1 note=30 velocity=0 time=15
5025	note_on channel=6 note=62 velocity=90 time=0
5026	note_on channel=9 note=36 velocity=127 time=0
5027	note_on channel=9 note=35 velocity=127 time=0
5028	note_on channel=7 note=62 velocity=90 time=1
5029	note_on channel=9 note=35 velocity=0 time=9
5030	note_on channel=9 note=36 velocity=0 time=0
5031	note_on channel=6 note=61 velocity=0 time=4
5032	note_on channel=7 note=61 velocity=0 time=1
5033	note_on channel=6 note=61 velocity=90 time=15
5034	note_on channel=9 note=82 velocity=88 time=0
5035	note_on channel=9 note=27 velocity=101 time=0
5036	note_on channel=7 note=61 velocity=90 time=1
5037	note_on channel=9 note=27 velocity=0 time=9
5038	note_on channel=9 note=82 velocity=0 time=0
5039	note_on channel=6 note=62 velocity=0 time=4
5040	note_on channel=7 note=62 velocity=0 time=1
5041	note_on channel=6 note=61 velocity=0 time=13
5042	note_on channel=7 note=61 velocity=0 time=1
5043	note_on channel=6 note=61 velocity=90 time=1
5044	note_on channel=7 note=61 velocity=90 time=1
5045	note_on channel=6 note=61 velocity=0 time=27
5046	note_on channel=7 note=61 velocity=0 time=1
5047	note_on channel=1 note=30 velocity=110 time=1
5048	note_on channel=6 note=61 velocity=90 time=0
5049	note_on channel=9 note=38 velocity=88 time=0
5050	note_on channel=9 note=82 velocity=67 time=0
5051	note_on channel=9 note=37 velocity=127 time=0
5052	note_on channel=7 note=61 velocity=90 time=1
5053	note_on channel=9 note=37 velocity=0 time=9
5054	note_on channel=9 note=82 velocity=0 time=0
5055	note_on channel=9 note=38 velocity=0 time=0
5056	note_on channel=6 note=61 velocity=0 time=16
5057	note_on channel=7 note=61 velocity=0 time=1
5058	note_on channel=6 note=61 velocity=90 time=3
5059	note_on channel=7 note=61 velocity=90 time=1
5060	note_on channel=6 note=61 velocity=0 time=29
5061	note_on channel=1 note=30 velocity=0 time=0
5062	note_on channel=1 note=30 velocity=92 time=0
5063	note_on channel=6 note=59 velocity=90 time=0
5064	note_on channel=9 note=82 velocity=109 time=0
5065	note_on channel=7 note=61 velocity=0 time=1
5066	note_on channel=7 note=59 velocity=90 time=0
5067	note_on channel=9 note=82 velocity=0 time=9
5068	note_on channel=6 note=61 velocity=90 time=20
5069	note_on channel=9 note=38 velocity=87 time=0
5070	note_on channel=9 note=37 velocity=127 time=0
5071	note_on channel=7 note=61 velocity=90 time=1
5072	note_on channel=9 note=37 velocity=0 time=9
5073	note_on channel=9 note=38 velocity=0 time=0
5074	note_on channel=6 note=59 velocity=0 time=4
5075	note_on channel=7 note=59 velocity=0 time=1
5076	note_on channel=6 note=61 velocity=0 time=13
5077	note_on channel=7 note=61 velocity=0 time=1
5078	note_on channel=6 note=61 velocity=90 time=1
5079	note_on channel=9 note=36 velocity=127 time=0
5080	note_on channel=9 note=35 velocity=127 time=0
5081	note_on channel=9 note=82 velocity=88 time=0
5082	note_on channel=7 note=61 velocity=90 time=1
5083	note_on channel=9 note=82 velocity=0 time=9
5084	note_on channel=9 note=35 velocity=0 time=0
5085	note_on channel=9 note=36 velocity=0 time=0
5086	note_on channel=1 note=30 velocity=0 time=20
5087	note_on channel=6 note=62 velocity=90 time=0
5088	note_on channel=7 note=62 velocity=90 time=1
5089	note_on channel=6 note=61 velocity=0 time=13
5090	note_on channel=7 note=61 velocity=0 time=1
5091	note_on channel=6 note=61 velocity=90 time=15
5092	note_on channel=9 note=38 velocity=86 time=0
5093	note_on channel=9 note=82 velocity=90 time=0
5094	note_on channel=9 note=37 velocity=127 time=0
5095	note_on channel=7 note=61 velocity=90 time=1
5096	note_on channel=9 note=37 velocity=0 time=9
5097	note_on channel=9 note=82 velocity=0 time=0
5098	note_on channel=9 note=38 velocity=0 time=0
5099	note_on channel=6 note=62 velocity=0 time=4
5100	note_on channel=7 note=62 velocity=0 time=1
5101	note_on channel=6 note=61 velocity=0 time=13
5102	note_on channel=7 note=61 velocity=0 time=1
5103	note_on channel=6 note=61 velocity=90 time=1
5104	note_on channel=9 note=36 velocity=127 time=0
5105	note_on channel=9 note=35 velocity=127 time=0
5106	note_on channel=7 note=61 velocity=90 time=1
5107	note_on channel=9 note=35 velocity=0 time=9
5108	note_on channel=9 note=36 velocity=0 time=0
5109	note_on channel=6 note=61 velocity=0 time=18
5110	note_on channel=7 note=61 velocity=0 time=1
5111	note_on channel=6 note=61 velocity=90 time=1
5112	note_on channel=9 note=82 velocity=67 time=0
5113	note_on channel=7 note=61 velocity=90 time=1
5114	note_on channel=9 note=82 velocity=0 time=9
5115	note_on channel=6 note=61 velocity=0 time=14
5116	note_on channel=7 note=61 velocity=0 time=1
5117	note_on channel=6 note=61 velocity=90 time=5
5118	note_on channel=9 note=36 velocity=127 time=0
5119	note_on channel=9 note=35 velocity=127 time=0
5120	note_on channel=7 note=61 velocity=90 time=1
5121	note_on channel=9 note=35 velocity=0 time=9
5122	note_on channel=9 note=36 velocity=0 time=0
5123	note_on channel=6 note=61 velocity=0 time=12
5124	note_on channel=7 note=61 velocity=0 time=1
5125	note_on channel=1 note=30 velocity=108 time=7
5126	note_on channel=6 note=59 velocity=90 time=0
5127	note_on channel=9 note=36 velocity=127 time=0
5128	note_on channel=9 note=35 velocity=127 time=0
5129	note_on channel=9 note=82 velocity=110 time=0
5130	note_on channel=7 note=59 velocity=90 time=1
5131	note_on channel=9 note=82 velocity=0 time=9
5132	note_on channel=9 note=35 velocity=0 time=0
5133	note_on channel=9 note=36 velocity=0 time=0
5134	note_on channel=6 note=61 velocity=90 time=20
5135	note_on channel=7 note=61 velocity=90 time=1
5136	note_on channel=6 note=59 velocity=0 time=13
5137	note_on channel=7 note=59 velocity=0 time=1
5138	note_on channel=1 note=30 velocity=0 time=15
5139	note_on channel=1 note=31 velocity=70 time=0
5140	note_on channel=6 note=61 velocity=90 time=0
5141	note_on channel=9 note=82 velocity=91 time=0
5142	note_on channel=9 note=27 velocity=103 time=0
5143	note_on channel=7 note=61 velocity=90 time=1
5144	note_on channel=9 note=27 velocity=0 time=9
5145	note_on channel=9 note=82 velocity=0 time=0
5146	note_on channel=1 note=31 velocity=0 time=0
5147	note_on channel=6 note=61 velocity=0 time=4
5148	note_on channel=7 note=61 velocity=0 time=1
5149	note_on channel=1 note=33 velocity=89 time=15
5150	note_on channel=6 note=62 velocity=90 time=0
5151	note_on channel=9 note=36 velocity=127 time=0
5152	note_on channel=9 note=35 velocity=127 time=0
5153	note_on channel=7 note=62 velocity=90 time=1
5154	note_on channel=9 note=35 velocity=0 time=9
5155	note_on channel=9 note=36 velocity=0 time=0
5156	note_on channel=1 note=33 velocity=0 time=0
5157	note_on channel=6 note=61 velocity=0 time=4
5158	note_on channel=7 note=61 velocity=0 time=1
5159	note_on channel=1 note=37 velocity=72 time=15
5160	note_on channel=6 note=61 velocity=90 time=0
5161	note_on channel=9 note=82 velocity=91 time=0
5162	note_on channel=9 note=27 velocity=103 time=0
5163	note_on channel=7 note=61 velocity=90 time=1
5164	note_on channel=9 note=27 velocity=0 time=9
5165	note_on channel=9 note=82 velocity=0 time=0
5166	note_on channel=1 note=37 velocity=0 time=0
5167	note_on channel=6 note=62 velocity=0 time=4
5168	note_on channel=7 note=62 velocity=0 time=1
5169	note_on channel=6 note=61 velocity=0 time=13
5170	note_on channel=7 note=61 velocity=0 time=1
5171	note_on channel=1 note=38 velocity=72 time=1
5172	note_on channel=6 note=61 velocity=90 time=0
5173	note_on channel=7 note=61 velocity=90 time=1
5174	note_on channel=1 note=38 velocity=0 time=9
5175	note_on channel=6 note=61 velocity=0 time=18
5176	note_on channel=7 note=61 velocity=0 time=1
5177	note_on channel=1 note=28 velocity=89 time=1
5178	note_on channel=6 note=61 velocity=90 time=0
5179	note_on channel=9 note=38 velocity=87 time=0
5180	note_on channel=9 note=82 velocity=73 time=0
5181	note_on channel=9 note=37 velocity=127 time=0
5182	note_on channel=7 note=61 velocity=90 time=1
5183	note_on channel=9 note=37 velocity=0 time=9
5184	note_on channel=9 note=82 velocity=0 time=0
5185	note_on channel=9 note=38 velocity=0 time=0
5186	note_on channel=6 note=61 velocity=0 time=16
5187	note_on channel=7 note=61 velocity=0 time=1
5188	note_on channel=6 note=61 velocity=90 time=3
5189	note_on channel=7 note=61 velocity=90 time=1
5190	note_on channel=6 note=61 velocity=0 time=29
5191	note_on channel=1 note=28 velocity=0 time=0
5192	note_on channel=1 note=30 velocity=112 time=0
5193	note_on channel=6 note=59 velocity=90 time=0
5194	note_on channel=9 note=82 velocity=109 time=0
5195	note_on channel=7 note=61 velocity=0 time=1
5196	note_on channel=7 note=59 velocity=90 time=0
5197	note_on channel=9 note=82 velocity=0 time=9
5198	note_on channel=6 note=61 velocity=90 time=20
5199	note_on channel=9 note=38 velocity=86 time=0
5200	note_on channel=9 note=37 velocity=127 time=0
5201	note_on channel=7 note=61 velocity=90 time=1
5202	note_on channel=9 note=37 velocity=0 time=9
5203	note_on channel=9 note=38 velocity=0 time=0
5204	note_on channel=6 note=59 velocity=0 time=4
5205	note_on channel=7 note=59 velocity=0 time=1
5206	note_on channel=1 note=30 velocity=0 time=5
5207	note_on channel=6 note=61 velocity=0 time=8
5208	note_on channel=7 note=61 velocity=0 time=1
5209	note_on channel=1 note=31 velocity=68 time=1
5210	note_on channel=6 note=61 velocity=90 time=0
5211	note_on channel=9 note=82 velocity=91 time=0
5212	note_on channel=7 note=61 velocity=90 time=1
5213	note_on channel=9 note=82 velocity=0 time=9
5214	note_on channel=1 note=31 velocity=0 time=0
5215	note_on channel=1 note=33 velocity=92 time=20
5216	note_on channel=6 note=66 velocity=90 time=0
5217	note_on channel=7 note=66 velocity=90 time=1
5218	note_on channel=6 note=61 velocity=0 time=13
5219	note_on channel=7 note=61 velocity=0 time=1
5220	note_on channel=1 note=33 velocity=0 time=15
5221	note_on channel=1 note=37 velocity=71 time=0
5222	note_on channel=6 note=61 velocity=90 time=0
5223	note_on channel=8 note=69 velocity=58 time=0
5224	note_on channel=9 note=38 velocity=85 time=0
5225	note_on channel=9 note=82 velocity=89 time=0
5226	note_on channel=9 note=37 velocity=127 time=0
5227	note_on channel=7 note=61 velocity=90 time=1
5228	note_on channel=9 note=37 velocity=0 time=9
5229	note_on channel=9 note=82 velocity=0 time=0
5230	note_on channel=9 note=38 velocity=0 time=0
5231	note_on channel=1 note=37 velocity=0 time=0
5232	note_on channel=6 note=66 velocity=0 time=4
5233	note_on channel=7 note=66 velocity=0 time=1
5234	note_on channel=6 note=61 velocity=0 time=13
5235	note_on channel=7 note=61 velocity=0 time=1
5236	note_on channel=1 note=38 velocity=70 time=1
5237	note_on channel=6 note=61 velocity=90 time=0
5238	note_on channel=9 note=36 velocity=127 time=0
5239	note_on channel=9 note=35 velocity=127 time=0
5240	note_on channel=7 note=61 velocity=90 time=1
5241	note_on channel=9 note=35 velocity=0 time=9
5242	note_on channel=9 note=36 velocity=0 time=0
5243	note_on channel=1 note=38 velocity=0 time=0
5244	note_on channel=6 note=61 velocity=0 time=18
5245	note_on channel=7 note=61 velocity=0 time=1
5246	note_on channel=1 note=37 velocity=91 time=1
5247	note_on channel=6 note=61 velocity=90 time=0
5248	note_on channel=9 note=82 velocity=68 time=0
5249	note_on channel=7 note=61 velocity=90 time=1
5250	note_on channel=9 note=82 velocity=0 time=9
5251	note_on channel=1 note=37 velocity=0 time=0
5252	note_on channel=6 note=61 velocity=0 time=14
5253	note_on channel=7 note=61 velocity=0 time=1
5254	note_on channel=1 note=33 velocity=72 time=5
5255	note_on channel=6 note=61 velocity=90 time=0
5256	note_on channel=7 note=61 velocity=90 time=1
5257	note_on channel=1 note=33 velocity=0 time=9
5258	note_on channel=6 note=61 velocity=0 time=12
5259	note_on channel=7 note=61 velocity=0 time=1
5260	note_on channel=8 note=69 velocity=0 time=4
5261	note_on channel=8 note=66 velocity=0 time=0
5262	note_on channel=8 note=73 velocity=0 time=0
5263	note_on channel=8 note=69 velocity=0 time=3
5264	note_on channel=1 note=30 velocity=127 time=0
5265	note_on channel=9 note=36 velocity=127 time=0
5266	note_on channel=9 note=35 velocity=127 time=0
5267	note_on channel=14 note=42 velocity=127 time=0
5268	note_on channel=15 note=42 velocity=95 time=0
5269	note_on channel=9 note=35 velocity=0 time=10
5270	note_on channel=9 note=36 velocity=0 time=0
5271	note_on channel=15 note=42 velocity=0 time=18
5272	note_on channel=14 note=42 velocity=0 time=0
5273	note_on channel=14 note=42 velocity=127 time=2
5274	note_on channel=15 note=42 velocity=97 time=0
5275	note_on channel=15 note=42 velocity=0 time=24
5276	note_on channel=14 note=42 velocity=0 time=0
5277	note_on channel=14 note=40 velocity=121 time=6
5278	note_on channel=15 note=40 velocity=61 time=0
5279	note_on channel=15 note=40 velocity=0 time=26
5280	note_on channel=14 note=40 velocity=0 time=0
5281	note_on channel=14 note=40 velocity=123 time=4
5282	note_on channel=15 note=40 velocity=63 time=0
5283	note_on channel=15 note=40 velocity=0 time=30
5284	note_on channel=14 note=40 velocity=0 time=0
5285	note_on channel=14 note=42 velocity=127 time=0
5286	note_on channel=15 note=42 velocity=127 time=0
5287	note_on channel=15 note=42 velocity=0 time=26
5288	note_on channel=14 note=42 velocity=0 time=0
5289	note_on channel=14 note=42 velocity=127 time=4
5290	note_on channel=15 note=42 velocity=127 time=0
5291	note_on channel=15 note=42 velocity=0 time=28
5292	note_on channel=14 note=42 velocity=0 time=0
5293	note_on channel=14 note=40 velocity=119 time=2
5294	note_on channel=15 note=40 velocity=59 time=0
5295	note_on channel=15 note=40 velocity=0 time=28
5296	note_on channel=14 note=40 velocity=0 time=0
5297	note_on channel=14 note=40 velocity=120 time=2
5298	note_on channel=15 note=40 velocity=60 time=0
5299	note_on channel=15 note=40 velocity=0 time=26
5300	note_on channel=14 note=40 velocity=0 time=0
5301	note_on channel=14 note=42 velocity=127 time=4
5302	note_on channel=15 note=42 velocity=101 time=0
5303	note_on channel=15 note=42 velocity=0 time=26
5304	note_on channel=14 note=42 velocity=0 time=0
5305	note_on channel=14 note=42 velocity=127 time=4
5306	note_on channel=15 note=42 velocity=101 time=0
5307	note_on channel=15 note=42 velocity=0 time=26
5308	note_on channel=14 note=42 velocity=0 time=0
5309	note_on channel=14 note=40 velocity=97 time=4
5310	note_on channel=15 note=40 velocity=37 time=0
5311	note_on channel=15 note=40 velocity=0 time=24
5312	note_on channel=14 note=40 velocity=0 time=0
5313	note_on channel=14 note=40 velocity=97 time=6
5314	note_on channel=15 note=40 velocity=37 time=0
5315	note_on channel=15 note=40 velocity=0 time=28
5316	note_on channel=14 note=40 velocity=0 time=0
5317	note_on channel=14 note=42 velocity=117 time=2
5318	note_on channel=15 note=42 velocity=57 time=0
5319	note_on channel=15 note=42 velocity=0 time=29
5320	note_on channel=14 note=42 velocity=0 time=0
5321	note_on channel=14 note=42 velocity=118 time=1
5322	note_on channel=15 note=42 velocity=58 time=0
5323	note_on channel=15 note=42 velocity=0 time=29
5324	note_on channel=14 note=42 velocity=0 time=0
5325	note_on channel=14 note=40 velocity=72 time=1
5326	note_on channel=15 note=40 velocity=12 time=0
5327	note_on channel=15 note=40 velocity=0 time=29
5328	note_on channel=14 note=40 velocity=0 time=0
5329	note_on channel=14 note=40 velocity=71 time=1
5330	note_on channel=15 note=40 velocity=11 time=0
5331	note_on channel=1 note=30 velocity=0 time=18
5332	note_on channel=15 note=40 velocity=0 time=10
5333	note_on channel=14 note=40 velocity=0 time=0
5334	note_on channel=1 note=30 velocity=127 time=2
5335	note_on channel=9 note=36 velocity=127 time=0
5336	note_on channel=9 note=35 velocity=127 time=0
5337	note_on channel=14 note=42 velocity=77 time=0
5338	note_on channel=15 note=42 velocity=17 time=0
5339	note_on channel=9 note=35 velocity=0 time=10
5340	note_on channel=9 note=36 velocity=0 time=0
5341	note_on channel=1 note=30 velocity=0 time=18
5342	note_on channel=14 note=42 velocity=0 time=0
5343	note_on channel=15 note=42 velocity=0 time=0
5344	note_on channel=14 note=42 velocity=77 time=2
5345	note_on channel=15 note=42 velocity=17 time=0
5346	note_on channel=15 note=42 velocity=0 time=24
5347	note_on channel=14 note=42 velocity=0 time=0
5348	note_on channel=1 note=30 velocity=127 time=6
5349	note_on channel=14 note=40 velocity=77 time=0
5350	note_on channel=15 note=40 velocity=17 time=0
5351	note_on channel=1 note=30 velocity=0 time=24
5352	note_on channel=15 note=40 velocity=0 time=2
5353	note_on channel=14 note=40 velocity=0 time=0
5354	note_on channel=1 note=30 velocity=127 time=4
5355	note_on channel=14 note=40 velocity=77 time=0
5356	note_on channel=15 note=40 velocity=17 time=0
5357	note_on channel=1 note=30 velocity=0 time=26
5358	note_on channel=15 note=40 velocity=0 time=4
5359	note_on channel=14 note=40 velocity=0 time=0
5360	note_on channel=14 note=42 velocity=77 time=0
5361	note_on channel=15 note=42 velocity=17 time=0
5362	note_on channel=15 note=42 velocity=0 time=26
5363	note_on channel=14 note=42 velocity=0 time=0
5364	note_on channel=1 note=30 velocity=127 time=4
5365	note_on channel=14 note=42 velocity=79 time=0
5366	note_on channel=15 note=42 velocity=19 time=0
5367	note_on channel=1 note=30 velocity=0 time=26
5368	note_on channel=15 note=42 velocity=0 time=2
5369	note_on channel=14 note=42 velocity=0 time=0
5370	note_on channel=1 note=30 velocity=127 time=2
5371	note_on channel=14 note=40 velocity=79 time=0
5372	note_on channel=15 note=40 velocity=19 time=0
5373	note_on channel=15 note=40 velocity=0 time=28
5374	note_on channel=14 note=40 velocity=0 time=0
5375	note_on channel=1 note=30 velocity=0 time=0
5376	note_on channel=14 note=40 velocity=81 time=2
5377	note_on channel=15 note=40 velocity=21 time=0
5378	note_on channel=15 note=40 velocity=0 time=26
5379	note_on channel=14 note=40 velocity=0 time=0
5380	note_on channel=1 note=30 velocity=127 time=4
5381	note_on channel=14 note=42 velocity=81 time=0
5382	note_on channel=15 note=42 velocity=21 time=0
5383	note_on channel=15 note=42 velocity=0 time=26
5384	note_on channel=14 note=42 velocity=0 time=0
5385	note_on channel=1 note=30 velocity=0 time=4
5386	note_on channel=1 note=32 velocity=127 time=0
5387	note_on channel=14 note=42 velocity=82 time=0
5388	note_on channel=15 note=42 velocity=22 time=0
5389	note_on channel=15 note=42 velocity=0 time=26
5390	note_on channel=14 note=42 velocity=0 time=0
5391	note_on channel=1 note=32 velocity=0 time=4
5392	note_on channel=1 note=33 velocity=127 time=0
5393	note_on channel=14 note=40 velocity=83 time=0
5394	note_on channel=15 note=40 velocity=23 time=0
5395	note_on channel=15 note=40 velocity=0 time=24
5396	note_on channel=14 note=40 velocity=0 time=0
5397	note_on channel=1 note=33 velocity=0 time=4
5398	note_on channel=1 note=32 velocity=127 time=2
5399	note_on channel=14 note=40 velocity=83 time=0
5400	note_on channel=15 note=40 velocity=23 time=0
5401	note_on channel=15 note=40 velocity=0 time=28
5402	note_on channel=14 note=40 velocity=0 time=0
5403	note_on channel=1 note=32 velocity=0 time=0
5404	note_on channel=1 note=30 velocity=127 time=2
5405	note_on channel=14 note=42 velocity=83 time=0
5406	note_on channel=15 note=42 velocity=23 time=0
5407	note_on channel=1 note=30 velocity=0 time=24
5408	note_on channel=15 note=42 velocity=0 time=5
5409	note_on channel=14 note=42 velocity=0 time=0
5410	note_on channel=1 note=32 velocity=127 time=1
5411	note_on channel=14 note=42 velocity=83 time=0
5412	note_on channel=15 note=42 velocity=23 time=0
5413	note_on channel=15 note=42 velocity=0 time=29
5414	note_on channel=14 note=42 velocity=0 time=0
5415	note_on channel=1 note=32 velocity=0 time=1
5416	note_on channel=1 note=30 velocity=127 time=0
5417	note_on channel=14 note=40 velocity=83 time=0
5418	note_on channel=15 note=40 velocity=23 time=0
5419	note_on channel=1 note=30 velocity=0 time=26
5420	note_on channel=15 note=40 velocity=0 time=3
5421	note_on channel=14 note=40 velocity=0 time=0
5422	note_on channel=1 note=28 velocity=127 time=1
5423	note_on channel=14 note=40 velocity=83 time=0
5424	note_on channel=15 note=40 velocity=23 time=0
5425	note_on channel=1 note=28 velocity=0 time=26
5426	note_on channel=15 note=40 velocity=0 time=2
5427	note_on channel=14 note=40 velocity=0 time=0
5428	note_on channel=1 note=30 velocity=127 time=2
5429	note_on channel=9 note=36 velocity=127 time=0
5430	note_on channel=9 note=35 velocity=127 time=0
5431	note_on channel=14 note=42 velocity=127 time=0
5432	note_on channel=15 note=42 velocity=95 time=0
5433	note_on channel=9 note=35 velocity=0 time=10
5434	note_on channel=9 note=36 velocity=0 time=0
5435	note_on channel=15 note=42 velocity=0 time=18
5436	note_on channel=14 note=42 velocity=0 time=0
5437	note_on channel=14 note=42 velocity=127 time=2
5438	note_on channel=15 note=42 velocity=97 time=0
5439	note_on channel=15 note=42 velocity=0 time=24
5440	note_on channel=14 note=42 velocity=0 time=0
5441	note_on channel=14 note=40 velocity=121 time=6
5442	note_on channel=15 note=40 velocity=61 time=0
5443	note_on channel=15 note=40 velocity=0 time=26
5444	note_on channel=14 note=40 velocity=0 time=0
5445	note_on channel=14 note=40 velocity=123 time=4
5446	note_on channel=15 note=40 velocity=63 time=0
5447	note_on channel=15 note=40 velocity=0 time=30
5448	note_on channel=14 note=40 velocity=0 time=0
5449	note_on channel=14 note=42 velocity=127 time=0
5450	note_on channel=15 note=42 velocity=127 time=0
5451	note_on channel=15 note=42 velocity=0 time=26
5452	note_on channel=14 note=42 velocity=0 time=0
5453	note_on channel=14 note=42 velocity=127 time=4
5454	note_on channel=15 note=42 velocity=127 time=0
5455	note_on channel=15 note=42 velocity=0 time=28
5456	note_on channel=14 note=42 velocity=0 time=0
5457	note_on channel=14 note=40 velocity=119 time=2
5458	note_on channel=15 note=40 velocity=59 time=0
5459	note_on channel=15 note=40 velocity=0 time=28
5460	note_on channel=14 note=40 velocity=0 time=0
5461	note_on channel=14 note=40 velocity=120 time=2
5462	note_on channel=15 note=40 velocity=60 time=0
5463	note_on channel=15 note=40 velocity=0 time=26
5464	note_on channel=14 note=40 velocity=0 time=0
5465	note_on channel=14 note=42 velocity=127 time=4
5466	note_on channel=15 note=42 velocity=101 time=0
5467	note_on channel=15 note=42 velocity=0 time=26
5468	note_on channel=14 note=42 velocity=0 time=0
5469	note_on channel=14 note=42 velocity=127 time=4
5470	note_on channel=15 note=42 velocity=101 time=0
5471	note_on channel=15 note=42 velocity=0 time=26
5472	note_on channel=14 note=42 velocity=0 time=0
5473	note_on channel=14 note=40 velocity=97 time=4
5474	note_on channel=15 note=40 velocity=37 time=0
5475	note_on channel=15 note=40 velocity=0 time=24
5476	note_on channel=14 note=40 velocity=0 time=0
5477	note_on channel=14 note=40 velocity=97 time=6
5478	note_on channel=15 note=40 velocity=37 time=0
5479	note_on channel=15 note=40 velocity=0 time=28
5480	note_on channel=14 note=40 velocity=0 time=0
5481	note_on channel=14 note=42 velocity=117 time=2
5482	note_on channel=15 note=42 velocity=57 time=0
5483	note_on channel=15 note=42 velocity=0 time=29
5484	note_on channel=14 note=42 velocity=0 time=0
5485	note_on channel=14 note=42 velocity=118 time=1
5486	note_on channel=15 note=42 velocity=58 time=0
5487	note_on channel=15 note=42 velocity=0 time=29
5488	note_on channel=14 note=42 velocity=0 time=0
5489	note_on channel=14 note=40 velocity=72 time=1
5490	note_on channel=15 note=40 velocity=12 time=0
5491	note_on channel=15 note=40 velocity=0 time=29
5492	note_on channel=14 note=40 velocity=0 time=0
5493	note_on channel=14 note=40 velocity=71 time=1
5494	note_on channel=15 note=40 velocity=11 time=0
5495	note_on channel=1 note=30 velocity=0 time=18
5496	note_on channel=15 note=40 velocity=0 time=10
5497	note_on channel=14 note=40 velocity=0 time=0
5498	note_on channel=1 note=30 velocity=127 time=2
5499	note_on channel=9 note=36 velocity=127 time=0
5500	note_on channel=9 note=35 velocity=127 time=0
5501	note_on channel=14 note=42 velocity=77 time=0
5502	note_on channel=15 note=42 velocity=17 time=0
5503	note_on channel=9 note=35 velocity=0 time=10
5504	note_on channel=9 note=36 velocity=0 time=0
5505	note_on channel=1 note=30 velocity=0 time=18
5506	note_on channel=14 note=42 velocity=0 time=0
5507	note_on channel=15 note=42 velocity=0 time=0
5508	note_on channel=14 note=42 velocity=77 time=2
5509	note_on channel=15 note=42 velocity=17 time=0
5510	note_on channel=15 note=42 velocity=0 time=24
5511	note_on channel=14 note=42 velocity=0 time=0
5512	note_on channel=1 note=30 velocity=127 time=6
5513	note_on channel=14 note=40 velocity=77 time=0
5514	note_on channel=15 note=40 velocity=17 time=0
5515	note_on channel=1 note=30 velocity=0 time=24
5516	note_on channel=15 note=40 velocity=0 time=2
5517	note_on channel=14 note=40 velocity=0 time=0
5518	note_on channel=1 note=30 velocity=127 time=4
5519	note_on channel=14 note=40 velocity=77 time=0
5520	note_on channel=15 note=40 velocity=17 time=0
5521	note_on channel=1 note=30 velocity=0 time=26
5522	note_on channel=15 note=40 velocity=0 time=4
5523	note_on channel=14 note=40 velocity=0 time=0
5524	note_on channel=14 note=42 velocity=77 time=0
5525	note_on channel=15 note=42 velocity=17 time=0
5526	note_on channel=15 note=42 velocity=0 time=26
5527	note_on channel=14 note=42 velocity=0 time=0
5528	note_on channel=1 note=30 velocity=127 time=4
5529	note_on channel=14 note=42 velocity=79 time=0
5530	note_on channel=15 note=42 velocity=19 time=0
5531	note_on channel=1 note=30 velocity=0 time=26
5532	note_on channel=15 note=42 velocity=0 time=2
5533	note_on channel=14 note=42 velocity=0 time=0
5534	note_on channel=1 note=30 velocity=127 time=2
5535	note_on channel=14 note=40 velocity=79 time=0
5536	note_on channel=15 note=40 velocity=19 time=0
5537	note_on channel=15 note=40 velocity=0 time=28
5538	note_on channel=14 note=40 velocity=0 time=0
5539	note_on channel=1 note=30 velocity=0 time=0
5540	note_on channel=14 note=40 velocity=81 time=2
5541	note_on channel=15 note=40 velocity=21 time=0
5542	note_on channel=15 note=40 velocity=0 time=26
5543	note_on channel=14 note=40 velocity=0 time=0
5544	note_on channel=1 note=30 velocity=127 time=4
5545	note_on channel=14 note=42 velocity=81 time=0
5546	note_on channel=15 note=42 velocity=21 time=0
5547	note_on channel=15 note=42 velocity=0 time=26
5548	note_on channel=14 note=42 velocity=0 time=0
5549	note_on channel=1 note=30 velocity=0 time=4
5550	note_on channel=1 note=32 velocity=127 time=0
5551	note_on channel=14 note=42 velocity=82 time=0
5552	note_on channel=15 note=42 velocity=22 time=0
5553	note_on channel=15 note=42 velocity=0 time=26
5554	note_on channel=14 note=42 velocity=0 time=0
5555	note_on channel=1 note=32 velocity=0 time=4
5556	note_on channel=1 note=33 velocity=127 time=0
5557	note_on channel=14 note=40 velocity=83 time=0
5558	note_on channel=15 note=40 velocity=23 time=0
5559	note_on channel=15 note=40 velocity=0 time=24
5560	note_on channel=14 note=40 velocity=0 time=0
5561	note_on channel=1 note=33 velocity=0 time=4
5562	note_on channel=1 note=32 velocity=127 time=2
5563	note_on channel=14 note=40 velocity=83 time=0
5564	note_on channel=15 note=40 velocity=23 time=0
5565	note_on channel=15 note=40 velocity=0 time=28
5566	note_on channel=14 note=40 velocity=0 time=0
5567	note_on channel=1 note=32 velocity=0 time=0
5568	note_on channel=1 note=30 velocity=127 time=2
5569	note_on channel=14 note=42 velocity=83 time=0
5570	note_on channel=15 note=42 velocity=23 time=0
5571	note_on channel=1 note=30 velocity=0 time=24
5572	note_on channel=15 note=42 velocity=0 time=5
5573	note_on channel=14 note=42 velocity=0 time=0
5574	note_on channel=1 note=32 velocity=127 time=1
5575	note_on channel=14 note=42 velocity=83 time=0
5576	note_on channel=15 note=42 velocity=23 time=0
5577	note_on channel=15 note=42 velocity=0 time=29
5578	note_on channel=14 note=42 velocity=0 time=0
5579	note_on channel=1 note=32 velocity=0 time=1
5580	note_on channel=1 note=30 velocity=127 time=0
5581	note_on channel=9 note=38 velocity=67 time=0
5582	note_on channel=14 note=40 velocity=83 time=0
5583	note_on channel=15 note=40 velocity=23 time=0
5584	note_on channel=9 note=38 velocity=0 time=10
5585	note_on channel=1 note=30 velocity=0 time=16
5586	note_on channel=14 note=40 velocity=0 time=3
5587	note_on channel=15 note=40 velocity=0 time=0
5588	note_on channel=1 note=28 velocity=127 time=1
5589	note_on channel=9 note=38 velocity=67 time=0
5590	note_on channel=14 note=40 velocity=83 time=0
5591	note_on channel=15 note=40 velocity=23 time=0
5592	note_on channel=9 note=38 velocity=0 time=10
5593	note_on channel=1 note=28 velocity=0 time=16
5594	note_on channel=14 note=40 velocity=0 time=2
5595	note_on channel=15 note=40 velocity=0 time=0
5596	note_on channel=1 note=30 velocity=127 time=2
5597	note_on channel=9 note=36 velocity=127 time=0
5598	note_on channel=9 note=35 velocity=127 time=0
5599	note_on channel=9 note=62 velocity=111 time=0
5600	note_on channel=9 note=55 velocity=110 time=0
5601	note_on channel=14 note=42 velocity=127 time=0
5602	note_on channel=15 note=42 velocity=95 time=0
5603	note_on channel=9 note=55 velocity=0 time=10
5604	note_on channel=9 note=62 velocity=0 time=0
5605	note_on channel=9 note=35 velocity=0 time=0
5606	note_on channel=9 note=36 velocity=0 time=2
5607	note_on channel=14 note=42 velocity=0 time=16
5608	note_on channel=15 note=42 velocity=0 time=0
5609	note_on channel=9 note=63 velocity=60 time=2
5610	note_on channel=9 note=62 velocity=109 time=0
5611	note_on channel=14 note=42 velocity=127 time=0
5612	note_on channel=15 note=42 velocity=97 time=0
5613	note_on channel=9 note=62 velocity=0 time=10
5614	note_on channel=9 note=63 velocity=0 time=0
5615	note_on channel=15 note=42 velocity=0 time=14
5616	note_on channel=14 note=42 velocity=0 time=0
5617	note_on channel=9 note=82 velocity=109 time=6
5618	note_on channel=14 note=40 velocity=121 time=0
5619	note_on channel=15 note=40 velocity=61 time=0
5620	note_on channel=9 note=82 velocity=0 time=10
5621	note_on channel=15 note=40 velocity=0 time=16
5622	note_on channel=14 note=40 velocity=0 time=0
5623	note_on channel=14 note=40 velocity=123 time=4
5624	note_on channel=15 note=40 velocity=63 time=0
5625	note_on channel=15 note=40 velocity=0 time=30
5626	note_on channel=14 note=40 velocity=0 time=0
5627	note_on channel=9 note=38 velocity=85 time=0
5628	note_on channel=9 note=62 velocity=108 time=0
5629	note_on channel=9 note=37 velocity=127 time=0
5630	note_on channel=14 note=42 velocity=127 time=0
5631	note_on channel=15 note=42 velocity=127 time=0
5632	note_on channel=9 note=37 velocity=0 time=10
5633	note_on channel=9 note=62 velocity=0 time=0
5634	note_on channel=9 note=38 velocity=0 time=0
5635	note_on channel=15 note=42 velocity=0 time=16
5636	note_on channel=14 note=42 velocity=0 time=0
5637	note_on channel=14 note=42 velocity=127 time=4
5638	note_on channel=15 note=42 velocity=127 time=0
5639	note_on channel=15 note=42 velocity=0 time=28
5640	note_on channel=14 note=42 velocity=0 time=0
5641	note_on channel=9 note=82 velocity=111 time=2
5642	note_on channel=14 note=40 velocity=119 time=0
5643	note_on channel=15 note=40 velocity=59 time=0
5644	note_on channel=9 note=82 velocity=0 time=10
5645	note_on channel=15 note=40 velocity=0 time=18
5646	note_on channel=14 note=40 velocity=0 time=0
5647	note_on channel=9 note=62 velocity=109 time=2
5648	note_on channel=14 note=40 velocity=120 time=0
5649	note_on channel=15 note=40 velocity=60 time=0
5650	note_on channel=9 note=62 velocity=0 time=10
5651	note_on channel=15 note=40 velocity=0 time=16
5652	note_on channel=14 note=40 velocity=0 time=0
5653	note_on channel=9 note=64 velocity=68 time=4
5654	note_on channel=14 note=42 velocity=127 time=0
5655	note_on channel=15 note=42 velocity=101 time=0
5656	note_on channel=9 note=64 velocity=0 time=10
5657	note_on channel=15 note=42 velocity=0 time=16
5658	note_on channel=14 note=42 velocity=0 time=0
5659	note_on channel=9 note=63 velocity=58 time=4
5660	note_on channel=9 note=62 velocity=108 time=0
5661	note_on channel=14 note=42 velocity=127 time=0
5662	note_on channel=15 note=42 velocity=101 time=0
5663	note_on channel=9 note=62 velocity=0 time=10
5664	note_on channel=9 note=63 velocity=0 time=0
5665	note_on channel=15 note=42 velocity=0 time=16
5666	note_on channel=14 note=42 velocity=0 time=0
5667	note_on channel=9 note=82 velocity=110 time=4
5668	note_on channel=9 note=63 velocity=59 time=0
5669	note_on channel=14 note=40 velocity=97 time=0
5670	note_on channel=15 note=40 velocity=37 time=0
5671	note_on channel=9 note=63 velocity=0 time=10
5672	note_on channel=9 note=82 velocity=0 time=0
5673	note_on channel=15 note=40 velocity=0 time=14
5674	note_on channel=14 note=40 velocity=0 time=0
5675	note_on channel=9 note=63 velocity=59 time=6
5676	note_on channel=14 note=40 velocity=97 time=0
5677	note_on channel=15 note=40 velocity=37 time=0
5678	note_on channel=9 note=63 velocity=0 time=10
5679	note_on channel=15 note=40 velocity=0 time=18
5680	note_on channel=14 note=40 velocity=0 time=0
5681	note_on channel=9 note=38 velocity=86 time=2
5682	note_on channel=9 note=64 velocity=67 time=0
5683	note_on channel=9 note=37 velocity=127 time=0
5684	note_on channel=14 note=42 velocity=117 time=0
5685	note_on channel=15 note=42 velocity=57 time=0
5686	note_on channel=9 note=37 velocity=0 time=10
5687	note_on channel=9 note=64 velocity=0 time=0
5688	note_on channel=9 note=38 velocity=0 time=0
5689	note_on channel=15 note=42 velocity=0 time=19
5690	note_on channel=14 note=42 velocity=0 time=0
5691	note_on channel=9 note=62 velocity=109 time=1
5692	note_on channel=14 note=42 velocity=118 time=0
5693	note_on channel=15 note=42 velocity=58 time=0
5694	note_on channel=9 note=62 velocity=0 time=10
5695	note_on channel=15 note=42 velocity=0 time=19
5696	note_on channel=14 note=42 velocity=0 time=0
5697	note_on channel=9 note=36 velocity=127 time=1
5698	note_on channel=9 note=82 velocity=111 time=0
5699	note_on channel=9 note=62 velocity=108 time=0
5700	note_on channel=14 note=40 velocity=72 time=0
5701	note_on channel=15 note=40 velocity=12 time=0
5702	note_on channel=9 note=62 velocity=0 time=10
5703	note_on channel=9 note=82 velocity=0 time=0
5704	note_on channel=9 note=36 velocity=0 time=2
5705	note_on channel=15 note=40 velocity=0 time=17
5706	note_on channel=14 note=40 velocity=0 time=0
5707	note_on channel=9 note=35 velocity=127 time=1
5708	note_on channel=9 note=62 velocity=110 time=0
5709	note_on channel=14 note=40 velocity=71 time=0
5710	note_on channel=15 note=40 velocity=11 time=0
5711	note_on channel=9 note=62 velocity=0 time=10
5712	note_on channel=9 note=35 velocity=0 time=4
5713	note_on channel=1 note=30 velocity=0 time=4
5714	note_on channel=15 note=40 velocity=0 time=10
5715	note_on channel=14 note=40 velocity=0 time=0
5716	note_on channel=1 note=30 velocity=127 time=2
5717	note_on channel=9 note=36 velocity=127 time=0
5718	note_on channel=9 note=35 velocity=127 time=0
5719	note_on channel=9 note=62 velocity=111 time=0
5720	note_on channel=9 note=27 velocity=102 time=0
5721	note_on channel=14 note=42 velocity=77 time=0
5722	note_on channel=15 note=42 velocity=17 time=0
5723	note_on channel=9 note=27 velocity=0 time=10
5724	note_on channel=9 note=62 velocity=0 time=0
5725	note_on channel=9 note=35 velocity=0 time=0
5726	note_on channel=9 note=36 velocity=0 time=2
5727	note_on channel=1 note=30 velocity=0 time=16
5728	note_on channel=15 note=42 velocity=0 time=0
5729	note_on channel=14 note=42 velocity=0 time=0
5730	note_on channel=9 note=63 velocity=60 time=2
5731	note_on channel=9 note=62 velocity=109 time=0
5732	note_on channel=9 note=27 velocity=102 time=0
5733	note_on channel=14 note=42 velocity=77 time=0
5734	note_on channel=15 note=42 velocity=17 time=0
5735	note_on channel=9 note=27 velocity=0 time=10
5736	note_on channel=9 note=63 velocity=0 time=0
5737	note_on channel=9 note=62 velocity=0 time=0
5738	note_on channel=14 note=42 velocity=0 time=14
5739	note_on channel=15 note=42 velocity=0 time=0
5740	note_on channel=1 note=30 velocity=127 time=6
5741	note_on channel=9 note=82 velocity=109 time=0
5742	note_on channel=14 note=40 velocity=77 time=0
5743	note_on channel=15 note=40 velocity=17 time=0
5744	note_on channel=9 note=82 velocity=0 time=10
5745	note_on channel=1 note=30 velocity=0 time=14
5746	note_on channel=14 note=40 velocity=0 time=2
5747	note_on channel=15 note=40 velocity=0 time=0
5748	note_on channel=1 note=30 velocity=127 time=4
5749	note_on channel=14 note=40 velocity=77 time=0
5750	note_on channel=15 note=40 velocity=17 time=0
5751	note_on channel=1 note=30 velocity=0 time=26
5752	note_on channel=15 note=40 velocity=0 time=4
5753	note_on channel=14 note=40 velocity=0 time=0
5754	note_on channel=9 note=38 velocity=85 time=0
5755	note_on channel=9 note=62 velocity=108 time=0
5756	note_on channel=9 note=37 velocity=127 time=0
5757	note_on channel=14 note=42 velocity=77 time=0
5758	note_on channel=15 note=42 velocity=17 time=0
5759	note_on channel=9 note=37 velocity=0 time=10
5760	note_on channel=9 note=38 velocity=0 time=0
5761	note_on channel=9 note=62 velocity=0 time=0
5762	note_on channel=14 note=42 velocity=0 time=16
5763	note_on channel=15 note=42 velocity=0 time=0
5764	note_on channel=1 note=30 velocity=127 time=4
5765	note_on channel=14 note=42 velocity=79 time=0
5766	note_on channel=15 note=42 velocity=19 time=0
5767	note_on channel=1 note=30 velocity=0 time=26
5768	note_on channel=15 note=42 velocity=0 time=2
5769	note_on channel=14 note=42 velocity=0 time=0
5770	note_on channel=1 note=30 velocity=127 time=2
5771	note_on channel=9 note=82 velocity=111 time=0
5772	note_on channel=14 note=40 velocity=79 time=0
5773	note_on channel=15 note=40 velocity=19 time=0
5774	note_on channel=9 note=82 velocity=0 time=10
5775	note_on channel=1 note=30 velocity=0 time=18
5776	note_on channel=14 note=40 velocity=0 time=0
5777	note_on channel=15 note=40 velocity=0 time=0
5778	note_on channel=9 note=62 velocity=109 time=2
5779	note_on channel=14 note=40 velocity=81 time=0
5780	note_on channel=15 note=40 velocity=21 time=0
5781	note_on channel=9 note=62 velocity=0 time=10
5782	note_on channel=15 note=40 velocity=0 time=16
5783	note_on channel=14 note=40 velocity=0 time=0
5784	note_on channel=1 note=30 velocity=127 time=4
5785	note_on channel=9 note=64 velocity=68 time=0
5786	note_on channel=14 note=42 velocity=81 time=0
5787	note_on channel=15 note=42 velocity=21 time=0
5788	note_on channel=9 note=64 velocity=0 time=10
5789	note_on channel=15 note=42 velocity=0 time=16
5790	note_on channel=14 note=42 velocity=0 time=0
5791	note_on channel=1 note=30 velocity=0 time=4
5792	note_on channel=1 note=32 velocity=127 time=0
5793	note_on channel=9 note=63 velocity=58 time=0
5794	note_on channel=9 note=62 velocity=108 time=0
5795	note_on channel=14 note=42 velocity=82 time=0
5796	note_on channel=15 note=42 velocity=22 time=0
5797	note_on channel=9 note=62 velocity=0 time=10
5798	note_on channel=9 note=63 velocity=0 time=0
5799	note_on channel=15 note=42 velocity=0 time=16
5800	note_on channel=14 note=42 velocity=0 time=0
5801	note_on channel=1 note=32 velocity=0 time=4
5802	note_on channel=1 note=33 velocity=127 time=0
5803	note_on channel=9 note=82 velocity=110 time=0
5804	note_on channel=9 note=63 velocity=59 time=0
5805	note_on channel=14 note=40 velocity=83 time=0
5806	note_on channel=15 note=40 velocity=23 time=0
5807	note_on channel=9 note=63 velocity=0 time=10
5808	note_on channel=9 note=82 velocity=0 time=0
5809	note_on channel=15 note=40 velocity=0 time=14
5810	note_on channel=14 note=40 velocity=0 time=0
5811	note_on channel=1 note=33 velocity=0 time=4
5812	note_on channel=1 note=32 velocity=127 time=2
5813	note_on channel=9 note=63 velocity=59 time=0
5814	note_on channel=14 note=40 velocity=83 time=0
5815	note_on channel=15 note=40 velocity=23 time=0
5816	note_on channel=9 note=63 velocity=0 time=10
5817	note_on channel=1 note=32 velocity=0 time=18
5818	note_on channel=14 note=40 velocity=0 time=0
5819	note_on channel=15 note=40 velocity=0 time=0
5820	note_on channel=1 note=30 velocity=127 time=2
5821	note_on channel=9 note=38 velocity=86 time=0
5822	note_on channel=9 note=64 velocity=67 time=0
5823	note_on channel=9 note=37 velocity=127 time=0
5824	note_on channel=14 note=42 velocity=83 time=0
5825	note_on channel=15 note=42 velocity=23 time=0
5826	note_on channel=9 note=37 velocity=0 time=10
5827	note_on channel=9 note=64 velocity=0 time=0
5828	note_on channel=9 note=38 velocity=0 time=0
5829	note_on channel=1 note=30 velocity=0 time=14
5830	note_on channel=14 note=42 velocity=0 time=5
5831	note_on channel=15 note=42 velocity=0 time=0
5832	note_on channel=1 note=32 velocity=127 time=1
5833	note_on channel=9 note=62 velocity=109 time=0
5834	note_on channel=14 note=42 velocity=83 time=0
5835	note_on channel=15 note=42 velocity=23 time=0
5836	note_on channel=9 note=62 velocity=0 time=10
5837	note_on channel=15 note=42 velocity=0 time=19
5838	note_on channel=14 note=42 velocity=0 time=0
5839	note_on channel=1 note=32 velocity=0 time=1
5840	note_on channel=1 note=30 velocity=127 time=0
5841	note_on channel=9 note=36 velocity=127 time=0
5842	note_on channel=9 note=82 velocity=111 time=0
5843	note_on channel=9 note=62 velocity=108 time=0
5844	note_on channel=14 note=40 velocity=83 time=0
5845	note_on channel=15 note=40 velocity=23 time=0
5846	note_on channel=9 note=62 velocity=0 time=10
5847	note_on channel=9 note=82 velocity=0 time=0
5848	note_on channel=9 note=36 velocity=0 time=2
5849	note_on channel=1 note=30 velocity=0 time=14
5850	note_on channel=14 note=40 velocity=0 time=3
5851	note_on channel=15 note=40 velocity=0 time=0
5852	note_on channel=1 note=28 velocity=127 time=1
5853	note_on channel=9 note=35 velocity=127 time=0
5854	note_on channel=9 note=62 velocity=110 time=0
5855	note_on channel=14 note=40 velocity=83 time=0
5856	note_on channel=15 note=40 velocity=23 time=0
5857	note_on channel=9 note=62 velocity=0 time=10
5858	note_on channel=9 note=35 velocity=0 time=4
5859	note_on channel=1 note=28 velocity=0 time=12
5860	note_on channel=15 note=40 velocity=0 time=2
5861	note_on channel=14 note=40 velocity=0 time=0
5862	note_on channel=1 note=30 velocity=127 time=2
5863	note_on channel=9 note=36 velocity=127 time=0
5864	note_on channel=9 note=35 velocity=127 time=0
5865	note_on channel=9 note=62 velocity=111 time=0
5866	note_on channel=9 note=27 velocity=103 time=0
5867	note_on channel=14 note=42 velocity=127 time=0
5868	note_on channel=15 note=42 velocity=95 time=0
5869	note_on channel=9 note=27 velocity=0 time=10
5870	note_on channel=9 note=62 velocity=0 time=0
5871	note_on channel=9 note=35 velocity=0 time=0
5872	note_on channel=9 note=36 velocity=0 time=2
5873	note_on channel=14 note=42 velocity=0 time=16
5874	note_on channel=15 note=42 velocity=0 time=0
5875	note_on channel=9 note=63 velocity=60 time=2
5876	note_on channel=9 note=62 velocity=109 time=0
5877	note_on channel=9 note=27 velocity=102 time=0
5878	note_on channel=14 note=42 velocity=127 time=0
5879	note_on channel=15 note=42 velocity=97 time=0
5880	note_on channel=9 note=27 velocity=0 time=10
5881	note_on channel=9 note=62 velocity=0 time=0
5882	note_on channel=9 note=63 velocity=0 time=0
5883	note_on channel=15 note=42 velocity=0 time=14
5884	note_on channel=14 note=42 velocity=0 time=0
5885	note_on channel=9 note=82 velocity=109 time=6
5886	note_on channel=14 note=40 velocity=121 time=0
5887	note_on channel=15 note=40 velocity=61 time=0
5888	note_on channel=9 note=82 velocity=0 time=10
5889	note_on channel=15 note=40 velocity=0 time=16
5890	note_on channel=14 note=40 velocity=0 time=0
5891	note_on channel=14 note=40 velocity=123 time=4
5892	note_on channel=15 note=40 velocity=63 time=0
5893	note_on channel=15 note=40 velocity=0 time=30
5894	note_on channel=14 note=40 velocity=0 time=0
5895	note_on channel=9 note=38 velocity=85 time=0
5896	note_on channel=9 note=62 velocity=108 time=0
5897	note_on channel=9 note=37 velocity=127 time=0
5898	note_on channel=14 note=42 velocity=127 time=0
5899	note_on channel=15 note=42 velocity=127 time=0
5900	note_on channel=9 note=37 velocity=0 time=10
5901	note_on channel=9 note=62 velocity=0 time=0
5902	note_on channel=9 note=38 velocity=0 time=0
5903	note_on channel=15 note=42 velocity=0 time=16
5904	note_on channel=14 note=42 velocity=0 time=0
5905	note_on channel=14 note=42 velocity=127 time=4
5906	note_on channel=15 note=42 velocity=127 time=0
5907	note_on channel=15 note=42 velocity=0 time=28
5908	note_on channel=14 note=42 velocity=0 time=0
5909	note_on channel=9 note=82 velocity=111 time=2
5910	note_on channel=14 note=40 velocity=119 time=0
5911	note_on channel=15 note=40 velocity=59 time=0
5912	note_on channel=9 note=82 velocity=0 time=10
5913	note_on channel=15 note=40 velocity=0 time=18
5914	note_on channel=14 note=40 velocity=0 time=0
5915	note_on channel=9 note=62 velocity=109 time=2
5916	note_on channel=14 note=40 velocity=120 time=0
5917	note_on channel=15 note=40 velocity=60 time=0
5918	note_on channel=9 note=62 velocity=0 time=10
5919	note_on channel=15 note=40 velocity=0 time=16
5920	note_on channel=14 note=40 velocity=0 time=0
5921	note_on channel=9 note=64 velocity=68 time=4
5922	note_on channel=14 note=42 velocity=127 time=0
5923	note_on channel=15 note=42 velocity=101 time=0
5924	note_on channel=9 note=64 velocity=0 time=10
5925	note_on channel=15 note=42 velocity=0 time=16
5926	note_on channel=14 note=42 velocity=0 time=0
5927	note_on channel=9 note=63 velocity=58 time=4
5928	note_on channel=9 note=62 velocity=108 time=0
5929	note_on channel=14 note=42 velocity=127 time=0
5930	note_on channel=15 note=42 velocity=101 time=0
5931	note_on channel=9 note=62 velocity=0 time=10
5932	note_on channel=9 note=63 velocity=0 time=0
5933	note_on channel=15 note=42 velocity=0 time=16
5934	note_on channel=14 note=42 velocity=0 time=0
5935	note_on channel=9 note=82 velocity=110 time=4
5936	note_on channel=9 note=63 velocity=59 time=0
5937	note_on channel=14 note=40 velocity=97 time=0
5938	note_on channel=15 note=40 velocity=37 time=0
5939	note_on channel=9 note=63 velocity=0 time=10
5940	note_on channel=9 note=82 velocity=0 time=0
5941	note_on channel=15 note=40 velocity=0 time=14
5942	note_on channel=14 note=40 velocity=0 time=0
5943	note_on channel=9 note=63 velocity=59 time=6
5944	note_on channel=14 note=40 velocity=97 time=0
5945	note_on channel=15 note=40 velocity=37 time=0
5946	note_on channel=9 note=63 velocity=0 time=10
5947	note_on channel=15 note=40 velocity=0 time=18
5948	note_on channel=14 note=40 velocity=0 time=0
5949	note_on channel=9 note=38 velocity=86 time=2
5950	note_on channel=9 note=64 velocity=67 time=0
5951	note_on channel=9 note=37 velocity=127 time=0
5952	note_on channel=14 note=42 velocity=117 time=0
5953	note_on channel=15 note=42 velocity=57 time=0
5954	note_on channel=9 note=37 velocity=0 time=10
5955	note_on channel=9 note=64 velocity=0 time=0
5956	note_on channel=9 note=38 velocity=0 time=0
5957	note_on channel=15 note=42 velocity=0 time=19
5958	note_on channel=14 note=42 velocity=0 time=0
5959	note_on channel=9 note=62 velocity=109 time=1
5960	note_on channel=14 note=42 velocity=118 time=0
5961	note_on channel=15 note=42 velocity=58 time=0
5962	note_on channel=9 note=62 velocity=0 time=10
5963	note_on channel=15 note=42 velocity=0 time=19
5964	note_on channel=14 note=42 velocity=0 time=0
5965	note_on channel=9 note=36 velocity=127 time=1
5966	note_on channel=9 note=82 velocity=111 time=0
5967	note_on channel=9 note=62 velocity=108 time=0
5968	note_on channel=14 note=40 velocity=72 time=0
5969	note_on channel=15 note=40 velocity=12 time=0
5970	note_on channel=9 note=62 velocity=0 time=10
5971	note_on channel=9 note=82 velocity=0 time=0
5972	note_on channel=9 note=36 velocity=0 time=2
5973	note_on channel=15 note=40 velocity=0 time=17
5974	note_on channel=14 note=40 velocity=0 time=0
5975	note_on channel=9 note=35 velocity=127 time=1
5976	note_on channel=9 note=62 velocity=110 time=0
5977	note_on channel=14 note=40 velocity=71 time=0
5978	note_on channel=15 note=40 velocity=11 time=0
5979	note_on channel=9 note=62 velocity=0 time=10
5980	note_on channel=9 note=35 velocity=0 time=4
5981	note_on channel=1 note=30 velocity=0 time=4
5982	note_on channel=15 note=40 velocity=0 time=10
5983	note_on channel=14 note=40 velocity=0 time=0
5984	note_on channel=1 note=30 velocity=127 time=2
5985	note_on channel=9 note=36 velocity=127 time=0
5986	note_on channel=9 note=35 velocity=127 time=0
5987	note_on channel=9 note=62 velocity=111 time=0
5988	note_on channel=9 note=27 velocity=103 time=0
5989	note_on channel=14 note=42 velocity=77 time=0
5990	note_on channel=15 note=42 velocity=17 time=0
5991	note_on channel=9 note=27 velocity=0 time=10
5992	note_on channel=9 note=62 velocity=0 time=0
5993	note_on channel=9 note=35 velocity=0 time=0
5994	note_on channel=9 note=36 velocity=0 time=2
5995	note_on channel=1 note=30 velocity=0 time=16
5996	note_on channel=15 note=42 velocity=0 time=0
5997	note_on channel=14 note=42 velocity=0 time=0
5998	note_on channel=9 note=63 velocity=60 time=2
5999	note_on channel=9 note=62 velocity=109 time=0
6000	note_on channel=9 note=27 velocity=102 time=0
6001	note_on channel=14 note=42 velocity=77 time=0
6002	note_on channel=15 note=42 velocity=17 time=0
6003	note_on channel=9 note=27 velocity=0 time=10
6004	note_on channel=9 note=63 velocity=0 time=0
6005	note_on channel=9 note=62 velocity=0 time=0
6006	note_on channel=14 note=42 velocity=0 time=14
6007	note_on channel=15 note=42 velocity=0 time=0
6008	note_on channel=1 note=30 velocity=127 time=6
6009	note_on channel=9 note=82 velocity=109 time=0
6010	note_on channel=14 note=40 velocity=77 time=0
6011	note_on channel=15 note=40 velocity=17 time=0
6012	note_on channel=9 note=82 velocity=0 time=10
6013	note_on channel=1 note=30 velocity=0 time=14
6014	note_on channel=14 note=40 velocity=0 time=2
6015	note_on channel=15 note=40 velocity=0 time=0
6016	note_on channel=1 note=30 velocity=127 time=4
6017	note_on channel=14 note=40 velocity=77 time=0
6018	note_on channel=15 note=40 velocity=17 time=0
6019	note_on channel=1 note=30 velocity=0 time=26
6020	note_on channel=15 note=40 velocity=0 time=4
6021	note_on channel=14 note=40 velocity=0 time=0
6022	note_on channel=9 note=38 velocity=85 time=0
6023	note_on channel=9 note=62 velocity=108 time=0
6024	note_on channel=9 note=37 velocity=127 time=0
6025	note_on channel=14 note=42 velocity=77 time=0
6026	note_on channel=15 note=42 velocity=17 time=0
6027	note_on channel=9 note=37 velocity=0 time=10
6028	note_on channel=9 note=38 velocity=0 time=0
6029	note_on channel=9 note=62 velocity=0 time=0
6030	note_on channel=14 note=42 velocity=0 time=16
6031	note_on channel=15 note=42 velocity=0 time=0
6032	note_on channel=1 note=30 velocity=127 time=4
6033	note_on channel=14 note=42 velocity=79 time=0
6034	note_on channel=15 note=42 velocity=19 time=0
6035	note_on channel=1 note=30 velocity=0 time=26
6036	note_on channel=15 note=42 velocity=0 time=2
6037	note_on channel=14 note=42 velocity=0 time=0
6038	note_on channel=1 note=30 velocity=127 time=2
6039	note_on channel=9 note=82 velocity=111 time=0
6040	note_on channel=14 note=40 velocity=79 time=0
6041	note_on channel=15 note=40 velocity=19 time=0
6042	note_on channel=9 note=82 velocity=0 time=10
6043	note_on channel=1 note=30 velocity=0 time=18
6044	note_on channel=14 note=40 velocity=0 time=0
6045	note_on channel=15 note=40 velocity=0 time=0
6046	note_on channel=9 note=62 velocity=109 time=2
6047	note_on channel=14 note=40 velocity=81 time=0
6048	note_on channel=15 note=40 velocity=21 time=0
6049	note_on channel=9 note=62 velocity=0 time=10
6050	note_on channel=15 note=40 velocity=0 time=16
6051	note_on channel=14 note=40 velocity=0 time=0
6052	note_on channel=1 note=30 velocity=127 time=4
6053	note_on channel=9 note=64 velocity=68 time=0
6054	note_on channel=14 note=42 velocity=81 time=0
6055	note_on channel=15 note=42 velocity=21 time=0
6056	note_on channel=9 note=64 velocity=0 time=10
6057	note_on channel=15 note=42 velocity=0 time=16
6058	note_on channel=14 note=42 velocity=0 time=0
6059	note_on channel=1 note=30 velocity=0 time=4
6060	note_on channel=1 note=32 velocity=127 time=0
6061	note_on channel=9 note=63 velocity=58 time=0
6062	note_on channel=9 note=62 velocity=108 time=0
6063	note_on channel=14 note=42 velocity=82 time=0
6064	note_on channel=15 note=42 velocity=22 time=0
6065	note_on channel=9 note=62 velocity=0 time=10
6066	note_on channel=9 note=63 velocity=0 time=0
6067	note_on channel=15 note=42 velocity=0 time=16
6068	note_on channel=14 note=42 velocity=0 time=0
6069	note_on channel=1 note=32 velocity=0 time=4
6070	note_on channel=1 note=33 velocity=127 time=0
6071	note_on channel=9 note=82 velocity=110 time=0
6072	note_on channel=9 note=63 velocity=59 time=0
6073	note_on channel=14 note=40 velocity=83 time=0
6074	note_on channel=15 note=40 velocity=23 time=0
6075	note_on channel=9 note=63 velocity=0 time=10
6076	note_on channel=9 note=82 velocity=0 time=0
6077	note_on channel=15 note=40 velocity=0 time=14
6078	note_on channel=14 note=40 velocity=0 time=0
6079	note_on channel=1 note=33 velocity=0 time=4
6080	note_on channel=1 note=32 velocity=127 time=2
6081	note_on channel=9 note=63 velocity=59 time=0
6082	note_on channel=14 note=40 velocity=83 time=0
6083	note_on channel=15 note=40 velocity=23 time=0
6084	note_on channel=9 note=63 velocity=0 time=10
6085	note_on channel=1 note=32 velocity=0 time=18
6086	note_on channel=14 note=40 velocity=0 time=0
6087	note_on channel=15 note=40 velocity=0 time=0
6088	note_on channel=1 note=30 velocity=127 time=2
6089	note_on channel=9 note=38 velocity=86 time=0
6090	note_on channel=9 note=64 velocity=67 time=0
6091	note_on channel=9 note=37 velocity=127 time=0
6092	note_on channel=14 note=42 velocity=83 time=0
6093	note_on channel=15 note=42 velocity=23 time=0
6094	note_on channel=9 note=37 velocity=0 time=10
6095	note_on channel=9 note=64 velocity=0 time=0
6096	note_on channel=9 note=38 velocity=0 time=0
6097	note_on channel=1 note=30 velocity=0 time=14
6098	note_on channel=14 note=42 velocity=0 time=5
6099	note_on channel=15 note=42 velocity=0 time=0
6100	note_on channel=1 note=32 velocity=127 time=1
6101	note_on channel=9 note=62 velocity=109 time=0
6102	note_on channel=14 note=42 velocity=83 time=0
6103	note_on channel=15 note=42 velocity=23 time=0
6104	note_on channel=9 note=62 velocity=0 time=10
6105	note_on channel=15 note=42 velocity=0 time=19
6106	note_on channel=14 note=42 velocity=0 time=0
6107	note_on channel=1 note=32 velocity=0 time=1
6108	note_on channel=1 note=30 velocity=127 time=0
6109	note_on channel=9 note=36 velocity=127 time=0
6110	note_on channel=9 note=82 velocity=111 time=0
6111	note_on channel=9 note=62 velocity=108 time=0
6112	note_on channel=14 note=40 velocity=83 time=0
6113	note_on channel=15 note=40 velocity=23 time=0
6114	note_on channel=9 note=62 velocity=0 time=10
6115	note_on channel=9 note=82 velocity=0 time=0
6116	note_on channel=9 note=36 velocity=0 time=2
6117	note_on channel=1 note=30 velocity=0 time=14
6118	note_on channel=14 note=40 velocity=0 time=3
6119	note_on channel=15 note=40 velocity=0 time=0
6120	note_on channel=1 note=28 velocity=127 time=1
6121	note_on channel=9 note=35 velocity=127 time=0
6122	note_on channel=9 note=62 velocity=110 time=0
6123	note_on channel=14 note=40 velocity=83 time=0
6124	note_on channel=15 note=40 velocity=23 time=0
6125	note_on channel=9 note=62 velocity=0 time=10
6126	note_on channel=9 note=35 velocity=0 time=4
6127	note_on channel=1 note=28 velocity=0 time=12
6128	note_on channel=15 note=40 velocity=0 time=2
6129	note_on channel=14 note=40 velocity=0 time=0
6130	note_on channel=1 note=30 velocity=127 time=2
6131	note_on channel=9 note=36 velocity=127 time=0
6132	note_on channel=9 note=35 velocity=127 time=0
6133	note_on channel=9 note=62 velocity=111 time=0
6134	note_on channel=13 note=66 velocity=99 time=0
6135	note_on channel=14 note=66 velocity=127 time=0
6136	note_on channel=15 note=42 velocity=95 time=0
6137	note_on channel=9 note=62 velocity=0 time=10
6138	note_on channel=9 note=35 velocity=0 time=0
6139	note_on channel=9 note=36 velocity=0 time=2
6140	note_on channel=13 note=66 velocity=0 time=16
6141	note_on channel=15 note=42 velocity=0 time=0
6142	note_on channel=14 note=66 velocity=0 time=0
6143	note_on channel=9 note=63 velocity=60 time=2
6144	note_on channel=9 note=62 velocity=109 time=0
6145	note_on channel=13 note=68 velocity=99 time=0
6146	note_on channel=14 note=68 velocity=127 time=0
6147	note_on channel=15 note=42 velocity=97 time=0
6148	note_on channel=9 note=62 velocity=0 time=10
6149	note_on channel=9 note=63 velocity=0 time=0
6150	note_on channel=13 note=68 velocity=0 time=14
6151	note_on channel=14 note=68 velocity=0 time=0
6152	note_on channel=15 note=42 velocity=0 time=0
6153	note_on channel=9 note=82 velocity=109 time=6
6154	note_on channel=13 note=69 velocity=97 time=0
6155	note_on channel=14 note=69 velocity=127 time=0
6156	note_on channel=15 note=40 velocity=61 time=0
6157	note_on channel=9 note=82 velocity=0 time=10
6158	note_on channel=15 note=40 velocity=0 time=16
6159	note_on channel=14 note=69 velocity=0 time=2
6160	note_on channel=13 note=69 velocity=0 time=0
6161	note_on channel=13 note=71 velocity=97 time=2
6162	note_on channel=14 note=71 velocity=127 time=0
6163	note_on channel=15 note=40 velocity=63 time=0
6164	note_on channel=14 note=71 velocity=0 time=26
6165	note_on channel=13 note=71 velocity=0 time=0
6166	note_on channel=15 note=40 velocity=0 time=4
6167	note_on channel=9 note=38 velocity=85 time=0
6168	note_on channel=9 note=62 velocity=108 time=0
6169	note_on channel=9 note=37 velocity=127 time=0
6170	note_on channel=13 note=73 velocity=97 time=0
6171	note_on channel=14 note=73 velocity=127 time=0
6172	note_on channel=15 note=42 velocity=127 time=0
6173	note_on channel=9 note=37 velocity=0 time=10
6174	note_on channel=9 note=62 velocity=0 time=0
6175	note_on channel=9 note=38 velocity=0 time=0
6176	note_on channel=15 note=42 velocity=0 time=16
6177	note_on channel=13 note=73 velocity=0 time=2
6178	note_on channel=14 note=73 velocity=0 time=0
6179	note_on channel=13 note=74 velocity=97 time=2
6180	note_on channel=14 note=74 velocity=127 time=0
6181	note_on channel=15 note=42 velocity=127 time=0
6182	note_on channel=14 note=74 velocity=0 time=24
6183	note_on channel=13 note=74 velocity=0 time=0
6184	note_on channel=15 note=42 velocity=0 time=4
6185	note_on channel=9 note=82 velocity=111 time=2
6186	note_on channel=13 note=76 velocity=96 time=0
6187	note_on channel=14 note=76 velocity=127 time=0
6188	note_on channel=15 note=40 velocity=59 time=0
6189	note_on channel=9 note=82 velocity=0 time=10
6190	note_on channel=14 note=76 velocity=0 time=16
6191	note_on channel=13 note=76 velocity=0 time=0
6192	note_on channel=15 note=40 velocity=0 time=2
6193	note_on channel=9 note=62 velocity=109 time=2
6194	note_on channel=13 note=78 velocity=97 time=0
6195	note_on channel=14 note=78 velocity=127 time=0
6196	note_on channel=15 note=40 velocity=60 time=0
6197	note_on channel=9 note=62 velocity=0 time=10
6198	note_on channel=14 note=78 velocity=0 time=16
6199	note_on channel=15 note=40 velocity=0 time=0
6200	note_on channel=13 note=78 velocity=0 time=0
6201	note_on channel=9 note=64 velocity=68 time=4
6202	note_on channel=13 note=78 velocity=97 time=0
6203	note_on channel=14 note=78 velocity=127 time=0
6204	note_on channel=15 note=42 velocity=101 time=0
6205	note_on channel=9 note=64 velocity=0 time=10
6206	note_on channel=15 note=42 velocity=0 time=16
6207	note_on channel=14 note=78 velocity=0 time=2
6208	note_on channel=13 note=78 velocity=0 time=0
6209	note_on channel=9 note=63 velocity=58 time=2
6210	note_on channel=9 note=62 velocity=108 time=0
6211	note_on channel=13 note=80 velocity=94 time=0
6212	note_on channel=14 note=80 velocity=127 time=0
6213	note_on channel=15 note=42 velocity=101 time=0
6214	note_on channel=9 note=62 velocity=0 time=10
6215	note_on channel=9 note=63 velocity=0 time=0
6216	note_on channel=13 note=80 velocity=0 time=14
6217	note_on channel=14 note=80 velocity=0 time=0
6218	note_on channel=15 note=42 velocity=0 time=2
6219	note_on channel=9 note=82 velocity=110 time=4
6220	note_on channel=9 note=63 velocity=59 time=0
6221	note_on channel=13 note=81 velocity=96 time=0
6222	note_on channel=14 note=81 velocity=127 time=0
6223	note_on channel=15 note=40 velocity=37 time=0
6224	note_on channel=9 note=63 velocity=0 time=10
6225	note_on channel=9 note=82 velocity=0 time=0
6226	note_on channel=15 note=40 velocity=0 time=14
6227	note_on channel=14 note=81 velocity=0 time=4
6228	note_on channel=13 note=81 velocity=0 time=0
6229	note_on channel=9 note=63 velocity=59 time=2
6230	note_on channel=13 note=83 velocity=96 time=0
6231	note_on channel=14 note=83 velocity=127 time=0
6232	note_on channel=15 note=40 velocity=37 time=0
6233	note_on channel=9 note=63 velocity=0 time=10
6234	note_on channel=15 note=40 velocity=0 time=18
6235	note_on channel=14 note=83 velocity=0 time=2
6236	note_on channel=13 note=83 velocity=0 time=0
6237	note_on channel=9 note=38 velocity=86 time=0
6238	note_on channel=9 note=64 velocity=67 time=0
6239	note_on channel=9 note=37 velocity=127 time=0
6240	note_on channel=13 note=85 velocity=97 time=0
6241	note_on channel=14 note=85 velocity=127 time=0
6242	note_on channel=15 note=42 velocity=57 time=0
6243	note_on channel=9 note=37 velocity=0 time=10
6244	note_on channel=9 note=64 velocity=0 time=0
6245	note_on channel=9 note=38 velocity=0 time=0
6246	note_on channel=15 note=42 velocity=0 time=19
6247	note_on channel=9 note=62 velocity=109 time=1
6248	note_on channel=13 note=86 velocity=97 time=0
6249	note_on channel=14 note=86 velocity=127 time=0
6250	note_on channel=15 note=42 velocity=58 time=0
6251	note_on channel=13 note=85 velocity=0 time=4
6252	note_on channel=14 note=85 velocity=0 time=0
6253	note_on channel=9 note=62 velocity=0 time=6
6254	note_on channel=15 note=42 velocity=0 time=19
6255	note_on channel=14 note=86 velocity=0 time=1
6256	note_on channel=13 note=86 velocity=0 time=0
6257	note_on channel=9 note=36 velocity=127 time=0
6258	note_on channel=9 note=82 velocity=111 time=0
6259	note_on channel=9 note=62 velocity=108 time=0
6260	note_on channel=13 note=88 velocity=99 time=0
6261	note_on channel=14 note=88 velocity=127 time=0
6262	note_on channel=15 note=40 velocity=12 time=0
6263	note_on channel=9 note=62 velocity=0 time=10
6264	note_on channel=9 note=82 velocity=0 time=0
6265	note_on channel=9 note=36 velocity=0 time=2
6266	note_on channel=13 note=88 velocity=0 time=14
6267	note_on channel=14 note=88 velocity=0 time=0
6268	note_on channel=15 note=40 velocity=0 time=3
6269	note_on channel=9 note=35 velocity=127 time=1
6270	note_on channel=9 note=62 velocity=110 time=0
6271	note_on channel=13 note=90 velocity=98 time=0
6272	note_on channel=14 note=90 velocity=127 time=0
6273	note_on channel=15 note=40 velocity=11 time=0
6274	note_on channel=9 note=62 velocity=0 time=10
6275	note_on channel=9 note=35 velocity=0 time=4
6276	note_on channel=1 note=30 velocity=0 time=4
6277	note_on channel=13 note=90 velocity=0 time=8
6278	note_on channel=14 note=90 velocity=0 time=0
6279	note_on channel=15 note=40 velocity=0 time=2
6280	note_on channel=1 note=30 velocity=127 time=2
6281	note_on channel=9 note=36 velocity=127 time=0
6282	note_on channel=9 note=35 velocity=127 time=0
6283	note_on channel=14 note=42 velocity=127 time=0
6284	note_on channel=15 note=42 velocity=95 time=0
6285	note_on channel=9 note=35 velocity=0 time=10
6286	note_on channel=9 note=36 velocity=0 time=0
6287	note_on channel=15 note=42 velocity=0 time=18
6288	note_on channel=14 note=42 velocity=0 time=0
6289	note_on channel=14 note=42 velocity=127 time=2
6290	note_on channel=15 note=42 velocity=97 time=0
6291	note_on channel=15 note=42 velocity=0 time=24
6292	note_on channel=14 note=42 velocity=0 time=0
6293	note_on channel=14 note=40 velocity=121 time=6
6294	note_on channel=15 note=40 velocity=61 time=0
6295	note_on channel=15 note=40 velocity=0 time=26
6296	note_on channel=14 note=40 velocity=0 time=0
6297	note_on channel=14 note=40 velocity=123 time=4
6298	note_on channel=15 note=40 velocity=63 time=0
6299	note_on channel=15 note=40 velocity=0 time=30
6300	note_on channel=14 note=40 velocity=0 time=0
6301	note_on channel=14 note=42 velocity=127 time=0
6302	note_on channel=15 note=42 velocity=127 time=0
6303	note_on channel=15 note=42 velocity=0 time=26
6304	note_on channel=14 note=42 velocity=0 time=0
6305	note_on channel=14 note=42 velocity=127 time=4
6306	note_on channel=15 note=42 velocity=127 time=0
6307	note_on channel=15 note=42 velocity=0 time=28
6308	note_on channel=14 note=42 velocity=0 time=0
6309	note_on channel=14 note=40 velocity=119 time=2
6310	note_on channel=15 note=40 velocity=59 time=0
6311	note_on channel=15 note=40 velocity=0 time=28
6312	note_on channel=14 note=40 velocity=0 time=0
6313	note_on channel=14 note=40 velocity=120 time=2
6314	note_on channel=15 note=40 velocity=60 time=0
6315	note_on channel=15 note=40 velocity=0 time=26
6316	note_on channel=14 note=40 velocity=0 time=0
6317	note_on channel=14 note=42 velocity=127 time=4
6318	note_on channel=15 note=42 velocity=101 time=0
6319	note_on channel=15 note=42 velocity=0 time=26
6320	note_on channel=14 note=42 velocity=0 time=0
6321	note_on channel=14 note=42 velocity=127 time=4
6322	note_on channel=15 note=42 velocity=101 time=0
6323	note_on channel=15 note=42 velocity=0 time=26
6324	note_on channel=14 note=42 velocity=0 time=0
6325	note_on channel=14 note=40 velocity=97 time=4
6326	note_on channel=15 note=40 velocity=37 time=0
6327	note_on channel=15 note=40 velocity=0 time=24
6328	note_on channel=14 note=40 velocity=0 time=0
6329	note_on channel=14 note=40 velocity=97 time=6
6330	note_on channel=15 note=40 velocity=37 time=0
6331	note_on channel=15 note=40 velocity=0 time=28
6332	note_on channel=14 note=40 velocity=0 time=0
6333	note_on channel=14 note=42 velocity=117 time=2
6334	note_on channel=15 note=42 velocity=57 time=0
6335	note_on channel=15 note=42 velocity=0 time=29
6336	note_on channel=14 note=42 velocity=0 time=0
6337	note_on channel=14 note=42 velocity=118 time=1
6338	note_on channel=15 note=42 velocity=58 time=0
6339	note_on channel=15 note=42 velocity=0 time=29
6340	note_on channel=14 note=42 velocity=0 time=0
6341	note_on channel=14 note=40 velocity=72 time=1
6342	note_on channel=15 note=40 velocity=12 time=0
6343	note_on channel=15 note=40 velocity=0 time=29
6344	note_on channel=14 note=40 velocity=0 time=0
6345	note_on channel=14 note=40 velocity=71 time=1
6346	note_on channel=15 note=40 velocity=11 time=0
6347	note_on channel=1 note=30 velocity=0 time=18
6348	note_on channel=15 note=40 velocity=0 time=10
6349	note_on channel=14 note=40 velocity=0 time=0
6350	note_on channel=1 note=25 velocity=127 time=2
6351	note_on channel=9 note=36 velocity=127 time=0
6352	note_on channel=9 note=35 velocity=127 time=0
6353	note_on channel=14 note=37 velocity=127 time=0
6354	note_on channel=15 note=37 velocity=95 time=0
6355	note_on channel=9 note=35 velocity=0 time=10
6356	note_on channel=9 note=36 velocity=0 time=0
6357	note_on channel=15 note=37 velocity=0 time=18
6358	note_on channel=14 note=37 velocity=0 time=0
6359	note_on channel=14 note=37 velocity=127 time=2
6360	note_on channel=15 note=37 velocity=97 time=0
6361	note_on channel=15 note=37 velocity=0 time=24
6362	note_on channel=14 note=37 velocity=0 time=0
6363	note_on channel=14 note=35 velocity=121 time=6
6364	note_on channel=15 note=35 velocity=61 time=0
6365	note_on channel=15 note=35 velocity=0 time=26
6366	note_on channel=14 note=35 velocity=0 time=0
6367	note_on channel=14 note=35 velocity=123 time=4
6368	note_on channel=15 note=35 velocity=63 time=0
6369	note_on channel=15 note=35 velocity=0 time=30
6370	note_on channel=14 note=35 velocity=0 time=0
6371	note_on channel=14 note=37 velocity=127 time=0
6372	note_on channel=15 note=37 velocity=127 time=0
6373	note_on channel=15 note=37 velocity=0 time=26
6374	note_on channel=14 note=37 velocity=0 time=0
6375	note_on channel=14 note=37 velocity=127 time=4
6376	note_on channel=15 note=37 velocity=127 time=0
6377	note_on channel=15 note=37 velocity=0 time=28
6378	note_on channel=14 note=37 velocity=0 time=0
6379	note_on channel=14 note=35 velocity=119 time=2
6380	note_on channel=15 note=35 velocity=59 time=0
6381	note_on channel=15 note=35 velocity=0 time=28
6382	note_on channel=14 note=35 velocity=0 time=0
6383	note_on channel=14 note=35 velocity=120 time=2
6384	note_on channel=15 note=35 velocity=60 time=0
6385	note_on channel=15 note=35 velocity=0 time=26
6386	note_on channel=14 note=35 velocity=0 time=0
6387	note_on channel=14 note=37 velocity=127 time=4
6388	note_on channel=15 note=37 velocity=101 time=0
6389	note_on channel=15 note=37 velocity=0 time=26
6390	note_on channel=14 note=37 velocity=0 time=0
6391	note_on channel=14 note=37 velocity=127 time=4
6392	note_on channel=15 note=37 velocity=101 time=0
6393	note_on channel=15 note=37 velocity=0 time=26
6394	note_on channel=14 note=37 velocity=0 time=0
6395	note_on channel=14 note=35 velocity=97 time=4
6396	note_on channel=15 note=35 velocity=37 time=0
6397	note_on channel=15 note=35 velocity=0 time=24
6398	note_on channel=14 note=35 velocity=0 time=0
6399	note_on channel=14 note=35 velocity=97 time=6
6400	note_on channel=15 note=35 velocity=37 time=0
6401	note_on channel=15 note=35 velocity=0 time=28
6402	note_on channel=14 note=35 velocity=0 time=0
6403	note_on channel=14 note=37 velocity=117 time=2
6404	note_on channel=15 note=37 velocity=57 time=0
6405	note_on channel=15 note=37 velocity=0 time=29
6406	note_on channel=14 note=37 velocity=0 time=0
6407	note_on channel=14 note=37 velocity=118 time=1
6408	note_on channel=15 note=37 velocity=58 time=0
6409	note_on channel=15 note=37 velocity=0 time=29
6410	note_on channel=14 note=37 velocity=0 time=0
6411	note_on channel=14 note=35 velocity=72 time=1
6412	note_on channel=15 note=35 velocity=12 time=0
6413	note_on channel=15 note=35 velocity=0 time=29
6414	note_on channel=14 note=35 velocity=0 time=0
6415	note_on channel=14 note=35 velocity=71 time=1
6416	note_on channel=15 note=35 velocity=11 time=0
6417	note_on channel=1 note=25 velocity=0 time=18
6418	note_on channel=15 note=35 velocity=0 time=10
6419	note_on channel=14 note=35 velocity=0 time=0
6420	note_on channel=9 note=36 velocity=127 time=2
6421	note_on channel=9 note=35 velocity=127 time=0
6422	note_on channel=9 note=82 velocity=108 time=0
6423	note_on channel=9 note=27 velocity=119 time=0
6424	note_on channel=9 note=27 velocity=0 time=10
6425	note_on channel=9 note=36 velocity=0 time=0
6426	note_on channel=9 note=35 velocity=0 time=0
6427	note_on channel=9 note=82 velocity=0 time=0
6428	note_on channel=9 note=35 velocity=127 time=20
6429	note_on channel=9 note=27 velocity=119 time=0
6430	note_on channel=9 note=27 velocity=0 time=10
6431	note_on channel=9 note=35 velocity=0 time=0
6432	note_on channel=9 note=82 velocity=90 time=20
6433	note_on channel=9 note=82 velocity=0 time=10
6434	note_on channel=9 note=35 velocity=127 time=20
6435	note_on channel=9 note=27 velocity=119 time=0
6436	note_on channel=9 note=27 velocity=0 time=10
6437	note_on channel=9 note=35 velocity=0 time=0
6438	note_on channel=9 note=35 velocity=127 time=20
6439	note_on channel=9 note=82 velocity=88 time=0
6440	note_on channel=9 note=27 velocity=119 time=0
6441	note_on channel=9 note=27 velocity=0 time=10
6442	note_on channel=9 note=82 velocity=0 time=0
6443	note_on channel=9 note=35 velocity=0 time=0
6444	note_on channel=9 note=35 velocity=127 time=20
6445	note_on channel=9 note=27 velocity=119 time=0
6446	note_on channel=9 note=27 velocity=0 time=10
6447	note_on channel=9 note=35 velocity=0 time=0
6448	note_on channel=9 note=35 velocity=127 time=20
6449	note_on channel=9 note=38 velocity=88 time=0
6450	note_on channel=9 note=82 velocity=67 time=0
6451	note_on channel=9 note=37 velocity=127 time=0
6452	note_on channel=9 note=27 velocity=119 time=0
6453	note_on channel=9 note=27 velocity=0 time=10
6454	note_on channel=9 note=82 velocity=0 time=0
6455	note_on channel=9 note=35 velocity=0 time=0
6456	note_on channel=9 note=38 velocity=0 time=0
6457	note_on channel=9 note=37 velocity=0 time=0
6458	note_on channel=9 note=35 velocity=127 time=20
6459	note_on channel=9 note=27 velocity=119 time=0
6460	note_on channel=9 note=27 velocity=0 time=10
6461	note_on channel=9 note=35 velocity=0 time=0
6462	note_on channel=9 note=35 velocity=127 time=20
6463	note_on channel=9 note=82 velocity=109 time=0
6464	note_on channel=9 note=27 velocity=119 time=0
6465	note_on channel=9 note=27 velocity=0 time=10
6466	note_on channel=9 note=82 velocity=0 time=0
6467	note_on channel=9 note=35 velocity=0 time=0
6468	note_on channel=9 note=35 velocity=127 time=20
6469	note_on channel=9 note=38 velocity=87 time=0
6470	note_on channel=9 note=37 velocity=127 time=0
6471	note_on channel=9 note=27 velocity=119 time=0
6472	note_on channel=9 note=27 velocity=0 time=10
6473	note_on channel=9 note=35 velocity=0 time=0
6474	note_on channel=9 note=38 velocity=0 time=0
6475	note_on channel=9 note=37 velocity=0 time=0
6476	note_on channel=9 note=35 velocity=127 time=20
6477	note_on channel=9 note=82 velocity=88 time=0
6478	note_on channel=9 note=27 velocity=119 time=0
6479	note_on channel=9 note=27 velocity=0 time=10
6480	note_on channel=9 note=82 velocity=0 time=0
6481	note_on channel=9 note=35 velocity=0 time=0
6482	note_on channel=9 note=35 velocity=127 time=50
6483	note_on channel=9 note=38 velocity=86 time=0
6484	note_on channel=9 note=82 velocity=90 time=0
6485	note_on channel=9 note=37 velocity=127 time=0
6486	note_on channel=9 note=27 velocity=119 time=0
6487	note_on channel=9 note=27 velocity=0 time=10
6488	note_on channel=9 note=82 velocity=0 time=0
6489	note_on channel=9 note=35 velocity=0 time=0
6490	note_on channel=9 note=38 velocity=0 time=0
6491	note_on channel=9 note=37 velocity=0 time=0
6492	note_on channel=9 note=35 velocity=127 time=50
6493	note_on channel=9 note=82 velocity=67 time=0
6494	note_on channel=9 note=27 velocity=119 time=0
6495	note_on channel=9 note=27 velocity=0 time=10
6496	note_on channel=9 note=82 velocity=0 time=0
6497	note_on channel=9 note=35 velocity=0 time=0
6498	note_on channel=9 note=35 velocity=127 time=20
6499	note_on channel=9 note=27 velocity=119 time=0
6500	note_on channel=9 note=27 velocity=0 time=10
6501	note_on channel=9 note=35 velocity=0 time=0
6502	note_on channel=9 note=36 velocity=127 time=20
6503	note_on channel=9 note=35 velocity=127 time=0
6504	note_on channel=9 note=82 velocity=108 time=0
6505	note_on channel=9 note=27 velocity=119 time=0
6506	note_on channel=9 note=27 velocity=0 time=10
6507	note_on channel=9 note=36 velocity=0 time=0
6508	note_on channel=9 note=35 velocity=0 time=0
6509	note_on channel=9 note=82 velocity=0 time=0
6510	note_on channel=9 note=35 velocity=127 time=20
6511	note_on channel=9 note=27 velocity=119 time=0
6512	note_on channel=9 note=27 velocity=0 time=10
6513	note_on channel=9 note=35 velocity=0 time=0
6514	note_on channel=9 note=82 velocity=90 time=20
6515	note_on channel=9 note=82 velocity=0 time=10
6516	note_on channel=9 note=35 velocity=127 time=20
6517	note_on channel=9 note=27 velocity=119 time=0
6518	note_on channel=9 note=27 velocity=0 time=10
6519	note_on channel=9 note=35 velocity=0 time=0
6520	note_on channel=9 note=35 velocity=127 time=20
6521	note_on channel=9 note=82 velocity=88 time=0
6522	note_on channel=9 note=27 velocity=119 time=0
6523	note_on channel=9 note=27 velocity=0 time=10
6524	note_on channel=9 note=82 velocity=0 time=0
6525	note_on channel=9 note=35 velocity=0 time=0
6526	note_on channel=9 note=35 velocity=127 time=20
6527	note_on channel=9 note=27 velocity=119 time=0
6528	note_on channel=9 note=27 velocity=0 time=10
6529	note_on channel=9 note=35 velocity=0 time=0
6530	note_on channel=9 note=35 velocity=127 time=20
6531	note_on channel=9 note=82 velocity=67 time=0
6532	note_on channel=9 note=37 velocity=127 time=0
6533	note_on channel=9 note=27 velocity=119 time=0
6534	note_on channel=9 note=27 velocity=0 time=10
6535	note_on channel=9 note=35 velocity=0 time=0
6536	note_on channel=9 note=82 velocity=0 time=0
6537	note_on channel=9 note=37 velocity=0 time=0
6538	note_on channel=9 note=35 velocity=127 time=20
6539	note_on channel=9 note=27 velocity=119 time=0
6540	note_on channel=9 note=27 velocity=0 time=10
6541	note_on channel=9 note=35 velocity=0 time=0
6542	note_on channel=9 note=35 velocity=127 time=20
6543	note_on channel=9 note=38 velocity=92 time=0
6544	note_on channel=9 note=82 velocity=109 time=0
6545	note_on channel=9 note=27 velocity=119 time=0
6546	note_on channel=9 note=27 velocity=0 time=10
6547	note_on channel=9 note=82 velocity=0 time=0
6548	note_on channel=9 note=35 velocity=0 time=0
6549	note_on channel=9 note=38 velocity=0 time=1
6550	note_on channel=9 note=38 velocity=93 time=4
6551	note_on channel=9 note=38 velocity=0 time=13
6552	note_on channel=9 note=35 velocity=127 time=2
6553	note_on channel=9 note=38 velocity=93 time=0
6554	note_on channel=9 note=37 velocity=127 time=0
6555	note_on channel=9 note=27 velocity=119 time=0
6556	note_on channel=9 note=27 velocity=0 time=10
6557	note_on channel=9 note=35 velocity=0 time=0
6558	note_on channel=9 note=38 velocity=0 time=0
6559	note_on channel=9 note=37 velocity=0 time=0
6560	note_on channel=9 note=38 velocity=93 time=5
6561	note_on channel=9 note=38 velocity=0 time=9
6562	note_on channel=9 note=35 velocity=127 time=6
6563	note_on channel=9 note=82 velocity=88 time=0
6564	note_on channel=9 note=27 velocity=119 time=0
6565	note_on channel=9 note=27 velocity=0 time=10
6566	note_on channel=9 note=82 velocity=0 time=0
6567	note_on channel=9 note=35 velocity=0 time=0
6568	note_on channel=9 note=38 velocity=67 time=20
6569	note_on channel=9 note=38 velocity=0 time=11
6570	note_on channel=9 note=35 velocity=127 time=19
6571	note_on channel=9 note=38 velocity=85 time=0
6572	note_on channel=9 note=82 velocity=90 time=0
6573	note_on channel=9 note=37 velocity=127 time=0
6574	note_on channel=9 note=27 velocity=119 time=0
6575	note_on channel=9 note=27 velocity=0 time=10
6576	note_on channel=9 note=82 velocity=0 time=0
6577	note_on channel=9 note=35 velocity=0 time=0
6578	note_on channel=9 note=38 velocity=0 time=0
6579	note_on channel=9 note=37 velocity=0 time=0
6580	note_on channel=9 note=35 velocity=127 time=50
6581	note_on channel=9 note=82 velocity=67 time=0
6582	note_on channel=9 note=27 velocity=119 time=0
6583	note_on channel=9 note=27 velocity=0 time=10
6584	note_on channel=9 note=82 velocity=0 time=0
6585	note_on channel=9 note=35 velocity=0 time=0
6586	note_on channel=9 note=35 velocity=127 time=20
6587	note_on channel=9 note=27 velocity=119 time=0
6588	note_on channel=9 note=27 velocity=0 time=10
6589	note_on channel=9 note=35 velocity=0 time=0
6590	
6591	note_on channel=1 note=30 velocity=112 time=0
6592	note_on channel=8 note=66 velocity=61 time=0
6593	note_on channel=8 note=69 velocity=61 time=0
6594	note_on channel=8 note=73 velocity=61 time=0
6595	note_on channel=9 note=36 velocity=127 time=0
6596	note_on channel=9 note=35 velocity=127 time=0
6597	note_on channel=9 note=82 velocity=108 time=0
6598	note_on channel=9 note=55 velocity=110 time=0
6599	note_on channel=9 note=27 velocity=119 time=0
6600	note_on channel=10 note=73 velocity=90 time=0
6601	note_on channel=9 note=27 velocity=0 time=10
6602	note_on channel=9 note=55 velocity=0 time=0
6603	note_on channel=9 note=82 velocity=0 time=0
6604	note_on channel=9 note=35 velocity=0 time=0
6605	note_on channel=9 note=36 velocity=0 time=0
6606	note_on channel=9 note=35 velocity=127 time=20
6607	note_on channel=9 note=27 velocity=119 time=0
6608	note_on channel=9 note=27 velocity=0 time=10
6609	note_on channel=9 note=35 velocity=0 time=0
6610	note_on channel=9 note=82 velocity=90 time=20
6611	note_on channel=9 note=82 velocity=0 time=10
6612	note_on channel=1 note=30 velocity=0 time=20
6613	note_on channel=9 note=35 velocity=127 time=0
6614	note_on channel=9 note=27 velocity=119 time=0
6615	note_on channel=9 note=27 velocity=0 time=10
6616	note_on channel=9 note=35 velocity=0 time=0
6617	note_on channel=9 note=35 velocity=127 time=20
6618	note_on channel=9 note=82 velocity=88 time=0
6619	note_on channel=9 note=27 velocity=119 time=0
6620	note_on channel=9 note=27 velocity=0 time=10
6621	note_on channel=9 note=35 velocity=0 time=0
6622	note_on channel=9 note=82 velocity=0 time=0
6623	note_on channel=9 note=35 velocity=127 time=20
6624	note_on channel=9 note=27 velocity=119 time=0
6625	note_on channel=9 note=27 velocity=0 time=10
6626	note_on channel=9 note=35 velocity=0 time=0
6627	note_on channel=9 note=35 velocity=127 time=20
6628	note_on channel=9 note=38 velocity=88 time=0
6629	note_on channel=9 note=82 velocity=67 time=0
6630	note_on channel=9 note=37 velocity=127 time=0
6631	note_on channel=9 note=27 velocity=119 time=0
6632	note_on channel=9 note=27 velocity=0 time=10
6633	note_on channel=9 note=37 velocity=0 time=0
6634	note_on channel=9 note=82 velocity=0 time=0
6635	note_on channel=9 note=35 velocity=0 time=0
6636	note_on channel=9 note=38 velocity=0 time=0
6637	note_on channel=9 note=35 velocity=127 time=20
6638	note_on channel=9 note=27 velocity=119 time=0
6639	note_on channel=9 note=27 velocity=0 time=10
6640	note_on channel=9 note=35 velocity=0 time=0
6641	note_on channel=1 note=28 velocity=110 time=20
6642	note_on channel=9 note=35 velocity=127 time=0
6643	note_on channel=9 note=82 velocity=109 time=0
6644	note_on channel=9 note=27 velocity=119 time=0
6645	note_on channel=9 note=27 velocity=0 time=10
6646	note_on channel=9 note=82 velocity=0 time=0
6647	note_on channel=9 note=35 velocity=0 time=0
6648	note_on channel=9 note=35 velocity=127 time=20
6649	note_on channel=9 note=38 velocity=87 time=0
6650	note_on channel=9 note=37 velocity=127 time=0
6651	note_on channel=9 note=27 velocity=119 time=0
6652	note_on channel=9 note=27 velocity=0 time=10
6653	note_on channel=9 note=37 velocity=0 time=0
6654	note_on channel=9 note=38 velocity=0 time=0
6655	note_on channel=9 note=35 velocity=0 time=0
6656	note_on channel=9 note=35 velocity=127 time=20
6657	note_on channel=9 note=82 velocity=88 time=0
6658	note_on channel=9 note=27 velocity=119 time=0
6659	note_on channel=9 note=27 velocity=0 time=10
6660	note_on channel=9 note=82 velocity=0 time=0
6661	note_on channel=9 note=35 velocity=0 time=0
6662	note_on channel=1 note=28 velocity=0 time=40
6663	note_on channel=1 note=30 velocity=88 time=10
6664	note_on channel=9 note=35 velocity=127 time=0
6665	note_on channel=9 note=38 velocity=86 time=0
6666	note_on channel=9 note=82 velocity=90 time=0
6667	note_on channel=9 note=37 velocity=127 time=0
6668	note_on channel=9 note=27 velocity=119 time=0
6669	note_on channel=9 note=27 velocity=0 time=10
6670	note_on channel=9 note=37 velocity=0 time=0
6671	note_on channel=9 note=38 velocity=0 time=0
6672	note_on channel=9 note=82 velocity=0 time=0
6673	note_on channel=9 note=35 velocity=0 time=0
6674	note_on channel=9 note=35 velocity=127 time=50
6675	note_on channel=9 note=82 velocity=67 time=0
6676	note_on channel=9 note=27 velocity=119 time=0
6677	note_on channel=9 note=27 velocity=0 time=10
6678	note_on channel=9 note=82 velocity=0 time=0
6679	note_on channel=9 note=35 velocity=0 time=0
6680	note_on channel=1 note=30 velocity=0 time=20
6681	note_on channel=9 note=35 velocity=127 time=0
6682	note_on channel=9 note=27 velocity=119 time=0
6683	note_on channel=9 note=27 velocity=0 time=10
6684	note_on channel=9 note=35 velocity=0 time=0
6685	note_on channel=10 note=73 velocity=0 time=14
6686	note_on channel=8 note=69 velocity=0 time=2
6687	note_on channel=8 note=73 velocity=0 time=1
6688	note_on channel=8 note=66 velocity=0 time=0
6689	note_on channel=1 note=35 velocity=110 time=3
6690	note_on channel=8 note=66 velocity=59 time=0
6691	note_on channel=8 note=71 velocity=59 time=0
6692	note_on channel=8 note=74 velocity=59 time=0
6693	note_on channel=9 note=36 velocity=127 time=0
6694	note_on channel=9 note=35 velocity=127 time=0
6695	note_on channel=9 note=82 velocity=108 time=0
6696	note_on channel=9 note=27 velocity=119 time=0
6697	note_on channel=9 note=27 velocity=0 time=10
6698	note_on channel=9 note=82 velocity=0 time=0
6699	note_on channel=9 note=36 velocity=0 time=0
6700	note_on channel=1 note=35 velocity=0 time=0
6701	note_on channel=9 note=35 velocity=0 time=0
6702	note_on channel=1 note=37 velocity=71 time=20
6703	note_on channel=9 note=35 velocity=127 time=0
6704	note_on channel=9 note=27 velocity=119 time=0
6705	note_on channel=9 note=27 velocity=0 time=10
6706	note_on channel=1 note=37 velocity=0 time=0
6707	note_on channel=9 note=35 velocity=0 time=0
6708	
6709	note_on channel=1 note=45 velocity=92 time=0
6710	note_on channel=9 note=82 velocity=90 time=0
6711	note_on channel=10 note=71 velocity=90 time=0
6712	note_on channel=9 note=82 velocity=0 time=10
6713	note_on channel=10 note=71 velocity=0 time=16
6714	note_on channel=1 note=45 velocity=0 time=4
6715	note_on channel=9 note=35 velocity=127 time=0
6716	note_on channel=9 note=27 velocity=119 time=0
6717	note_on channel=10 note=71 velocity=90 time=0
6718	note_on channel=9 note=27 velocity=0 time=10
6719	note_on channel=9 note=35 velocity=0 time=0
6720	note_on channel=1 note=43 velocity=92 time=20
6721	note_on channel=9 note=35 velocity=127 time=0
6722	note_on channel=9 note=82 velocity=88 time=0
6723	note_on channel=9 note=27 velocity=119 time=0
6724	note_on channel=9 note=27 velocity=0 time=10
6725	note_on channel=9 note=82 velocity=0 time=0
6726	note_on channel=9 note=35 velocity=0 time=0
6727	note_on channel=1 note=43 velocity=0 time=10
6728	note_on channel=10 note=71 velocity=0 time=9
6729	
6730	note_on channel=1 note=45 velocity=91 time=0
6731	note_on channel=9 note=35 velocity=127 time=0
6732	note_on channel=9 note=27 velocity=119 time=0
6733	note_on channel=10 note=71 velocity=90 time=0
6734	note_on channel=9 note=27 velocity=0 time=10
6735	note_on channel=9 note=35 velocity=0 time=0
6736	note_on channel=10 note=71 velocity=0 time=19
6737	
6738	note_on channel=1 note=45 velocity=0 time=0
6739	note_on channel=1 note=35 velocity=92 time=0
6740	note_on channel=9 note=35 velocity=127 time=0
6741	note_on channel=9 note=38 velocity=88 time=0
6742	note_on channel=9 note=82 velocity=67 time=0
6743	note_on channel=9 note=37 velocity=127 time=0
6744	note_on channel=9 note=27 velocity=119 time=0
6745	note_on channel=10 note=71 velocity=90 time=0
6746	note_on channel=9 note=27 velocity=0 time=10
6747	note_on channel=9 note=37 velocity=0 time=0
6748	note_on channel=9 note=82 velocity=0 time=0
6749	note_on channel=1 note=35 velocity=0 time=0
6750	note_on channel=9 note=35 velocity=0 time=0
6751	note_on channel=9 note=38 velocity=0 time=0
6752	note_on channel=1 note=35 velocity=110 time=20
6753	note_on channel=9 note=35 velocity=127 time=0
6754	note_on channel=9 note=27 velocity=119 time=0
6755	note_on channel=9 note=27 velocity=0 time=10
6756	note_on channel=9 note=35 velocity=0 time=0
6757	note_on channel=10 note=71 velocity=0 time=14
6758	
6759	note_on channel=9 note=35 velocity=127 time=0
6760	note_on channel=9 note=82 velocity=109 time=0
6761	note_on channel=9 note=27 velocity=119 time=0
6762	note_on channel=10 note=71 velocity=90 time=0
6763	note_on channel=9 note=27 velocity=0 time=10
6764	note_on channel=9 note=82 velocity=0 time=0
6765	note_on channel=9 note=35 velocity=0 time=0
6766	note_on channel=1 note=35 velocity=0 time=20
6767	note_on channel=1 note=35 velocity=91 time=0
6768	note_on channel=9 note=35 velocity=127 time=0
6769	note_on channel=9 note=38 velocity=87 time=0
6770	note_on channel=9 note=37 velocity=127 time=0
6771	note_on channel=9 note=27 velocity=119 time=0
6772	note_on channel=9 note=27 velocity=0 time=10
6773	note_on channel=9 note=37 velocity=0 time=0
6774	note_on channel=9 note=38 velocity=0 time=0
6775	note_on channel=9 note=35 velocity=0 time=0
6776	note_on channel=1 note=35 velocity=0 time=10
6777	note_on channel=10 note=71 velocity=0 time=4
6778	
6779	note_on channel=9 note=35 velocity=127 time=0
6780	note_on channel=9 note=82 velocity=88 time=0
6781	note_on channel=9 note=27 velocity=119 time=0
6782	note_on channel=10 note=71 velocity=90 time=0
6783	note_on channel=9 note=27 velocity=0 time=10
6784	note_on channel=9 note=35 velocity=0 time=0
6785	note_on channel=9 note=82 velocity=0 time=0
6786	note_on channel=10 note=71 velocity=0 time=46
6787	
6788	note_on channel=1 note=28 velocity=91 time=0
6789	note_on channel=9 note=35 velocity=127 time=0
6790	note_on channel=9 note=38 velocity=86 time=0
6791	note_on channel=9 note=82 velocity=90 time=0
6792	note_on channel=9 note=37 velocity=127 time=0
6793	note_on channel=9 note=27 velocity=119 time=0
6794	note_on channel=10 note=71 velocity=90 time=0
6795	note_on channel=9 note=27 velocity=0 time=10
6796	note_on channel=9 note=37 velocity=0 time=0
6797	note_on channel=9 note=82 velocity=0 time=0
6798	note_on channel=9 note=38 velocity=0 time=0
6799	note_on channel=9 note=35 velocity=0 time=0
6800	note_on channel=10 note=71 velocity=0 time=40
6801	
6802	note_on channel=9 note=35 velocity=127 time=0
6803	note_on channel=9 note=82 velocity=67 time=0
6804	note_on channel=9 note=27 velocity=119 time=0
6805	note_on channel=10 note=71 velocity=90 time=0
6806	note_on channel=9 note=27 velocity=0 time=10
6807	note_on channel=9 note=82 velocity=0 time=0
6808	note_on channel=9 note=35 velocity=0 time=0
6809	note_on channel=9 note=35 velocity=127 time=20
6810	note_on channel=9 note=27 velocity=119 time=0
6811	note_on channel=9 note=27 velocity=0 time=10
6812	note_on channel=9 note=35 velocity=0 time=0
6813	note_on channel=10 note=71 velocity=0 time=14
6814	note_on channel=8 note=71 velocity=0 time=2
6815	note_on channel=8 note=74 velocity=0 time=0
6816	note_on channel=8 note=66 velocity=0 time=1
6817	note_on channel=1 note=28 velocity=0 time=3
6818	note_on channel=1 note=30 velocity=110 time=0
6819	note_on channel=8 note=66 velocity=59 time=0
6820	note_on channel=8 note=69 velocity=59 time=0
6821	note_on channel=8 note=73 velocity=59 time=0
6822	note_on channel=9 note=36 velocity=127 time=0
6823	note_on channel=9 note=35 velocity=127 time=0
6824	note_on channel=9 note=82 velocity=108 time=0
6825	note_on channel=9 note=27 velocity=119 time=0
6826	note_on channel=9 note=27 velocity=0 time=10
6827	note_on channel=9 note=82 velocity=0 time=0
6828	note_on channel=9 note=36 velocity=0 time=0
6829	note_on channel=9 note=35 velocity=0 time=0
6830	note_on channel=9 note=35 velocity=127 time=20
6831	note_on channel=9 note=27 velocity=119 time=0
6832	note_on channel=9 note=27 velocity=0 time=10
6833	note_on channel=9 note=35 velocity=0 time=0
6834	note_on channel=1 note=30 velocity=0 time=10
6835	
6836	note_on channel=1 note=30 velocity=88 time=0
6837	note_on channel=9 note=82 velocity=90 time=0
6838	note_on channel=10 note=69 velocity=90 time=0
6839	note_on channel=9 note=82 velocity=0 time=10
6840	note_on channel=10 note=69 velocity=0 time=19
6841	
6842	note_on channel=9 note=35 velocity=127 time=0
6843	note_on channel=9 note=27 velocity=119 time=0
6844	note_on channel=10 note=69 velocity=90 time=0
6845	note_on channel=9 note=27 velocity=0 time=10
6846	note_on channel=9 note=35 velocity=0 time=0
6847	note_on channel=9 note=35 velocity=127 time=20
6848	note_on channel=9 note=82 velocity=88 time=0
6849	note_on channel=9 note=27 velocity=119 time=0
6850	note_on channel=9 note=27 velocity=0 time=10
6851	note_on channel=9 note=82 velocity=0 time=0
6852	note_on channel=9 note=35 velocity=0 time=0
6853	note_on channel=10 note=69 velocity=0 time=14
6854	
6855	note_on channel=1 note=30 velocity=0 time=0
6856	note_on channel=9 note=35 velocity=127 time=0
6857	note_on channel=9 note=27 velocity=119 time=0
6858	note_on channel=10 note=66 velocity=90 time=0
6859	note_on channel=9 note=27 velocity=0 time=10
6860	note_on channel=9 note=35 velocity=0 time=0
6861	note_on channel=9 note=35 velocity=127 time=20
6862	note_on channel=9 note=38 velocity=88 time=0
6863	note_on channel=9 note=82 velocity=67 time=0
6864	note_on channel=9 note=37 velocity=127 time=0
6865	note_on channel=9 note=27 velocity=119 time=0
6866	note_on channel=9 note=27 velocity=0 time=10
6867	note_on channel=9 note=37 velocity=0 time=0
6868	note_on channel=9 note=82 velocity=0 time=0
6869	note_on channel=9 note=35 velocity=0 time=0
6870	note_on channel=9 note=38 velocity=0 time=0
6871	note_on channel=10 note=66 velocity=0 time=12
6872	
6873	note_on channel=9 note=35 velocity=127 time=0
6874	note_on channel=9 note=27 velocity=119 time=0
6875	note_on channel=10 note=64 velocity=90 time=0
6876	note_on channel=9 note=27 velocity=0 time=10
6877	note_on channel=9 note=35 velocity=0 time=0
6878	
6879	note_on channel=1 note=30 velocity=109 time=0
6880	note_on channel=9 note=35 velocity=127 time=0
6881	note_on channel=9 note=82 velocity=109 time=0
6882	note_on channel=9 note=27 velocity=119 time=0
6883	note_on channel=10 note=66 velocity=90 time=0
6884	note_on channel=10 note=64 velocity=0 time=2
6885	note_on channel=9 note=27 velocity=0 time=8
6886	note_on channel=9 note=82 velocity=0 time=0
6887	note_on channel=9 note=35 velocity=0 time=0
6888	note_on channel=9 note=35 velocity=127 time=20
6889	note_on channel=9 note=38 velocity=87 time=0
6890	note_on channel=9 note=37 velocity=127 time=0
6891	note_on channel=9 note=27 velocity=119 time=0
6892	note_on channel=9 note=27 velocity=0 time=10
6893	note_on channel=9 note=37 velocity=0 time=0
6894	note_on channel=9 note=38 velocity=0 time=0
6895	note_on channel=9 note=35 velocity=0 time=0
6896	note_on channel=9 note=35 velocity=127 time=20
6897	note_on channel=9 note=82 velocity=88 time=0
6898	note_on channel=9 note=27 velocity=119 time=0
6899	note_on channel=9 note=27 velocity=0 time=10
6900	note_on channel=9 note=82 velocity=0 time=0
6901	note_on channel=9 note=35 velocity=0 time=0
6902	note_on channel=1 note=30 velocity=0 time=40
6903	note_on channel=10 note=66 velocity=0 time=0
6904	
6905	note_on channel=1 note=33 velocity=90 time=0
6906	note_on channel=9 note=35 velocity=127 time=0
6907	note_on channel=9 note=38 velocity=86 time=0
6908	note_on channel=9 note=82 velocity=90 time=0
6909	note_on channel=9 note=37 velocity=127 time=0
6910	note_on channel=9 note=27 velocity=119 time=0
6911	note_on channel=10 note=66 velocity=90 time=0
6912	note_on channel=9 note=27 velocity=0 time=10
6913	note_on channel=9 note=37 velocity=0 time=0
6914	note_on channel=9 note=82 velocity=0 time=0
6915	note_on channel=9 note=38 velocity=0 time=0
6916	note_on channel=9 note=35 velocity=0 time=0
6917	note_on channel=10 note=66 velocity=0 time=44
6918	
6919	note_on channel=9 note=35 velocity=127 time=0
6920	note_on channel=9 note=82 velocity=67 time=0
6921	note_on channel=9 note=27 velocity=119 time=0
6922	note_on channel=10 note=66 velocity=90 time=0
6923	note_on channel=9 note=27 velocity=0 time=10
6924	note_on channel=9 note=82 velocity=0 time=0
6925	note_on channel=9 note=35 velocity=0 time=0
6926	note_on channel=9 note=35 velocity=127 time=20
6927	note_on channel=9 note=27 velocity=119 time=0
6928	note_on channel=9 note=27 velocity=0 time=10
6929	note_on channel=9 note=35 velocity=0 time=0
6930	note_on channel=8 note=73 velocity=0 time=16
6931	note_on channel=8 note=69 velocity=0 time=0
6932	note_on channel=8 note=66 velocity=0 time=1
6933	
6934	note_on channel=1 note=33 velocity=0 time=0
6935	note_on channel=10 note=66 velocity=0 time=0
6936	note_on channel=1 note=35 velocity=109 time=0
6937	note_on channel=8 note=66 velocity=59 time=0
6938	note_on channel=8 note=71 velocity=59 time=0
6939	note_on channel=8 note=74 velocity=59 time=0
6940	note_on channel=9 note=36 velocity=127 time=0
6941	note_on channel=9 note=35 velocity=127 time=0
6942	note_on channel=9 note=82 velocity=108 time=0
6943	note_on channel=9 note=27 velocity=119 time=0
6944	note_on channel=10 note=69 velocity=90 time=0
6945	note_on channel=9 note=27 velocity=0 time=10
6946	note_on channel=9 note=82 velocity=0 time=0
6947	note_on channel=9 note=35 velocity=0 time=0
6948	note_on channel=9 note=36 velocity=0 time=0
6949	note_on channel=9 note=35 velocity=127 time=20
6950	note_on channel=9 note=27 velocity=119 time=0
6951	note_on channel=9 note=27 velocity=0 time=10
6952	note_on channel=9 note=35 velocity=0 time=0
6953	note_on channel=10 note=69 velocity=0 time=19
6954	
6955	note_on channel=1 note=35 velocity=0 time=0
6956	note_on channel=1 note=35 velocity=89 time=0
6957	note_on channel=9 note=82 velocity=90 time=0
6958	note_on channel=10 note=69 velocity=90 time=0
6959	note_on channel=9 note=82 velocity=0 time=10
6960	note_on channel=9 note=35 velocity=127 time=20
6961	note_on channel=9 note=27 velocity=119 time=0
6962	note_on channel=9 note=27 velocity=0 time=10
6963	note_on channel=9 note=35 velocity=0 time=0
6964	note_on channel=9 note=35 velocity=127 time=20
6965	note_on channel=9 note=82 velocity=88 time=0
6966	note_on channel=9 note=27 velocity=119 time=0
6967	note_on channel=9 note=27 velocity=0 time=10
6968	note_on channel=9 note=82 velocity=0 time=0
6969	note_on channel=9 note=35 velocity=0 time=0
6970	note_on channel=10 note=69 velocity=0 time=6
6971	
6972	note_on channel=1 note=35 velocity=0 time=0
6973	note_on channel=9 note=35 velocity=127 time=0
6974	note_on channel=9 note=27 velocity=119 time=0
6975	note_on channel=10 note=66 velocity=90 time=0
6976	note_on channel=9 note=27 velocity=0 time=10
6977	note_on channel=9 note=35 velocity=0 time=0
6978	note_on channel=1 note=35 velocity=108 time=20
6979	note_on channel=9 note=35 velocity=127 time=0
6980	note_on channel=9 note=38 velocity=88 time=0
6981	note_on channel=9 note=82 velocity=67 time=0
6982	note_on channel=9 note=37 velocity=127 time=0
6983	note_on channel=9 note=27 velocity=119 time=0
6984	note_on channel=9 note=27 velocity=0 time=10
6985	note_on channel=9 note=37 velocity=0 time=0
6986	note_on channel=9 note=38 velocity=0 time=0
6987	note_on channel=9 note=82 velocity=0 time=0
6988	note_on channel=9 note=35 velocity=0 time=0
6989	note_on channel=10 note=66 velocity=0 time=16
6990	
6991	note_on channel=9 note=35 velocity=127 time=0
6992	note_on channel=9 note=27 velocity=119 time=0
6993	note_on channel=10 note=64 velocity=90 time=0
6994	note_on channel=9 note=27 velocity=0 time=10
6995	note_on channel=9 note=35 velocity=0 time=0
6996	note_on channel=8 note=66 velocity=0 time=17
6997	note_on channel=8 note=71 velocity=0 time=0
6998	note_on channel=8 note=74 velocity=0 time=0
6999	
7000	note_on channel=1 note=35 velocity=0 time=0
7001	note_on channel=1 note=30 velocity=100 time=0
7002	note_on channel=8 note=66 velocity=56 time=0
7003	note_on channel=8 note=69 velocity=56 time=0
7004	note_on channel=8 note=73 velocity=56 time=0
7005	note_on channel=9 note=35 velocity=127 time=0
7006	note_on channel=9 note=82 velocity=109 time=0
7007	note_on channel=9 note=27 velocity=119 time=0
7008	note_on channel=10 note=66 velocity=90 time=0
7009	note_on channel=10 note=64 velocity=0 time=2
7010	note_on channel=9 note=27 velocity=0 time=8
7011	note_on channel=9 note=82 velocity=0 time=0
7012	note_on channel=9 note=35 velocity=0 time=0
7013	note_on channel=9 note=35 velocity=127 time=20
7014	note_on channel=9 note=38 velocity=87 time=0
7015	note_on channel=9 note=37 velocity=127 time=0
7016	note_on channel=9 note=27 velocity=119 time=0
7017	note_on channel=9 note=27 velocity=0 time=10
7018	note_on channel=9 note=37 velocity=0 time=0
7019	note_on channel=9 note=38 velocity=0 time=0
7020	note_on channel=9 note=35 velocity=0 time=0
7021	note_on channel=9 note=35 velocity=127 time=20
7022	note_on channel=9 note=82 velocity=88 time=0
7023	note_on channel=9 note=27 velocity=119 time=0
7024	note_on channel=9 note=27 velocity=0 time=10
7025	note_on channel=9 note=82 velocity=0 time=0
7026	note_on channel=9 note=35 velocity=0 time=0
7027	note_on channel=6 note=66 velocity=90 time=20
7028	note_on channel=9 note=35 velocity=127 time=30
7029	note_on channel=9 note=38 velocity=86 time=0
7030	note_on channel=9 note=82 velocity=90 time=0
7031	note_on channel=9 note=37 velocity=127 time=0
7032	note_on channel=9 note=27 velocity=119 time=0
7033	note_on channel=9 note=27 velocity=0 time=10
7034	note_on channel=9 note=38 velocity=0 time=0
7035	note_on channel=9 note=37 velocity=0 time=0
7036	note_on channel=9 note=35 velocity=0 time=0
7037	note_on channel=9 note=82 velocity=0 time=0
7038	note_on channel=6 note=66 velocity=0 time=14
7039	note_on channel=6 note=66 velocity=90 time=6
7040	note_on channel=6 note=66 velocity=0 time=28
7041	note_on channel=6 note=66 velocity=90 time=2
7042	note_on channel=9 note=35 velocity=127 time=0
7043	note_on channel=9 note=82 velocity=67 time=0
7044	note_on channel=9 note=27 velocity=119 time=0
7045	note_on channel=10 note=66 velocity=0 time=2
7046	note_on channel=9 note=27 velocity=0 time=8
7047	note_on channel=9 note=82 velocity=0 time=0
7048	note_on channel=9 note=35 velocity=0 time=0
7049	note_on channel=9 note=35 velocity=127 time=20
7050	note_on channel=9 note=27 velocity=119 time=0
7051	note_on channel=9 note=27 velocity=0 time=10
7052	note_on channel=9 note=35 velocity=0 time=0
7053	note_on channel=6 note=66 velocity=0 time=12
7054	note_on channel=8 note=73 velocity=0 time=4
7055	note_on channel=8 note=69 velocity=0 time=2
7056	note_on channel=8 note=66 velocity=0 time=0
7057	note_on channel=1 note=30 velocity=0 time=2
7058	note_on channel=1 note=42 velocity=109 time=0
7059	note_on channel=6 note=68 velocity=90 time=0
7060	note_on channel=8 note=66 velocity=60 time=0
7061	note_on channel=8 note=69 velocity=60 time=0
7062	note_on channel=8 note=73 velocity=60 time=0
7063	note_on channel=9 note=36 velocity=127 time=0
7064	note_on channel=9 note=35 velocity=127 time=0
7065	note_on channel=9 note=82 velocity=108 time=0
7066	note_on channel=9 note=27 velocity=119 time=0
7067	pitchwheel channel=6 pitch=0 time=6
7068	pitchwheel channel=6 pitch=128 time=2
7069	note_on channel=9 note=27 velocity=0 time=2
7070	note_on channel=9 note=82 velocity=0 time=0
7071	note_on channel=9 note=35 velocity=0 time=0
7072	note_on channel=9 note=36 velocity=0 time=0
7073	pitchwheel channel=6 pitch=1280 time=0
7074	pitchwheel channel=6 pitch=1536 time=2
7075	pitchwheel channel=6 pitch=1792 time=2
7076	pitchwheel channel=6 pitch=2816 time=2
7077	pitchwheel channel=6 pitch=3712 time=2
7078	note_on channel=9 note=35 velocity=127 time=12
7079	note_on channel=9 note=27 velocity=119 time=0
7080	note_on channel=9 note=27 velocity=0 time=10
7081	note_on channel=9 note=35 velocity=0 time=0
7082	note_on channel=6 note=68 velocity=0 time=19
7083	note_on channel=1 note=42 velocity=0 time=1
7084	note_on channel=1 note=40 velocity=69 time=0
7085	note_on channel=6 note=68 velocity=90 time=0
7086	note_on channel=9 note=82 velocity=90 time=0
7087	pitchwheel channel=6 pitch=-128 time=6
7088	pitchwheel channel=6 pitch=256 time=2
7089	note_on channel=9 note=82 velocity=0 time=2
7090	note_on channel=1 note=40 velocity=0 time=0
7091	pitchwheel channel=6 pitch=3840 time=2
7092	note_on channel=1 note=38 velocity=92 time=18
7093	note_on channel=9 note=35 velocity=127 time=0
7094	note_on channel=9 note=27 velocity=119 time=0
7095	note_on channel=9 note=27 velocity=0 time=10
7096	note_on channel=1 note=38 velocity=0 time=0
7097	note_on channel=9 note=35 velocity=0 time=0
7098	note_on channel=1 note=37 velocity=70 time=20
7099	note_on channel=9 note=35 velocity=127 time=0
7100	note_on channel=9 note=82 velocity=88 time=0
7101	note_on channel=9 note=27 velocity=119 time=0
7102	note_on channel=9 note=27 velocity=0 time=10
7103	note_on channel=9 note=82 velocity=0 time=0
7104	note_on channel=1 note=37 velocity=0 time=0
7105	note_on channel=9 note=35 velocity=0 time=0
7106	note_on channel=6 note=68 velocity=0 time=12
7107	note_on channel=6 note=66 velocity=90 time=8
7108	note_on channel=9 note=35 velocity=127 time=0
7109	note_on channel=9 note=27 velocity=119 time=0
7110	pitchwheel channel=6 pitch=0 time=4
7111	note_on channel=9 note=27 velocity=0 time=6
7112	note_on channel=9 note=35 velocity=0 time=0
7113	note_on channel=1 note=42 velocity=111 time=20
7114	note_on channel=9 note=35 velocity=127 time=0
7115	note_on channel=9 note=38 velocity=88 time=0
7116	note_on channel=9 note=82 velocity=67 time=0
7117	note_on channel=9 note=37 velocity=127 time=0
7118	note_on channel=9 note=27 velocity=119 time=0
7119	note_on channel=9 note=27 velocity=0 time=10
7120	note_on channel=9 note=37 velocity=0 time=0
7121	note_on channel=9 note=38 velocity=0 time=0
7122	note_on channel=9 note=82 velocity=0 time=0
7123	note_on channel=9 note=35 velocity=0 time=0
7124	note_on channel=6 note=66 velocity=0 time=18
7125	note_on channel=6 note=64 velocity=90 time=2
7126	note_on channel=9 note=35 velocity=127 time=0
7127	note_on channel=9 note=27 velocity=119 time=0
7128	note_on channel=9 note=27 velocity=0 time=10
7129	note_on channel=9 note=35 velocity=0 time=0
7130	note_on channel=6 note=64 velocity=0 time=18
7131	note_on channel=1 note=42 velocity=0 time=2
7132	note_on channel=1 note=40 velocity=70 time=0
7133	note_on channel=6 note=66 velocity=90 time=0
7134	note_on channel=9 note=35 velocity=127 time=0
7135	note_on channel=9 note=82 velocity=109 time=0
7136	note_on channel=9 note=27 velocity=119 time=0
7137	note_on channel=9 note=27 velocity=0 time=10
7138	note_on channel=9 note=82 velocity=0 time=0
7139	note_on channel=1 note=40 velocity=0 time=0
7140	note_on channel=9 note=35 velocity=0 time=0
7141	note_on channel=1 note=38 velocity=70 time=20
7142	note_on channel=9 note=35 velocity=127 time=0
7143	note_on channel=9 note=38 velocity=87 time=0
7144	note_on channel=9 note=37 velocity=127 time=0
7145	note_on channel=9 note=27 velocity=119 time=0
7146	note_on channel=9 note=27 velocity=0 time=10
7147	note_on channel=9 note=37 velocity=0 time=0
7148	note_on channel=9 note=38 velocity=0 time=0
7149	note_on channel=1 note=38 velocity=0 time=0
7150	note_on channel=9 note=35 velocity=0 time=0
7151	note_on channel=6 note=66 velocity=0 time=18
7152	note_on channel=1 note=40 velocity=89 time=2
7153	note_on channel=9 note=35 velocity=127 time=0
7154	note_on channel=9 note=82 velocity=88 time=0
7155	note_on channel=9 note=27 velocity=119 time=0
7156	note_on channel=9 note=27 velocity=0 time=10
7157	note_on channel=9 note=35 velocity=0 time=0
7158	note_on channel=9 note=82 velocity=0 time=0
7159	note_on channel=1 note=40 velocity=0 time=10
7160	note_on channel=1 note=38 velocity=92 time=10
7161	note_on channel=6 note=73 velocity=90 time=0
7162	note_on channel=6 note=66 velocity=90 time=0
7163	note_on channel=1 note=38 velocity=0 time=30
7164	note_on channel=1 note=37 velocity=70 time=0
7165	note_on channel=9 note=35 velocity=127 time=0
7166	note_on channel=9 note=38 velocity=86 time=0
7167	note_on channel=9 note=82 velocity=90 time=0
7168	note_on channel=9 note=37 velocity=127 time=0
7169	note_on channel=9 note=27 velocity=119 time=0
7170	note_on channel=9 note=27 velocity=0 time=10
7171	note_on channel=9 note=38 velocity=0 time=0
7172	note_on channel=9 note=37 velocity=0 time=0
7173	note_on channel=9 note=35 velocity=0 time=0
7174	note_on channel=9 note=82 velocity=0 time=0
7175	note_on channel=1 note=37 velocity=0 time=0
7176	note_on channel=6 note=66 velocity=0 time=18
7177	note_on channel=6 note=73 velocity=0 time=1
7178	note_on channel=1 note=35 velocity=72 time=1
7179	note_on channel=6 note=73 velocity=90 time=0
7180	note_on channel=6 note=66 velocity=90 time=0
7181	note_on channel=1 note=35 velocity=0 time=10
7182	note_on channel=6 note=73 velocity=0 time=19
7183	note_on channel=6 note=66 velocity=0 time=0
7184	note_on channel=1 note=52 velocity=91 time=1
7185	note_on channel=6 note=73 velocity=90 time=0
7186	note_on channel=6 note=66 velocity=90 time=0
7187	note_on channel=9 note=35 velocity=127 time=0
7188	note_on channel=9 note=82 velocity=67 time=0
7189	note_on channel=9 note=27 velocity=119 time=0
7190	note_on channel=9 note=27 velocity=0 time=10
7191	note_on channel=9 note=82 velocity=0 time=0
7192	note_on channel=9 note=35 velocity=0 time=0
7193	note_on channel=1 note=52 velocity=0 time=20
7194	note_on channel=1 note=37 velocity=89 time=0
7195	note_on channel=9 note=35 velocity=127 time=0
7196	note_on channel=9 note=27 velocity=119 time=0
7197	note_on channel=9 note=27 velocity=0 time=10
7198	note_on channel=9 note=35 velocity=0 time=0
7199	note_on channel=1 note=37 velocity=0 time=10
7200	note_on channel=8 note=73 velocity=0 time=6
7201	note_on channel=8 note=66 velocity=0 time=0
7202	note_on channel=6 note=73 velocity=0 time=0
7203	note_on channel=8 note=69 velocity=0 time=1
7204	note_on channel=6 note=66 velocity=0 time=1
7205	
7206	note_on channel=1 note=30 velocity=112 time=0
7207	note_on channel=8 note=66 velocity=61 time=0
7208	note_on channel=8 note=69 velocity=61 time=0
7209	note_on channel=8 note=73 velocity=61 time=0
7210	note_on channel=9 note=36 velocity=127 time=0
7211	note_on channel=9 note=35 velocity=127 time=0
7212	note_on channel=9 note=82 velocity=108 time=0
7213	note_on channel=9 note=55 velocity=110 time=0
7214	note_on channel=9 note=27 velocity=119 time=0
7215	note_on channel=10 note=73 velocity=90 time=0
7216	note_on channel=9 note=27 velocity=0 time=10
7217	note_on channel=9 note=55 velocity=0 time=0
7218	note_on channel=9 note=82 velocity=0 time=0
7219	note_on channel=9 note=35 velocity=0 time=0
7220	note_on channel=9 note=36 velocity=0 time=0
7221	note_on channel=9 note=35 velocity=127 time=20
7222	note_on channel=9 note=27 velocity=119 time=0
7223	note_on channel=9 note=27 velocity=0 time=10
7224	note_on channel=9 note=35 velocity=0 time=0
7225	note_on channel=9 note=82 velocity=90 time=20
7226	note_on channel=9 note=82 velocity=0 time=10
7227	note_on channel=1 note=30 velocity=0 time=20
7228	note_on channel=9 note=35 velocity=127 time=0
7229	note_on channel=9 note=27 velocity=119 time=0
7230	note_on channel=9 note=27 velocity=0 time=10
7231	note_on channel=9 note=35 velocity=0 time=0
7232	note_on channel=9 note=35 velocity=127 time=20
7233	note_on channel=9 note=82 velocity=88 time=0
7234	note_on channel=9 note=27 velocity=119 time=0
7235	note_on channel=9 note=27 velocity=0 time=10
7236	note_on channel=9 note=35 velocity=0 time=0
7237	note_on channel=9 note=82 velocity=0 time=0
7238	note_on channel=9 note=35 velocity=127 time=20
7239	note_on channel=9 note=27 velocity=119 time=0
7240	note_on channel=9 note=27 velocity=0 time=10
7241	note_on channel=9 note=35 velocity=0 time=0
7242	note_on channel=9 note=35 velocity=127 time=20
7243	note_on channel=9 note=38 velocity=88 time=0
7244	note_on channel=9 note=82 velocity=67 time=0
7245	note_on channel=9 note=37 velocity=127 time=0
7246	note_on channel=9 note=27 velocity=119 time=0
7247	note_on channel=9 note=27 velocity=0 time=10
7248	note_on channel=9 note=37 velocity=0 time=0
7249	note_on channel=9 note=82 velocity=0 time=0
7250	note_on channel=9 note=35 velocity=0 time=0
7251	note_on channel=9 note=38 velocity=0 time=0
7252	note_on channel=9 note=35 velocity=127 time=20
7253	note_on channel=9 note=27 velocity=119 time=0
7254	note_on channel=9 note=27 velocity=0 time=10
7255	note_on channel=9 note=35 velocity=0 time=0
7256	note_on channel=1 note=28 velocity=110 time=20
7257	note_on channel=9 note=35 velocity=127 time=0
7258	note_on channel=9 note=82 velocity=109 time=0
7259	note_on channel=9 note=27 velocity=119 time=0
7260	note_on channel=9 note=27 velocity=0 time=10
7261	note_on channel=9 note=82 velocity=0 time=0
7262	note_on channel=9 note=35 velocity=0 time=0
7263	note_on channel=9 note=35 velocity=127 time=20
7264	note_on channel=9 note=38 velocity=87 time=0
7265	note_on channel=9 note=37 velocity=127 time=0
7266	note_on channel=9 note=27 velocity=119 time=0
7267	note_on channel=9 note=27 velocity=0 time=10
7268	note_on channel=9 note=37 velocity=0 time=0
7269	note_on channel=9 note=38 velocity=0 time=0
7270	note_on channel=9 note=35 velocity=0 time=0
7271	note_on channel=9 note=35 velocity=127 time=20
7272	note_on channel=9 note=82 velocity=88 time=0
7273	note_on channel=9 note=27 velocity=119 time=0
7274	note_on channel=9 note=27 velocity=0 time=10
7275	note_on channel=9 note=82 velocity=0 time=0
7276	note_on channel=9 note=35 velocity=0 time=0
7277	note_on channel=1 note=28 velocity=0 time=40
7278	note_on channel=1 note=30 velocity=88 time=10
7279	note_on channel=9 note=35 velocity=127 time=0
7280	note_on channel=9 note=38 velocity=86 time=0
7281	note_on channel=9 note=82 velocity=90 time=0
7282	note_on channel=9 note=37 velocity=127 time=0
7283	note_on channel=9 note=27 velocity=119 time=0
7284	note_on channel=9 note=27 velocity=0 time=10
7285	note_on channel=9 note=37 velocity=0 time=0
7286	note_on channel=9 note=38 velocity=0 time=0
7287	note_on channel=9 note=82 velocity=0 time=0
7288	note_on channel=9 note=35 velocity=0 time=0
7289	note_on channel=9 note=35 velocity=127 time=50
7290	note_on channel=9 note=82 velocity=67 time=0
7291	note_on channel=9 note=27 velocity=119 time=0
7292	note_on channel=9 note=27 velocity=0 time=10
7293	note_on channel=9 note=82 velocity=0 time=0
7294	note_on channel=9 note=35 velocity=0 time=0
7295	note_on channel=1 note=30 velocity=0 time=20
7296	note_on channel=9 note=35 velocity=127 time=0
7297	note_on channel=9 note=27 velocity=119 time=0
7298	note_on channel=9 note=27 velocity=0 time=10
7299	note_on channel=9 note=35 velocity=0 time=0
7300	note_on channel=10 note=73 velocity=0 time=14
7301	note_on channel=8 note=69 velocity=0 time=2
7302	note_on channel=8 note=73 velocity=0 time=1
7303	note_on channel=8 note=66 velocity=0 time=0
7304	note_on channel=1 note=35 velocity=110 time=3
7305	note_on channel=8 note=66 velocity=59 time=0
7306	note_on channel=8 note=71 velocity=59 time=0
7307	note_on channel=8 note=74 velocity=59 time=0
7308	note_on channel=9 note=36 velocity=127 time=0
7309	note_on channel=9 note=35 velocity=127 time=0
7310	note_on channel=9 note=82 velocity=108 time=0
7311	note_on channel=9 note=27 velocity=119 time=0
7312	note_on channel=9 note=27 velocity=0 time=10
7313	note_on channel=9 note=82 velocity=0 time=0
7314	note_on channel=9 note=36 velocity=0 time=0
7315	note_on channel=1 note=35 velocity=0 time=0
7316	note_on channel=9 note=35 velocity=0 time=0
7317	note_on channel=1 note=37 velocity=71 time=20
7318	note_on channel=9 note=35 velocity=127 time=0
7319	note_on channel=9 note=27 velocity=119 time=0
7320	note_on channel=9 note=27 velocity=0 time=10
7321	note_on channel=1 note=37 velocity=0 time=0
7322	note_on channel=9 note=35 velocity=0 time=0
7323	
7324	note_on channel=1 note=45 velocity=92 time=0
7325	note_on channel=9 note=82 velocity=90 time=0
7326	note_on channel=10 note=71 velocity=90 time=0
7327	note_on channel=9 note=82 velocity=0 time=10
7328	note_on channel=10 note=71 velocity=0 time=16
7329	
7330	note_on channel=1 note=45 velocity=0 time=0
7331	note_on channel=9 note=35 velocity=127 time=0
7332	note_on channel=9 note=27 velocity=119 time=0
7333	note_on channel=10 note=71 velocity=90 time=0
7334	note_on channel=9 note=27 velocity=0 time=10
7335	note_on channel=9 note=35 velocity=0 time=0
7336	note_on channel=1 note=43 velocity=92 time=20
7337	note_on channel=9 note=35 velocity=127 time=0
7338	note_on channel=9 note=82 velocity=88 time=0
7339	note_on channel=9 note=27 velocity=119 time=0
7340	note_on channel=9 note=27 velocity=0 time=10
7341	note_on channel=9 note=82 velocity=0 time=0
7342	note_on channel=9 note=35 velocity=0 time=0
7343	note_on channel=1 note=43 velocity=0 time=10
7344	note_on channel=10 note=71 velocity=0 time=9
7345	
7346	note_on channel=1 note=45 velocity=91 time=0
7347	note_on channel=9 note=35 velocity=127 time=0
7348	note_on channel=9 note=27 velocity=119 time=0
7349	note_on channel=10 note=71 velocity=90 time=0
7350	note_on channel=9 note=27 velocity=0 time=10
7351	note_on channel=9 note=35 velocity=0 time=0
7352	note_on channel=10 note=71 velocity=0 time=19
7353	
7354	note_on channel=1 note=45 velocity=0 time=0
7355	note_on channel=1 note=35 velocity=92 time=0
7356	note_on channel=9 note=35 velocity=127 time=0
7357	note_on channel=9 note=38 velocity=88 time=0
7358	note_on channel=9 note=82 velocity=67 time=0
7359	note_on channel=9 note=37 velocity=127 time=0
7360	note_on channel=9 note=27 velocity=119 time=0
7361	note_on channel=10 note=71 velocity=90 time=0
7362	note_on channel=9 note=27 velocity=0 time=10
7363	note_on channel=9 note=37 velocity=0 time=0
7364	note_on channel=9 note=82 velocity=0 time=0
7365	note_on channel=1 note=35 velocity=0 time=0
7366	note_on channel=9 note=35 velocity=0 time=0
7367	note_on channel=9 note=38 velocity=0 time=0
7368	note_on channel=1 note=35 velocity=110 time=20
7369	note_on channel=9 note=35 velocity=127 time=0
7370	note_on channel=9 note=27 velocity=119 time=0
7371	note_on channel=9 note=27 velocity=0 time=10
7372	note_on channel=9 note=35 velocity=0 time=0
7373	note_on channel=10 note=71 velocity=0 time=14
7374	
7375	note_on channel=9 note=35 velocity=127 time=0
7376	note_on channel=9 note=82 velocity=109 time=0
7377	note_on channel=9 note=27 velocity=119 time=0
7378	note_on channel=10 note=71 velocity=90 time=0
7379	note_on channel=9 note=27 velocity=0 time=10
7380	note_on channel=9 note=82 velocity=0 time=0
7381	note_on channel=9 note=35 velocity=0 time=0
7382	note_on channel=1 note=35 velocity=0 time=20
7383	note_on channel=1 note=35 velocity=91 time=0
7384	note_on channel=9 note=35 velocity=127 time=0
7385	note_on channel=9 note=38 velocity=87 time=0
7386	note_on channel=9 note=37 velocity=127 time=0
7387	note_on channel=9 note=27 velocity=119 time=0
7388	note_on channel=9 note=27 velocity=0 time=10
7389	note_on channel=9 note=37 velocity=0 time=0
7390	note_on channel=9 note=38 velocity=0 time=0
7391	note_on channel=9 note=35 velocity=0 time=0
7392	note_on channel=1 note=35 velocity=0 time=10
7393	note_on channel=10 note=71 velocity=0 time=4
7394	
7395	note_on channel=9 note=35 velocity=127 time=0
7396	note_on channel=9 note=82 velocity=88 time=0
7397	note_on channel=9 note=27 velocity=119 time=0
7398	note_on channel=10 note=71 velocity=90 time=0
7399	note_on channel=9 note=27 velocity=0 time=10
7400	note_on channel=9 note=35 velocity=0 time=0
7401	note_on channel=9 note=82 velocity=0 time=0
7402	note_on channel=10 note=71 velocity=0 time=46
7403	
7404	note_on channel=1 note=28 velocity=91 time=0
7405	note_on channel=9 note=35 velocity=127 time=0
7406	note_on channel=9 note=38 velocity=86 time=0
7407	note_on channel=9 note=82 velocity=90 time=0
7408	note_on channel=9 note=37 velocity=127 time=0
7409	note_on channel=9 note=27 velocity=119 time=0
7410	note_on channel=10 note=71 velocity=90 time=0
7411	note_on channel=9 note=27 velocity=0 time=10
7412	note_on channel=9 note=37 velocity=0 time=0
7413	note_on channel=9 note=82 velocity=0 time=0
7414	note_on channel=9 note=38 velocity=0 time=0
7415	note_on channel=9 note=35 velocity=0 time=0
7416	note_on channel=10 note=71 velocity=0 time=40
7417	
7418	note_on channel=9 note=35 velocity=127 time=0
7419	note_on channel=9 note=82 velocity=67 time=0
7420	note_on channel=9 note=27 velocity=119 time=0
7421	note_on channel=10 note=71 velocity=90 time=0
7422	note_on channel=9 note=27 velocity=0 time=10
7423	note_on channel=9 note=82 velocity=0 time=0
7424	note_on channel=9 note=35 velocity=0 time=0
7425	note_on channel=9 note=35 velocity=127 time=20
7426	note_on channel=9 note=27 velocity=119 time=0
7427	note_on channel=9 note=27 velocity=0 time=10
7428	note_on channel=9 note=35 velocity=0 time=0
7429	note_on channel=10 note=71 velocity=0 time=14
7430	note_on channel=8 note=71 velocity=0 time=2
7431	note_on channel=8 note=74 velocity=0 time=0
7432	note_on channel=8 note=66 velocity=0 time=1
7433	note_on channel=1 note=28 velocity=0 time=3
7434	note_on channel=1 note=30 velocity=110 time=0
7435	note_on channel=8 note=66 velocity=59 time=0
7436	note_on channel=8 note=69 velocity=59 time=0
7437	note_on channel=8 note=73 velocity=59 time=0
7438	note_on channel=9 note=36 velocity=127 time=0
7439	note_on channel=9 note=35 velocity=127 time=0
7440	note_on channel=9 note=82 velocity=108 time=0
7441	note_on channel=9 note=27 velocity=119 time=0
7442	note_on channel=9 note=27 velocity=0 time=10
7443	note_on channel=9 note=82 velocity=0 time=0
7444	note_on channel=9 note=36 velocity=0 time=0
7445	note_on channel=9 note=35 velocity=0 time=0
7446	note_on channel=9 note=35 velocity=127 time=20
7447	note_on channel=9 note=27 velocity=119 time=0
7448	note_on channel=9 note=27 velocity=0 time=10
7449	note_on channel=9 note=35 velocity=0 time=0
7450	note_on channel=1 note=30 velocity=0 time=10
7451	
7452	note_on channel=1 note=30 velocity=88 time=0
7453	note_on channel=9 note=82 velocity=90 time=0
7454	note_on channel=10 note=69 velocity=90 time=0
7455	note_on channel=9 note=82 velocity=0 time=10
7456	note_on channel=10 note=69 velocity=0 time=19
7457	
7458	note_on channel=9 note=35 velocity=127 time=0
7459	note_on channel=9 note=27 velocity=119 time=0
7460	note_on channel=10 note=69 velocity=90 time=0
7461	note_on channel=9 note=27 velocity=0 time=10
7462	note_on channel=9 note=35 velocity=0 time=0
7463	note_on channel=9 note=35 velocity=127 time=20
7464	note_on channel=9 note=82 velocity=88 time=0
7465	note_on channel=9 note=27 velocity=119 time=0
7466	note_on channel=9 note=27 velocity=0 time=10
7467	note_on channel=9 note=82 velocity=0 time=0
7468	note_on channel=9 note=35 velocity=0 time=0
7469	note_on channel=10 note=69 velocity=0 time=14
7470	
7471	note_on channel=1 note=30 velocity=0 time=0
7472	note_on channel=9 note=35 velocity=127 time=0
7473	note_on channel=9 note=27 velocity=119 time=0
7474	note_on channel=10 note=66 velocity=90 time=0
7475	note_on channel=9 note=27 velocity=0 time=10
7476	note_on channel=9 note=35 velocity=0 time=0
7477	note_on channel=9 note=35 velocity=127 time=20
7478	note_on channel=9 note=38 velocity=88 time=0
7479	note_on channel=9 note=82 velocity=67 time=0
7480	note_on channel=9 note=37 velocity=127 time=0
7481	note_on channel=9 note=27 velocity=119 time=0
7482	note_on channel=9 note=27 velocity=0 time=10
7483	note_on channel=9 note=37 velocity=0 time=0
7484	note_on channel=9 note=82 velocity=0 time=0
7485	note_on channel=9 note=35 velocity=0 time=0
7486	note_on channel=9 note=38 velocity=0 time=0
7487	note_on channel=10 note=66 velocity=0 time=12
7488	
7489	note_on channel=9 note=35 velocity=127 time=0
7490	note_on channel=9 note=27 velocity=119 time=0
7491	note_on channel=10 note=64 velocity=90 time=0
7492	note_on channel=9 note=27 velocity=0 time=10
7493	note_on channel=9 note=35 velocity=0 time=0
7494	
7495	note_on channel=1 note=30 velocity=109 time=0
7496	note_on channel=9 note=35 velocity=127 time=0
7497	note_on channel=9 note=82 velocity=109 time=0
7498	note_on channel=9 note=27 velocity=119 time=0
7499	note_on channel=10 note=66 velocity=90 time=0
7500	note_on channel=10 note=64 velocity=0 time=2
7501	note_on channel=9 note=27 velocity=0 time=8
7502	note_on channel=9 note=82 velocity=0 time=0
7503	note_on channel=9 note=35 velocity=0 time=0
7504	note_on channel=9 note=35 velocity=127 time=20
7505	note_on channel=9 note=38 velocity=87 time=0
7506	note_on channel=9 note=37 velocity=127 time=0
7507	note_on channel=9 note=27 velocity=119 time=0
7508	note_on channel=9 note=27 velocity=0 time=10
7509	note_on channel=9 note=37 velocity=0 time=0
7510	note_on channel=9 note=38 velocity=0 time=0
7511	note_on channel=9 note=35 velocity=0 time=0
7512	note_on channel=9 note=35 velocity=127 time=20
7513	note_on channel=9 note=82 velocity=88 time=0
7514	note_on channel=9 note=27 velocity=119 time=0
7515	note_on channel=9 note=27 velocity=0 time=10
7516	note_on channel=9 note=82 velocity=0 time=0
7517	note_on channel=9 note=35 velocity=0 time=0
7518	note_on channel=1 note=30 velocity=0 time=40
7519	note_on channel=10 note=66 velocity=0 time=0
7520	
7521	note_on channel=1 note=33 velocity=90 time=0
7522	note_on channel=9 note=35 velocity=127 time=0
7523	note_on channel=9 note=38 velocity=86 time=0
7524	note_on channel=9 note=82 velocity=90 time=0
7525	note_on channel=9 note=37 velocity=127 time=0
7526	note_on channel=9 note=27 velocity=119 time=0
7527	note_on channel=10 note=66 velocity=90 time=0
7528	note_on channel=9 note=27 velocity=0 time=10
7529	note_on channel=9 note=37 velocity=0 time=0
7530	note_on channel=9 note=82 velocity=0 time=0
7531	note_on channel=9 note=38 velocity=0 time=0
7532	note_on channel=9 note=35 velocity=0 time=0
7533	note_on channel=10 note=66 velocity=0 time=44
7534	
7535	note_on channel=9 note=35 velocity=127 time=0
7536	note_on channel=9 note=82 velocity=67 time=0
7537	note_on channel=9 note=27 velocity=119 time=0
7538	note_on channel=10 note=66 velocity=90 time=0
7539	note_on channel=9 note=27 velocity=0 time=10
7540	note_on channel=9 note=82 velocity=0 time=0
7541	note_on channel=9 note=35 velocity=0 time=0
7542	note_on channel=9 note=35 velocity=127 time=20
7543	note_on channel=9 note=27 velocity=119 time=0
7544	note_on channel=9 note=27 velocity=0 time=10
7545	note_on channel=9 note=35 velocity=0 time=0
7546	note_on channel=8 note=73 velocity=0 time=16
7547	note_on channel=8 note=69 velocity=0 time=0
7548	note_on channel=8 note=66 velocity=0 time=1
7549	
7550	note_on channel=1 note=33 velocity=0 time=0
7551	note_on channel=10 note=66 velocity=0 time=0
7552	note_on channel=1 note=35 velocity=109 time=0
7553	note_on channel=8 note=66 velocity=59 time=0
7554	note_on channel=8 note=71 velocity=59 time=0
7555	note_on channel=8 note=74 velocity=59 time=0
7556	note_on channel=9 note=36 velocity=127 time=0
7557	note_on channel=9 note=35 velocity=127 time=0
7558	note_on channel=9 note=82 velocity=108 time=0
7559	note_on channel=9 note=27 velocity=119 time=0
7560	note_on channel=10 note=69 velocity=90 time=0
7561	note_on channel=9 note=27 velocity=0 time=10
7562	note_on channel=9 note=82 velocity=0 time=0
7563	note_on channel=9 note=35 velocity=0 time=0
7564	note_on channel=9 note=36 velocity=0 time=0
7565	note_on channel=9 note=35 velocity=127 time=20
7566	note_on channel=9 note=27 velocity=119 time=0
7567	note_on channel=9 note=27 velocity=0 time=10
7568	note_on channel=9 note=35 velocity=0 time=0
7569	note_on channel=10 note=69 velocity=0 time=19
7570	
7571	note_on channel=1 note=35 velocity=0 time=0
7572	note_on channel=1 note=35 velocity=89 time=0
7573	note_on channel=9 note=82 velocity=90 time=0
7574	note_on channel=10 note=69 velocity=90 time=0
7575	note_on channel=9 note=82 velocity=0 time=10
7576	note_on channel=9 note=35 velocity=127 time=20
7577	note_on channel=9 note=27 velocity=119 time=0
7578	note_on channel=9 note=27 velocity=0 time=10
7579	note_on channel=9 note=35 velocity=0 time=0
7580	note_on channel=9 note=35 velocity=127 time=20
7581	note_on channel=9 note=82 velocity=88 time=0
7582	note_on channel=9 note=27 velocity=119 time=0
7583	note_on channel=9 note=27 velocity=0 time=10
7584	note_on channel=9 note=82 velocity=0 time=0
7585	note_on channel=9 note=35 velocity=0 time=0
7586	note_on channel=10 note=69 velocity=0 time=6
7587	
7588	note_on channel=1 note=35 velocity=0 time=0
7589	note_on channel=9 note=35 velocity=127 time=0
7590	note_on channel=9 note=27 velocity=119 time=0
7591	note_on channel=10 note=66 velocity=90 time=0
7592	note_on channel=9 note=27 velocity=0 time=10
7593	note_on channel=9 note=35 velocity=0 time=0
7594	note_on channel=1 note=35 velocity=108 time=20
7595	note_on channel=9 note=35 velocity=127 time=0
7596	note_on channel=9 note=38 velocity=88 time=0
7597	note_on channel=9 note=82 velocity=67 time=0
7598	note_on channel=9 note=37 velocity=127 time=0
7599	note_on channel=9 note=27 velocity=119 time=0
7600	note_on channel=9 note=27 velocity=0 time=10
7601	note_on channel=9 note=37 velocity=0 time=0
7602	note_on channel=9 note=38 velocity=0 time=0
7603	note_on channel=9 note=82 velocity=0 time=0
7604	note_on channel=9 note=35 velocity=0 time=0
7605	note_on channel=10 note=66 velocity=0 time=16
7606	
7607	note_on channel=9 note=35 velocity=127 time=0
7608	note_on channel=9 note=27 velocity=119 time=0
7609	note_on channel=10 note=64 velocity=90 time=0
7610	note_on channel=9 note=27 velocity=0 time=10
7611	note_on channel=9 note=35 velocity=0 time=0
7612	note_on channel=8 note=66 velocity=0 time=17
7613	note_on channel=8 note=71 velocity=0 time=0
7614	note_on channel=8 note=74 velocity=0 time=0
7615	
7616	note_on channel=1 note=35 velocity=0 time=0
7617	note_on channel=1 note=30 velocity=100 time=0
7618	note_on channel=8 note=66 velocity=56 time=0
7619	note_on channel=8 note=69 velocity=56 time=0
7620	note_on channel=8 note=73 velocity=56 time=0
7621	note_on channel=9 note=35 velocity=127 time=0
7622	note_on channel=9 note=82 velocity=109 time=0
7623	note_on channel=9 note=27 velocity=119 time=0
7624	note_on channel=10 note=66 velocity=90 time=0
7625	note_on channel=10 note=64 velocity=0 time=2
7626	note_on channel=9 note=27 velocity=0 time=8
7627	note_on channel=9 note=82 velocity=0 time=0
7628	note_on channel=9 note=35 velocity=0 time=0
7629	note_on channel=9 note=35 velocity=127 time=20
7630	note_on channel=9 note=38 velocity=87 time=0
7631	note_on channel=9 note=37 velocity=127 time=0
7632	note_on channel=9 note=27 velocity=119 time=0
7633	note_on channel=9 note=27 velocity=0 time=10
7634	note_on channel=9 note=37 velocity=0 time=0
7635	note_on channel=9 note=38 velocity=0 time=0
7636	note_on channel=9 note=35 velocity=0 time=0
7637	note_on channel=9 note=35 velocity=127 time=20
7638	note_on channel=9 note=82 velocity=88 time=0
7639	note_on channel=9 note=27 velocity=119 time=0
7640	note_on channel=9 note=27 velocity=0 time=10
7641	note_on channel=9 note=82 velocity=0 time=0
7642	note_on channel=9 note=35 velocity=0 time=0
7643	note_on channel=6 note=66 velocity=90 time=20
7644	note_on channel=9 note=35 velocity=127 time=30
7645	note_on channel=9 note=38 velocity=86 time=0
7646	note_on channel=9 note=82 velocity=90 time=0
7647	note_on channel=9 note=37 velocity=127 time=0
7648	note_on channel=9 note=27 velocity=119 time=0
7649	note_on channel=9 note=27 velocity=0 time=10
7650	note_on channel=9 note=38 velocity=0 time=0
7651	note_on channel=9 note=37 velocity=0 time=0
7652	note_on channel=9 note=35 velocity=0 time=0
7653	note_on channel=9 note=82 velocity=0 time=0
7654	note_on channel=6 note=66 velocity=0 time=14
7655	note_on channel=6 note=66 velocity=90 time=6
7656	note_on channel=6 note=66 velocity=0 time=28
7657	note_on channel=6 note=66 velocity=90 time=2
7658	note_on channel=9 note=35 velocity=127 time=0
7659	note_on channel=9 note=82 velocity=67 time=0
7660	note_on channel=9 note=27 velocity=119 time=0
7661	note_on channel=10 note=66 velocity=0 time=2
7662	note_on channel=9 note=27 velocity=0 time=8
7663	note_on channel=9 note=82 velocity=0 time=0
7664	note_on channel=9 note=35 velocity=0 time=0
7665	note_on channel=9 note=35 velocity=127 time=20
7666	note_on channel=9 note=27 velocity=119 time=0
7667	note_on channel=9 note=27 velocity=0 time=10
7668	note_on channel=9 note=35 velocity=0 time=0
7669	note_on channel=6 note=66 velocity=0 time=12
7670	note_on channel=8 note=73 velocity=0 time=4
7671	note_on channel=8 note=69 velocity=0 time=2
7672	note_on channel=8 note=66 velocity=0 time=0
7673	note_on channel=1 note=30 velocity=0 time=2
7674	note_on channel=1 note=42 velocity=109 time=0
7675	note_on channel=6 note=68 velocity=90 time=0
7676	note_on channel=8 note=66 velocity=60 time=0
7677	note_on channel=8 note=69 velocity=60 time=0
7678	note_on channel=8 note=73 velocity=60 time=0
7679	note_on channel=9 note=36 velocity=127 time=0
7680	note_on channel=9 note=35 velocity=127 time=0
7681	note_on channel=9 note=82 velocity=108 time=0
7682	note_on channel=9 note=27 velocity=119 time=0
7683	pitchwheel channel=6 pitch=0 time=6
7684	pitchwheel channel=6 pitch=128 time=2
7685	note_on channel=9 note=27 velocity=0 time=2
7686	note_on channel=9 note=82 velocity=0 time=0
7687	note_on channel=9 note=35 velocity=0 time=0
7688	note_on channel=9 note=36 velocity=0 time=0
7689	pitchwheel channel=6 pitch=1280 time=0
7690	pitchwheel channel=6 pitch=1536 time=2
7691	pitchwheel channel=6 pitch=1792 time=2
7692	pitchwheel channel=6 pitch=2816 time=2
7693	pitchwheel channel=6 pitch=3712 time=2
7694	note_on channel=9 note=35 velocity=127 time=12
7695	note_on channel=9 note=27 velocity=119 time=0
7696	note_on channel=9 note=27 velocity=0 time=10
7697	note_on channel=9 note=35 velocity=0 time=0
7698	note_on channel=6 note=68 velocity=0 time=19
7699	note_on channel=1 note=42 velocity=0 time=1
7700	note_on channel=1 note=40 velocity=69 time=0
7701	note_on channel=6 note=68 velocity=90 time=0
7702	note_on channel=9 note=82 velocity=90 time=0
7703	pitchwheel channel=6 pitch=-128 time=6
7704	pitchwheel channel=6 pitch=256 time=2
7705	note_on channel=9 note=82 velocity=0 time=2
7706	note_on channel=1 note=40 velocity=0 time=0
7707	pitchwheel channel=6 pitch=3840 time=2
7708	note_on channel=1 note=38 velocity=92 time=18
7709	note_on channel=9 note=35 velocity=127 time=0
7710	note_on channel=9 note=27 velocity=119 time=0
7711	note_on channel=9 note=27 velocity=0 time=10
7712	note_on channel=1 note=38 velocity=0 time=0
7713	note_on channel=9 note=35 velocity=0 time=0
7714	note_on channel=1 note=37 velocity=70 time=20
7715	note_on channel=9 note=35 velocity=127 time=0
7716	note_on channel=9 note=82 velocity=88 time=0
7717	note_on channel=9 note=27 velocity=119 time=0
7718	note_on channel=9 note=27 velocity=0 time=10
7719	note_on channel=9 note=82 velocity=0 time=0
7720	note_on channel=1 note=37 velocity=0 time=0
7721	note_on channel=9 note=35 velocity=0 time=0
7722	note_on channel=6 note=68 velocity=0 time=12
7723	note_on channel=6 note=66 velocity=90 time=8
7724	note_on channel=9 note=35 velocity=127 time=0
7725	note_on channel=9 note=27 velocity=119 time=0
7726	pitchwheel channel=6 pitch=0 time=4
7727	note_on channel=9 note=27 velocity=0 time=6
7728	note_on channel=9 note=35 velocity=0 time=0
7729	note_on channel=1 note=42 velocity=111 time=20
7730	note_on channel=9 note=35 velocity=127 time=0
7731	note_on channel=9 note=38 velocity=88 time=0
7732	note_on channel=9 note=82 velocity=67 time=0
7733	note_on channel=9 note=37 velocity=127 time=0
7734	note_on channel=9 note=27 velocity=119 time=0
7735	note_on channel=9 note=27 velocity=0 time=10
7736	note_on channel=9 note=37 velocity=0 time=0
7737	note_on channel=9 note=38 velocity=0 time=0
7738	note_on channel=9 note=82 velocity=0 time=0
7739	note_on channel=9 note=35 velocity=0 time=0
7740	note_on channel=6 note=66 velocity=0 time=18
7741	note_on channel=6 note=64 velocity=90 time=2
7742	note_on channel=9 note=35 velocity=127 time=0
7743	note_on channel=9 note=27 velocity=119 time=0
7744	note_on channel=9 note=27 velocity=0 time=10
7745	note_on channel=9 note=35 velocity=0 time=0
7746	note_on channel=6 note=64 velocity=0 time=18
7747	note_on channel=1 note=42 velocity=0 time=2
7748	note_on channel=1 note=40 velocity=70 time=0
7749	note_on channel=6 note=66 velocity=90 time=0
7750	note_on channel=9 note=35 velocity=127 time=0
7751	note_on channel=9 note=82 velocity=109 time=0
7752	note_on channel=9 note=27 velocity=119 time=0
7753	note_on channel=9 note=27 velocity=0 time=10
7754	note_on channel=9 note=82 velocity=0 time=0
7755	note_on channel=1 note=40 velocity=0 time=0
7756	note_on channel=9 note=35 velocity=0 time=0
7757	note_on channel=1 note=38 velocity=70 time=20
7758	note_on channel=9 note=35 velocity=127 time=0
7759	note_on channel=9 note=38 velocity=87 time=0
7760	note_on channel=9 note=37 velocity=127 time=0
7761	note_on channel=9 note=27 velocity=119 time=0
7762	note_on channel=9 note=27 velocity=0 time=10
7763	note_on channel=9 note=37 velocity=0 time=0
7764	note_on channel=9 note=38 velocity=0 time=0
7765	note_on channel=1 note=38 velocity=0 time=0
7766	note_on channel=9 note=35 velocity=0 time=0
7767	note_on channel=6 note=66 velocity=0 time=18
7768	note_on channel=1 note=40 velocity=89 time=2
7769	note_on channel=9 note=35 velocity=127 time=0
7770	note_on channel=9 note=82 velocity=88 time=0
7771	note_on channel=9 note=27 velocity=119 time=0
7772	note_on channel=9 note=27 velocity=0 time=10
7773	note_on channel=9 note=35 velocity=0 time=0
7774	note_on channel=9 note=82 velocity=0 time=0
7775	note_on channel=1 note=40 velocity=0 time=10
7776	note_on channel=1 note=38 velocity=92 time=10
7777	note_on channel=6 note=73 velocity=90 time=0
7778	note_on channel=6 note=66 velocity=90 time=0
7779	note_on channel=1 note=38 velocity=0 time=30
7780	note_on channel=1 note=37 velocity=70 time=0
7781	note_on channel=9 note=35 velocity=127 time=0
7782	note_on channel=9 note=38 velocity=86 time=0
7783	note_on channel=9 note=82 velocity=90 time=0
7784	note_on channel=9 note=37 velocity=127 time=0
7785	note_on channel=9 note=27 velocity=119 time=0
7786	note_on channel=9 note=27 velocity=0 time=10
7787	note_on channel=9 note=38 velocity=0 time=0
7788	note_on channel=9 note=37 velocity=0 time=0
7789	note_on channel=9 note=35 velocity=0 time=0
7790	note_on channel=9 note=82 velocity=0 time=0
7791	note_on channel=1 note=37 velocity=0 time=0
7792	note_on channel=6 note=66 velocity=0 time=18
7793	note_on channel=6 note=73 velocity=0 time=1
7794	note_on channel=1 note=35 velocity=72 time=1
7795	note_on channel=6 note=73 velocity=90 time=0
7796	note_on channel=6 note=66 velocity=90 time=0
7797	note_on channel=1 note=35 velocity=0 time=10
7798	note_on channel=6 note=73 velocity=0 time=19
7799	note_on channel=6 note=66 velocity=0 time=0
7800	
7801	note_on channel=1 note=52 velocity=91 time=0
7802	note_on channel=6 note=73 velocity=90 time=0
7803	note_on channel=6 note=66 velocity=90 time=0
7804	note_on channel=9 note=35 velocity=127 time=0
7805	note_on channel=9 note=82 velocity=67 time=0
7806	note_on channel=9 note=27 velocity=119 time=0
7807	note_on channel=10 note=61 velocity=90 time=0
7808	note_on channel=9 note=27 velocity=0 time=10
7809	note_on channel=9 note=82 velocity=0 time=0
7810	note_on channel=9 note=35 velocity=0 time=0
7811	note_on channel=1 note=52 velocity=0 time=20
7812	note_on channel=1 note=37 velocity=89 time=0
7813	note_on channel=9 note=35 velocity=127 time=0
7814	note_on channel=9 note=27 velocity=119 time=0
7815	note_on channel=9 note=27 velocity=0 time=10
7816	note_on channel=9 note=35 velocity=0 time=0
7817	note_on channel=1 note=37 velocity=0 time=10
7818	note_on channel=10 note=61 velocity=0 time=2
7819	note_on channel=8 note=66 velocity=0 time=4
7820	note_on channel=6 note=73 velocity=0 time=0
7821	note_on channel=8 note=73 velocity=0 time=0
7822	note_on channel=8 note=69 velocity=0 time=1
7823	note_on channel=6 note=66 velocity=0 time=1
7824	
7825	note_on channel=1 note=30 velocity=108 time=0
7826	note_on channel=8 note=66 velocity=61 time=0
7827	note_on channel=8 note=69 velocity=61 time=0
7828	note_on channel=8 note=73 velocity=61 time=0
7829	note_on channel=9 note=36 velocity=127 time=0
7830	note_on channel=9 note=35 velocity=127 time=0
7831	note_on channel=9 note=82 velocity=108 time=0
7832	note_on channel=10 note=66 velocity=90 time=0
7833	note_on channel=9 note=82 velocity=0 time=10
7834	note_on channel=9 note=35 velocity=0 time=0
7835	note_on channel=9 note=36 velocity=0 time=0
7836	note_on channel=10 note=66 velocity=0 time=42
7837	
7838	note_on channel=1 note=30 velocity=0 time=0
7839	note_on channel=1 note=30 velocity=89 time=0
7840	note_on channel=9 note=82 velocity=90 time=0
7841	note_on channel=9 note=27 velocity=103 time=0
7842	note_on channel=10 note=66 velocity=90 time=0
7843	note_on channel=9 note=27 velocity=0 time=10
7844	note_on channel=9 note=82 velocity=0 time=0
7845	note_on channel=1 note=30 velocity=0 time=10
7846	note_on channel=1 note=32 velocity=90 time=40
7847	note_on channel=9 note=82 velocity=88 time=0
7848	note_on channel=9 note=27 velocity=101 time=0
7849	note_on channel=9 note=27 velocity=0 time=10
7850	note_on channel=1 note=32 velocity=0 time=0
7851	note_on channel=9 note=82 velocity=0 time=0
7852	note_on channel=10 note=66 velocity=0 time=18
7853	
7854	note_on channel=1 note=30 velocity=111 time=0
7855	note_on channel=10 note=66 velocity=90 time=0
7856	note_on channel=1 note=30 velocity=0 time=30
7857	note_on channel=9 note=38 velocity=88 time=0
7858	note_on channel=9 note=82 velocity=67 time=0
7859	note_on channel=9 note=37 velocity=127 time=0
7860	note_on channel=9 note=37 velocity=0 time=10
7861	note_on channel=9 note=38 velocity=0 time=0
7862	note_on channel=9 note=82 velocity=0 time=0
7863	note_on channel=10 note=66 velocity=0 time=19
7864	
7865	note_on channel=1 note=30 velocity=109 time=0
7866	note_on channel=10 note=61 velocity=90 time=0
7867	note_on channel=8 note=69 velocity=0 time=27
7868	note_on channel=8 note=73 velocity=0 time=1
7869	note_on channel=8 note=66 velocity=0 time=0
7870	
7871	note_on channel=1 note=30 velocity=0 time=0
7872	note_on channel=1 note=40 velocity=84 time=0
7873	note_on channel=8 note=68 velocity=55 time=0
7874	note_on channel=8 note=71 velocity=55 time=0
7875	note_on channel=8 note=76 velocity=55 time=0
7876	note_on channel=9 note=82 velocity=109 time=0
7877	note_on channel=10 note=64 velocity=90 time=0
7878	note_on channel=10 note=61 velocity=0 time=2
7879	note_on channel=1 note=40 velocity=0 time=8
7880	note_on channel=9 note=82 velocity=0 time=0
7881	note_on channel=9 note=38 velocity=87 time=20
7882	note_on channel=9 note=37 velocity=127 time=0
7883	note_on channel=9 note=37 velocity=0 time=10
7884	note_on channel=9 note=38 velocity=0 time=0
7885	note_on channel=1 note=38 velocity=72 time=20
7886	note_on channel=9 note=82 velocity=88 time=0
7887	note_on channel=9 note=82 velocity=0 time=10
7888	note_on channel=1 note=38 velocity=0 time=0
7889	note_on channel=1 note=28 velocity=112 time=20
7890	note_on channel=10 note=64 velocity=0 time=20
7891	note_on channel=9 note=38 velocity=86 time=10
7892	note_on channel=9 note=82 velocity=90 time=0
7893	note_on channel=9 note=37 velocity=127 time=0
7894	note_on channel=9 note=37 velocity=0 time=10
7895	note_on channel=9 note=38 velocity=0 time=0
7896	note_on channel=9 note=82 velocity=0 time=0
7897	note_on channel=1 note=28 velocity=0 time=20
7898	note_on channel=1 note=30 velocity=70 time=0
7899	note_on channel=1 note=30 velocity=0 time=10
7900	
7901	note_on channel=1 note=32 velocity=89 time=0
7902	note_on channel=9 note=82 velocity=67 time=0
7903	note_on channel=10 note=61 velocity=90 time=0
7904	note_on channel=9 note=82 velocity=0 time=10
7905	note_on channel=1 note=32 velocity=0 time=0
7906	note_on channel=1 note=30 velocity=71 time=20
7907	note_on channel=1 note=30 velocity=0 time=10
7908	note_on channel=10 note=61 velocity=0 time=14
7909	note_on channel=8 note=68 velocity=0 time=2
7910	note_on channel=8 note=76 velocity=0 time=0
7911	note_on channel=8 note=71 velocity=0 time=2
7912	
7913	note_on channel=1 note=30 velocity=108 time=0
7914	note_on channel=8 note=66 velocity=61 time=0
7915	note_on channel=8 note=69 velocity=61 time=0
7916	note_on channel=8 note=73 velocity=61 time=0
7917	note_on channel=9 note=36 velocity=127 time=0
7918	note_on channel=9 note=35 velocity=127 time=0
7919	note_on channel=9 note=82 velocity=108 time=0
7920	note_on channel=10 note=66 velocity=90 time=0
7921	note_on channel=9 note=82 velocity=0 time=10
7922	note_on channel=9 note=35 velocity=0 time=0
7923	note_on channel=9 note=36 velocity=0 time=0
7924	note_on channel=10 note=66 velocity=0 time=42
7925	
7926	note_on channel=1 note=30 velocity=0 time=0
7927	note_on channel=1 note=30 velocity=89 time=0
7928	note_on channel=9 note=82 velocity=90 time=0
7929	note_on channel=9 note=27 velocity=103 time=0
7930	note_on channel=10 note=66 velocity=90 time=0
7931	note_on channel=9 note=27 velocity=0 time=10
7932	note_on channel=9 note=82 velocity=0 time=0
7933	note_on channel=1 note=30 velocity=0 time=10
7934	note_on channel=10 note=66 velocity=0 time=32
7935	
7936	note_on channel=1 note=32 velocity=90 time=0
7937	note_on channel=9 note=82 velocity=88 time=0
7938	note_on channel=9 note=27 velocity=101 time=0
7939	note_on channel=10 note=69 velocity=90 time=0
7940	note_on channel=9 note=27 velocity=0 time=10
7941	note_on channel=1 note=32 velocity=0 time=0
7942	note_on channel=9 note=82 velocity=0 time=0
7943	note_on channel=1 note=30 velocity=111 time=20
7944	note_on channel=10 note=69 velocity=0 time=29
7945	
7946	note_on channel=1 note=30 velocity=0 time=0
7947	note_on channel=9 note=38 velocity=88 time=0
7948	note_on channel=9 note=82 velocity=67 time=0
7949	note_on channel=9 note=37 velocity=127 time=0
7950	note_on channel=10 note=69 velocity=90 time=0
7951	note_on channel=9 note=37 velocity=0 time=10
7952	note_on channel=9 note=38 velocity=0 time=0
7953	note_on channel=9 note=82 velocity=0 time=0
7954	
7955	note_on channel=1 note=30 velocity=109 time=0
7956	note_on channel=10 note=68 velocity=90 time=0
7957	note_on channel=10 note=69 velocity=0 time=2
7958	note_on channel=8 note=69 velocity=0 time=25
7959	note_on channel=8 note=73 velocity=0 time=1
7960	note_on channel=8 note=66 velocity=0 time=0
7961	note_on channel=1 note=30 velocity=0 time=2
7962	note_on channel=1 note=40 velocity=84 time=0
7963	note_on channel=8 note=68 velocity=55 time=0
7964	note_on channel=8 note=71 velocity=55 time=0
7965	note_on channel=8 note=76 velocity=55 time=0
7966	note_on channel=9 note=82 velocity=109 time=0
7967	note_on channel=9 note=82 velocity=0 time=10
7968	note_on channel=1 note=40 velocity=0 time=0
7969	note_on channel=9 note=38 velocity=87 time=20
7970	note_on channel=9 note=37 velocity=127 time=0
7971	note_on channel=9 note=37 velocity=0 time=10
7972	note_on channel=9 note=38 velocity=0 time=0
7973	note_on channel=1 note=38 velocity=72 time=20
7974	note_on channel=9 note=82 velocity=88 time=0
7975	note_on channel=9 note=82 velocity=0 time=10
7976	note_on channel=1 note=38 velocity=0 time=0
7977	note_on channel=10 note=68 velocity=0 time=10
7978	note_on channel=1 note=28 velocity=112 time=10
7979	note_on channel=9 note=38 velocity=86 time=30
7980	note_on channel=9 note=82 velocity=90 time=0
7981	note_on channel=9 note=37 velocity=127 time=0
7982	note_on channel=9 note=37 velocity=0 time=10
7983	note_on channel=9 note=38 velocity=0 time=0
7984	note_on channel=9 note=82 velocity=0 time=0
7985	note_on channel=1 note=28 velocity=0 time=20
7986	note_on channel=1 note=30 velocity=70 time=0
7987	note_on channel=1 note=30 velocity=0 time=10
7988	
7989	note_on channel=1 note=32 velocity=89 time=0
7990	note_on channel=9 note=82 velocity=67 time=0
7991	note_on channel=10 note=61 velocity=90 time=0
7992	note_on channel=9 note=82 velocity=0 time=10
7993	note_on channel=1 note=32 velocity=0 time=0
7994	note_on channel=1 note=30 velocity=71 time=20
7995	note_on channel=1 note=30 velocity=0 time=10
7996	note_on channel=10 note=61 velocity=0 time=14
7997	note_on channel=8 note=68 velocity=0 time=2
7998	note_on channel=8 note=76 velocity=0 time=0
7999	note_on channel=8 note=71 velocity=0 time=2
8000	
8001	note_on channel=1 note=30 velocity=108 time=0
8002	note_on channel=8 note=66 velocity=61 time=0
8003	note_on channel=8 note=69 velocity=61 time=0
8004	note_on channel=8 note=73 velocity=61 time=0
8005	note_on channel=9 note=36 velocity=127 time=0
8006	note_on channel=9 note=35 velocity=127 time=0
8007	note_on channel=9 note=82 velocity=108 time=0
8008	note_on channel=10 note=66 velocity=90 time=0
8009	note_on channel=9 note=82 velocity=0 time=10
8010	note_on channel=9 note=35 velocity=0 time=0
8011	note_on channel=9 note=36 velocity=0 time=0
8012	note_on channel=10 note=66 velocity=0 time=42
8013	
8014	note_on channel=1 note=30 velocity=0 time=0
8015	note_on channel=1 note=30 velocity=89 time=0
8016	note_on channel=9 note=82 velocity=90 time=0
8017	note_on channel=9 note=27 velocity=103 time=0
8018	note_on channel=10 note=66 velocity=90 time=0
8019	note_on channel=9 note=27 velocity=0 time=10
8020	note_on channel=9 note=82 velocity=0 time=0
8021	note_on channel=1 note=30 velocity=0 time=10
8022	note_on channel=1 note=32 velocity=90 time=40
8023	note_on channel=9 note=82 velocity=88 time=0
8024	note_on channel=9 note=27 velocity=101 time=0
8025	note_on channel=9 note=27 velocity=0 time=10
8026	note_on channel=1 note=32 velocity=0 time=0
8027	note_on channel=9 note=82 velocity=0 time=0
8028	note_on channel=10 note=66 velocity=0 time=18
8029	
8030	note_on channel=1 note=30 velocity=111 time=0
8031	note_on channel=10 note=66 velocity=90 time=0
8032	note_on channel=1 note=30 velocity=0 time=30
8033	note_on channel=9 note=38 velocity=88 time=0
8034	note_on channel=9 note=82 velocity=67 time=0
8035	note_on channel=9 note=37 velocity=127 time=0
8036	note_on channel=9 note=37 velocity=0 time=10
8037	note_on channel=9 note=38 velocity=0 time=0
8038	note_on channel=9 note=82 velocity=0 time=0
8039	note_on channel=10 note=66 velocity=0 time=19
8040	
8041	note_on channel=1 note=30 velocity=109 time=0
8042	note_on channel=10 note=61 velocity=90 time=0
8043	note_on channel=8 note=69 velocity=0 time=27
8044	note_on channel=8 note=73 velocity=0 time=1
8045	note_on channel=8 note=66 velocity=0 time=0
8046	
8047	note_on channel=1 note=30 velocity=0 time=0
8048	note_on channel=1 note=40 velocity=84 time=0
8049	note_on channel=8 note=68 velocity=55 time=0
8050	note_on channel=8 note=71 velocity=55 time=0
8051	note_on channel=8 note=76 velocity=55 time=0
8052	note_on channel=9 note=82 velocity=109 time=0
8053	note_on channel=10 note=64 velocity=90 time=0
8054	note_on channel=10 note=61 velocity=0 time=2
8055	note_on channel=1 note=40 velocity=0 time=8
8056	note_on channel=9 note=82 velocity=0 time=0
8057	note_on channel=9 note=38 velocity=87 time=20
8058	note_on channel=9 note=37 velocity=127 time=0
8059	note_on channel=9 note=37 velocity=0 time=10
8060	note_on channel=9 note=38 velocity=0 time=0
8061	note_on channel=1 note=38 velocity=72 time=20
8062	note_on channel=9 note=82 velocity=88 time=0
8063	note_on channel=9 note=82 velocity=0 time=10
8064	note_on channel=1 note=38 velocity=0 time=0
8065	note_on channel=1 note=28 velocity=112 time=20
8066	note_on channel=10 note=64 velocity=0 time=20
8067	note_on channel=9 note=38 velocity=86 time=10
8068	note_on channel=9 note=82 velocity=90 time=0
8069	note_on channel=9 note=37 velocity=127 time=0
8070	note_on channel=9 note=37 velocity=0 time=10
8071	note_on channel=9 note=38 velocity=0 time=0
8072	note_on channel=9 note=82 velocity=0 time=0
8073	note_on channel=1 note=28 velocity=0 time=20
8074	note_on channel=1 note=30 velocity=70 time=0
8075	note_on channel=1 note=30 velocity=0 time=10
8076	
8077	note_on channel=1 note=32 velocity=89 time=0
8078	note_on channel=9 note=82 velocity=67 time=0
8079	note_on channel=10 note=61 velocity=90 time=0
8080	note_on channel=9 note=82 velocity=0 time=10
8081	note_on channel=1 note=32 velocity=0 time=0
8082	note_on channel=1 note=30 velocity=71 time=20
8083	note_on channel=1 note=30 velocity=0 time=10
8084	note_on channel=10 note=61 velocity=0 time=14
8085	note_on channel=8 note=68 velocity=0 time=2
8086	note_on channel=8 note=76 velocity=0 time=0
8087	note_on channel=8 note=71 velocity=0 time=2
8088	
8089	note_on channel=1 note=30 velocity=108 time=0
8090	note_on channel=8 note=66 velocity=61 time=0
8091	note_on channel=8 note=69 velocity=61 time=0
8092	note_on channel=8 note=73 velocity=61 time=0
8093	note_on channel=9 note=36 velocity=127 time=0
8094	note_on channel=9 note=35 velocity=127 time=0
8095	note_on channel=9 note=82 velocity=108 time=0
8096	note_on channel=10 note=66 velocity=90 time=0
8097	note_on channel=9 note=82 velocity=0 time=10
8098	note_on channel=9 note=35 velocity=0 time=0
8099	note_on channel=9 note=36 velocity=0 time=0
8100	note_on channel=10 note=66 velocity=0 time=42
8101	
8102	note_on channel=1 note=30 velocity=0 time=0
8103	note_on channel=1 note=30 velocity=89 time=0
8104	note_on channel=9 note=82 velocity=90 time=0
8105	note_on channel=9 note=27 velocity=103 time=0
8106	note_on channel=10 note=66 velocity=90 time=0
8107	note_on channel=9 note=27 velocity=0 time=10
8108	note_on channel=9 note=82 velocity=0 time=0
8109	note_on channel=1 note=30 velocity=0 time=10
8110	note_on channel=10 note=66 velocity=0 time=32
8111	
8112	note_on channel=1 note=32 velocity=90 time=0
8113	note_on channel=9 note=82 velocity=88 time=0
8114	note_on channel=9 note=27 velocity=101 time=0
8115	note_on channel=10 note=69 velocity=90 time=0
8116	note_on channel=9 note=27 velocity=0 time=10
8117	note_on channel=1 note=32 velocity=0 time=0
8118	note_on channel=9 note=82 velocity=0 time=0
8119	note_on channel=1 note=30 velocity=111 time=20
8120	note_on channel=10 note=69 velocity=0 time=29
8121	
8122	note_on channel=1 note=30 velocity=0 time=0
8123	note_on channel=9 note=38 velocity=88 time=0
8124	note_on channel=9 note=82 velocity=67 time=0
8125	note_on channel=9 note=37 velocity=127 time=0
8126	note_on channel=10 note=69 velocity=90 time=0
8127	note_on channel=9 note=37 velocity=0 time=10
8128	note_on channel=9 note=38 velocity=0 time=0
8129	note_on channel=9 note=82 velocity=0 time=0
8130	
8131	note_on channel=1 note=30 velocity=109 time=0
8132	note_on channel=10 note=68 velocity=90 time=0
8133	note_on channel=10 note=69 velocity=0 time=2
8134	note_on channel=8 note=69 velocity=0 time=25
8135	note_on channel=8 note=73 velocity=0 time=1
8136	note_on channel=8 note=66 velocity=0 time=0
8137	note_on channel=1 note=30 velocity=0 time=2
8138	note_on channel=1 note=40 velocity=84 time=0
8139	note_on channel=8 note=68 velocity=55 time=0
8140	note_on channel=8 note=71 velocity=55 time=0
8141	note_on channel=8 note=76 velocity=55 time=0
8142	note_on channel=9 note=82 velocity=109 time=0
8143	note_on channel=9 note=82 velocity=0 time=10
8144	note_on channel=1 note=40 velocity=0 time=0
8145	note_on channel=9 note=38 velocity=87 time=20
8146	note_on channel=9 note=37 velocity=127 time=0
8147	note_on channel=9 note=37 velocity=0 time=10
8148	note_on channel=9 note=38 velocity=0 time=0
8149	note_on channel=1 note=38 velocity=72 time=20
8150	note_on channel=9 note=82 velocity=88 time=0
8151	note_on channel=9 note=82 velocity=0 time=10
8152	note_on channel=1 note=38 velocity=0 time=0
8153	note_on channel=10 note=68 velocity=0 time=10
8154	note_on channel=1 note=28 velocity=112 time=10
8155	note_on channel=9 note=38 velocity=86 time=30
8156	note_on channel=9 note=82 velocity=90 time=0
8157	note_on channel=9 note=37 velocity=127 time=0
8158	note_on channel=9 note=37 velocity=0 time=10
8159	note_on channel=9 note=38 velocity=0 time=0
8160	note_on channel=9 note=82 velocity=0 time=0
8161	
8162	note_on channel=1 note=28 velocity=0 time=0
8163	note_on channel=1 note=30 velocity=70 time=0
8164	note_on channel=10 note=73 velocity=90 time=0
8165	note_on channel=1 note=30 velocity=0 time=10
8166	note_on channel=1 note=32 velocity=89 time=20
8167	note_on channel=9 note=82 velocity=67 time=0
8168	note_on channel=9 note=82 velocity=0 time=10
8169	note_on channel=1 note=32 velocity=0 time=0
8170	note_on channel=10 note=73 velocity=0 time=12
8171	
8172	note_on channel=1 note=30 velocity=71 time=0
8173	note_on channel=10 note=73 velocity=90 time=0
8174	note_on channel=1 note=30 velocity=0 time=10
8175	note_on channel=10 note=73 velocity=0 time=12
8176	note_on channel=8 note=76 velocity=0 time=4
8177	note_on channel=8 note=68 velocity=0 time=0
8178	note_on channel=8 note=71 velocity=0 time=2
8179	
8180	note_on channel=1 note=33 velocity=111 time=0
8181	note_on channel=8 note=69 velocity=61 time=0
8182	note_on channel=8 note=73 velocity=61 time=0
8183	note_on channel=8 note=76 velocity=61 time=0
8184	note_on channel=9 note=36 velocity=127 time=0
8185	note_on channel=9 note=35 velocity=127 time=0
8186	note_on channel=9 note=82 velocity=88 time=0
8187	note_on channel=10 note=76 velocity=90 time=0
8188	note_on channel=9 note=82 velocity=0 time=10
8189	note_on channel=9 note=35 velocity=0 time=0
8190	note_on channel=9 note=36 velocity=0 time=0
8191	note_on channel=1 note=33 velocity=0 time=50
8192	note_on channel=1 note=37 velocity=71 time=0
8193	note_on channel=9 note=82 velocity=70 time=0
8194	note_on channel=9 note=27 velocity=83 time=0
8195	note_on channel=9 note=27 velocity=0 time=10
8196	note_on channel=1 note=37 velocity=0 time=0
8197	note_on channel=9 note=82 velocity=0 time=0
8198	note_on channel=1 note=33 velocity=88 time=20
8199	note_on channel=1 note=33 velocity=0 time=10
8200	note_on channel=1 note=31 velocity=91 time=20
8201	note_on channel=9 note=82 velocity=68 time=0
8202	note_on channel=9 note=27 velocity=81 time=0
8203	note_on channel=9 note=27 velocity=0 time=10
8204	note_on channel=9 note=82 velocity=0 time=0
8205	note_on channel=1 note=31 velocity=0 time=10
8206	note_on channel=10 note=76 velocity=0 time=6
8207	
8208	note_on channel=10 note=74 velocity=90 time=0
8209	note_on channel=1 note=33 velocity=112 time=30
8210	note_on channel=9 note=38 velocity=68 time=0
8211	note_on channel=9 note=82 velocity=47 time=0
8212	note_on channel=9 note=37 velocity=127 time=0
8213	note_on channel=9 note=37 velocity=0 time=10
8214	note_on channel=9 note=82 velocity=0 time=0
8215	note_on channel=9 note=38 velocity=0 time=0
8216	
8217	note_on channel=10 note=74 velocity=0 time=0
8218	note_on channel=10 note=73 velocity=90 time=0
8219	note_on channel=8 note=73 velocity=0 time=26
8220	note_on channel=8 note=76 velocity=0 time=2
8221	note_on channel=10 note=73 velocity=0 time=0
8222	note_on channel=8 note=69 velocity=0 time=0
8223	
8224	note_on channel=1 note=33 velocity=0 time=0
8225	note_on channel=1 note=35 velocity=75 time=0
8226	note_on channel=8 note=66 velocity=56 time=0
8227	note_on channel=8 note=71 velocity=56 time=0
8228	note_on channel=8 note=74 velocity=56 time=0
8229	note_on channel=9 note=82 velocity=89 time=0
8230	note_on channel=10 note=74 velocity=90 time=0
8231	note_on channel=9 note=82 velocity=0 time=10
8232	note_on channel=1 note=35 velocity=0 time=0
8233	note_on channel=9 note=38 velocity=67 time=20
8234	note_on channel=9 note=37 velocity=127 time=0
8235	note_on channel=9 note=37 velocity=0 time=10
8236	note_on channel=9 note=38 velocity=0 time=0
8237	note_on channel=1 note=36 velocity=92 time=20
8238	note_on channel=9 note=82 velocity=68 time=0
8239	note_on channel=9 note=82 velocity=0 time=10
8240	note_on channel=1 note=36 velocity=0 time=10
8241	note_on channel=1 note=45 velocity=92 time=10
8242	note_on channel=9 note=38 velocity=66 time=30
8243	note_on channel=9 note=82 velocity=70 time=0
8244	note_on channel=9 note=37 velocity=127 time=0
8245	note_on channel=9 note=37 velocity=0 time=10
8246	note_on channel=9 note=82 velocity=0 time=0
8247	note_on channel=9 note=38 velocity=0 time=0
8248	note_on channel=1 note=45 velocity=0 time=10
8249	note_on channel=10 note=74 velocity=0 time=6
8250	
8251	note_on channel=1 note=42 velocity=92 time=0
8252	note_on channel=10 note=73 velocity=90 time=0
8253	note_on channel=1 note=42 velocity=0 time=30
8254	note_on channel=1 note=45 velocity=90 time=0
8255	note_on channel=9 note=82 velocity=47 time=0
8256	note_on channel=9 note=82 velocity=0 time=10
8257	note_on channel=10 note=73 velocity=0 time=12
8258	note_on channel=1 note=45 velocity=0 time=8
8259	note_on channel=1 note=47 velocity=92 time=0
8260	note_on channel=1 note=47 velocity=0 time=20
8261	note_on channel=8 note=66 velocity=0 time=6
8262	note_on channel=8 note=74 velocity=0 time=0
8263	note_on channel=8 note=71 velocity=0 time=1
8264	
8265	note_on channel=1 note=30 velocity=111 time=0
8266	note_on channel=8 note=66 velocity=59 time=0
8267	note_on channel=8 note=69 velocity=59 time=0
8268	note_on channel=8 note=73 velocity=59 time=0
8269	note_on channel=9 note=36 velocity=127 time=0
8270	note_on channel=9 note=35 velocity=127 time=0
8271	note_on channel=9 note=82 velocity=90 time=0
8272	note_on channel=10 note=73 velocity=90 time=0
8273	note_on channel=9 note=82 velocity=0 time=10
8274	note_on channel=1 note=30 velocity=0 time=0
8275	note_on channel=9 note=36 velocity=0 time=0
8276	note_on channel=9 note=35 velocity=0 time=0
8277	note_on channel=1 note=32 velocity=71 time=20
8278	note_on channel=1 note=32 velocity=0 time=10
8279	note_on channel=10 note=73 velocity=0 time=16
8280	
8281	note_on channel=1 note=40 velocity=89 time=0
8282	note_on channel=9 note=82 velocity=71 time=0
8283	note_on channel=9 note=27 velocity=83 time=0
8284	note_on channel=10 note=69 velocity=90 time=0
8285	note_on channel=9 note=27 velocity=0 time=10
8286	note_on channel=9 note=82 velocity=0 time=0
8287	note_on channel=1 note=40 velocity=0 time=20
8288	note_on channel=9 note=36 velocity=127 time=0
8289	note_on channel=9 note=35 velocity=127 time=0
8290	note_on channel=9 note=35 velocity=0 time=10
8291	note_on channel=9 note=36 velocity=0 time=0
8292	
8293	note_on channel=10 note=69 velocity=0 time=0
8294	note_on channel=1 note=38 velocity=89 time=0
8295	note_on channel=9 note=82 velocity=71 time=0
8296	note_on channel=9 note=27 velocity=83 time=0
8297	note_on channel=10 note=71 velocity=90 time=0
8298	note_on channel=9 note=27 velocity=0 time=10
8299	note_on channel=9 note=82 velocity=0 time=0
8300	note_on channel=1 note=38 velocity=0 time=10
8301	note_on channel=1 note=40 velocity=88 time=10
8302	note_on channel=10 note=71 velocity=0 time=28
8303	
8304	note_on channel=1 note=40 velocity=0 time=0
8305	note_on channel=1 note=30 velocity=91 time=0
8306	note_on channel=9 note=82 velocity=53 time=0
8307	note_on channel=9 note=37 velocity=127 time=0
8308	note_on channel=10 note=68 velocity=90 time=0
8309	note_on channel=9 note=37 velocity=0 time=10
8310	note_on channel=1 note=30 velocity=0 time=0
8311	note_on channel=9 note=82 velocity=0 time=0
8312	note_on channel=1 note=30 velocity=112 time=20
8313	note_on channel=8 note=73 velocity=0 time=26
8314	note_on channel=8 note=69 velocity=0 time=0
8315	note_on channel=8 note=66 velocity=0 time=2
8316	note_on channel=10 note=68 velocity=0 time=0
8317	
8318	note_on channel=1 note=30 velocity=0 time=0
8319	note_on channel=1 note=28 velocity=78 time=0
8320	note_on channel=8 note=68 velocity=56 time=0
8321	note_on channel=8 note=71 velocity=56 time=0
8322	note_on channel=8 note=76 velocity=56 time=0
8323	note_on channel=9 note=38 velocity=92 time=0
8324	note_on channel=9 note=82 velocity=89 time=0
8325	note_on channel=10 note=69 velocity=90 time=0
8326	note_on channel=9 note=82 velocity=0 time=10
8327	note_on channel=9 note=38 velocity=0 time=1
8328	note_on channel=9 note=38 velocity=93 time=4
8329	note_on channel=1 note=28 velocity=0 time=5
8330	note_on channel=9 note=38 velocity=0 time=8
8331	note_on channel=9 note=38 velocity=93 time=2
8332	note_on channel=9 note=37 velocity=127 time=0
8333	note_on channel=9 note=37 velocity=0 time=10
8334	note_on channel=9 note=38 velocity=0 time=0
8335	note_on channel=9 note=38 velocity=93 time=5
8336	note_on channel=9 note=38 velocity=0 time=9
8337	note_on channel=10 note=69 velocity=0 time=2
8338	note_on channel=1 note=32 velocity=71 time=4
8339	note_on channel=9 note=82 velocity=71 time=0
8340	note_on channel=10 note=68 velocity=90 time=0
8341	note_on channel=9 note=82 velocity=0 time=10
8342	note_on channel=1 note=32 velocity=0 time=0
8343	note_on channel=1 note=38 velocity=89 time=20
8344	note_on channel=9 note=38 velocity=67 time=0
8345	note_on channel=9 note=38 velocity=0 time=11
8346	note_on channel=10 note=68 velocity=0 time=17
8347	
8348	note_on channel=1 note=38 velocity=0 time=0
8349	note_on channel=1 note=40 velocity=92 time=0
8350	note_on channel=9 note=38 velocity=85 time=0
8351	note_on channel=9 note=82 velocity=69 time=0
8352	note_on channel=9 note=37 velocity=127 time=0
8353	note_on channel=10 note=66 velocity=90 time=0
8354	note_on channel=9 note=37 velocity=0 time=10
8355	note_on channel=1 note=40 velocity=0 time=0
8356	note_on channel=9 note=38 velocity=0 time=0
8357	note_on channel=9 note=82 velocity=0 time=0
8358	note_on channel=1 note=38 velocity=89 time=20
8359	note_on channel=9 note=36 velocity=127 time=0
8360	note_on channel=9 note=35 velocity=127 time=0
8361	note_on channel=9 note=35 velocity=0 time=10
8362	note_on channel=1 note=38 velocity=0 time=0
8363	note_on channel=9 note=36 velocity=0 time=0
8364	note_on channel=10 note=66 velocity=0 time=8
8365	note_on channel=1 note=35 velocity=91 time=12
8366	note_on channel=9 note=82 velocity=48 time=0
8367	note_on channel=9 note=82 velocity=0 time=10
8368	note_on channel=1 note=35 velocity=0 time=20
8369	note_on channel=1 note=33 velocity=69 time=0
8370	note_on channel=1 note=33 velocity=0 time=20
8371	note_on channel=8 note=76 velocity=0 time=8
8372	note_on channel=8 note=68 velocity=0 time=0
8373	note_on channel=8 note=71 velocity=0 time=0
8374	
8375	note_on channel=1 note=30 velocity=109 time=0
8376	note_on channel=8 note=66 velocity=60 time=0
8377	note_on channel=8 note=69 velocity=60 time=0
8378	note_on channel=8 note=73 velocity=60 time=0
8379	note_on channel=9 note=36 velocity=127 time=0
8380	note_on channel=9 note=35 velocity=127 time=0
8381	note_on channel=9 note=55 velocity=108 time=0
8382	note_on channel=10 note=69 velocity=90 time=0
8383	note_on channel=13 note=69 velocity=90 time=0
8384	note_on channel=9 note=55 velocity=0 time=10
8385	note_on channel=9 note=35 velocity=0 time=0
8386	note_on channel=9 note=36 velocity=0 time=0
8387	note_on channel=1 note=30 velocity=0 time=40
8388	note_on channel=13 note=69 velocity=0 time=64
8389	note_on channel=10 note=69 velocity=0 time=0
8390	
8391	note_on channel=10 note=68 velocity=90 time=0
8392	note_on channel=13 note=68 velocity=90 time=0
8393	note_on channel=1 note=31 velocity=91 time=30
8394	note_on channel=1 note=31 velocity=0 time=10
8395	
8396	note_on channel=10 note=68 velocity=0 time=0
8397	note_on channel=13 note=68 velocity=0 time=0
8398	note_on channel=1 note=28 velocity=111 time=0
8399	note_on channel=10 note=71 velocity=90 time=0
8400	note_on channel=13 note=71 velocity=90 time=0
8401	note_on channel=1 note=28 velocity=0 time=50
8402	note_on channel=8 note=73 velocity=0 time=7
8403	note_on channel=8 note=66 velocity=0 time=1
8404	note_on channel=8 note=69 velocity=0 time=0
8405	
8406	note_on channel=13 note=71 velocity=0 time=0
8407	note_on channel=10 note=71 velocity=0 time=0
8408	note_on channel=1 note=35 velocity=108 time=0
8409	note_on channel=8 note=66 velocity=54 time=0
8410	note_on channel=8 note=71 velocity=54 time=0
8411	note_on channel=8 note=74 velocity=54 time=0
8412	note_on channel=10 note=69 velocity=90 time=0
8413	note_on channel=13 note=69 velocity=90 time=0
8414	note_on channel=1 note=35 velocity=0 time=40
8415	
8416	note_on channel=10 note=69 velocity=0 time=0
8417	note_on channel=13 note=69 velocity=0 time=0
8418	note_on channel=10 note=68 velocity=90 time=0
8419	note_on channel=13 note=68 velocity=90 time=0
8420	note_on channel=13 note=68 velocity=0 time=50
8421	note_on channel=10 note=68 velocity=0 time=0
8422	
8423	note_on channel=10 note=66 velocity=90 time=0
8424	note_on channel=13 note=66 velocity=90 time=0
8425	
8426	note_on channel=1 note=37 velocity=92 time=0
8427	note_on channel=9 note=38 velocity=67 time=0
8428	note_on channel=10 note=62 velocity=90 time=0
8429	note_on channel=13 note=62 velocity=90 time=0
8430	note_on channel=13 note=66 velocity=0 time=2
8431	note_on channel=10 note=66 velocity=0 time=0
8432	note_on channel=9 note=38 velocity=0 time=8
8433	note_on channel=1 note=37 velocity=0 time=10
8434	note_on channel=9 note=38 velocity=67 time=10
8435	note_on channel=9 note=38 velocity=0 time=10
8436	note_on channel=8 note=74 velocity=0 time=16
8437	note_on channel=8 note=71 velocity=0 time=0
8438	note_on channel=8 note=66 velocity=0 time=0
8439	note_on channel=13 note=62 velocity=0 time=2
8440	note_on channel=10 note=62 velocity=0 time=0
8441	
8442	note_on channel=1 note=30 velocity=112 time=0
8443	note_on channel=8 note=66 velocity=59 time=0
8444	note_on channel=8 note=69 velocity=59 time=0
8445	note_on channel=8 note=73 velocity=59 time=0
8446	note_on channel=9 note=36 velocity=127 time=0
8447	note_on channel=9 note=35 velocity=127 time=0
8448	note_on channel=9 note=62 velocity=111 time=0
8449	note_on channel=9 note=55 velocity=110 time=0
8450	note_on channel=10 note=61 velocity=90 time=0
8451	note_on channel=12 note=66 velocity=90 time=0
8452	note_on channel=13 note=61 velocity=90 time=0
8453	note_on channel=9 note=55 velocity=0 time=10
8454	note_on channel=9 note=62 velocity=0 time=0
8455	note_on channel=9 note=35 velocity=0 time=0
8456	note_on channel=9 note=36 velocity=0 time=2
8457	note_on channel=9 note=63 velocity=60 time=18
8458	note_on channel=9 note=62 velocity=109 time=0
8459	note_on channel=9 note=62 velocity=0 time=10
8460	note_on channel=9 note=63 velocity=0 time=0
8461	note_on channel=1 note=30 velocity=0 time=10
8462	note_on channel=1 note=32 velocity=92 time=10
8463	note_on channel=9 note=82 velocity=109 time=0
8464	note_on channel=9 note=82 velocity=0 time=10
8465	note_on channel=1 note=32 velocity=0 time=50
8466	note_on channel=1 note=30 velocity=91 time=0
8467	note_on channel=9 note=38 velocity=85 time=0
8468	note_on channel=9 note=62 velocity=108 time=0
8469	note_on channel=9 note=37 velocity=127 time=0
8470	note_on channel=9 note=37 velocity=0 time=10
8471	note_on channel=9 note=62 velocity=0 time=0
8472	note_on channel=9 note=38 velocity=0 time=0
8473	note_on channel=1 note=30 velocity=0 time=20
8474	note_on channel=10 note=61 velocity=0 time=8
8475	note_on channel=13 note=61 velocity=0 time=0
8476	
8477	note_on channel=1 note=30 velocity=91 time=0
8478	note_on channel=9 note=82 velocity=111 time=0
8479	note_on channel=10 note=69 velocity=90 time=0
8480	note_on channel=13 note=69 velocity=90 time=0
8481	note_on channel=9 note=82 velocity=0 time=10
8482	note_on channel=1 note=30 velocity=0 time=20
8483	note_on channel=9 note=62 velocity=109 time=0
8484	note_on channel=9 note=62 velocity=0 time=10
8485	note_on channel=12 note=66 velocity=0 time=8
8486	note_on channel=13 note=69 velocity=0 time=6
8487	note_on channel=10 note=69 velocity=0 time=0
8488	note_on channel=8 note=73 velocity=0 time=2
8489	note_on channel=8 note=69 velocity=0 time=1
8490	note_on channel=8 note=66 velocity=0 time=1
8491	
8492	note_on channel=1 note=28 velocity=88 time=0
8493	note_on channel=8 note=68 velocity=54 time=0
8494	note_on channel=8 note=71 velocity=54 time=0
8495	note_on channel=8 note=76 velocity=54 time=0
8496	note_on channel=9 note=64 velocity=68 time=0
8497	note_on channel=10 note=68 velocity=90 time=0
8498	note_on channel=12 note=64 velocity=90 time=0
8499	note_on channel=13 note=68 velocity=90 time=0
8500	note_on channel=9 note=64 velocity=0 time=10
8501	note_on channel=1 note=28 velocity=0 time=20
8502	note_on channel=9 note=63 velocity=58 time=0
8503	note_on channel=9 note=62 velocity=108 time=0
8504	note_on channel=9 note=62 velocity=0 time=10
8505	note_on channel=9 note=63 velocity=0 time=0
8506	note_on channel=1 note=28 velocity=92 time=20
8507	note_on channel=9 note=82 velocity=110 time=0
8508	note_on channel=9 note=63 velocity=59 time=0
8509	note_on channel=9 note=63 velocity=0 time=10
8510	note_on channel=9 note=82 velocity=0 time=0
8511	note_on channel=1 note=28 velocity=0 time=20
8512	note_on channel=9 note=63 velocity=59 time=0
8513	note_on channel=9 note=63 velocity=0 time=10
8514	note_on channel=1 note=28 velocity=89 time=20
8515	note_on channel=9 note=38 velocity=86 time=0
8516	note_on channel=9 note=64 velocity=67 time=0
8517	note_on channel=9 note=37 velocity=127 time=0
8518	note_on channel=9 note=37 velocity=0 time=10
8519	note_on channel=9 note=64 velocity=0 time=0
8520	note_on channel=9 note=38 velocity=0 time=0
8521	note_on channel=9 note=62 velocity=109 time=20
8522	note_on channel=9 note=62 velocity=0 time=10
8523	note_on channel=1 note=28 velocity=0 time=10
8524	note_on channel=12 note=64 velocity=0 time=8
8525	note_on channel=1 note=28 velocity=89 time=2
8526	note_on channel=9 note=36 velocity=127 time=0
8527	note_on channel=9 note=82 velocity=111 time=0
8528	note_on channel=9 note=62 velocity=108 time=0
8529	note_on channel=12 note=66 velocity=90 time=0
8530	note_on channel=13 note=68 velocity=0 time=4
8531	note_on channel=10 note=68 velocity=0 time=0
8532	note_on channel=9 note=62 velocity=0 time=6
8533	note_on channel=9 note=82 velocity=0 time=0
8534	note_on channel=9 note=36 velocity=0 time=2
8535	note_on channel=9 note=35 velocity=127 time=18
8536	note_on channel=9 note=62 velocity=110 time=0
8537	note_on channel=9 note=62 velocity=0 time=10
8538	note_on channel=9 note=35 velocity=0 time=4
8539	note_on channel=8 note=68 velocity=0 time=12
8540	note_on channel=8 note=71 velocity=0 time=1
8541	note_on channel=8 note=76 velocity=0 time=1
8542	
8543	note_on channel=1 note=28 velocity=0 time=0
8544	note_on channel=1 note=30 velocity=108 time=0
8545	note_on channel=8 note=66 velocity=59 time=0
8546	note_on channel=8 note=69 velocity=59 time=0
8547	note_on channel=8 note=73 velocity=59 time=0
8548	note_on channel=9 note=36 velocity=127 time=0
8549	note_on channel=9 note=35 velocity=127 time=0
8550	note_on channel=9 note=62 velocity=111 time=0
8551	note_on channel=10 note=69 velocity=90 time=0
8552	note_on channel=12 note=61 velocity=90 time=0
8553	note_on channel=13 note=69 velocity=90 time=0
8554	note_on channel=12 note=66 velocity=0 time=2
8555	note_on channel=9 note=62 velocity=0 time=8
8556	note_on channel=9 note=35 velocity=0 time=0
8557	note_on channel=9 note=36 velocity=0 time=2
8558	note_on channel=1 note=30 velocity=0 time=18
8559	note_on channel=9 note=63 velocity=60 time=0
8560	note_on channel=9 note=62 velocity=109 time=0
8561	note_on channel=9 note=62 velocity=0 time=10
8562	note_on channel=9 note=63 velocity=0 time=0
8563	note_on channel=1 note=30 velocity=88 time=20
8564	note_on channel=9 note=82 velocity=109 time=0
8565	note_on channel=9 note=82 velocity=0 time=10
8566	note_on channel=1 note=30 velocity=0 time=20
8567	note_on channel=10 note=69 velocity=0 time=24
8568	note_on channel=13 note=69 velocity=0 time=0
8569	
8570	note_on channel=1 note=30 velocity=89 time=0
8571	note_on channel=9 note=38 velocity=85 time=0
8572	note_on channel=9 note=62 velocity=108 time=0
8573	note_on channel=9 note=37 velocity=127 time=0
8574	note_on channel=10 note=68 velocity=90 time=0
8575	note_on channel=13 note=68 velocity=90 time=0
8576	note_on channel=9 note=37 velocity=0 time=10
8577	note_on channel=9 note=62 velocity=0 time=0
8578	note_on channel=9 note=38 velocity=0 time=0
8579	note_on channel=1 note=30 velocity=0 time=40
8580	
8581	note_on channel=10 note=68 velocity=0 time=0
8582	note_on channel=13 note=68 velocity=0 time=0
8583	note_on channel=1 note=30 velocity=91 time=0
8584	note_on channel=9 note=82 velocity=111 time=0
8585	note_on channel=10 note=71 velocity=90 time=0
8586	note_on channel=13 note=71 velocity=90 time=0
8587	note_on channel=9 note=82 velocity=0 time=10
8588	note_on channel=9 note=62 velocity=109 time=20
8589	note_on channel=9 note=62 velocity=0 time=10
8590	note_on channel=8 note=66 velocity=0 time=16
8591	note_on channel=8 note=69 velocity=0 time=0
8592	note_on channel=8 note=73 velocity=0 time=1
8593	
8594	note_on channel=1 note=30 velocity=0 time=0
8595	note_on channel=13 note=71 velocity=0 time=0
8596	note_on channel=10 note=71 velocity=0 time=0
8597	note_on channel=1 note=35 velocity=88 time=0
8598	note_on channel=8 note=66 velocity=56 time=0
8599	note_on channel=8 note=71 velocity=56 time=0
8600	note_on channel=8 note=74 velocity=56 time=0
8601	note_on channel=9 note=64 velocity=68 time=0
8602	note_on channel=10 note=69 velocity=90 time=0
8603	note_on channel=13 note=69 velocity=90 time=0
8604	note_on channel=12 note=61 velocity=0 time=6
8605	note_on channel=9 note=64 velocity=0 time=4
8606	note_on channel=9 note=63 velocity=58 time=20
8607	note_on channel=9 note=62 velocity=108 time=0
8608	note_on channel=9 note=62 velocity=0 time=10
8609	note_on channel=9 note=63 velocity=0 time=0
8610	note_on channel=1 note=35 velocity=0 time=10
8611	note_on channel=13 note=69 velocity=0 time=10
8612	note_on channel=10 note=69 velocity=0 time=0
8613	note_on channel=1 note=35 velocity=91 time=0
8614	note_on channel=9 note=82 velocity=110 time=0
8615	note_on channel=9 note=63 velocity=59 time=0
8616	note_on channel=10 note=68 velocity=90 time=0
8617	note_on channel=13 note=68 velocity=90 time=0
8618	note_on channel=9 note=63 velocity=0 time=10
8619	note_on channel=9 note=82 velocity=0 time=0
8620	note_on channel=9 note=63 velocity=59 time=20
8621	note_on channel=9 note=63 velocity=0 time=10
8622	note_on channel=10 note=68 velocity=0 time=10
8623	note_on channel=13 note=68 velocity=0 time=0
8624	
8625	note_on channel=1 note=35 velocity=0 time=0
8626	note_on channel=1 note=35 velocity=91 time=0
8627	note_on channel=9 note=38 velocity=86 time=0
8628	note_on channel=9 note=64 velocity=67 time=0
8629	note_on channel=9 note=37 velocity=127 time=0
8630	note_on channel=10 note=66 velocity=90 time=0
8631	note_on channel=13 note=66 velocity=90 time=0
8632	note_on channel=9 note=37 velocity=0 time=10
8633	note_on channel=9 note=64 velocity=0 time=0
8634	note_on channel=9 note=38 velocity=0 time=0
8635	note_on channel=9 note=62 velocity=109 time=20
8636	note_on channel=9 note=62 velocity=0 time=10
8637	note_on channel=1 note=35 velocity=0 time=10
8638	note_on channel=1 note=35 velocity=88 time=10
8639	note_on channel=9 note=36 velocity=127 time=0
8640	note_on channel=9 note=82 velocity=111 time=0
8641	note_on channel=9 note=62 velocity=108 time=0
8642	note_on channel=10 note=62 velocity=90 time=0
8643	note_on channel=13 note=62 velocity=90 time=0
8644	note_on channel=13 note=66 velocity=0 time=2
8645	note_on channel=10 note=66 velocity=0 time=0
8646	note_on channel=9 note=62 velocity=0 time=8
8647	note_on channel=9 note=82 velocity=0 time=0
8648	note_on channel=9 note=36 velocity=0 time=2
8649	note_on channel=9 note=35 velocity=127 time=18
8650	note_on channel=9 note=62 velocity=110 time=0
8651	note_on channel=9 note=62 velocity=0 time=10
8652	note_on channel=9 note=35 velocity=0 time=4
8653	note_on channel=8 note=71 velocity=0 time=12
8654	note_on channel=8 note=66 velocity=0 time=1
8655	note_on channel=8 note=74 velocity=0 time=0
8656	note_on channel=13 note=62 velocity=0 time=1
8657	note_on channel=10 note=62 velocity=0 time=0
8658	
8659	note_on channel=1 note=35 velocity=0 time=0
8660	note_on channel=1 note=30 velocity=108 time=0
8661	note_on channel=8 note=66 velocity=61 time=0
8662	note_on channel=8 note=69 velocity=61 time=0
8663	note_on channel=8 note=73 velocity=61 time=0
8664	note_on channel=9 note=36 velocity=127 time=0
8665	note_on channel=9 note=35 velocity=127 time=0
8666	note_on channel=9 note=62 velocity=111 time=0
8667	note_on channel=10 note=61 velocity=90 time=0
8668	note_on channel=12 note=66 velocity=90 time=0
8669	note_on channel=13 note=61 velocity=90 time=0
8670	note_on channel=9 note=62 velocity=0 time=10
8671	note_on channel=9 note=35 velocity=0 time=0
8672	note_on channel=9 note=36 velocity=0 time=2
8673	note_on channel=9 note=63 velocity=60 time=18
8674	note_on channel=9 note=62 velocity=109 time=0
8675	note_on channel=9 note=62 velocity=0 time=10
8676	note_on channel=9 note=63 velocity=0 time=0
8677	note_on channel=1 note=30 velocity=0 time=10
8678	note_on channel=1 note=30 velocity=92 time=10
8679	note_on channel=9 note=82 velocity=109 time=0
8680	note_on channel=9 note=82 velocity=0 time=10
8681	note_on channel=1 note=30 velocity=0 time=50
8682	note_on channel=1 note=28 velocity=92 time=0
8683	note_on channel=9 note=38 velocity=85 time=0
8684	note_on channel=9 note=62 velocity=108 time=0
8685	note_on channel=9 note=37 velocity=127 time=0
8686	note_on channel=9 note=37 velocity=0 time=10
8687	note_on channel=9 note=62 velocity=0 time=0
8688	note_on channel=9 note=38 velocity=0 time=0
8689	note_on channel=1 note=28 velocity=0 time=20
8690	note_on channel=10 note=61 velocity=0 time=8
8691	note_on channel=13 note=61 velocity=0 time=0
8692	
8693	note_on channel=1 note=30 velocity=88 time=0
8694	note_on channel=9 note=82 velocity=111 time=0
8695	note_on channel=10 note=74 velocity=90 time=0
8696	note_on channel=13 note=74 velocity=90 time=0
8697	note_on channel=9 note=82 velocity=0 time=10
8698	note_on channel=1 note=30 velocity=0 time=20
8699	note_on channel=9 note=62 velocity=109 time=0
8700	note_on channel=9 note=62 velocity=0 time=10
8701	note_on channel=12 note=66 velocity=0 time=8
8702	note_on channel=13 note=74 velocity=0 time=6
8703	note_on channel=10 note=74 velocity=0 time=0
8704	note_on channel=8 note=73 velocity=0 time=2
8705	note_on channel=8 note=69 velocity=0 time=1
8706	note_on channel=8 note=66 velocity=0 time=1
8707	
8708	note_on channel=1 note=30 velocity=88 time=0
8709	note_on channel=8 note=66 velocity=54 time=0
8710	note_on channel=8 note=69 velocity=54 time=0
8711	note_on channel=8 note=73 velocity=54 time=0
8712	note_on channel=9 note=64 velocity=68 time=0
8713	note_on channel=10 note=73 velocity=90 time=0
8714	note_on channel=12 note=64 velocity=90 time=0
8715	note_on channel=13 note=73 velocity=90 time=0
8716	note_on channel=9 note=64 velocity=0 time=10
8717	note_on channel=1 note=30 velocity=0 time=20
8718	note_on channel=9 note=63 velocity=58 time=0
8719	note_on channel=9 note=62 velocity=108 time=0
8720	note_on channel=9 note=62 velocity=0 time=10
8721	note_on channel=9 note=63 velocity=0 time=0
8722	note_on channel=1 note=28 velocity=91 time=20
8723	note_on channel=9 note=82 velocity=110 time=0
8724	note_on channel=9 note=63 velocity=59 time=0
8725	note_on channel=9 note=63 velocity=0 time=10
8726	note_on channel=9 note=82 velocity=0 time=0
8727	note_on channel=1 note=28 velocity=0 time=20
8728	note_on channel=9 note=63 velocity=59 time=0
8729	note_on channel=9 note=63 velocity=0 time=10
8730	note_on channel=1 note=30 velocity=91 time=20
8731	note_on channel=9 note=38 velocity=86 time=0
8732	note_on channel=9 note=64 velocity=67 time=0
8733	note_on channel=9 note=37 velocity=127 time=0
8734	note_on channel=9 note=37 velocity=0 time=10
8735	note_on channel=9 note=64 velocity=0 time=0
8736	note_on channel=9 note=38 velocity=0 time=0
8737	note_on channel=9 note=62 velocity=109 time=20
8738	note_on channel=9 note=62 velocity=0 time=10
8739	note_on channel=1 note=30 velocity=0 time=10
8740	note_on channel=12 note=64 velocity=0 time=8
8741	note_on channel=1 note=32 velocity=91 time=2
8742	note_on channel=9 note=36 velocity=127 time=0
8743	note_on channel=9 note=82 velocity=111 time=0
8744	note_on channel=9 note=62 velocity=108 time=0
8745	note_on channel=12 note=66 velocity=90 time=0
8746	note_on channel=13 note=73 velocity=0 time=4
8747	note_on channel=10 note=73 velocity=0 time=0
8748	note_on channel=9 note=62 velocity=0 time=6
8749	note_on channel=9 note=82 velocity=0 time=0
8750	note_on channel=9 note=36 velocity=0 time=2
8751	note_on channel=9 note=35 velocity=127 time=18
8752	note_on channel=9 note=62 velocity=110 time=0
8753	note_on channel=9 note=62 velocity=0 time=10
8754	note_on channel=9 note=35 velocity=0 time=4
8755	note_on channel=8 note=66 velocity=0 time=12
8756	note_on channel=8 note=69 velocity=0 time=2
8757	note_on channel=8 note=73 velocity=0 time=0
8758	
8759	note_on channel=1 note=32 velocity=0 time=0
8760	note_on channel=1 note=30 velocity=111 time=0
8761	note_on channel=8 note=66 velocity=60 time=0
8762	note_on channel=8 note=69 velocity=60 time=0
8763	note_on channel=8 note=73 velocity=60 time=0
8764	note_on channel=9 note=36 velocity=127 time=0
8765	note_on channel=9 note=35 velocity=127 time=0
8766	note_on channel=9 note=62 velocity=111 time=0
8767	note_on channel=10 note=69 velocity=90 time=0
8768	note_on channel=12 note=61 velocity=90 time=0
8769	note_on channel=13 note=69 velocity=90 time=0
8770	note_on channel=12 note=66 velocity=0 time=2
8771	note_on channel=9 note=62 velocity=0 time=8
8772	note_on channel=9 note=35 velocity=0 time=0
8773	note_on channel=9 note=36 velocity=0 time=2
8774	note_on channel=1 note=30 velocity=0 time=18
8775	note_on channel=9 note=63 velocity=60 time=0
8776	note_on channel=9 note=62 velocity=109 time=0
8777	note_on channel=9 note=62 velocity=0 time=10
8778	note_on channel=9 note=63 velocity=0 time=0
8779	note_on channel=1 note=28 velocity=91 time=20
8780	note_on channel=9 note=82 velocity=109 time=0
8781	note_on channel=9 note=82 velocity=0 time=10
8782	note_on channel=1 note=28 velocity=0 time=20
8783	note_on channel=10 note=69 velocity=0 time=24
8784	note_on channel=13 note=69 velocity=0 time=0
8785	
8786	note_on channel=1 note=30 velocity=91 time=0
8787	note_on channel=9 note=38 velocity=85 time=0
8788	note_on channel=9 note=62 velocity=108 time=0
8789	note_on channel=9 note=37 velocity=127 time=0
8790	note_on channel=10 note=68 velocity=90 time=0
8791	note_on channel=13 note=68 velocity=90 time=0
8792	note_on channel=9 note=37 velocity=0 time=10
8793	note_on channel=9 note=62 velocity=0 time=0
8794	note_on channel=9 note=38 velocity=0 time=0
8795	note_on channel=1 note=30 velocity=0 time=40
8796	
8797	note_on channel=10 note=68 velocity=0 time=0
8798	note_on channel=13 note=68 velocity=0 time=0
8799	note_on channel=1 note=30 velocity=90 time=0
8800	note_on channel=9 note=82 velocity=111 time=0
8801	note_on channel=10 note=71 velocity=90 time=0
8802	note_on channel=13 note=71 velocity=90 time=0
8803	note_on channel=9 note=82 velocity=0 time=10
8804	note_on channel=9 note=62 velocity=109 time=20
8805	note_on channel=9 note=62 velocity=0 time=10
8806	note_on channel=8 note=73 velocity=0 time=16
8807	note_on channel=8 note=69 velocity=0 time=2
8808	note_on channel=8 note=66 velocity=0 time=0
8809	
8810	note_on channel=1 note=30 velocity=0 time=0
8811	note_on channel=13 note=71 velocity=0 time=0
8812	note_on channel=10 note=71 velocity=0 time=0
8813	note_on channel=1 note=35 velocity=90 time=0
8814	note_on channel=8 note=66 velocity=54 time=0
8815	note_on channel=8 note=71 velocity=54 time=0
8816	note_on channel=8 note=74 velocity=54 time=0
8817	note_on channel=9 note=64 velocity=68 time=0
8818	note_on channel=10 note=69 velocity=90 time=0
8819	note_on channel=13 note=69 velocity=90 time=0
8820	note_on channel=12 note=61 velocity=0 time=6
8821	note_on channel=9 note=64 velocity=0 time=4
8822	note_on channel=1 note=35 velocity=0 time=20
8823	note_on channel=9 note=63 velocity=58 time=0
8824	note_on channel=9 note=62 velocity=108 time=0
8825	note_on channel=9 note=62 velocity=0 time=10
8826	note_on channel=9 note=63 velocity=0 time=0
8827	
8828	note_on channel=10 note=69 velocity=0 time=0
8829	note_on channel=13 note=69 velocity=0 time=0
8830	note_on channel=1 note=35 velocity=88 time=0
8831	note_on channel=9 note=82 velocity=110 time=0
8832	note_on channel=9 note=63 velocity=59 time=0
8833	note_on channel=10 note=68 velocity=90 time=0
8834	note_on channel=13 note=68 velocity=90 time=0
8835	note_on channel=9 note=63 velocity=0 time=10
8836	note_on channel=9 note=82 velocity=0 time=0
8837	note_on channel=1 note=35 velocity=0 time=20
8838	note_on channel=9 note=63 velocity=59 time=0
8839	note_on channel=9 note=63 velocity=0 time=10
8840	note_on channel=10 note=68 velocity=0 time=10
8841	note_on channel=13 note=68 velocity=0 time=0
8842	
8843	note_on channel=1 note=33 velocity=88 time=0
8844	note_on channel=9 note=38 velocity=86 time=0
8845	note_on channel=9 note=64 velocity=67 time=0
8846	note_on channel=9 note=37 velocity=127 time=0
8847	note_on channel=10 note=66 velocity=90 time=0
8848	note_on channel=13 note=66 velocity=90 time=0
8849	note_on channel=9 note=37 velocity=0 time=10
8850	note_on channel=9 note=64 velocity=0 time=0
8851	note_on channel=9 note=38 velocity=0 time=0
8852	note_on channel=9 note=62 velocity=109 time=20
8853	note_on channel=9 note=62 velocity=0 time=10
8854	note_on channel=1 note=33 velocity=0 time=10
8855	
8856	note_on channel=1 note=31 velocity=91 time=0
8857	note_on channel=9 note=36 velocity=127 time=0
8858	note_on channel=9 note=82 velocity=111 time=0
8859	note_on channel=9 note=62 velocity=108 time=0
8860	note_on channel=10 note=62 velocity=90 time=0
8861	note_on channel=13 note=62 velocity=90 time=0
8862	note_on channel=13 note=66 velocity=0 time=2
8863	note_on channel=10 note=66 velocity=0 time=0
8864	note_on channel=9 note=62 velocity=0 time=8
8865	note_on channel=9 note=82 velocity=0 time=0
8866	note_on channel=9 note=36 velocity=0 time=2
8867	note_on channel=9 note=35 velocity=127 time=18
8868	note_on channel=9 note=62 velocity=110 time=0
8869	note_on channel=9 note=62 velocity=0 time=10
8870	note_on channel=9 note=35 velocity=0 time=4
8871	note_on channel=8 note=74 velocity=0 time=12
8872	note_on channel=8 note=71 velocity=0 time=1
8873	note_on channel=13 note=62 velocity=0 time=1
8874	note_on channel=10 note=62 velocity=0 time=0
8875	note_on channel=8 note=66 velocity=0 time=0
8876	
8877	note_on channel=1 note=31 velocity=0 time=0
8878	note_on channel=1 note=30 velocity=110 time=0
8879	note_on channel=8 note=66 velocity=59 time=0
8880	note_on channel=8 note=69 velocity=59 time=0
8881	note_on channel=8 note=73 velocity=59 time=0
8882	note_on channel=9 note=36 velocity=127 time=0
8883	note_on channel=9 note=35 velocity=127 time=0
8884	note_on channel=9 note=62 velocity=111 time=0
8885	note_on channel=10 note=61 velocity=90 time=0
8886	note_on channel=12 note=66 velocity=90 time=0
8887	note_on channel=13 note=61 velocity=90 time=0
8888	note_on channel=9 note=62 velocity=0 time=10
8889	note_on channel=9 note=35 velocity=0 time=0
8890	note_on channel=9 note=36 velocity=0 time=2
8891	note_on channel=9 note=63 velocity=60 time=18
8892	note_on channel=9 note=62 velocity=109 time=0
8893	note_on channel=9 note=62 velocity=0 time=10
8894	note_on channel=9 note=63 velocity=0 time=0
8895	note_on channel=1 note=30 velocity=0 time=10
8896	note_on channel=1 note=32 velocity=91 time=10
8897	note_on channel=9 note=82 velocity=109 time=0
8898	note_on channel=9 note=82 velocity=0 time=10
8899	note_on channel=1 note=32 velocity=0 time=50
8900	note_on channel=1 note=30 velocity=88 time=0
8901	note_on channel=9 note=38 velocity=85 time=0
8902	note_on channel=9 note=62 velocity=108 time=0
8903	note_on channel=9 note=37 velocity=127 time=0
8904	note_on channel=9 note=37 velocity=0 time=10
8905	note_on channel=9 note=62 velocity=0 time=0
8906	note_on channel=9 note=38 velocity=0 time=0
8907	note_on channel=13 note=61 velocity=0 time=28
8908	note_on channel=10 note=61 velocity=0 time=0
8909	note_on channel=1 note=30 velocity=0 time=12
8910	
8911	note_on channel=1 note=30 velocity=88 time=0
8912	note_on channel=9 note=82 velocity=111 time=0
8913	note_on channel=10 note=69 velocity=90 time=0
8914	note_on channel=13 note=69 velocity=90 time=0
8915	note_on channel=9 note=82 velocity=0 time=10
8916	note_on channel=9 note=62 velocity=109 time=20
8917	note_on channel=9 note=62 velocity=0 time=10
8918	note_on channel=12 note=66 velocity=0 time=8
8919	note_on channel=1 note=30 velocity=0 time=2
8920	note_on channel=13 note=69 velocity=0 time=4
8921	note_on channel=10 note=69 velocity=0 time=0
8922	note_on channel=8 note=73 velocity=0 time=3
8923	note_on channel=8 note=69 velocity=0 time=1
8924	note_on channel=8 note=66 velocity=0 time=0
8925	
8926	note_on channel=1 note=28 velocity=92 time=0
8927	note_on channel=8 note=68 velocity=54 time=0
8928	note_on channel=8 note=71 velocity=54 time=0
8929	note_on channel=8 note=76 velocity=54 time=0
8930	note_on channel=9 note=64 velocity=68 time=0
8931	note_on channel=10 note=68 velocity=90 time=0
8932	note_on channel=12 note=64 velocity=90 time=0
8933	note_on channel=13 note=68 velocity=90 time=0
8934	note_on channel=9 note=64 velocity=0 time=10
8935	note_on channel=9 note=63 velocity=58 time=20
8936	note_on channel=9 note=62 velocity=108 time=0
8937	note_on channel=9 note=62 velocity=0 time=10
8938	note_on channel=9 note=63 velocity=0 time=0
8939	note_on channel=1 note=28 velocity=0 time=10
8940	note_on channel=1 note=30 velocity=89 time=10
8941	note_on channel=9 note=82 velocity=110 time=0
8942	note_on channel=9 note=63 velocity=59 time=0
8943	note_on channel=9 note=63 velocity=0 time=10
8944	note_on channel=9 note=82 velocity=0 time=0
8945	note_on channel=9 note=63 velocity=59 time=20
8946	note_on channel=9 note=63 velocity=0 time=10
8947	note_on channel=1 note=30 velocity=0 time=20
8948	note_on channel=1 note=28 velocity=91 time=0
8949	note_on channel=9 note=38 velocity=86 time=0
8950	note_on channel=9 note=64 velocity=67 time=0
8951	note_on channel=9 note=37 velocity=127 time=0
8952	note_on channel=9 note=37 velocity=0 time=10
8953	note_on channel=9 note=64 velocity=0 time=0
8954	note_on channel=9 note=38 velocity=0 time=0
8955	note_on channel=9 note=62 velocity=109 time=20
8956	note_on channel=9 note=62 velocity=0 time=10
8957	note_on channel=1 note=28 velocity=0 time=10
8958	note_on channel=12 note=64 velocity=0 time=8
8959	note_on channel=1 note=28 velocity=92 time=2
8960	note_on channel=9 note=36 velocity=127 time=0
8961	note_on channel=9 note=82 velocity=111 time=0
8962	note_on channel=9 note=62 velocity=108 time=0
8963	note_on channel=12 note=66 velocity=90 time=0
8964	note_on channel=13 note=68 velocity=0 time=4
8965	note_on channel=10 note=68 velocity=0 time=0
8966	note_on channel=9 note=62 velocity=0 time=6
8967	note_on channel=9 note=82 velocity=0 time=0
8968	note_on channel=9 note=36 velocity=0 time=2
8969	note_on channel=9 note=35 velocity=127 time=18
8970	note_on channel=9 note=62 velocity=110 time=0
8971	note_on channel=9 note=62 velocity=0 time=10
8972	note_on channel=9 note=35 velocity=0 time=4
8973	note_on channel=8 note=76 velocity=0 time=12
8974	note_on channel=8 note=68 velocity=0 time=1
8975	note_on channel=8 note=71 velocity=0 time=1
8976	
8977	note_on channel=1 note=28 velocity=0 time=0
8978	note_on channel=1 note=30 velocity=108 time=0
8979	note_on channel=8 note=66 velocity=59 time=0
8980	note_on channel=8 note=69 velocity=59 time=0
8981	note_on channel=8 note=73 velocity=59 time=0
8982	note_on channel=9 note=36 velocity=127 time=0
8983	note_on channel=9 note=35 velocity=127 time=0
8984	note_on channel=9 note=62 velocity=111 time=0
8985	note_on channel=10 note=69 velocity=90 time=0
8986	note_on channel=12 note=61 velocity=90 time=0
8987	note_on channel=13 note=69 velocity=90 time=0
8988	note_on channel=12 note=66 velocity=0 time=2
8989	note_on channel=9 note=62 velocity=0 time=8
8990	note_on channel=9 note=35 velocity=0 time=0
8991	note_on channel=9 note=36 velocity=0 time=2
8992	note_on channel=1 note=30 velocity=0 time=18
8993	note_on channel=9 note=63 velocity=60 time=0
8994	note_on channel=9 note=62 velocity=109 time=0
8995	note_on channel=9 note=62 velocity=0 time=10
8996	note_on channel=9 note=63 velocity=0 time=0
8997	note_on channel=1 note=30 velocity=88 time=20
8998	note_on channel=9 note=82 velocity=109 time=0
8999	note_on channel=9 note=82 velocity=0 time=10
9000	note_on channel=1 note=30 velocity=0 time=20
9001	note_on channel=10 note=69 velocity=0 time=24
9002	note_on channel=13 note=69 velocity=0 time=0
9003	
9004	note_on channel=1 note=30 velocity=89 time=0
9005	note_on channel=9 note=38 velocity=85 time=0
9006	note_on channel=9 note=62 velocity=108 time=0
9007	note_on channel=9 note=37 velocity=127 time=0
9008	note_on channel=10 note=68 velocity=90 time=0
9009	note_on channel=13 note=68 velocity=90 time=0
9010	note_on channel=9 note=37 velocity=0 time=10
9011	note_on channel=9 note=62 velocity=0 time=0
9012	note_on channel=9 note=38 velocity=0 time=0
9013	note_on channel=1 note=30 velocity=0 time=40
9014	
9015	note_on channel=10 note=68 velocity=0 time=0
9016	note_on channel=13 note=68 velocity=0 time=0
9017	note_on channel=1 note=30 velocity=91 time=0
9018	note_on channel=9 note=82 velocity=111 time=0
9019	note_on channel=10 note=71 velocity=90 time=0
9020	note_on channel=13 note=71 velocity=90 time=0
9021	note_on channel=9 note=82 velocity=0 time=10
9022	note_on channel=9 note=62 velocity=109 time=20
9023	note_on channel=9 note=62 velocity=0 time=10
9024	note_on channel=8 note=66 velocity=0 time=16
9025	note_on channel=8 note=69 velocity=0 time=0
9026	note_on channel=8 note=73 velocity=0 time=1
9027	
9028	note_on channel=1 note=30 velocity=0 time=0
9029	note_on channel=13 note=71 velocity=0 time=0
9030	note_on channel=10 note=71 velocity=0 time=0
9031	note_on channel=1 note=35 velocity=88 time=0
9032	note_on channel=8 note=66 velocity=56 time=0
9033	note_on channel=8 note=71 velocity=56 time=0
9034	note_on channel=8 note=74 velocity=56 time=0
9035	note_on channel=9 note=64 velocity=68 time=0
9036	note_on channel=10 note=69 velocity=90 time=0
9037	note_on channel=13 note=69 velocity=90 time=0
9038	note_on channel=12 note=61 velocity=0 time=6
9039	note_on channel=9 note=64 velocity=0 time=4
9040	note_on channel=9 note=63 velocity=58 time=20
9041	note_on channel=9 note=62 velocity=108 time=0
9042	note_on channel=9 note=62 velocity=0 time=10
9043	note_on channel=9 note=63 velocity=0 time=0
9044	note_on channel=1 note=35 velocity=0 time=10
9045	note_on channel=13 note=69 velocity=0 time=10
9046	note_on channel=10 note=69 velocity=0 time=0
9047	note_on channel=1 note=35 velocity=91 time=0
9048	note_on channel=9 note=82 velocity=110 time=0
9049	note_on channel=9 note=63 velocity=59 time=0
9050	note_on channel=10 note=68 velocity=90 time=0
9051	note_on channel=13 note=68 velocity=90 time=0
9052	note_on channel=9 note=63 velocity=0 time=10
9053	note_on channel=9 note=82 velocity=0 time=0
9054	note_on channel=9 note=63 velocity=59 time=20
9055	note_on channel=9 note=63 velocity=0 time=10
9056	note_on channel=10 note=68 velocity=0 time=10
9057	note_on channel=13 note=68 velocity=0 time=0
9058	
9059	note_on channel=1 note=35 velocity=0 time=0
9060	note_on channel=1 note=35 velocity=91 time=0
9061	note_on channel=9 note=38 velocity=86 time=0
9062	note_on channel=9 note=64 velocity=67 time=0
9063	note_on channel=9 note=37 velocity=127 time=0
9064	note_on channel=10 note=66 velocity=90 time=0
9065	note_on channel=13 note=66 velocity=90 time=0
9066	note_on channel=9 note=37 velocity=0 time=10
9067	note_on channel=9 note=64 velocity=0 time=0
9068	note_on channel=9 note=38 velocity=0 time=0
9069	note_on channel=9 note=62 velocity=109 time=20
9070	note_on channel=9 note=62 velocity=0 time=10
9071	note_on channel=1 note=35 velocity=0 time=10
9072	note_on channel=1 note=35 velocity=88 time=10
9073	note_on channel=9 note=36 velocity=127 time=0
9074	note_on channel=9 note=82 velocity=111 time=0
9075	note_on channel=9 note=62 velocity=108 time=0
9076	note_on channel=10 note=62 velocity=90 time=0
9077	note_on channel=13 note=62 velocity=90 time=0
9078	note_on channel=13 note=66 velocity=0 time=2
9079	note_on channel=10 note=66 velocity=0 time=0
9080	note_on channel=9 note=62 velocity=0 time=8
9081	note_on channel=9 note=82 velocity=0 time=0
9082	note_on channel=9 note=36 velocity=0 time=2
9083	note_on channel=9 note=35 velocity=127 time=18
9084	note_on channel=9 note=62 velocity=110 time=0
9085	note_on channel=9 note=62 velocity=0 time=10
9086	note_on channel=9 note=35 velocity=0 time=4
9087	note_on channel=8 note=71 velocity=0 time=12
9088	note_on channel=8 note=66 velocity=0 time=1
9089	note_on channel=8 note=74 velocity=0 time=0
9090	note_on channel=13 note=62 velocity=0 time=1
9091	note_on channel=10 note=62 velocity=0 time=0
9092	
9093	note_on channel=1 note=35 velocity=0 time=0
9094	note_on channel=1 note=30 velocity=108 time=0
9095	note_on channel=8 note=66 velocity=61 time=0
9096	note_on channel=8 note=69 velocity=61 time=0
9097	note_on channel=8 note=73 velocity=61 time=0
9098	note_on channel=9 note=36 velocity=127 time=0
9099	note_on channel=9 note=35 velocity=127 time=0
9100	note_on channel=9 note=62 velocity=111 time=0
9101	note_on channel=10 note=61 velocity=90 time=0
9102	note_on channel=12 note=66 velocity=90 time=0
9103	note_on channel=13 note=61 velocity=90 time=0
9104	note_on channel=9 note=62 velocity=0 time=10
9105	note_on channel=9 note=35 velocity=0 time=0
9106	note_on channel=9 note=36 velocity=0 time=2
9107	note_on channel=9 note=63 velocity=60 time=18
9108	note_on channel=9 note=62 velocity=109 time=0
9109	note_on channel=9 note=62 velocity=0 time=10
9110	note_on channel=9 note=63 velocity=0 time=0
9111	note_on channel=1 note=30 velocity=0 time=10
9112	note_on channel=1 note=30 velocity=92 time=10
9113	note_on channel=9 note=82 velocity=109 time=0
9114	note_on channel=9 note=82 velocity=0 time=10
9115	note_on channel=1 note=30 velocity=0 time=50
9116	note_on channel=1 note=28 velocity=92 time=0
9117	note_on channel=9 note=38 velocity=85 time=0
9118	note_on channel=9 note=62 velocity=108 time=0
9119	note_on channel=9 note=37 velocity=127 time=0
9120	note_on channel=9 note=37 velocity=0 time=10
9121	note_on channel=9 note=62 velocity=0 time=0
9122	note_on channel=9 note=38 velocity=0 time=0
9123	note_on channel=1 note=28 velocity=0 time=20
9124	note_on channel=10 note=61 velocity=0 time=8
9125	note_on channel=13 note=61 velocity=0 time=0
9126	
9127	note_on channel=1 note=30 velocity=88 time=0
9128	note_on channel=9 note=82 velocity=111 time=0
9129	note_on channel=10 note=74 velocity=90 time=0
9130	note_on channel=13 note=74 velocity=90 time=0
9131	note_on channel=9 note=82 velocity=0 time=10
9132	note_on channel=1 note=30 velocity=0 time=20
9133	note_on channel=9 note=62 velocity=109 time=0
9134	note_on channel=9 note=62 velocity=0 time=10
9135	note_on channel=12 note=66 velocity=0 time=8
9136	note_on channel=13 note=74 velocity=0 time=6
9137	note_on channel=10 note=74 velocity=0 time=0
9138	note_on channel=8 note=73 velocity=0 time=2
9139	note_on channel=8 note=69 velocity=0 time=1
9140	note_on channel=8 note=66 velocity=0 time=1
9141	
9142	note_on channel=1 note=30 velocity=88 time=0
9143	note_on channel=8 note=66 velocity=54 time=0
9144	note_on channel=8 note=69 velocity=54 time=0
9145	note_on channel=8 note=73 velocity=54 time=0
9146	note_on channel=9 note=64 velocity=68 time=0
9147	note_on channel=10 note=73 velocity=90 time=0
9148	note_on channel=12 note=64 velocity=90 time=0
9149	note_on channel=13 note=73 velocity=90 time=0
9150	note_on channel=9 note=64 velocity=0 time=10
9151	note_on channel=1 note=30 velocity=0 time=20
9152	note_on channel=9 note=63 velocity=58 time=0
9153	note_on channel=9 note=62 velocity=108 time=0
9154	note_on channel=9 note=62 velocity=0 time=10
9155	note_on channel=9 note=63 velocity=0 time=0
9156	note_on channel=1 note=28 velocity=91 time=20
9157	note_on channel=9 note=82 velocity=110 time=0
9158	note_on channel=9 note=63 velocity=59 time=0
9159	note_on channel=9 note=63 velocity=0 time=10
9160	note_on channel=9 note=82 velocity=0 time=0
9161	note_on channel=1 note=28 velocity=0 time=20
9162	note_on channel=9 note=63 velocity=59 time=0
9163	note_on channel=9 note=63 velocity=0 time=10
9164	note_on channel=1 note=30 velocity=91 time=20
9165	note_on channel=9 note=38 velocity=86 time=0
9166	note_on channel=9 note=64 velocity=67 time=0
9167	note_on channel=9 note=37 velocity=127 time=0
9168	note_on channel=9 note=37 velocity=0 time=10
9169	note_on channel=9 note=64 velocity=0 time=0
9170	note_on channel=9 note=38 velocity=0 time=0
9171	note_on channel=9 note=62 velocity=109 time=20
9172	note_on channel=9 note=62 velocity=0 time=10
9173	note_on channel=1 note=30 velocity=0 time=10
9174	note_on channel=1 note=32 velocity=91 time=10
9175	note_on channel=9 note=36 velocity=127 time=0
9176	note_on channel=9 note=82 velocity=111 time=0
9177	note_on channel=9 note=62 velocity=108 time=0
9178	note_on channel=13 note=73 velocity=0 time=4
9179	note_on channel=10 note=73 velocity=0 time=0
9180	note_on channel=9 note=62 velocity=0 time=6
9181	note_on channel=9 note=82 velocity=0 time=0
9182	note_on channel=9 note=36 velocity=0 time=2
9183	note_on channel=9 note=35 velocity=127 time=18
9184	note_on channel=9 note=62 velocity=110 time=0
9185	note_on channel=9 note=62 velocity=0 time=10
9186	note_on channel=9 note=35 velocity=0 time=4
9187	note_on channel=8 note=66 velocity=0 time=12
9188	note_on channel=8 note=73 velocity=0 time=2
9189	note_on channel=8 note=69 velocity=0 time=0
9190	note_on channel=1 note=32 velocity=0 time=2
9191	note_on channel=1 note=28 velocity=109 time=0
9192	note_on channel=6 note=59 velocity=90 time=0
9193	note_on channel=8 note=66 velocity=61 time=0
9194	note_on channel=8 note=69 velocity=61 time=0
9195	note_on channel=8 note=73 velocity=61 time=0
9196	note_on channel=9 note=36 velocity=127 time=0
9197	note_on channel=9 note=35 velocity=127 time=0
9198	note_on channel=9 note=82 velocity=108 time=0
9199	note_on channel=7 note=59 velocity=90 time=1
9200	note_on channel=12 note=64 velocity=0 time=3
9201	note_on channel=9 note=82 velocity=0 time=6
9202	note_on channel=9 note=35 velocity=0 time=0
9203	note_on channel=9 note=36 velocity=0 time=0
9204	note_on channel=6 note=61 velocity=90 time=20
9205	note_on channel=7 note=61 velocity=90 time=1
9206	note_on channel=6 note=59 velocity=0 time=13
9207	note_on channel=7 note=59 velocity=0 time=1
9208	note_on channel=1 note=28 velocity=0 time=15
9209	note_on channel=1 note=30 velocity=110 time=0
9210	note_on channel=6 note=61 velocity=90 time=0
9211	note_on channel=9 note=82 velocity=90 time=0
9212	note_on channel=9 note=27 velocity=103 time=0
9213	note_on channel=7 note=61 velocity=90 time=1
9214	note_on channel=9 note=27 velocity=0 time=9
9215	note_on channel=9 note=82 velocity=0 time=0
9216	note_on channel=6 note=61 velocity=0 time=4
9217	note_on channel=7 note=61 velocity=0 time=1
9218	note_on channel=1 note=30 velocity=0 time=5
9219	note_on channel=6 note=62 velocity=90 time=10
9220	note_on channel=7 note=62 velocity=90 time=1
9221	note_on channel=6 note=61 velocity=0 time=13
9222	note_on channel=7 note=61 velocity=0 time=1
9223	note_on channel=1 note=31 velocity=70 time=15
9224	note_on channel=6 note=61 velocity=90 time=0
9225	note_on channel=9 note=82 velocity=88 time=0
9226	note_on channel=9 note=27 velocity=101 time=0
9227	note_on channel=7 note=61 velocity=90 time=1
9228	note_on channel=9 note=27 velocity=0 time=9
9229	note_on channel=9 note=82 velocity=0 time=0
9230	note_on channel=1 note=31 velocity=0 time=0
9231	note_on channel=6 note=62 velocity=0 time=4
9232	note_on channel=7 note=62 velocity=0 time=1
9233	note_on channel=6 note=61 velocity=0 time=13
9234	note_on channel=7 note=61 velocity=0 time=1
9235	note_on channel=1 note=33 velocity=71 time=1
9236	note_on channel=6 note=61 velocity=90 time=0
9237	note_on channel=7 note=61 velocity=90 time=1
9238	note_on channel=1 note=33 velocity=0 time=9
9239	note_on channel=6 note=61 velocity=0 time=18
9240	note_on channel=7 note=61 velocity=0 time=1
9241	note_on channel=1 note=30 velocity=112 time=1
9242	note_on channel=6 note=61 velocity=90 time=0
9243	note_on channel=9 note=38 velocity=88 time=0
9244	note_on channel=9 note=82 velocity=67 time=0
9245	note_on channel=9 note=37 velocity=127 time=0
9246	note_on channel=7 note=61 velocity=90 time=1
9247	note_on channel=9 note=37 velocity=0 time=9
9248	note_on channel=9 note=82 velocity=0 time=0
9249	note_on channel=9 note=38 velocity=0 time=0
9250	note_on channel=6 note=61 velocity=0 time=16
9251	note_on channel=7 note=61 velocity=0 time=1
9252	note_on channel=6 note=61 velocity=90 time=3
9253	note_on channel=7 note=61 velocity=90 time=1
9254	note_on channel=6 note=61 velocity=0 time=29
9255	note_on channel=1 note=30 velocity=0 time=0
9256	note_on channel=1 note=31 velocity=68 time=0
9257	note_on channel=6 note=59 velocity=90 time=0
9258	note_on channel=9 note=82 velocity=109 time=0
9259	note_on channel=7 note=61 velocity=0 time=1
9260	note_on channel=7 note=59 velocity=90 time=0
9261	note_on channel=9 note=82 velocity=0 time=9
9262	note_on channel=1 note=31 velocity=0 time=10
9263	note_on channel=1 note=30 velocity=91 time=10
9264	note_on channel=6 note=61 velocity=90 time=0
9265	note_on channel=9 note=38 velocity=87 time=0
9266	note_on channel=9 note=37 velocity=127 time=0
9267	note_on channel=7 note=61 velocity=90 time=1
9268	note_on channel=9 note=37 velocity=0 time=9
9269	note_on channel=9 note=38 velocity=0 time=0
9270	note_on channel=1 note=30 velocity=0 time=0
9271	note_on channel=6 note=59 velocity=0 time=4
9272	note_on channel=7 note=59 velocity=0 time=1
9273	note_on channel=6 note=61 velocity=0 time=13
9274	note_on channel=7 note=61 velocity=0 time=1
9275	note_on channel=1 note=31 velocity=69 time=1
9276	note_on channel=6 note=61 velocity=90 time=0
9277	note_on channel=9 note=82 velocity=88 time=0
9278	note_on channel=7 note=61 velocity=90 time=1
9279	note_on channel=9 note=82 velocity=0 time=9
9280	note_on channel=1 note=31 velocity=0 time=0
9281	note_on channel=1 note=40 velocity=91 time=20
9282	note_on channel=6 note=62 velocity=90 time=0
9283	note_on channel=7 note=62 velocity=90 time=1
9284	note_on channel=6 note=61 velocity=0 time=13
9285	note_on channel=7 note=61 velocity=0 time=1
9286	note_on channel=1 note=40 velocity=0 time=15
9287	note_on channel=1 note=30 velocity=88 time=0
9288	note_on channel=6 note=61 velocity=90 time=0
9289	note_on channel=9 note=38 velocity=86 time=0
9290	note_on channel=9 note=82 velocity=90 time=0
9291	note_on channel=9 note=37 velocity=127 time=0
9292	note_on channel=7 note=61 velocity=90 time=1
9293	note_on channel=9 note=37 velocity=0 time=9
9294	note_on channel=9 note=82 velocity=0 time=0
9295	note_on channel=1 note=30 velocity=0 time=0
9296	note_on channel=9 note=38 velocity=0 time=0
9297	note_on channel=6 note=62 velocity=0 time=4
9298	note_on channel=7 note=62 velocity=0 time=1
9299	note_on channel=6 note=61 velocity=0 time=13
9300	note_on channel=7 note=61 velocity=0 time=1
9301	note_on channel=1 note=31 velocity=68 time=1
9302	note_on channel=6 note=61 velocity=90 time=0
9303	note_on channel=7 note=61 velocity=90 time=1
9304	note_on channel=1 note=31 velocity=0 time=19
9305	note_on channel=6 note=61 velocity=0 time=8
9306	note_on channel=7 note=61 velocity=0 time=1
9307	note_on channel=1 note=40 velocity=90 time=1
9308	note_on channel=6 note=61 velocity=90 time=0
9309	note_on channel=9 note=82 velocity=67 time=0
9310	note_on channel=7 note=61 velocity=90 time=1
9311	note_on channel=9 note=82 velocity=0 time=9
9312	note_on channel=1 note=40 velocity=0 time=10
9313	note_on channel=6 note=61 velocity=0 time=4
9314	note_on channel=7 note=61 velocity=0 time=1
9315	note_on channel=1 note=42 velocity=91 time=5
9316	note_on channel=6 note=61 velocity=90 time=0
9317	note_on channel=7 note=61 velocity=90 time=1
9318	note_on channel=1 note=42 velocity=0 time=9
9319	note_on channel=6 note=61 velocity=0 time=12
9320	note_on channel=7 note=61 velocity=0 time=1
9321	note_on channel=1 note=30 velocity=109 time=7
9322	note_on channel=6 note=59 velocity=90 time=0
9323	note_on channel=9 note=36 velocity=127 time=0
9324	note_on channel=9 note=35 velocity=127 time=0
9325	note_on channel=9 note=82 velocity=110 time=0
9326	note_on channel=7 note=59 velocity=90 time=1
9327	note_on channel=9 note=82 velocity=0 time=9
9328	note_on channel=9 note=35 velocity=0 time=0
9329	note_on channel=9 note=36 velocity=0 time=0
9330	note_on channel=6 note=61 velocity=90 time=20
9331	note_on channel=7 note=61 velocity=90 time=1
9332	note_on channel=6 note=59 velocity=0 time=13
9333	note_on channel=7 note=59 velocity=0 time=1
9334	note_on channel=1 note=30 velocity=0 time=15
9335	note_on channel=1 note=31 velocity=69 time=0
9336	note_on channel=6 note=61 velocity=90 time=0
9337	note_on channel=9 note=82 velocity=91 time=0
9338	note_on channel=9 note=27 velocity=103 time=0
9339	note_on channel=7 note=61 velocity=90 time=1
9340	note_on channel=9 note=27 velocity=0 time=9
9341	note_on channel=9 note=82 velocity=0 time=0
9342	note_on channel=1 note=31 velocity=0 time=0
9343	note_on channel=6 note=61 velocity=0 time=4
9344	note_on channel=7 note=61 velocity=0 time=1
9345	note_on channel=1 note=33 velocity=90 time=15
9346	note_on channel=6 note=62 velocity=90 time=0
9347	note_on channel=9 note=36 velocity=127 time=0
9348	note_on channel=9 note=35 velocity=127 time=0
9349	note_on channel=7 note=62 velocity=90 time=1
9350	note_on channel=9 note=35 velocity=0 time=9
9351	note_on channel=9 note=36 velocity=0 time=0
9352	note_on channel=1 note=33 velocity=0 time=0
9353	note_on channel=6 note=61 velocity=0 time=4
9354	note_on channel=7 note=61 velocity=0 time=1
9355	note_on channel=1 note=37 velocity=69 time=15
9356	note_on channel=6 note=61 velocity=90 time=0
9357	note_on channel=9 note=82 velocity=91 time=0
9358	note_on channel=9 note=27 velocity=103 time=0
9359	note_on channel=7 note=61 velocity=90 time=1
9360	note_on channel=9 note=27 velocity=0 time=9
9361	note_on channel=9 note=82 velocity=0 time=0
9362	note_on channel=1 note=37 velocity=0 time=0
9363	note_on channel=6 note=62 velocity=0 time=4
9364	note_on channel=7 note=62 velocity=0 time=1
9365	note_on channel=6 note=61 velocity=0 time=13
9366	note_on channel=7 note=61 velocity=0 time=1
9367	note_on channel=1 note=38 velocity=68 time=1
9368	note_on channel=6 note=61 velocity=90 time=0
9369	note_on channel=7 note=61 velocity=90 time=1
9370	note_on channel=1 note=38 velocity=0 time=9
9371	note_on channel=6 note=61 velocity=0 time=18
9372	note_on channel=7 note=61 velocity=0 time=1
9373	note_on channel=1 note=28 velocity=91 time=1
9374	note_on channel=6 note=61 velocity=90 time=0
9375	note_on channel=9 note=38 velocity=87 time=0
9376	note_on channel=9 note=82 velocity=73 time=0
9377	note_on channel=9 note=37 velocity=127 time=0
9378	note_on channel=7 note=61 velocity=90 time=1
9379	note_on channel=9 note=37 velocity=0 time=9
9380	note_on channel=9 note=82 velocity=0 time=0
9381	note_on channel=9 note=38 velocity=0 time=0
9382	note_on channel=6 note=61 velocity=0 time=16
9383	note_on channel=7 note=61 velocity=0 time=1
9384	note_on channel=6 note=61 velocity=90 time=3
9385	note_on channel=7 note=61 velocity=90 time=1
9386	note_on channel=6 note=61 velocity=0 time=29
9387	note_on channel=1 note=28 velocity=0 time=0
9388	note_on channel=1 note=30 velocity=111 time=0
9389	note_on channel=6 note=59 velocity=90 time=0
9390	note_on channel=9 note=82 velocity=109 time=0
9391	note_on channel=7 note=61 velocity=0 time=1
9392	note_on channel=7 note=59 velocity=90 time=0
9393	note_on channel=9 note=82 velocity=0 time=9
9394	note_on channel=6 note=61 velocity=90 time=20
9395	note_on channel=9 note=38 velocity=86 time=0
9396	note_on channel=9 note=37 velocity=127 time=0
9397	note_on channel=7 note=61 velocity=90 time=1
9398	note_on channel=9 note=37 velocity=0 time=9
9399	note_on channel=9 note=38 velocity=0 time=0
9400	note_on channel=6 note=59 velocity=0 time=4
9401	note_on channel=7 note=59 velocity=0 time=1
9402	note_on channel=1 note=30 velocity=0 time=5
9403	note_on channel=6 note=61 velocity=0 time=8
9404	note_on channel=7 note=61 velocity=0 time=1
9405	note_on channel=1 note=31 velocity=71 time=1
9406	note_on channel=6 note=61 velocity=90 time=0
9407	note_on channel=9 note=82 velocity=91 time=0
9408	note_on channel=7 note=61 velocity=90 time=1
9409	note_on channel=9 note=82 velocity=0 time=9
9410	note_on channel=1 note=31 velocity=0 time=0
9411	note_on channel=1 note=33 velocity=88 time=20
9412	note_on channel=6 note=66 velocity=90 time=0
9413	note_on channel=7 note=66 velocity=90 time=1
9414	note_on channel=6 note=61 velocity=0 time=13
9415	note_on channel=7 note=61 velocity=0 time=1
9416	note_on channel=1 note=33 velocity=0 time=15
9417	note_on channel=1 note=37 velocity=71 time=0
9418	note_on channel=6 note=61 velocity=90 time=0
9419	note_on channel=9 note=38 velocity=85 time=0
9420	note_on channel=9 note=82 velocity=89 time=0
9421	note_on channel=9 note=37 velocity=127 time=0
9422	note_on channel=7 note=61 velocity=90 time=1
9423	note_on channel=9 note=37 velocity=0 time=9
9424	note_on channel=9 note=82 velocity=0 time=0
9425	note_on channel=1 note=37 velocity=0 time=0
9426	note_on channel=9 note=38 velocity=0 time=0
9427	note_on channel=6 note=66 velocity=0 time=4
9428	note_on channel=7 note=66 velocity=0 time=1
9429	note_on channel=6 note=61 velocity=0 time=13
9430	note_on channel=7 note=61 velocity=0 time=1
9431	note_on channel=1 note=38 velocity=68 time=1
9432	note_on channel=6 note=61 velocity=90 time=0
9433	note_on channel=9 note=36 velocity=127 time=0
9434	note_on channel=9 note=35 velocity=127 time=0
9435	note_on channel=7 note=61 velocity=90 time=1
9436	note_on channel=9 note=35 velocity=0 time=9
9437	note_on channel=9 note=36 velocity=0 time=0
9438	note_on channel=1 note=38 velocity=0 time=0
9439	note_on channel=6 note=61 velocity=0 time=18
9440	note_on channel=7 note=61 velocity=0 time=1
9441	note_on channel=1 note=37 velocity=89 time=1
9442	note_on channel=6 note=61 velocity=90 time=0
9443	note_on channel=9 note=82 velocity=68 time=0
9444	note_on channel=7 note=61 velocity=90 time=1
9445	note_on channel=9 note=82 velocity=0 time=9
9446	note_on channel=1 note=37 velocity=0 time=0
9447	note_on channel=6 note=61 velocity=0 time=14
9448	note_on channel=7 note=61 velocity=0 time=1
9449	note_on channel=1 note=33 velocity=68 time=5
9450	note_on channel=6 note=61 velocity=90 time=0
9451	note_on channel=7 note=61 velocity=90 time=1
9452	note_on channel=1 note=33 velocity=0 time=9
9453	note_on channel=6 note=61 velocity=0 time=12
9454	note_on channel=7 note=61 velocity=0 time=1
9455	note_on channel=1 note=30 velocity=112 time=7
9456	note_on channel=6 note=59 velocity=90 time=0
9457	note_on channel=9 note=36 velocity=127 time=0
9458	note_on channel=9 note=35 velocity=127 time=0
9459	note_on channel=9 note=82 velocity=108 time=0
9460	note_on channel=7 note=59 velocity=90 time=1
9461	note_on channel=9 note=82 velocity=0 time=9
9462	note_on channel=9 note=35 velocity=0 time=0
9463	note_on channel=9 note=36 velocity=0 time=0
9464	note_on channel=6 note=61 velocity=90 time=20
9465	note_on channel=7 note=61 velocity=90 time=1
9466	note_on channel=6 note=59 velocity=0 time=13
9467	note_on channel=7 note=59 velocity=0 time=1
9468	note_on channel=6 note=61 velocity=90 time=15
9469	note_on channel=9 note=82 velocity=90 time=0
9470	note_on channel=9 note=27 velocity=103 time=0
9471	note_on channel=7 note=61 velocity=90 time=1
9472	note_on channel=9 note=27 velocity=0 time=9
9473	note_on channel=9 note=82 velocity=0 time=0
9474	note_on channel=6 note=61 velocity=0 time=4
9475	note_on channel=7 note=61 velocity=0 time=1
9476	note_on channel=1 note=30 velocity=0 time=15
9477	note_on channel=6 note=62 velocity=90 time=0
9478	note_on channel=9 note=36 velocity=127 time=0
9479	note_on channel=9 note=35 velocity=127 time=0
9480	note_on channel=7 note=62 velocity=90 time=1
9481	note_on channel=9 note=35 velocity=0 time=9
9482	note_on channel=9 note=36 velocity=0 time=0
9483	note_on channel=6 note=61 velocity=0 time=4
9484	note_on channel=7 note=61 velocity=0 time=1
9485	note_on channel=6 note=61 velocity=90 time=15
9486	note_on channel=9 note=82 velocity=88 time=0
9487	note_on channel=9 note=27 velocity=101 time=0
9488	note_on channel=7 note=61 velocity=90 time=1
9489	note_on channel=9 note=27 velocity=0 time=9
9490	note_on channel=9 note=82 velocity=0 time=0
9491	note_on channel=6 note=62 velocity=0 time=4
9492	note_on channel=7 note=62 velocity=0 time=1
9493	note_on channel=6 note=61 velocity=0 time=13
9494	note_on channel=7 note=61 velocity=0 time=1
9495	note_on channel=6 note=61 velocity=90 time=1
9496	note_on channel=7 note=61 velocity=90 time=1
9497	note_on channel=6 note=61 velocity=0 time=27
9498	note_on channel=7 note=61 velocity=0 time=1
9499	note_on channel=1 note=30 velocity=110 time=1
9500	note_on channel=6 note=61 velocity=90 time=0
9501	note_on channel=9 note=38 velocity=88 time=0
9502	note_on channel=9 note=82 velocity=67 time=0
9503	note_on channel=9 note=37 velocity=127 time=0
9504	note_on channel=7 note=61 velocity=90 time=1
9505	note_on channel=9 note=37 velocity=0 time=9
9506	note_on channel=9 note=82 velocity=0 time=0
9507	note_on channel=9 note=38 velocity=0 time=0
9508	note_on channel=6 note=61 velocity=0 time=16
9509	note_on channel=7 note=61 velocity=0 time=1
9510	note_on channel=6 note=61 velocity=90 time=3
9511	note_on channel=7 note=61 velocity=90 time=1
9512	note_on channel=6 note=61 velocity=0 time=29
9513	note_on channel=1 note=30 velocity=0 time=0
9514	note_on channel=1 note=30 velocity=92 time=0
9515	note_on channel=6 note=59 velocity=90 time=0
9516	note_on channel=9 note=82 velocity=109 time=0
9517	note_on channel=7 note=61 velocity=0 time=1
9518	note_on channel=7 note=59 velocity=90 time=0
9519	note_on channel=9 note=82 velocity=0 time=9
9520	note_on channel=6 note=61 velocity=90 time=20
9521	note_on channel=9 note=38 velocity=87 time=0
9522	note_on channel=9 note=37 velocity=127 time=0
9523	note_on channel=7 note=61 velocity=90 time=1
9524	note_on channel=9 note=37 velocity=0 time=9
9525	note_on channel=9 note=38 velocity=0 time=0
9526	note_on channel=6 note=59 velocity=0 time=4
9527	note_on channel=7 note=59 velocity=0 time=1
9528	note_on channel=6 note=61 velocity=0 time=13
9529	note_on channel=7 note=61 velocity=0 time=1
9530	note_on channel=6 note=61 velocity=90 time=1
9531	note_on channel=9 note=36 velocity=127 time=0
9532	note_on channel=9 note=35 velocity=127 time=0
9533	note_on channel=9 note=82 velocity=88 time=0
9534	note_on channel=7 note=61 velocity=90 time=1
9535	note_on channel=9 note=82 velocity=0 time=9
9536	note_on channel=9 note=35 velocity=0 time=0
9537	note_on channel=9 note=36 velocity=0 time=0
9538	note_on channel=1 note=30 velocity=0 time=20
9539	note_on channel=6 note=62 velocity=90 time=0
9540	note_on channel=7 note=62 velocity=90 time=1
9541	note_on channel=6 note=61 velocity=0 time=13
9542	note_on channel=7 note=61 velocity=0 time=1
9543	note_on channel=6 note=61 velocity=90 time=15
9544	note_on channel=9 note=38 velocity=86 time=0
9545	note_on channel=9 note=82 velocity=90 time=0
9546	note_on channel=9 note=37 velocity=127 time=0
9547	note_on channel=7 note=61 velocity=90 time=1
9548	note_on channel=9 note=37 velocity=0 time=9
9549	note_on channel=9 note=82 velocity=0 time=0
9550	note_on channel=9 note=38 velocity=0 time=0
9551	note_on channel=6 note=62 velocity=0 time=4
9552	note_on channel=7 note=62 velocity=0 time=1
9553	note_on channel=6 note=61 velocity=0 time=13
9554	note_on channel=7 note=61 velocity=0 time=1
9555	note_on channel=6 note=61 velocity=90 time=1
9556	note_on channel=9 note=36 velocity=127 time=0
9557	note_on channel=9 note=35 velocity=127 time=0
9558	note_on channel=7 note=61 velocity=90 time=1
9559	note_on channel=9 note=35 velocity=0 time=9
9560	note_on channel=9 note=36 velocity=0 time=0
9561	note_on channel=6 note=61 velocity=0 time=18
9562	note_on channel=7 note=61 velocity=0 time=1
9563	note_on channel=6 note=61 velocity=90 time=1
9564	note_on channel=9 note=82 velocity=67 time=0
9565	note_on channel=7 note=61 velocity=90 time=1
9566	note_on channel=9 note=82 velocity=0 time=9
9567	note_on channel=6 note=61 velocity=0 time=14
9568	note_on channel=7 note=61 velocity=0 time=1
9569	note_on channel=6 note=61 velocity=90 time=5
9570	note_on channel=9 note=36 velocity=127 time=0
9571	note_on channel=9 note=35 velocity=127 time=0
9572	note_on channel=7 note=61 velocity=90 time=1
9573	note_on channel=9 note=35 velocity=0 time=9
9574	note_on channel=9 note=36 velocity=0 time=0
9575	note_on channel=6 note=61 velocity=0 time=12
9576	note_on channel=7 note=61 velocity=0 time=1
9577	note_on channel=1 note=30 velocity=108 time=7
9578	note_on channel=6 note=59 velocity=90 time=0
9579	note_on channel=9 note=36 velocity=127 time=0
9580	note_on channel=9 note=35 velocity=127 time=0
9581	note_on channel=9 note=82 velocity=110 time=0
9582	note_on channel=7 note=59 velocity=90 time=1
9583	note_on channel=9 note=82 velocity=0 time=9
9584	note_on channel=9 note=35 velocity=0 time=0
9585	note_on channel=9 note=36 velocity=0 time=0
9586	note_on channel=6 note=61 velocity=90 time=20
9587	note_on channel=7 note=61 velocity=90 time=1
9588	note_on channel=6 note=59 velocity=0 time=13
9589	note_on channel=7 note=59 velocity=0 time=1
9590	note_on channel=1 note=30 velocity=0 time=15
9591	note_on channel=1 note=31 velocity=70 time=0
9592	note_on channel=6 note=61 velocity=90 time=0
9593	note_on channel=9 note=82 velocity=91 time=0
9594	note_on channel=9 note=27 velocity=103 time=0
9595	note_on channel=7 note=61 velocity=90 time=1
9596	note_on channel=9 note=27 velocity=0 time=9
9597	note_on channel=9 note=82 velocity=0 time=0
9598	note_on channel=1 note=31 velocity=0 time=0
9599	note_on channel=6 note=61 velocity=0 time=4
9600	note_on channel=7 note=61 velocity=0 time=1
9601	note_on channel=1 note=33 velocity=89 time=15
9602	note_on channel=6 note=62 velocity=90 time=0
9603	note_on channel=9 note=36 velocity=127 time=0
9604	note_on channel=9 note=35 velocity=127 time=0
9605	note_on channel=7 note=62 velocity=90 time=1
9606	note_on channel=9 note=35 velocity=0 time=9
9607	note_on channel=9 note=36 velocity=0 time=0
9608	note_on channel=1 note=33 velocity=0 time=0
9609	note_on channel=6 note=61 velocity=0 time=4
9610	note_on channel=7 note=61 velocity=0 time=1
9611	note_on channel=1 note=37 velocity=72 time=15
9612	note_on channel=6 note=61 velocity=90 time=0
9613	note_on channel=9 note=82 velocity=91 time=0
9614	note_on channel=9 note=27 velocity=103 time=0
9615	note_on channel=7 note=61 velocity=90 time=1
9616	note_on channel=9 note=27 velocity=0 time=9
9617	note_on channel=9 note=82 velocity=0 time=0
9618	note_on channel=1 note=37 velocity=0 time=0
9619	note_on channel=6 note=62 velocity=0 time=4
9620	note_on channel=7 note=62 velocity=0 time=1
9621	note_on channel=6 note=61 velocity=0 time=13
9622	note_on channel=7 note=61 velocity=0 time=1
9623	note_on channel=1 note=38 velocity=72 time=1
9624	note_on channel=6 note=61 velocity=90 time=0
9625	note_on channel=7 note=61 velocity=90 time=1
9626	note_on channel=1 note=38 velocity=0 time=9
9627	note_on channel=6 note=61 velocity=0 time=18
9628	note_on channel=7 note=61 velocity=0 time=1
9629	note_on channel=1 note=28 velocity=89 time=1
9630	note_on channel=6 note=61 velocity=90 time=0
9631	note_on channel=9 note=38 velocity=87 time=0
9632	note_on channel=9 note=82 velocity=73 time=0
9633	note_on channel=9 note=37 velocity=127 time=0
9634	note_on channel=7 note=61 velocity=90 time=1
9635	note_on channel=9 note=37 velocity=0 time=9
9636	note_on channel=9 note=82 velocity=0 time=0
9637	note_on channel=9 note=38 velocity=0 time=0
9638	note_on channel=6 note=61 velocity=0 time=16
9639	note_on channel=7 note=61 velocity=0 time=1
9640	note_on channel=6 note=61 velocity=90 time=3
9641	note_on channel=7 note=61 velocity=90 time=1
9642	note_on channel=6 note=61 velocity=0 time=29
9643	note_on channel=1 note=28 velocity=0 time=0
9644	note_on channel=1 note=30 velocity=112 time=0
9645	note_on channel=6 note=59 velocity=90 time=0
9646	note_on channel=9 note=82 velocity=109 time=0
9647	note_on channel=7 note=61 velocity=0 time=1
9648	note_on channel=7 note=59 velocity=90 time=0
9649	note_on channel=9 note=82 velocity=0 time=9
9650	note_on channel=6 note=61 velocity=90 time=20
9651	note_on channel=9 note=38 velocity=86 time=0
9652	note_on channel=9 note=37 velocity=127 time=0
9653	note_on channel=7 note=61 velocity=90 time=1
9654	note_on channel=9 note=37 velocity=0 time=9
9655	note_on channel=9 note=38 velocity=0 time=0
9656	note_on channel=6 note=59 velocity=0 time=4
9657	note_on channel=7 note=59 velocity=0 time=1
9658	note_on channel=1 note=30 velocity=0 time=5
9659	note_on channel=6 note=61 velocity=0 time=8
9660	note_on channel=7 note=61 velocity=0 time=1
9661	note_on channel=1 note=31 velocity=68 time=1
9662	note_on channel=6 note=61 velocity=90 time=0
9663	note_on channel=9 note=82 velocity=91 time=0
9664	note_on channel=7 note=61 velocity=90 time=1
9665	note_on channel=9 note=82 velocity=0 time=9
9666	note_on channel=1 note=31 velocity=0 time=0
9667	note_on channel=1 note=33 velocity=92 time=20
9668	note_on channel=6 note=66 velocity=90 time=0
9669	note_on channel=7 note=66 velocity=90 time=1
9670	note_on channel=6 note=61 velocity=0 time=13
9671	note_on channel=7 note=61 velocity=0 time=1
9672	note_on channel=1 note=33 velocity=0 time=15
9673	note_on channel=1 note=37 velocity=71 time=0
9674	note_on channel=6 note=61 velocity=90 time=0
9675	note_on channel=8 note=69 velocity=58 time=0
9676	note_on channel=9 note=38 velocity=85 time=0
9677	note_on channel=9 note=82 velocity=89 time=0
9678	note_on channel=9 note=37 velocity=127 time=0
9679	note_on channel=7 note=61 velocity=90 time=1
9680	note_on channel=9 note=37 velocity=0 time=9
9681	note_on channel=9 note=82 velocity=0 time=0
9682	note_on channel=9 note=38 velocity=0 time=0
9683	note_on channel=1 note=37 velocity=0 time=0
9684	note_on channel=6 note=66 velocity=0 time=4
9685	note_on channel=7 note=66 velocity=0 time=1
9686	note_on channel=6 note=61 velocity=0 time=13
9687	note_on channel=7 note=61 velocity=0 time=1
9688	note_on channel=1 note=38 velocity=70 time=1
9689	note_on channel=6 note=61 velocity=90 time=0
9690	note_on channel=9 note=36 velocity=127 time=0
9691	note_on channel=9 note=35 velocity=127 time=0
9692	note_on channel=7 note=61 velocity=90 time=1
9693	note_on channel=9 note=35 velocity=0 time=9
9694	note_on channel=9 note=36 velocity=0 time=0
9695	note_on channel=1 note=38 velocity=0 time=0
9696	note_on channel=6 note=61 velocity=0 time=18
9697	note_on channel=7 note=61 velocity=0 time=1
9698	note_on channel=1 note=37 velocity=91 time=1
9699	note_on channel=6 note=61 velocity=90 time=0
9700	note_on channel=9 note=82 velocity=68 time=0
9701	note_on channel=7 note=61 velocity=90 time=1
9702	note_on channel=9 note=82 velocity=0 time=9
9703	note_on channel=1 note=37 velocity=0 time=0
9704	note_on channel=6 note=61 velocity=0 time=14
9705	note_on channel=7 note=61 velocity=0 time=1
9706	note_on channel=1 note=33 velocity=72 time=5
9707	note_on channel=6 note=61 velocity=90 time=0
9708	note_on channel=7 note=61 velocity=90 time=1
9709	note_on channel=1 note=33 velocity=0 time=9
9710	note_on channel=6 note=61 velocity=0 time=12
9711	note_on channel=7 note=61 velocity=0 time=1
9712	note_on channel=8 note=69 velocity=0 time=4
9713	note_on channel=8 note=66 velocity=0 time=0
9714	note_on channel=8 note=73 velocity=0 time=0
9715	note_on channel=8 note=69 velocity=0 time=3
9716	note_on channel=1 note=28 velocity=89 time=0
9717	note_on channel=4 note=71 velocity=127 time=0
9718	note_on channel=6 note=59 velocity=70 time=0
9719	note_on channel=8 note=66 velocity=61 time=0
9720	note_on channel=8 note=69 velocity=61 time=0
9721	note_on channel=8 note=73 velocity=61 time=0
9722	note_on channel=9 note=36 velocity=127 time=0
9723	note_on channel=9 note=35 velocity=127 time=0
9724	note_on channel=9 note=82 velocity=88 time=0
9725	note_on channel=7 note=59 velocity=70 time=1
9726	note_on channel=9 note=82 velocity=0 time=9
9727	note_on channel=9 note=35 velocity=0 time=0
9728	note_on channel=9 note=36 velocity=0 time=0
9729	note_on channel=4 note=71 velocity=0 time=18
9730	note_on channel=4 note=73 velocity=127 time=2
9731	note_on channel=6 note=61 velocity=70 time=0
9732	note_on channel=7 note=61 velocity=70 time=1
9733	note_on channel=6 note=59 velocity=0 time=13
9734	note_on channel=7 note=59 velocity=0 time=1
9735	note_on channel=4 note=73 velocity=0 time=9
9736	note_on channel=1 note=28 velocity=0 time=6
9737	note_on channel=1 note=30 velocity=90 time=0
9738	note_on channel=6 note=61 velocity=70 time=0
9739	note_on channel=9 note=82 velocity=70 time=0
9740	note_on channel=9 note=27 velocity=83 time=0
9741	note_on channel=7 note=61 velocity=70 time=1
9742	note_on channel=9 note=27 velocity=0 time=9
9743	note_on channel=9 note=82 velocity=0 time=0
9744	note_on channel=6 note=61 velocity=0 time=4
9745	note_on channel=7 note=61 velocity=0 time=1
9746	note_on channel=1 note=30 velocity=0 time=5
9747	note_on channel=4 note=74 velocity=127 time=10
9748	note_on channel=6 note=62 velocity=70 time=0
9749	note_on channel=7 note=62 velocity=70 time=1
9750	note_on channel=6 note=61 velocity=0 time=13
9751	note_on channel=7 note=61 velocity=0 time=1
9752	note_on channel=4 note=74 velocity=0 time=5
9753	note_on channel=1 note=31 velocity=50 time=10
9754	note_on channel=6 note=61 velocity=70 time=0
9755	note_on channel=9 note=82 velocity=68 time=0
9756	note_on channel=9 note=27 velocity=81 time=0
9757	note_on channel=7 note=61 velocity=70 time=1
9758	note_on channel=9 note=27 velocity=0 time=9
9759	note_on channel=9 note=82 velocity=0 time=0
9760	note_on channel=1 note=31 velocity=0 time=0
9761	note_on channel=6 note=62 velocity=0 time=4
9762	note_on channel=7 note=62 velocity=0 time=1
9763	note_on channel=6 note=61 velocity=0 time=13
9764	note_on channel=7 note=61 velocity=0 time=1
9765	note_on channel=1 note=33 velocity=51 time=1
9766	note_on channel=4 note=74 velocity=127 time=0
9767	note_on channel=6 note=61 velocity=70 time=0
9768	note_on channel=7 note=61 velocity=70 time=1
9769	note_on channel=1 note=33 velocity=0 time=9
9770	note_on channel=4 note=74 velocity=0 time=10
9771	note_on channel=6 note=61 velocity=0 time=8
9772	note_on channel=7 note=61 velocity=0 time=1
9773	note_on channel=1 note=30 velocity=92 time=1
9774	note_on channel=4 note=73 velocity=127 time=0
9775	note_on channel=6 note=61 velocity=70 time=0
9776	note_on channel=9 note=38 velocity=68 time=0
9777	note_on channel=9 note=82 velocity=47 time=0
9778	note_on channel=9 note=37 velocity=127 time=0
9779	note_on channel=7 note=61 velocity=70 time=1
9780	note_on channel=9 note=37 velocity=0 time=9
9781	note_on channel=9 note=82 velocity=0 time=0
9782	note_on channel=9 note=38 velocity=0 time=0
9783	note_on channel=4 note=73 velocity=0 time=6
9784	note_on channel=6 note=61 velocity=0 time=10
9785	note_on channel=7 note=61 velocity=0 time=1
9786	note_on channel=4 note=71 velocity=127 time=3
9787	note_on channel=6 note=61 velocity=70 time=0
9788	note_on channel=7 note=61 velocity=70 time=1
9789	note_on channel=4 note=71 velocity=0 time=21
9790	note_on channel=1 note=30 velocity=0 time=8
9791	note_on channel=6 note=61 velocity=0 time=0
9792	note_on channel=1 note=31 velocity=48 time=0
9793	note_on channel=4 note=71 velocity=127 time=0
9794	note_on channel=6 note=59 velocity=70 time=0
9795	note_on channel=9 note=82 velocity=89 time=0
9796	note_on channel=7 note=61 velocity=0 time=1
9797	note_on channel=7 note=59 velocity=70 time=0
9798	note_on channel=9 note=82 velocity=0 time=9
9799	note_on channel=1 note=31 velocity=0 time=10
9800	note_on channel=4 note=71 velocity=0 time=6
9801	note_on channel=1 note=30 velocity=71 time=4
9802	note_on channel=4 note=73 velocity=127 time=0
9803	note_on channel=6 note=61 velocity=70 time=0
9804	note_on channel=9 note=38 velocity=67 time=0
9805	note_on channel=9 note=37 velocity=127 time=0
9806	note_on channel=7 note=61 velocity=70 time=1
9807	note_on channel=9 note=37 velocity=0 time=9
9808	note_on channel=9 note=38 velocity=0 time=0
9809	note_on channel=1 note=30 velocity=0 time=0
9810	note_on channel=6 note=59 velocity=0 time=4
9811	note_on channel=7 note=59 velocity=0 time=1
9812	note_on channel=4 note=73 velocity=0 time=3
9813	note_on channel=6 note=61 velocity=0 time=10
9814	note_on channel=7 note=61 velocity=0 time=1
9815	note_on channel=1 note=31 velocity=49 time=1
9816	note_on channel=6 note=61 velocity=70 time=0
9817	note_on channel=9 note=82 velocity=68 time=0
9818	note_on channel=7 note=61 velocity=70 time=1
9819	note_on channel=9 note=82 velocity=0 time=9
9820	note_on channel=1 note=31 velocity=0 time=0
9821	note_on channel=1 note=40 velocity=71 time=20
9822	note_on channel=4 note=74 velocity=127 time=0
9823	note_on channel=6 note=62 velocity=70 time=0
9824	note_on channel=7 note=62 velocity=70 time=1
9825	note_on channel=6 note=61 velocity=0 time=13
9826	note_on channel=7 note=61 velocity=0 time=1
9827	note_on channel=4 note=74 velocity=0 time=3
9828	note_on channel=1 note=40 velocity=0 time=12
9829	note_on channel=1 note=30 velocity=68 time=0
9830	note_on channel=6 note=61 velocity=70 time=0
9831	note_on channel=9 note=38 velocity=66 time=0
9832	note_on channel=9 note=82 velocity=70 time=0
9833	note_on channel=9 note=37 velocity=127 time=0
9834	note_on channel=7 note=61 velocity=70 time=1
9835	note_on channel=9 note=37 velocity=0 time=9
9836	note_on channel=9 note=82 velocity=0 time=0
9837	note_on channel=1 note=30 velocity=0 time=0
9838	note_on channel=9 note=38 velocity=0 time=0
9839	note_on channel=6 note=62 velocity=0 time=4
9840	note_on channel=7 note=62 velocity=0 time=1
9841	note_on channel=6 note=61 velocity=0 time=13
9842	note_on channel=7 note=61 velocity=0 time=1
9843	note_on channel=1 note=31 velocity=48 time=1
9844	note_on channel=4 note=74 velocity=127 time=0
9845	note_on channel=6 note=61 velocity=70 time=0
9846	note_on channel=7 note=61 velocity=70 time=1
9847	note_on channel=4 note=74 velocity=0 time=19
9848	note_on channel=1 note=31 velocity=0 time=0
9849	note_on channel=6 note=61 velocity=0 time=8
9850	note_on channel=7 note=61 velocity=0 time=1
9851	note_on channel=1 note=40 velocity=70 time=1
9852	note_on channel=4 note=73 velocity=127 time=0
9853	note_on channel=6 note=61 velocity=70 time=0
9854	note_on channel=9 note=82 velocity=47 time=0
9855	note_on channel=7 note=61 velocity=70 time=1
9856	note_on channel=9 note=82 velocity=0 time=9
9857	note_on channel=1 note=40 velocity=0 time=10
9858	note_on channel=4 note=73 velocity=0 time=4
9859	note_on channel=6 note=61 velocity=0 time=0
9860	note_on channel=7 note=61 velocity=0 time=1
9861	note_on channel=1 note=42 velocity=71 time=5
9862	note_on channel=4 note=71 velocity=127 time=0
9863	note_on channel=6 note=61 velocity=70 time=0
9864	note_on channel=7 note=61 velocity=70 time=1
9865	note_on channel=1 note=42 velocity=0 time=9
9866	note_on channel=6 note=61 velocity=0 time=12
9867	note_on channel=7 note=61 velocity=0 time=1
9868	note_on channel=4 note=71 velocity=0 time=3
9869	note_on channel=1 note=30 velocity=89 time=4
9870	note_on channel=4 note=71 velocity=127 time=0
9871	note_on channel=6 note=59 velocity=70 time=0
9872	note_on channel=9 note=36 velocity=127 time=0
9873	note_on channel=9 note=35 velocity=127 time=0
9874	note_on channel=9 note=82 velocity=90 time=0
9875	note_on channel=7 note=59 velocity=70 time=1
9876	note_on channel=9 note=82 velocity=0 time=9
9877	note_on channel=9 note=35 velocity=0 time=0
9878	note_on channel=9 note=36 velocity=0 time=0
9879	note_on channel=4 note=71 velocity=0 time=18
9880	note_on channel=4 note=73 velocity=127 time=2
9881	note_on channel=6 note=61 velocity=70 time=0
9882	note_on channel=7 note=61 velocity=70 time=1
9883	note_on channel=6 note=59 velocity=0 time=13
9884	note_on channel=7 note=59 velocity=0 time=1
9885	note_on channel=4 note=73 velocity=0 time=9
9886	note_on channel=1 note=30 velocity=0 time=6
9887	note_on channel=1 note=31 velocity=49 time=0
9888	note_on channel=6 note=61 velocity=70 time=0
9889	note_on channel=9 note=82 velocity=71 time=0
9890	note_on channel=9 note=27 velocity=83 time=0
9891	note_on channel=7 note=61 velocity=70 time=1
9892	note_on channel=9 note=27 velocity=0 time=9
9893	note_on channel=9 note=82 velocity=0 time=0
9894	note_on channel=1 note=31 velocity=0 time=0
9895	note_on channel=6 note=61 velocity=0 time=4
9896	note_on channel=7 note=61 velocity=0 time=1
9897	note_on channel=1 note=33 velocity=70 time=15
9898	note_on channel=4 note=74 velocity=127 time=0
9899	note_on channel=6 note=62 velocity=70 time=0
9900	note_on channel=9 note=36 velocity=127 time=0
9901	note_on channel=9 note=35 velocity=127 time=0
9902	note_on channel=7 note=62 velocity=70 time=1
9903	note_on channel=9 note=35 velocity=0 time=9
9904	note_on channel=9 note=36 velocity=0 time=0
9905	note_on channel=1 note=33 velocity=0 time=0
9906	note_on channel=6 note=61 velocity=0 time=4
9907	note_on channel=7 note=61 velocity=0 time=1
9908	note_on channel=4 note=74 velocity=0 time=5
9909	note_on channel=1 note=37 velocity=49 time=10
9910	note_on channel=6 note=61 velocity=70 time=0
9911	note_on channel=9 note=82 velocity=71 time=0
9912	note_on channel=9 note=27 velocity=83 time=0
9913	note_on channel=7 note=61 velocity=70 time=1
9914	note_on channel=9 note=27 velocity=0 time=9
9915	note_on channel=9 note=82 velocity=0 time=0
9916	note_on channel=1 note=37 velocity=0 time=0
9917	note_on channel=6 note=62 velocity=0 time=4
9918	note_on channel=7 note=62 velocity=0 time=1
9919	note_on channel=6 note=61 velocity=0 time=13
9920	note_on channel=7 note=61 velocity=0 time=1
9921	note_on channel=1 note=38 velocity=48 time=1
9922	note_on channel=4 note=74 velocity=127 time=0
9923	note_on channel=6 note=61 velocity=70 time=0
9924	note_on channel=7 note=61 velocity=70 time=1
9925	note_on channel=1 note=38 velocity=0 time=9
9926	note_on channel=4 note=74 velocity=0 time=10
9927	note_on channel=6 note=61 velocity=0 time=8
9928	note_on channel=7 note=61 velocity=0 time=1
9929	note_on channel=1 note=28 velocity=71 time=1
9930	note_on channel=4 note=73 velocity=127 time=0
9931	note_on channel=6 note=61 velocity=70 time=0
9932	note_on channel=9 note=38 velocity=67 time=0
9933	note_on channel=9 note=82 velocity=53 time=0
9934	note_on channel=9 note=37 velocity=127 time=0
9935	note_on channel=7 note=61 velocity=70 time=1
9936	note_on channel=9 note=37 velocity=0 time=9
9937	note_on channel=9 note=82 velocity=0 time=0
9938	note_on channel=9 note=38 velocity=0 time=0
9939	note_on channel=4 note=73 velocity=0 time=6
9940	note_on channel=6 note=61 velocity=0 time=10
9941	note_on channel=7 note=61 velocity=0 time=1
9942	note_on channel=4 note=71 velocity=127 time=3
9943	note_on channel=6 note=61 velocity=70 time=0
9944	note_on channel=7 note=61 velocity=70 time=1
9945	note_on channel=4 note=71 velocity=0 time=21
9946	note_on channel=1 note=28 velocity=0 time=8
9947	note_on channel=6 note=61 velocity=0 time=0
9948	note_on channel=1 note=30 velocity=91 time=0
9949	note_on channel=4 note=71 velocity=127 time=0
9950	note_on channel=6 note=59 velocity=70 time=0
9951	note_on channel=9 note=82 velocity=89 time=0
9952	note_on channel=7 note=61 velocity=0 time=1
9953	note_on channel=7 note=59 velocity=70 time=0
9954	note_on channel=9 note=82 velocity=0 time=9
9955	note_on channel=4 note=71 velocity=0 time=16
9956	note_on channel=4 note=73 velocity=127 time=4
9957	note_on channel=6 note=61 velocity=70 time=0
9958	note_on channel=9 note=38 velocity=66 time=0
9959	note_on channel=9 note=37 velocity=127 time=0
9960	note_on channel=7 note=61 velocity=70 time=1
9961	note_on channel=9 note=37 velocity=0 time=9
9962	note_on channel=9 note=38 velocity=0 time=0
9963	note_on channel=6 note=59 velocity=0 time=4
9964	note_on channel=7 note=59 velocity=0 time=1
9965	note_on channel=4 note=73 velocity=0 time=3
9966	note_on channel=1 note=30 velocity=0 time=2
9967	note_on channel=6 note=61 velocity=0 time=8
9968	note_on channel=7 note=61 velocity=0 time=1
9969	note_on channel=1 note=31 velocity=51 time=1
9970	note_on channel=6 note=61 velocity=70 time=0
9971	note_on channel=9 note=82 velocity=71 time=0
9972	note_on channel=7 note=61 velocity=70 time=1
9973	note_on channel=9 note=82 velocity=0 time=9
9974	note_on channel=1 note=31 velocity=0 time=0
9975	note_on channel=1 note=33 velocity=68 time=20
9976	note_on channel=4 note=78 velocity=127 time=0
9977	note_on channel=6 note=66 velocity=70 time=0
9978	note_on channel=7 note=66 velocity=70 time=1
9979	note_on channel=6 note=61 velocity=0 time=13
9980	note_on channel=7 note=61 velocity=0 time=1
9981	note_on channel=4 note=78 velocity=0 time=3
9982	note_on channel=1 note=33 velocity=0 time=12
9983	note_on channel=1 note=37 velocity=51 time=0
9984	note_on channel=6 note=61 velocity=70 time=0
9985	note_on channel=9 note=38 velocity=65 time=0
9986	note_on channel=9 note=82 velocity=69 time=0
9987	note_on channel=9 note=37 velocity=127 time=0
9988	note_on channel=7 note=61 velocity=70 time=1
9989	note_on channel=9 note=37 velocity=0 time=9
9990	note_on channel=9 note=82 velocity=0 time=0
9991	note_on channel=1 note=37 velocity=0 time=0
9992	note_on channel=9 note=38 velocity=0 time=0
9993	note_on channel=6 note=66 velocity=0 time=4
9994	note_on channel=7 note=66 velocity=0 time=1
9995	note_on channel=6 note=61 velocity=0 time=13
9996	note_on channel=7 note=61 velocity=0 time=1
9997	note_on channel=1 note=38 velocity=48 time=1
9998	note_on channel=4 note=78 velocity=127 time=0
9999	note_on channel=6 note=61 velocity=70 time=0
10000	note_on channel=9 note=36 velocity=127 time=0
10001	note_on channel=9 note=35 velocity=127 time=0
10002	note_on channel=7 note=61 velocity=70 time=1
10003	note_on channel=9 note=35 velocity=0 time=9
10004	note_on channel=9 note=36 velocity=0 time=0
10005	note_on channel=1 note=38 velocity=0 time=0
10006	note_on channel=4 note=78 velocity=0 time=10
10007	note_on channel=6 note=61 velocity=0 time=8
10008	note_on channel=7 note=61 velocity=0 time=1
10009	note_on channel=1 note=37 velocity=69 time=1
10010	note_on channel=4 note=73 velocity=127 time=0
10011	note_on channel=6 note=61 velocity=70 time=0
10012	note_on channel=9 note=82 velocity=48 time=0
10013	note_on channel=7 note=61 velocity=70 time=1
10014	note_on channel=9 note=82 velocity=0 time=9
10015	note_on channel=1 note=37 velocity=0 time=0
10016	note_on channel=4 note=73 velocity=0 time=14
10017	note_on channel=6 note=61 velocity=0 time=0
10018	note_on channel=7 note=61 velocity=0 time=1
10019	note_on channel=1 note=33 velocity=48 time=5
10020	note_on channel=4 note=71 velocity=127 time=0
10021	note_on channel=6 note=61 velocity=70 time=0
10022	note_on channel=7 note=61 velocity=70 time=1
10023	note_on channel=1 note=33 velocity=0 time=9
10024	note_on channel=6 note=61 velocity=0 time=12
10025	note_on channel=7 note=61 velocity=0 time=1
10026	note_on channel=4 note=71 velocity=0 time=3
10027	note_on channel=1 note=30 velocity=92 time=4
10028	note_on channel=4 note=71 velocity=127 time=0
10029	note_on channel=6 note=59 velocity=70 time=0
10030	note_on channel=9 note=36 velocity=127 time=0
10031	note_on channel=9 note=35 velocity=127 time=0
10032	note_on channel=9 note=82 velocity=88 time=0
10033	note_on channel=7 note=59 velocity=70 time=1
10034	note_on channel=9 note=82 velocity=0 time=9
10035	note_on channel=9 note=35 velocity=0 time=0
10036	note_on channel=9 note=36 velocity=0 time=0
10037	note_on channel=4 note=71 velocity=0 time=18
10038	note_on channel=4 note=73 velocity=127 time=2
10039	note_on channel=6 note=61 velocity=70 time=0
10040	note_on channel=7 note=61 velocity=70 time=1
10041	note_on channel=6 note=59 velocity=0 time=13
10042	note_on channel=7 note=59 velocity=0 time=1
10043	note_on channel=4 note=73 velocity=0 time=9
10044	note_on channel=6 note=61 velocity=70 time=6
10045	note_on channel=9 note=82 velocity=70 time=0
10046	note_on channel=9 note=27 velocity=83 time=0
10047	note_on channel=7 note=61 velocity=70 time=1
10048	note_on channel=9 note=27 velocity=0 time=9
10049	note_on channel=9 note=82 velocity=0 time=0
10050	note_on channel=6 note=61 velocity=0 time=4
10051	note_on channel=7 note=61 velocity=0 time=1
10052	note_on channel=1 note=30 velocity=0 time=15
10053	note_on channel=4 note=74 velocity=127 time=0
10054	note_on channel=6 note=62 velocity=70 time=0
10055	note_on channel=9 note=36 velocity=127 time=0
10056	note_on channel=9 note=35 velocity=127 time=0
10057	note_on channel=7 note=62 velocity=70 time=1
10058	note_on channel=9 note=35 velocity=0 time=9
10059	note_on channel=9 note=36 velocity=0 time=0
10060	note_on channel=6 note=61 velocity=0 time=4
10061	note_on channel=7 note=61 velocity=0 time=1
10062	note_on channel=4 note=74 velocity=0 time=5
10063	note_on channel=6 note=61 velocity=70 time=10
10064	note_on channel=9 note=82 velocity=68 time=0
10065	note_on channel=9 note=27 velocity=81 time=0
10066	note_on channel=7 note=61 velocity=70 time=1
10067	note_on channel=9 note=27 velocity=0 time=9
10068	note_on channel=9 note=82 velocity=0 time=0
10069	note_on channel=6 note=62 velocity=0 time=4
10070	note_on channel=7 note=62 velocity=0 time=1
10071	note_on channel=6 note=61 velocity=0 time=13
10072	note_on channel=7 note=61 velocity=0 time=1
10073	note_on channel=4 note=74 velocity=127 time=1
10074	note_on channel=6 note=61 velocity=70 time=0
10075	note_on channel=7 note=61 velocity=70 time=1
10076	note_on channel=4 note=74 velocity=0 time=19
10077	note_on channel=6 note=61 velocity=0 time=8
10078	note_on channel=7 note=61 velocity=0 time=1
10079	note_on channel=1 note=30 velocity=90 time=1
10080	note_on channel=4 note=73 velocity=127 time=0
10081	note_on channel=6 note=61 velocity=70 time=0
10082	note_on channel=9 note=38 velocity=68 time=0
10083	note_on channel=9 note=82 velocity=47 time=0
10084	note_on channel=9 note=37 velocity=127 time=0
10085	note_on channel=7 note=61 velocity=70 time=1
10086	note_on channel=9 note=37 velocity=0 time=9
10087	note_on channel=9 note=82 velocity=0 time=0
10088	note_on channel=9 note=38 velocity=0 time=0
10089	note_on channel=4 note=73 velocity=0 time=6
10090	note_on channel=6 note=61 velocity=0 time=10
10091	note_on channel=7 note=61 velocity=0 time=1
10092	note_on channel=4 note=71 velocity=127 time=3
10093	note_on channel=6 note=61 velocity=70 time=0
10094	note_on channel=7 note=61 velocity=70 time=1
10095	note_on channel=4 note=71 velocity=0 time=21
10096	note_on channel=1 note=30 velocity=0 time=8
10097	note_on channel=6 note=61 velocity=0 time=0
10098	note_on channel=1 note=30 velocity=72 time=0
10099	note_on channel=4 note=71 velocity=127 time=0
10100	note_on channel=6 note=59 velocity=70 time=0
10101	note_on channel=9 note=82 velocity=89 time=0
10102	note_on channel=7 note=61 velocity=0 time=1
10103	note_on channel=7 note=59 velocity=70 time=0
10104	note_on channel=9 note=82 velocity=0 time=9
10105	note_on channel=4 note=71 velocity=0 time=16
10106	note_on channel=4 note=73 velocity=127 time=4
10107	note_on channel=6 note=61 velocity=70 time=0
10108	note_on channel=9 note=38 velocity=67 time=0
10109	note_on channel=9 note=37 velocity=127 time=0
10110	note_on channel=7 note=61 velocity=70 time=1
10111	note_on channel=9 note=37 velocity=0 time=9
10112	note_on channel=9 note=38 velocity=0 time=0
10113	note_on channel=6 note=59 velocity=0 time=4
10114	note_on channel=7 note=59 velocity=0 time=1
10115	note_on channel=4 note=73 velocity=0 time=3
10116	note_on channel=6 note=61 velocity=0 time=10
10117	note_on channel=7 note=61 velocity=0 time=1
10118	note_on channel=6 note=61 velocity=70 time=1
10119	note_on channel=9 note=36 velocity=127 time=0
10120	note_on channel=9 note=35 velocity=127 time=0
10121	note_on channel=9 note=82 velocity=68 time=0
10122	note_on channel=7 note=61 velocity=70 time=1
10123	note_on channel=9 note=82 velocity=0 time=9
10124	note_on channel=9 note=35 velocity=0 time=0
10125	note_on channel=9 note=36 velocity=0 time=0
10126	note_on channel=1 note=30 velocity=0 time=20
10127	note_on channel=4 note=74 velocity=127 time=0
10128	note_on channel=6 note=62 velocity=70 time=0
10129	note_on channel=7 note=62 velocity=70 time=1
10130	note_on channel=6 note=61 velocity=0 time=13
10131	note_on channel=7 note=61 velocity=0 time=1
10132	note_on channel=4 note=74 velocity=0 time=3
10133	note_on channel=6 note=61 velocity=70 time=12
10134	note_on channel=9 note=38 velocity=66 time=0
10135	note_on channel=9 note=82 velocity=70 time=0
10136	note_on channel=9 note=37 velocity=127 time=0
10137	note_on channel=7 note=61 velocity=70 time=1
10138	note_on channel=9 note=37 velocity=0 time=9
10139	note_on channel=9 note=82 velocity=0 time=0
10140	note_on channel=9 note=38 velocity=0 time=0
10141	note_on channel=6 note=62 velocity=0 time=4
10142	note_on channel=7 note=62 velocity=0 time=1
10143	note_on channel=6 note=61 velocity=0 time=13
10144	note_on channel=7 note=61 velocity=0 time=1
10145	note_on channel=4 note=74 velocity=127 time=1
10146	note_on channel=6 note=61 velocity=70 time=0
10147	note_on channel=9 note=36 velocity=127 time=0
10148	note_on channel=9 note=35 velocity=127 time=0
10149	note_on channel=7 note=61 velocity=70 time=1
10150	note_on channel=9 note=35 velocity=0 time=9
10151	note_on channel=9 note=36 velocity=0 time=0
10152	note_on channel=4 note=74 velocity=0 time=10
10153	note_on channel=6 note=61 velocity=0 time=8
10154	note_on channel=7 note=61 velocity=0 time=1
10155	note_on channel=4 note=73 velocity=127 time=1
10156	note_on channel=6 note=61 velocity=70 time=0
10157	note_on channel=9 note=82 velocity=47 time=0
10158	note_on channel=7 note=61 velocity=70 time=1
10159	note_on channel=9 note=82 velocity=0 time=9
10160	note_on channel=4 note=73 velocity=0 time=14
10161	note_on channel=6 note=61 velocity=0 time=0
10162	note_on channel=7 note=61 velocity=0 time=1
10163	note_on channel=4 note=71 velocity=127 time=5
10164	note_on channel=6 note=61 velocity=70 time=0
10165	note_on channel=9 note=36 velocity=127 time=0
10166	note_on channel=9 note=35 velocity=127 time=0
10167	note_on channel=7 note=61 velocity=70 time=1
10168	note_on channel=9 note=35 velocity=0 time=9
10169	note_on channel=9 note=36 velocity=0 time=0
10170	note_on channel=6 note=61 velocity=0 time=12
10171	note_on channel=7 note=61 velocity=0 time=1
10172	note_on channel=4 note=71 velocity=0 time=3
10173	note_on channel=1 note=30 velocity=88 time=4
10174	note_on channel=4 note=71 velocity=127 time=0
10175	note_on channel=6 note=59 velocity=70 time=0
10176	note_on channel=9 note=36 velocity=127 time=0
10177	note_on channel=9 note=35 velocity=127 time=0
10178	note_on channel=9 note=82 velocity=90 time=0
10179	note_on channel=7 note=59 velocity=70 time=1
10180	note_on channel=9 note=82 velocity=0 time=9
10181	note_on channel=9 note=35 velocity=0 time=0
10182	note_on channel=9 note=36 velocity=0 time=0
10183	note_on channel=4 note=71 velocity=0 time=18
10184	note_on channel=4 note=73 velocity=127 time=2
10185	note_on channel=6 note=61 velocity=70 time=0
10186	note_on channel=7 note=61 velocity=70 time=1
10187	note_on channel=6 note=59 velocity=0 time=13
10188	note_on channel=7 note=59 velocity=0 time=1
10189	note_on channel=4 note=73 velocity=0 time=9
10190	note_on channel=1 note=30 velocity=0 time=6
10191	note_on channel=1 note=31 velocity=50 time=0
10192	note_on channel=6 note=61 velocity=70 time=0
10193	note_on channel=9 note=82 velocity=71 time=0
10194	note_on channel=9 note=27 velocity=83 time=0
10195	note_on channel=7 note=61 velocity=70 time=1
10196	note_on channel=9 note=27 velocity=0 time=9
10197	note_on channel=9 note=82 velocity=0 time=0
10198	note_on channel=1 note=31 velocity=0 time=0
10199	note_on channel=6 note=61 velocity=0 time=4
10200	note_on channel=7 note=61 velocity=0 time=1
10201	note_on channel=1 note=33 velocity=69 time=15
10202	note_on channel=4 note=74 velocity=127 time=0
10203	note_on channel=6 note=62 velocity=70 time=0
10204	note_on channel=9 note=36 velocity=127 time=0
10205	note_on channel=9 note=35 velocity=127 time=0
10206	note_on channel=7 note=62 velocity=70 time=1
10207	note_on channel=9 note=35 velocity=0 time=9
10208	note_on channel=9 note=36 velocity=0 time=0
10209	note_on channel=1 note=33 velocity=0 time=0
10210	note_on channel=6 note=61 velocity=0 time=4
10211	note_on channel=7 note=61 velocity=0 time=1
10212	note_on channel=4 note=74 velocity=0 time=5
10213	note_on channel=1 note=37 velocity=52 time=10
10214	note_on channel=6 note=61 velocity=70 time=0
10215	note_on channel=9 note=82 velocity=71 time=0
10216	note_on channel=9 note=27 velocity=83 time=0
10217	note_on channel=7 note=61 velocity=70 time=1
10218	note_on channel=9 note=27 velocity=0 time=9
10219	note_on channel=9 note=82 velocity=0 time=0
10220	note_on channel=1 note=37 velocity=0 time=0
10221	note_on channel=6 note=62 velocity=0 time=4
10222	note_on channel=7 note=62 velocity=0 time=1
10223	note_on channel=6 note=61 velocity=0 time=13
10224	note_on channel=7 note=61 velocity=0 time=1
10225	note_on channel=1 note=38 velocity=52 time=1
10226	note_on channel=4 note=74 velocity=127 time=0
10227	note_on channel=6 note=61 velocity=70 time=0
10228	note_on channel=7 note=61 velocity=70 time=1
10229	note_on channel=1 note=38 velocity=0 time=9
10230	note_on channel=4 note=74 velocity=0 time=10
10231	note_on channel=6 note=61 velocity=0 time=8
10232	note_on channel=7 note=61 velocity=0 time=1
10233	note_on channel=1 note=28 velocity=69 time=1
10234	note_on channel=4 note=73 velocity=127 time=0
10235	note_on channel=6 note=61 velocity=70 time=0
10236	note_on channel=9 note=82 velocity=53 time=0
10237	note_on channel=9 note=37 velocity=127 time=0
10238	note_on channel=7 note=61 velocity=70 time=1
10239	note_on channel=9 note=37 velocity=0 time=9
10240	note_on channel=9 note=82 velocity=0 time=0
10241	note_on channel=4 note=73 velocity=0 time=6
10242	note_on channel=6 note=61 velocity=0 time=10
10243	note_on channel=7 note=61 velocity=0 time=1
10244	note_on channel=4 note=71 velocity=127 time=3
10245	note_on channel=6 note=61 velocity=70 time=0
10246	note_on channel=7 note=61 velocity=70 time=1
10247	note_on channel=4 note=71 velocity=0 time=21
10248	note_on channel=1 note=28 velocity=0 time=8
10249	note_on channel=6 note=61 velocity=0 time=0
10250	note_on channel=1 note=30 velocity=92 time=0
10251	note_on channel=4 note=71 velocity=127 time=0
10252	note_on channel=6 note=59 velocity=70 time=0
10253	note_on channel=9 note=38 velocity=92 time=0
10254	note_on channel=9 note=82 velocity=89 time=0
10255	note_on channel=7 note=61 velocity=0 time=1
10256	note_on channel=7 note=59 velocity=70 time=0
10257	note_on channel=9 note=82 velocity=0 time=9
10258	note_on channel=9 note=38 velocity=0 time=1
10259	note_on channel=9 note=38 velocity=93 time=4
10260	note_on channel=4 note=71 velocity=0 time=11
10261	note_on channel=9 note=38 velocity=0 time=2
10262	note_on channel=4 note=73 velocity=127 time=2
10263	note_on channel=6 note=61 velocity=70 time=0
10264	note_on channel=9 note=38 velocity=93 time=0
10265	note_on channel=9 note=37 velocity=127 time=0
10266	note_on channel=7 note=61 velocity=70 time=1
10267	note_on channel=9 note=37 velocity=0 time=9
10268	note_on channel=9 note=38 velocity=0 time=0
10269	note_on channel=6 note=59 velocity=0 time=4
10270	note_on channel=7 note=59 velocity=0 time=1
10271	note_on channel=9 note=38 velocity=93 time=0
10272	note_on channel=4 note=73 velocity=0 time=3
10273	note_on channel=1 note=30 velocity=0 time=2
10274	note_on channel=9 note=38 velocity=0 time=4
10275	note_on channel=6 note=61 velocity=0 time=4
10276	note_on channel=7 note=61 velocity=0 time=1
10277	note_on channel=1 note=31 velocity=48 time=1
10278	note_on channel=6 note=61 velocity=70 time=0
10279	note_on channel=9 note=82 velocity=71 time=0
10280	note_on channel=7 note=61 velocity=70 time=1
10281	note_on channel=9 note=82 velocity=0 time=9
10282	note_on channel=1 note=31 velocity=0 time=0
10283	note_on channel=1 note=33 velocity=72 time=20
10284	note_on channel=4 note=78 velocity=127 time=0
10285	note_on channel=6 note=66 velocity=70 time=0
10286	note_on channel=9 note=38 velocity=67 time=0
10287	note_on channel=7 note=66 velocity=70 time=1
10288	note_on channel=9 note=38 velocity=0 time=10
10289	note_on channel=6 note=61 velocity=0 time=3
10290	note_on channel=7 note=61 velocity=0 time=1
10291	note_on channel=4 note=78 velocity=0 time=3
10292	note_on channel=1 note=33 velocity=0 time=12
10293	note_on channel=1 note=37 velocity=51 time=0
10294	note_on channel=6 note=61 velocity=70 time=0
10295	note_on channel=9 note=38 velocity=85 time=0
10296	note_on channel=9 note=82 velocity=69 time=0
10297	note_on channel=9 note=37 velocity=127 time=0
10298	note_on channel=7 note=61 velocity=70 time=1
10299	note_on channel=9 note=37 velocity=0 time=9
10300	note_on channel=9 note=82 velocity=0 time=0
10301	note_on channel=1 note=37 velocity=0 time=0
10302	note_on channel=9 note=38 velocity=0 time=0
10303	note_on channel=6 note=66 velocity=0 time=4
10304	note_on channel=7 note=66 velocity=0 time=1
10305	note_on channel=6 note=61 velocity=0 time=13
10306	note_on channel=7 note=61 velocity=0 time=1
10307	note_on channel=1 note=38 velocity=50 time=1
10308	note_on channel=4 note=78 velocity=127 time=0
10309	note_on channel=6 note=61 velocity=70 time=0
10310	note_on channel=9 note=36 velocity=127 time=0
10311	note_on channel=9 note=35 velocity=127 time=0
10312	note_on channel=7 note=61 velocity=70 time=1
10313	note_on channel=9 note=35 velocity=0 time=9
10314	note_on channel=9 note=36 velocity=0 time=0
10315	note_on channel=1 note=38 velocity=0 time=0
10316	note_on channel=4 note=78 velocity=0 time=10
10317	note_on channel=6 note=61 velocity=0 time=8
10318	note_on channel=7 note=61 velocity=0 time=1
10319	note_on channel=1 note=37 velocity=71 time=1
10320	note_on channel=4 note=73 velocity=127 time=0
10321	note_on channel=6 note=61 velocity=70 time=0
10322	note_on channel=9 note=82 velocity=48 time=0
10323	note_on channel=7 note=61 velocity=70 time=1
10324	note_on channel=9 note=82 velocity=0 time=9
10325	note_on channel=1 note=37 velocity=0 time=0
10326	note_on channel=4 note=73 velocity=0 time=14
10327	note_on channel=6 note=61 velocity=0 time=0
10328	note_on channel=7 note=61 velocity=0 time=1
10329	note_on channel=1 note=33 velocity=52 time=5
10330	note_on channel=4 note=71 velocity=127 time=0
10331	note_on channel=6 note=61 velocity=70 time=0
10332	note_on channel=7 note=61 velocity=70 time=1
10333	note_on channel=1 note=33 velocity=0 time=9
10334	note_on channel=6 note=61 velocity=0 time=12
10335	note_on channel=7 note=61 velocity=0 time=1
10336	note_on channel=8 note=73 velocity=0 time=3
10337	note_on channel=4 note=71 velocity=0 time=0
10338	note_on channel=8 note=66 velocity=0 time=1
10339	note_on channel=8 note=69 velocity=0 time=0
10340	note_on channel=1 note=30 velocity=127 time=3
10341	note_on channel=9 note=36 velocity=127 time=0
10342	note_on channel=9 note=35 velocity=127 time=0
10343	note_on channel=14 note=42 velocity=127 time=0
10344	note_on channel=15 note=42 velocity=95 time=0
10345	note_on channel=9 note=35 velocity=0 time=10
10346	note_on channel=9 note=36 velocity=0 time=0
10347	note_on channel=15 note=42 velocity=0 time=18
10348	note_on channel=14 note=42 velocity=0 time=0
10349	note_on channel=14 note=42 velocity=127 time=2
10350	note_on channel=15 note=42 velocity=97 time=0
10351	note_on channel=15 note=42 velocity=0 time=24
10352	note_on channel=14 note=42 velocity=0 time=0
10353	note_on channel=14 note=40 velocity=121 time=6
10354	note_on channel=15 note=40 velocity=61 time=0
10355	note_on channel=15 note=40 velocity=0 time=26
10356	note_on channel=14 note=40 velocity=0 time=0
10357	note_on channel=14 note=40 velocity=123 time=4
10358	note_on channel=15 note=40 velocity=63 time=0
10359	note_on channel=15 note=40 velocity=0 time=30
10360	note_on channel=14 note=40 velocity=0 time=0
10361	note_on channel=14 note=42 velocity=127 time=0
10362	note_on channel=15 note=42 velocity=127 time=0
10363	note_on channel=15 note=42 velocity=0 time=26
10364	note_on channel=14 note=42 velocity=0 time=0
10365	note_on channel=14 note=42 velocity=127 time=4
10366	note_on channel=15 note=42 velocity=127 time=0
10367	note_on channel=15 note=42 velocity=0 time=28
10368	note_on channel=14 note=42 velocity=0 time=0
10369	note_on channel=14 note=40 velocity=119 time=2
10370	note_on channel=15 note=40 velocity=59 time=0
10371	note_on channel=15 note=40 velocity=0 time=28
10372	note_on channel=14 note=40 velocity=0 time=0
10373	note_on channel=14 note=40 velocity=120 time=2
10374	note_on channel=15 note=40 velocity=60 time=0
10375	note_on channel=15 note=40 velocity=0 time=26
10376	note_on channel=14 note=40 velocity=0 time=0
10377	note_on channel=14 note=42 velocity=127 time=4
10378	note_on channel=15 note=42 velocity=101 time=0
10379	note_on channel=15 note=42 velocity=0 time=26
10380	note_on channel=14 note=42 velocity=0 time=0
10381	note_on channel=14 note=42 velocity=127 time=4
10382	note_on channel=15 note=42 velocity=101 time=0
10383	note_on channel=15 note=42 velocity=0 time=26
10384	note_on channel=14 note=42 velocity=0 time=0
10385	note_on channel=14 note=40 velocity=97 time=4
10386	note_on channel=15 note=40 velocity=37 time=0
10387	note_on channel=15 note=40 velocity=0 time=24
10388	note_on channel=14 note=40 velocity=0 time=0
10389	note_on channel=14 note=40 velocity=97 time=6
10390	note_on channel=15 note=40 velocity=37 time=0
10391	note_on channel=15 note=40 velocity=0 time=28
10392	note_on channel=14 note=40 velocity=0 time=0
10393	note_on channel=14 note=42 velocity=117 time=2
10394	note_on channel=15 note=42 velocity=57 time=0
10395	note_on channel=15 note=42 velocity=0 time=29
10396	note_on channel=14 note=42 velocity=0 time=0
10397	note_on channel=14 note=42 velocity=118 time=1
10398	note_on channel=15 note=42 velocity=58 time=0
10399	note_on channel=15 note=42 velocity=0 time=29
10400	note_on channel=14 note=42 velocity=0 time=0
10401	note_on channel=14 note=40 velocity=72 time=1
10402	note_on channel=15 note=40 velocity=12 time=0
10403	note_on channel=15 note=40 velocity=0 time=29
10404	note_on channel=14 note=40 velocity=0 time=0
10405	note_on channel=14 note=40 velocity=71 time=1
10406	note_on channel=15 note=40 velocity=11 time=0
10407	note_on channel=1 note=30 velocity=0 time=18
10408	note_on channel=15 note=40 velocity=0 time=10
10409	note_on channel=14 note=40 velocity=0 time=0
10410	note_on channel=1 note=25 velocity=127 time=2
10411	note_on channel=9 note=36 velocity=127 time=0
10412	note_on channel=9 note=35 velocity=127 time=0
10413	note_on channel=14 note=37 velocity=127 time=0
10414	note_on channel=15 note=37 velocity=95 time=0
10415	note_on channel=9 note=35 velocity=0 time=10
10416	note_on channel=9 note=36 velocity=0 time=0
10417	note_on channel=15 note=37 velocity=0 time=18
10418	note_on channel=14 note=37 velocity=0 time=0
10419	note_on channel=14 note=37 velocity=127 time=2
10420	note_on channel=15 note=37 velocity=97 time=0
10421	note_on channel=15 note=37 velocity=0 time=24
10422	note_on channel=14 note=37 velocity=0 time=0
10423	note_on channel=14 note=35 velocity=121 time=6
10424	note_on channel=15 note=35 velocity=61 time=0
10425	note_on channel=15 note=35 velocity=0 time=26
10426	note_on channel=14 note=35 velocity=0 time=0
10427	note_on channel=14 note=35 velocity=123 time=4
10428	note_on channel=15 note=35 velocity=63 time=0
10429	note_on channel=15 note=35 velocity=0 time=30
10430	note_on channel=14 note=35 velocity=0 time=0
10431	note_on channel=14 note=37 velocity=127 time=0
10432	note_on channel=15 note=37 velocity=127 time=0
10433	note_on channel=15 note=37 velocity=0 time=26
10434	note_on channel=14 note=37 velocity=0 time=0
10435	note_on channel=14 note=37 velocity=127 time=4
10436	note_on channel=15 note=37 velocity=127 time=0
10437	note_on channel=15 note=37 velocity=0 time=28
10438	note_on channel=14 note=37 velocity=0 time=0
10439	note_on channel=14 note=35 velocity=119 time=2
10440	note_on channel=15 note=35 velocity=59 time=0
10441	note_on channel=15 note=35 velocity=0 time=28
10442	note_on channel=14 note=35 velocity=0 time=0
10443	note_on channel=14 note=35 velocity=120 time=2
10444	note_on channel=15 note=35 velocity=60 time=0
10445	note_on channel=15 note=35 velocity=0 time=26
10446	note_on channel=14 note=35 velocity=0 time=0
10447	note_on channel=14 note=37 velocity=127 time=4
10448	note_on channel=15 note=37 velocity=101 time=0
10449	note_on channel=15 note=37 velocity=0 time=26
10450	note_on channel=14 note=37 velocity=0 time=0
10451	note_on channel=14 note=37 velocity=127 time=4
10452	note_on channel=15 note=37 velocity=101 time=0
10453	note_on channel=15 note=37 velocity=0 time=26
10454	note_on channel=14 note=37 velocity=0 time=0
10455	note_on channel=14 note=35 velocity=97 time=4
10456	note_on channel=15 note=35 velocity=37 time=0
10457	note_on channel=15 note=35 velocity=0 time=24
10458	note_on channel=14 note=35 velocity=0 time=0
10459	note_on channel=14 note=35 velocity=97 time=6
10460	note_on channel=15 note=35 velocity=37 time=0
10461	note_on channel=15 note=35 velocity=0 time=28
10462	note_on channel=14 note=35 velocity=0 time=0
10463	note_on channel=14 note=37 velocity=117 time=2
10464	note_on channel=15 note=37 velocity=57 time=0
10465	note_on channel=15 note=37 velocity=0 time=29
10466	note_on channel=14 note=37 velocity=0 time=0
10467	note_on channel=14 note=37 velocity=118 time=1
10468	note_on channel=15 note=37 velocity=58 time=0
10469	note_on channel=15 note=37 velocity=0 time=29
10470	note_on channel=14 note=37 velocity=0 time=0
10471	note_on channel=14 note=35 velocity=72 time=1
10472	note_on channel=15 note=35 velocity=12 time=0
10473	note_on channel=15 note=35 velocity=0 time=29
10474	note_on channel=14 note=35 velocity=0 time=0
10475	note_on channel=14 note=35 velocity=71 time=1
10476	note_on channel=15 note=35 velocity=11 time=0
10477	note_on channel=1 note=25 velocity=0 time=18
10478	note_on channel=15 note=35 velocity=0 time=10
10479	note_on channel=14 note=35 velocity=0 time=0
10480	note_on channel=9 note=36 velocity=127 time=2
10481	note_on channel=9 note=35 velocity=127 time=0
10482	note_on channel=9 note=82 velocity=108 time=0
10483	note_on channel=9 note=27 velocity=119 time=0
10484	note_on channel=9 note=27 velocity=0 time=10
10485	note_on channel=9 note=36 velocity=0 time=0
10486	note_on channel=9 note=35 velocity=0 time=0
10487	note_on channel=9 note=82 velocity=0 time=0
10488	note_on channel=9 note=35 velocity=127 time=20
10489	note_on channel=9 note=27 velocity=119 time=0
10490	note_on channel=9 note=27 velocity=0 time=10
10491	note_on channel=9 note=35 velocity=0 time=0
10492	note_on channel=9 note=82 velocity=90 time=20
10493	note_on channel=9 note=82 velocity=0 time=10
10494	note_on channel=9 note=35 velocity=127 time=20
10495	note_on channel=9 note=27 velocity=119 time=0
10496	note_on channel=9 note=27 velocity=0 time=10
10497	note_on channel=9 note=35 velocity=0 time=0
10498	note_on channel=9 note=35 velocity=127 time=20
10499	note_on channel=9 note=82 velocity=88 time=0
10500	note_on channel=9 note=27 velocity=119 time=0
10501	note_on channel=9 note=27 velocity=0 time=10
10502	note_on channel=9 note=82 velocity=0 time=0
10503	note_on channel=9 note=35 velocity=0 time=0
10504	note_on channel=9 note=35 velocity=127 time=20
10505	note_on channel=9 note=27 velocity=119 time=0
10506	note_on channel=9 note=27 velocity=0 time=10
10507	note_on channel=9 note=35 velocity=0 time=0
10508	note_on channel=9 note=35 velocity=127 time=20
10509	note_on channel=9 note=38 velocity=88 time=0
10510	note_on channel=9 note=82 velocity=67 time=0
10511	note_on channel=9 note=37 velocity=127 time=0
10512	note_on channel=9 note=27 velocity=119 time=0
10513	note_on channel=9 note=27 velocity=0 time=10
10514	note_on channel=9 note=82 velocity=0 time=0
10515	note_on channel=9 note=35 velocity=0 time=0
10516	note_on channel=9 note=38 velocity=0 time=0
10517	note_on channel=9 note=37 velocity=0 time=0
10518	note_on channel=9 note=35 velocity=127 time=20
10519	note_on channel=9 note=27 velocity=119 time=0
10520	note_on channel=9 note=27 velocity=0 time=10
10521	note_on channel=9 note=35 velocity=0 time=0
10522	note_on channel=9 note=35 velocity=127 time=20
10523	note_on channel=9 note=82 velocity=109 time=0
10524	note_on channel=9 note=27 velocity=119 time=0
10525	note_on channel=9 note=27 velocity=0 time=10
10526	note_on channel=9 note=82 velocity=0 time=0
10527	note_on channel=9 note=35 velocity=0 time=0
10528	note_on channel=9 note=35 velocity=127 time=20
10529	note_on channel=9 note=38 velocity=87 time=0
10530	note_on channel=9 note=37 velocity=127 time=0
10531	note_on channel=9 note=27 velocity=119 time=0
10532	note_on channel=9 note=27 velocity=0 time=10
10533	note_on channel=9 note=35 velocity=0 time=0
10534	note_on channel=9 note=38 velocity=0 time=0
10535	note_on channel=9 note=37 velocity=0 time=0
10536	note_on channel=9 note=35 velocity=127 time=20
10537	note_on channel=9 note=82 velocity=88 time=0
10538	note_on channel=9 note=27 velocity=119 time=0
10539	note_on channel=9 note=27 velocity=0 time=10
10540	note_on channel=9 note=82 velocity=0 time=0
10541	note_on channel=9 note=35 velocity=0 time=0
10542	note_on channel=9 note=35 velocity=127 time=50
10543	note_on channel=9 note=38 velocity=86 time=0
10544	note_on channel=9 note=82 velocity=90 time=0
10545	note_on channel=9 note=37 velocity=127 time=0
10546	note_on channel=9 note=27 velocity=119 time=0
10547	note_on channel=9 note=27 velocity=0 time=10
10548	note_on channel=9 note=82 velocity=0 time=0
10549	note_on channel=9 note=35 velocity=0 time=0
10550	note_on channel=9 note=38 velocity=0 time=0
10551	note_on channel=9 note=37 velocity=0 time=0
10552	note_on channel=9 note=35 velocity=127 time=50
10553	note_on channel=9 note=82 velocity=67 time=0
10554	note_on channel=9 note=27 velocity=119 time=0
10555	note_on channel=9 note=27 velocity=0 time=10
10556	note_on channel=9 note=82 velocity=0 time=0
10557	note_on channel=9 note=35 velocity=0 time=0
10558	note_on channel=9 note=35 velocity=127 time=20
10559	note_on channel=9 note=27 velocity=119 time=0
10560	note_on channel=9 note=27 velocity=0 time=10
10561	note_on channel=9 note=35 velocity=0 time=0
10562	note_on channel=9 note=36 velocity=127 time=20
10563	note_on channel=9 note=35 velocity=127 time=0
10564	note_on channel=9 note=82 velocity=108 time=0
10565	note_on channel=9 note=27 velocity=119 time=0
10566	note_on channel=9 note=27 velocity=0 time=10
10567	note_on channel=9 note=36 velocity=0 time=0
10568	note_on channel=9 note=35 velocity=0 time=0
10569	note_on channel=9 note=82 velocity=0 time=0
10570	note_on channel=9 note=35 velocity=127 time=20
10571	note_on channel=9 note=27 velocity=119 time=0
10572	note_on channel=9 note=27 velocity=0 time=10
10573	note_on channel=9 note=35 velocity=0 time=0
10574	note_on channel=9 note=82 velocity=90 time=20
10575	note_on channel=9 note=82 velocity=0 time=10
10576	note_on channel=9 note=35 velocity=127 time=20
10577	note_on channel=9 note=27 velocity=119 time=0
10578	note_on channel=9 note=27 velocity=0 time=10
10579	note_on channel=9 note=35 velocity=0 time=0
10580	note_on channel=9 note=35 velocity=127 time=20
10581	note_on channel=9 note=82 velocity=88 time=0
10582	note_on channel=9 note=27 velocity=119 time=0
10583	note_on channel=9 note=27 velocity=0 time=10
10584	note_on channel=9 note=82 velocity=0 time=0
10585	note_on channel=9 note=35 velocity=0 time=0
10586	note_on channel=9 note=35 velocity=127 time=20
10587	note_on channel=9 note=27 velocity=119 time=0
10588	note_on channel=9 note=27 velocity=0 time=10
10589	note_on channel=9 note=35 velocity=0 time=0
10590	note_on channel=9 note=35 velocity=127 time=20
10591	note_on channel=9 note=82 velocity=67 time=0
10592	note_on channel=9 note=37 velocity=127 time=0
10593	note_on channel=9 note=27 velocity=119 time=0
10594	note_on channel=9 note=27 velocity=0 time=10
10595	note_on channel=9 note=35 velocity=0 time=0
10596	note_on channel=9 note=82 velocity=0 time=0
10597	note_on channel=9 note=37 velocity=0 time=0
10598	note_on channel=9 note=35 velocity=127 time=20
10599	note_on channel=9 note=27 velocity=119 time=0
10600	note_on channel=9 note=27 velocity=0 time=10
10601	note_on channel=9 note=35 velocity=0 time=0
10602	note_on channel=9 note=35 velocity=127 time=20
10603	note_on channel=9 note=38 velocity=92 time=0
10604	note_on channel=9 note=82 velocity=109 time=0
10605	note_on channel=9 note=27 velocity=119 time=0
10606	note_on channel=9 note=27 velocity=0 time=10
10607	note_on channel=9 note=82 velocity=0 time=0
10608	note_on channel=9 note=35 velocity=0 time=0
10609	note_on channel=9 note=38 velocity=0 time=1
10610	note_on channel=9 note=38 velocity=93 time=4
10611	note_on channel=9 note=38 velocity=0 time=13
10612	note_on channel=9 note=35 velocity=127 time=2
10613	note_on channel=9 note=38 velocity=93 time=0
10614	note_on channel=9 note=37 velocity=127 time=0
10615	note_on channel=9 note=27 velocity=119 time=0
10616	note_on channel=9 note=27 velocity=0 time=10
10617	note_on channel=9 note=35 velocity=0 time=0
10618	note_on channel=9 note=38 velocity=0 time=0
10619	note_on channel=9 note=37 velocity=0 time=0
10620	note_on channel=9 note=38 velocity=93 time=5
10621	note_on channel=9 note=38 velocity=0 time=9
10622	note_on channel=9 note=35 velocity=127 time=6
10623	note_on channel=9 note=82 velocity=88 time=0
10624	note_on channel=9 note=27 velocity=119 time=0
10625	note_on channel=9 note=27 velocity=0 time=10
10626	note_on channel=9 note=82 velocity=0 time=0
10627	note_on channel=9 note=35 velocity=0 time=0
10628	note_on channel=9 note=38 velocity=67 time=20
10629	note_on channel=9 note=38 velocity=0 time=11
10630	note_on channel=9 note=35 velocity=127 time=19
10631	note_on channel=9 note=38 velocity=85 time=0
10632	note_on channel=9 note=82 velocity=90 time=0
10633	note_on channel=9 note=37 velocity=127 time=0
10634	note_on channel=9 note=27 velocity=119 time=0
10635	note_on channel=9 note=27 velocity=0 time=10
10636	note_on channel=9 note=82 velocity=0 time=0
10637	note_on channel=9 note=35 velocity=0 time=0
10638	note_on channel=9 note=38 velocity=0 time=0
10639	note_on channel=9 note=37 velocity=0 time=0
10640	note_on channel=9 note=35 velocity=127 time=50
10641	note_on channel=9 note=82 velocity=67 time=0
10642	note_on channel=9 note=27 velocity=119 time=0
10643	note_on channel=9 note=27 velocity=0 time=10
10644	note_on channel=9 note=82 velocity=0 time=0
10645	note_on channel=9 note=35 velocity=0 time=0
10646	note_on channel=9 note=35 velocity=127 time=20
10647	note_on channel=9 note=27 velocity=119 time=0
10648	note_on channel=9 note=27 velocity=0 time=10
10649	note_on channel=9 note=35 velocity=0 time=0
10650	
10651	note_on channel=1 note=30 velocity=112 time=0
10652	note_on channel=8 note=66 velocity=61 time=0
10653	note_on channel=8 note=69 velocity=61 time=0
10654	note_on channel=8 note=73 velocity=61 time=0
10655	note_on channel=9 note=36 velocity=127 time=0
10656	note_on channel=9 note=35 velocity=127 time=0
10657	note_on channel=9 note=82 velocity=108 time=0
10658	note_on channel=9 note=55 velocity=110 time=0
10659	note_on channel=9 note=27 velocity=119 time=0
10660	note_on channel=10 note=73 velocity=90 time=0
10661	note_on channel=9 note=27 velocity=0 time=10
10662	note_on channel=9 note=55 velocity=0 time=0
10663	note_on channel=9 note=82 velocity=0 time=0
10664	note_on channel=9 note=35 velocity=0 time=0
10665	note_on channel=9 note=36 velocity=0 time=0
10666	note_on channel=9 note=35 velocity=127 time=20
10667	note_on channel=9 note=27 velocity=119 time=0
10668	note_on channel=9 note=27 velocity=0 time=10
10669	note_on channel=9 note=35 velocity=0 time=0
10670	note_on channel=9 note=82 velocity=90 time=20
10671	note_on channel=9 note=82 velocity=0 time=10
10672	note_on channel=1 note=30 velocity=0 time=20
10673	note_on channel=9 note=35 velocity=127 time=0
10674	note_on channel=9 note=27 velocity=119 time=0
10675	note_on channel=9 note=27 velocity=0 time=10
10676	note_on channel=9 note=35 velocity=0 time=0
10677	note_on channel=9 note=35 velocity=127 time=20
10678	note_on channel=9 note=82 velocity=88 time=0
10679	note_on channel=9 note=27 velocity=119 time=0
10680	note_on channel=9 note=27 velocity=0 time=10
10681	note_on channel=9 note=35 velocity=0 time=0
10682	note_on channel=9 note=82 velocity=0 time=0
10683	note_on channel=9 note=35 velocity=127 time=20
10684	note_on channel=9 note=27 velocity=119 time=0
10685	note_on channel=9 note=27 velocity=0 time=10
10686	note_on channel=9 note=35 velocity=0 time=0
10687	note_on channel=9 note=35 velocity=127 time=20
10688	note_on channel=9 note=38 velocity=88 time=0
10689	note_on channel=9 note=82 velocity=67 time=0
10690	note_on channel=9 note=37 velocity=127 time=0
10691	note_on channel=9 note=27 velocity=119 time=0
10692	note_on channel=9 note=27 velocity=0 time=10
10693	note_on channel=9 note=37 velocity=0 time=0
10694	note_on channel=9 note=82 velocity=0 time=0
10695	note_on channel=9 note=35 velocity=0 time=0
10696	note_on channel=9 note=38 velocity=0 time=0
10697	note_on channel=9 note=35 velocity=127 time=20
10698	note_on channel=9 note=27 velocity=119 time=0
10699	note_on channel=9 note=27 velocity=0 time=10
10700	note_on channel=9 note=35 velocity=0 time=0
10701	note_on channel=1 note=28 velocity=110 time=20
10702	note_on channel=9 note=35 velocity=127 time=0
10703	note_on channel=9 note=82 velocity=109 time=0
10704	note_on channel=9 note=27 velocity=119 time=0
10705	note_on channel=9 note=27 velocity=0 time=10
10706	note_on channel=9 note=82 velocity=0 time=0
10707	note_on channel=9 note=35 velocity=0 time=0
10708	note_on channel=9 note=35 velocity=127 time=20
10709	note_on channel=9 note=38 velocity=87 time=0
10710	note_on channel=9 note=37 velocity=127 time=0
10711	note_on channel=9 note=27 velocity=119 time=0
10712	note_on channel=9 note=27 velocity=0 time=10
10713	note_on channel=9 note=37 velocity=0 time=0
10714	note_on channel=9 note=38 velocity=0 time=0
10715	note_on channel=9 note=35 velocity=0 time=0
10716	note_on channel=9 note=35 velocity=127 time=20
10717	note_on channel=9 note=82 velocity=88 time=0
10718	note_on channel=9 note=27 velocity=119 time=0
10719	note_on channel=9 note=27 velocity=0 time=10
10720	note_on channel=9 note=82 velocity=0 time=0
10721	note_on channel=9 note=35 velocity=0 time=0
10722	note_on channel=1 note=28 velocity=0 time=40
10723	note_on channel=1 note=30 velocity=88 time=10
10724	note_on channel=9 note=35 velocity=127 time=0
10725	note_on channel=9 note=38 velocity=86 time=0
10726	note_on channel=9 note=82 velocity=90 time=0
10727	note_on channel=9 note=37 velocity=127 time=0
10728	note_on channel=9 note=27 velocity=119 time=0
10729	note_on channel=9 note=27 velocity=0 time=10
10730	note_on channel=9 note=37 velocity=0 time=0
10731	note_on channel=9 note=38 velocity=0 time=0
10732	note_on channel=9 note=82 velocity=0 time=0
10733	note_on channel=9 note=35 velocity=0 time=0
10734	note_on channel=9 note=35 velocity=127 time=50
10735	note_on channel=9 note=82 velocity=67 time=0
10736	note_on channel=9 note=27 velocity=119 time=0
10737	note_on channel=9 note=27 velocity=0 time=10
10738	note_on channel=9 note=82 velocity=0 time=0
10739	note_on channel=9 note=35 velocity=0 time=0
10740	note_on channel=1 note=30 velocity=0 time=20
10741	note_on channel=9 note=35 velocity=127 time=0
10742	note_on channel=9 note=27 velocity=119 time=0
10743	note_on channel=9 note=27 velocity=0 time=10
10744	note_on channel=9 note=35 velocity=0 time=0
10745	note_on channel=10 note=73 velocity=0 time=14
10746	note_on channel=8 note=69 velocity=0 time=2
10747	note_on channel=8 note=73 velocity=0 time=1
10748	note_on channel=8 note=66 velocity=0 time=0
10749	note_on channel=1 note=35 velocity=110 time=3
10750	note_on channel=8 note=66 velocity=59 time=0
10751	note_on channel=8 note=71 velocity=59 time=0
10752	note_on channel=8 note=74 velocity=59 time=0
10753	note_on channel=9 note=36 velocity=127 time=0
10754	note_on channel=9 note=35 velocity=127 time=0
10755	note_on channel=9 note=82 velocity=108 time=0
10756	note_on channel=9 note=27 velocity=119 time=0
10757	note_on channel=9 note=27 velocity=0 time=10
10758	note_on channel=9 note=82 velocity=0 time=0
10759	note_on channel=9 note=36 velocity=0 time=0
10760	note_on channel=1 note=35 velocity=0 time=0
10761	note_on channel=9 note=35 velocity=0 time=0
10762	note_on channel=1 note=37 velocity=71 time=20
10763	note_on channel=9 note=35 velocity=127 time=0
10764	note_on channel=9 note=27 velocity=119 time=0
10765	note_on channel=9 note=27 velocity=0 time=10
10766	note_on channel=1 note=37 velocity=0 time=0
10767	note_on channel=9 note=35 velocity=0 time=0
10768	
10769	note_on channel=1 note=45 velocity=92 time=0
10770	note_on channel=9 note=82 velocity=90 time=0
10771	note_on channel=10 note=71 velocity=90 time=0
10772	note_on channel=9 note=82 velocity=0 time=10
10773	note_on channel=1 note=45 velocity=0 time=20
10774	note_on channel=9 note=35 velocity=127 time=0
10775	note_on channel=9 note=27 velocity=119 time=0
10776	note_on channel=9 note=27 velocity=0 time=10
10777	note_on channel=9 note=35 velocity=0 time=0
10778	note_on channel=10 note=71 velocity=0 time=16
10779	note_on channel=1 note=43 velocity=92 time=4
10780	note_on channel=9 note=35 velocity=127 time=0
10781	note_on channel=9 note=82 velocity=88 time=0
10782	note_on channel=9 note=27 velocity=119 time=0
10783	
10784	note_on channel=10 note=71 velocity=90 time=0
10785	note_on channel=9 note=27 velocity=0 time=8
10786	note_on channel=9 note=82 velocity=0 time=0
10787	note_on channel=9 note=35 velocity=0 time=0
10788	note_on channel=1 note=43 velocity=0 time=10
10789	note_on channel=1 note=45 velocity=91 time=10
10790	note_on channel=9 note=35 velocity=127 time=0
10791	note_on channel=9 note=27 velocity=119 time=0
10792	note_on channel=9 note=27 velocity=0 time=10
10793	note_on channel=9 note=35 velocity=0 time=0
10794	note_on channel=10 note=71 velocity=0 time=16
10795	
10796	note_on channel=1 note=45 velocity=0 time=0
10797	note_on channel=1 note=35 velocity=92 time=0
10798	note_on channel=9 note=35 velocity=127 time=0
10799	note_on channel=9 note=38 velocity=88 time=0
10800	note_on channel=9 note=82 velocity=67 time=0
10801	note_on channel=9 note=37 velocity=127 time=0
10802	note_on channel=9 note=27 velocity=119 time=0
10803	note_on channel=10 note=71 velocity=90 time=0
10804	note_on channel=9 note=27 velocity=0 time=10
10805	note_on channel=9 note=37 velocity=0 time=0
10806	note_on channel=9 note=82 velocity=0 time=0
10807	note_on channel=1 note=35 velocity=0 time=0
10808	note_on channel=9 note=35 velocity=0 time=0
10809	note_on channel=9 note=38 velocity=0 time=0
10810	note_on channel=10 note=71 velocity=0 time=18
10811	
10812	note_on channel=1 note=35 velocity=110 time=0
10813	note_on channel=9 note=35 velocity=127 time=0
10814	note_on channel=9 note=27 velocity=119 time=0
10815	note_on channel=10 note=71 velocity=90 time=0
10816	note_on channel=9 note=27 velocity=0 time=10
10817	note_on channel=9 note=35 velocity=0 time=0
10818	note_on channel=10 note=71 velocity=0 time=14
10819	
10820	note_on channel=9 note=35 velocity=127 time=0
10821	note_on channel=9 note=82 velocity=109 time=0
10822	note_on channel=9 note=27 velocity=119 time=0
10823	note_on channel=10 note=71 velocity=90 time=0
10824	note_on channel=9 note=27 velocity=0 time=10
10825	note_on channel=9 note=82 velocity=0 time=0
10826	note_on channel=9 note=35 velocity=0 time=0
10827	note_on channel=1 note=35 velocity=0 time=20
10828	note_on channel=1 note=35 velocity=91 time=0
10829	note_on channel=9 note=35 velocity=127 time=0
10830	note_on channel=9 note=38 velocity=87 time=0
10831	note_on channel=9 note=37 velocity=127 time=0
10832	note_on channel=9 note=27 velocity=119 time=0
10833	note_on channel=9 note=27 velocity=0 time=10
10834	note_on channel=9 note=37 velocity=0 time=0
10835	note_on channel=9 note=38 velocity=0 time=0
10836	note_on channel=9 note=35 velocity=0 time=0
10837	note_on channel=1 note=35 velocity=0 time=10
10838	note_on channel=10 note=71 velocity=0 time=4
10839	
10840	note_on channel=9 note=35 velocity=127 time=0
10841	note_on channel=9 note=82 velocity=88 time=0
10842	note_on channel=9 note=27 velocity=119 time=0
10843	note_on channel=10 note=71 velocity=90 time=0
10844	note_on channel=9 note=27 velocity=0 time=10
10845	note_on channel=9 note=35 velocity=0 time=0
10846	note_on channel=9 note=82 velocity=0 time=0
10847	note_on channel=10 note=71 velocity=0 time=46
10848	
10849	note_on channel=1 note=28 velocity=91 time=0
10850	note_on channel=9 note=35 velocity=127 time=0
10851	note_on channel=9 note=38 velocity=86 time=0
10852	note_on channel=9 note=82 velocity=90 time=0
10853	note_on channel=9 note=37 velocity=127 time=0
10854	note_on channel=9 note=27 velocity=119 time=0
10855	note_on channel=10 note=71 velocity=90 time=0
10856	note_on channel=9 note=27 velocity=0 time=10
10857	note_on channel=9 note=37 velocity=0 time=0
10858	note_on channel=9 note=82 velocity=0 time=0
10859	note_on channel=9 note=38 velocity=0 time=0
10860	note_on channel=9 note=35 velocity=0 time=0
10861	note_on channel=10 note=71 velocity=0 time=40
10862	
10863	note_on channel=9 note=35 velocity=127 time=0
10864	note_on channel=9 note=82 velocity=67 time=0
10865	note_on channel=9 note=27 velocity=119 time=0
10866	note_on channel=10 note=71 velocity=90 time=0
10867	note_on channel=9 note=27 velocity=0 time=10
10868	note_on channel=9 note=82 velocity=0 time=0
10869	note_on channel=9 note=35 velocity=0 time=0
10870	note_on channel=9 note=35 velocity=127 time=20
10871	note_on channel=9 note=27 velocity=119 time=0
10872	note_on channel=9 note=27 velocity=0 time=10
10873	note_on channel=9 note=35 velocity=0 time=0
10874	note_on channel=10 note=71 velocity=0 time=14
10875	note_on channel=8 note=71 velocity=0 time=2
10876	note_on channel=8 note=74 velocity=0 time=0
10877	note_on channel=8 note=66 velocity=0 time=1
10878	note_on channel=1 note=28 velocity=0 time=3
10879	note_on channel=1 note=30 velocity=110 time=0
10880	note_on channel=8 note=66 velocity=59 time=0
10881	note_on channel=8 note=69 velocity=59 time=0
10882	note_on channel=8 note=73 velocity=59 time=0
10883	note_on channel=9 note=36 velocity=127 time=0
10884	note_on channel=9 note=35 velocity=127 time=0
10885	note_on channel=9 note=82 velocity=108 time=0
10886	note_on channel=9 note=27 velocity=119 time=0
10887	note_on channel=9 note=27 velocity=0 time=10
10888	note_on channel=9 note=82 velocity=0 time=0
10889	note_on channel=9 note=36 velocity=0 time=0
10890	note_on channel=9 note=35 velocity=0 time=0
10891	note_on channel=9 note=35 velocity=127 time=20
10892	note_on channel=9 note=27 velocity=119 time=0
10893	note_on channel=9 note=27 velocity=0 time=10
10894	note_on channel=9 note=35 velocity=0 time=0
10895	note_on channel=1 note=30 velocity=0 time=10
10896	
10897	note_on channel=1 note=30 velocity=88 time=0
10898	note_on channel=9 note=82 velocity=90 time=0
10899	note_on channel=10 note=69 velocity=90 time=0
10900	note_on channel=9 note=82 velocity=0 time=10
10901	note_on channel=10 note=69 velocity=0 time=19
10902	note_on channel=9 note=35 velocity=127 time=1
10903	note_on channel=9 note=27 velocity=119 time=0
10904	note_on channel=10 note=69 velocity=90 time=0
10905	note_on channel=9 note=27 velocity=0 time=10
10906	note_on channel=9 note=35 velocity=0 time=0
10907	note_on channel=9 note=35 velocity=127 time=20
10908	note_on channel=9 note=82 velocity=88 time=0
10909	note_on channel=9 note=27 velocity=119 time=0
10910	note_on channel=9 note=27 velocity=0 time=10
10911	note_on channel=9 note=82 velocity=0 time=0
10912	note_on channel=9 note=35 velocity=0 time=0
10913	note_on channel=10 note=69 velocity=0 time=14
10914	
10915	note_on channel=1 note=30 velocity=0 time=0
10916	note_on channel=9 note=35 velocity=127 time=0
10917	note_on channel=9 note=27 velocity=119 time=0
10918	note_on channel=10 note=66 velocity=90 time=0
10919	note_on channel=9 note=27 velocity=0 time=10
10920	note_on channel=9 note=35 velocity=0 time=0
10921	note_on channel=9 note=35 velocity=127 time=20
10922	note_on channel=9 note=38 velocity=88 time=0
10923	note_on channel=9 note=82 velocity=67 time=0
10924	note_on channel=9 note=37 velocity=127 time=0
10925	note_on channel=9 note=27 velocity=119 time=0
10926	note_on channel=9 note=27 velocity=0 time=10
10927	note_on channel=9 note=37 velocity=0 time=0
10928	note_on channel=9 note=82 velocity=0 time=0
10929	note_on channel=9 note=35 velocity=0 time=0
10930	note_on channel=9 note=38 velocity=0 time=0
10931	note_on channel=10 note=66 velocity=0 time=12
10932	
10933	note_on channel=9 note=35 velocity=127 time=0
10934	note_on channel=9 note=27 velocity=119 time=0
10935	note_on channel=10 note=64 velocity=90 time=0
10936	note_on channel=9 note=27 velocity=0 time=10
10937	note_on channel=9 note=35 velocity=0 time=0
10938	
10939	note_on channel=1 note=30 velocity=109 time=0
10940	note_on channel=9 note=35 velocity=127 time=0
10941	note_on channel=9 note=82 velocity=109 time=0
10942	note_on channel=9 note=27 velocity=119 time=0
10943	note_on channel=10 note=66 velocity=90 time=0
10944	note_on channel=10 note=64 velocity=0 time=2
10945	note_on channel=9 note=27 velocity=0 time=8
10946	note_on channel=9 note=82 velocity=0 time=0
10947	note_on channel=9 note=35 velocity=0 time=0
10948	note_on channel=9 note=35 velocity=127 time=20
10949	note_on channel=9 note=38 velocity=87 time=0
10950	note_on channel=9 note=37 velocity=127 time=0
10951	note_on channel=9 note=27 velocity=119 time=0
10952	note_on channel=9 note=27 velocity=0 time=10
10953	note_on channel=9 note=37 velocity=0 time=0
10954	note_on channel=9 note=38 velocity=0 time=0
10955	note_on channel=9 note=35 velocity=0 time=0
10956	note_on channel=9 note=35 velocity=127 time=20
10957	note_on channel=9 note=82 velocity=88 time=0
10958	note_on channel=9 note=27 velocity=119 time=0
10959	note_on channel=9 note=27 velocity=0 time=10
10960	note_on channel=9 note=82 velocity=0 time=0
10961	note_on channel=9 note=35 velocity=0 time=0
10962	note_on channel=1 note=30 velocity=0 time=40
10963	note_on channel=10 note=66 velocity=0 time=0
10964	
10965	note_on channel=1 note=33 velocity=90 time=0
10966	note_on channel=9 note=35 velocity=127 time=0
10967	note_on channel=9 note=38 velocity=86 time=0
10968	note_on channel=9 note=82 velocity=90 time=0
10969	note_on channel=9 note=37 velocity=127 time=0
10970	note_on channel=9 note=27 velocity=119 time=0
10971	note_on channel=10 note=66 velocity=90 time=0
10972	note_on channel=9 note=27 velocity=0 time=10
10973	note_on channel=9 note=37 velocity=0 time=0
10974	note_on channel=9 note=82 velocity=0 time=0
10975	note_on channel=9 note=38 velocity=0 time=0
10976	note_on channel=9 note=35 velocity=0 time=0
10977	note_on channel=10 note=66 velocity=0 time=44
10978	
10979	note_on channel=9 note=35 velocity=127 time=0
10980	note_on channel=9 note=82 velocity=67 time=0
10981	note_on channel=9 note=27 velocity=119 time=0
10982	note_on channel=10 note=66 velocity=90 time=0
10983	note_on channel=9 note=27 velocity=0 time=10
10984	note_on channel=9 note=82 velocity=0 time=0
10985	note_on channel=9 note=35 velocity=0 time=0
10986	note_on channel=9 note=35 velocity=127 time=20
10987	note_on channel=9 note=27 velocity=119 time=0
10988	note_on channel=9 note=27 velocity=0 time=10
10989	note_on channel=9 note=35 velocity=0 time=0
10990	note_on channel=8 note=73 velocity=0 time=16
10991	note_on channel=8 note=69 velocity=0 time=0
10992	note_on channel=8 note=66 velocity=0 time=1
10993	
10994	note_on channel=1 note=33 velocity=0 time=0
10995	note_on channel=10 note=66 velocity=0 time=0
10996	note_on channel=1 note=35 velocity=109 time=0
10997	note_on channel=8 note=66 velocity=59 time=0
10998	note_on channel=8 note=71 velocity=59 time=0
10999	note_on channel=8 note=74 velocity=59 time=0
11000	note_on channel=9 note=36 velocity=127 time=0
11001	note_on channel=9 note=35 velocity=127 time=0
11002	note_on channel=9 note=82 velocity=108 time=0
11003	note_on channel=9 note=27 velocity=119 time=0
11004	note_on channel=10 note=69 velocity=90 time=0
11005	note_on channel=9 note=27 velocity=0 time=10
11006	note_on channel=9 note=82 velocity=0 time=0
11007	note_on channel=9 note=35 velocity=0 time=0
11008	note_on channel=9 note=36 velocity=0 time=0
11009	note_on channel=9 note=35 velocity=127 time=20
11010	note_on channel=9 note=27 velocity=119 time=0
11011	note_on channel=9 note=27 velocity=0 time=10
11012	note_on channel=9 note=35 velocity=0 time=0
11013	note_on channel=10 note=69 velocity=0 time=19
11014	note_on channel=1 note=35 velocity=0 time=1
11015	note_on channel=1 note=35 velocity=89 time=0
11016	note_on channel=9 note=82 velocity=90 time=0
11017	note_on channel=10 note=69 velocity=90 time=0
11018	note_on channel=9 note=82 velocity=0 time=10
11019	note_on channel=9 note=35 velocity=127 time=20
11020	note_on channel=9 note=27 velocity=119 time=0
11021	note_on channel=9 note=27 velocity=0 time=10
11022	note_on channel=9 note=35 velocity=0 time=0
11023	note_on channel=9 note=35 velocity=127 time=20
11024	note_on channel=9 note=82 velocity=88 time=0
11025	note_on channel=9 note=27 velocity=119 time=0
11026	note_on channel=9 note=27 velocity=0 time=10
11027	note_on channel=9 note=82 velocity=0 time=0
11028	note_on channel=9 note=35 velocity=0 time=0
11029	note_on channel=10 note=69 velocity=0 time=6
11030	
11031	note_on channel=1 note=35 velocity=0 time=0
11032	note_on channel=9 note=35 velocity=127 time=0
11033	note_on channel=9 note=27 velocity=119 time=0
11034	note_on channel=10 note=66 velocity=90 time=0
11035	note_on channel=9 note=27 velocity=0 time=10
11036	note_on channel=9 note=35 velocity=0 time=0
11037	note_on channel=1 note=35 velocity=108 time=20
11038	note_on channel=9 note=35 velocity=127 time=0
11039	note_on channel=9 note=38 velocity=88 time=0
11040	note_on channel=9 note=82 velocity=67 time=0
11041	note_on channel=9 note=37 velocity=127 time=0
11042	note_on channel=9 note=27 velocity=119 time=0
11043	note_on channel=9 note=27 velocity=0 time=10
11044	note_on channel=9 note=37 velocity=0 time=0
11045	note_on channel=9 note=38 velocity=0 time=0
11046	note_on channel=9 note=82 velocity=0 time=0
11047	note_on channel=9 note=35 velocity=0 time=0
11048	note_on channel=10 note=66 velocity=0 time=16
11049	
11050	note_on channel=9 note=35 velocity=127 time=0
11051	note_on channel=9 note=27 velocity=119 time=0
11052	note_on channel=10 note=64 velocity=90 time=0
11053	note_on channel=9 note=27 velocity=0 time=10
11054	note_on channel=9 note=35 velocity=0 time=0
11055	note_on channel=8 note=66 velocity=0 time=17
11056	note_on channel=8 note=71 velocity=0 time=0
11057	note_on channel=8 note=74 velocity=0 time=0
11058	
11059	note_on channel=1 note=35 velocity=0 time=0
11060	note_on channel=1 note=30 velocity=100 time=0
11061	note_on channel=8 note=66 velocity=56 time=0
11062	note_on channel=8 note=69 velocity=56 time=0
11063	note_on channel=8 note=73 velocity=56 time=0
11064	note_on channel=9 note=35 velocity=127 time=0
11065	note_on channel=9 note=82 velocity=109 time=0
11066	note_on channel=9 note=27 velocity=119 time=0
11067	note_on channel=10 note=66 velocity=90 time=0
11068	note_on channel=10 note=64 velocity=0 time=2
11069	note_on channel=9 note=27 velocity=0 time=8
11070	note_on channel=9 note=82 velocity=0 time=0
11071	note_on channel=9 note=35 velocity=0 time=0
11072	note_on channel=9 note=35 velocity=127 time=20
11073	note_on channel=9 note=38 velocity=87 time=0
11074	note_on channel=9 note=37 velocity=127 time=0
11075	note_on channel=9 note=27 velocity=119 time=0
11076	note_on channel=9 note=27 velocity=0 time=10
11077	note_on channel=9 note=37 velocity=0 time=0
11078	note_on channel=9 note=38 velocity=0 time=0
11079	note_on channel=9 note=35 velocity=0 time=0
11080	note_on channel=9 note=35 velocity=127 time=20
11081	note_on channel=9 note=82 velocity=88 time=0
11082	note_on channel=9 note=27 velocity=119 time=0
11083	note_on channel=9 note=27 velocity=0 time=10
11084	note_on channel=9 note=82 velocity=0 time=0
11085	note_on channel=9 note=35 velocity=0 time=0
11086	note_on channel=6 note=66 velocity=90 time=20
11087	note_on channel=9 note=35 velocity=127 time=30
11088	note_on channel=9 note=38 velocity=86 time=0
11089	note_on channel=9 note=82 velocity=90 time=0
11090	note_on channel=9 note=37 velocity=127 time=0
11091	note_on channel=9 note=27 velocity=119 time=0
11092	note_on channel=9 note=27 velocity=0 time=10
11093	note_on channel=9 note=38 velocity=0 time=0
11094	note_on channel=9 note=37 velocity=0 time=0
11095	note_on channel=9 note=35 velocity=0 time=0
11096	note_on channel=9 note=82 velocity=0 time=0
11097	note_on channel=6 note=66 velocity=0 time=14
11098	note_on channel=6 note=66 velocity=90 time=6
11099	note_on channel=6 note=66 velocity=0 time=28
11100	note_on channel=6 note=66 velocity=90 time=2
11101	note_on channel=9 note=35 velocity=127 time=0
11102	note_on channel=9 note=82 velocity=67 time=0
11103	note_on channel=9 note=27 velocity=119 time=0
11104	note_on channel=10 note=66 velocity=0 time=2
11105	note_on channel=9 note=27 velocity=0 time=8
11106	note_on channel=9 note=82 velocity=0 time=0
11107	note_on channel=9 note=35 velocity=0 time=0
11108	note_on channel=9 note=35 velocity=127 time=20
11109	note_on channel=9 note=27 velocity=119 time=0
11110	note_on channel=9 note=27 velocity=0 time=10
11111	note_on channel=9 note=35 velocity=0 time=0
11112	note_on channel=6 note=66 velocity=0 time=12
11113	note_on channel=8 note=73 velocity=0 time=4
11114	note_on channel=8 note=69 velocity=0 time=2
11115	note_on channel=8 note=66 velocity=0 time=0
11116	note_on channel=1 note=30 velocity=0 time=2
11117	note_on channel=1 note=42 velocity=109 time=0
11118	note_on channel=6 note=68 velocity=90 time=0
11119	note_on channel=8 note=66 velocity=60 time=0
11120	note_on channel=8 note=69 velocity=60 time=0
11121	note_on channel=8 note=73 velocity=60 time=0
11122	note_on channel=9 note=36 velocity=127 time=0
11123	note_on channel=9 note=35 velocity=127 time=0
11124	note_on channel=9 note=82 velocity=108 time=0
11125	note_on channel=9 note=27 velocity=119 time=0
11126	pitchwheel channel=6 pitch=0 time=6
11127	pitchwheel channel=6 pitch=128 time=2
11128	note_on channel=9 note=27 velocity=0 time=2
11129	note_on channel=9 note=82 velocity=0 time=0
11130	note_on channel=9 note=35 velocity=0 time=0
11131	note_on channel=9 note=36 velocity=0 time=0
11132	pitchwheel channel=6 pitch=1280 time=0
11133	pitchwheel channel=6 pitch=1536 time=2
11134	pitchwheel channel=6 pitch=1792 time=2
11135	pitchwheel channel=6 pitch=2816 time=2
11136	pitchwheel channel=6 pitch=3712 time=2
11137	note_on channel=9 note=35 velocity=127 time=12
11138	note_on channel=9 note=27 velocity=119 time=0
11139	note_on channel=9 note=27 velocity=0 time=10
11140	note_on channel=9 note=35 velocity=0 time=0
11141	note_on channel=6 note=68 velocity=0 time=19
11142	note_on channel=1 note=42 velocity=0 time=1
11143	note_on channel=1 note=40 velocity=69 time=0
11144	note_on channel=6 note=68 velocity=90 time=0
11145	note_on channel=9 note=82 velocity=90 time=0
11146	pitchwheel channel=6 pitch=-128 time=6
11147	pitchwheel channel=6 pitch=256 time=2
11148	note_on channel=9 note=82 velocity=0 time=2
11149	note_on channel=1 note=40 velocity=0 time=0
11150	pitchwheel channel=6 pitch=3840 time=2
11151	note_on channel=1 note=38 velocity=92 time=18
11152	note_on channel=9 note=35 velocity=127 time=0
11153	note_on channel=9 note=27 velocity=119 time=0
11154	note_on channel=9 note=27 velocity=0 time=10
11155	note_on channel=1 note=38 velocity=0 time=0
11156	note_on channel=9 note=35 velocity=0 time=0
11157	note_on channel=1 note=37 velocity=70 time=20
11158	note_on channel=9 note=35 velocity=127 time=0
11159	note_on channel=9 note=82 velocity=88 time=0
11160	note_on channel=9 note=27 velocity=119 time=0
11161	note_on channel=9 note=27 velocity=0 time=10
11162	note_on channel=9 note=82 velocity=0 time=0
11163	note_on channel=1 note=37 velocity=0 time=0
11164	note_on channel=9 note=35 velocity=0 time=0
11165	note_on channel=6 note=68 velocity=0 time=12
11166	note_on channel=6 note=66 velocity=90 time=8
11167	note_on channel=9 note=35 velocity=127 time=0
11168	note_on channel=9 note=27 velocity=119 time=0
11169	pitchwheel channel=6 pitch=0 time=4
11170	note_on channel=9 note=27 velocity=0 time=6
11171	note_on channel=9 note=35 velocity=0 time=0
11172	note_on channel=1 note=42 velocity=111 time=20
11173	note_on channel=9 note=35 velocity=127 time=0
11174	note_on channel=9 note=38 velocity=88 time=0
11175	note_on channel=9 note=82 velocity=67 time=0
11176	note_on channel=9 note=37 velocity=127 time=0
11177	note_on channel=9 note=27 velocity=119 time=0
11178	note_on channel=9 note=27 velocity=0 time=10
11179	note_on channel=9 note=37 velocity=0 time=0
11180	note_on channel=9 note=38 velocity=0 time=0
11181	note_on channel=9 note=82 velocity=0 time=0
11182	note_on channel=9 note=35 velocity=0 time=0
11183	note_on channel=6 note=66 velocity=0 time=18
11184	note_on channel=6 note=64 velocity=90 time=2
11185	note_on channel=9 note=35 velocity=127 time=0
11186	note_on channel=9 note=27 velocity=119 time=0
11187	note_on channel=9 note=27 velocity=0 time=10
11188	note_on channel=9 note=35 velocity=0 time=0
11189	note_on channel=6 note=64 velocity=0 time=18
11190	note_on channel=1 note=42 velocity=0 time=2
11191	note_on channel=1 note=40 velocity=70 time=0
11192	note_on channel=6 note=66 velocity=90 time=0
11193	note_on channel=9 note=35 velocity=127 time=0
11194	note_on channel=9 note=82 velocity=109 time=0
11195	note_on channel=9 note=27 velocity=119 time=0
11196	note_on channel=9 note=27 velocity=0 time=10
11197	note_on channel=9 note=82 velocity=0 time=0
11198	note_on channel=1 note=40 velocity=0 time=0
11199	note_on channel=9 note=35 velocity=0 time=0
11200	note_on channel=1 note=38 velocity=70 time=20
11201	note_on channel=9 note=35 velocity=127 time=0
11202	note_on channel=9 note=38 velocity=87 time=0
11203	note_on channel=9 note=37 velocity=127 time=0
11204	note_on channel=9 note=27 velocity=119 time=0
11205	note_on channel=9 note=27 velocity=0 time=10
11206	note_on channel=9 note=37 velocity=0 time=0
11207	note_on channel=9 note=38 velocity=0 time=0
11208	note_on channel=1 note=38 velocity=0 time=0
11209	note_on channel=9 note=35 velocity=0 time=0
11210	note_on channel=6 note=66 velocity=0 time=18
11211	note_on channel=1 note=40 velocity=89 time=2
11212	note_on channel=9 note=35 velocity=127 time=0
11213	note_on channel=9 note=82 velocity=88 time=0
11214	note_on channel=9 note=27 velocity=119 time=0
11215	note_on channel=9 note=27 velocity=0 time=10
11216	note_on channel=9 note=35 velocity=0 time=0
11217	note_on channel=9 note=82 velocity=0 time=0
11218	note_on channel=1 note=40 velocity=0 time=10
11219	note_on channel=1 note=38 velocity=92 time=10
11220	note_on channel=6 note=73 velocity=90 time=0
11221	note_on channel=6 note=66 velocity=90 time=0
11222	note_on channel=1 note=38 velocity=0 time=30
11223	note_on channel=1 note=37 velocity=70 time=0
11224	note_on channel=9 note=35 velocity=127 time=0
11225	note_on channel=9 note=38 velocity=86 time=0
11226	note_on channel=9 note=82 velocity=90 time=0
11227	note_on channel=9 note=37 velocity=127 time=0
11228	note_on channel=9 note=27 velocity=119 time=0
11229	note_on channel=9 note=27 velocity=0 time=10
11230	note_on channel=9 note=38 velocity=0 time=0
11231	note_on channel=9 note=37 velocity=0 time=0
11232	note_on channel=9 note=35 velocity=0 time=0
11233	note_on channel=9 note=82 velocity=0 time=0
11234	note_on channel=1 note=37 velocity=0 time=0
11235	note_on channel=6 note=66 velocity=0 time=18
11236	note_on channel=6 note=73 velocity=0 time=1
11237	note_on channel=1 note=35 velocity=72 time=1
11238	note_on channel=6 note=73 velocity=90 time=0
11239	note_on channel=6 note=66 velocity=90 time=0
11240	note_on channel=1 note=35 velocity=0 time=10
11241	note_on channel=6 note=73 velocity=0 time=19
11242	note_on channel=6 note=66 velocity=0 time=0
11243	note_on channel=1 note=52 velocity=91 time=1
11244	note_on channel=6 note=73 velocity=90 time=0
11245	note_on channel=6 note=66 velocity=90 time=0
11246	note_on channel=9 note=35 velocity=127 time=0
11247	note_on channel=9 note=82 velocity=67 time=0
11248	note_on channel=9 note=27 velocity=119 time=0
11249	note_on channel=9 note=27 velocity=0 time=10
11250	note_on channel=9 note=82 velocity=0 time=0
11251	note_on channel=9 note=35 velocity=0 time=0
11252	note_on channel=1 note=52 velocity=0 time=20
11253	note_on channel=1 note=37 velocity=89 time=0
11254	note_on channel=9 note=35 velocity=127 time=0
11255	note_on channel=9 note=27 velocity=119 time=0
11256	note_on channel=9 note=27 velocity=0 time=10
11257	note_on channel=9 note=35 velocity=0 time=0
11258	note_on channel=1 note=37 velocity=0 time=10
11259	note_on channel=8 note=73 velocity=0 time=6
11260	note_on channel=8 note=66 velocity=0 time=0
11261	note_on channel=6 note=73 velocity=0 time=0
11262	note_on channel=8 note=69 velocity=0 time=1
11263	note_on channel=6 note=66 velocity=0 time=1
11264	
11265	note_on channel=1 note=30 velocity=112 time=0
11266	note_on channel=8 note=66 velocity=61 time=0
11267	note_on channel=8 note=69 velocity=61 time=0
11268	note_on channel=8 note=73 velocity=61 time=0
11269	note_on channel=9 note=36 velocity=127 time=0
11270	note_on channel=9 note=35 velocity=127 time=0
11271	note_on channel=9 note=82 velocity=108 time=0
11272	note_on channel=9 note=55 velocity=110 time=0
11273	note_on channel=9 note=27 velocity=119 time=0
11274	note_on channel=10 note=73 velocity=90 time=0
11275	note_on channel=9 note=27 velocity=0 time=10
11276	note_on channel=9 note=55 velocity=0 time=0
11277	note_on channel=9 note=82 velocity=0 time=0
11278	note_on channel=9 note=35 velocity=0 time=0
11279	note_on channel=9 note=36 velocity=0 time=0
11280	note_on channel=9 note=35 velocity=127 time=20
11281	note_on channel=9 note=27 velocity=119 time=0
11282	note_on channel=9 note=27 velocity=0 time=10
11283	note_on channel=9 note=35 velocity=0 time=0
11284	note_on channel=9 note=82 velocity=90 time=20
11285	note_on channel=9 note=82 velocity=0 time=10
11286	note_on channel=1 note=30 velocity=0 time=20
11287	note_on channel=9 note=35 velocity=127 time=0
11288	note_on channel=9 note=27 velocity=119 time=0
11289	note_on channel=9 note=27 velocity=0 time=10
11290	note_on channel=9 note=35 velocity=0 time=0
11291	note_on channel=9 note=35 velocity=127 time=20
11292	note_on channel=9 note=82 velocity=88 time=0
11293	note_on channel=9 note=27 velocity=119 time=0
11294	note_on channel=9 note=27 velocity=0 time=10
11295	note_on channel=9 note=35 velocity=0 time=0
11296	note_on channel=9 note=82 velocity=0 time=0
11297	note_on channel=9 note=35 velocity=127 time=20
11298	note_on channel=9 note=27 velocity=119 time=0
11299	note_on channel=9 note=27 velocity=0 time=10
11300	note_on channel=9 note=35 velocity=0 time=0
11301	note_on channel=9 note=35 velocity=127 time=20
11302	note_on channel=9 note=38 velocity=88 time=0
11303	note_on channel=9 note=82 velocity=67 time=0
11304	note_on channel=9 note=37 velocity=127 time=0
11305	note_on channel=9 note=27 velocity=119 time=0
11306	note_on channel=9 note=27 velocity=0 time=10
11307	note_on channel=9 note=37 velocity=0 time=0
11308	note_on channel=9 note=82 velocity=0 time=0
11309	note_on channel=9 note=35 velocity=0 time=0
11310	note_on channel=9 note=38 velocity=0 time=0
11311	note_on channel=9 note=35 velocity=127 time=20
11312	note_on channel=9 note=27 velocity=119 time=0
11313	note_on channel=9 note=27 velocity=0 time=10
11314	note_on channel=9 note=35 velocity=0 time=0
11315	note_on channel=1 note=28 velocity=110 time=20
11316	note_on channel=9 note=35 velocity=127 time=0
11317	note_on channel=9 note=82 velocity=109 time=0
11318	note_on channel=9 note=27 velocity=119 time=0
11319	note_on channel=9 note=27 velocity=0 time=10
11320	note_on channel=9 note=82 velocity=0 time=0
11321	note_on channel=9 note=35 velocity=0 time=0
11322	note_on channel=9 note=35 velocity=127 time=20
11323	note_on channel=9 note=38 velocity=87 time=0
11324	note_on channel=9 note=37 velocity=127 time=0
11325	note_on channel=9 note=27 velocity=119 time=0
11326	note_on channel=9 note=27 velocity=0 time=10
11327	note_on channel=9 note=37 velocity=0 time=0
11328	note_on channel=9 note=38 velocity=0 time=0
11329	note_on channel=9 note=35 velocity=0 time=0
11330	note_on channel=9 note=35 velocity=127 time=20
11331	note_on channel=9 note=82 velocity=88 time=0
11332	note_on channel=9 note=27 velocity=119 time=0
11333	note_on channel=9 note=27 velocity=0 time=10
11334	note_on channel=9 note=82 velocity=0 time=0
11335	note_on channel=9 note=35 velocity=0 time=0
11336	note_on channel=1 note=28 velocity=0 time=40
11337	note_on channel=1 note=30 velocity=88 time=10
11338	note_on channel=9 note=35 velocity=127 time=0
11339	note_on channel=9 note=38 velocity=86 time=0
11340	note_on channel=9 note=82 velocity=90 time=0
11341	note_on channel=9 note=37 velocity=127 time=0
11342	note_on channel=9 note=27 velocity=119 time=0
11343	note_on channel=9 note=27 velocity=0 time=10
11344	note_on channel=9 note=37 velocity=0 time=0
11345	note_on channel=9 note=38 velocity=0 time=0
11346	note_on channel=9 note=82 velocity=0 time=0
11347	note_on channel=9 note=35 velocity=0 time=0
11348	note_on channel=9 note=35 velocity=127 time=50
11349	note_on channel=9 note=82 velocity=67 time=0
11350	note_on channel=9 note=27 velocity=119 time=0
11351	note_on channel=9 note=27 velocity=0 time=10
11352	note_on channel=9 note=82 velocity=0 time=0
11353	note_on channel=9 note=35 velocity=0 time=0
11354	note_on channel=1 note=30 velocity=0 time=20
11355	note_on channel=9 note=35 velocity=127 time=0
11356	note_on channel=9 note=27 velocity=119 time=0
11357	note_on channel=9 note=27 velocity=0 time=10
11358	note_on channel=9 note=35 velocity=0 time=0
11359	note_on channel=10 note=73 velocity=0 time=14
11360	note_on channel=8 note=69 velocity=0 time=2
11361	note_on channel=8 note=73 velocity=0 time=1
11362	note_on channel=8 note=66 velocity=0 time=0
11363	note_on channel=1 note=35 velocity=110 time=3
11364	note_on channel=8 note=66 velocity=59 time=0
11365	note_on channel=8 note=71 velocity=59 time=0
11366	note_on channel=8 note=74 velocity=59 time=0
11367	note_on channel=9 note=36 velocity=127 time=0
11368	note_on channel=9 note=35 velocity=127 time=0
11369	note_on channel=9 note=82 velocity=108 time=0
11370	note_on channel=9 note=27 velocity=119 time=0
11371	note_on channel=9 note=27 velocity=0 time=10
11372	note_on channel=9 note=82 velocity=0 time=0
11373	note_on channel=9 note=36 velocity=0 time=0
11374	note_on channel=1 note=35 velocity=0 time=0
11375	note_on channel=9 note=35 velocity=0 time=0
11376	note_on channel=1 note=37 velocity=71 time=20
11377	note_on channel=9 note=35 velocity=127 time=0
11378	note_on channel=9 note=27 velocity=119 time=0
11379	note_on channel=9 note=27 velocity=0 time=10
11380	note_on channel=1 note=37 velocity=0 time=0
11381	note_on channel=9 note=35 velocity=0 time=0
11382	
11383	note_on channel=1 note=45 velocity=92 time=0
11384	note_on channel=9 note=82 velocity=90 time=0
11385	note_on channel=10 note=71 velocity=90 time=0
11386	note_on channel=9 note=82 velocity=0 time=10
11387	note_on channel=1 note=45 velocity=0 time=20
11388	note_on channel=9 note=35 velocity=127 time=0
11389	note_on channel=9 note=27 velocity=119 time=0
11390	note_on channel=9 note=27 velocity=0 time=10
11391	note_on channel=9 note=35 velocity=0 time=0
11392	note_on channel=10 note=71 velocity=0 time=12
11393	
11394	note_on channel=1 note=43 velocity=92 time=0
11395	note_on channel=9 note=35 velocity=127 time=0
11396	note_on channel=9 note=82 velocity=88 time=0
11397	note_on channel=9 note=27 velocity=119 time=0
11398	note_on channel=10 note=71 velocity=90 time=0
11399	note_on channel=9 note=27 velocity=0 time=10
11400	note_on channel=9 note=82 velocity=0 time=0
11401	note_on channel=9 note=35 velocity=0 time=0
11402	note_on channel=1 note=43 velocity=0 time=10
11403	note_on channel=1 note=45 velocity=91 time=10
11404	note_on channel=9 note=35 velocity=127 time=0
11405	note_on channel=9 note=27 velocity=119 time=0
11406	note_on channel=9 note=27 velocity=0 time=10
11407	note_on channel=9 note=35 velocity=0 time=0
11408	note_on channel=10 note=71 velocity=0 time=16
11409	
11410	note_on channel=1 note=45 velocity=0 time=0
11411	note_on channel=1 note=35 velocity=92 time=0
11412	note_on channel=9 note=35 velocity=127 time=0
11413	note_on channel=9 note=38 velocity=88 time=0
11414	note_on channel=9 note=82 velocity=67 time=0
11415	note_on channel=9 note=37 velocity=127 time=0
11416	note_on channel=9 note=27 velocity=119 time=0
11417	note_on channel=10 note=71 velocity=90 time=0
11418	note_on channel=9 note=27 velocity=0 time=10
11419	note_on channel=9 note=37 velocity=0 time=0
11420	note_on channel=9 note=82 velocity=0 time=0
11421	note_on channel=1 note=35 velocity=0 time=0
11422	note_on channel=9 note=35 velocity=0 time=0
11423	note_on channel=9 note=38 velocity=0 time=0
11424	note_on channel=1 note=35 velocity=110 time=20
11425	note_on channel=9 note=35 velocity=127 time=0
11426	note_on channel=9 note=27 velocity=119 time=0
11427	note_on channel=9 note=27 velocity=0 time=10
11428	note_on channel=9 note=35 velocity=0 time=0
11429	note_on channel=10 note=71 velocity=0 time=14
11430	
11431	note_on channel=9 note=35 velocity=127 time=0
11432	note_on channel=9 note=82 velocity=109 time=0
11433	note_on channel=9 note=27 velocity=119 time=0
11434	note_on channel=10 note=71 velocity=90 time=0
11435	note_on channel=9 note=27 velocity=0 time=10
11436	note_on channel=9 note=82 velocity=0 time=0
11437	note_on channel=9 note=35 velocity=0 time=0
11438	note_on channel=1 note=35 velocity=0 time=20
11439	note_on channel=1 note=35 velocity=91 time=0
11440	note_on channel=9 note=35 velocity=127 time=0
11441	note_on channel=9 note=38 velocity=87 time=0
11442	note_on channel=9 note=37 velocity=127 time=0
11443	note_on channel=9 note=27 velocity=119 time=0
11444	note_on channel=9 note=27 velocity=0 time=10
11445	note_on channel=9 note=37 velocity=0 time=0
11446	note_on channel=9 note=38 velocity=0 time=0
11447	note_on channel=9 note=35 velocity=0 time=0
11448	note_on channel=1 note=35 velocity=0 time=10
11449	note_on channel=10 note=71 velocity=0 time=4
11450	
11451	note_on channel=9 note=35 velocity=127 time=0
11452	note_on channel=9 note=82 velocity=88 time=0
11453	note_on channel=9 note=27 velocity=119 time=0
11454	note_on channel=10 note=71 velocity=90 time=0
11455	note_on channel=9 note=27 velocity=0 time=10
11456	note_on channel=9 note=35 velocity=0 time=0
11457	note_on channel=9 note=82 velocity=0 time=0
11458	note_on channel=10 note=71 velocity=0 time=46
11459	
11460	note_on channel=1 note=28 velocity=91 time=0
11461	note_on channel=9 note=35 velocity=127 time=0
11462	note_on channel=9 note=38 velocity=86 time=0
11463	note_on channel=9 note=82 velocity=90 time=0
11464	note_on channel=9 note=37 velocity=127 time=0
11465	note_on channel=9 note=27 velocity=119 time=0
11466	note_on channel=10 note=71 velocity=90 time=0
11467	note_on channel=9 note=27 velocity=0 time=10
11468	note_on channel=9 note=37 velocity=0 time=0
11469	note_on channel=9 note=82 velocity=0 time=0
11470	note_on channel=9 note=38 velocity=0 time=0
11471	note_on channel=9 note=35 velocity=0 time=0
11472	note_on channel=10 note=71 velocity=0 time=40
11473	
11474	note_on channel=9 note=35 velocity=127 time=0
11475	note_on channel=9 note=82 velocity=67 time=0
11476	note_on channel=9 note=27 velocity=119 time=0
11477	note_on channel=10 note=71 velocity=90 time=0
11478	note_on channel=9 note=27 velocity=0 time=10
11479	note_on channel=9 note=82 velocity=0 time=0
11480	note_on channel=9 note=35 velocity=0 time=0
11481	note_on channel=9 note=35 velocity=127 time=20
11482	note_on channel=9 note=27 velocity=119 time=0
11483	note_on channel=9 note=27 velocity=0 time=10
11484	note_on channel=9 note=35 velocity=0 time=0
11485	note_on channel=10 note=71 velocity=0 time=14
11486	note_on channel=8 note=71 velocity=0 time=2
11487	note_on channel=8 note=74 velocity=0 time=0
11488	note_on channel=8 note=66 velocity=0 time=1
11489	note_on channel=1 note=28 velocity=0 time=3
11490	note_on channel=1 note=30 velocity=110 time=0
11491	note_on channel=8 note=66 velocity=59 time=0
11492	note_on channel=8 note=69 velocity=59 time=0
11493	note_on channel=8 note=73 velocity=59 time=0
11494	note_on channel=9 note=36 velocity=127 time=0
11495	note_on channel=9 note=35 velocity=127 time=0
11496	note_on channel=9 note=82 velocity=108 time=0
11497	note_on channel=9 note=27 velocity=119 time=0
11498	note_on channel=9 note=27 velocity=0 time=10
11499	note_on channel=9 note=82 velocity=0 time=0
11500	note_on channel=9 note=36 velocity=0 time=0
11501	note_on channel=9 note=35 velocity=0 time=0
11502	note_on channel=9 note=35 velocity=127 time=20
11503	note_on channel=9 note=27 velocity=119 time=0
11504	note_on channel=9 note=27 velocity=0 time=10
11505	note_on channel=9 note=35 velocity=0 time=0
11506	note_on channel=1 note=30 velocity=0 time=10
11507	
11508	note_on channel=1 note=30 velocity=88 time=0
11509	note_on channel=9 note=82 velocity=90 time=0
11510	note_on channel=10 note=69 velocity=90 time=0
11511	note_on channel=9 note=82 velocity=0 time=10
11512	note_on channel=10 note=69 velocity=0 time=19
11513	note_on channel=9 note=35 velocity=127 time=1
11514	note_on channel=9 note=27 velocity=119 time=0
11515	note_on channel=10 note=69 velocity=90 time=0
11516	note_on channel=9 note=27 velocity=0 time=10
11517	note_on channel=9 note=35 velocity=0 time=0
11518	note_on channel=9 note=35 velocity=127 time=20
11519	note_on channel=9 note=82 velocity=88 time=0
11520	note_on channel=9 note=27 velocity=119 time=0
11521	note_on channel=9 note=27 velocity=0 time=10
11522	note_on channel=9 note=82 velocity=0 time=0
11523	note_on channel=9 note=35 velocity=0 time=0
11524	note_on channel=10 note=69 velocity=0 time=14
11525	
11526	note_on channel=1 note=30 velocity=0 time=0
11527	note_on channel=9 note=35 velocity=127 time=0
11528	note_on channel=9 note=27 velocity=119 time=0
11529	note_on channel=10 note=66 velocity=90 time=0
11530	note_on channel=9 note=27 velocity=0 time=10
11531	note_on channel=9 note=35 velocity=0 time=0
11532	note_on channel=9 note=35 velocity=127 time=20
11533	note_on channel=9 note=38 velocity=88 time=0
11534	note_on channel=9 note=82 velocity=67 time=0
11535	note_on channel=9 note=37 velocity=127 time=0
11536	note_on channel=9 note=27 velocity=119 time=0
11537	note_on channel=9 note=27 velocity=0 time=10
11538	note_on channel=9 note=37 velocity=0 time=0
11539	note_on channel=9 note=82 velocity=0 time=0
11540	note_on channel=9 note=35 velocity=0 time=0
11541	note_on channel=9 note=38 velocity=0 time=0
11542	note_on channel=10 note=66 velocity=0 time=12
11543	
11544	note_on channel=9 note=35 velocity=127 time=0
11545	note_on channel=9 note=27 velocity=119 time=0
11546	note_on channel=10 note=64 velocity=90 time=0
11547	note_on channel=9 note=27 velocity=0 time=10
11548	note_on channel=9 note=35 velocity=0 time=0
11549	
11550	note_on channel=1 note=30 velocity=109 time=0
11551	note_on channel=9 note=35 velocity=127 time=0
11552	note_on channel=9 note=82 velocity=109 time=0
11553	note_on channel=9 note=27 velocity=119 time=0
11554	note_on channel=10 note=66 velocity=90 time=0
11555	note_on channel=10 note=64 velocity=0 time=2
11556	note_on channel=9 note=27 velocity=0 time=8
11557	note_on channel=9 note=82 velocity=0 time=0
11558	note_on channel=9 note=35 velocity=0 time=0
11559	note_on channel=9 note=35 velocity=127 time=20
11560	note_on channel=9 note=38 velocity=87 time=0
11561	note_on channel=9 note=37 velocity=127 time=0
11562	note_on channel=9 note=27 velocity=119 time=0
11563	note_on channel=9 note=27 velocity=0 time=10
11564	note_on channel=9 note=37 velocity=0 time=0
11565	note_on channel=9 note=38 velocity=0 time=0
11566	note_on channel=9 note=35 velocity=0 time=0
11567	note_on channel=9 note=35 velocity=127 time=20
11568	note_on channel=9 note=82 velocity=88 time=0
11569	note_on channel=9 note=27 velocity=119 time=0
11570	note_on channel=9 note=27 velocity=0 time=10
11571	note_on channel=9 note=82 velocity=0 time=0
11572	note_on channel=9 note=35 velocity=0 time=0
11573	note_on channel=1 note=30 velocity=0 time=40
11574	note_on channel=10 note=66 velocity=0 time=0
11575	
11576	note_on channel=1 note=33 velocity=90 time=0
11577	note_on channel=9 note=35 velocity=127 time=0
11578	note_on channel=9 note=38 velocity=86 time=0
11579	note_on channel=9 note=82 velocity=90 time=0
11580	note_on channel=9 note=37 velocity=127 time=0
11581	note_on channel=9 note=27 velocity=119 time=0
11582	note_on channel=10 note=66 velocity=90 time=0
11583	note_on channel=9 note=27 velocity=0 time=10
11584	note_on channel=9 note=37 velocity=0 time=0
11585	note_on channel=9 note=82 velocity=0 time=0
11586	note_on channel=9 note=38 velocity=0 time=0
11587	note_on channel=9 note=35 velocity=0 time=0
11588	note_on channel=10 note=66 velocity=0 time=44
11589	
11590	note_on channel=9 note=35 velocity=127 time=0
11591	note_on channel=9 note=82 velocity=67 time=0
11592	note_on channel=9 note=27 velocity=119 time=0
11593	note_on channel=10 note=66 velocity=90 time=0
11594	note_on channel=9 note=27 velocity=0 time=10
11595	note_on channel=9 note=82 velocity=0 time=0
11596	note_on channel=9 note=35 velocity=0 time=0
11597	note_on channel=9 note=35 velocity=127 time=20
11598	note_on channel=9 note=27 velocity=119 time=0
11599	note_on channel=9 note=27 velocity=0 time=10
11600	note_on channel=9 note=35 velocity=0 time=0
11601	note_on channel=8 note=73 velocity=0 time=16
11602	note_on channel=8 note=69 velocity=0 time=0
11603	note_on channel=8 note=66 velocity=0 time=1
11604	
11605	note_on channel=1 note=33 velocity=0 time=0
11606	note_on channel=10 note=66 velocity=0 time=0
11607	note_on channel=1 note=35 velocity=109 time=0
11608	note_on channel=8 note=66 velocity=59 time=0
11609	note_on channel=8 note=71 velocity=59 time=0
11610	note_on channel=8 note=74 velocity=59 time=0
11611	note_on channel=9 note=36 velocity=127 time=0
11612	note_on channel=9 note=35 velocity=127 time=0
11613	note_on channel=9 note=82 velocity=108 time=0
11614	note_on channel=9 note=27 velocity=119 time=0
11615	note_on channel=10 note=69 velocity=90 time=0
11616	note_on channel=9 note=27 velocity=0 time=10
11617	note_on channel=9 note=82 velocity=0 time=0
11618	note_on channel=9 note=35 velocity=0 time=0
11619	note_on channel=9 note=36 velocity=0 time=0
11620	note_on channel=9 note=35 velocity=127 time=20
11621	note_on channel=9 note=27 velocity=119 time=0
11622	note_on channel=9 note=27 velocity=0 time=10
11623	note_on channel=9 note=35 velocity=0 time=0
11624	note_on channel=10 note=69 velocity=0 time=19
11625	note_on channel=1 note=35 velocity=0 time=1
11626	note_on channel=1 note=35 velocity=89 time=0
11627	note_on channel=9 note=82 velocity=90 time=0
11628	note_on channel=10 note=69 velocity=90 time=0
11629	note_on channel=9 note=82 velocity=0 time=10
11630	note_on channel=9 note=35 velocity=127 time=20
11631	note_on channel=9 note=27 velocity=119 time=0
11632	note_on channel=9 note=27 velocity=0 time=10
11633	note_on channel=9 note=35 velocity=0 time=0
11634	note_on channel=9 note=35 velocity=127 time=20
11635	note_on channel=9 note=82 velocity=88 time=0
11636	note_on channel=9 note=27 velocity=119 time=0
11637	note_on channel=9 note=27 velocity=0 time=10
11638	note_on channel=9 note=82 velocity=0 time=0
11639	note_on channel=9 note=35 velocity=0 time=0
11640	note_on channel=10 note=69 velocity=0 time=6
11641	
11642	note_on channel=1 note=35 velocity=0 time=0
11643	note_on channel=9 note=35 velocity=127 time=0
11644	note_on channel=9 note=27 velocity=119 time=0
11645	note_on channel=10 note=66 velocity=90 time=0
11646	note_on channel=9 note=27 velocity=0 time=10
11647	note_on channel=9 note=35 velocity=0 time=0
11648	note_on channel=1 note=35 velocity=108 time=20
11649	note_on channel=9 note=35 velocity=127 time=0
11650	note_on channel=9 note=38 velocity=88 time=0
11651	note_on channel=9 note=82 velocity=67 time=0
11652	note_on channel=9 note=37 velocity=127 time=0
11653	note_on channel=9 note=27 velocity=119 time=0
11654	note_on channel=9 note=27 velocity=0 time=10
11655	note_on channel=9 note=37 velocity=0 time=0
11656	note_on channel=9 note=38 velocity=0 time=0
11657	note_on channel=9 note=82 velocity=0 time=0
11658	note_on channel=9 note=35 velocity=0 time=0
11659	note_on channel=10 note=66 velocity=0 time=16
11660	
11661	note_on channel=9 note=35 velocity=127 time=0
11662	note_on channel=9 note=27 velocity=119 time=0
11663	note_on channel=10 note=64 velocity=90 time=0
11664	note_on channel=9 note=27 velocity=0 time=10
11665	note_on channel=9 note=35 velocity=0 time=0
11666	note_on channel=8 note=66 velocity=0 time=17
11667	note_on channel=8 note=71 velocity=0 time=0
11668	note_on channel=8 note=74 velocity=0 time=0
11669	
11670	note_on channel=1 note=35 velocity=0 time=0
11671	note_on channel=1 note=30 velocity=100 time=0
11672	note_on channel=8 note=66 velocity=56 time=0
11673	note_on channel=8 note=69 velocity=56 time=0
11674	note_on channel=8 note=73 velocity=56 time=0
11675	note_on channel=9 note=35 velocity=127 time=0
11676	note_on channel=9 note=82 velocity=109 time=0
11677	note_on channel=9 note=27 velocity=119 time=0
11678	note_on channel=10 note=66 velocity=90 time=0
11679	note_on channel=10 note=64 velocity=0 time=2
11680	note_on channel=9 note=27 velocity=0 time=8
11681	note_on channel=9 note=82 velocity=0 time=0
11682	note_on channel=9 note=35 velocity=0 time=0
11683	note_on channel=9 note=35 velocity=127 time=20
11684	note_on channel=9 note=38 velocity=87 time=0
11685	note_on channel=9 note=37 velocity=127 time=0
11686	note_on channel=9 note=27 velocity=119 time=0
11687	note_on channel=9 note=27 velocity=0 time=10
11688	note_on channel=9 note=37 velocity=0 time=0
11689	note_on channel=9 note=38 velocity=0 time=0
11690	note_on channel=9 note=35 velocity=0 time=0
11691	note_on channel=9 note=35 velocity=127 time=20
11692	note_on channel=9 note=82 velocity=88 time=0
11693	note_on channel=9 note=27 velocity=119 time=0
11694	note_on channel=9 note=27 velocity=0 time=10
11695	note_on channel=9 note=82 velocity=0 time=0
11696	note_on channel=9 note=35 velocity=0 time=0
11697	note_on channel=6 note=66 velocity=90 time=20
11698	note_on channel=9 note=35 velocity=127 time=30
11699	note_on channel=9 note=38 velocity=86 time=0
11700	note_on channel=9 note=82 velocity=90 time=0
11701	note_on channel=9 note=37 velocity=127 time=0
11702	note_on channel=9 note=27 velocity=119 time=0
11703	note_on channel=9 note=27 velocity=0 time=10
11704	note_on channel=9 note=38 velocity=0 time=0
11705	note_on channel=9 note=37 velocity=0 time=0
11706	note_on channel=9 note=35 velocity=0 time=0
11707	note_on channel=9 note=82 velocity=0 time=0
11708	note_on channel=6 note=66 velocity=0 time=14
11709	note_on channel=6 note=66 velocity=90 time=6
11710	note_on channel=6 note=66 velocity=0 time=28
11711	note_on channel=6 note=66 velocity=90 time=2
11712	note_on channel=9 note=35 velocity=127 time=0
11713	note_on channel=9 note=82 velocity=67 time=0
11714	note_on channel=9 note=27 velocity=119 time=0
11715	note_on channel=10 note=66 velocity=0 time=2
11716	note_on channel=9 note=27 velocity=0 time=8
11717	note_on channel=9 note=82 velocity=0 time=0
11718	note_on channel=9 note=35 velocity=0 time=0
11719	note_on channel=9 note=35 velocity=127 time=20
11720	note_on channel=9 note=27 velocity=119 time=0
11721	note_on channel=9 note=27 velocity=0 time=10
11722	note_on channel=9 note=35 velocity=0 time=0
11723	note_on channel=6 note=66 velocity=0 time=12
11724	note_on channel=8 note=73 velocity=0 time=4
11725	note_on channel=8 note=69 velocity=0 time=2
11726	note_on channel=8 note=66 velocity=0 time=0
11727	note_on channel=1 note=30 velocity=0 time=2
11728	note_on channel=1 note=42 velocity=109 time=0
11729	note_on channel=6 note=68 velocity=90 time=0
11730	note_on channel=8 note=66 velocity=60 time=0
11731	note_on channel=8 note=69 velocity=60 time=0
11732	note_on channel=8 note=73 velocity=60 time=0
11733	note_on channel=9 note=36 velocity=127 time=0
11734	note_on channel=9 note=35 velocity=127 time=0
11735	note_on channel=9 note=82 velocity=108 time=0
11736	note_on channel=9 note=27 velocity=119 time=0
11737	pitchwheel channel=6 pitch=0 time=6
11738	pitchwheel channel=6 pitch=128 time=2
11739	note_on channel=9 note=27 velocity=0 time=2
11740	note_on channel=9 note=82 velocity=0 time=0
11741	note_on channel=9 note=35 velocity=0 time=0
11742	note_on channel=9 note=36 velocity=0 time=0
11743	pitchwheel channel=6 pitch=1280 time=0
11744	pitchwheel channel=6 pitch=1536 time=2
11745	pitchwheel channel=6 pitch=1792 time=2
11746	pitchwheel channel=6 pitch=2816 time=2
11747	pitchwheel channel=6 pitch=3712 time=2
11748	note_on channel=9 note=35 velocity=127 time=12
11749	note_on channel=9 note=27 velocity=119 time=0
11750	note_on channel=9 note=27 velocity=0 time=10
11751	note_on channel=9 note=35 velocity=0 time=0
11752	note_on channel=6 note=68 velocity=0 time=19
11753	note_on channel=1 note=42 velocity=0 time=1
11754	note_on channel=1 note=40 velocity=69 time=0
11755	note_on channel=6 note=68 velocity=90 time=0
11756	note_on channel=9 note=82 velocity=90 time=0
11757	pitchwheel channel=6 pitch=-128 time=6
11758	pitchwheel channel=6 pitch=256 time=2
11759	note_on channel=9 note=82 velocity=0 time=2
11760	note_on channel=1 note=40 velocity=0 time=0
11761	pitchwheel channel=6 pitch=3840 time=2
11762	note_on channel=1 note=38 velocity=92 time=18
11763	note_on channel=9 note=35 velocity=127 time=0
11764	note_on channel=9 note=27 velocity=119 time=0
11765	note_on channel=9 note=27 velocity=0 time=10
11766	note_on channel=1 note=38 velocity=0 time=0
11767	note_on channel=9 note=35 velocity=0 time=0
11768	note_on channel=1 note=37 velocity=70 time=20
11769	note_on channel=9 note=35 velocity=127 time=0
11770	note_on channel=9 note=82 velocity=88 time=0
11771	note_on channel=9 note=27 velocity=119 time=0
11772	note_on channel=9 note=27 velocity=0 time=10
11773	note_on channel=9 note=82 velocity=0 time=0
11774	note_on channel=1 note=37 velocity=0 time=0
11775	note_on channel=9 note=35 velocity=0 time=0
11776	note_on channel=6 note=68 velocity=0 time=12
11777	note_on channel=6 note=66 velocity=90 time=8
11778	note_on channel=9 note=35 velocity=127 time=0
11779	note_on channel=9 note=27 velocity=119 time=0
11780	pitchwheel channel=6 pitch=0 time=4
11781	note_on channel=9 note=27 velocity=0 time=6
11782	note_on channel=9 note=35 velocity=0 time=0
11783	note_on channel=1 note=42 velocity=111 time=20
11784	note_on channel=9 note=35 velocity=127 time=0
11785	note_on channel=9 note=38 velocity=88 time=0
11786	note_on channel=9 note=82 velocity=67 time=0
11787	note_on channel=9 note=37 velocity=127 time=0
11788	note_on channel=9 note=27 velocity=119 time=0
11789	note_on channel=9 note=27 velocity=0 time=10
11790	note_on channel=9 note=37 velocity=0 time=0
11791	note_on channel=9 note=38 velocity=0 time=0
11792	note_on channel=9 note=82 velocity=0 time=0
11793	note_on channel=9 note=35 velocity=0 time=0
11794	note_on channel=6 note=66 velocity=0 time=18
11795	note_on channel=6 note=64 velocity=90 time=2
11796	note_on channel=9 note=35 velocity=127 time=0
11797	note_on channel=9 note=27 velocity=119 time=0
11798	note_on channel=9 note=27 velocity=0 time=10
11799	note_on channel=9 note=35 velocity=0 time=0
11800	note_on channel=6 note=64 velocity=0 time=18
11801	note_on channel=1 note=42 velocity=0 time=2
11802	note_on channel=1 note=40 velocity=70 time=0
11803	note_on channel=6 note=66 velocity=90 time=0
11804	note_on channel=9 note=35 velocity=127 time=0
11805	note_on channel=9 note=82 velocity=109 time=0
11806	note_on channel=9 note=27 velocity=119 time=0
11807	note_on channel=9 note=27 velocity=0 time=10
11808	note_on channel=9 note=82 velocity=0 time=0
11809	note_on channel=1 note=40 velocity=0 time=0
11810	note_on channel=9 note=35 velocity=0 time=0
11811	note_on channel=1 note=38 velocity=70 time=20
11812	note_on channel=9 note=35 velocity=127 time=0
11813	note_on channel=9 note=38 velocity=87 time=0
11814	note_on channel=9 note=37 velocity=127 time=0
11815	note_on channel=9 note=27 velocity=119 time=0
11816	note_on channel=9 note=27 velocity=0 time=10
11817	note_on channel=9 note=37 velocity=0 time=0
11818	note_on channel=9 note=38 velocity=0 time=0
11819	note_on channel=1 note=38 velocity=0 time=0
11820	note_on channel=9 note=35 velocity=0 time=0
11821	note_on channel=6 note=66 velocity=0 time=18
11822	note_on channel=1 note=40 velocity=89 time=2
11823	note_on channel=9 note=35 velocity=127 time=0
11824	note_on channel=9 note=82 velocity=88 time=0
11825	note_on channel=9 note=27 velocity=119 time=0
11826	note_on channel=9 note=27 velocity=0 time=10
11827	note_on channel=9 note=35 velocity=0 time=0
11828	note_on channel=9 note=82 velocity=0 time=0
11829	note_on channel=1 note=40 velocity=0 time=10
11830	note_on channel=1 note=38 velocity=92 time=10
11831	note_on channel=6 note=73 velocity=90 time=0
11832	note_on channel=6 note=66 velocity=90 time=0
11833	note_on channel=1 note=38 velocity=0 time=30
11834	note_on channel=1 note=37 velocity=70 time=0
11835	note_on channel=9 note=35 velocity=127 time=0
11836	note_on channel=9 note=38 velocity=86 time=0
11837	note_on channel=9 note=82 velocity=90 time=0
11838	note_on channel=9 note=37 velocity=127 time=0
11839	note_on channel=9 note=27 velocity=119 time=0
11840	note_on channel=9 note=27 velocity=0 time=10
11841	note_on channel=9 note=38 velocity=0 time=0
11842	note_on channel=9 note=37 velocity=0 time=0
11843	note_on channel=9 note=35 velocity=0 time=0
11844	note_on channel=9 note=82 velocity=0 time=0
11845	note_on channel=1 note=37 velocity=0 time=0
11846	note_on channel=6 note=66 velocity=0 time=18
11847	note_on channel=6 note=73 velocity=0 time=1
11848	note_on channel=1 note=35 velocity=72 time=1
11849	note_on channel=6 note=73 velocity=90 time=0
11850	note_on channel=6 note=66 velocity=90 time=0
11851	note_on channel=1 note=35 velocity=0 time=10
11852	note_on channel=6 note=73 velocity=0 time=19
11853	note_on channel=6 note=66 velocity=0 time=0
11854	
11855	note_on channel=1 note=52 velocity=91 time=0
11856	note_on channel=6 note=73 velocity=90 time=0
11857	note_on channel=6 note=66 velocity=90 time=0
11858	note_on channel=9 note=35 velocity=127 time=0
11859	note_on channel=9 note=82 velocity=67 time=0
11860	note_on channel=9 note=27 velocity=119 time=0
11861	note_on channel=10 note=61 velocity=90 time=0
11862	note_on channel=9 note=27 velocity=0 time=10
11863	note_on channel=9 note=82 velocity=0 time=0
11864	note_on channel=9 note=35 velocity=0 time=0
11865	note_on channel=1 note=52 velocity=0 time=20
11866	note_on channel=1 note=37 velocity=89 time=0
11867	note_on channel=9 note=35 velocity=127 time=0
11868	note_on channel=9 note=27 velocity=119 time=0
11869	note_on channel=9 note=27 velocity=0 time=10
11870	note_on channel=9 note=35 velocity=0 time=0
11871	note_on channel=1 note=37 velocity=0 time=10
11872	note_on channel=10 note=61 velocity=0 time=2
11873	note_on channel=8 note=66 velocity=0 time=4
11874	note_on channel=6 note=73 velocity=0 time=0
11875	note_on channel=8 note=73 velocity=0 time=0
11876	note_on channel=8 note=69 velocity=0 time=1
11877	note_on channel=6 note=66 velocity=0 time=1
11878	
11879	note_on channel=1 note=30 velocity=108 time=0
11880	note_on channel=8 note=66 velocity=61 time=0
11881	note_on channel=8 note=69 velocity=61 time=0
11882	note_on channel=8 note=73 velocity=61 time=0
11883	note_on channel=9 note=36 velocity=127 time=0
11884	note_on channel=9 note=35 velocity=127 time=0
11885	note_on channel=9 note=82 velocity=108 time=0
11886	note_on channel=10 note=66 velocity=90 time=0
11887	note_on channel=9 note=82 velocity=0 time=10
11888	note_on channel=9 note=35 velocity=0 time=0
11889	note_on channel=9 note=36 velocity=0 time=0
11890	note_on channel=10 note=66 velocity=0 time=42
11891	
11892	note_on channel=1 note=30 velocity=0 time=0
11893	note_on channel=1 note=30 velocity=89 time=0
11894	note_on channel=9 note=82 velocity=90 time=0
11895	note_on channel=9 note=27 velocity=103 time=0
11896	note_on channel=10 note=66 velocity=90 time=0
11897	note_on channel=9 note=27 velocity=0 time=10
11898	note_on channel=9 note=82 velocity=0 time=0
11899	note_on channel=1 note=30 velocity=0 time=10
11900	note_on channel=1 note=32 velocity=90 time=40
11901	note_on channel=9 note=82 velocity=88 time=0
11902	note_on channel=9 note=27 velocity=101 time=0
11903	note_on channel=9 note=27 velocity=0 time=10
11904	note_on channel=1 note=32 velocity=0 time=0
11905	note_on channel=9 note=82 velocity=0 time=0
11906	note_on channel=10 note=66 velocity=0 time=18
11907	
11908	note_on channel=1 note=30 velocity=111 time=0
11909	note_on channel=10 note=66 velocity=90 time=0
11910	note_on channel=1 note=30 velocity=0 time=30
11911	note_on channel=9 note=38 velocity=88 time=0
11912	note_on channel=9 note=82 velocity=67 time=0
11913	note_on channel=9 note=37 velocity=127 time=0
11914	note_on channel=9 note=37 velocity=0 time=10
11915	note_on channel=9 note=38 velocity=0 time=0
11916	note_on channel=9 note=82 velocity=0 time=0
11917	note_on channel=10 note=66 velocity=0 time=19
11918	
11919	note_on channel=1 note=30 velocity=109 time=0
11920	note_on channel=10 note=61 velocity=90 time=0
11921	note_on channel=8 note=69 velocity=0 time=27
11922	note_on channel=8 note=73 velocity=0 time=1
11923	note_on channel=8 note=66 velocity=0 time=0
11924	
11925	note_on channel=1 note=30 velocity=0 time=0
11926	note_on channel=1 note=40 velocity=84 time=0
11927	note_on channel=8 note=68 velocity=55 time=0
11928	note_on channel=8 note=71 velocity=55 time=0
11929	note_on channel=8 note=76 velocity=55 time=0
11930	note_on channel=9 note=82 velocity=109 time=0
11931	note_on channel=10 note=64 velocity=90 time=0
11932	note_on channel=10 note=61 velocity=0 time=2
11933	note_on channel=1 note=40 velocity=0 time=8
11934	note_on channel=9 note=82 velocity=0 time=0
11935	note_on channel=9 note=38 velocity=87 time=20
11936	note_on channel=9 note=37 velocity=127 time=0
11937	note_on channel=9 note=37 velocity=0 time=10
11938	note_on channel=9 note=38 velocity=0 time=0
11939	note_on channel=1 note=38 velocity=72 time=20
11940	note_on channel=9 note=82 velocity=88 time=0
11941	note_on channel=9 note=82 velocity=0 time=10
11942	note_on channel=1 note=38 velocity=0 time=0
11943	note_on channel=1 note=28 velocity=112 time=20
11944	note_on channel=10 note=64 velocity=0 time=20
11945	note_on channel=9 note=38 velocity=86 time=10
11946	note_on channel=9 note=82 velocity=90 time=0
11947	note_on channel=9 note=37 velocity=127 time=0
11948	note_on channel=9 note=37 velocity=0 time=10
11949	note_on channel=9 note=38 velocity=0 time=0
11950	note_on channel=9 note=82 velocity=0 time=0
11951	note_on channel=1 note=28 velocity=0 time=20
11952	note_on channel=1 note=30 velocity=70 time=0
11953	note_on channel=1 note=30 velocity=0 time=10
11954	
11955	note_on channel=1 note=32 velocity=89 time=0
11956	note_on channel=9 note=82 velocity=67 time=0
11957	note_on channel=10 note=61 velocity=90 time=0
11958	note_on channel=9 note=82 velocity=0 time=10
11959	note_on channel=1 note=32 velocity=0 time=0
11960	note_on channel=1 note=30 velocity=71 time=20
11961	note_on channel=1 note=30 velocity=0 time=10
11962	note_on channel=10 note=61 velocity=0 time=14
11963	note_on channel=8 note=68 velocity=0 time=2
11964	note_on channel=8 note=76 velocity=0 time=0
11965	note_on channel=8 note=71 velocity=0 time=2
11966	
11967	note_on channel=1 note=30 velocity=108 time=0
11968	note_on channel=8 note=66 velocity=61 time=0
11969	note_on channel=8 note=69 velocity=61 time=0
11970	note_on channel=8 note=73 velocity=61 time=0
11971	note_on channel=9 note=36 velocity=127 time=0
11972	note_on channel=9 note=35 velocity=127 time=0
11973	note_on channel=9 note=82 velocity=108 time=0
11974	note_on channel=10 note=66 velocity=90 time=0
11975	note_on channel=9 note=82 velocity=0 time=10
11976	note_on channel=9 note=35 velocity=0 time=0
11977	note_on channel=9 note=36 velocity=0 time=0
11978	note_on channel=10 note=66 velocity=0 time=42
11979	
11980	note_on channel=1 note=30 velocity=0 time=0
11981	note_on channel=1 note=30 velocity=89 time=0
11982	note_on channel=9 note=82 velocity=90 time=0
11983	note_on channel=9 note=27 velocity=103 time=0
11984	note_on channel=10 note=66 velocity=90 time=0
11985	note_on channel=9 note=27 velocity=0 time=10
11986	note_on channel=9 note=82 velocity=0 time=0
11987	note_on channel=1 note=30 velocity=0 time=10
11988	note_on channel=10 note=66 velocity=0 time=32
11989	
11990	note_on channel=1 note=32 velocity=90 time=0
11991	note_on channel=9 note=82 velocity=88 time=0
11992	note_on channel=9 note=27 velocity=101 time=0
11993	note_on channel=10 note=69 velocity=90 time=0
11994	note_on channel=9 note=27 velocity=0 time=10
11995	note_on channel=1 note=32 velocity=0 time=0
11996	note_on channel=9 note=82 velocity=0 time=0
11997	note_on channel=1 note=30 velocity=111 time=20
11998	note_on channel=10 note=69 velocity=0 time=29
11999	
12000	note_on channel=1 note=30 velocity=0 time=0
12001	note_on channel=9 note=38 velocity=88 time=0
12002	note_on channel=9 note=82 velocity=67 time=0
12003	note_on channel=9 note=37 velocity=127 time=0
12004	note_on channel=10 note=69 velocity=90 time=0
12005	note_on channel=9 note=37 velocity=0 time=10
12006	note_on channel=9 note=38 velocity=0 time=0
12007	note_on channel=9 note=82 velocity=0 time=0
12008	
12009	note_on channel=1 note=30 velocity=109 time=0
12010	note_on channel=10 note=68 velocity=90 time=0
12011	note_on channel=10 note=69 velocity=0 time=2
12012	note_on channel=8 note=69 velocity=0 time=25
12013	note_on channel=8 note=73 velocity=0 time=1
12014	note_on channel=8 note=66 velocity=0 time=0
12015	note_on channel=1 note=30 velocity=0 time=2
12016	note_on channel=1 note=40 velocity=84 time=0
12017	note_on channel=8 note=68 velocity=55 time=0
12018	note_on channel=8 note=71 velocity=55 time=0
12019	note_on channel=8 note=76 velocity=55 time=0
12020	note_on channel=9 note=82 velocity=109 time=0
12021	note_on channel=9 note=82 velocity=0 time=10
12022	note_on channel=1 note=40 velocity=0 time=0
12023	note_on channel=9 note=38 velocity=87 time=20
12024	note_on channel=9 note=37 velocity=127 time=0
12025	note_on channel=9 note=37 velocity=0 time=10
12026	note_on channel=9 note=38 velocity=0 time=0
12027	note_on channel=1 note=38 velocity=72 time=20
12028	note_on channel=9 note=82 velocity=88 time=0
12029	note_on channel=9 note=82 velocity=0 time=10
12030	note_on channel=1 note=38 velocity=0 time=0
12031	note_on channel=10 note=68 velocity=0 time=10
12032	note_on channel=1 note=28 velocity=112 time=10
12033	note_on channel=9 note=38 velocity=86 time=30
12034	note_on channel=9 note=82 velocity=90 time=0
12035	note_on channel=9 note=37 velocity=127 time=0
12036	note_on channel=9 note=37 velocity=0 time=10
12037	note_on channel=9 note=38 velocity=0 time=0
12038	note_on channel=9 note=82 velocity=0 time=0
12039	note_on channel=1 note=28 velocity=0 time=20
12040	note_on channel=1 note=30 velocity=70 time=0
12041	note_on channel=1 note=30 velocity=0 time=10
12042	
12043	note_on channel=1 note=32 velocity=89 time=0
12044	note_on channel=9 note=82 velocity=67 time=0
12045	note_on channel=10 note=61 velocity=90 time=0
12046	note_on channel=9 note=82 velocity=0 time=10
12047	note_on channel=1 note=32 velocity=0 time=0
12048	note_on channel=1 note=30 velocity=71 time=20
12049	note_on channel=1 note=30 velocity=0 time=10
12050	note_on channel=10 note=61 velocity=0 time=14
12051	note_on channel=8 note=68 velocity=0 time=2
12052	note_on channel=8 note=76 velocity=0 time=0
12053	note_on channel=8 note=71 velocity=0 time=2
12054	
12055	note_on channel=1 note=30 velocity=108 time=0
12056	note_on channel=8 note=66 velocity=61 time=0
12057	note_on channel=8 note=69 velocity=61 time=0
12058	note_on channel=8 note=73 velocity=61 time=0
12059	note_on channel=9 note=36 velocity=127 time=0
12060	note_on channel=9 note=35 velocity=127 time=0
12061	note_on channel=9 note=82 velocity=108 time=0
12062	note_on channel=10 note=66 velocity=90 time=0
12063	note_on channel=9 note=82 velocity=0 time=10
12064	note_on channel=9 note=35 velocity=0 time=0
12065	note_on channel=9 note=36 velocity=0 time=0
12066	note_on channel=10 note=66 velocity=0 time=42
12067	
12068	note_on channel=1 note=30 velocity=0 time=0
12069	note_on channel=1 note=30 velocity=89 time=0
12070	note_on channel=9 note=82 velocity=90 time=0
12071	note_on channel=9 note=27 velocity=103 time=0
12072	note_on channel=10 note=66 velocity=90 time=0
12073	note_on channel=9 note=27 velocity=0 time=10
12074	note_on channel=9 note=82 velocity=0 time=0
12075	note_on channel=1 note=30 velocity=0 time=10
12076	note_on channel=1 note=32 velocity=90 time=40
12077	note_on channel=9 note=82 velocity=88 time=0
12078	note_on channel=9 note=27 velocity=101 time=0
12079	note_on channel=9 note=27 velocity=0 time=10
12080	note_on channel=1 note=32 velocity=0 time=0
12081	note_on channel=9 note=82 velocity=0 time=0
12082	note_on channel=10 note=66 velocity=0 time=18
12083	
12084	note_on channel=1 note=30 velocity=111 time=0
12085	note_on channel=10 note=66 velocity=90 time=0
12086	note_on channel=1 note=30 velocity=0 time=30
12087	note_on channel=9 note=38 velocity=88 time=0
12088	note_on channel=9 note=82 velocity=67 time=0
12089	note_on channel=9 note=37 velocity=127 time=0
12090	note_on channel=9 note=37 velocity=0 time=10
12091	note_on channel=9 note=38 velocity=0 time=0
12092	note_on channel=9 note=82 velocity=0 time=0
12093	note_on channel=10 note=66 velocity=0 time=19
12094	
12095	note_on channel=1 note=30 velocity=109 time=0
12096	note_on channel=10 note=61 velocity=90 time=0
12097	note_on channel=8 note=69 velocity=0 time=27
12098	note_on channel=8 note=73 velocity=0 time=1
12099	note_on channel=8 note=66 velocity=0 time=0
12100	
12101	note_on channel=1 note=30 velocity=0 time=0
12102	note_on channel=1 note=40 velocity=84 time=0
12103	note_on channel=8 note=68 velocity=55 time=0
12104	note_on channel=8 note=71 velocity=55 time=0
12105	note_on channel=8 note=76 velocity=55 time=0
12106	note_on channel=9 note=82 velocity=109 time=0
12107	note_on channel=10 note=64 velocity=90 time=0
12108	note_on channel=10 note=61 velocity=0 time=2
12109	note_on channel=1 note=40 velocity=0 time=8
12110	note_on channel=9 note=82 velocity=0 time=0
12111	note_on channel=9 note=38 velocity=87 time=20
12112	note_on channel=9 note=37 velocity=127 time=0
12113	note_on channel=9 note=37 velocity=0 time=10
12114	note_on channel=9 note=38 velocity=0 time=0
12115	note_on channel=1 note=38 velocity=72 time=20
12116	note_on channel=9 note=82 velocity=88 time=0
12117	note_on channel=9 note=82 velocity=0 time=10
12118	note_on channel=1 note=38 velocity=0 time=0
12119	note_on channel=1 note=28 velocity=112 time=20
12120	note_on channel=10 note=64 velocity=0 time=20
12121	note_on channel=9 note=38 velocity=86 time=10
12122	note_on channel=9 note=82 velocity=90 time=0
12123	note_on channel=9 note=37 velocity=127 time=0
12124	note_on channel=9 note=37 velocity=0 time=10
12125	note_on channel=9 note=38 velocity=0 time=0
12126	note_on channel=9 note=82 velocity=0 time=0
12127	note_on channel=1 note=28 velocity=0 time=20
12128	note_on channel=1 note=30 velocity=70 time=0
12129	note_on channel=1 note=30 velocity=0 time=10
12130	
12131	note_on channel=1 note=32 velocity=89 time=0
12132	note_on channel=9 note=82 velocity=67 time=0
12133	note_on channel=10 note=61 velocity=90 time=0
12134	note_on channel=9 note=82 velocity=0 time=10
12135	note_on channel=1 note=32 velocity=0 time=0
12136	note_on channel=1 note=30 velocity=71 time=20
12137	note_on channel=1 note=30 velocity=0 time=10
12138	note_on channel=10 note=61 velocity=0 time=14
12139	note_on channel=8 note=68 velocity=0 time=2
12140	note_on channel=8 note=76 velocity=0 time=0
12141	note_on channel=8 note=71 velocity=0 time=2
12142	
12143	note_on channel=1 note=30 velocity=108 time=0
12144	note_on channel=8 note=66 velocity=61 time=0
12145	note_on channel=8 note=69 velocity=61 time=0
12146	note_on channel=8 note=73 velocity=61 time=0
12147	note_on channel=9 note=36 velocity=127 time=0
12148	note_on channel=9 note=35 velocity=127 time=0
12149	note_on channel=9 note=82 velocity=108 time=0
12150	note_on channel=10 note=66 velocity=90 time=0
12151	note_on channel=9 note=82 velocity=0 time=10
12152	note_on channel=9 note=35 velocity=0 time=0
12153	note_on channel=9 note=36 velocity=0 time=0
12154	note_on channel=10 note=66 velocity=0 time=42
12155	
12156	note_on channel=1 note=30 velocity=0 time=0
12157	note_on channel=1 note=30 velocity=89 time=0
12158	note_on channel=9 note=82 velocity=90 time=0
12159	note_on channel=9 note=27 velocity=103 time=0
12160	note_on channel=10 note=66 velocity=90 time=0
12161	note_on channel=9 note=27 velocity=0 time=10
12162	note_on channel=9 note=82 velocity=0 time=0
12163	note_on channel=1 note=30 velocity=0 time=10
12164	note_on channel=10 note=66 velocity=0 time=32
12165	
12166	note_on channel=1 note=32 velocity=90 time=0
12167	note_on channel=9 note=82 velocity=88 time=0
12168	note_on channel=9 note=27 velocity=101 time=0
12169	note_on channel=10 note=69 velocity=90 time=0
12170	note_on channel=9 note=27 velocity=0 time=10
12171	note_on channel=1 note=32 velocity=0 time=0
12172	note_on channel=9 note=82 velocity=0 time=0
12173	note_on channel=1 note=30 velocity=111 time=20
12174	note_on channel=10 note=69 velocity=0 time=29
12175	
12176	note_on channel=1 note=30 velocity=0 time=0
12177	note_on channel=9 note=38 velocity=88 time=0
12178	note_on channel=9 note=82 velocity=67 time=0
12179	note_on channel=9 note=37 velocity=127 time=0
12180	note_on channel=10 note=69 velocity=90 time=0
12181	note_on channel=9 note=37 velocity=0 time=10
12182	note_on channel=9 note=38 velocity=0 time=0
12183	note_on channel=9 note=82 velocity=0 time=0
12184	
12185	note_on channel=1 note=30 velocity=109 time=0
12186	note_on channel=10 note=68 velocity=90 time=0
12187	note_on channel=10 note=69 velocity=0 time=2
12188	note_on channel=8 note=69 velocity=0 time=25
12189	note_on channel=8 note=73 velocity=0 time=1
12190	note_on channel=8 note=66 velocity=0 time=0
12191	note_on channel=1 note=30 velocity=0 time=2
12192	note_on channel=1 note=40 velocity=84 time=0
12193	note_on channel=8 note=68 velocity=55 time=0
12194	note_on channel=8 note=71 velocity=55 time=0
12195	note_on channel=8 note=76 velocity=55 time=0
12196	note_on channel=9 note=82 velocity=109 time=0
12197	note_on channel=9 note=82 velocity=0 time=10
12198	note_on channel=1 note=40 velocity=0 time=0
12199	note_on channel=9 note=38 velocity=87 time=20
12200	note_on channel=9 note=37 velocity=127 time=0
12201	note_on channel=9 note=37 velocity=0 time=10
12202	note_on channel=9 note=38 velocity=0 time=0
12203	note_on channel=1 note=38 velocity=72 time=20
12204	note_on channel=9 note=82 velocity=88 time=0
12205	note_on channel=9 note=82 velocity=0 time=10
12206	note_on channel=1 note=38 velocity=0 time=0
12207	note_on channel=10 note=68 velocity=0 time=10
12208	note_on channel=1 note=28 velocity=112 time=10
12209	note_on channel=9 note=38 velocity=86 time=30
12210	note_on channel=9 note=82 velocity=90 time=0
12211	note_on channel=9 note=37 velocity=127 time=0
12212	note_on channel=9 note=37 velocity=0 time=10
12213	note_on channel=9 note=38 velocity=0 time=0
12214	note_on channel=9 note=82 velocity=0 time=0
12215	
12216	note_on channel=1 note=28 velocity=0 time=0
12217	note_on channel=1 note=30 velocity=70 time=0
12218	note_on channel=10 note=73 velocity=90 time=0
12219	note_on channel=1 note=30 velocity=0 time=10
12220	note_on channel=1 note=32 velocity=89 time=20
12221	note_on channel=9 note=82 velocity=67 time=0
12222	note_on channel=9 note=82 velocity=0 time=10
12223	note_on channel=1 note=32 velocity=0 time=0
12224	note_on channel=10 note=73 velocity=0 time=12
12225	
12226	note_on channel=1 note=30 velocity=71 time=0
12227	note_on channel=10 note=73 velocity=90 time=0
12228	note_on channel=1 note=30 velocity=0 time=10
12229	note_on channel=10 note=73 velocity=0 time=12
12230	note_on channel=8 note=76 velocity=0 time=4
12231	note_on channel=8 note=68 velocity=0 time=0
12232	note_on channel=8 note=71 velocity=0 time=2
12233	
12234	note_on channel=1 note=33 velocity=111 time=0
12235	note_on channel=8 note=69 velocity=61 time=0
12236	note_on channel=8 note=73 velocity=61 time=0
12237	note_on channel=8 note=76 velocity=61 time=0
12238	note_on channel=9 note=36 velocity=127 time=0
12239	note_on channel=9 note=35 velocity=127 time=0
12240	note_on channel=9 note=82 velocity=88 time=0
12241	note_on channel=10 note=76 velocity=90 time=0
12242	note_on channel=9 note=82 velocity=0 time=10
12243	note_on channel=9 note=35 velocity=0 time=0
12244	note_on channel=9 note=36 velocity=0 time=0
12245	note_on channel=1 note=33 velocity=0 time=50
12246	note_on channel=1 note=37 velocity=71 time=0
12247	note_on channel=9 note=82 velocity=70 time=0
12248	note_on channel=9 note=27 velocity=83 time=0
12249	note_on channel=9 note=27 velocity=0 time=10
12250	note_on channel=1 note=37 velocity=0 time=0
12251	note_on channel=9 note=82 velocity=0 time=0
12252	note_on channel=1 note=33 velocity=88 time=20
12253	note_on channel=1 note=33 velocity=0 time=10
12254	note_on channel=1 note=31 velocity=91 time=20
12255	note_on channel=9 note=82 velocity=68 time=0
12256	note_on channel=9 note=27 velocity=81 time=0
12257	note_on channel=9 note=27 velocity=0 time=10
12258	note_on channel=9 note=82 velocity=0 time=0
12259	note_on channel=1 note=31 velocity=0 time=10
12260	note_on channel=10 note=76 velocity=0 time=6
12261	
12262	note_on channel=10 note=74 velocity=90 time=0
12263	note_on channel=1 note=33 velocity=112 time=30
12264	note_on channel=9 note=38 velocity=68 time=0
12265	note_on channel=9 note=82 velocity=47 time=0
12266	note_on channel=9 note=37 velocity=127 time=0
12267	note_on channel=9 note=37 velocity=0 time=10
12268	note_on channel=9 note=82 velocity=0 time=0
12269	note_on channel=9 note=38 velocity=0 time=0
12270	
12271	note_on channel=10 note=74 velocity=0 time=0
12272	note_on channel=10 note=73 velocity=90 time=0
12273	note_on channel=8 note=73 velocity=0 time=26
12274	note_on channel=8 note=76 velocity=0 time=2
12275	note_on channel=10 note=73 velocity=0 time=0
12276	note_on channel=8 note=69 velocity=0 time=0
12277	
12278	note_on channel=1 note=33 velocity=0 time=0
12279	note_on channel=1 note=35 velocity=75 time=0
12280	note_on channel=8 note=66 velocity=56 time=0
12281	note_on channel=8 note=71 velocity=56 time=0
12282	note_on channel=8 note=74 velocity=56 time=0
12283	note_on channel=9 note=82 velocity=89 time=0
12284	note_on channel=10 note=74 velocity=90 time=0
12285	note_on channel=9 note=82 velocity=0 time=10
12286	note_on channel=1 note=35 velocity=0 time=0
12287	note_on channel=9 note=38 velocity=67 time=20
12288	note_on channel=9 note=37 velocity=127 time=0
12289	note_on channel=9 note=37 velocity=0 time=10
12290	note_on channel=9 note=38 velocity=0 time=0
12291	note_on channel=1 note=36 velocity=92 time=20
12292	note_on channel=9 note=82 velocity=68 time=0
12293	note_on channel=9 note=82 velocity=0 time=10
12294	note_on channel=1 note=36 velocity=0 time=10
12295	note_on channel=1 note=45 velocity=92 time=10
12296	note_on channel=9 note=38 velocity=66 time=30
12297	note_on channel=9 note=82 velocity=70 time=0
12298	note_on channel=9 note=37 velocity=127 time=0
12299	note_on channel=9 note=37 velocity=0 time=10
12300	note_on channel=9 note=82 velocity=0 time=0
12301	note_on channel=9 note=38 velocity=0 time=0
12302	note_on channel=1 note=45 velocity=0 time=10
12303	note_on channel=10 note=74 velocity=0 time=6
12304	
12305	note_on channel=1 note=42 velocity=92 time=0
12306	note_on channel=10 note=73 velocity=90 time=0
12307	note_on channel=1 note=42 velocity=0 time=30
12308	note_on channel=1 note=45 velocity=90 time=0
12309	note_on channel=9 note=82 velocity=47 time=0
12310	note_on channel=9 note=82 velocity=0 time=10
12311	note_on channel=10 note=73 velocity=0 time=12
12312	note_on channel=1 note=45 velocity=0 time=8
12313	note_on channel=1 note=47 velocity=92 time=0
12314	note_on channel=1 note=47 velocity=0 time=20
12315	note_on channel=8 note=66 velocity=0 time=6
12316	note_on channel=8 note=74 velocity=0 time=0
12317	note_on channel=8 note=71 velocity=0 time=1
12318	
12319	note_on channel=1 note=30 velocity=111 time=0
12320	note_on channel=8 note=66 velocity=59 time=0
12321	note_on channel=8 note=69 velocity=59 time=0
12322	note_on channel=8 note=73 velocity=59 time=0
12323	note_on channel=9 note=36 velocity=127 time=0
12324	note_on channel=9 note=35 velocity=127 time=0
12325	note_on channel=9 note=82 velocity=90 time=0
12326	note_on channel=10 note=73 velocity=90 time=0
12327	note_on channel=9 note=82 velocity=0 time=10
12328	note_on channel=1 note=30 velocity=0 time=0
12329	note_on channel=9 note=36 velocity=0 time=0
12330	note_on channel=9 note=35 velocity=0 time=0
12331	note_on channel=1 note=32 velocity=71 time=20
12332	note_on channel=1 note=32 velocity=0 time=10
12333	note_on channel=10 note=73 velocity=0 time=16
12334	
12335	note_on channel=1 note=40 velocity=89 time=0
12336	note_on channel=9 note=82 velocity=71 time=0
12337	note_on channel=9 note=27 velocity=83 time=0
12338	note_on channel=10 note=69 velocity=90 time=0
12339	note_on channel=9 note=27 velocity=0 time=10
12340	note_on channel=9 note=82 velocity=0 time=0
12341	note_on channel=1 note=40 velocity=0 time=20
12342	note_on channel=9 note=36 velocity=127 time=0
12343	note_on channel=9 note=35 velocity=127 time=0
12344	note_on channel=9 note=35 velocity=0 time=10
12345	note_on channel=9 note=36 velocity=0 time=0
12346	
12347	note_on channel=10 note=69 velocity=0 time=0
12348	note_on channel=1 note=38 velocity=89 time=0
12349	note_on channel=9 note=82 velocity=71 time=0
12350	note_on channel=9 note=27 velocity=83 time=0
12351	note_on channel=10 note=71 velocity=90 time=0
12352	note_on channel=9 note=27 velocity=0 time=10
12353	note_on channel=9 note=82 velocity=0 time=0
12354	note_on channel=1 note=38 velocity=0 time=10
12355	note_on channel=1 note=40 velocity=88 time=10
12356	note_on channel=10 note=71 velocity=0 time=28
12357	
12358	note_on channel=1 note=40 velocity=0 time=0
12359	note_on channel=1 note=30 velocity=91 time=0
12360	note_on channel=9 note=82 velocity=53 time=0
12361	note_on channel=9 note=37 velocity=127 time=0
12362	note_on channel=10 note=68 velocity=90 time=0
12363	note_on channel=9 note=37 velocity=0 time=10
12364	note_on channel=1 note=30 velocity=0 time=0
12365	note_on channel=9 note=82 velocity=0 time=0
12366	note_on channel=1 note=30 velocity=112 time=20
12367	note_on channel=8 note=73 velocity=0 time=26
12368	note_on channel=8 note=69 velocity=0 time=0
12369	note_on channel=8 note=66 velocity=0 time=2
12370	note_on channel=10 note=68 velocity=0 time=0
12371	
12372	note_on channel=1 note=30 velocity=0 time=0
12373	note_on channel=1 note=28 velocity=78 time=0
12374	note_on channel=8 note=68 velocity=56 time=0
12375	note_on channel=8 note=71 velocity=56 time=0
12376	note_on channel=8 note=76 velocity=56 time=0
12377	note_on channel=9 note=38 velocity=92 time=0
12378	note_on channel=9 note=82 velocity=89 time=0
12379	note_on channel=10 note=69 velocity=90 time=0
12380	note_on channel=9 note=82 velocity=0 time=10
12381	note_on channel=9 note=38 velocity=0 time=1
12382	note_on channel=9 note=38 velocity=93 time=4
12383	note_on channel=1 note=28 velocity=0 time=5
12384	note_on channel=9 note=38 velocity=0 time=8
12385	note_on channel=9 note=38 velocity=93 time=2
12386	note_on channel=9 note=37 velocity=127 time=0
12387	note_on channel=9 note=37 velocity=0 time=10
12388	note_on channel=9 note=38 velocity=0 time=0
12389	note_on channel=9 note=38 velocity=93 time=5
12390	note_on channel=9 note=38 velocity=0 time=9
12391	note_on channel=10 note=69 velocity=0 time=2
12392	note_on channel=1 note=32 velocity=71 time=4
12393	note_on channel=9 note=82 velocity=71 time=0
12394	note_on channel=10 note=68 velocity=90 time=0
12395	note_on channel=9 note=82 velocity=0 time=10
12396	note_on channel=1 note=32 velocity=0 time=0
12397	note_on channel=1 note=38 velocity=89 time=20
12398	note_on channel=9 note=38 velocity=67 time=0
12399	note_on channel=9 note=38 velocity=0 time=11
12400	note_on channel=10 note=68 velocity=0 time=17
12401	
12402	note_on channel=1 note=38 velocity=0 time=0
12403	note_on channel=1 note=40 velocity=92 time=0
12404	note_on channel=9 note=38 velocity=85 time=0
12405	note_on channel=9 note=82 velocity=69 time=0
12406	note_on channel=9 note=37 velocity=127 time=0
12407	note_on channel=10 note=66 velocity=90 time=0
12408	note_on channel=9 note=37 velocity=0 time=10
12409	note_on channel=1 note=40 velocity=0 time=0
12410	note_on channel=9 note=38 velocity=0 time=0
12411	note_on channel=9 note=82 velocity=0 time=0
12412	note_on channel=1 note=38 velocity=89 time=20
12413	note_on channel=9 note=36 velocity=127 time=0
12414	note_on channel=9 note=35 velocity=127 time=0
12415	note_on channel=9 note=35 velocity=0 time=10
12416	note_on channel=1 note=38 velocity=0 time=0
12417	note_on channel=9 note=36 velocity=0 time=0
12418	note_on channel=10 note=66 velocity=0 time=8
12419	note_on channel=1 note=35 velocity=91 time=12
12420	note_on channel=9 note=82 velocity=48 time=0
12421	note_on channel=9 note=82 velocity=0 time=10
12422	note_on channel=1 note=35 velocity=0 time=20
12423	note_on channel=1 note=33 velocity=69 time=0
12424	note_on channel=1 note=33 velocity=0 time=20
12425	note_on channel=8 note=76 velocity=0 time=8
12426	note_on channel=8 note=68 velocity=0 time=0
12427	note_on channel=8 note=71 velocity=0 time=0
12428	
12429	note_on channel=1 note=30 velocity=109 time=0
12430	note_on channel=8 note=66 velocity=60 time=0
12431	note_on channel=8 note=69 velocity=60 time=0
12432	note_on channel=8 note=73 velocity=60 time=0
12433	note_on channel=9 note=36 velocity=127 time=0
12434	note_on channel=9 note=35 velocity=127 time=0
12435	note_on channel=9 note=55 velocity=108 time=0
12436	note_on channel=10 note=69 velocity=90 time=0
12437	note_on channel=13 note=69 velocity=90 time=0
12438	note_on channel=9 note=55 velocity=0 time=10
12439	note_on channel=9 note=35 velocity=0 time=0
12440	note_on channel=9 note=36 velocity=0 time=0
12441	note_on channel=1 note=30 velocity=0 time=40
12442	note_on channel=13 note=69 velocity=0 time=64
12443	note_on channel=10 note=69 velocity=0 time=0
12444	
12445	note_on channel=10 note=68 velocity=90 time=0
12446	note_on channel=13 note=68 velocity=90 time=0
12447	note_on channel=1 note=31 velocity=91 time=30
12448	note_on channel=1 note=31 velocity=0 time=10
12449	
12450	note_on channel=10 note=68 velocity=0 time=0
12451	note_on channel=13 note=68 velocity=0 time=0
12452	note_on channel=1 note=28 velocity=111 time=0
12453	note_on channel=10 note=71 velocity=90 time=0
12454	note_on channel=13 note=71 velocity=90 time=0
12455	note_on channel=1 note=28 velocity=0 time=50
12456	note_on channel=8 note=73 velocity=0 time=7
12457	note_on channel=8 note=66 velocity=0 time=1
12458	note_on channel=8 note=69 velocity=0 time=0
12459	
12460	note_on channel=13 note=71 velocity=0 time=0
12461	note_on channel=10 note=71 velocity=0 time=0
12462	note_on channel=1 note=35 velocity=108 time=0
12463	note_on channel=8 note=66 velocity=54 time=0
12464	note_on channel=8 note=71 velocity=54 time=0
12465	note_on channel=8 note=74 velocity=54 time=0
12466	note_on channel=10 note=69 velocity=90 time=0
12467	note_on channel=13 note=69 velocity=90 time=0
12468	note_on channel=1 note=35 velocity=0 time=40
12469	
12470	note_on channel=10 note=69 velocity=0 time=0
12471	note_on channel=13 note=69 velocity=0 time=0
12472	note_on channel=10 note=68 velocity=90 time=0
12473	note_on channel=13 note=68 velocity=90 time=0
12474	note_on channel=13 note=68 velocity=0 time=50
12475	note_on channel=10 note=68 velocity=0 time=0
12476	
12477	note_on channel=10 note=66 velocity=90 time=0
12478	note_on channel=13 note=66 velocity=90 time=0
12479	
12480	note_on channel=1 note=37 velocity=92 time=0
12481	note_on channel=9 note=38 velocity=67 time=0
12482	note_on channel=10 note=62 velocity=90 time=0
12483	note_on channel=13 note=62 velocity=90 time=0
12484	note_on channel=13 note=66 velocity=0 time=2
12485	note_on channel=10 note=66 velocity=0 time=0
12486	note_on channel=9 note=38 velocity=0 time=8
12487	note_on channel=1 note=37 velocity=0 time=10
12488	note_on channel=9 note=38 velocity=67 time=10
12489	note_on channel=9 note=38 velocity=0 time=10
12490	note_on channel=8 note=74 velocity=0 time=16
12491	note_on channel=8 note=71 velocity=0 time=0
12492	note_on channel=8 note=66 velocity=0 time=0
12493	note_on channel=13 note=62 velocity=0 time=2
12494	note_on channel=10 note=62 velocity=0 time=0
12495	
12496	note_on channel=1 note=30 velocity=112 time=0
12497	note_on channel=8 note=66 velocity=59 time=0
12498	note_on channel=8 note=69 velocity=59 time=0
12499	note_on channel=8 note=73 velocity=59 time=0
12500	note_on channel=9 note=36 velocity=127 time=0
12501	note_on channel=9 note=35 velocity=127 time=0
12502	note_on channel=9 note=62 velocity=111 time=0
12503	note_on channel=9 note=55 velocity=110 time=0
12504	note_on channel=10 note=61 velocity=90 time=0
12505	note_on channel=12 note=66 velocity=90 time=0
12506	note_on channel=13 note=61 velocity=90 time=0
12507	note_on channel=9 note=55 velocity=0 time=10
12508	note_on channel=9 note=62 velocity=0 time=0
12509	note_on channel=9 note=35 velocity=0 time=0
12510	note_on channel=9 note=36 velocity=0 time=2
12511	note_on channel=9 note=63 velocity=60 time=18
12512	note_on channel=9 note=62 velocity=109 time=0
12513	note_on channel=9 note=62 velocity=0 time=10
12514	note_on channel=9 note=63 velocity=0 time=0
12515	note_on channel=1 note=30 velocity=0 time=10
12516	note_on channel=1 note=32 velocity=92 time=10
12517	note_on channel=9 note=82 velocity=109 time=0
12518	note_on channel=9 note=82 velocity=0 time=10
12519	note_on channel=1 note=32 velocity=0 time=50
12520	note_on channel=1 note=30 velocity=91 time=0
12521	note_on channel=9 note=38 velocity=85 time=0
12522	note_on channel=9 note=62 velocity=108 time=0
12523	note_on channel=9 note=37 velocity=127 time=0
12524	note_on channel=9 note=37 velocity=0 time=10
12525	note_on channel=9 note=62 velocity=0 time=0
12526	note_on channel=9 note=38 velocity=0 time=0
12527	note_on channel=1 note=30 velocity=0 time=20
12528	note_on channel=10 note=61 velocity=0 time=8
12529	note_on channel=13 note=61 velocity=0 time=0
12530	
12531	note_on channel=1 note=30 velocity=91 time=0
12532	note_on channel=9 note=82 velocity=111 time=0
12533	note_on channel=10 note=69 velocity=90 time=0
12534	note_on channel=13 note=69 velocity=90 time=0
12535	note_on channel=9 note=82 velocity=0 time=10
12536	note_on channel=1 note=30 velocity=0 time=20
12537	note_on channel=9 note=62 velocity=109 time=0
12538	note_on channel=9 note=62 velocity=0 time=10
12539	note_on channel=12 note=66 velocity=0 time=8
12540	note_on channel=13 note=69 velocity=0 time=6
12541	note_on channel=10 note=69 velocity=0 time=0
12542	note_on channel=8 note=73 velocity=0 time=2
12543	note_on channel=8 note=69 velocity=0 time=1
12544	note_on channel=8 note=66 velocity=0 time=1
12545	
12546	note_on channel=1 note=28 velocity=88 time=0
12547	note_on channel=8 note=68 velocity=54 time=0
12548	note_on channel=8 note=71 velocity=54 time=0
12549	note_on channel=8 note=76 velocity=54 time=0
12550	note_on channel=9 note=64 velocity=68 time=0
12551	note_on channel=10 note=68 velocity=90 time=0
12552	note_on channel=12 note=64 velocity=90 time=0
12553	note_on channel=13 note=68 velocity=90 time=0
12554	note_on channel=9 note=64 velocity=0 time=10
12555	note_on channel=1 note=28 velocity=0 time=20
12556	note_on channel=9 note=63 velocity=58 time=0
12557	note_on channel=9 note=62 velocity=108 time=0
12558	note_on channel=9 note=62 velocity=0 time=10
12559	note_on channel=9 note=63 velocity=0 time=0
12560	note_on channel=1 note=28 velocity=92 time=20
12561	note_on channel=9 note=82 velocity=110 time=0
12562	note_on channel=9 note=63 velocity=59 time=0
12563	note_on channel=9 note=63 velocity=0 time=10
12564	note_on channel=9 note=82 velocity=0 time=0
12565	note_on channel=1 note=28 velocity=0 time=20
12566	note_on channel=9 note=63 velocity=59 time=0
12567	note_on channel=9 note=63 velocity=0 time=10
12568	note_on channel=1 note=28 velocity=89 time=20
12569	note_on channel=9 note=38 velocity=86 time=0
12570	note_on channel=9 note=64 velocity=67 time=0
12571	note_on channel=9 note=37 velocity=127 time=0
12572	note_on channel=9 note=37 velocity=0 time=10
12573	note_on channel=9 note=64 velocity=0 time=0
12574	note_on channel=9 note=38 velocity=0 time=0
12575	note_on channel=9 note=62 velocity=109 time=20
12576	note_on channel=9 note=62 velocity=0 time=10
12577	note_on channel=1 note=28 velocity=0 time=10
12578	note_on channel=12 note=64 velocity=0 time=8
12579	note_on channel=1 note=28 velocity=89 time=2
12580	note_on channel=9 note=36 velocity=127 time=0
12581	note_on channel=9 note=82 velocity=111 time=0
12582	note_on channel=9 note=62 velocity=108 time=0
12583	note_on channel=12 note=66 velocity=90 time=0
12584	note_on channel=13 note=68 velocity=0 time=4
12585	note_on channel=10 note=68 velocity=0 time=0
12586	note_on channel=9 note=62 velocity=0 time=6
12587	note_on channel=9 note=82 velocity=0 time=0
12588	note_on channel=9 note=36 velocity=0 time=2
12589	note_on channel=9 note=35 velocity=127 time=18
12590	note_on channel=9 note=62 velocity=110 time=0
12591	note_on channel=9 note=62 velocity=0 time=10
12592	note_on channel=9 note=35 velocity=0 time=4
12593	note_on channel=8 note=68 velocity=0 time=12
12594	note_on channel=8 note=71 velocity=0 time=1
12595	note_on channel=8 note=76 velocity=0 time=1
12596	
12597	note_on channel=1 note=28 velocity=0 time=0
12598	note_on channel=1 note=30 velocity=108 time=0
12599	note_on channel=8 note=66 velocity=59 time=0
12600	note_on channel=8 note=69 velocity=59 time=0
12601	note_on channel=8 note=73 velocity=59 time=0
12602	note_on channel=9 note=36 velocity=127 time=0
12603	note_on channel=9 note=35 velocity=127 time=0
12604	note_on channel=9 note=62 velocity=111 time=0
12605	note_on channel=10 note=69 velocity=90 time=0
12606	note_on channel=12 note=61 velocity=90 time=0
12607	note_on channel=13 note=69 velocity=90 time=0
12608	note_on channel=12 note=66 velocity=0 time=2
12609	note_on channel=9 note=62 velocity=0 time=8
12610	note_on channel=9 note=35 velocity=0 time=0
12611	note_on channel=9 note=36 velocity=0 time=2
12612	note_on channel=1 note=30 velocity=0 time=18
12613	note_on channel=9 note=63 velocity=60 time=0
12614	note_on channel=9 note=62 velocity=109 time=0
12615	note_on channel=9 note=62 velocity=0 time=10
12616	note_on channel=9 note=63 velocity=0 time=0
12617	note_on channel=1 note=30 velocity=88 time=20
12618	note_on channel=9 note=82 velocity=109 time=0
12619	note_on channel=9 note=82 velocity=0 time=10
12620	note_on channel=1 note=30 velocity=0 time=20
12621	note_on channel=10 note=69 velocity=0 time=24
12622	note_on channel=13 note=69 velocity=0 time=0
12623	
12624	note_on channel=1 note=30 velocity=89 time=0
12625	note_on channel=9 note=38 velocity=85 time=0
12626	note_on channel=9 note=62 velocity=108 time=0
12627	note_on channel=9 note=37 velocity=127 time=0
12628	note_on channel=10 note=68 velocity=90 time=0
12629	note_on channel=13 note=68 velocity=90 time=0
12630	note_on channel=9 note=37 velocity=0 time=10
12631	note_on channel=9 note=62 velocity=0 time=0
12632	note_on channel=9 note=38 velocity=0 time=0
12633	note_on channel=1 note=30 velocity=0 time=40
12634	
12635	note_on channel=10 note=68 velocity=0 time=0
12636	note_on channel=13 note=68 velocity=0 time=0
12637	note_on channel=1 note=30 velocity=91 time=0
12638	note_on channel=9 note=82 velocity=111 time=0
12639	note_on channel=10 note=71 velocity=90 time=0
12640	note_on channel=13 note=71 velocity=90 time=0
12641	note_on channel=9 note=82 velocity=0 time=10
12642	note_on channel=9 note=62 velocity=109 time=20
12643	note_on channel=9 note=62 velocity=0 time=10
12644	note_on channel=8 note=66 velocity=0 time=16
12645	note_on channel=8 note=69 velocity=0 time=0
12646	note_on channel=8 note=73 velocity=0 time=1
12647	
12648	note_on channel=1 note=30 velocity=0 time=0
12649	note_on channel=13 note=71 velocity=0 time=0
12650	note_on channel=10 note=71 velocity=0 time=0
12651	note_on channel=1 note=35 velocity=88 time=0
12652	note_on channel=8 note=66 velocity=56 time=0
12653	note_on channel=8 note=71 velocity=56 time=0
12654	note_on channel=8 note=74 velocity=56 time=0
12655	note_on channel=9 note=64 velocity=68 time=0
12656	note_on channel=10 note=69 velocity=90 time=0
12657	note_on channel=13 note=69 velocity=90 time=0
12658	note_on channel=12 note=61 velocity=0 time=6
12659	note_on channel=9 note=64 velocity=0 time=4
12660	note_on channel=9 note=63 velocity=58 time=20
12661	note_on channel=9 note=62 velocity=108 time=0
12662	note_on channel=9 note=62 velocity=0 time=10
12663	note_on channel=9 note=63 velocity=0 time=0
12664	note_on channel=1 note=35 velocity=0 time=10
12665	note_on channel=13 note=69 velocity=0 time=10
12666	note_on channel=10 note=69 velocity=0 time=0
12667	note_on channel=1 note=35 velocity=91 time=0
12668	note_on channel=9 note=82 velocity=110 time=0
12669	note_on channel=9 note=63 velocity=59 time=0
12670	note_on channel=10 note=68 velocity=90 time=0
12671	note_on channel=13 note=68 velocity=90 time=0
12672	note_on channel=9 note=63 velocity=0 time=10
12673	note_on channel=9 note=82 velocity=0 time=0
12674	note_on channel=9 note=63 velocity=59 time=20
12675	note_on channel=9 note=63 velocity=0 time=10
12676	note_on channel=10 note=68 velocity=0 time=10
12677	note_on channel=13 note=68 velocity=0 time=0
12678	
12679	note_on channel=1 note=35 velocity=0 time=0
12680	note_on channel=1 note=35 velocity=91 time=0
12681	note_on channel=9 note=38 velocity=86 time=0
12682	note_on channel=9 note=64 velocity=67 time=0
12683	note_on channel=9 note=37 velocity=127 time=0
12684	note_on channel=10 note=66 velocity=90 time=0
12685	note_on channel=13 note=66 velocity=90 time=0
12686	note_on channel=9 note=37 velocity=0 time=10
12687	note_on channel=9 note=64 velocity=0 time=0
12688	note_on channel=9 note=38 velocity=0 time=0
12689	note_on channel=9 note=62 velocity=109 time=20
12690	note_on channel=9 note=62 velocity=0 time=10
12691	note_on channel=1 note=35 velocity=0 time=10
12692	note_on channel=1 note=35 velocity=88 time=10
12693	note_on channel=9 note=36 velocity=127 time=0
12694	note_on channel=9 note=82 velocity=111 time=0
12695	note_on channel=9 note=62 velocity=108 time=0
12696	note_on channel=10 note=62 velocity=90 time=0
12697	note_on channel=13 note=62 velocity=90 time=0
12698	note_on channel=13 note=66 velocity=0 time=2
12699	note_on channel=10 note=66 velocity=0 time=0
12700	note_on channel=9 note=62 velocity=0 time=8
12701	note_on channel=9 note=82 velocity=0 time=0
12702	note_on channel=9 note=36 velocity=0 time=2
12703	note_on channel=9 note=35 velocity=127 time=18
12704	note_on channel=9 note=62 velocity=110 time=0
12705	note_on channel=9 note=62 velocity=0 time=10
12706	note_on channel=9 note=35 velocity=0 time=4
12707	note_on channel=8 note=71 velocity=0 time=12
12708	note_on channel=8 note=66 velocity=0 time=1
12709	note_on channel=8 note=74 velocity=0 time=0
12710	note_on channel=13 note=62 velocity=0 time=1
12711	note_on channel=10 note=62 velocity=0 time=0
12712	
12713	note_on channel=1 note=35 velocity=0 time=0
12714	note_on channel=1 note=30 velocity=108 time=0
12715	note_on channel=8 note=66 velocity=61 time=0
12716	note_on channel=8 note=69 velocity=61 time=0
12717	note_on channel=8 note=73 velocity=61 time=0
12718	note_on channel=9 note=36 velocity=127 time=0
12719	note_on channel=9 note=35 velocity=127 time=0
12720	note_on channel=9 note=62 velocity=111 time=0
12721	note_on channel=10 note=61 velocity=90 time=0
12722	note_on channel=12 note=66 velocity=90 time=0
12723	note_on channel=13 note=61 velocity=90 time=0
12724	note_on channel=9 note=62 velocity=0 time=10
12725	note_on channel=9 note=35 velocity=0 time=0
12726	note_on channel=9 note=36 velocity=0 time=2
12727	note_on channel=9 note=63 velocity=60 time=18
12728	note_on channel=9 note=62 velocity=109 time=0
12729	note_on channel=9 note=62 velocity=0 time=10
12730	note_on channel=9 note=63 velocity=0 time=0
12731	note_on channel=1 note=30 velocity=0 time=10
12732	note_on channel=1 note=30 velocity=92 time=10
12733	note_on channel=9 note=82 velocity=109 time=0
12734	note_on channel=9 note=82 velocity=0 time=10
12735	note_on channel=1 note=30 velocity=0 time=50
12736	note_on channel=1 note=28 velocity=92 time=0
12737	note_on channel=9 note=38 velocity=85 time=0
12738	note_on channel=9 note=62 velocity=108 time=0
12739	note_on channel=9 note=37 velocity=127 time=0
12740	note_on channel=9 note=37 velocity=0 time=10
12741	note_on channel=9 note=62 velocity=0 time=0
12742	note_on channel=9 note=38 velocity=0 time=0
12743	note_on channel=1 note=28 velocity=0 time=20
12744	note_on channel=10 note=61 velocity=0 time=8
12745	note_on channel=13 note=61 velocity=0 time=0
12746	
12747	note_on channel=1 note=30 velocity=88 time=0
12748	note_on channel=9 note=82 velocity=111 time=0
12749	note_on channel=10 note=74 velocity=90 time=0
12750	note_on channel=13 note=74 velocity=90 time=0
12751	note_on channel=9 note=82 velocity=0 time=10
12752	note_on channel=1 note=30 velocity=0 time=20
12753	note_on channel=9 note=62 velocity=109 time=0
12754	note_on channel=9 note=62 velocity=0 time=10
12755	note_on channel=12 note=66 velocity=0 time=8
12756	note_on channel=13 note=74 velocity=0 time=6
12757	note_on channel=10 note=74 velocity=0 time=0
12758	note_on channel=8 note=73 velocity=0 time=2
12759	note_on channel=8 note=69 velocity=0 time=1
12760	note_on channel=8 note=66 velocity=0 time=1
12761	
12762	note_on channel=1 note=30 velocity=88 time=0
12763	note_on channel=8 note=66 velocity=54 time=0
12764	note_on channel=8 note=69 velocity=54 time=0
12765	note_on channel=8 note=73 velocity=54 time=0
12766	note_on channel=9 note=64 velocity=68 time=0
12767	note_on channel=10 note=73 velocity=90 time=0
12768	note_on channel=12 note=64 velocity=90 time=0
12769	note_on channel=13 note=73 velocity=90 time=0
12770	note_on channel=9 note=64 velocity=0 time=10
12771	note_on channel=1 note=30 velocity=0 time=20
12772	note_on channel=9 note=63 velocity=58 time=0
12773	note_on channel=9 note=62 velocity=108 time=0
12774	note_on channel=9 note=62 velocity=0 time=10
12775	note_on channel=9 note=63 velocity=0 time=0
12776	note_on channel=1 note=28 velocity=91 time=20
12777	note_on channel=9 note=82 velocity=110 time=0
12778	note_on channel=9 note=63 velocity=59 time=0
12779	note_on channel=9 note=63 velocity=0 time=10
12780	note_on channel=9 note=82 velocity=0 time=0
12781	note_on channel=1 note=28 velocity=0 time=20
12782	note_on channel=9 note=63 velocity=59 time=0
12783	note_on channel=9 note=63 velocity=0 time=10
12784	note_on channel=1 note=30 velocity=91 time=20
12785	note_on channel=9 note=38 velocity=86 time=0
12786	note_on channel=9 note=64 velocity=67 time=0
12787	note_on channel=9 note=37 velocity=127 time=0
12788	note_on channel=9 note=37 velocity=0 time=10
12789	note_on channel=9 note=64 velocity=0 time=0
12790	note_on channel=9 note=38 velocity=0 time=0
12791	note_on channel=9 note=62 velocity=109 time=20
12792	note_on channel=9 note=62 velocity=0 time=10
12793	note_on channel=1 note=30 velocity=0 time=10
12794	note_on channel=12 note=64 velocity=0 time=8
12795	note_on channel=1 note=32 velocity=91 time=2
12796	note_on channel=9 note=36 velocity=127 time=0
12797	note_on channel=9 note=82 velocity=111 time=0
12798	note_on channel=9 note=62 velocity=108 time=0
12799	note_on channel=12 note=66 velocity=90 time=0
12800	note_on channel=13 note=73 velocity=0 time=4
12801	note_on channel=10 note=73 velocity=0 time=0
12802	note_on channel=9 note=62 velocity=0 time=6
12803	note_on channel=9 note=82 velocity=0 time=0
12804	note_on channel=9 note=36 velocity=0 time=2
12805	note_on channel=9 note=35 velocity=127 time=18
12806	note_on channel=9 note=62 velocity=110 time=0
12807	note_on channel=9 note=62 velocity=0 time=10
12808	note_on channel=9 note=35 velocity=0 time=4
12809	note_on channel=8 note=66 velocity=0 time=12
12810	note_on channel=8 note=69 velocity=0 time=2
12811	note_on channel=8 note=73 velocity=0 time=0
12812	
12813	note_on channel=1 note=32 velocity=0 time=0
12814	note_on channel=1 note=30 velocity=111 time=0
12815	note_on channel=8 note=66 velocity=60 time=0
12816	note_on channel=8 note=69 velocity=60 time=0
12817	note_on channel=8 note=73 velocity=60 time=0
12818	note_on channel=9 note=36 velocity=127 time=0
12819	note_on channel=9 note=35 velocity=127 time=0
12820	note_on channel=9 note=62 velocity=111 time=0
12821	note_on channel=10 note=69 velocity=90 time=0
12822	note_on channel=12 note=61 velocity=90 time=0
12823	note_on channel=13 note=69 velocity=90 time=0
12824	note_on channel=12 note=66 velocity=0 time=2
12825	note_on channel=9 note=62 velocity=0 time=8
12826	note_on channel=9 note=35 velocity=0 time=0
12827	note_on channel=9 note=36 velocity=0 time=2
12828	note_on channel=1 note=30 velocity=0 time=18
12829	note_on channel=9 note=63 velocity=60 time=0
12830	note_on channel=9 note=62 velocity=109 time=0
12831	note_on channel=9 note=62 velocity=0 time=10
12832	note_on channel=9 note=63 velocity=0 time=0
12833	note_on channel=1 note=28 velocity=91 time=20
12834	note_on channel=9 note=82 velocity=109 time=0
12835	note_on channel=9 note=82 velocity=0 time=10
12836	note_on channel=1 note=28 velocity=0 time=20
12837	note_on channel=10 note=69 velocity=0 time=24
12838	note_on channel=13 note=69 velocity=0 time=0
12839	
12840	note_on channel=1 note=30 velocity=91 time=0
12841	note_on channel=9 note=38 velocity=85 time=0
12842	note_on channel=9 note=62 velocity=108 time=0
12843	note_on channel=9 note=37 velocity=127 time=0
12844	note_on channel=10 note=68 velocity=90 time=0
12845	note_on channel=13 note=68 velocity=90 time=0
12846	note_on channel=9 note=37 velocity=0 time=10
12847	note_on channel=9 note=62 velocity=0 time=0
12848	note_on channel=9 note=38 velocity=0 time=0
12849	note_on channel=1 note=30 velocity=0 time=40
12850	
12851	note_on channel=10 note=68 velocity=0 time=0
12852	note_on channel=13 note=68 velocity=0 time=0
12853	note_on channel=1 note=30 velocity=90 time=0
12854	note_on channel=9 note=82 velocity=111 time=0
12855	note_on channel=10 note=71 velocity=90 time=0
12856	note_on channel=13 note=71 velocity=90 time=0
12857	note_on channel=9 note=82 velocity=0 time=10
12858	note_on channel=9 note=62 velocity=109 time=20
12859	note_on channel=9 note=62 velocity=0 time=10
12860	note_on channel=8 note=73 velocity=0 time=16
12861	note_on channel=8 note=69 velocity=0 time=2
12862	note_on channel=8 note=66 velocity=0 time=0
12863	
12864	note_on channel=1 note=30 velocity=0 time=0
12865	note_on channel=13 note=71 velocity=0 time=0
12866	note_on channel=10 note=71 velocity=0 time=0
12867	note_on channel=1 note=35 velocity=90 time=0
12868	note_on channel=8 note=66 velocity=54 time=0
12869	note_on channel=8 note=71 velocity=54 time=0
12870	note_on channel=8 note=74 velocity=54 time=0
12871	note_on channel=9 note=64 velocity=68 time=0
12872	note_on channel=10 note=69 velocity=90 time=0
12873	note_on channel=13 note=69 velocity=90 time=0
12874	note_on channel=12 note=61 velocity=0 time=6
12875	note_on channel=9 note=64 velocity=0 time=4
12876	note_on channel=1 note=35 velocity=0 time=20
12877	note_on channel=9 note=63 velocity=58 time=0
12878	note_on channel=9 note=62 velocity=108 time=0
12879	note_on channel=9 note=62 velocity=0 time=10
12880	note_on channel=9 note=63 velocity=0 time=0
12881	
12882	note_on channel=10 note=69 velocity=0 time=0
12883	note_on channel=13 note=69 velocity=0 time=0
12884	note_on channel=1 note=35 velocity=88 time=0
12885	note_on channel=9 note=82 velocity=110 time=0
12886	note_on channel=9 note=63 velocity=59 time=0
12887	note_on channel=10 note=68 velocity=90 time=0
12888	note_on channel=13 note=68 velocity=90 time=0
12889	note_on channel=9 note=63 velocity=0 time=10
12890	note_on channel=9 note=82 velocity=0 time=0
12891	note_on channel=1 note=35 velocity=0 time=20
12892	note_on channel=9 note=63 velocity=59 time=0
12893	note_on channel=9 note=63 velocity=0 time=10
12894	note_on channel=10 note=68 velocity=0 time=10
12895	note_on channel=13 note=68 velocity=0 time=0
12896	
12897	note_on channel=1 note=33 velocity=88 time=0
12898	note_on channel=9 note=38 velocity=86 time=0
12899	note_on channel=9 note=64 velocity=67 time=0
12900	note_on channel=9 note=37 velocity=127 time=0
12901	note_on channel=10 note=66 velocity=90 time=0
12902	note_on channel=13 note=66 velocity=90 time=0
12903	note_on channel=9 note=37 velocity=0 time=10
12904	note_on channel=9 note=64 velocity=0 time=0
12905	note_on channel=9 note=38 velocity=0 time=0
12906	note_on channel=9 note=62 velocity=109 time=20
12907	note_on channel=9 note=62 velocity=0 time=10
12908	note_on channel=1 note=33 velocity=0 time=10
12909	
12910	note_on channel=1 note=31 velocity=91 time=0
12911	note_on channel=9 note=36 velocity=127 time=0
12912	note_on channel=9 note=82 velocity=111 time=0
12913	note_on channel=9 note=62 velocity=108 time=0
12914	note_on channel=10 note=62 velocity=90 time=0
12915	note_on channel=13 note=62 velocity=90 time=0
12916	note_on channel=13 note=66 velocity=0 time=2
12917	note_on channel=10 note=66 velocity=0 time=0
12918	note_on channel=9 note=62 velocity=0 time=8
12919	note_on channel=9 note=82 velocity=0 time=0
12920	note_on channel=9 note=36 velocity=0 time=2
12921	note_on channel=9 note=35 velocity=127 time=18
12922	note_on channel=9 note=62 velocity=110 time=0
12923	note_on channel=9 note=62 velocity=0 time=10
12924	note_on channel=9 note=35 velocity=0 time=4
12925	note_on channel=8 note=74 velocity=0 time=12
12926	note_on channel=8 note=71 velocity=0 time=1
12927	note_on channel=13 note=62 velocity=0 time=1
12928	note_on channel=10 note=62 velocity=0 time=0
12929	note_on channel=8 note=66 velocity=0 time=0
12930	
12931	note_on channel=1 note=31 velocity=0 time=0
12932	note_on channel=1 note=30 velocity=110 time=0
12933	note_on channel=8 note=66 velocity=59 time=0
12934	note_on channel=8 note=69 velocity=59 time=0
12935	note_on channel=8 note=73 velocity=59 time=0
12936	note_on channel=9 note=36 velocity=127 time=0
12937	note_on channel=9 note=35 velocity=127 time=0
12938	note_on channel=9 note=62 velocity=111 time=0
12939	note_on channel=10 note=61 velocity=90 time=0
12940	note_on channel=12 note=66 velocity=90 time=0
12941	note_on channel=13 note=61 velocity=90 time=0
12942	note_on channel=9 note=62 velocity=0 time=10
12943	note_on channel=9 note=35 velocity=0 time=0
12944	note_on channel=9 note=36 velocity=0 time=2
12945	note_on channel=9 note=63 velocity=60 time=18
12946	note_on channel=9 note=62 velocity=109 time=0
12947	note_on channel=9 note=62 velocity=0 time=10
12948	note_on channel=9 note=63 velocity=0 time=0
12949	note_on channel=1 note=30 velocity=0 time=10
12950	note_on channel=1 note=32 velocity=91 time=10
12951	note_on channel=9 note=82 velocity=109 time=0
12952	note_on channel=9 note=82 velocity=0 time=10
12953	note_on channel=1 note=32 velocity=0 time=50
12954	note_on channel=1 note=30 velocity=88 time=0
12955	note_on channel=9 note=38 velocity=85 time=0
12956	note_on channel=9 note=62 velocity=108 time=0
12957	note_on channel=9 note=37 velocity=127 time=0
12958	note_on channel=9 note=37 velocity=0 time=10
12959	note_on channel=9 note=62 velocity=0 time=0
12960	note_on channel=9 note=38 velocity=0 time=0
12961	note_on channel=13 note=61 velocity=0 time=28
12962	note_on channel=10 note=61 velocity=0 time=0
12963	note_on channel=1 note=30 velocity=0 time=12
12964	
12965	note_on channel=1 note=30 velocity=88 time=0
12966	note_on channel=9 note=82 velocity=111 time=0
12967	note_on channel=10 note=69 velocity=90 time=0
12968	note_on channel=13 note=69 velocity=90 time=0
12969	note_on channel=9 note=82 velocity=0 time=10
12970	note_on channel=9 note=62 velocity=109 time=20
12971	note_on channel=9 note=62 velocity=0 time=10
12972	note_on channel=12 note=66 velocity=0 time=8
12973	note_on channel=1 note=30 velocity=0 time=2
12974	note_on channel=13 note=69 velocity=0 time=4
12975	note_on channel=10 note=69 velocity=0 time=0
12976	note_on channel=8 note=73 velocity=0 time=3
12977	note_on channel=8 note=69 velocity=0 time=1
12978	note_on channel=8 note=66 velocity=0 time=0
12979	
12980	note_on channel=1 note=28 velocity=92 time=0
12981	note_on channel=8 note=68 velocity=54 time=0
12982	note_on channel=8 note=71 velocity=54 time=0
12983	note_on channel=8 note=76 velocity=54 time=0
12984	note_on channel=9 note=64 velocity=68 time=0
12985	note_on channel=10 note=68 velocity=90 time=0
12986	note_on channel=12 note=64 velocity=90 time=0
12987	note_on channel=13 note=68 velocity=90 time=0
12988	note_on channel=9 note=64 velocity=0 time=10
12989	note_on channel=9 note=63 velocity=58 time=20
12990	note_on channel=9 note=62 velocity=108 time=0
12991	note_on channel=9 note=62 velocity=0 time=10
12992	note_on channel=9 note=63 velocity=0 time=0
12993	note_on channel=1 note=28 velocity=0 time=10
12994	note_on channel=1 note=30 velocity=89 time=10
12995	note_on channel=9 note=82 velocity=110 time=0
12996	note_on channel=9 note=63 velocity=59 time=0
12997	note_on channel=9 note=63 velocity=0 time=10
12998	note_on channel=9 note=82 velocity=0 time=0
12999	note_on channel=9 note=63 velocity=59 time=20
13000	note_on channel=9 note=63 velocity=0 time=10
13001	note_on channel=1 note=30 velocity=0 time=20
13002	note_on channel=1 note=28 velocity=91 time=0
13003	note_on channel=9 note=38 velocity=86 time=0
13004	note_on channel=9 note=64 velocity=67 time=0
13005	note_on channel=9 note=37 velocity=127 time=0
13006	note_on channel=9 note=37 velocity=0 time=10
13007	note_on channel=9 note=64 velocity=0 time=0
13008	note_on channel=9 note=38 velocity=0 time=0
13009	note_on channel=9 note=62 velocity=109 time=20
13010	note_on channel=9 note=62 velocity=0 time=10
13011	note_on channel=1 note=28 velocity=0 time=10
13012	note_on channel=12 note=64 velocity=0 time=8
13013	note_on channel=1 note=28 velocity=92 time=2
13014	note_on channel=9 note=36 velocity=127 time=0
13015	note_on channel=9 note=82 velocity=111 time=0
13016	note_on channel=9 note=62 velocity=108 time=0
13017	note_on channel=12 note=66 velocity=90 time=0
13018	note_on channel=13 note=68 velocity=0 time=4
13019	note_on channel=10 note=68 velocity=0 time=0
13020	note_on channel=9 note=62 velocity=0 time=6
13021	note_on channel=9 note=82 velocity=0 time=0
13022	note_on channel=9 note=36 velocity=0 time=2
13023	note_on channel=9 note=35 velocity=127 time=18
13024	note_on channel=9 note=62 velocity=110 time=0
13025	note_on channel=9 note=62 velocity=0 time=10
13026	note_on channel=9 note=35 velocity=0 time=4
13027	note_on channel=8 note=76 velocity=0 time=12
13028	note_on channel=8 note=68 velocity=0 time=1
13029	note_on channel=8 note=71 velocity=0 time=1
13030	
13031	note_on channel=1 note=28 velocity=0 time=0
13032	note_on channel=1 note=30 velocity=108 time=0
13033	note_on channel=8 note=66 velocity=59 time=0
13034	note_on channel=8 note=69 velocity=59 time=0
13035	note_on channel=8 note=73 velocity=59 time=0
13036	note_on channel=9 note=36 velocity=127 time=0
13037	note_on channel=9 note=35 velocity=127 time=0
13038	note_on channel=9 note=62 velocity=111 time=0
13039	note_on channel=10 note=69 velocity=90 time=0
13040	note_on channel=12 note=61 velocity=90 time=0
13041	note_on channel=13 note=69 velocity=90 time=0
13042	note_on channel=12 note=66 velocity=0 time=2
13043	note_on channel=9 note=62 velocity=0 time=8
13044	note_on channel=9 note=35 velocity=0 time=0
13045	note_on channel=9 note=36 velocity=0 time=2
13046	note_on channel=1 note=30 velocity=0 time=18
13047	note_on channel=9 note=63 velocity=60 time=0
13048	note_on channel=9 note=62 velocity=109 time=0
13049	note_on channel=9 note=62 velocity=0 time=10
13050	note_on channel=9 note=63 velocity=0 time=0
13051	note_on channel=1 note=30 velocity=88 time=20
13052	note_on channel=9 note=82 velocity=109 time=0
13053	note_on channel=9 note=82 velocity=0 time=10
13054	note_on channel=1 note=30 velocity=0 time=20
13055	note_on channel=10 note=69 velocity=0 time=24
13056	note_on channel=13 note=69 velocity=0 time=0
13057	
13058	note_on channel=1 note=30 velocity=89 time=0
13059	note_on channel=9 note=38 velocity=85 time=0
13060	note_on channel=9 note=62 velocity=108 time=0
13061	note_on channel=9 note=37 velocity=127 time=0
13062	note_on channel=10 note=68 velocity=90 time=0
13063	note_on channel=13 note=68 velocity=90 time=0
13064	note_on channel=9 note=37 velocity=0 time=10
13065	note_on channel=9 note=62 velocity=0 time=0
13066	note_on channel=9 note=38 velocity=0 time=0
13067	note_on channel=1 note=30 velocity=0 time=40
13068	
13069	note_on channel=10 note=68 velocity=0 time=0
13070	note_on channel=13 note=68 velocity=0 time=0
13071	note_on channel=1 note=30 velocity=91 time=0
13072	note_on channel=9 note=82 velocity=111 time=0
13073	note_on channel=10 note=71 velocity=90 time=0
13074	note_on channel=13 note=71 velocity=90 time=0
13075	note_on channel=9 note=82 velocity=0 time=10
13076	note_on channel=9 note=62 velocity=109 time=20
13077	note_on channel=9 note=62 velocity=0 time=10
13078	note_on channel=8 note=66 velocity=0 time=16
13079	note_on channel=8 note=69 velocity=0 time=0
13080	note_on channel=8 note=73 velocity=0 time=1
13081	
13082	note_on channel=1 note=30 velocity=0 time=0
13083	note_on channel=13 note=71 velocity=0 time=0
13084	note_on channel=10 note=71 velocity=0 time=0
13085	note_on channel=1 note=35 velocity=88 time=0
13086	note_on channel=8 note=66 velocity=56 time=0
13087	note_on channel=8 note=71 velocity=56 time=0
13088	note_on channel=8 note=74 velocity=56 time=0
13089	note_on channel=9 note=64 velocity=68 time=0
13090	note_on channel=10 note=69 velocity=90 time=0
13091	note_on channel=13 note=69 velocity=90 time=0
13092	note_on channel=12 note=61 velocity=0 time=6
13093	note_on channel=9 note=64 velocity=0 time=4
13094	note_on channel=9 note=63 velocity=58 time=20
13095	note_on channel=9 note=62 velocity=108 time=0
13096	note_on channel=9 note=62 velocity=0 time=10
13097	note_on channel=9 note=63 velocity=0 time=0
13098	note_on channel=1 note=35 velocity=0 time=10
13099	note_on channel=13 note=69 velocity=0 time=10
13100	note_on channel=10 note=69 velocity=0 time=0
13101	note_on channel=1 note=35 velocity=91 time=0
13102	note_on channel=9 note=82 velocity=110 time=0
13103	note_on channel=9 note=63 velocity=59 time=0
13104	note_on channel=10 note=68 velocity=90 time=0
13105	note_on channel=13 note=68 velocity=90 time=0
13106	note_on channel=9 note=63 velocity=0 time=10
13107	note_on channel=9 note=82 velocity=0 time=0
13108	note_on channel=9 note=63 velocity=59 time=20
13109	note_on channel=9 note=63 velocity=0 time=10
13110	note_on channel=10 note=68 velocity=0 time=10
13111	note_on channel=13 note=68 velocity=0 time=0
13112	
13113	note_on channel=1 note=35 velocity=0 time=0
13114	note_on channel=1 note=35 velocity=91 time=0
13115	note_on channel=9 note=38 velocity=86 time=0
13116	note_on channel=9 note=64 velocity=67 time=0
13117	note_on channel=9 note=37 velocity=127 time=0
13118	note_on channel=10 note=66 velocity=90 time=0
13119	note_on channel=13 note=66 velocity=90 time=0
13120	note_on channel=9 note=37 velocity=0 time=10
13121	note_on channel=9 note=64 velocity=0 time=0
13122	note_on channel=9 note=38 velocity=0 time=0
13123	note_on channel=9 note=62 velocity=109 time=20
13124	note_on channel=9 note=62 velocity=0 time=10
13125	note_on channel=1 note=35 velocity=0 time=10
13126	note_on channel=1 note=35 velocity=88 time=10
13127	note_on channel=9 note=36 velocity=127 time=0
13128	note_on channel=9 note=82 velocity=111 time=0
13129	note_on channel=9 note=62 velocity=108 time=0
13130	note_on channel=10 note=62 velocity=90 time=0
13131	note_on channel=13 note=62 velocity=90 time=0
13132	note_on channel=13 note=66 velocity=0 time=2
13133	note_on channel=10 note=66 velocity=0 time=0
13134	note_on channel=9 note=62 velocity=0 time=8
13135	note_on channel=9 note=82 velocity=0 time=0
13136	note_on channel=9 note=36 velocity=0 time=2
13137	note_on channel=9 note=35 velocity=127 time=18
13138	note_on channel=9 note=62 velocity=110 time=0
13139	note_on channel=9 note=62 velocity=0 time=10
13140	note_on channel=9 note=35 velocity=0 time=4
13141	note_on channel=8 note=71 velocity=0 time=12
13142	note_on channel=8 note=66 velocity=0 time=1
13143	note_on channel=8 note=74 velocity=0 time=0
13144	note_on channel=13 note=62 velocity=0 time=1
13145	note_on channel=10 note=62 velocity=0 time=0
13146	
13147	note_on channel=1 note=35 velocity=0 time=0
13148	note_on channel=1 note=30 velocity=108 time=0
13149	note_on channel=8 note=66 velocity=61 time=0
13150	note_on channel=8 note=69 velocity=61 time=0
13151	note_on channel=8 note=73 velocity=61 time=0
13152	note_on channel=9 note=36 velocity=127 time=0
13153	note_on channel=9 note=35 velocity=127 time=0
13154	note_on channel=9 note=62 velocity=111 time=0
13155	note_on channel=10 note=61 velocity=90 time=0
13156	note_on channel=12 note=66 velocity=90 time=0
13157	note_on channel=13 note=61 velocity=90 time=0
13158	note_on channel=9 note=62 velocity=0 time=10
13159	note_on channel=9 note=35 velocity=0 time=0
13160	note_on channel=9 note=36 velocity=0 time=2
13161	note_on channel=9 note=63 velocity=60 time=18
13162	note_on channel=9 note=62 velocity=109 time=0
13163	note_on channel=9 note=62 velocity=0 time=10
13164	note_on channel=9 note=63 velocity=0 time=0
13165	note_on channel=1 note=30 velocity=0 time=10
13166	note_on channel=1 note=30 velocity=92 time=10
13167	note_on channel=9 note=82 velocity=109 time=0
13168	note_on channel=9 note=82 velocity=0 time=10
13169	note_on channel=1 note=30 velocity=0 time=50
13170	note_on channel=1 note=28 velocity=92 time=0
13171	note_on channel=9 note=38 velocity=85 time=0
13172	note_on channel=9 note=62 velocity=108 time=0
13173	note_on channel=9 note=37 velocity=127 time=0
13174	note_on channel=9 note=37 velocity=0 time=10
13175	note_on channel=9 note=62 velocity=0 time=0
13176	note_on channel=9 note=38 velocity=0 time=0
13177	note_on channel=1 note=28 velocity=0 time=20
13178	note_on channel=10 note=61 velocity=0 time=8
13179	note_on channel=13 note=61 velocity=0 time=0
13180	
13181	note_on channel=1 note=30 velocity=88 time=0
13182	note_on channel=9 note=82 velocity=111 time=0
13183	note_on channel=10 note=74 velocity=90 time=0
13184	note_on channel=13 note=74 velocity=90 time=0
13185	note_on channel=9 note=82 velocity=0 time=10
13186	note_on channel=1 note=30 velocity=0 time=20
13187	note_on channel=9 note=62 velocity=109 time=0
13188	note_on channel=9 note=62 velocity=0 time=10
13189	note_on channel=12 note=66 velocity=0 time=8
13190	note_on channel=13 note=74 velocity=0 time=6
13191	note_on channel=10 note=74 velocity=0 time=0
13192	note_on channel=8 note=73 velocity=0 time=2
13193	note_on channel=8 note=69 velocity=0 time=1
13194	note_on channel=8 note=66 velocity=0 time=1
13195	
13196	note_on channel=1 note=30 velocity=88 time=0
13197	note_on channel=8 note=66 velocity=54 time=0
13198	note_on channel=8 note=69 velocity=54 time=0
13199	note_on channel=8 note=73 velocity=54 time=0
13200	note_on channel=9 note=64 velocity=68 time=0
13201	note_on channel=10 note=73 velocity=90 time=0
13202	note_on channel=12 note=64 velocity=90 time=0
13203	note_on channel=13 note=73 velocity=90 time=0
13204	note_on channel=9 note=64 velocity=0 time=10
13205	note_on channel=1 note=30 velocity=0 time=20
13206	note_on channel=9 note=63 velocity=58 time=0
13207	note_on channel=9 note=62 velocity=108 time=0
13208	note_on channel=9 note=62 velocity=0 time=10
13209	note_on channel=9 note=63 velocity=0 time=0
13210	note_on channel=1 note=28 velocity=91 time=20
13211	note_on channel=9 note=82 velocity=110 time=0
13212	note_on channel=9 note=63 velocity=59 time=0
13213	note_on channel=9 note=63 velocity=0 time=10
13214	note_on channel=9 note=82 velocity=0 time=0
13215	note_on channel=1 note=28 velocity=0 time=20
13216	note_on channel=9 note=63 velocity=59 time=0
13217	note_on channel=9 note=63 velocity=0 time=10
13218	note_on channel=1 note=30 velocity=91 time=20
13219	note_on channel=9 note=38 velocity=86 time=0
13220	note_on channel=9 note=64 velocity=67 time=0
13221	note_on channel=9 note=37 velocity=127 time=0
13222	note_on channel=9 note=37 velocity=0 time=10
13223	note_on channel=9 note=64 velocity=0 time=0
13224	note_on channel=9 note=38 velocity=0 time=0
13225	note_on channel=9 note=62 velocity=109 time=20
13226	note_on channel=9 note=62 velocity=0 time=10
13227	note_on channel=1 note=30 velocity=0 time=10
13228	note_on channel=1 note=32 velocity=91 time=10
13229	note_on channel=9 note=36 velocity=127 time=0
13230	note_on channel=9 note=82 velocity=111 time=0
13231	note_on channel=9 note=62 velocity=108 time=0
13232	note_on channel=13 note=73 velocity=0 time=4
13233	note_on channel=10 note=73 velocity=0 time=0
13234	note_on channel=9 note=62 velocity=0 time=6
13235	note_on channel=9 note=82 velocity=0 time=0
13236	note_on channel=9 note=36 velocity=0 time=2
13237	note_on channel=9 note=35 velocity=127 time=18
13238	note_on channel=9 note=62 velocity=110 time=0
13239	note_on channel=9 note=62 velocity=0 time=10
13240	note_on channel=9 note=35 velocity=0 time=4
13241	note_on channel=8 note=66 velocity=0 time=12
13242	note_on channel=8 note=73 velocity=0 time=2
13243	note_on channel=8 note=69 velocity=0 time=0
13244	note_on channel=1 note=32 velocity=0 time=2
13245	note_on channel=1 note=28 velocity=109 time=0
13246	note_on channel=6 note=59 velocity=90 time=0
13247	note_on channel=8 note=66 velocity=61 time=0
13248	note_on channel=8 note=69 velocity=61 time=0
13249	note_on channel=8 note=73 velocity=61 time=0
13250	note_on channel=9 note=36 velocity=127 time=0
13251	note_on channel=9 note=35 velocity=127 time=0
13252	note_on channel=9 note=82 velocity=108 time=0
13253	note_on channel=7 note=59 velocity=90 time=1
13254	note_on channel=12 note=64 velocity=0 time=3
13255	note_on channel=9 note=82 velocity=0 time=6
13256	note_on channel=9 note=35 velocity=0 time=0
13257	note_on channel=9 note=36 velocity=0 time=0
13258	note_on channel=6 note=61 velocity=90 time=20
13259	note_on channel=7 note=61 velocity=90 time=1
13260	note_on channel=6 note=59 velocity=0 time=13
13261	note_on channel=7 note=59 velocity=0 time=1
13262	note_on channel=1 note=28 velocity=0 time=15
13263	note_on channel=1 note=30 velocity=110 time=0
13264	note_on channel=6 note=61 velocity=90 time=0
13265	note_on channel=9 note=82 velocity=90 time=0
13266	note_on channel=9 note=27 velocity=103 time=0
13267	note_on channel=7 note=61 velocity=90 time=1
13268	note_on channel=9 note=27 velocity=0 time=9
13269	note_on channel=9 note=82 velocity=0 time=0
13270	note_on channel=6 note=61 velocity=0 time=4
13271	note_on channel=7 note=61 velocity=0 time=1
13272	note_on channel=1 note=30 velocity=0 time=5
13273	note_on channel=6 note=62 velocity=90 time=10
13274	note_on channel=7 note=62 velocity=90 time=1
13275	note_on channel=6 note=61 velocity=0 time=13
13276	note_on channel=7 note=61 velocity=0 time=1
13277	note_on channel=1 note=31 velocity=70 time=15
13278	note_on channel=6 note=61 velocity=90 time=0
13279	note_on channel=9 note=82 velocity=88 time=0
13280	note_on channel=9 note=27 velocity=101 time=0
13281	note_on channel=7 note=61 velocity=90 time=1
13282	note_on channel=9 note=27 velocity=0 time=9
13283	note_on channel=9 note=82 velocity=0 time=0
13284	note_on channel=1 note=31 velocity=0 time=0
13285	note_on channel=6 note=62 velocity=0 time=4
13286	note_on channel=7 note=62 velocity=0 time=1
13287	note_on channel=6 note=61 velocity=0 time=13
13288	note_on channel=7 note=61 velocity=0 time=1
13289	note_on channel=1 note=33 velocity=71 time=1
13290	note_on channel=6 note=61 velocity=90 time=0
13291	note_on channel=7 note=61 velocity=90 time=1
13292	note_on channel=1 note=33 velocity=0 time=9
13293	note_on channel=6 note=61 velocity=0 time=18
13294	note_on channel=7 note=61 velocity=0 time=1
13295	note_on channel=1 note=30 velocity=112 time=1
13296	note_on channel=6 note=61 velocity=90 time=0
13297	note_on channel=9 note=38 velocity=88 time=0
13298	note_on channel=9 note=82 velocity=67 time=0
13299	note_on channel=9 note=37 velocity=127 time=0
13300	note_on channel=7 note=61 velocity=90 time=1
13301	note_on channel=9 note=37 velocity=0 time=9
13302	note_on channel=9 note=82 velocity=0 time=0
13303	note_on channel=9 note=38 velocity=0 time=0
13304	note_on channel=6 note=61 velocity=0 time=16
13305	note_on channel=7 note=61 velocity=0 time=1
13306	note_on channel=6 note=61 velocity=90 time=3
13307	note_on channel=7 note=61 velocity=90 time=1
13308	note_on channel=6 note=61 velocity=0 time=29
13309	note_on channel=1 note=30 velocity=0 time=0
13310	note_on channel=1 note=31 velocity=68 time=0
13311	note_on channel=6 note=59 velocity=90 time=0
13312	note_on channel=9 note=82 velocity=109 time=0
13313	note_on channel=7 note=61 velocity=0 time=1
13314	note_on channel=7 note=59 velocity=90 time=0
13315	note_on channel=9 note=82 velocity=0 time=9
13316	note_on channel=1 note=31 velocity=0 time=10
13317	note_on channel=1 note=30 velocity=91 time=10
13318	note_on channel=6 note=61 velocity=90 time=0
13319	note_on channel=9 note=38 velocity=87 time=0
13320	note_on channel=9 note=37 velocity=127 time=0
13321	note_on channel=7 note=61 velocity=90 time=1
13322	note_on channel=9 note=37 velocity=0 time=9
13323	note_on channel=9 note=38 velocity=0 time=0
13324	note_on channel=1 note=30 velocity=0 time=0
13325	note_on channel=6 note=59 velocity=0 time=4
13326	note_on channel=7 note=59 velocity=0 time=1
13327	note_on channel=6 note=61 velocity=0 time=13
13328	note_on channel=7 note=61 velocity=0 time=1
13329	note_on channel=1 note=31 velocity=69 time=1
13330	note_on channel=6 note=61 velocity=90 time=0
13331	note_on channel=9 note=82 velocity=88 time=0
13332	note_on channel=7 note=61 velocity=90 time=1
13333	note_on channel=9 note=82 velocity=0 time=9
13334	note_on channel=1 note=31 velocity=0 time=0
13335	note_on channel=1 note=40 velocity=91 time=20
13336	note_on channel=6 note=62 velocity=90 time=0
13337	note_on channel=7 note=62 velocity=90 time=1
13338	note_on channel=6 note=61 velocity=0 time=13
13339	note_on channel=7 note=61 velocity=0 time=1
13340	note_on channel=1 note=40 velocity=0 time=15
13341	note_on channel=1 note=30 velocity=88 time=0
13342	note_on channel=6 note=61 velocity=90 time=0
13343	note_on channel=9 note=38 velocity=86 time=0
13344	note_on channel=9 note=82 velocity=90 time=0
13345	note_on channel=9 note=37 velocity=127 time=0
13346	note_on channel=7 note=61 velocity=90 time=1
13347	note_on channel=9 note=37 velocity=0 time=9
13348	note_on channel=9 note=82 velocity=0 time=0
13349	note_on channel=1 note=30 velocity=0 time=0
13350	note_on channel=9 note=38 velocity=0 time=0
13351	note_on channel=6 note=62 velocity=0 time=4
13352	note_on channel=7 note=62 velocity=0 time=1
13353	note_on channel=6 note=61 velocity=0 time=13
13354	note_on channel=7 note=61 velocity=0 time=1
13355	note_on channel=1 note=31 velocity=68 time=1
13356	note_on channel=6 note=61 velocity=90 time=0
13357	note_on channel=7 note=61 velocity=90 time=1
13358	note_on channel=1 note=31 velocity=0 time=19
13359	note_on channel=6 note=61 velocity=0 time=8
13360	note_on channel=7 note=61 velocity=0 time=1
13361	note_on channel=1 note=40 velocity=90 time=1
13362	note_on channel=6 note=61 velocity=90 time=0
13363	note_on channel=9 note=82 velocity=67 time=0
13364	note_on channel=7 note=61 velocity=90 time=1
13365	note_on channel=9 note=82 velocity=0 time=9
13366	note_on channel=1 note=40 velocity=0 time=10
13367	note_on channel=6 note=61 velocity=0 time=4
13368	note_on channel=7 note=61 velocity=0 time=1
13369	note_on channel=1 note=42 velocity=91 time=5
13370	note_on channel=6 note=61 velocity=90 time=0
13371	note_on channel=7 note=61 velocity=90 time=1
13372	note_on channel=1 note=42 velocity=0 time=9
13373	note_on channel=6 note=61 velocity=0 time=12
13374	note_on channel=7 note=61 velocity=0 time=1
13375	note_on channel=1 note=30 velocity=109 time=7
13376	note_on channel=6 note=59 velocity=90 time=0
13377	note_on channel=9 note=36 velocity=127 time=0
13378	note_on channel=9 note=35 velocity=127 time=0
13379	note_on channel=9 note=82 velocity=110 time=0
13380	note_on channel=7 note=59 velocity=90 time=1
13381	note_on channel=9 note=82 velocity=0 time=9
13382	note_on channel=9 note=35 velocity=0 time=0
13383	note_on channel=9 note=36 velocity=0 time=0
13384	note_on channel=6 note=61 velocity=90 time=20
13385	note_on channel=7 note=61 velocity=90 time=1
13386	note_on channel=6 note=59 velocity=0 time=13
13387	note_on channel=7 note=59 velocity=0 time=1
13388	note_on channel=1 note=30 velocity=0 time=15
13389	note_on channel=1 note=31 velocity=69 time=0
13390	note_on channel=6 note=61 velocity=90 time=0
13391	note_on channel=9 note=82 velocity=91 time=0
13392	note_on channel=9 note=27 velocity=103 time=0
13393	note_on channel=7 note=61 velocity=90 time=1
13394	note_on channel=9 note=27 velocity=0 time=9
13395	note_on channel=9 note=82 velocity=0 time=0
13396	note_on channel=1 note=31 velocity=0 time=0
13397	note_on channel=6 note=61 velocity=0 time=4
13398	note_on channel=7 note=61 velocity=0 time=1
13399	note_on channel=1 note=33 velocity=90 time=15
13400	note_on channel=6 note=62 velocity=90 time=0
13401	note_on channel=9 note=36 velocity=127 time=0
13402	note_on channel=9 note=35 velocity=127 time=0
13403	note_on channel=7 note=62 velocity=90 time=1
13404	note_on channel=9 note=35 velocity=0 time=9
13405	note_on channel=9 note=36 velocity=0 time=0
13406	note_on channel=1 note=33 velocity=0 time=0
13407	note_on channel=6 note=61 velocity=0 time=4
13408	note_on channel=7 note=61 velocity=0 time=1
13409	note_on channel=1 note=37 velocity=69 time=15
13410	note_on channel=6 note=61 velocity=90 time=0
13411	note_on channel=9 note=82 velocity=91 time=0
13412	note_on channel=9 note=27 velocity=103 time=0
13413	note_on channel=7 note=61 velocity=90 time=1
13414	note_on channel=9 note=27 velocity=0 time=9
13415	note_on channel=9 note=82 velocity=0 time=0
13416	note_on channel=1 note=37 velocity=0 time=0
13417	note_on channel=6 note=62 velocity=0 time=4
13418	note_on channel=7 note=62 velocity=0 time=1
13419	note_on channel=6 note=61 velocity=0 time=13
13420	note_on channel=7 note=61 velocity=0 time=1
13421	note_on channel=1 note=38 velocity=68 time=1
13422	note_on channel=6 note=61 velocity=90 time=0
13423	note_on channel=7 note=61 velocity=90 time=1
13424	note_on channel=1 note=38 velocity=0 time=9
13425	note_on channel=6 note=61 velocity=0 time=18
13426	note_on channel=7 note=61 velocity=0 time=1
13427	note_on channel=1 note=28 velocity=91 time=1
13428	note_on channel=6 note=61 velocity=90 time=0
13429	note_on channel=9 note=38 velocity=87 time=0
13430	note_on channel=9 note=82 velocity=73 time=0
13431	note_on channel=9 note=37 velocity=127 time=0
13432	note_on channel=7 note=61 velocity=90 time=1
13433	note_on channel=9 note=37 velocity=0 time=9
13434	note_on channel=9 note=82 velocity=0 time=0
13435	note_on channel=9 note=38 velocity=0 time=0
13436	note_on channel=6 note=61 velocity=0 time=16
13437	note_on channel=7 note=61 velocity=0 time=1
13438	note_on channel=6 note=61 velocity=90 time=3
13439	note_on channel=7 note=61 velocity=90 time=1
13440	note_on channel=6 note=61 velocity=0 time=29
13441	note_on channel=1 note=28 velocity=0 time=0
13442	note_on channel=1 note=30 velocity=111 time=0
13443	note_on channel=6 note=59 velocity=90 time=0
13444	note_on channel=9 note=82 velocity=109 time=0
13445	note_on channel=7 note=61 velocity=0 time=1
13446	note_on channel=7 note=59 velocity=90 time=0
13447	note_on channel=9 note=82 velocity=0 time=9
13448	note_on channel=6 note=61 velocity=90 time=20
13449	note_on channel=9 note=38 velocity=86 time=0
13450	note_on channel=9 note=37 velocity=127 time=0
13451	note_on channel=7 note=61 velocity=90 time=1
13452	note_on channel=9 note=37 velocity=0 time=9
13453	note_on channel=9 note=38 velocity=0 time=0
13454	note_on channel=6 note=59 velocity=0 time=4
13455	note_on channel=7 note=59 velocity=0 time=1
13456	note_on channel=1 note=30 velocity=0 time=5
13457	note_on channel=6 note=61 velocity=0 time=8
13458	note_on channel=7 note=61 velocity=0 time=1
13459	note_on channel=1 note=31 velocity=71 time=1
13460	note_on channel=6 note=61 velocity=90 time=0
13461	note_on channel=9 note=82 velocity=91 time=0
13462	note_on channel=7 note=61 velocity=90 time=1
13463	note_on channel=9 note=82 velocity=0 time=9
13464	note_on channel=1 note=31 velocity=0 time=0
13465	note_on channel=1 note=33 velocity=88 time=20
13466	note_on channel=6 note=66 velocity=90 time=0
13467	note_on channel=7 note=66 velocity=90 time=1
13468	note_on channel=6 note=61 velocity=0 time=13
13469	note_on channel=7 note=61 velocity=0 time=1
13470	note_on channel=1 note=33 velocity=0 time=15
13471	note_on channel=1 note=37 velocity=71 time=0
13472	note_on channel=6 note=61 velocity=90 time=0
13473	note_on channel=9 note=38 velocity=85 time=0
13474	note_on channel=9 note=82 velocity=89 time=0
13475	note_on channel=9 note=37 velocity=127 time=0
13476	note_on channel=7 note=61 velocity=90 time=1
13477	note_on channel=9 note=37 velocity=0 time=9
13478	note_on channel=9 note=82 velocity=0 time=0
13479	note_on channel=1 note=37 velocity=0 time=0
13480	note_on channel=9 note=38 velocity=0 time=0
13481	note_on channel=6 note=66 velocity=0 time=4
13482	note_on channel=7 note=66 velocity=0 time=1
13483	note_on channel=6 note=61 velocity=0 time=13
13484	note_on channel=7 note=61 velocity=0 time=1
13485	note_on channel=1 note=38 velocity=68 time=1
13486	note_on channel=6 note=61 velocity=90 time=0
13487	note_on channel=9 note=36 velocity=127 time=0
13488	note_on channel=9 note=35 velocity=127 time=0
13489	note_on channel=7 note=61 velocity=90 time=1
13490	note_on channel=9 note=35 velocity=0 time=9
13491	note_on channel=9 note=36 velocity=0 time=0
13492	note_on channel=1 note=38 velocity=0 time=0
13493	note_on channel=6 note=61 velocity=0 time=18
13494	note_on channel=7 note=61 velocity=0 time=1
13495	note_on channel=1 note=37 velocity=89 time=1
13496	note_on channel=6 note=61 velocity=90 time=0
13497	note_on channel=9 note=82 velocity=68 time=0
13498	note_on channel=7 note=61 velocity=90 time=1
13499	note_on channel=9 note=82 velocity=0 time=9
13500	note_on channel=1 note=37 velocity=0 time=0
13501	note_on channel=6 note=61 velocity=0 time=14
13502	note_on channel=7 note=61 velocity=0 time=1
13503	note_on channel=1 note=33 velocity=68 time=5
13504	note_on channel=6 note=61 velocity=90 time=0
13505	note_on channel=7 note=61 velocity=90 time=1
13506	note_on channel=1 note=33 velocity=0 time=9
13507	note_on channel=6 note=61 velocity=0 time=12
13508	note_on channel=7 note=61 velocity=0 time=1
13509	note_on channel=1 note=30 velocity=112 time=7
13510	note_on channel=6 note=59 velocity=90 time=0
13511	note_on channel=9 note=36 velocity=127 time=0
13512	note_on channel=9 note=35 velocity=127 time=0
13513	note_on channel=9 note=82 velocity=108 time=0
13514	note_on channel=7 note=59 velocity=90 time=1
13515	note_on channel=9 note=82 velocity=0 time=9
13516	note_on channel=9 note=35 velocity=0 time=0
13517	note_on channel=9 note=36 velocity=0 time=0
13518	note_on channel=6 note=61 velocity=90 time=20
13519	note_on channel=7 note=61 velocity=90 time=1
13520	note_on channel=6 note=59 velocity=0 time=13
13521	note_on channel=7 note=59 velocity=0 time=1
13522	note_on channel=6 note=61 velocity=90 time=15
13523	note_on channel=9 note=82 velocity=90 time=0
13524	note_on channel=9 note=27 velocity=103 time=0
13525	note_on channel=7 note=61 velocity=90 time=1
13526	note_on channel=9 note=27 velocity=0 time=9
13527	note_on channel=9 note=82 velocity=0 time=0
13528	note_on channel=6 note=61 velocity=0 time=4
13529	note_on channel=7 note=61 velocity=0 time=1
13530	note_on channel=1 note=30 velocity=0 time=15
13531	note_on channel=6 note=62 velocity=90 time=0
13532	note_on channel=9 note=36 velocity=127 time=0
13533	note_on channel=9 note=35 velocity=127 time=0
13534	note_on channel=7 note=62 velocity=90 time=1
13535	note_on channel=9 note=35 velocity=0 time=9
13536	note_on channel=9 note=36 velocity=0 time=0
13537	note_on channel=6 note=61 velocity=0 time=4
13538	note_on channel=7 note=61 velocity=0 time=1
13539	note_on channel=6 note=61 velocity=90 time=15
13540	note_on channel=9 note=82 velocity=88 time=0
13541	note_on channel=9 note=27 velocity=101 time=0
13542	note_on channel=7 note=61 velocity=90 time=1
13543	note_on channel=9 note=27 velocity=0 time=9
13544	note_on channel=9 note=82 velocity=0 time=0
13545	note_on channel=6 note=62 velocity=0 time=4
13546	note_on channel=7 note=62 velocity=0 time=1
13547	note_on channel=6 note=61 velocity=0 time=13
13548	note_on channel=7 note=61 velocity=0 time=1
13549	note_on channel=6 note=61 velocity=90 time=1
13550	note_on channel=7 note=61 velocity=90 time=1
13551	note_on channel=6 note=61 velocity=0 time=27
13552	note_on channel=7 note=61 velocity=0 time=1
13553	note_on channel=1 note=30 velocity=110 time=1
13554	note_on channel=6 note=61 velocity=90 time=0
13555	note_on channel=9 note=38 velocity=88 time=0
13556	note_on channel=9 note=82 velocity=67 time=0
13557	note_on channel=9 note=37 velocity=127 time=0
13558	note_on channel=7 note=61 velocity=90 time=1
13559	note_on channel=9 note=37 velocity=0 time=9
13560	note_on channel=9 note=82 velocity=0 time=0
13561	note_on channel=9 note=38 velocity=0 time=0
13562	note_on channel=6 note=61 velocity=0 time=16
13563	note_on channel=7 note=61 velocity=0 time=1
13564	note_on channel=6 note=61 velocity=90 time=3
13565	note_on channel=7 note=61 velocity=90 time=1
13566	note_on channel=6 note=61 velocity=0 time=29
13567	note_on channel=1 note=30 velocity=0 time=0
13568	note_on channel=1 note=30 velocity=92 time=0
13569	note_on channel=6 note=59 velocity=90 time=0
13570	note_on channel=9 note=82 velocity=109 time=0
13571	note_on channel=7 note=61 velocity=0 time=1
13572	note_on channel=7 note=59 velocity=90 time=0
13573	note_on channel=9 note=82 velocity=0 time=9
13574	note_on channel=6 note=61 velocity=90 time=20
13575	note_on channel=9 note=38 velocity=87 time=0
13576	note_on channel=9 note=37 velocity=127 time=0
13577	note_on channel=7 note=61 velocity=90 time=1
13578	note_on channel=9 note=37 velocity=0 time=9
13579	note_on channel=9 note=38 velocity=0 time=0
13580	note_on channel=6 note=59 velocity=0 time=4
13581	note_on channel=7 note=59 velocity=0 time=1
13582	note_on channel=6 note=61 velocity=0 time=13
13583	note_on channel=7 note=61 velocity=0 time=1
13584	note_on channel=6 note=61 velocity=90 time=1
13585	note_on channel=9 note=36 velocity=127 time=0
13586	note_on channel=9 note=35 velocity=127 time=0
13587	note_on channel=9 note=82 velocity=88 time=0
13588	note_on channel=7 note=61 velocity=90 time=1
13589	note_on channel=9 note=82 velocity=0 time=9
13590	note_on channel=9 note=35 velocity=0 time=0
13591	note_on channel=9 note=36 velocity=0 time=0
13592	note_on channel=1 note=30 velocity=0 time=20
13593	note_on channel=6 note=62 velocity=90 time=0
13594	note_on channel=7 note=62 velocity=90 time=1
13595	note_on channel=6 note=61 velocity=0 time=13
13596	note_on channel=7 note=61 velocity=0 time=1
13597	note_on channel=6 note=61 velocity=90 time=15
13598	note_on channel=9 note=38 velocity=86 time=0
13599	note_on channel=9 note=82 velocity=90 time=0
13600	note_on channel=9 note=37 velocity=127 time=0
13601	note_on channel=7 note=61 velocity=90 time=1
13602	note_on channel=9 note=37 velocity=0 time=9
13603	note_on channel=9 note=82 velocity=0 time=0
13604	note_on channel=9 note=38 velocity=0 time=0
13605	note_on channel=6 note=62 velocity=0 time=4
13606	note_on channel=7 note=62 velocity=0 time=1
13607	note_on channel=6 note=61 velocity=0 time=13
13608	note_on channel=7 note=61 velocity=0 time=1
13609	note_on channel=6 note=61 velocity=90 time=1
13610	note_on channel=9 note=36 velocity=127 time=0
13611	note_on channel=9 note=35 velocity=127 time=0
13612	note_on channel=7 note=61 velocity=90 time=1
13613	note_on channel=9 note=35 velocity=0 time=9
13614	note_on channel=9 note=36 velocity=0 time=0
13615	note_on channel=6 note=61 velocity=0 time=18
13616	note_on channel=7 note=61 velocity=0 time=1
13617	note_on channel=6 note=61 velocity=90 time=1
13618	note_on channel=9 note=82 velocity=67 time=0
13619	note_on channel=7 note=61 velocity=90 time=1
13620	note_on channel=9 note=82 velocity=0 time=9
13621	note_on channel=6 note=61 velocity=0 time=14
13622	note_on channel=7 note=61 velocity=0 time=1
13623	note_on channel=6 note=61 velocity=90 time=5
13624	note_on channel=9 note=36 velocity=127 time=0
13625	note_on channel=9 note=35 velocity=127 time=0
13626	note_on channel=7 note=61 velocity=90 time=1
13627	note_on channel=9 note=35 velocity=0 time=9
13628	note_on channel=9 note=36 velocity=0 time=0
13629	note_on channel=6 note=61 velocity=0 time=12
13630	note_on channel=7 note=61 velocity=0 time=1
13631	note_on channel=1 note=30 velocity=108 time=7
13632	note_on channel=6 note=59 velocity=90 time=0
13633	note_on channel=9 note=36 velocity=127 time=0
13634	note_on channel=9 note=35 velocity=127 time=0
13635	note_on channel=9 note=82 velocity=110 time=0
13636	note_on channel=7 note=59 velocity=90 time=1
13637	note_on channel=9 note=82 velocity=0 time=9
13638	note_on channel=9 note=35 velocity=0 time=0
13639	note_on channel=9 note=36 velocity=0 time=0
13640	note_on channel=6 note=61 velocity=90 time=20
13641	note_on channel=7 note=61 velocity=90 time=1
13642	note_on channel=6 note=59 velocity=0 time=13
13643	note_on channel=7 note=59 velocity=0 time=1
13644	note_on channel=1 note=30 velocity=0 time=15
13645	note_on channel=1 note=31 velocity=70 time=0
13646	note_on channel=6 note=61 velocity=90 time=0
13647	note_on channel=9 note=82 velocity=91 time=0
13648	note_on channel=9 note=27 velocity=103 time=0
13649	note_on channel=7 note=61 velocity=90 time=1
13650	note_on channel=9 note=27 velocity=0 time=9
13651	note_on channel=9 note=82 velocity=0 time=0
13652	note_on channel=1 note=31 velocity=0 time=0
13653	note_on channel=6 note=61 velocity=0 time=4
13654	note_on channel=7 note=61 velocity=0 time=1
13655	note_on channel=1 note=33 velocity=89 time=15
13656	note_on channel=6 note=62 velocity=90 time=0
13657	note_on channel=9 note=36 velocity=127 time=0
13658	note_on channel=9 note=35 velocity=127 time=0
13659	note_on channel=7 note=62 velocity=90 time=1
13660	note_on channel=9 note=35 velocity=0 time=9
13661	note_on channel=9 note=36 velocity=0 time=0
13662	note_on channel=1 note=33 velocity=0 time=0
13663	note_on channel=6 note=61 velocity=0 time=4
13664	note_on channel=7 note=61 velocity=0 time=1
13665	note_on channel=1 note=37 velocity=72 time=15
13666	note_on channel=6 note=61 velocity=90 time=0
13667	note_on channel=9 note=82 velocity=91 time=0
13668	note_on channel=9 note=27 velocity=103 time=0
13669	note_on channel=7 note=61 velocity=90 time=1
13670	note_on channel=9 note=27 velocity=0 time=9
13671	note_on channel=9 note=82 velocity=0 time=0
13672	note_on channel=1 note=37 velocity=0 time=0
13673	note_on channel=6 note=62 velocity=0 time=4
13674	note_on channel=7 note=62 velocity=0 time=1
13675	note_on channel=6 note=61 velocity=0 time=13
13676	note_on channel=7 note=61 velocity=0 time=1
13677	note_on channel=1 note=38 velocity=72 time=1
13678	note_on channel=6 note=61 velocity=90 time=0
13679	note_on channel=7 note=61 velocity=90 time=1
13680	note_on channel=1 note=38 velocity=0 time=9
13681	note_on channel=6 note=61 velocity=0 time=18
13682	note_on channel=7 note=61 velocity=0 time=1
13683	note_on channel=1 note=28 velocity=89 time=1
13684	note_on channel=6 note=61 velocity=90 time=0
13685	note_on channel=9 note=38 velocity=87 time=0
13686	note_on channel=9 note=82 velocity=73 time=0
13687	note_on channel=9 note=37 velocity=127 time=0
13688	note_on channel=7 note=61 velocity=90 time=1
13689	note_on channel=9 note=37 velocity=0 time=9
13690	note_on channel=9 note=82 velocity=0 time=0
13691	note_on channel=9 note=38 velocity=0 time=0
13692	note_on channel=6 note=61 velocity=0 time=16
13693	note_on channel=7 note=61 velocity=0 time=1
13694	note_on channel=6 note=61 velocity=90 time=3
13695	note_on channel=7 note=61 velocity=90 time=1
13696	note_on channel=6 note=61 velocity=0 time=29
13697	note_on channel=1 note=28 velocity=0 time=0
13698	note_on channel=1 note=30 velocity=112 time=0
13699	note_on channel=6 note=59 velocity=90 time=0
13700	note_on channel=9 note=82 velocity=109 time=0
13701	note_on channel=7 note=61 velocity=0 time=1
13702	note_on channel=7 note=59 velocity=90 time=0
13703	note_on channel=9 note=82 velocity=0 time=9
13704	note_on channel=6 note=61 velocity=90 time=20
13705	note_on channel=9 note=38 velocity=86 time=0
13706	note_on channel=9 note=37 velocity=127 time=0
13707	note_on channel=7 note=61 velocity=90 time=1
13708	note_on channel=9 note=37 velocity=0 time=9
13709	note_on channel=9 note=38 velocity=0 time=0
13710	note_on channel=6 note=59 velocity=0 time=4
13711	note_on channel=7 note=59 velocity=0 time=1
13712	note_on channel=1 note=30 velocity=0 time=5
13713	note_on channel=6 note=61 velocity=0 time=8
13714	note_on channel=7 note=61 velocity=0 time=1
13715	note_on channel=1 note=31 velocity=68 time=1
13716	note_on channel=6 note=61 velocity=90 time=0
13717	note_on channel=9 note=82 velocity=91 time=0
13718	note_on channel=7 note=61 velocity=90 time=1
13719	note_on channel=9 note=82 velocity=0 time=9
13720	note_on channel=1 note=31 velocity=0 time=0
13721	note_on channel=1 note=33 velocity=92 time=20
13722	note_on channel=6 note=66 velocity=90 time=0
13723	note_on channel=7 note=66 velocity=90 time=1
13724	note_on channel=6 note=61 velocity=0 time=13
13725	note_on channel=7 note=61 velocity=0 time=1
13726	note_on channel=1 note=33 velocity=0 time=15
13727	note_on channel=1 note=37 velocity=71 time=0
13728	note_on channel=6 note=61 velocity=90 time=0
13729	note_on channel=8 note=69 velocity=58 time=0
13730	note_on channel=9 note=38 velocity=85 time=0
13731	note_on channel=9 note=82 velocity=89 time=0
13732	note_on channel=9 note=37 velocity=127 time=0
13733	note_on channel=7 note=61 velocity=90 time=1
13734	note_on channel=9 note=37 velocity=0 time=9
13735	note_on channel=9 note=82 velocity=0 time=0
13736	note_on channel=9 note=38 velocity=0 time=0
13737	note_on channel=1 note=37 velocity=0 time=0
13738	note_on channel=6 note=66 velocity=0 time=4
13739	note_on channel=7 note=66 velocity=0 time=1
13740	note_on channel=6 note=61 velocity=0 time=13
13741	note_on channel=7 note=61 velocity=0 time=1
13742	note_on channel=1 note=38 velocity=70 time=1
13743	note_on channel=6 note=61 velocity=90 time=0
13744	note_on channel=9 note=36 velocity=127 time=0
13745	note_on channel=9 note=35 velocity=127 time=0
13746	note_on channel=7 note=61 velocity=90 time=1
13747	note_on channel=9 note=35 velocity=0 time=9
13748	note_on channel=9 note=36 velocity=0 time=0
13749	note_on channel=1 note=38 velocity=0 time=0
13750	note_on channel=6 note=61 velocity=0 time=18
13751	note_on channel=7 note=61 velocity=0 time=1
13752	note_on channel=1 note=37 velocity=91 time=1
13753	note_on channel=6 note=61 velocity=90 time=0
13754	note_on channel=9 note=82 velocity=68 time=0
13755	note_on channel=7 note=61 velocity=90 time=1
13756	note_on channel=9 note=82 velocity=0 time=9
13757	note_on channel=1 note=37 velocity=0 time=0
13758	note_on channel=6 note=61 velocity=0 time=14
13759	note_on channel=7 note=61 velocity=0 time=1
13760	note_on channel=1 note=33 velocity=72 time=5
13761	note_on channel=6 note=61 velocity=90 time=0
13762	note_on channel=7 note=61 velocity=90 time=1
13763	note_on channel=1 note=33 velocity=0 time=9
13764	note_on channel=6 note=61 velocity=0 time=12
13765	note_on channel=7 note=61 velocity=0 time=1
13766	note_on channel=8 note=69 velocity=0 time=4
13767	note_on channel=8 note=66 velocity=0 time=0
13768	note_on channel=8 note=73 velocity=0 time=0
13769	note_on channel=8 note=69 velocity=0 time=3
13770	note_on channel=1 note=30 velocity=109 time=0
13771	note_on channel=8 note=66 velocity=61 time=0
13772	note_on channel=8 note=69 velocity=61 time=0
13773	note_on channel=8 note=73 velocity=61 time=0
13774	note_on channel=9 note=36 velocity=127 time=0
13775	note_on channel=9 note=35 velocity=127 time=0
13776	note_on channel=9 note=82 velocity=108 time=0
13777	note_on channel=9 note=82 velocity=0 time=10
13778	note_on channel=9 note=36 velocity=0 time=0
13779	note_on channel=9 note=35 velocity=0 time=0
13780	
13781	note_on channel=1 note=30 velocity=0 time=0
13782	note_on channel=1 note=32 velocity=68 time=0
13783	note_on channel=9 note=82 velocity=90 time=0
13784	note_on channel=9 note=27 velocity=103 time=0
13785	note_on channel=10 note=71 velocity=90 time=0
13786	note_on channel=9 note=27 velocity=0 time=10
13787	note_on channel=1 note=32 velocity=0 time=0
13788	note_on channel=9 note=82 velocity=0 time=0
13789	note_on channel=10 note=71 velocity=0 time=12
13790	note_on channel=1 note=33 velocity=90 time=8
13791	note_on channel=10 note=71 velocity=90 time=0
13792	note_on channel=1 note=33 velocity=0 time=10
13793	note_on channel=10 note=71 velocity=0 time=12
13794	
13795	note_on channel=1 note=35 velocity=72 time=0
13796	note_on channel=9 note=82 velocity=88 time=0
13797	note_on channel=9 note=27 velocity=101 time=0
13798	note_on channel=10 note=71 velocity=90 time=0
13799	note_on channel=9 note=27 velocity=0 time=10
13800	note_on channel=1 note=35 velocity=0 time=0
13801	note_on channel=9 note=82 velocity=0 time=0
13802	note_on channel=1 note=37 velocity=69 time=20
13803	note_on channel=1 note=37 velocity=0 time=10
13804	note_on channel=10 note=71 velocity=0 time=16
13805	
13806	note_on channel=1 note=28 velocity=91 time=0
13807	note_on channel=9 note=38 velocity=88 time=0
13808	note_on channel=9 note=82 velocity=67 time=0
13809	note_on channel=9 note=37 velocity=127 time=0
13810	note_on channel=10 note=71 velocity=90 time=0
13811	note_on channel=9 note=37 velocity=0 time=10
13812	note_on channel=9 note=82 velocity=0 time=0
13813	note_on channel=9 note=38 velocity=0 time=0
13814	note_on channel=8 note=66 velocity=0 time=46
13815	note_on channel=8 note=69 velocity=0 time=0
13816	note_on channel=8 note=73 velocity=0 time=1
13817	note_on channel=10 note=71 velocity=0 time=1
13818	
13819	note_on channel=1 note=28 velocity=0 time=0
13820	note_on channel=1 note=30 velocity=108 time=0
13821	note_on channel=8 note=66 velocity=54 time=0
13822	note_on channel=8 note=69 velocity=54 time=0
13823	note_on channel=8 note=73 velocity=54 time=0
13824	note_on channel=9 note=82 velocity=109 time=0
13825	note_on channel=10 note=71 velocity=90 time=0
13826	note_on channel=9 note=82 velocity=0 time=10
13827	note_on channel=9 note=38 velocity=87 time=20
13828	note_on channel=9 note=37 velocity=127 time=0
13829	note_on channel=9 note=37 velocity=0 time=10
13830	note_on channel=9 note=38 velocity=0 time=0
13831	note_on channel=1 note=30 velocity=0 time=10
13832	note_on channel=10 note=71 velocity=0 time=4
13833	note_on channel=1 note=32 velocity=69 time=6
13834	note_on channel=9 note=82 velocity=88 time=0
13835	note_on channel=10 note=73 velocity=90 time=0
13836	note_on channel=9 note=82 velocity=0 time=10
13837	note_on channel=1 note=32 velocity=0 time=0
13838	note_on channel=1 note=33 velocity=90 time=20
13839	note_on channel=10 note=73 velocity=0 time=26
13840	
13841	note_on channel=1 note=33 velocity=0 time=0
13842	note_on channel=1 note=35 velocity=70 time=0
13843	note_on channel=9 note=38 velocity=86 time=0
13844	note_on channel=9 note=82 velocity=90 time=0
13845	note_on channel=9 note=37 velocity=127 time=0
13846	note_on channel=10 note=73 velocity=90 time=0
13847	note_on channel=9 note=37 velocity=0 time=10
13848	note_on channel=1 note=35 velocity=0 time=0
13849	note_on channel=9 note=38 velocity=0 time=0
13850	note_on channel=9 note=82 velocity=0 time=0
13851	note_on channel=1 note=37 velocity=72 time=20
13852	note_on channel=1 note=37 velocity=0 time=10
13853	note_on channel=10 note=73 velocity=0 time=18
13854	note_on channel=1 note=38 velocity=89 time=2
13855	note_on channel=9 note=82 velocity=67 time=0
13856	note_on channel=9 note=82 velocity=0 time=10
13857	note_on channel=1 note=38 velocity=0 time=0
13858	note_on channel=1 note=40 velocity=71 time=20
13859	note_on channel=1 note=40 velocity=0 time=10
13860	note_on channel=8 note=73 velocity=0 time=16
13861	note_on channel=8 note=66 velocity=0 time=0
13862	note_on channel=8 note=69 velocity=0 time=0
13863	note_on channel=1 note=33 velocity=109 time=4
13864	note_on channel=8 note=69 velocity=60 time=0
13865	note_on channel=8 note=73 velocity=60 time=0
13866	note_on channel=8 note=76 velocity=60 time=0
13867	note_on channel=9 note=36 velocity=127 time=0
13868	note_on channel=9 note=35 velocity=127 time=0
13869	note_on channel=9 note=82 velocity=110 time=0
13870	note_on channel=9 note=82 velocity=0 time=10
13871	note_on channel=9 note=36 velocity=0 time=0
13872	note_on channel=9 note=35 velocity=0 time=0
13873	note_on channel=1 note=33 velocity=0 time=40
13874	
13875	note_on channel=9 note=82 velocity=91 time=0
13876	note_on channel=9 note=27 velocity=103 time=0
13877	note_on channel=10 note=71 velocity=90 time=0
13878	note_on channel=9 note=27 velocity=0 time=10
13879	note_on channel=9 note=82 velocity=0 time=0
13880	note_on channel=9 note=36 velocity=127 time=20
13881	note_on channel=9 note=35 velocity=127 time=0
13882	note_on channel=9 note=35 velocity=0 time=10
13883	note_on channel=9 note=36 velocity=0 time=0
13884	note_on channel=10 note=71 velocity=0 time=14
13885	
13886	note_on channel=9 note=82 velocity=91 time=0
13887	note_on channel=9 note=27 velocity=103 time=0
13888	note_on channel=10 note=71 velocity=90 time=0
13889	note_on channel=9 note=27 velocity=0 time=10
13890	note_on channel=9 note=82 velocity=0 time=0
13891	note_on channel=10 note=71 velocity=0 time=42
13892	
13893	note_on channel=1 note=33 velocity=112 time=0
13894	note_on channel=9 note=38 velocity=87 time=0
13895	note_on channel=9 note=82 velocity=73 time=0
13896	note_on channel=9 note=37 velocity=127 time=0
13897	note_on channel=10 note=71 velocity=90 time=0
13898	note_on channel=9 note=37 velocity=0 time=10
13899	note_on channel=9 note=82 velocity=0 time=0
13900	note_on channel=9 note=38 velocity=0 time=0
13901	note_on channel=10 note=71 velocity=0 time=32
13902	note_on channel=8 note=76 velocity=0 time=14
13903	note_on channel=8 note=69 velocity=0 time=1
13904	note_on channel=8 note=73 velocity=0 time=0
13905	
13906	note_on channel=1 note=33 velocity=0 time=0
13907	note_on channel=1 note=28 velocity=77 time=0
13908	note_on channel=8 note=68 velocity=55 time=0
13909	note_on channel=8 note=71 velocity=55 time=0
13910	note_on channel=8 note=76 velocity=55 time=0
13911	note_on channel=9 note=82 velocity=109 time=0
13912	note_on channel=10 note=69 velocity=90 time=0
13913	note_on channel=9 note=82 velocity=0 time=10
13914	note_on channel=9 note=38 velocity=86 time=20
13915	note_on channel=9 note=37 velocity=127 time=0
13916	note_on channel=10 note=71 velocity=90 time=0
13917	note_on channel=10 note=69 velocity=0 time=2
13918	note_on channel=10 note=69 velocity=90 time=4
13919	note_on channel=9 note=37 velocity=0 time=4
13920	note_on channel=9 note=38 velocity=0 time=0
13921	note_on channel=9 note=82 velocity=91 time=20
13922	note_on channel=10 note=69 velocity=0 time=2
13923	note_on channel=9 note=82 velocity=0 time=8
13924	note_on channel=10 note=71 velocity=0 time=4
13925	note_on channel=10 note=66 velocity=90 time=16
13926	
13927	note_on channel=9 note=38 velocity=85 time=0
13928	note_on channel=9 note=82 velocity=89 time=0
13929	note_on channel=9 note=37 velocity=127 time=0
13930	note_on channel=10 note=64 velocity=90 time=0
13931	note_on channel=10 note=66 velocity=0 time=8
13932	note_on channel=9 note=37 velocity=0 time=2
13933	note_on channel=9 note=82 velocity=0 time=0
13934	note_on channel=9 note=38 velocity=0 time=0
13935	note_on channel=1 note=28 velocity=0 time=20
13936	note_on channel=9 note=36 velocity=127 time=0
13937	note_on channel=9 note=35 velocity=127 time=0
13938	note_on channel=9 note=35 velocity=0 time=10
13939	note_on channel=9 note=36 velocity=0 time=0
13940	note_on channel=10 note=64 velocity=0 time=20
13941	note_on channel=9 note=82 velocity=68 time=0
13942	note_on channel=9 note=82 velocity=0 time=10
13943	note_on channel=8 note=71 velocity=0 time=47
13944	note_on channel=8 note=68 velocity=0 time=1
13945	note_on channel=8 note=76 velocity=0 time=0
13946	note_on channel=1 note=30 velocity=111 time=2
13947	note_on channel=8 note=66 velocity=61 time=0
13948	note_on channel=8 note=69 velocity=61 time=0
13949	note_on channel=8 note=73 velocity=61 time=0
13950	note_on channel=9 note=36 velocity=127 time=0
13951	note_on channel=9 note=35 velocity=127 time=0
13952	note_on channel=9 note=82 velocity=108 time=0
13953	note_on channel=9 note=82 velocity=0 time=10
13954	note_on channel=9 note=36 velocity=0 time=0
13955	note_on channel=9 note=35 velocity=0 time=0
13956	
13957	note_on channel=9 note=82 velocity=90 time=0
13958	note_on channel=9 note=27 velocity=103 time=0
13959	note_on channel=10 note=71 velocity=90 time=0
13960	note_on channel=9 note=27 velocity=0 time=10
13961	note_on channel=9 note=82 velocity=0 time=0
13962	note_on channel=10 note=71 velocity=0 time=12
13963	note_on channel=1 note=30 velocity=0 time=8
13964	note_on channel=9 note=36 velocity=127 time=0
13965	note_on channel=9 note=35 velocity=127 time=0
13966	note_on channel=10 note=71 velocity=90 time=0
13967	note_on channel=9 note=35 velocity=0 time=10
13968	note_on channel=9 note=36 velocity=0 time=0
13969	note_on channel=10 note=71 velocity=0 time=12
13970	
13971	note_on channel=9 note=82 velocity=88 time=0
13972	note_on channel=9 note=27 velocity=101 time=0
13973	note_on channel=10 note=71 velocity=90 time=0
13974	note_on channel=9 note=27 velocity=0 time=10
13975	note_on channel=9 note=82 velocity=0 time=0
13976	note_on channel=10 note=71 velocity=0 time=46
13977	
13978	note_on channel=1 note=30 velocity=112 time=0
13979	note_on channel=9 note=38 velocity=88 time=0
13980	note_on channel=9 note=82 velocity=67 time=0
13981	note_on channel=9 note=37 velocity=127 time=0
13982	note_on channel=10 note=71 velocity=90 time=0
13983	note_on channel=9 note=37 velocity=0 time=10
13984	note_on channel=9 note=82 velocity=0 time=0
13985	note_on channel=9 note=38 velocity=0 time=0
13986	note_on channel=8 note=66 velocity=0 time=46
13987	note_on channel=8 note=73 velocity=0 time=1
13988	note_on channel=8 note=69 velocity=0 time=0
13989	note_on channel=10 note=71 velocity=0 time=1
13990	
13991	note_on channel=1 note=30 velocity=0 time=0
13992	note_on channel=1 note=30 velocity=77 time=0
13993	note_on channel=8 note=66 velocity=55 time=0
13994	note_on channel=8 note=69 velocity=55 time=0
13995	note_on channel=8 note=73 velocity=55 time=0
13996	note_on channel=9 note=82 velocity=109 time=0
13997	note_on channel=10 note=71 velocity=90 time=0
13998	note_on channel=9 note=82 velocity=0 time=10
13999	note_on channel=9 note=38 velocity=87 time=20
14000	note_on channel=9 note=37 velocity=127 time=0
14001	note_on channel=9 note=37 velocity=0 time=10
14002	note_on channel=9 note=38 velocity=0 time=0
14003	note_on channel=10 note=71 velocity=0 time=14
14004	
14005	note_on channel=9 note=36 velocity=127 time=0
14006	note_on channel=9 note=35 velocity=127 time=0
14007	note_on channel=9 note=82 velocity=88 time=0
14008	note_on channel=10 note=71 velocity=90 time=0
14009	note_on channel=9 note=82 velocity=0 time=10
14010	note_on channel=9 note=35 velocity=0 time=0
14011	note_on channel=9 note=36 velocity=0 time=0
14012	note_on channel=10 note=71 velocity=0 time=46
14013	
14014	note_on channel=9 note=38 velocity=86 time=0
14015	note_on channel=9 note=82 velocity=90 time=0
14016	note_on channel=9 note=37 velocity=127 time=0
14017	note_on channel=10 note=71 velocity=90 time=0
14018	note_on channel=9 note=37 velocity=0 time=10
14019	note_on channel=9 note=82 velocity=0 time=0
14020	note_on channel=9 note=38 velocity=0 time=0
14021	
14022	note_on channel=1 note=30 velocity=0 time=0
14023	note_on channel=9 note=36 velocity=127 time=0
14024	note_on channel=9 note=35 velocity=127 time=0
14025	note_on channel=10 note=73 velocity=90 time=0
14026	note_on channel=10 note=71 velocity=0 time=2
14027	note_on channel=9 note=36 velocity=0 time=8
14028	note_on channel=9 note=35 velocity=0 time=0
14029	note_on channel=9 note=82 velocity=67 time=20
14030	note_on channel=9 note=82 velocity=0 time=10
14031	note_on channel=10 note=73 velocity=0 time=18
14032	note_on channel=9 note=36 velocity=127 time=2
14033	note_on channel=9 note=35 velocity=127 time=0
14034	note_on channel=9 note=35 velocity=0 time=10
14035	note_on channel=9 note=36 velocity=0 time=0
14036	note_on channel=8 note=66 velocity=0 time=16
14037	note_on channel=8 note=69 velocity=0 time=0
14038	note_on channel=8 note=73 velocity=0 time=2
14039	
14040	note_on channel=1 note=33 velocity=108 time=0
14041	note_on channel=8 note=69 velocity=60 time=0
14042	note_on channel=8 note=73 velocity=60 time=0
14043	note_on channel=8 note=76 velocity=60 time=0
14044	note_on channel=9 note=36 velocity=127 time=0
14045	note_on channel=9 note=35 velocity=127 time=0
14046	note_on channel=9 note=82 velocity=110 time=0
14047	note_on channel=10 note=71 velocity=90 time=0
14048	note_on channel=9 note=82 velocity=0 time=10
14049	note_on channel=9 note=35 velocity=0 time=0
14050	note_on channel=9 note=36 velocity=0 time=0
14051	note_on channel=10 note=71 velocity=0 time=34
14052	
14053	note_on channel=9 note=82 velocity=91 time=0
14054	note_on channel=9 note=27 velocity=103 time=0
14055	note_on channel=10 note=71 velocity=90 time=0
14056	note_on channel=9 note=27 velocity=0 time=10
14057	note_on channel=9 note=82 velocity=0 time=0
14058	note_on channel=1 note=33 velocity=0 time=20
14059	note_on channel=9 note=36 velocity=127 time=0
14060	note_on channel=9 note=35 velocity=127 time=0
14061	note_on channel=9 note=35 velocity=0 time=10
14062	note_on channel=9 note=36 velocity=0 time=0
14063	note_on channel=10 note=71 velocity=0 time=14
14064	
14065	note_on channel=9 note=82 velocity=91 time=0
14066	note_on channel=9 note=27 velocity=103 time=0
14067	note_on channel=10 note=71 velocity=90 time=0
14068	note_on channel=9 note=27 velocity=0 time=10
14069	note_on channel=9 note=82 velocity=0 time=0
14070	note_on channel=10 note=71 velocity=0 time=42
14071	
14072	note_on channel=1 note=33 velocity=109 time=0
14073	note_on channel=9 note=38 velocity=87 time=0
14074	note_on channel=9 note=82 velocity=73 time=0
14075	note_on channel=9 note=37 velocity=127 time=0
14076	note_on channel=10 note=71 velocity=90 time=0
14077	note_on channel=9 note=37 velocity=0 time=10
14078	note_on channel=9 note=82 velocity=0 time=0
14079	note_on channel=9 note=38 velocity=0 time=0
14080	note_on channel=10 note=71 velocity=0 time=32
14081	note_on channel=8 note=76 velocity=0 time=14
14082	note_on channel=8 note=69 velocity=0 time=0
14083	note_on channel=8 note=73 velocity=0 time=2
14084	
14085	note_on channel=1 note=33 velocity=0 time=0
14086	note_on channel=1 note=28 velocity=88 time=0
14087	note_on channel=8 note=68 velocity=56 time=0
14088	note_on channel=8 note=71 velocity=56 time=0
14089	note_on channel=8 note=76 velocity=56 time=0
14090	note_on channel=9 note=82 velocity=109 time=0
14091	note_on channel=10 note=69 velocity=90 time=0
14092	note_on channel=9 note=82 velocity=0 time=10
14093	note_on channel=9 note=38 velocity=86 time=20
14094	note_on channel=9 note=37 velocity=127 time=0
14095	note_on channel=10 note=71 velocity=90 time=0
14096	note_on channel=10 note=69 velocity=0 time=2
14097	note_on channel=10 note=69 velocity=90 time=4
14098	note_on channel=9 note=37 velocity=0 time=4
14099	note_on channel=9 note=38 velocity=0 time=0
14100	note_on channel=9 note=82 velocity=91 time=20
14101	note_on channel=10 note=69 velocity=0 time=2
14102	note_on channel=9 note=82 velocity=0 time=8
14103	note_on channel=10 note=71 velocity=0 time=4
14104	note_on channel=1 note=28 velocity=0 time=16
14105	note_on channel=10 note=66 velocity=90 time=0
14106	
14107	note_on channel=9 note=38 velocity=85 time=0
14108	note_on channel=9 note=82 velocity=89 time=0
14109	note_on channel=9 note=37 velocity=127 time=0
14110	note_on channel=10 note=64 velocity=90 time=0
14111	note_on channel=10 note=66 velocity=0 time=8
14112	note_on channel=9 note=38 velocity=0 time=2
14113	note_on channel=9 note=82 velocity=0 time=0
14114	note_on channel=9 note=37 velocity=0 time=0
14115	note_on channel=9 note=36 velocity=127 time=20
14116	note_on channel=9 note=35 velocity=127 time=0
14117	note_on channel=9 note=35 velocity=0 time=10
14118	note_on channel=9 note=36 velocity=0 time=0
14119	note_on channel=10 note=64 velocity=0 time=20
14120	note_on channel=9 note=82 velocity=68 time=0
14121	note_on channel=9 note=82 velocity=0 time=10
14122	note_on channel=8 note=71 velocity=0 time=46
14123	note_on channel=8 note=76 velocity=0 time=2
14124	note_on channel=8 note=68 velocity=0 time=0
14125	note_on channel=1 note=33 velocity=110 time=2
14126	note_on channel=8 note=69 velocity=60 time=0
14127	note_on channel=8 note=73 velocity=60 time=0
14128	note_on channel=8 note=76 velocity=60 time=0
14129	note_on channel=9 note=36 velocity=127 time=0
14130	note_on channel=9 note=35 velocity=127 time=0
14131	note_on channel=9 note=82 velocity=108 time=0
14132	note_on channel=9 note=82 velocity=0 time=10
14133	note_on channel=9 note=36 velocity=0 time=0
14134	note_on channel=9 note=35 velocity=0 time=0
14135	
14136	note_on channel=1 note=33 velocity=0 time=0
14137	note_on channel=1 note=35 velocity=69 time=0
14138	note_on channel=9 note=82 velocity=90 time=0
14139	note_on channel=9 note=27 velocity=103 time=0
14140	note_on channel=10 note=69 velocity=90 time=0
14141	note_on channel=9 note=27 velocity=0 time=10
14142	note_on channel=1 note=35 velocity=0 time=0
14143	note_on channel=9 note=82 velocity=0 time=0
14144	note_on channel=10 note=69 velocity=0 time=20
14145	note_on channel=1 note=37 velocity=92 time=0
14146	
14147	note_on channel=10 note=69 velocity=90 time=0
14148	note_on channel=1 note=37 velocity=0 time=8
14149	note_on channel=1 note=35 velocity=69 time=20
14150	note_on channel=9 note=82 velocity=88 time=0
14151	note_on channel=9 note=27 velocity=101 time=0
14152	note_on channel=9 note=27 velocity=0 time=10
14153	note_on channel=1 note=35 velocity=0 time=0
14154	note_on channel=9 note=82 velocity=0 time=0
14155	note_on channel=10 note=69 velocity=0 time=12
14156	
14157	note_on channel=10 note=69 velocity=90 time=0
14158	note_on channel=1 note=37 velocity=68 time=4
14159	note_on channel=1 note=37 velocity=0 time=10
14160	note_on channel=10 note=69 velocity=0 time=12
14161	
14162	note_on channel=10 note=69 velocity=90 time=0
14163	note_on channel=1 note=31 velocity=91 time=2
14164	note_on channel=9 note=38 velocity=88 time=0
14165	note_on channel=9 note=82 velocity=67 time=0
14166	note_on channel=9 note=37 velocity=127 time=0
14167	note_on channel=9 note=37 velocity=0 time=10
14168	note_on channel=9 note=82 velocity=0 time=0
14169	note_on channel=9 note=38 velocity=0 time=0
14170	note_on channel=8 note=69 velocity=0 time=46
14171	note_on channel=8 note=76 velocity=0 time=0
14172	note_on channel=10 note=69 velocity=0 time=0
14173	note_on channel=8 note=73 velocity=0 time=2
14174	
14175	note_on channel=1 note=31 velocity=0 time=0
14176	note_on channel=1 note=40 velocity=112 time=0
14177	note_on channel=8 note=68 velocity=56 time=0
14178	note_on channel=8 note=71 velocity=56 time=0
14179	note_on channel=8 note=76 velocity=56 time=0
14180	note_on channel=9 note=82 velocity=109 time=0
14181	note_on channel=10 note=68 velocity=90 time=0
14182	note_on channel=9 note=82 velocity=0 time=10
14183	note_on channel=9 note=38 velocity=87 time=20
14184	note_on channel=9 note=37 velocity=127 time=0
14185	note_on channel=9 note=37 velocity=0 time=10
14186	note_on channel=9 note=38 velocity=0 time=0
14187	note_on channel=1 note=40 velocity=0 time=10
14188	note_on channel=10 note=68 velocity=0 time=8
14189	
14190	note_on channel=1 note=37 velocity=69 time=0
14191	note_on channel=9 note=82 velocity=88 time=0
14192	note_on channel=10 note=68 velocity=90 time=0
14193	note_on channel=9 note=82 velocity=0 time=10
14194	note_on channel=1 note=37 velocity=0 time=0
14195	note_on channel=1 note=40 velocity=90 time=20
14196	note_on channel=10 note=68 velocity=0 time=26
14197	
14198	note_on channel=1 note=40 velocity=0 time=0
14199	note_on channel=1 note=37 velocity=68 time=0
14200	note_on channel=9 note=38 velocity=86 time=0
14201	note_on channel=9 note=82 velocity=90 time=0
14202	note_on channel=9 note=37 velocity=127 time=0
14203	note_on channel=10 note=68 velocity=90 time=0
14204	note_on channel=9 note=37 velocity=0 time=10
14205	note_on channel=1 note=37 velocity=0 time=0
14206	note_on channel=9 note=38 velocity=0 time=0
14207	note_on channel=9 note=82 velocity=0 time=0
14208	note_on channel=1 note=35 velocity=71 time=20
14209	note_on channel=1 note=35 velocity=0 time=10
14210	note_on channel=10 note=68 velocity=0 time=12
14211	
14212	note_on channel=1 note=32 velocity=92 time=0
14213	note_on channel=9 note=82 velocity=67 time=0
14214	note_on channel=10 note=68 velocity=90 time=0
14215	note_on channel=11 note=69 velocity=90 time=0
14216	note_on channel=11 note=61 velocity=90 time=0
14217	note_on channel=11 note=57 velocity=90 time=0
14218	note_on channel=9 note=82 velocity=0 time=10
14219	note_on channel=1 note=32 velocity=0 time=0
14220	note_on channel=11 note=61 velocity=0 time=4
14221	note_on channel=11 note=57 velocity=0 time=0
14222	note_on channel=11 note=69 velocity=0 time=0
14223	note_on channel=1 note=30 velocity=72 time=16
14224	note_on channel=11 note=69 velocity=90 time=0
14225	note_on channel=11 note=61 velocity=90 time=0
14226	note_on channel=11 note=57 velocity=90 time=0
14227	note_on channel=1 note=30 velocity=0 time=10
14228	note_on channel=11 note=57 velocity=0 time=2
14229	note_on channel=11 note=69 velocity=0 time=4
14230	note_on channel=11 note=61 velocity=0 time=0
14231	note_on channel=10 note=68 velocity=0 time=6
14232	note_on channel=8 note=68 velocity=0 time=4
14233	note_on channel=8 note=71 velocity=0 time=0
14234	note_on channel=8 note=76 velocity=0 time=1
14235	note_on channel=1 note=33 velocity=109 time=3
14236	note_on channel=8 note=69 velocity=61 time=0
14237	note_on channel=8 note=73 velocity=61 time=0
14238	note_on channel=8 note=76 velocity=61 time=0
14239	note_on channel=9 note=36 velocity=127 time=0
14240	note_on channel=9 note=35 velocity=127 time=0
14241	note_on channel=9 note=82 velocity=110 time=0
14242	note_on channel=9 note=82 velocity=0 time=10
14243	note_on channel=9 note=36 velocity=0 time=0
14244	note_on channel=9 note=35 velocity=0 time=0
14245	note_on channel=1 note=33 velocity=0 time=40
14246	
14247	note_on channel=9 note=82 velocity=91 time=0
14248	note_on channel=9 note=27 velocity=103 time=0
14249	note_on channel=10 note=69 velocity=90 time=0
14250	note_on channel=9 note=27 velocity=0 time=10
14251	note_on channel=9 note=82 velocity=0 time=0
14252	note_on channel=10 note=69 velocity=0 time=20
14253	note_on channel=9 note=36 velocity=127 time=0
14254	note_on channel=9 note=35 velocity=127 time=0
14255	
14256	note_on channel=10 note=69 velocity=90 time=0
14257	note_on channel=9 note=35 velocity=0 time=8
14258	note_on channel=9 note=36 velocity=0 time=0
14259	note_on channel=9 note=82 velocity=91 time=20
14260	note_on channel=9 note=27 velocity=103 time=0
14261	note_on channel=9 note=27 velocity=0 time=10
14262	note_on channel=9 note=82 velocity=0 time=0
14263	note_on channel=10 note=69 velocity=0 time=12
14264	
14265	note_on channel=10 note=69 velocity=90 time=0
14266	note_on channel=10 note=69 velocity=0 time=26
14267	
14268	note_on channel=10 note=69 velocity=90 time=0
14269	note_on channel=1 note=37 velocity=111 time=2
14270	note_on channel=9 note=38 velocity=87 time=0
14271	note_on channel=9 note=82 velocity=73 time=0
14272	note_on channel=9 note=37 velocity=127 time=0
14273	note_on channel=9 note=37 velocity=0 time=10
14274	note_on channel=9 note=82 velocity=0 time=0
14275	note_on channel=9 note=38 velocity=0 time=0
14276	note_on channel=8 note=69 velocity=0 time=46
14277	note_on channel=10 note=69 velocity=0 time=0
14278	note_on channel=8 note=73 velocity=0 time=1
14279	note_on channel=8 note=76 velocity=0 time=1
14280	
14281	note_on channel=1 note=37 velocity=0 time=0
14282	note_on channel=1 note=28 velocity=103 time=0
14283	note_on channel=8 note=68 velocity=54 time=0
14284	note_on channel=8 note=71 velocity=54 time=0
14285	note_on channel=8 note=76 velocity=54 time=0
14286	note_on channel=9 note=82 velocity=109 time=0
14287	note_on channel=10 note=68 velocity=90 time=0
14288	note_on channel=9 note=82 velocity=0 time=10
14289	note_on channel=9 note=38 velocity=86 time=20
14290	note_on channel=9 note=37 velocity=127 time=0
14291	note_on channel=9 note=37 velocity=0 time=10
14292	note_on channel=9 note=38 velocity=0 time=0
14293	note_on channel=10 note=68 velocity=0 time=18
14294	
14295	note_on channel=9 note=82 velocity=91 time=0
14296	note_on channel=10 note=68 velocity=90 time=0
14297	note_on channel=9 note=82 velocity=0 time=10
14298	note_on channel=10 note=68 velocity=0 time=46
14299	
14300	note_on channel=9 note=38 velocity=85 time=0
14301	note_on channel=9 note=82 velocity=89 time=0
14302	note_on channel=9 note=37 velocity=127 time=0
14303	note_on channel=10 note=68 velocity=90 time=0
14304	note_on channel=9 note=37 velocity=0 time=10
14305	note_on channel=9 note=82 velocity=0 time=0
14306	note_on channel=9 note=38 velocity=0 time=0
14307	note_on channel=9 note=36 velocity=127 time=20
14308	note_on channel=9 note=35 velocity=127 time=0
14309	note_on channel=9 note=35 velocity=0 time=10
14310	note_on channel=9 note=36 velocity=0 time=0
14311	note_on channel=9 note=82 velocity=68 time=20
14312	note_on channel=11 note=69 velocity=90 time=0
14313	note_on channel=11 note=61 velocity=90 time=0
14314	note_on channel=11 note=57 velocity=90 time=0
14315	note_on channel=9 note=82 velocity=0 time=10
14316	note_on channel=11 note=57 velocity=0 time=4
14317	note_on channel=11 note=61 velocity=0 time=0
14318	note_on channel=11 note=69 velocity=0 time=0
14319	note_on channel=11 note=69 velocity=90 time=16
14320	note_on channel=11 note=61 velocity=90 time=0
14321	note_on channel=11 note=57 velocity=90 time=0
14322	note_on channel=11 note=57 velocity=0 time=12
14323	note_on channel=11 note=61 velocity=0 time=4
14324	note_on channel=10 note=68 velocity=0 time=0
14325	note_on channel=11 note=69 velocity=0 time=0
14326	note_on channel=8 note=71 velocity=0 time=11
14327	note_on channel=8 note=76 velocity=0 time=0
14328	note_on channel=8 note=68 velocity=0 time=1
14329	note_on channel=1 note=28 velocity=0 time=2
14330	note_on channel=1 note=33 velocity=110 time=0
14331	note_on channel=8 note=69 velocity=61 time=0
14332	note_on channel=8 note=73 velocity=61 time=0
14333	note_on channel=8 note=76 velocity=61 time=0
14334	note_on channel=9 note=36 velocity=127 time=0
14335	note_on channel=9 note=35 velocity=127 time=0
14336	note_on channel=9 note=82 velocity=108 time=0
14337	note_on channel=9 note=82 velocity=0 time=10
14338	note_on channel=9 note=36 velocity=0 time=0
14339	note_on channel=9 note=35 velocity=0 time=0
14340	
14341	note_on channel=9 note=82 velocity=90 time=0
14342	note_on channel=9 note=27 velocity=103 time=0
14343	note_on channel=10 note=69 velocity=90 time=0
14344	note_on channel=9 note=27 velocity=0 time=10
14345	note_on channel=9 note=82 velocity=0 time=0
14346	note_on channel=1 note=33 velocity=0 time=20
14347	note_on channel=10 note=69 velocity=0 time=0
14348	note_on channel=9 note=36 velocity=127 time=0
14349	note_on channel=9 note=35 velocity=127 time=0
14350	
14351	note_on channel=10 note=69 velocity=90 time=0
14352	note_on channel=9 note=35 velocity=0 time=8
14353	note_on channel=9 note=36 velocity=0 time=0
14354	note_on channel=9 note=82 velocity=88 time=20
14355	note_on channel=9 note=27 velocity=101 time=0
14356	note_on channel=9 note=27 velocity=0 time=10
14357	note_on channel=9 note=82 velocity=0 time=0
14358	note_on channel=10 note=69 velocity=0 time=12
14359	
14360	note_on channel=10 note=69 velocity=90 time=0
14361	note_on channel=10 note=69 velocity=0 time=26
14362	
14363	note_on channel=10 note=69 velocity=90 time=0
14364	note_on channel=1 note=33 velocity=108 time=2
14365	note_on channel=9 note=38 velocity=88 time=0
14366	note_on channel=9 note=82 velocity=67 time=0
14367	note_on channel=9 note=37 velocity=127 time=0
14368	note_on channel=9 note=37 velocity=0 time=10
14369	note_on channel=9 note=82 velocity=0 time=0
14370	note_on channel=9 note=38 velocity=0 time=0
14371	note_on channel=10 note=69 velocity=0 time=46
14372	note_on channel=8 note=73 velocity=0 time=1
14373	note_on channel=8 note=69 velocity=0 time=1
14374	note_on channel=8 note=76 velocity=0 time=0
14375	
14376	note_on channel=1 note=33 velocity=0 time=0
14377	note_on channel=1 note=40 velocity=100 time=0
14378	note_on channel=8 note=68 velocity=55 time=0
14379	note_on channel=8 note=71 velocity=55 time=0
14380	note_on channel=8 note=76 velocity=55 time=0
14381	note_on channel=9 note=82 velocity=109 time=0
14382	note_on channel=10 note=68 velocity=90 time=0
14383	note_on channel=9 note=82 velocity=0 time=10
14384	note_on channel=9 note=38 velocity=87 time=20
14385	note_on channel=9 note=37 velocity=127 time=0
14386	note_on channel=9 note=37 velocity=0 time=10
14387	note_on channel=9 note=38 velocity=0 time=0
14388	note_on channel=10 note=68 velocity=0 time=18
14389	
14390	note_on channel=9 note=36 velocity=127 time=0
14391	note_on channel=9 note=35 velocity=127 time=0
14392	note_on channel=9 note=82 velocity=88 time=0
14393	note_on channel=10 note=68 velocity=90 time=0
14394	note_on channel=9 note=82 velocity=0 time=10
14395	note_on channel=9 note=35 velocity=0 time=0
14396	note_on channel=9 note=36 velocity=0 time=0
14397	note_on channel=10 note=68 velocity=0 time=46
14398	
14399	note_on channel=9 note=38 velocity=86 time=0
14400	note_on channel=9 note=82 velocity=90 time=0
14401	note_on channel=9 note=37 velocity=127 time=0
14402	note_on channel=10 note=68 velocity=90 time=0
14403	note_on channel=9 note=37 velocity=0 time=10
14404	note_on channel=9 note=82 velocity=0 time=0
14405	note_on channel=9 note=38 velocity=0 time=0
14406	note_on channel=9 note=36 velocity=127 time=20
14407	note_on channel=9 note=35 velocity=127 time=0
14408	note_on channel=9 note=35 velocity=0 time=10
14409	note_on channel=9 note=36 velocity=0 time=0
14410	note_on channel=10 note=68 velocity=0 time=12
14411	
14412	note_on channel=9 note=82 velocity=67 time=0
14413	note_on channel=10 note=68 velocity=90 time=0
14414	note_on channel=11 note=69 velocity=90 time=0
14415	note_on channel=11 note=61 velocity=90 time=0
14416	note_on channel=11 note=57 velocity=90 time=0
14417	note_on channel=9 note=82 velocity=0 time=10
14418	note_on channel=11 note=57 velocity=0 time=4
14419	note_on channel=11 note=61 velocity=0 time=0
14420	note_on channel=11 note=69 velocity=0 time=0
14421	note_on channel=9 note=36 velocity=127 time=16
14422	note_on channel=9 note=35 velocity=127 time=0
14423	note_on channel=11 note=69 velocity=90 time=0
14424	note_on channel=11 note=61 velocity=90 time=0
14425	note_on channel=11 note=57 velocity=90 time=0
14426	note_on channel=9 note=35 velocity=0 time=10
14427	note_on channel=9 note=36 velocity=0 time=0
14428	note_on channel=11 note=57 velocity=0 time=2
14429	note_on channel=11 note=69 velocity=0 time=4
14430	note_on channel=11 note=61 velocity=0 time=0
14431	note_on channel=10 note=68 velocity=0 time=6
14432	note_on channel=8 note=71 velocity=0 time=4
14433	note_on channel=8 note=68 velocity=0 time=1
14434	note_on channel=8 note=76 velocity=0 time=1
14435	note_on channel=1 note=40 velocity=0 time=2
14436	note_on channel=1 note=31 velocity=110 time=0
14437	note_on channel=8 note=69 velocity=59 time=0
14438	note_on channel=8 note=73 velocity=59 time=0
14439	note_on channel=8 note=76 velocity=59 time=0
14440	note_on channel=9 note=36 velocity=127 time=0
14441	note_on channel=9 note=35 velocity=127 time=0
14442	note_on channel=9 note=82 velocity=110 time=0
14443	note_on channel=9 note=82 velocity=0 time=10
14444	note_on channel=9 note=36 velocity=0 time=0
14445	note_on channel=9 note=35 velocity=0 time=0
14446	
14447	note_on channel=1 note=31 velocity=0 time=0
14448	note_on channel=1 note=33 velocity=108 time=0
14449	note_on channel=9 note=82 velocity=91 time=0
14450	note_on channel=9 note=27 velocity=103 time=0
14451	note_on channel=10 note=69 velocity=90 time=0
14452	note_on channel=9 note=27 velocity=0 time=10
14453	note_on channel=9 note=82 velocity=0 time=0
14454	note_on channel=1 note=33 velocity=0 time=10
14455	note_on channel=10 note=69 velocity=0 time=10
14456	note_on channel=9 note=36 velocity=127 time=0
14457	note_on channel=9 note=35 velocity=127 time=0
14458	
14459	note_on channel=10 note=69 velocity=90 time=0
14460	note_on channel=9 note=35 velocity=0 time=8
14461	note_on channel=9 note=36 velocity=0 time=0
14462	note_on channel=1 note=37 velocity=72 time=20
14463	note_on channel=9 note=82 velocity=91 time=0
14464	note_on channel=9 note=27 velocity=103 time=0
14465	note_on channel=9 note=27 velocity=0 time=10
14466	note_on channel=1 note=37 velocity=0 time=0
14467	note_on channel=9 note=82 velocity=0 time=0
14468	note_on channel=10 note=69 velocity=0 time=12
14469	
14470	note_on channel=10 note=69 velocity=90 time=0
14471	note_on channel=1 note=33 velocity=69 time=4
14472	note_on channel=1 note=33 velocity=0 time=10
14473	note_on channel=10 note=69 velocity=0 time=12
14474	
14475	note_on channel=10 note=69 velocity=90 time=0
14476	note_on channel=1 note=33 velocity=108 time=2
14477	note_on channel=9 note=38 velocity=87 time=0
14478	note_on channel=9 note=82 velocity=73 time=0
14479	note_on channel=9 note=37 velocity=127 time=0
14480	note_on channel=9 note=37 velocity=0 time=10
14481	note_on channel=9 note=82 velocity=0 time=0
14482	note_on channel=9 note=38 velocity=0 time=0
14483	note_on channel=10 note=69 velocity=0 time=46
14484	note_on channel=8 note=73 velocity=0 time=1
14485	note_on channel=8 note=76 velocity=0 time=1
14486	note_on channel=8 note=69 velocity=0 time=0
14487	
14488	note_on channel=1 note=33 velocity=0 time=0
14489	note_on channel=1 note=28 velocity=72 time=0
14490	note_on channel=8 note=68 velocity=56 time=0
14491	note_on channel=8 note=71 velocity=56 time=0
14492	note_on channel=8 note=76 velocity=56 time=0
14493	note_on channel=9 note=82 velocity=109 time=0
14494	note_on channel=10 note=68 velocity=90 time=0
14495	note_on channel=9 note=82 velocity=0 time=10
14496	note_on channel=1 note=28 velocity=0 time=10
14497	note_on channel=1 note=40 velocity=89 time=10
14498	note_on channel=9 note=38 velocity=86 time=0
14499	note_on channel=9 note=37 velocity=127 time=0
14500	note_on channel=9 note=37 velocity=0 time=10
14501	note_on channel=1 note=40 velocity=0 time=0
14502	note_on channel=9 note=38 velocity=0 time=0
14503	note_on channel=10 note=68 velocity=0 time=18
14504	
14505	note_on channel=1 note=38 velocity=72 time=0
14506	note_on channel=9 note=82 velocity=91 time=0
14507	note_on channel=10 note=68 velocity=90 time=0
14508	note_on channel=9 note=82 velocity=0 time=10
14509	note_on channel=1 note=38 velocity=0 time=0
14510	note_on channel=1 note=50 velocity=92 time=20
14511	note_on channel=10 note=68 velocity=0 time=26
14512	
14513	note_on channel=1 note=50 velocity=0 time=0
14514	note_on channel=1 note=40 velocity=88 time=0
14515	note_on channel=9 note=38 velocity=85 time=0
14516	note_on channel=9 note=82 velocity=89 time=0
14517	note_on channel=9 note=37 velocity=127 time=0
14518	note_on channel=10 note=68 velocity=90 time=0
14519	note_on channel=9 note=37 velocity=0 time=10
14520	note_on channel=1 note=40 velocity=0 time=0
14521	note_on channel=9 note=38 velocity=0 time=0
14522	note_on channel=9 note=82 velocity=0 time=0
14523	note_on channel=1 note=38 velocity=71 time=20
14524	note_on channel=9 note=36 velocity=127 time=0
14525	note_on channel=9 note=35 velocity=127 time=0
14526	note_on channel=9 note=35 velocity=0 time=10
14527	note_on channel=9 note=36 velocity=0 time=0
14528	note_on channel=1 note=38 velocity=0 time=10
14529	
14530	note_on channel=1 note=50 velocity=89 time=0
14531	note_on channel=9 note=82 velocity=68 time=0
14532	note_on channel=10 note=73 velocity=90 time=0
14533	note_on channel=9 note=82 velocity=0 time=10
14534	note_on channel=10 note=68 velocity=0 time=8
14535	note_on channel=1 note=50 velocity=0 time=2
14536	note_on channel=1 note=52 velocity=91 time=10
14537	note_on channel=1 note=52 velocity=0 time=10
14538	note_on channel=10 note=73 velocity=0 time=10
14539	note_on channel=8 note=71 velocity=0 time=6
14540	note_on channel=8 note=68 velocity=0 time=1
14541	note_on channel=8 note=76 velocity=0 time=1
14542	
14543	note_on channel=1 note=33 velocity=111 time=0
14544	note_on channel=8 note=69 velocity=61 time=0
14545	note_on channel=8 note=73 velocity=61 time=0
14546	note_on channel=8 note=76 velocity=61 time=0
14547	note_on channel=9 note=36 velocity=127 time=0
14548	note_on channel=9 note=35 velocity=127 time=0
14549	note_on channel=9 note=82 velocity=88 time=0
14550	note_on channel=10 note=76 velocity=90 time=0
14551	note_on channel=9 note=82 velocity=0 time=10
14552	note_on channel=9 note=35 velocity=0 time=0
14553	note_on channel=9 note=36 velocity=0 time=0
14554	note_on channel=1 note=33 velocity=0 time=50
14555	note_on channel=1 note=37 velocity=71 time=0
14556	note_on channel=9 note=82 velocity=70 time=0
14557	note_on channel=9 note=27 velocity=83 time=0
14558	note_on channel=9 note=27 velocity=0 time=10
14559	note_on channel=1 note=37 velocity=0 time=0
14560	note_on channel=9 note=82 velocity=0 time=0
14561	note_on channel=1 note=33 velocity=88 time=20
14562	note_on channel=1 note=33 velocity=0 time=10
14563	note_on channel=1 note=31 velocity=91 time=20
14564	note_on channel=9 note=82 velocity=68 time=0
14565	note_on channel=9 note=27 velocity=81 time=0
14566	note_on channel=9 note=27 velocity=0 time=10
14567	note_on channel=9 note=82 velocity=0 time=0
14568	note_on channel=1 note=31 velocity=0 time=10
14569	note_on channel=10 note=76 velocity=0 time=6
14570	
14571	note_on channel=10 note=74 velocity=90 time=0
14572	note_on channel=1 note=33 velocity=112 time=30
14573	note_on channel=9 note=38 velocity=68 time=0
14574	note_on channel=9 note=82 velocity=47 time=0
14575	note_on channel=9 note=37 velocity=127 time=0
14576	note_on channel=9 note=37 velocity=0 time=10
14577	note_on channel=9 note=82 velocity=0 time=0
14578	note_on channel=9 note=38 velocity=0 time=0
14579	
14580	note_on channel=10 note=74 velocity=0 time=0
14581	note_on channel=10 note=73 velocity=90 time=0
14582	note_on channel=8 note=73 velocity=0 time=26
14583	note_on channel=8 note=76 velocity=0 time=2
14584	note_on channel=10 note=73 velocity=0 time=0
14585	note_on channel=8 note=69 velocity=0 time=0
14586	
14587	note_on channel=1 note=33 velocity=0 time=0
14588	note_on channel=1 note=35 velocity=75 time=0
14589	note_on channel=8 note=66 velocity=56 time=0
14590	note_on channel=8 note=71 velocity=56 time=0
14591	note_on channel=8 note=74 velocity=56 time=0
14592	note_on channel=9 note=82 velocity=89 time=0
14593	note_on channel=10 note=74 velocity=90 time=0
14594	note_on channel=9 note=82 velocity=0 time=10
14595	note_on channel=1 note=35 velocity=0 time=0
14596	note_on channel=9 note=38 velocity=67 time=20
14597	note_on channel=9 note=37 velocity=127 time=0
14598	note_on channel=9 note=37 velocity=0 time=10
14599	note_on channel=9 note=38 velocity=0 time=0
14600	note_on channel=1 note=36 velocity=92 time=20
14601	note_on channel=9 note=82 velocity=68 time=0
14602	note_on channel=9 note=82 velocity=0 time=10
14603	note_on channel=1 note=36 velocity=0 time=10
14604	note_on channel=1 note=45 velocity=92 time=10
14605	note_on channel=9 note=38 velocity=66 time=30
14606	note_on channel=9 note=82 velocity=70 time=0
14607	note_on channel=9 note=37 velocity=127 time=0
14608	note_on channel=9 note=37 velocity=0 time=10
14609	note_on channel=9 note=82 velocity=0 time=0
14610	note_on channel=9 note=38 velocity=0 time=0
14611	note_on channel=1 note=45 velocity=0 time=10
14612	note_on channel=10 note=74 velocity=0 time=6
14613	
14614	note_on channel=1 note=42 velocity=92 time=0
14615	note_on channel=10 note=73 velocity=90 time=0
14616	note_on channel=1 note=42 velocity=0 time=30
14617	note_on channel=1 note=45 velocity=90 time=0
14618	note_on channel=9 note=82 velocity=47 time=0
14619	note_on channel=9 note=82 velocity=0 time=10
14620	note_on channel=10 note=73 velocity=0 time=12
14621	note_on channel=1 note=45 velocity=0 time=8
14622	note_on channel=1 note=47 velocity=92 time=0
14623	note_on channel=1 note=47 velocity=0 time=20
14624	note_on channel=8 note=66 velocity=0 time=6
14625	note_on channel=8 note=74 velocity=0 time=0
14626	note_on channel=8 note=71 velocity=0 time=1
14627	
14628	note_on channel=1 note=30 velocity=111 time=0
14629	note_on channel=8 note=66 velocity=59 time=0
14630	note_on channel=8 note=69 velocity=59 time=0
14631	note_on channel=8 note=73 velocity=59 time=0
14632	note_on channel=9 note=36 velocity=127 time=0
14633	note_on channel=9 note=35 velocity=127 time=0
14634	note_on channel=9 note=82 velocity=90 time=0
14635	note_on channel=10 note=73 velocity=90 time=0
14636	note_on channel=9 note=82 velocity=0 time=10
14637	note_on channel=1 note=30 velocity=0 time=0
14638	note_on channel=9 note=36 velocity=0 time=0
14639	note_on channel=9 note=35 velocity=0 time=0
14640	note_on channel=1 note=32 velocity=71 time=20
14641	note_on channel=1 note=32 velocity=0 time=10
14642	note_on channel=10 note=73 velocity=0 time=16
14643	note_on channel=1 note=40 velocity=89 time=4
14644	note_on channel=9 note=82 velocity=71 time=0
14645	note_on channel=9 note=27 velocity=83 time=0
14646	note_on channel=10 note=69 velocity=90 time=0
14647	note_on channel=9 note=27 velocity=0 time=10
14648	note_on channel=9 note=82 velocity=0 time=0
14649	note_on channel=1 note=40 velocity=0 time=20
14650	note_on channel=9 note=36 velocity=127 time=0
14651	note_on channel=9 note=35 velocity=127 time=0
14652	note_on channel=9 note=35 velocity=0 time=10
14653	note_on channel=9 note=36 velocity=0 time=0
14654	
14655	note_on channel=10 note=69 velocity=0 time=0
14656	note_on channel=1 note=38 velocity=89 time=0
14657	note_on channel=9 note=82 velocity=71 time=0
14658	note_on channel=9 note=27 velocity=83 time=0
14659	note_on channel=10 note=71 velocity=90 time=0
14660	note_on channel=9 note=27 velocity=0 time=10
14661	note_on channel=9 note=82 velocity=0 time=0
14662	note_on channel=1 note=38 velocity=0 time=10
14663	note_on channel=1 note=40 velocity=88 time=10
14664	note_on channel=10 note=71 velocity=0 time=28
14665	
14666	note_on channel=1 note=40 velocity=0 time=0
14667	note_on channel=1 note=30 velocity=91 time=0
14668	note_on channel=9 note=82 velocity=53 time=0
14669	note_on channel=9 note=37 velocity=127 time=0
14670	note_on channel=10 note=68 velocity=90 time=0
14671	note_on channel=9 note=37 velocity=0 time=10
14672	note_on channel=1 note=30 velocity=0 time=0
14673	note_on channel=9 note=82 velocity=0 time=0
14674	note_on channel=1 note=30 velocity=112 time=20
14675	note_on channel=8 note=73 velocity=0 time=26
14676	note_on channel=8 note=69 velocity=0 time=0
14677	note_on channel=8 note=66 velocity=0 time=2
14678	note_on channel=10 note=68 velocity=0 time=0
14679	
14680	note_on channel=1 note=30 velocity=0 time=0
14681	note_on channel=1 note=28 velocity=78 time=0
14682	note_on channel=8 note=68 velocity=56 time=0
14683	note_on channel=8 note=71 velocity=56 time=0
14684	note_on channel=8 note=76 velocity=56 time=0
14685	note_on channel=9 note=38 velocity=92 time=0
14686	note_on channel=9 note=82 velocity=89 time=0
14687	note_on channel=10 note=69 velocity=90 time=0
14688	note_on channel=9 note=82 velocity=0 time=10
14689	note_on channel=9 note=38 velocity=0 time=1
14690	note_on channel=9 note=38 velocity=93 time=4
14691	note_on channel=1 note=28 velocity=0 time=5
14692	note_on channel=9 note=38 velocity=0 time=8
14693	note_on channel=9 note=38 velocity=93 time=2
14694	note_on channel=9 note=37 velocity=127 time=0
14695	note_on channel=9 note=37 velocity=0 time=10
14696	note_on channel=9 note=38 velocity=0 time=0
14697	note_on channel=9 note=38 velocity=93 time=5
14698	note_on channel=9 note=38 velocity=0 time=9
14699	note_on channel=10 note=69 velocity=0 time=2
14700	note_on channel=1 note=32 velocity=71 time=4
14701	note_on channel=9 note=82 velocity=71 time=0
14702	note_on channel=10 note=68 velocity=90 time=0
14703	note_on channel=9 note=82 velocity=0 time=10
14704	note_on channel=1 note=32 velocity=0 time=0
14705	note_on channel=1 note=38 velocity=89 time=20
14706	note_on channel=9 note=38 velocity=67 time=0
14707	note_on channel=9 note=38 velocity=0 time=11
14708	note_on channel=10 note=68 velocity=0 time=17
14709	
14710	note_on channel=1 note=38 velocity=0 time=0
14711	note_on channel=1 note=40 velocity=92 time=0
14712	note_on channel=9 note=38 velocity=85 time=0
14713	note_on channel=9 note=82 velocity=69 time=0
14714	note_on channel=9 note=37 velocity=127 time=0
14715	note_on channel=10 note=66 velocity=90 time=0
14716	note_on channel=9 note=37 velocity=0 time=10
14717	note_on channel=1 note=40 velocity=0 time=0
14718	note_on channel=9 note=38 velocity=0 time=0
14719	note_on channel=9 note=82 velocity=0 time=0
14720	note_on channel=1 note=38 velocity=89 time=20
14721	note_on channel=9 note=36 velocity=127 time=0
14722	note_on channel=9 note=35 velocity=127 time=0
14723	note_on channel=9 note=35 velocity=0 time=10
14724	note_on channel=1 note=38 velocity=0 time=0
14725	note_on channel=9 note=36 velocity=0 time=0
14726	note_on channel=10 note=66 velocity=0 time=8
14727	note_on channel=1 note=35 velocity=91 time=12
14728	note_on channel=9 note=82 velocity=48 time=0
14729	note_on channel=9 note=82 velocity=0 time=10
14730	note_on channel=1 note=35 velocity=0 time=20
14731	note_on channel=1 note=33 velocity=69 time=0
14732	note_on channel=1 note=33 velocity=0 time=20
14733	note_on channel=8 note=76 velocity=0 time=8
14734	note_on channel=8 note=68 velocity=0 time=0
14735	note_on channel=8 note=71 velocity=0 time=0
14736	
14737	note_on channel=1 note=30 velocity=109 time=0
14738	note_on channel=8 note=66 velocity=60 time=0
14739	note_on channel=8 note=69 velocity=60 time=0
14740	note_on channel=8 note=73 velocity=60 time=0
14741	note_on channel=9 note=36 velocity=127 time=0
14742	note_on channel=9 note=35 velocity=127 time=0
14743	note_on channel=9 note=55 velocity=108 time=0
14744	note_on channel=10 note=69 velocity=90 time=0
14745	note_on channel=13 note=69 velocity=90 time=0
14746	note_on channel=9 note=55 velocity=0 time=10
14747	note_on channel=9 note=35 velocity=0 time=0
14748	note_on channel=9 note=36 velocity=0 time=0
14749	note_on channel=1 note=30 velocity=0 time=40
14750	note_on channel=13 note=69 velocity=0 time=64
14751	note_on channel=10 note=69 velocity=0 time=0
14752	
14753	note_on channel=10 note=68 velocity=90 time=0
14754	note_on channel=13 note=68 velocity=90 time=0
14755	note_on channel=1 note=31 velocity=91 time=30
14756	note_on channel=1 note=31 velocity=0 time=10
14757	
14758	note_on channel=10 note=68 velocity=0 time=0
14759	note_on channel=13 note=68 velocity=0 time=0
14760	note_on channel=1 note=28 velocity=111 time=0
14761	note_on channel=10 note=71 velocity=90 time=0
14762	note_on channel=13 note=71 velocity=90 time=0
14763	note_on channel=1 note=28 velocity=0 time=50
14764	note_on channel=8 note=73 velocity=0 time=7
14765	note_on channel=8 note=66 velocity=0 time=1
14766	note_on channel=8 note=69 velocity=0 time=0
14767	
14768	note_on channel=13 note=71 velocity=0 time=0
14769	note_on channel=10 note=71 velocity=0 time=0
14770	note_on channel=1 note=35 velocity=108 time=0
14771	note_on channel=8 note=66 velocity=54 time=0
14772	note_on channel=8 note=71 velocity=54 time=0
14773	note_on channel=8 note=74 velocity=54 time=0
14774	note_on channel=10 note=69 velocity=90 time=0
14775	note_on channel=13 note=69 velocity=90 time=0
14776	note_on channel=1 note=35 velocity=0 time=40
14777	
14778	note_on channel=10 note=69 velocity=0 time=0
14779	note_on channel=13 note=69 velocity=0 time=0
14780	note_on channel=10 note=68 velocity=90 time=0
14781	note_on channel=13 note=68 velocity=90 time=0
14782	note_on channel=13 note=68 velocity=0 time=50
14783	note_on channel=10 note=68 velocity=0 time=0
14784	
14785	note_on channel=10 note=66 velocity=90 time=0
14786	note_on channel=13 note=66 velocity=90 time=0
14787	
14788	note_on channel=1 note=37 velocity=92 time=0
14789	note_on channel=9 note=38 velocity=67 time=0
14790	note_on channel=10 note=62 velocity=90 time=0
14791	note_on channel=13 note=62 velocity=90 time=0
14792	note_on channel=13 note=66 velocity=0 time=2
14793	note_on channel=10 note=66 velocity=0 time=0
14794	note_on channel=9 note=38 velocity=0 time=8
14795	note_on channel=1 note=37 velocity=0 time=10
14796	note_on channel=9 note=38 velocity=67 time=10
14797	note_on channel=9 note=38 velocity=0 time=10
14798	note_on channel=8 note=74 velocity=0 time=16
14799	note_on channel=8 note=71 velocity=0 time=0
14800	note_on channel=8 note=66 velocity=0 time=0
14801	note_on channel=13 note=62 velocity=0 time=2
14802	note_on channel=10 note=62 velocity=0 time=0
14803	
14804	note_on channel=1 note=30 velocity=112 time=0
14805	note_on channel=8 note=66 velocity=59 time=0
14806	note_on channel=8 note=69 velocity=59 time=0
14807	note_on channel=8 note=73 velocity=59 time=0
14808	note_on channel=9 note=36 velocity=127 time=0
14809	note_on channel=9 note=35 velocity=127 time=0
14810	note_on channel=9 note=62 velocity=111 time=0
14811	note_on channel=9 note=55 velocity=110 time=0
14812	note_on channel=10 note=61 velocity=90 time=0
14813	note_on channel=12 note=66 velocity=90 time=0
14814	note_on channel=13 note=61 velocity=90 time=0
14815	note_on channel=9 note=55 velocity=0 time=10
14816	note_on channel=9 note=62 velocity=0 time=0
14817	note_on channel=9 note=35 velocity=0 time=0
14818	note_on channel=9 note=36 velocity=0 time=2
14819	note_on channel=9 note=63 velocity=60 time=18
14820	note_on channel=9 note=62 velocity=109 time=0
14821	note_on channel=9 note=62 velocity=0 time=10
14822	note_on channel=9 note=63 velocity=0 time=0
14823	note_on channel=1 note=30 velocity=0 time=10
14824	note_on channel=1 note=32 velocity=92 time=10
14825	note_on channel=9 note=82 velocity=109 time=0
14826	note_on channel=9 note=82 velocity=0 time=10
14827	note_on channel=1 note=32 velocity=0 time=50
14828	note_on channel=1 note=30 velocity=91 time=0
14829	note_on channel=9 note=38 velocity=85 time=0
14830	note_on channel=9 note=62 velocity=108 time=0
14831	note_on channel=9 note=37 velocity=127 time=0
14832	note_on channel=9 note=37 velocity=0 time=10
14833	note_on channel=9 note=62 velocity=0 time=0
14834	note_on channel=9 note=38 velocity=0 time=0
14835	note_on channel=1 note=30 velocity=0 time=20
14836	note_on channel=10 note=61 velocity=0 time=8
14837	note_on channel=13 note=61 velocity=0 time=0
14838	
14839	note_on channel=1 note=30 velocity=91 time=0
14840	note_on channel=9 note=82 velocity=111 time=0
14841	note_on channel=10 note=69 velocity=90 time=0
14842	note_on channel=13 note=69 velocity=90 time=0
14843	note_on channel=9 note=82 velocity=0 time=10
14844	note_on channel=1 note=30 velocity=0 time=20
14845	note_on channel=9 note=62 velocity=109 time=0
14846	note_on channel=9 note=62 velocity=0 time=10
14847	note_on channel=12 note=66 velocity=0 time=8
14848	note_on channel=13 note=69 velocity=0 time=6
14849	note_on channel=10 note=69 velocity=0 time=0
14850	note_on channel=8 note=73 velocity=0 time=2
14851	note_on channel=8 note=69 velocity=0 time=1
14852	note_on channel=8 note=66 velocity=0 time=1
14853	
14854	note_on channel=1 note=28 velocity=88 time=0
14855	note_on channel=8 note=68 velocity=54 time=0
14856	note_on channel=8 note=71 velocity=54 time=0
14857	note_on channel=8 note=76 velocity=54 time=0
14858	note_on channel=9 note=64 velocity=68 time=0
14859	note_on channel=10 note=68 velocity=90 time=0
14860	note_on channel=12 note=64 velocity=90 time=0
14861	note_on channel=13 note=68 velocity=90 time=0
14862	note_on channel=9 note=64 velocity=0 time=10
14863	note_on channel=1 note=28 velocity=0 time=20
14864	note_on channel=9 note=63 velocity=58 time=0
14865	note_on channel=9 note=62 velocity=108 time=0
14866	note_on channel=9 note=62 velocity=0 time=10
14867	note_on channel=9 note=63 velocity=0 time=0
14868	note_on channel=1 note=28 velocity=92 time=20
14869	note_on channel=9 note=82 velocity=110 time=0
14870	note_on channel=9 note=63 velocity=59 time=0
14871	note_on channel=9 note=63 velocity=0 time=10
14872	note_on channel=9 note=82 velocity=0 time=0
14873	note_on channel=1 note=28 velocity=0 time=20
14874	note_on channel=9 note=63 velocity=59 time=0
14875	note_on channel=9 note=63 velocity=0 time=10
14876	note_on channel=1 note=28 velocity=89 time=20
14877	note_on channel=9 note=38 velocity=86 time=0
14878	note_on channel=9 note=64 velocity=67 time=0
14879	note_on channel=9 note=37 velocity=127 time=0
14880	note_on channel=9 note=37 velocity=0 time=10
14881	note_on channel=9 note=64 velocity=0 time=0
14882	note_on channel=9 note=38 velocity=0 time=0
14883	note_on channel=9 note=62 velocity=109 time=20
14884	note_on channel=9 note=62 velocity=0 time=10
14885	note_on channel=1 note=28 velocity=0 time=10
14886	note_on channel=12 note=64 velocity=0 time=8
14887	note_on channel=1 note=28 velocity=89 time=2
14888	note_on channel=9 note=36 velocity=127 time=0
14889	note_on channel=9 note=82 velocity=111 time=0
14890	note_on channel=9 note=62 velocity=108 time=0
14891	note_on channel=12 note=66 velocity=90 time=0
14892	note_on channel=13 note=68 velocity=0 time=4
14893	note_on channel=10 note=68 velocity=0 time=0
14894	note_on channel=9 note=62 velocity=0 time=6
14895	note_on channel=9 note=82 velocity=0 time=0
14896	note_on channel=9 note=36 velocity=0 time=2
14897	note_on channel=9 note=35 velocity=127 time=18
14898	note_on channel=9 note=62 velocity=110 time=0
14899	note_on channel=9 note=62 velocity=0 time=10
14900	note_on channel=9 note=35 velocity=0 time=4
14901	note_on channel=8 note=68 velocity=0 time=12
14902	note_on channel=8 note=71 velocity=0 time=1
14903	note_on channel=8 note=76 velocity=0 time=1
14904	
14905	note_on channel=1 note=28 velocity=0 time=0
14906	note_on channel=1 note=30 velocity=108 time=0
14907	note_on channel=8 note=66 velocity=59 time=0
14908	note_on channel=8 note=69 velocity=59 time=0
14909	note_on channel=8 note=73 velocity=59 time=0
14910	note_on channel=9 note=36 velocity=127 time=0
14911	note_on channel=9 note=35 velocity=127 time=0
14912	note_on channel=9 note=62 velocity=111 time=0
14913	note_on channel=10 note=69 velocity=90 time=0
14914	note_on channel=12 note=61 velocity=90 time=0
14915	note_on channel=13 note=69 velocity=90 time=0
14916	note_on channel=12 note=66 velocity=0 time=2
14917	note_on channel=9 note=62 velocity=0 time=8
14918	note_on channel=9 note=35 velocity=0 time=0
14919	note_on channel=9 note=36 velocity=0 time=2
14920	note_on channel=1 note=30 velocity=0 time=18
14921	note_on channel=9 note=63 velocity=60 time=0
14922	note_on channel=9 note=62 velocity=109 time=0
14923	note_on channel=9 note=62 velocity=0 time=10
14924	note_on channel=9 note=63 velocity=0 time=0
14925	note_on channel=1 note=30 velocity=88 time=20
14926	note_on channel=9 note=82 velocity=109 time=0
14927	note_on channel=9 note=82 velocity=0 time=10
14928	note_on channel=1 note=30 velocity=0 time=20
14929	note_on channel=10 note=69 velocity=0 time=24
14930	note_on channel=13 note=69 velocity=0 time=0
14931	
14932	note_on channel=1 note=30 velocity=89 time=0
14933	note_on channel=9 note=38 velocity=85 time=0
14934	note_on channel=9 note=62 velocity=108 time=0
14935	note_on channel=9 note=37 velocity=127 time=0
14936	note_on channel=10 note=68 velocity=90 time=0
14937	note_on channel=13 note=68 velocity=90 time=0
14938	note_on channel=9 note=37 velocity=0 time=10
14939	note_on channel=9 note=62 velocity=0 time=0
14940	note_on channel=9 note=38 velocity=0 time=0
14941	note_on channel=1 note=30 velocity=0 time=40
14942	
14943	note_on channel=10 note=68 velocity=0 time=0
14944	note_on channel=13 note=68 velocity=0 time=0
14945	note_on channel=1 note=30 velocity=91 time=0
14946	note_on channel=9 note=82 velocity=111 time=0
14947	note_on channel=10 note=71 velocity=90 time=0
14948	note_on channel=13 note=71 velocity=90 time=0
14949	note_on channel=9 note=82 velocity=0 time=10
14950	note_on channel=9 note=62 velocity=109 time=20
14951	note_on channel=9 note=62 velocity=0 time=10
14952	note_on channel=8 note=66 velocity=0 time=16
14953	note_on channel=8 note=69 velocity=0 time=0
14954	note_on channel=8 note=73 velocity=0 time=1
14955	
14956	note_on channel=1 note=30 velocity=0 time=0
14957	note_on channel=13 note=71 velocity=0 time=0
14958	note_on channel=10 note=71 velocity=0 time=0
14959	note_on channel=1 note=35 velocity=88 time=0
14960	note_on channel=8 note=66 velocity=56 time=0
14961	note_on channel=8 note=71 velocity=56 time=0
14962	note_on channel=8 note=74 velocity=56 time=0
14963	note_on channel=9 note=64 velocity=68 time=0
14964	note_on channel=10 note=69 velocity=90 time=0
14965	note_on channel=13 note=69 velocity=90 time=0
14966	note_on channel=12 note=61 velocity=0 time=6
14967	note_on channel=9 note=64 velocity=0 time=4
14968	note_on channel=9 note=63 velocity=58 time=20
14969	note_on channel=9 note=62 velocity=108 time=0
14970	note_on channel=9 note=62 velocity=0 time=10
14971	note_on channel=9 note=63 velocity=0 time=0
14972	note_on channel=1 note=35 velocity=0 time=10
14973	note_on channel=13 note=69 velocity=0 time=10
14974	note_on channel=10 note=69 velocity=0 time=0
14975	note_on channel=1 note=35 velocity=91 time=0
14976	note_on channel=9 note=82 velocity=110 time=0
14977	note_on channel=9 note=63 velocity=59 time=0
14978	note_on channel=10 note=68 velocity=90 time=0
14979	note_on channel=13 note=68 velocity=90 time=0
14980	note_on channel=9 note=63 velocity=0 time=10
14981	note_on channel=9 note=82 velocity=0 time=0
14982	note_on channel=9 note=63 velocity=59 time=20
14983	note_on channel=9 note=63 velocity=0 time=10
14984	note_on channel=10 note=68 velocity=0 time=10
14985	note_on channel=13 note=68 velocity=0 time=0
14986	
14987	note_on channel=1 note=35 velocity=0 time=0
14988	note_on channel=1 note=35 velocity=91 time=0
14989	note_on channel=9 note=38 velocity=86 time=0
14990	note_on channel=9 note=64 velocity=67 time=0
14991	note_on channel=9 note=37 velocity=127 time=0
14992	note_on channel=10 note=66 velocity=90 time=0
14993	note_on channel=13 note=66 velocity=90 time=0
14994	note_on channel=9 note=37 velocity=0 time=10
14995	note_on channel=9 note=64 velocity=0 time=0
14996	note_on channel=9 note=38 velocity=0 time=0
14997	note_on channel=9 note=62 velocity=109 time=20
14998	note_on channel=9 note=62 velocity=0 time=10
14999	note_on channel=1 note=35 velocity=0 time=10
15000	note_on channel=1 note=35 velocity=88 time=10
15001	note_on channel=9 note=36 velocity=127 time=0
15002	note_on channel=9 note=82 velocity=111 time=0
15003	note_on channel=9 note=62 velocity=108 time=0
15004	note_on channel=10 note=62 velocity=90 time=0
15005	note_on channel=13 note=62 velocity=90 time=0
15006	note_on channel=13 note=66 velocity=0 time=2
15007	note_on channel=10 note=66 velocity=0 time=0
15008	note_on channel=9 note=62 velocity=0 time=8
15009	note_on channel=9 note=82 velocity=0 time=0
15010	note_on channel=9 note=36 velocity=0 time=2
15011	note_on channel=9 note=35 velocity=127 time=18
15012	note_on channel=9 note=62 velocity=110 time=0
15013	note_on channel=9 note=62 velocity=0 time=10
15014	note_on channel=9 note=35 velocity=0 time=4
15015	note_on channel=8 note=71 velocity=0 time=12
15016	note_on channel=8 note=66 velocity=0 time=1
15017	note_on channel=8 note=74 velocity=0 time=0
15018	note_on channel=13 note=62 velocity=0 time=1
15019	note_on channel=10 note=62 velocity=0 time=0
15020	
15021	note_on channel=1 note=35 velocity=0 time=0
15022	note_on channel=1 note=30 velocity=108 time=0
15023	note_on channel=8 note=66 velocity=61 time=0
15024	note_on channel=8 note=69 velocity=61 time=0
15025	note_on channel=8 note=73 velocity=61 time=0
15026	note_on channel=9 note=36 velocity=127 time=0
15027	note_on channel=9 note=35 velocity=127 time=0
15028	note_on channel=9 note=62 velocity=111 time=0
15029	note_on channel=10 note=61 velocity=90 time=0
15030	note_on channel=12 note=66 velocity=90 time=0
15031	note_on channel=13 note=61 velocity=90 time=0
15032	note_on channel=9 note=62 velocity=0 time=10
15033	note_on channel=9 note=35 velocity=0 time=0
15034	note_on channel=9 note=36 velocity=0 time=2
15035	note_on channel=9 note=63 velocity=60 time=18
15036	note_on channel=9 note=62 velocity=109 time=0
15037	note_on channel=9 note=62 velocity=0 time=10
15038	note_on channel=9 note=63 velocity=0 time=0
15039	note_on channel=1 note=30 velocity=0 time=10
15040	note_on channel=1 note=30 velocity=92 time=10
15041	note_on channel=9 note=82 velocity=109 time=0
15042	note_on channel=9 note=82 velocity=0 time=10
15043	note_on channel=1 note=30 velocity=0 time=50
15044	note_on channel=1 note=28 velocity=92 time=0
15045	note_on channel=9 note=38 velocity=85 time=0
15046	note_on channel=9 note=62 velocity=108 time=0
15047	note_on channel=9 note=37 velocity=127 time=0
15048	note_on channel=9 note=37 velocity=0 time=10
15049	note_on channel=9 note=62 velocity=0 time=0
15050	note_on channel=9 note=38 velocity=0 time=0
15051	note_on channel=1 note=28 velocity=0 time=20
15052	note_on channel=10 note=61 velocity=0 time=8
15053	note_on channel=13 note=61 velocity=0 time=0
15054	
15055	note_on channel=1 note=30 velocity=88 time=0
15056	note_on channel=9 note=82 velocity=111 time=0
15057	note_on channel=10 note=74 velocity=90 time=0
15058	note_on channel=13 note=74 velocity=90 time=0
15059	note_on channel=9 note=82 velocity=0 time=10
15060	note_on channel=1 note=30 velocity=0 time=20
15061	note_on channel=9 note=62 velocity=109 time=0
15062	note_on channel=9 note=62 velocity=0 time=10
15063	note_on channel=12 note=66 velocity=0 time=8
15064	note_on channel=13 note=74 velocity=0 time=6
15065	note_on channel=10 note=74 velocity=0 time=0
15066	note_on channel=8 note=73 velocity=0 time=2
15067	note_on channel=8 note=69 velocity=0 time=1
15068	note_on channel=8 note=66 velocity=0 time=1
15069	
15070	note_on channel=1 note=30 velocity=88 time=0
15071	note_on channel=8 note=66 velocity=54 time=0
15072	note_on channel=8 note=69 velocity=54 time=0
15073	note_on channel=8 note=73 velocity=54 time=0
15074	note_on channel=9 note=64 velocity=68 time=0
15075	note_on channel=10 note=73 velocity=90 time=0
15076	note_on channel=12 note=64 velocity=90 time=0
15077	note_on channel=13 note=73 velocity=90 time=0
15078	note_on channel=9 note=64 velocity=0 time=10
15079	note_on channel=1 note=30 velocity=0 time=20
15080	note_on channel=9 note=63 velocity=58 time=0
15081	note_on channel=9 note=62 velocity=108 time=0
15082	note_on channel=9 note=62 velocity=0 time=10
15083	note_on channel=9 note=63 velocity=0 time=0
15084	note_on channel=1 note=28 velocity=91 time=20
15085	note_on channel=9 note=82 velocity=110 time=0
15086	note_on channel=9 note=63 velocity=59 time=0
15087	note_on channel=9 note=63 velocity=0 time=10
15088	note_on channel=9 note=82 velocity=0 time=0
15089	note_on channel=1 note=28 velocity=0 time=20
15090	note_on channel=9 note=63 velocity=59 time=0
15091	note_on channel=9 note=63 velocity=0 time=10
15092	note_on channel=1 note=30 velocity=91 time=20
15093	note_on channel=9 note=38 velocity=86 time=0
15094	note_on channel=9 note=64 velocity=67 time=0
15095	note_on channel=9 note=37 velocity=127 time=0
15096	note_on channel=9 note=37 velocity=0 time=10
15097	note_on channel=9 note=64 velocity=0 time=0
15098	note_on channel=9 note=38 velocity=0 time=0
15099	note_on channel=9 note=62 velocity=109 time=20
15100	note_on channel=9 note=62 velocity=0 time=10
15101	note_on channel=1 note=30 velocity=0 time=10
15102	note_on channel=12 note=64 velocity=0 time=8
15103	note_on channel=1 note=32 velocity=91 time=2
15104	note_on channel=9 note=36 velocity=127 time=0
15105	note_on channel=9 note=82 velocity=111 time=0
15106	note_on channel=9 note=62 velocity=108 time=0
15107	note_on channel=12 note=66 velocity=90 time=0
15108	note_on channel=13 note=73 velocity=0 time=4
15109	note_on channel=10 note=73 velocity=0 time=0
15110	note_on channel=9 note=62 velocity=0 time=6
15111	note_on channel=9 note=82 velocity=0 time=0
15112	note_on channel=9 note=36 velocity=0 time=2
15113	note_on channel=9 note=35 velocity=127 time=18
15114	note_on channel=9 note=62 velocity=110 time=0
15115	note_on channel=9 note=62 velocity=0 time=10
15116	note_on channel=9 note=35 velocity=0 time=4
15117	note_on channel=8 note=66 velocity=0 time=12
15118	note_on channel=8 note=69 velocity=0 time=2
15119	note_on channel=8 note=73 velocity=0 time=0
15120	
15121	note_on channel=1 note=32 velocity=0 time=0
15122	note_on channel=1 note=30 velocity=111 time=0
15123	note_on channel=8 note=66 velocity=60 time=0
15124	note_on channel=8 note=69 velocity=60 time=0
15125	note_on channel=8 note=73 velocity=60 time=0
15126	note_on channel=9 note=36 velocity=127 time=0
15127	note_on channel=9 note=35 velocity=127 time=0
15128	note_on channel=9 note=62 velocity=111 time=0
15129	note_on channel=10 note=69 velocity=90 time=0
15130	note_on channel=12 note=61 velocity=90 time=0
15131	note_on channel=13 note=69 velocity=90 time=0
15132	note_on channel=12 note=66 velocity=0 time=2
15133	note_on channel=9 note=62 velocity=0 time=8
15134	note_on channel=9 note=35 velocity=0 time=0
15135	note_on channel=9 note=36 velocity=0 time=2
15136	note_on channel=1 note=30 velocity=0 time=18
15137	note_on channel=9 note=63 velocity=60 time=0
15138	note_on channel=9 note=62 velocity=109 time=0
15139	note_on channel=9 note=62 velocity=0 time=10
15140	note_on channel=9 note=63 velocity=0 time=0
15141	note_on channel=1 note=28 velocity=91 time=20
15142	note_on channel=9 note=82 velocity=109 time=0
15143	note_on channel=9 note=82 velocity=0 time=10
15144	note_on channel=1 note=28 velocity=0 time=20
15145	note_on channel=10 note=69 velocity=0 time=24
15146	note_on channel=13 note=69 velocity=0 time=0
15147	
15148	note_on channel=1 note=30 velocity=91 time=0
15149	note_on channel=9 note=38 velocity=85 time=0
15150	note_on channel=9 note=62 velocity=108 time=0
15151	note_on channel=9 note=37 velocity=127 time=0
15152	note_on channel=10 note=68 velocity=90 time=0
15153	note_on channel=13 note=68 velocity=90 time=0
15154	note_on channel=9 note=37 velocity=0 time=10
15155	note_on channel=9 note=62 velocity=0 time=0
15156	note_on channel=9 note=38 velocity=0 time=0
15157	note_on channel=1 note=30 velocity=0 time=40
15158	
15159	note_on channel=10 note=68 velocity=0 time=0
15160	note_on channel=13 note=68 velocity=0 time=0
15161	note_on channel=1 note=30 velocity=90 time=0
15162	note_on channel=9 note=82 velocity=111 time=0
15163	note_on channel=10 note=71 velocity=90 time=0
15164	note_on channel=13 note=71 velocity=90 time=0
15165	note_on channel=9 note=82 velocity=0 time=10
15166	note_on channel=9 note=62 velocity=109 time=20
15167	note_on channel=9 note=62 velocity=0 time=10
15168	note_on channel=8 note=73 velocity=0 time=16
15169	note_on channel=8 note=69 velocity=0 time=2
15170	note_on channel=8 note=66 velocity=0 time=0
15171	
15172	note_on channel=1 note=30 velocity=0 time=0
15173	note_on channel=13 note=71 velocity=0 time=0
15174	note_on channel=10 note=71 velocity=0 time=0
15175	note_on channel=1 note=35 velocity=90 time=0
15176	note_on channel=8 note=66 velocity=54 time=0
15177	note_on channel=8 note=71 velocity=54 time=0
15178	note_on channel=8 note=74 velocity=54 time=0
15179	note_on channel=9 note=64 velocity=68 time=0
15180	note_on channel=10 note=69 velocity=90 time=0
15181	note_on channel=13 note=69 velocity=90 time=0
15182	note_on channel=12 note=61 velocity=0 time=6
15183	note_on channel=9 note=64 velocity=0 time=4
15184	note_on channel=1 note=35 velocity=0 time=20
15185	note_on channel=9 note=63 velocity=58 time=0
15186	note_on channel=9 note=62 velocity=108 time=0
15187	note_on channel=9 note=62 velocity=0 time=10
15188	note_on channel=9 note=63 velocity=0 time=0
15189	
15190	note_on channel=10 note=69 velocity=0 time=0
15191	note_on channel=13 note=69 velocity=0 time=0
15192	note_on channel=1 note=35 velocity=88 time=0
15193	note_on channel=9 note=82 velocity=110 time=0
15194	note_on channel=9 note=63 velocity=59 time=0
15195	note_on channel=10 note=68 velocity=90 time=0
15196	note_on channel=13 note=68 velocity=90 time=0
15197	note_on channel=9 note=63 velocity=0 time=10
15198	note_on channel=9 note=82 velocity=0 time=0
15199	note_on channel=1 note=35 velocity=0 time=20
15200	note_on channel=9 note=63 velocity=59 time=0
15201	note_on channel=9 note=63 velocity=0 time=10
15202	note_on channel=10 note=68 velocity=0 time=10
15203	note_on channel=13 note=68 velocity=0 time=0
15204	
15205	note_on channel=1 note=33 velocity=88 time=0
15206	note_on channel=9 note=38 velocity=86 time=0
15207	note_on channel=9 note=64 velocity=67 time=0
15208	note_on channel=9 note=37 velocity=127 time=0
15209	note_on channel=10 note=66 velocity=90 time=0
15210	note_on channel=13 note=66 velocity=90 time=0
15211	note_on channel=9 note=37 velocity=0 time=10
15212	note_on channel=9 note=64 velocity=0 time=0
15213	note_on channel=9 note=38 velocity=0 time=0
15214	note_on channel=9 note=62 velocity=109 time=20
15215	note_on channel=9 note=62 velocity=0 time=10
15216	note_on channel=1 note=33 velocity=0 time=10
15217	
15218	note_on channel=1 note=31 velocity=91 time=0
15219	note_on channel=9 note=36 velocity=127 time=0
15220	note_on channel=9 note=82 velocity=111 time=0
15221	note_on channel=9 note=62 velocity=108 time=0
15222	note_on channel=10 note=62 velocity=90 time=0
15223	note_on channel=13 note=62 velocity=90 time=0
15224	note_on channel=13 note=66 velocity=0 time=2
15225	note_on channel=10 note=66 velocity=0 time=0
15226	note_on channel=9 note=62 velocity=0 time=8
15227	note_on channel=9 note=82 velocity=0 time=0
15228	note_on channel=9 note=36 velocity=0 time=2
15229	note_on channel=9 note=35 velocity=127 time=18
15230	note_on channel=9 note=62 velocity=110 time=0
15231	note_on channel=9 note=62 velocity=0 time=10
15232	note_on channel=9 note=35 velocity=0 time=4
15233	note_on channel=8 note=74 velocity=0 time=12
15234	note_on channel=8 note=71 velocity=0 time=1
15235	note_on channel=13 note=62 velocity=0 time=1
15236	note_on channel=10 note=62 velocity=0 time=0
15237	note_on channel=8 note=66 velocity=0 time=0
15238	
15239	note_on channel=1 note=31 velocity=0 time=0
15240	note_on channel=1 note=30 velocity=110 time=0
15241	note_on channel=8 note=66 velocity=59 time=0
15242	note_on channel=8 note=69 velocity=59 time=0
15243	note_on channel=8 note=73 velocity=59 time=0
15244	note_on channel=9 note=36 velocity=127 time=0
15245	note_on channel=9 note=35 velocity=127 time=0
15246	note_on channel=9 note=62 velocity=111 time=0
15247	note_on channel=10 note=61 velocity=90 time=0
15248	note_on channel=12 note=66 velocity=90 time=0
15249	note_on channel=13 note=61 velocity=90 time=0
15250	note_on channel=9 note=62 velocity=0 time=10
15251	note_on channel=9 note=35 velocity=0 time=0
15252	note_on channel=9 note=36 velocity=0 time=2
15253	note_on channel=9 note=63 velocity=60 time=18
15254	note_on channel=9 note=62 velocity=109 time=0
15255	note_on channel=9 note=62 velocity=0 time=10
15256	note_on channel=9 note=63 velocity=0 time=0
15257	note_on channel=1 note=30 velocity=0 time=10
15258	note_on channel=1 note=32 velocity=91 time=10
15259	note_on channel=9 note=82 velocity=109 time=0
15260	note_on channel=9 note=82 velocity=0 time=10
15261	note_on channel=1 note=32 velocity=0 time=50
15262	note_on channel=1 note=30 velocity=88 time=0
15263	note_on channel=9 note=38 velocity=85 time=0
15264	note_on channel=9 note=62 velocity=108 time=0
15265	note_on channel=9 note=37 velocity=127 time=0
15266	note_on channel=9 note=37 velocity=0 time=10
15267	note_on channel=9 note=62 velocity=0 time=0
15268	note_on channel=9 note=38 velocity=0 time=0
15269	note_on channel=13 note=61 velocity=0 time=28
15270	note_on channel=10 note=61 velocity=0 time=0
15271	note_on channel=1 note=30 velocity=0 time=12
15272	
15273	note_on channel=1 note=30 velocity=88 time=0
15274	note_on channel=9 note=82 velocity=111 time=0
15275	note_on channel=10 note=69 velocity=90 time=0
15276	note_on channel=13 note=69 velocity=90 time=0
15277	note_on channel=9 note=82 velocity=0 time=10
15278	note_on channel=9 note=62 velocity=109 time=20
15279	note_on channel=9 note=62 velocity=0 time=10
15280	note_on channel=12 note=66 velocity=0 time=8
15281	note_on channel=1 note=30 velocity=0 time=2
15282	note_on channel=13 note=69 velocity=0 time=4
15283	note_on channel=10 note=69 velocity=0 time=0
15284	note_on channel=8 note=73 velocity=0 time=3
15285	note_on channel=8 note=69 velocity=0 time=1
15286	note_on channel=8 note=66 velocity=0 time=0
15287	
15288	note_on channel=1 note=28 velocity=92 time=0
15289	note_on channel=8 note=68 velocity=54 time=0
15290	note_on channel=8 note=71 velocity=54 time=0
15291	note_on channel=8 note=76 velocity=54 time=0
15292	note_on channel=9 note=64 velocity=68 time=0
15293	note_on channel=10 note=68 velocity=90 time=0
15294	note_on channel=12 note=64 velocity=90 time=0
15295	note_on channel=13 note=68 velocity=90 time=0
15296	note_on channel=9 note=64 velocity=0 time=10
15297	note_on channel=9 note=63 velocity=58 time=20
15298	note_on channel=9 note=62 velocity=108 time=0
15299	note_on channel=9 note=62 velocity=0 time=10
15300	note_on channel=9 note=63 velocity=0 time=0
15301	note_on channel=1 note=28 velocity=0 time=10
15302	note_on channel=1 note=30 velocity=89 time=10
15303	note_on channel=9 note=82 velocity=110 time=0
15304	note_on channel=9 note=63 velocity=59 time=0
15305	note_on channel=9 note=63 velocity=0 time=10
15306	note_on channel=9 note=82 velocity=0 time=0
15307	note_on channel=9 note=63 velocity=59 time=20
15308	note_on channel=9 note=63 velocity=0 time=10
15309	note_on channel=1 note=30 velocity=0 time=20
15310	note_on channel=1 note=28 velocity=91 time=0
15311	note_on channel=9 note=38 velocity=86 time=0
15312	note_on channel=9 note=64 velocity=67 time=0
15313	note_on channel=9 note=37 velocity=127 time=0
15314	note_on channel=9 note=37 velocity=0 time=10
15315	note_on channel=9 note=64 velocity=0 time=0
15316	note_on channel=9 note=38 velocity=0 time=0
15317	note_on channel=9 note=62 velocity=109 time=20
15318	note_on channel=9 note=62 velocity=0 time=10
15319	note_on channel=1 note=28 velocity=0 time=10
15320	note_on channel=12 note=64 velocity=0 time=8
15321	note_on channel=1 note=28 velocity=92 time=2
15322	note_on channel=9 note=36 velocity=127 time=0
15323	note_on channel=9 note=82 velocity=111 time=0
15324	note_on channel=9 note=62 velocity=108 time=0
15325	note_on channel=12 note=66 velocity=90 time=0
15326	note_on channel=13 note=68 velocity=0 time=4
15327	note_on channel=10 note=68 velocity=0 time=0
15328	note_on channel=9 note=62 velocity=0 time=6
15329	note_on channel=9 note=82 velocity=0 time=0
15330	note_on channel=9 note=36 velocity=0 time=2
15331	note_on channel=9 note=35 velocity=127 time=18
15332	note_on channel=9 note=62 velocity=110 time=0
15333	note_on channel=9 note=62 velocity=0 time=10
15334	note_on channel=9 note=35 velocity=0 time=4
15335	note_on channel=8 note=76 velocity=0 time=12
15336	note_on channel=8 note=68 velocity=0 time=1
15337	note_on channel=8 note=71 velocity=0 time=1
15338	
15339	note_on channel=1 note=28 velocity=0 time=0
15340	note_on channel=1 note=30 velocity=108 time=0
15341	note_on channel=8 note=66 velocity=59 time=0
15342	note_on channel=8 note=69 velocity=59 time=0
15343	note_on channel=8 note=73 velocity=59 time=0
15344	note_on channel=9 note=36 velocity=127 time=0
15345	note_on channel=9 note=35 velocity=127 time=0
15346	note_on channel=9 note=62 velocity=111 time=0
15347	note_on channel=10 note=69 velocity=90 time=0
15348	note_on channel=12 note=61 velocity=90 time=0
15349	note_on channel=13 note=69 velocity=90 time=0
15350	note_on channel=12 note=66 velocity=0 time=2
15351	note_on channel=9 note=62 velocity=0 time=8
15352	note_on channel=9 note=35 velocity=0 time=0
15353	note_on channel=9 note=36 velocity=0 time=2
15354	note_on channel=1 note=30 velocity=0 time=18
15355	note_on channel=9 note=63 velocity=60 time=0
15356	note_on channel=9 note=62 velocity=109 time=0
15357	note_on channel=9 note=62 velocity=0 time=10
15358	note_on channel=9 note=63 velocity=0 time=0
15359	note_on channel=1 note=30 velocity=88 time=20
15360	note_on channel=9 note=82 velocity=109 time=0
15361	note_on channel=9 note=82 velocity=0 time=10
15362	note_on channel=1 note=30 velocity=0 time=20
15363	note_on channel=10 note=69 velocity=0 time=24
15364	note_on channel=13 note=69 velocity=0 time=0
15365	
15366	note_on channel=1 note=30 velocity=89 time=0
15367	note_on channel=9 note=38 velocity=85 time=0
15368	note_on channel=9 note=62 velocity=108 time=0
15369	note_on channel=9 note=37 velocity=127 time=0
15370	note_on channel=10 note=68 velocity=90 time=0
15371	note_on channel=13 note=68 velocity=90 time=0
15372	note_on channel=9 note=37 velocity=0 time=10
15373	note_on channel=9 note=62 velocity=0 time=0
15374	note_on channel=9 note=38 velocity=0 time=0
15375	note_on channel=1 note=30 velocity=0 time=40
15376	
15377	note_on channel=10 note=68 velocity=0 time=0
15378	note_on channel=13 note=68 velocity=0 time=0
15379	note_on channel=1 note=30 velocity=91 time=0
15380	note_on channel=9 note=82 velocity=111 time=0
15381	note_on channel=10 note=71 velocity=90 time=0
15382	note_on channel=13 note=71 velocity=90 time=0
15383	note_on channel=9 note=82 velocity=0 time=10
15384	note_on channel=9 note=62 velocity=109 time=20
15385	note_on channel=9 note=62 velocity=0 time=10
15386	note_on channel=8 note=66 velocity=0 time=16
15387	note_on channel=8 note=69 velocity=0 time=0
15388	note_on channel=8 note=73 velocity=0 time=1
15389	
15390	note_on channel=1 note=30 velocity=0 time=0
15391	note_on channel=13 note=71 velocity=0 time=0
15392	note_on channel=10 note=71 velocity=0 time=0
15393	note_on channel=1 note=35 velocity=88 time=0
15394	note_on channel=8 note=66 velocity=56 time=0
15395	note_on channel=8 note=71 velocity=56 time=0
15396	note_on channel=8 note=74 velocity=56 time=0
15397	note_on channel=9 note=64 velocity=68 time=0
15398	note_on channel=10 note=69 velocity=90 time=0
15399	note_on channel=13 note=69 velocity=90 time=0
15400	note_on channel=12 note=61 velocity=0 time=6
15401	note_on channel=9 note=64 velocity=0 time=4
15402	note_on channel=9 note=63 velocity=58 time=20
15403	note_on channel=9 note=62 velocity=108 time=0
15404	note_on channel=9 note=62 velocity=0 time=10
15405	note_on channel=9 note=63 velocity=0 time=0
15406	note_on channel=1 note=35 velocity=0 time=10
15407	note_on channel=13 note=69 velocity=0 time=10
15408	note_on channel=10 note=69 velocity=0 time=0
15409	note_on channel=1 note=35 velocity=91 time=0
15410	note_on channel=9 note=82 velocity=110 time=0
15411	note_on channel=9 note=63 velocity=59 time=0
15412	note_on channel=10 note=68 velocity=90 time=0
15413	note_on channel=13 note=68 velocity=90 time=0
15414	note_on channel=9 note=63 velocity=0 time=10
15415	note_on channel=9 note=82 velocity=0 time=0
15416	note_on channel=9 note=63 velocity=59 time=20
15417	note_on channel=9 note=63 velocity=0 time=10
15418	note_on channel=10 note=68 velocity=0 time=10
15419	note_on channel=13 note=68 velocity=0 time=0
15420	
15421	note_on channel=1 note=35 velocity=0 time=0
15422	note_on channel=1 note=35 velocity=91 time=0
15423	note_on channel=9 note=38 velocity=86 time=0
15424	note_on channel=9 note=64 velocity=67 time=0
15425	note_on channel=9 note=37 velocity=127 time=0
15426	note_on channel=10 note=66 velocity=90 time=0
15427	note_on channel=13 note=66 velocity=90 time=0
15428	note_on channel=9 note=37 velocity=0 time=10
15429	note_on channel=9 note=64 velocity=0 time=0
15430	note_on channel=9 note=38 velocity=0 time=0
15431	note_on channel=9 note=62 velocity=109 time=20
15432	note_on channel=9 note=62 velocity=0 time=10
15433	note_on channel=1 note=35 velocity=0 time=10
15434	note_on channel=1 note=35 velocity=88 time=10
15435	note_on channel=9 note=36 velocity=127 time=0
15436	note_on channel=9 note=82 velocity=111 time=0
15437	note_on channel=9 note=62 velocity=108 time=0
15438	note_on channel=10 note=62 velocity=90 time=0
15439	note_on channel=13 note=62 velocity=90 time=0
15440	note_on channel=13 note=66 velocity=0 time=2
15441	note_on channel=10 note=66 velocity=0 time=0
15442	note_on channel=9 note=62 velocity=0 time=8
15443	note_on channel=9 note=82 velocity=0 time=0
15444	note_on channel=9 note=36 velocity=0 time=2
15445	note_on channel=9 note=35 velocity=127 time=18
15446	note_on channel=9 note=62 velocity=110 time=0
15447	note_on channel=9 note=62 velocity=0 time=10
15448	note_on channel=9 note=35 velocity=0 time=4
15449	note_on channel=8 note=71 velocity=0 time=12
15450	note_on channel=8 note=66 velocity=0 time=1
15451	note_on channel=8 note=74 velocity=0 time=0
15452	note_on channel=13 note=62 velocity=0 time=1
15453	note_on channel=10 note=62 velocity=0 time=0
15454	
15455	note_on channel=1 note=35 velocity=0 time=0
15456	note_on channel=1 note=30 velocity=108 time=0
15457	note_on channel=8 note=66 velocity=61 time=0
15458	note_on channel=8 note=69 velocity=61 time=0
15459	note_on channel=8 note=73 velocity=61 time=0
15460	note_on channel=9 note=36 velocity=127 time=0
15461	note_on channel=9 note=35 velocity=127 time=0
15462	note_on channel=9 note=62 velocity=111 time=0
15463	note_on channel=10 note=61 velocity=90 time=0
15464	note_on channel=12 note=66 velocity=90 time=0
15465	note_on channel=13 note=61 velocity=90 time=0
15466	note_on channel=9 note=62 velocity=0 time=10
15467	note_on channel=9 note=35 velocity=0 time=0
15468	note_on channel=9 note=36 velocity=0 time=2
15469	note_on channel=9 note=63 velocity=60 time=18
15470	note_on channel=9 note=62 velocity=109 time=0
15471	note_on channel=9 note=62 velocity=0 time=10
15472	note_on channel=9 note=63 velocity=0 time=0
15473	note_on channel=1 note=30 velocity=0 time=10
15474	note_on channel=1 note=30 velocity=92 time=10
15475	note_on channel=9 note=82 velocity=109 time=0
15476	note_on channel=9 note=82 velocity=0 time=10
15477	note_on channel=1 note=30 velocity=0 time=50
15478	note_on channel=1 note=28 velocity=92 time=0
15479	note_on channel=9 note=38 velocity=85 time=0
15480	note_on channel=9 note=62 velocity=108 time=0
15481	note_on channel=9 note=37 velocity=127 time=0
15482	note_on channel=9 note=37 velocity=0 time=10
15483	note_on channel=9 note=62 velocity=0 time=0
15484	note_on channel=9 note=38 velocity=0 time=0
15485	note_on channel=1 note=28 velocity=0 time=20
15486	note_on channel=10 note=61 velocity=0 time=8
15487	note_on channel=13 note=61 velocity=0 time=0
15488	
15489	note_on channel=1 note=30 velocity=88 time=0
15490	note_on channel=9 note=82 velocity=111 time=0
15491	note_on channel=10 note=74 velocity=90 time=0
15492	note_on channel=13 note=74 velocity=90 time=0
15493	note_on channel=9 note=82 velocity=0 time=10
15494	note_on channel=1 note=30 velocity=0 time=20
15495	note_on channel=9 note=62 velocity=109 time=0
15496	note_on channel=9 note=62 velocity=0 time=10
15497	note_on channel=12 note=66 velocity=0 time=8
15498	note_on channel=13 note=74 velocity=0 time=6
15499	note_on channel=10 note=74 velocity=0 time=0
15500	note_on channel=8 note=73 velocity=0 time=2
15501	note_on channel=8 note=69 velocity=0 time=1
15502	note_on channel=8 note=66 velocity=0 time=1
15503	
15504	note_on channel=1 note=30 velocity=88 time=0
15505	note_on channel=8 note=66 velocity=54 time=0
15506	note_on channel=8 note=69 velocity=54 time=0
15507	note_on channel=8 note=73 velocity=54 time=0
15508	note_on channel=9 note=64 velocity=68 time=0
15509	note_on channel=10 note=73 velocity=90 time=0
15510	note_on channel=12 note=64 velocity=90 time=0
15511	note_on channel=13 note=73 velocity=90 time=0
15512	note_on channel=9 note=64 velocity=0 time=10
15513	note_on channel=1 note=30 velocity=0 time=20
15514	note_on channel=9 note=63 velocity=58 time=0
15515	note_on channel=9 note=62 velocity=108 time=0
15516	note_on channel=9 note=62 velocity=0 time=10
15517	note_on channel=9 note=63 velocity=0 time=0
15518	note_on channel=1 note=28 velocity=91 time=20
15519	note_on channel=9 note=82 velocity=110 time=0
15520	note_on channel=9 note=63 velocity=59 time=0
15521	note_on channel=9 note=63 velocity=0 time=10
15522	note_on channel=9 note=82 velocity=0 time=0
15523	note_on channel=1 note=28 velocity=0 time=20
15524	note_on channel=9 note=63 velocity=59 time=0
15525	note_on channel=9 note=63 velocity=0 time=10
15526	note_on channel=1 note=30 velocity=91 time=20
15527	note_on channel=9 note=38 velocity=86 time=0
15528	note_on channel=9 note=64 velocity=67 time=0
15529	note_on channel=9 note=37 velocity=127 time=0
15530	note_on channel=9 note=37 velocity=0 time=10
15531	note_on channel=9 note=64 velocity=0 time=0
15532	note_on channel=9 note=38 velocity=0 time=0
15533	note_on channel=9 note=62 velocity=109 time=20
15534	note_on channel=9 note=62 velocity=0 time=10
15535	note_on channel=1 note=30 velocity=0 time=10
15536	note_on channel=1 note=32 velocity=91 time=10
15537	note_on channel=9 note=36 velocity=127 time=0
15538	note_on channel=9 note=82 velocity=111 time=0
15539	note_on channel=9 note=62 velocity=108 time=0
15540	note_on channel=13 note=73 velocity=0 time=4
15541	note_on channel=10 note=73 velocity=0 time=0
15542	note_on channel=9 note=62 velocity=0 time=6
15543	note_on channel=9 note=82 velocity=0 time=0
15544	note_on channel=9 note=36 velocity=0 time=2
15545	note_on channel=9 note=35 velocity=127 time=18
15546	note_on channel=9 note=62 velocity=110 time=0
15547	note_on channel=9 note=62 velocity=0 time=10
15548	note_on channel=9 note=35 velocity=0 time=4
15549	note_on channel=8 note=66 velocity=0 time=12
15550	note_on channel=8 note=73 velocity=0 time=2
15551	note_on channel=8 note=69 velocity=0 time=0
15552	note_on channel=1 note=32 velocity=0 time=2
15553	note_on channel=1 note=28 velocity=109 time=0
15554	note_on channel=6 note=59 velocity=90 time=0
15555	note_on channel=8 note=66 velocity=61 time=0
15556	note_on channel=8 note=69 velocity=61 time=0
15557	note_on channel=8 note=73 velocity=61 time=0
15558	note_on channel=9 note=36 velocity=127 time=0
15559	note_on channel=9 note=35 velocity=127 time=0
15560	note_on channel=9 note=82 velocity=108 time=0
15561	note_on channel=7 note=59 velocity=90 time=1
15562	note_on channel=12 note=64 velocity=0 time=3
15563	note_on channel=9 note=82 velocity=0 time=6
15564	note_on channel=9 note=35 velocity=0 time=0
15565	note_on channel=9 note=36 velocity=0 time=0
15566	note_on channel=6 note=61 velocity=90 time=20
15567	note_on channel=7 note=61 velocity=90 time=1
15568	note_on channel=6 note=59 velocity=0 time=13
15569	note_on channel=7 note=59 velocity=0 time=1
15570	note_on channel=1 note=28 velocity=0 time=15
15571	note_on channel=1 note=30 velocity=110 time=0
15572	note_on channel=6 note=61 velocity=90 time=0
15573	note_on channel=9 note=82 velocity=90 time=0
15574	note_on channel=9 note=27 velocity=103 time=0
15575	note_on channel=7 note=61 velocity=90 time=1
15576	note_on channel=9 note=27 velocity=0 time=9
15577	note_on channel=9 note=82 velocity=0 time=0
15578	note_on channel=6 note=61 velocity=0 time=4
15579	note_on channel=7 note=61 velocity=0 time=1
15580	note_on channel=1 note=30 velocity=0 time=5
15581	note_on channel=6 note=62 velocity=90 time=10
15582	note_on channel=7 note=62 velocity=90 time=1
15583	note_on channel=6 note=61 velocity=0 time=13
15584	note_on channel=7 note=61 velocity=0 time=1
15585	note_on channel=1 note=31 velocity=70 time=15
15586	note_on channel=6 note=61 velocity=90 time=0
15587	note_on channel=9 note=82 velocity=88 time=0
15588	note_on channel=9 note=27 velocity=101 time=0
15589	note_on channel=7 note=61 velocity=90 time=1
15590	note_on channel=9 note=27 velocity=0 time=9
15591	note_on channel=9 note=82 velocity=0 time=0
15592	note_on channel=1 note=31 velocity=0 time=0
15593	note_on channel=6 note=62 velocity=0 time=4
15594	note_on channel=7 note=62 velocity=0 time=1
15595	note_on channel=6 note=61 velocity=0 time=13
15596	note_on channel=7 note=61 velocity=0 time=1
15597	note_on channel=1 note=33 velocity=71 time=1
15598	note_on channel=6 note=61 velocity=90 time=0
15599	note_on channel=7 note=61 velocity=90 time=1
15600	note_on channel=1 note=33 velocity=0 time=9
15601	note_on channel=6 note=61 velocity=0 time=18
15602	note_on channel=7 note=61 velocity=0 time=1
15603	note_on channel=1 note=30 velocity=112 time=1
15604	note_on channel=6 note=61 velocity=90 time=0
15605	note_on channel=9 note=38 velocity=88 time=0
15606	note_on channel=9 note=82 velocity=67 time=0
15607	note_on channel=9 note=37 velocity=127 time=0
15608	note_on channel=7 note=61 velocity=90 time=1
15609	note_on channel=9 note=37 velocity=0 time=9
15610	note_on channel=9 note=82 velocity=0 time=0
15611	note_on channel=9 note=38 velocity=0 time=0
15612	note_on channel=6 note=61 velocity=0 time=16
15613	note_on channel=7 note=61 velocity=0 time=1
15614	note_on channel=6 note=61 velocity=90 time=3
15615	note_on channel=7 note=61 velocity=90 time=1
15616	note_on channel=6 note=61 velocity=0 time=29
15617	note_on channel=1 note=30 velocity=0 time=0
15618	note_on channel=1 note=31 velocity=68 time=0
15619	note_on channel=6 note=59 velocity=90 time=0
15620	note_on channel=9 note=82 velocity=109 time=0
15621	note_on channel=7 note=61 velocity=0 time=1
15622	note_on channel=7 note=59 velocity=90 time=0
15623	note_on channel=9 note=82 velocity=0 time=9
15624	note_on channel=1 note=31 velocity=0 time=10
15625	note_on channel=1 note=30 velocity=91 time=10
15626	note_on channel=6 note=61 velocity=90 time=0
15627	note_on channel=9 note=38 velocity=87 time=0
15628	note_on channel=9 note=37 velocity=127 time=0
15629	note_on channel=7 note=61 velocity=90 time=1
15630	note_on channel=9 note=37 velocity=0 time=9
15631	note_on channel=9 note=38 velocity=0 time=0
15632	note_on channel=1 note=30 velocity=0 time=0
15633	note_on channel=6 note=59 velocity=0 time=4
15634	note_on channel=7 note=59 velocity=0 time=1
15635	note_on channel=6 note=61 velocity=0 time=13
15636	note_on channel=7 note=61 velocity=0 time=1
15637	note_on channel=1 note=31 velocity=69 time=1
15638	note_on channel=6 note=61 velocity=90 time=0
15639	note_on channel=9 note=82 velocity=88 time=0
15640	note_on channel=7 note=61 velocity=90 time=1
15641	note_on channel=9 note=82 velocity=0 time=9
15642	note_on channel=1 note=31 velocity=0 time=0
15643	note_on channel=1 note=40 velocity=91 time=20
15644	note_on channel=6 note=62 velocity=90 time=0
15645	note_on channel=7 note=62 velocity=90 time=1
15646	note_on channel=6 note=61 velocity=0 time=13
15647	note_on channel=7 note=61 velocity=0 time=1
15648	note_on channel=1 note=40 velocity=0 time=15
15649	note_on channel=1 note=30 velocity=88 time=0
15650	note_on channel=6 note=61 velocity=90 time=0
15651	note_on channel=9 note=38 velocity=86 time=0
15652	note_on channel=9 note=82 velocity=90 time=0
15653	note_on channel=9 note=37 velocity=127 time=0
15654	note_on channel=7 note=61 velocity=90 time=1
15655	note_on channel=9 note=37 velocity=0 time=9
15656	note_on channel=9 note=82 velocity=0 time=0
15657	note_on channel=1 note=30 velocity=0 time=0
15658	note_on channel=9 note=38 velocity=0 time=0
15659	note_on channel=6 note=62 velocity=0 time=4
15660	note_on channel=7 note=62 velocity=0 time=1
15661	note_on channel=6 note=61 velocity=0 time=13
15662	note_on channel=7 note=61 velocity=0 time=1
15663	note_on channel=1 note=31 velocity=68 time=1
15664	note_on channel=6 note=61 velocity=90 time=0
15665	note_on channel=7 note=61 velocity=90 time=1
15666	note_on channel=1 note=31 velocity=0 time=19
15667	note_on channel=6 note=61 velocity=0 time=8
15668	note_on channel=7 note=61 velocity=0 time=1
15669	note_on channel=1 note=40 velocity=90 time=1
15670	note_on channel=6 note=61 velocity=90 time=0
15671	note_on channel=9 note=82 velocity=67 time=0
15672	note_on channel=7 note=61 velocity=90 time=1
15673	note_on channel=9 note=82 velocity=0 time=9
15674	note_on channel=1 note=40 velocity=0 time=10
15675	note_on channel=6 note=61 velocity=0 time=4
15676	note_on channel=7 note=61 velocity=0 time=1
15677	note_on channel=1 note=42 velocity=91 time=5
15678	note_on channel=6 note=61 velocity=90 time=0
15679	note_on channel=7 note=61 velocity=90 time=1
15680	note_on channel=1 note=42 velocity=0 time=9
15681	note_on channel=6 note=61 velocity=0 time=12
15682	note_on channel=7 note=61 velocity=0 time=1
15683	note_on channel=1 note=30 velocity=109 time=7
15684	note_on channel=6 note=59 velocity=90 time=0
15685	note_on channel=9 note=36 velocity=127 time=0
15686	note_on channel=9 note=35 velocity=127 time=0
15687	note_on channel=9 note=82 velocity=110 time=0
15688	note_on channel=7 note=59 velocity=90 time=1
15689	note_on channel=9 note=82 velocity=0 time=9
15690	note_on channel=9 note=35 velocity=0 time=0
15691	note_on channel=9 note=36 velocity=0 time=0
15692	note_on channel=6 note=61 velocity=90 time=20
15693	note_on channel=7 note=61 velocity=90 time=1
15694	note_on channel=6 note=59 velocity=0 time=13
15695	note_on channel=7 note=59 velocity=0 time=1
15696	note_on channel=1 note=30 velocity=0 time=15
15697	note_on channel=1 note=31 velocity=69 time=0
15698	note_on channel=6 note=61 velocity=90 time=0
15699	note_on channel=9 note=82 velocity=91 time=0
15700	note_on channel=9 note=27 velocity=103 time=0
15701	note_on channel=7 note=61 velocity=90 time=1
15702	note_on channel=9 note=27 velocity=0 time=9
15703	note_on channel=9 note=82 velocity=0 time=0
15704	note_on channel=1 note=31 velocity=0 time=0
15705	note_on channel=6 note=61 velocity=0 time=4
15706	note_on channel=7 note=61 velocity=0 time=1
15707	note_on channel=1 note=33 velocity=90 time=15
15708	note_on channel=6 note=62 velocity=90 time=0
15709	note_on channel=9 note=36 velocity=127 time=0
15710	note_on channel=9 note=35 velocity=127 time=0
15711	note_on channel=7 note=62 velocity=90 time=1
15712	note_on channel=9 note=35 velocity=0 time=9
15713	note_on channel=9 note=36 velocity=0 time=0
15714	note_on channel=1 note=33 velocity=0 time=0
15715	note_on channel=6 note=61 velocity=0 time=4
15716	note_on channel=7 note=61 velocity=0 time=1
15717	note_on channel=1 note=37 velocity=69 time=15
15718	note_on channel=6 note=61 velocity=90 time=0
15719	note_on channel=9 note=82 velocity=91 time=0
15720	note_on channel=9 note=27 velocity=103 time=0
15721	note_on channel=7 note=61 velocity=90 time=1
15722	note_on channel=9 note=27 velocity=0 time=9
15723	note_on channel=9 note=82 velocity=0 time=0
15724	note_on channel=1 note=37 velocity=0 time=0
15725	note_on channel=6 note=62 velocity=0 time=4
15726	note_on channel=7 note=62 velocity=0 time=1
15727	note_on channel=6 note=61 velocity=0 time=13
15728	note_on channel=7 note=61 velocity=0 time=1
15729	note_on channel=1 note=38 velocity=68 time=1
15730	note_on channel=6 note=61 velocity=90 time=0
15731	note_on channel=7 note=61 velocity=90 time=1
15732	note_on channel=1 note=38 velocity=0 time=9
15733	note_on channel=6 note=61 velocity=0 time=18
15734	note_on channel=7 note=61 velocity=0 time=1
15735	note_on channel=1 note=28 velocity=91 time=1
15736	note_on channel=6 note=61 velocity=90 time=0
15737	note_on channel=9 note=38 velocity=87 time=0
15738	note_on channel=9 note=82 velocity=73 time=0
15739	note_on channel=9 note=37 velocity=127 time=0
15740	note_on channel=7 note=61 velocity=90 time=1
15741	note_on channel=9 note=37 velocity=0 time=9
15742	note_on channel=9 note=82 velocity=0 time=0
15743	note_on channel=9 note=38 velocity=0 time=0
15744	note_on channel=6 note=61 velocity=0 time=16
15745	note_on channel=7 note=61 velocity=0 time=1
15746	note_on channel=6 note=61 velocity=90 time=3
15747	note_on channel=7 note=61 velocity=90 time=1
15748	note_on channel=6 note=61 velocity=0 time=29
15749	note_on channel=1 note=28 velocity=0 time=0
15750	note_on channel=1 note=30 velocity=111 time=0
15751	note_on channel=6 note=59 velocity=90 time=0
15752	note_on channel=9 note=82 velocity=109 time=0
15753	note_on channel=7 note=61 velocity=0 time=1
15754	note_on channel=7 note=59 velocity=90 time=0
15755	note_on channel=9 note=82 velocity=0 time=9
15756	note_on channel=6 note=61 velocity=90 time=20
15757	note_on channel=9 note=38 velocity=86 time=0
15758	note_on channel=9 note=37 velocity=127 time=0
15759	note_on channel=7 note=61 velocity=90 time=1
15760	note_on channel=9 note=37 velocity=0 time=9
15761	note_on channel=9 note=38 velocity=0 time=0
15762	note_on channel=6 note=59 velocity=0 time=4
15763	note_on channel=7 note=59 velocity=0 time=1
15764	note_on channel=1 note=30 velocity=0 time=5
15765	note_on channel=6 note=61 velocity=0 time=8
15766	note_on channel=7 note=61 velocity=0 time=1
15767	note_on channel=1 note=31 velocity=71 time=1
15768	note_on channel=6 note=61 velocity=90 time=0
15769	note_on channel=9 note=82 velocity=91 time=0
15770	note_on channel=7 note=61 velocity=90 time=1
15771	note_on channel=9 note=82 velocity=0 time=9
15772	note_on channel=1 note=31 velocity=0 time=0
15773	note_on channel=1 note=33 velocity=88 time=20
15774	note_on channel=6 note=66 velocity=90 time=0
15775	note_on channel=7 note=66 velocity=90 time=1
15776	note_on channel=6 note=61 velocity=0 time=13
15777	note_on channel=7 note=61 velocity=0 time=1
15778	note_on channel=1 note=33 velocity=0 time=15
15779	note_on channel=1 note=37 velocity=71 time=0
15780	note_on channel=6 note=61 velocity=90 time=0
15781	note_on channel=9 note=38 velocity=85 time=0
15782	note_on channel=9 note=82 velocity=89 time=0
15783	note_on channel=9 note=37 velocity=127 time=0
15784	note_on channel=7 note=61 velocity=90 time=1
15785	note_on channel=9 note=37 velocity=0 time=9
15786	note_on channel=9 note=82 velocity=0 time=0
15787	note_on channel=1 note=37 velocity=0 time=0
15788	note_on channel=9 note=38 velocity=0 time=0
15789	note_on channel=6 note=66 velocity=0 time=4
15790	note_on channel=7 note=66 velocity=0 time=1
15791	note_on channel=6 note=61 velocity=0 time=13
15792	note_on channel=7 note=61 velocity=0 time=1
15793	note_on channel=1 note=38 velocity=68 time=1
15794	note_on channel=6 note=61 velocity=90 time=0
15795	note_on channel=9 note=36 velocity=127 time=0
15796	note_on channel=9 note=35 velocity=127 time=0
15797	note_on channel=7 note=61 velocity=90 time=1
15798	note_on channel=9 note=35 velocity=0 time=9
15799	note_on channel=9 note=36 velocity=0 time=0
15800	note_on channel=1 note=38 velocity=0 time=0
15801	note_on channel=6 note=61 velocity=0 time=18
15802	note_on channel=7 note=61 velocity=0 time=1
15803	note_on channel=1 note=37 velocity=89 time=1
15804	note_on channel=6 note=61 velocity=90 time=0
15805	note_on channel=9 note=82 velocity=68 time=0
15806	note_on channel=7 note=61 velocity=90 time=1
15807	note_on channel=9 note=82 velocity=0 time=9
15808	note_on channel=1 note=37 velocity=0 time=0
15809	note_on channel=6 note=61 velocity=0 time=14
15810	note_on channel=7 note=61 velocity=0 time=1
15811	note_on channel=1 note=33 velocity=68 time=5
15812	note_on channel=6 note=61 velocity=90 time=0
15813	note_on channel=7 note=61 velocity=90 time=1
15814	note_on channel=1 note=33 velocity=0 time=9
15815	note_on channel=6 note=61 velocity=0 time=12
15816	note_on channel=7 note=61 velocity=0 time=1
15817	note_on channel=1 note=30 velocity=112 time=7
15818	note_on channel=6 note=59 velocity=90 time=0
15819	note_on channel=9 note=36 velocity=127 time=0
15820	note_on channel=9 note=35 velocity=127 time=0
15821	note_on channel=9 note=82 velocity=108 time=0
15822	note_on channel=7 note=59 velocity=90 time=1
15823	note_on channel=9 note=82 velocity=0 time=9
15824	note_on channel=9 note=35 velocity=0 time=0
15825	note_on channel=9 note=36 velocity=0 time=0
15826	note_on channel=6 note=61 velocity=90 time=20
15827	note_on channel=7 note=61 velocity=90 time=1
15828	note_on channel=6 note=59 velocity=0 time=13
15829	note_on channel=7 note=59 velocity=0 time=1
15830	note_on channel=6 note=61 velocity=90 time=15
15831	note_on channel=9 note=82 velocity=90 time=0
15832	note_on channel=9 note=27 velocity=103 time=0
15833	note_on channel=7 note=61 velocity=90 time=1
15834	note_on channel=9 note=27 velocity=0 time=9
15835	note_on channel=9 note=82 velocity=0 time=0
15836	note_on channel=6 note=61 velocity=0 time=4
15837	note_on channel=7 note=61 velocity=0 time=1
15838	note_on channel=1 note=30 velocity=0 time=15
15839	note_on channel=6 note=62 velocity=90 time=0
15840	note_on channel=9 note=36 velocity=127 time=0
15841	note_on channel=9 note=35 velocity=127 time=0
15842	note_on channel=7 note=62 velocity=90 time=1
15843	note_on channel=9 note=35 velocity=0 time=9
15844	note_on channel=9 note=36 velocity=0 time=0
15845	note_on channel=6 note=61 velocity=0 time=4
15846	note_on channel=7 note=61 velocity=0 time=1
15847	note_on channel=6 note=61 velocity=90 time=15
15848	note_on channel=9 note=82 velocity=88 time=0
15849	note_on channel=9 note=27 velocity=101 time=0
15850	note_on channel=7 note=61 velocity=90 time=1
15851	note_on channel=9 note=27 velocity=0 time=9
15852	note_on channel=9 note=82 velocity=0 time=0
15853	note_on channel=6 note=62 velocity=0 time=4
15854	note_on channel=7 note=62 velocity=0 time=1
15855	note_on channel=6 note=61 velocity=0 time=13
15856	note_on channel=7 note=61 velocity=0 time=1
15857	note_on channel=6 note=61 velocity=90 time=1
15858	note_on channel=7 note=61 velocity=90 time=1
15859	note_on channel=6 note=61 velocity=0 time=27
15860	note_on channel=7 note=61 velocity=0 time=1
15861	note_on channel=1 note=30 velocity=110 time=1
15862	note_on channel=6 note=61 velocity=90 time=0
15863	note_on channel=9 note=38 velocity=88 time=0
15864	note_on channel=9 note=82 velocity=67 time=0
15865	note_on channel=9 note=37 velocity=127 time=0
15866	note_on channel=7 note=61 velocity=90 time=1
15867	note_on channel=9 note=37 velocity=0 time=9
15868	note_on channel=9 note=82 velocity=0 time=0
15869	note_on channel=9 note=38 velocity=0 time=0
15870	note_on channel=6 note=61 velocity=0 time=16
15871	note_on channel=7 note=61 velocity=0 time=1
15872	note_on channel=6 note=61 velocity=90 time=3
15873	note_on channel=7 note=61 velocity=90 time=1
15874	note_on channel=6 note=61 velocity=0 time=29
15875	note_on channel=1 note=30 velocity=0 time=0
15876	note_on channel=1 note=30 velocity=92 time=0
15877	note_on channel=6 note=59 velocity=90 time=0
15878	note_on channel=9 note=82 velocity=109 time=0
15879	note_on channel=7 note=61 velocity=0 time=1
15880	note_on channel=7 note=59 velocity=90 time=0
15881	note_on channel=9 note=82 velocity=0 time=9
15882	note_on channel=6 note=61 velocity=90 time=20
15883	note_on channel=9 note=38 velocity=87 time=0
15884	note_on channel=9 note=37 velocity=127 time=0
15885	note_on channel=7 note=61 velocity=90 time=1
15886	note_on channel=9 note=37 velocity=0 time=9
15887	note_on channel=9 note=38 velocity=0 time=0
15888	note_on channel=6 note=59 velocity=0 time=4
15889	note_on channel=7 note=59 velocity=0 time=1
15890	note_on channel=6 note=61 velocity=0 time=13
15891	note_on channel=7 note=61 velocity=0 time=1
15892	note_on channel=6 note=61 velocity=90 time=1
15893	note_on channel=9 note=36 velocity=127 time=0
15894	note_on channel=9 note=35 velocity=127 time=0
15895	note_on channel=9 note=82 velocity=88 time=0
15896	note_on channel=7 note=61 velocity=90 time=1
15897	note_on channel=9 note=82 velocity=0 time=9
15898	note_on channel=9 note=35 velocity=0 time=0
15899	note_on channel=9 note=36 velocity=0 time=0
15900	note_on channel=1 note=30 velocity=0 time=20
15901	note_on channel=6 note=62 velocity=90 time=0
15902	note_on channel=7 note=62 velocity=90 time=1
15903	note_on channel=6 note=61 velocity=0 time=13
15904	note_on channel=7 note=61 velocity=0 time=1
15905	note_on channel=6 note=61 velocity=90 time=15
15906	note_on channel=9 note=38 velocity=86 time=0
15907	note_on channel=9 note=82 velocity=90 time=0
15908	note_on channel=9 note=37 velocity=127 time=0
15909	note_on channel=7 note=61 velocity=90 time=1
15910	note_on channel=9 note=37 velocity=0 time=9
15911	note_on channel=9 note=82 velocity=0 time=0
15912	note_on channel=9 note=38 velocity=0 time=0
15913	note_on channel=6 note=62 velocity=0 time=4
15914	note_on channel=7 note=62 velocity=0 time=1
15915	note_on channel=6 note=61 velocity=0 time=13
15916	note_on channel=7 note=61 velocity=0 time=1
15917	note_on channel=6 note=61 velocity=90 time=1
15918	note_on channel=9 note=36 velocity=127 time=0
15919	note_on channel=9 note=35 velocity=127 time=0
15920	note_on channel=7 note=61 velocity=90 time=1
15921	note_on channel=9 note=35 velocity=0 time=9
15922	note_on channel=9 note=36 velocity=0 time=0
15923	note_on channel=6 note=61 velocity=0 time=18
15924	note_on channel=7 note=61 velocity=0 time=1
15925	note_on channel=6 note=61 velocity=90 time=1
15926	note_on channel=9 note=82 velocity=67 time=0
15927	note_on channel=7 note=61 velocity=90 time=1
15928	note_on channel=9 note=82 velocity=0 time=9
15929	note_on channel=6 note=61 velocity=0 time=14
15930	note_on channel=7 note=61 velocity=0 time=1
15931	note_on channel=6 note=61 velocity=90 time=5
15932	note_on channel=9 note=36 velocity=127 time=0
15933	note_on channel=9 note=35 velocity=127 time=0
15934	note_on channel=7 note=61 velocity=90 time=1
15935	note_on channel=9 note=35 velocity=0 time=9
15936	note_on channel=9 note=36 velocity=0 time=0
15937	note_on channel=6 note=61 velocity=0 time=12
15938	note_on channel=7 note=61 velocity=0 time=1
15939	note_on channel=1 note=30 velocity=108 time=7
15940	note_on channel=6 note=59 velocity=90 time=0
15941	note_on channel=9 note=36 velocity=127 time=0
15942	note_on channel=9 note=35 velocity=127 time=0
15943	note_on channel=9 note=82 velocity=110 time=0
15944	note_on channel=7 note=59 velocity=90 time=1
15945	note_on channel=9 note=82 velocity=0 time=9
15946	note_on channel=9 note=35 velocity=0 time=0
15947	note_on channel=9 note=36 velocity=0 time=0
15948	note_on channel=6 note=61 velocity=90 time=20
15949	note_on channel=7 note=61 velocity=90 time=1
15950	note_on channel=6 note=59 velocity=0 time=13
15951	note_on channel=7 note=59 velocity=0 time=1
15952	note_on channel=1 note=30 velocity=0 time=15
15953	note_on channel=1 note=31 velocity=70 time=0
15954	note_on channel=6 note=61 velocity=90 time=0
15955	note_on channel=9 note=82 velocity=91 time=0
15956	note_on channel=9 note=27 velocity=103 time=0
15957	note_on channel=7 note=61 velocity=90 time=1
15958	note_on channel=9 note=27 velocity=0 time=9
15959	note_on channel=9 note=82 velocity=0 time=0
15960	note_on channel=1 note=31 velocity=0 time=0
15961	note_on channel=6 note=61 velocity=0 time=4
15962	note_on channel=7 note=61 velocity=0 time=1
15963	note_on channel=1 note=33 velocity=89 time=15
15964	note_on channel=6 note=62 velocity=90 time=0
15965	note_on channel=9 note=36 velocity=127 time=0
15966	note_on channel=9 note=35 velocity=127 time=0
15967	note_on channel=7 note=62 velocity=90 time=1
15968	note_on channel=9 note=35 velocity=0 time=9
15969	note_on channel=9 note=36 velocity=0 time=0
15970	note_on channel=1 note=33 velocity=0 time=0
15971	note_on channel=6 note=61 velocity=0 time=4
15972	note_on channel=7 note=61 velocity=0 time=1
15973	note_on channel=1 note=37 velocity=72 time=15
15974	note_on channel=6 note=61 velocity=90 time=0
15975	note_on channel=9 note=82 velocity=91 time=0
15976	note_on channel=9 note=27 velocity=103 time=0
15977	note_on channel=7 note=61 velocity=90 time=1
15978	note_on channel=9 note=27 velocity=0 time=9
15979	note_on channel=9 note=82 velocity=0 time=0
15980	note_on channel=1 note=37 velocity=0 time=0
15981	note_on channel=6 note=62 velocity=0 time=4
15982	note_on channel=7 note=62 velocity=0 time=1
15983	note_on channel=6 note=61 velocity=0 time=13
15984	note_on channel=7 note=61 velocity=0 time=1
15985	note_on channel=1 note=38 velocity=72 time=1
15986	note_on channel=6 note=61 velocity=90 time=0
15987	note_on channel=7 note=61 velocity=90 time=1
15988	note_on channel=1 note=38 velocity=0 time=9
15989	note_on channel=6 note=61 velocity=0 time=18
15990	note_on channel=7 note=61 velocity=0 time=1
15991	note_on channel=1 note=28 velocity=89 time=1
15992	note_on channel=6 note=61 velocity=90 time=0
15993	note_on channel=9 note=38 velocity=87 time=0
15994	note_on channel=9 note=82 velocity=73 time=0
15995	note_on channel=9 note=37 velocity=127 time=0
15996	note_on channel=7 note=61 velocity=90 time=1
15997	note_on channel=9 note=37 velocity=0 time=9
15998	note_on channel=9 note=82 velocity=0 time=0
15999	note_on channel=9 note=38 velocity=0 time=0
16000	note_on channel=6 note=61 velocity=0 time=16
16001	note_on channel=7 note=61 velocity=0 time=1
16002	note_on channel=6 note=61 velocity=90 time=3
16003	note_on channel=7 note=61 velocity=90 time=1
16004	note_on channel=6 note=61 velocity=0 time=29
16005	note_on channel=1 note=28 velocity=0 time=0
16006	note_on channel=1 note=30 velocity=112 time=0
16007	note_on channel=6 note=59 velocity=90 time=0
16008	note_on channel=9 note=82 velocity=109 time=0
16009	note_on channel=7 note=61 velocity=0 time=1
16010	note_on channel=7 note=59 velocity=90 time=0
16011	note_on channel=9 note=82 velocity=0 time=9
16012	note_on channel=6 note=61 velocity=90 time=20
16013	note_on channel=9 note=38 velocity=86 time=0
16014	note_on channel=9 note=37 velocity=127 time=0
16015	note_on channel=7 note=61 velocity=90 time=1
16016	note_on channel=9 note=37 velocity=0 time=9
16017	note_on channel=9 note=38 velocity=0 time=0
16018	note_on channel=6 note=59 velocity=0 time=4
16019	note_on channel=7 note=59 velocity=0 time=1
16020	note_on channel=1 note=30 velocity=0 time=5
16021	note_on channel=6 note=61 velocity=0 time=8
16022	note_on channel=7 note=61 velocity=0 time=1
16023	note_on channel=1 note=31 velocity=68 time=1
16024	note_on channel=6 note=61 velocity=90 time=0
16025	note_on channel=9 note=82 velocity=91 time=0
16026	note_on channel=7 note=61 velocity=90 time=1
16027	note_on channel=9 note=82 velocity=0 time=9
16028	note_on channel=1 note=31 velocity=0 time=0
16029	note_on channel=1 note=33 velocity=92 time=20
16030	note_on channel=6 note=66 velocity=90 time=0
16031	note_on channel=7 note=66 velocity=90 time=1
16032	note_on channel=6 note=61 velocity=0 time=13
16033	note_on channel=7 note=61 velocity=0 time=1
16034	note_on channel=1 note=33 velocity=0 time=15
16035	note_on channel=1 note=37 velocity=71 time=0
16036	note_on channel=6 note=61 velocity=90 time=0
16037	note_on channel=8 note=69 velocity=58 time=0
16038	note_on channel=9 note=38 velocity=85 time=0
16039	note_on channel=9 note=82 velocity=89 time=0
16040	note_on channel=9 note=37 velocity=127 time=0
16041	note_on channel=7 note=61 velocity=90 time=1
16042	note_on channel=9 note=37 velocity=0 time=9
16043	note_on channel=9 note=82 velocity=0 time=0
16044	note_on channel=9 note=38 velocity=0 time=0
16045	note_on channel=1 note=37 velocity=0 time=0
16046	note_on channel=6 note=66 velocity=0 time=4
16047	note_on channel=7 note=66 velocity=0 time=1
16048	note_on channel=6 note=61 velocity=0 time=13
16049	note_on channel=7 note=61 velocity=0 time=1
16050	note_on channel=1 note=38 velocity=70 time=1
16051	note_on channel=6 note=61 velocity=90 time=0
16052	note_on channel=9 note=36 velocity=127 time=0
16053	note_on channel=9 note=35 velocity=127 time=0
16054	note_on channel=7 note=61 velocity=90 time=1
16055	note_on channel=9 note=35 velocity=0 time=9
16056	note_on channel=9 note=36 velocity=0 time=0
16057	note_on channel=1 note=38 velocity=0 time=0
16058	note_on channel=6 note=61 velocity=0 time=18
16059	note_on channel=7 note=61 velocity=0 time=1
16060	note_on channel=1 note=37 velocity=91 time=1
16061	note_on channel=6 note=61 velocity=90 time=0
16062	note_on channel=9 note=82 velocity=68 time=0
16063	note_on channel=7 note=61 velocity=90 time=1
16064	note_on channel=9 note=82 velocity=0 time=9
16065	note_on channel=1 note=37 velocity=0 time=0
16066	note_on channel=6 note=61 velocity=0 time=14
16067	note_on channel=7 note=61 velocity=0 time=1
16068	note_on channel=1 note=33 velocity=72 time=5
16069	note_on channel=6 note=61 velocity=90 time=0
16070	note_on channel=7 note=61 velocity=90 time=1
16071	note_on channel=1 note=33 velocity=0 time=9
16072	note_on channel=6 note=61 velocity=0 time=12
16073	note_on channel=7 note=61 velocity=0 time=1
16074	note_on channel=8 note=69 velocity=0 time=4
16075	note_on channel=8 note=66 velocity=0 time=0
16076	note_on channel=8 note=73 velocity=0 time=0
16077	note_on channel=8 note=69 velocity=0 time=3
16078	note_on channel=1 note=28 velocity=109 time=0
16079	note_on channel=6 note=59 velocity=90 time=0
16080	note_on channel=8 note=66 velocity=61 time=0
16081	note_on channel=8 note=69 velocity=61 time=0
16082	note_on channel=8 note=73 velocity=61 time=0
16083	note_on channel=9 note=36 velocity=127 time=0
16084	note_on channel=9 note=35 velocity=127 time=0
16085	note_on channel=9 note=82 velocity=108 time=0
16086	note_on channel=7 note=59 velocity=90 time=1
16087	note_on channel=9 note=82 velocity=0 time=9
16088	note_on channel=9 note=35 velocity=0 time=0
16089	note_on channel=9 note=36 velocity=0 time=0
16090	note_on channel=6 note=61 velocity=90 time=20
16091	note_on channel=7 note=61 velocity=90 time=1
16092	note_on channel=6 note=59 velocity=0 time=13
16093	note_on channel=7 note=59 velocity=0 time=1
16094	note_on channel=1 note=28 velocity=0 time=15
16095	note_on channel=1 note=30 velocity=108 time=0
16096	note_on channel=6 note=61 velocity=89 time=0
16097	note_on channel=9 note=82 velocity=89 time=0
16098	note_on channel=9 note=27 velocity=101 time=0
16099	note_on channel=7 note=61 velocity=89 time=1
16100	note_on channel=9 note=27 velocity=0 time=9
16101	note_on channel=9 note=82 velocity=0 time=0
16102	note_on channel=6 note=61 velocity=0 time=4
16103	note_on channel=7 note=61 velocity=0 time=1
16104	note_on channel=1 note=30 velocity=0 time=5
16105	note_on channel=6 note=62 velocity=88 time=10
16106	note_on channel=7 note=62 velocity=88 time=1
16107	note_on channel=6 note=61 velocity=0 time=13
16108	note_on channel=7 note=61 velocity=0 time=1
16109	note_on channel=1 note=31 velocity=67 time=15
16110	note_on channel=6 note=61 velocity=87 time=0
16111	note_on channel=9 note=82 velocity=85 time=0
16112	note_on channel=9 note=27 velocity=97 time=0
16113	note_on channel=7 note=61 velocity=87 time=1
16114	note_on channel=9 note=27 velocity=0 time=9
16115	note_on channel=9 note=82 velocity=0 time=0
16116	note_on channel=1 note=31 velocity=0 time=0
16117	note_on channel=6 note=62 velocity=0 time=4
16118	note_on channel=7 note=62 velocity=0 time=1
16119	note_on channel=6 note=61 velocity=0 time=13
16120	note_on channel=7 note=61 velocity=0 time=1
16121	note_on channel=1 note=33 velocity=68 time=1
16122	note_on channel=6 note=61 velocity=87 time=0
16123	note_on channel=7 note=61 velocity=87 time=1
16124	note_on channel=1 note=33 velocity=0 time=9
16125	note_on channel=6 note=61 velocity=0 time=18
16126	note_on channel=7 note=61 velocity=0 time=1
16127	note_on channel=1 note=30 velocity=107 time=1
16128	note_on channel=6 note=61 velocity=86 time=0
16129	note_on channel=9 note=38 velocity=83 time=0
16130	note_on channel=9 note=82 velocity=64 time=0
16131	note_on channel=9 note=37 velocity=127 time=0
16132	note_on channel=7 note=61 velocity=86 time=1
16133	note_on channel=9 note=37 velocity=0 time=9
16134	note_on channel=9 note=82 velocity=0 time=0
16135	note_on channel=9 note=38 velocity=0 time=0
16136	note_on channel=6 note=61 velocity=0 time=16
16137	note_on channel=7 note=61 velocity=0 time=1
16138	note_on channel=6 note=61 velocity=85 time=3
16139	note_on channel=7 note=61 velocity=85 time=1
16140	note_on channel=6 note=61 velocity=0 time=29
16141	note_on channel=1 note=30 velocity=0 time=0
16142	note_on channel=1 note=31 velocity=63 time=0
16143	note_on channel=6 note=59 velocity=84 time=0
16144	note_on channel=9 note=82 velocity=102 time=0
16145	note_on channel=7 note=61 velocity=0 time=1
16146	note_on channel=7 note=59 velocity=84 time=0
16147	note_on channel=9 note=82 velocity=0 time=9
16148	note_on channel=1 note=31 velocity=0 time=10
16149	note_on channel=1 note=30 velocity=84 time=10
16150	note_on channel=6 note=61 velocity=83 time=0
16151	note_on channel=9 note=38 velocity=79 time=0
16152	note_on channel=9 note=37 velocity=127 time=0
16153	note_on channel=7 note=61 velocity=83 time=1
16154	note_on channel=9 note=37 velocity=0 time=9
16155	note_on channel=9 note=38 velocity=0 time=0
16156	note_on channel=1 note=30 velocity=0 time=0
16157	note_on channel=6 note=59 velocity=0 time=4
16158	note_on channel=7 note=59 velocity=0 time=1
16159	note_on channel=6 note=61 velocity=0 time=13
16160	note_on channel=7 note=61 velocity=0 time=1
16161	note_on channel=1 note=31 velocity=64 time=1
16162	note_on channel=6 note=61 velocity=83 time=0
16163	note_on channel=9 note=82 velocity=81 time=0
16164	note_on channel=7 note=61 velocity=83 time=1
16165	note_on channel=9 note=82 velocity=0 time=9
16166	note_on channel=1 note=31 velocity=0 time=0
16167	note_on channel=1 note=40 velocity=83 time=20
16168	note_on channel=6 note=62 velocity=82 time=0
16169	note_on channel=7 note=62 velocity=82 time=1
16170	note_on channel=6 note=61 velocity=0 time=13
16171	note_on channel=7 note=61 velocity=0 time=1
16172	note_on channel=1 note=40 velocity=0 time=15
16173	note_on channel=1 note=30 velocity=80 time=0
16174	note_on channel=6 note=61 velocity=81 time=0
16175	note_on channel=9 note=38 velocity=76 time=0
16176	note_on channel=9 note=82 velocity=81 time=0
16177	note_on channel=9 note=37 velocity=127 time=0
16178	note_on channel=7 note=61 velocity=81 time=1
16179	note_on channel=9 note=37 velocity=0 time=9
16180	note_on channel=9 note=82 velocity=0 time=0
16181	note_on channel=1 note=30 velocity=0 time=0
16182	note_on channel=9 note=38 velocity=0 time=0
16183	note_on channel=6 note=62 velocity=0 time=4
16184	note_on channel=7 note=62 velocity=0 time=1
16185	note_on channel=6 note=61 velocity=0 time=13
16186	note_on channel=7 note=61 velocity=0 time=1
16187	note_on channel=1 note=31 velocity=61 time=1
16188	note_on channel=6 note=61 velocity=81 time=0
16189	note_on channel=7 note=61 velocity=81 time=1
16190	note_on channel=1 note=31 velocity=0 time=19
16191	note_on channel=6 note=61 velocity=0 time=8
16192	note_on channel=7 note=61 velocity=0 time=1
16193	note_on channel=1 note=40 velocity=81 time=1
16194	note_on channel=6 note=61 velocity=81 time=0
16195	note_on channel=9 note=82 velocity=60 time=0
16196	note_on channel=7 note=61 velocity=81 time=1
16197	note_on channel=9 note=82 velocity=0 time=9
16198	note_on channel=1 note=40 velocity=0 time=10
16199	note_on channel=6 note=61 velocity=0 time=4
16200	note_on channel=7 note=61 velocity=0 time=1
16201	note_on channel=1 note=42 velocity=80 time=5
16202	note_on channel=6 note=61 velocity=80 time=0
16203	note_on channel=7 note=61 velocity=80 time=1
16204	note_on channel=1 note=42 velocity=0 time=9
16205	note_on channel=6 note=61 velocity=0 time=12
16206	note_on channel=7 note=61 velocity=0 time=1
16207	note_on channel=1 note=30 velocity=95 time=7
16208	note_on channel=6 note=59 velocity=79 time=0
16209	note_on channel=9 note=36 velocity=127 time=0
16210	note_on channel=9 note=35 velocity=127 time=0
16211	note_on channel=9 note=82 velocity=96 time=0
16212	note_on channel=7 note=59 velocity=79 time=1
16213	note_on channel=9 note=82 velocity=0 time=9
16214	note_on channel=9 note=35 velocity=0 time=0
16215	note_on channel=9 note=36 velocity=0 time=0
16216	note_on channel=6 note=61 velocity=78 time=20
16217	note_on channel=7 note=61 velocity=78 time=1
16218	note_on channel=6 note=59 velocity=0 time=13
16219	note_on channel=7 note=59 velocity=0 time=1
16220	note_on channel=1 note=30 velocity=0 time=15
16221	note_on channel=1 note=31 velocity=59 time=0
16222	note_on channel=6 note=61 velocity=77 time=0
16223	note_on channel=9 note=82 velocity=78 time=0
16224	note_on channel=9 note=27 velocity=87 time=0
16225	note_on channel=7 note=61 velocity=77 time=1
16226	note_on channel=9 note=27 velocity=0 time=9
16227	note_on channel=9 note=82 velocity=0 time=0
16228	note_on channel=1 note=31 velocity=0 time=0
16229	note_on channel=6 note=61 velocity=0 time=4
16230	note_on channel=7 note=61 velocity=0 time=1
16231	note_on channel=1 note=33 velocity=77 time=15
16232	note_on channel=6 note=62 velocity=77 time=0
16233	note_on channel=9 note=36 velocity=127 time=0
16234	note_on channel=9 note=35 velocity=127 time=0
16235	note_on channel=7 note=62 velocity=77 time=1
16236	note_on channel=9 note=35 velocity=0 time=9
16237	note_on channel=9 note=36 velocity=0 time=0
16238	note_on channel=1 note=33 velocity=0 time=0
16239	note_on channel=6 note=61 velocity=0 time=4
16240	note_on channel=7 note=61 velocity=0 time=1
16241	note_on channel=1 note=37 velocity=58 time=15
16242	note_on channel=6 note=61 velocity=76 time=0
16243	note_on channel=9 note=82 velocity=77 time=0
16244	note_on channel=9 note=27 velocity=86 time=0
16245	note_on channel=7 note=61 velocity=76 time=1
16246	note_on channel=9 note=27 velocity=0 time=9
16247	note_on channel=9 note=82 velocity=0 time=0
16248	note_on channel=1 note=37 velocity=0 time=0
16249	note_on channel=6 note=62 velocity=0 time=4
16250	note_on channel=7 note=62 velocity=0 time=1
16251	note_on channel=6 note=61 velocity=0 time=13
16252	note_on channel=7 note=61 velocity=0 time=1
16253	note_on channel=1 note=38 velocity=57 time=1
16254	note_on channel=6 note=61 velocity=75 time=0
16255	note_on channel=7 note=61 velocity=75 time=1
16256	note_on channel=1 note=38 velocity=0 time=9
16257	note_on channel=6 note=61 velocity=0 time=18
16258	note_on channel=7 note=61 velocity=0 time=1
16259	note_on channel=1 note=28 velocity=75 time=1
16260	note_on channel=6 note=61 velocity=74 time=0
16261	note_on channel=9 note=38 velocity=68 time=0
16262	note_on channel=9 note=82 velocity=60 time=0
16263	note_on channel=9 note=37 velocity=127 time=0
16264	note_on channel=7 note=61 velocity=74 time=1
16265	note_on channel=9 note=37 velocity=0 time=9
16266	note_on channel=9 note=82 velocity=0 time=0
16267	note_on channel=9 note=38 velocity=0 time=0
16268	note_on channel=6 note=61 velocity=0 time=16
16269	note_on channel=7 note=61 velocity=0 time=1
16270	note_on channel=6 note=61 velocity=74 time=3
16271	note_on channel=7 note=61 velocity=74 time=1
16272	note_on channel=6 note=61 velocity=0 time=29
16273	note_on channel=1 note=28 velocity=0 time=0
16274	note_on channel=1 note=30 velocity=91 time=0
16275	note_on channel=6 note=59 velocity=73 time=0
16276	note_on channel=9 note=82 velocity=89 time=0
16277	note_on channel=7 note=61 velocity=0 time=1
16278	note_on channel=7 note=59 velocity=73 time=0
16279	note_on channel=9 note=82 velocity=0 time=9
16280	note_on channel=6 note=61 velocity=72 time=20
16281	note_on channel=9 note=38 velocity=65 time=0
16282	note_on channel=9 note=37 velocity=127 time=0
16283	note_on channel=7 note=61 velocity=72 time=1
16284	note_on channel=9 note=37 velocity=0 time=9
16285	note_on channel=9 note=38 velocity=0 time=0
16286	note_on channel=6 note=59 velocity=0 time=4
16287	note_on channel=7 note=59 velocity=0 time=1
16288	note_on channel=1 note=30 velocity=0 time=5
16289	note_on channel=6 note=61 velocity=0 time=8
16290	note_on channel=7 note=61 velocity=0 time=1
16291	note_on channel=1 note=31 velocity=56 time=1
16292	note_on channel=6 note=61 velocity=72 time=0
16293	note_on channel=9 note=82 velocity=72 time=0
16294	note_on channel=7 note=61 velocity=72 time=1
16295	note_on channel=9 note=82 velocity=0 time=9
16296	note_on channel=1 note=31 velocity=0 time=0
16297	note_on channel=1 note=33 velocity=69 time=20
16298	note_on channel=6 note=66 velocity=71 time=0
16299	note_on channel=7 note=66 velocity=71 time=1
16300	note_on channel=6 note=61 velocity=0 time=13
16301	note_on channel=7 note=61 velocity=0 time=1
16302	note_on channel=1 note=33 velocity=0 time=15
16303	note_on channel=1 note=37 velocity=56 time=0
16304	note_on channel=6 note=61 velocity=71 time=0
16305	note_on channel=9 note=38 velocity=62 time=0
16306	note_on channel=9 note=82 velocity=70 time=0
16307	note_on channel=9 note=37 velocity=127 time=0
16308	note_on channel=7 note=61 velocity=71 time=1
16309	note_on channel=9 note=37 velocity=0 time=9
16310	note_on channel=9 note=82 velocity=0 time=0
16311	note_on channel=1 note=37 velocity=0 time=0
16312	note_on channel=9 note=38 velocity=0 time=0
16313	note_on channel=6 note=66 velocity=0 time=4
16314	note_on channel=7 note=66 velocity=0 time=1
16315	note_on channel=6 note=61 velocity=0 time=13
16316	note_on channel=7 note=61 velocity=0 time=1
16317	note_on channel=1 note=38 velocity=53 time=1
16318	note_on channel=6 note=61 velocity=70 time=0
16319	note_on channel=9 note=36 velocity=127 time=0
16320	note_on channel=9 note=35 velocity=127 time=0
16321	note_on channel=7 note=61 velocity=70 time=1
16322	note_on channel=9 note=35 velocity=0 time=9
16323	note_on channel=9 note=36 velocity=0 time=0
16324	note_on channel=1 note=38 velocity=0 time=0
16325	note_on channel=6 note=61 velocity=0 time=18
16326	note_on channel=7 note=61 velocity=0 time=1
16327	note_on channel=1 note=37 velocity=68 time=1
16328	note_on channel=6 note=61 velocity=69 time=0
16329	note_on channel=9 note=82 velocity=52 time=0
16330	note_on channel=7 note=61 velocity=69 time=1
16331	note_on channel=9 note=82 velocity=0 time=9
16332	note_on channel=1 note=37 velocity=0 time=0
16333	note_on channel=6 note=61 velocity=0 time=14
16334	note_on channel=7 note=61 velocity=0 time=1
16335	note_on channel=1 note=33 velocity=51 time=5
16336	note_on channel=6 note=61 velocity=68 time=0
16337	note_on channel=7 note=61 velocity=68 time=1
16338	note_on channel=1 note=33 velocity=0 time=9
16339	note_on channel=6 note=61 velocity=0 time=12
16340	note_on channel=7 note=61 velocity=0 time=1
16341	note_on channel=1 note=30 velocity=84 time=7
16342	note_on channel=6 note=59 velocity=67 time=0
16343	note_on channel=9 note=36 velocity=127 time=0
16344	note_on channel=9 note=35 velocity=127 time=0
16345	note_on channel=9 note=82 velocity=81 time=0
16346	note_on channel=7 note=59 velocity=67 time=1
16347	note_on channel=9 note=82 velocity=0 time=9
16348	note_on channel=9 note=35 velocity=0 time=0
16349	note_on channel=9 note=36 velocity=0 time=0
16350	note_on channel=6 note=61 velocity=67 time=20
16351	note_on channel=7 note=61 velocity=67 time=1
16352	note_on channel=6 note=59 velocity=0 time=13
16353	note_on channel=7 note=59 velocity=0 time=1
16354	note_on channel=6 note=61 velocity=66 time=15
16355	note_on channel=9 note=82 velocity=66 time=0
16356	note_on channel=9 note=27 velocity=74 time=0
16357	note_on channel=7 note=61 velocity=66 time=1
16358	note_on channel=9 note=27 velocity=0 time=9
16359	note_on channel=9 note=82 velocity=0 time=0
16360	note_on channel=6 note=61 velocity=0 time=4
16361	note_on channel=7 note=61 velocity=0 time=1
16362	note_on channel=1 note=30 velocity=0 time=15
16363	note_on channel=6 note=62 velocity=65 time=0
16364	note_on channel=9 note=36 velocity=127 time=0
16365	note_on channel=9 note=35 velocity=127 time=0
16366	note_on channel=7 note=62 velocity=65 time=1
16367	note_on channel=9 note=35 velocity=0 time=9
16368	note_on channel=9 note=36 velocity=0 time=0
16369	note_on channel=6 note=61 velocity=0 time=4
16370	note_on channel=7 note=61 velocity=0 time=1
16371	note_on channel=6 note=61 velocity=64 time=15
16372	note_on channel=9 note=82 velocity=63 time=0
16373	note_on channel=9 note=27 velocity=70 time=0
16374	note_on channel=7 note=61 velocity=64 time=1
16375	note_on channel=9 note=27 velocity=0 time=9
16376	note_on channel=9 note=82 velocity=0 time=0
16377	note_on channel=6 note=62 velocity=0 time=4
16378	note_on channel=7 note=62 velocity=0 time=1
16379	note_on channel=6 note=61 velocity=0 time=13
16380	note_on channel=7 note=61 velocity=0 time=1
16381	note_on channel=6 note=61 velocity=64 time=1
16382	note_on channel=7 note=61 velocity=64 time=1
16383	note_on channel=6 note=61 velocity=0 time=27
16384	note_on channel=7 note=61 velocity=0 time=1
16385	note_on channel=1 note=30 velocity=78 time=1
16386	note_on channel=6 note=61 velocity=63 time=0
16387	note_on channel=9 note=38 velocity=55 time=0
16388	note_on channel=9 note=82 velocity=47 time=0
16389	note_on channel=9 note=37 velocity=127 time=0
16390	note_on channel=7 note=61 velocity=63 time=1
16391	note_on channel=9 note=37 velocity=0 time=9
16392	note_on channel=9 note=82 velocity=0 time=0
16393	note_on channel=9 note=38 velocity=0 time=0
16394	note_on channel=6 note=61 velocity=0 time=16
16395	note_on channel=7 note=61 velocity=0 time=1
16396	note_on channel=6 note=61 velocity=63 time=3
16397	note_on channel=7 note=61 velocity=63 time=1
16398	note_on channel=6 note=61 velocity=0 time=29
16399	note_on channel=1 note=30 velocity=0 time=0
16400	note_on channel=1 note=30 velocity=63 time=0
16401	note_on channel=6 note=59 velocity=62 time=0
16402	note_on channel=9 note=82 velocity=75 time=0
16403	note_on channel=7 note=61 velocity=0 time=1
16404	note_on channel=7 note=59 velocity=62 time=0
16405	note_on channel=9 note=82 velocity=0 time=9
16406	note_on channel=6 note=61 velocity=61 time=20
16407	note_on channel=9 note=38 velocity=51 time=0
16408	note_on channel=9 note=37 velocity=127 time=0
16409	note_on channel=7 note=61 velocity=61 time=1
16410	note_on channel=9 note=37 velocity=0 time=9
16411	note_on channel=9 note=38 velocity=0 time=0
16412	note_on channel=6 note=59 velocity=0 time=4
16413	note_on channel=7 note=59 velocity=0 time=1
16414	note_on channel=6 note=61 velocity=0 time=13
16415	note_on channel=7 note=61 velocity=0 time=1
16416	note_on channel=6 note=61 velocity=61 time=1
16417	note_on channel=9 note=36 velocity=127 time=0
16418	note_on channel=9 note=35 velocity=127 time=0
16419	note_on channel=9 note=82 velocity=59 time=0
16420	note_on channel=7 note=61 velocity=61 time=1
16421	note_on channel=9 note=82 velocity=0 time=9
16422	note_on channel=9 note=35 velocity=0 time=0
16423	note_on channel=9 note=36 velocity=0 time=0
16424	note_on channel=1 note=30 velocity=0 time=20
16425	note_on channel=6 note=62 velocity=60 time=0
16426	note_on channel=7 note=62 velocity=60 time=1
16427	note_on channel=6 note=61 velocity=0 time=13
16428	note_on channel=7 note=61 velocity=0 time=1
16429	note_on channel=6 note=61 velocity=59 time=15
16430	note_on channel=9 note=38 velocity=48 time=0
16431	note_on channel=9 note=82 velocity=59 time=0
16432	note_on channel=9 note=37 velocity=127 time=0
16433	note_on channel=7 note=61 velocity=59 time=1
16434	note_on channel=9 note=37 velocity=0 time=9
16435	note_on channel=9 note=82 velocity=0 time=0
16436	note_on channel=9 note=38 velocity=0 time=0
16437	note_on channel=6 note=62 velocity=0 time=4
16438	note_on channel=7 note=62 velocity=0 time=1
16439	note_on channel=6 note=61 velocity=0 time=13
16440	note_on channel=7 note=61 velocity=0 time=1
16441	note_on channel=6 note=61 velocity=58 time=1
16442	note_on channel=9 note=36 velocity=127 time=0
16443	note_on channel=9 note=35 velocity=127 time=0
16444	note_on channel=7 note=61 velocity=58 time=1
16445	note_on channel=9 note=35 velocity=0 time=9
16446	note_on channel=9 note=36 velocity=0 time=0
16447	note_on channel=6 note=61 velocity=0 time=18
16448	note_on channel=7 note=61 velocity=0 time=1
16449	note_on channel=6 note=61 velocity=58 time=1
16450	note_on channel=9 note=82 velocity=43 time=0
16451	note_on channel=7 note=61 velocity=58 time=1
16452	note_on channel=9 note=82 velocity=0 time=9
16453	note_on channel=6 note=61 velocity=0 time=14
16454	note_on channel=7 note=61 velocity=0 time=1
16455	note_on channel=6 note=61 velocity=57 time=5
16456	note_on channel=9 note=36 velocity=127 time=0
16457	note_on channel=9 note=35 velocity=127 time=0
16458	note_on channel=7 note=61 velocity=57 time=1
16459	note_on channel=9 note=35 velocity=0 time=9
16460	note_on channel=9 note=36 velocity=0 time=0
16461	note_on channel=6 note=61 velocity=0 time=12
16462	note_on channel=7 note=61 velocity=0 time=1
16463	note_on channel=1 note=30 velocity=68 time=7
16464	note_on channel=6 note=59 velocity=56 time=0
16465	note_on channel=9 note=36 velocity=127 time=0
16466	note_on channel=9 note=35 velocity=127 time=0
16467	note_on channel=9 note=82 velocity=69 time=0
16468	note_on channel=7 note=59 velocity=56 time=1
16469	note_on channel=9 note=82 velocity=0 time=9
16470	note_on channel=9 note=35 velocity=0 time=0
16471	note_on channel=9 note=36 velocity=0 time=0
16472	note_on channel=6 note=61 velocity=55 time=20
16473	note_on channel=7 note=61 velocity=55 time=1
16474	note_on channel=6 note=59 velocity=0 time=13
16475	note_on channel=7 note=59 velocity=0 time=1
16476	note_on channel=1 note=30 velocity=0 time=15
16477	note_on channel=1 note=31 velocity=42 time=0
16478	note_on channel=6 note=61 velocity=54 time=0
16479	note_on channel=9 note=82 velocity=55 time=0
16480	note_on channel=9 note=27 velocity=59 time=0
16481	note_on channel=7 note=61 velocity=54 time=1
16482	note_on channel=9 note=27 velocity=0 time=9
16483	note_on channel=9 note=82 velocity=0 time=0
16484	note_on channel=1 note=31 velocity=0 time=0
16485	note_on channel=6 note=61 velocity=0 time=4
16486	note_on channel=7 note=61 velocity=0 time=1
16487	note_on channel=1 note=33 velocity=54 time=15
16488	note_on channel=6 note=62 velocity=54 time=0
16489	note_on channel=9 note=36 velocity=127 time=0
16490	note_on channel=9 note=35 velocity=127 time=0
16491	note_on channel=7 note=62 velocity=54 time=1
16492	note_on channel=9 note=35 velocity=0 time=9
16493	note_on channel=9 note=36 velocity=0 time=0
16494	note_on channel=1 note=33 velocity=0 time=0
16495	note_on channel=6 note=61 velocity=0 time=4
16496	note_on channel=7 note=61 velocity=0 time=1
16497	note_on channel=1 note=37 velocity=43 time=15
16498	note_on channel=6 note=61 velocity=54 time=0
16499	note_on channel=9 note=82 velocity=54 time=0
16500	note_on channel=9 note=27 velocity=58 time=0
16501	note_on channel=7 note=61 velocity=54 time=1
16502	note_on channel=9 note=27 velocity=0 time=9
16503	note_on channel=9 note=82 velocity=0 time=0
16504	note_on channel=1 note=37 velocity=0 time=0
16505	note_on channel=6 note=62 velocity=0 time=4
16506	note_on channel=7 note=62 velocity=0 time=1
16507	note_on channel=6 note=61 velocity=0 time=13
16508	note_on channel=7 note=61 velocity=0 time=1
16509	note_on channel=1 note=38 velocity=42 time=1
16510	note_on channel=6 note=61 velocity=53 time=0
16511	note_on channel=7 note=61 velocity=53 time=1
16512	note_on channel=1 note=38 velocity=0 time=9
16513	note_on channel=6 note=61 velocity=0 time=18
16514	note_on channel=7 note=61 velocity=0 time=1
16515	note_on channel=1 note=28 velocity=51 time=1
16516	note_on channel=6 note=61 velocity=52 time=0
16517	note_on channel=9 note=38 velocity=40 time=0
16518	note_on channel=9 note=82 velocity=42 time=0
16519	note_on channel=9 note=37 velocity=127 time=0
16520	note_on channel=7 note=61 velocity=52 time=1
16521	note_on channel=9 note=37 velocity=0 time=9
16522	note_on channel=9 note=82 velocity=0 time=0
16523	note_on channel=9 note=38 velocity=0 time=0
16524	note_on channel=6 note=61 velocity=0 time=16
16525	note_on channel=7 note=61 velocity=0 time=1
16526	note_on channel=6 note=61 velocity=52 time=3
16527	note_on channel=7 note=61 velocity=52 time=1
16528	note_on channel=6 note=61 velocity=0 time=29
16529	note_on channel=1 note=28 velocity=0 time=0
16530	note_on channel=1 note=30 velocity=63 time=0
16531	note_on channel=6 note=59 velocity=51 time=0
16532	note_on channel=9 note=82 velocity=62 time=0
16533	note_on channel=7 note=61 velocity=0 time=1
16534	note_on channel=7 note=59 velocity=51 time=0
16535	note_on channel=9 note=82 velocity=0 time=9
16536	note_on channel=6 note=61 velocity=50 time=20
16537	note_on channel=9 note=38 velocity=38 time=0
16538	note_on channel=9 note=37 velocity=127 time=0
16539	note_on channel=7 note=61 velocity=50 time=1
16540	note_on channel=9 note=37 velocity=0 time=9
16541	note_on channel=9 note=38 velocity=0 time=0
16542	note_on channel=6 note=59 velocity=0 time=4
16543	note_on channel=7 note=59 velocity=0 time=1
16544	note_on channel=1 note=30 velocity=0 time=5
16545	note_on channel=6 note=61 velocity=0 time=8
16546	note_on channel=7 note=61 velocity=0 time=1
16547	note_on channel=1 note=31 velocity=37 time=1
16548	note_on channel=6 note=61 velocity=49 time=0
16549	note_on channel=9 note=82 velocity=50 time=0
16550	note_on channel=7 note=61 velocity=49 time=1
16551	note_on channel=9 note=82 velocity=0 time=9
16552	note_on channel=1 note=31 velocity=0 time=0
16553	note_on channel=1 note=33 velocity=49 time=20
16554	note_on channel=6 note=66 velocity=48 time=0
16555	note_on channel=7 note=66 velocity=48 time=1
16556	note_on channel=6 note=61 velocity=0 time=13
16557	note_on channel=7 note=61 velocity=0 time=1
16558	note_on channel=1 note=33 velocity=0 time=15
16559	note_on channel=1 note=37 velocity=38 time=0
16560	note_on channel=6 note=61 velocity=48 time=0
16561	note_on channel=8 note=69 velocity=31 time=0
16562	note_on channel=9 note=38 velocity=35 time=0
16563	note_on channel=9 note=82 velocity=48 time=0
16564	note_on channel=9 note=37 velocity=127 time=0
16565	note_on channel=7 note=61 velocity=48 time=1
16566	note_on channel=9 note=37 velocity=0 time=9
16567	note_on channel=9 note=82 velocity=0 time=0
16568	note_on channel=9 note=38 velocity=0 time=0
16569	note_on channel=1 note=37 velocity=0 time=0
16570	note_on channel=6 note=66 velocity=0 time=4
16571	note_on channel=7 note=66 velocity=0 time=1
16572	note_on channel=6 note=61 velocity=0 time=13
16573	note_on channel=7 note=61 velocity=0 time=1
16574	note_on channel=1 note=38 velocity=37 time=1
16575	note_on channel=6 note=61 velocity=47 time=0
16576	note_on channel=9 note=36 velocity=127 time=0
16577	note_on channel=9 note=35 velocity=127 time=0
16578	note_on channel=7 note=61 velocity=47 time=1
16579	note_on channel=9 note=35 velocity=0 time=9
16580	note_on channel=9 note=36 velocity=0 time=0
16581	note_on channel=1 note=38 velocity=0 time=0
16582	note_on channel=6 note=61 velocity=0 time=18
16583	note_on channel=7 note=61 velocity=0 time=1
16584	note_on channel=1 note=37 velocity=47 time=1
16585	note_on channel=6 note=61 velocity=46 time=0
16586	note_on channel=9 note=82 velocity=35 time=0
16587	note_on channel=7 note=61 velocity=46 time=1
16588	note_on channel=9 note=82 velocity=0 time=9
16589	note_on channel=1 note=37 velocity=0 time=0
16590	note_on channel=6 note=61 velocity=0 time=14
16591	note_on channel=7 note=61 velocity=0 time=1
16592	note_on channel=1 note=33 velocity=36 time=5
16593	note_on channel=6 note=61 velocity=45 time=0
16594	note_on channel=7 note=61 velocity=45 time=1
16595	note_on channel=1 note=33 velocity=0 time=9
16596	note_on channel=6 note=61 velocity=0 time=12
16597	note_on channel=7 note=61 velocity=0 time=1
16598	note_on channel=8 note=73 velocity=0 time=4
16599	note_on channel=8 note=69 velocity=0 time=0
16600	note_on channel=8 note=66 velocity=0 time=0
16601	note_on channel=8 note=69 velocity=0 time=3
16602	note_on channel=1 note=28 velocity=54 time=0
16603	note_on channel=6 note=59 velocity=45 time=0
16604	note_on channel=8 note=66 velocity=30 time=0
16605	note_on channel=8 note=69 velocity=30 time=0
16606	note_on channel=8 note=73 velocity=30 time=0
16607	note_on channel=9 note=36 velocity=127 time=0
16608	note_on channel=9 note=35 velocity=127 time=0
16609	note_on channel=9 note=82 velocity=54 time=0
16610	note_on channel=7 note=59 velocity=45 time=1
16611	note_on channel=9 note=82 velocity=0 time=9
16612	note_on channel=9 note=35 velocity=0 time=0
16613	note_on channel=9 note=36 velocity=0 time=0
16614	note_on channel=6 note=61 velocity=45 time=20
16615	note_on channel=7 note=61 velocity=45 time=1
16616	note_on channel=6 note=59 velocity=0 time=13
16617	note_on channel=7 note=59 velocity=0 time=1
16618	note_on channel=1 note=28 velocity=0 time=15
16619	note_on channel=1 note=30 velocity=53 time=0
16620	note_on channel=6 note=61 velocity=44 time=0
16621	note_on channel=9 note=82 velocity=44 time=0
16622	note_on channel=9 note=27 velocity=46 time=0
16623	note_on channel=7 note=61 velocity=44 time=1
16624	note_on channel=9 note=27 velocity=0 time=9
16625	note_on channel=9 note=82 velocity=0 time=0
16626	note_on channel=6 note=61 velocity=0 time=4
16627	note_on channel=7 note=61 velocity=0 time=1
16628	note_on channel=1 note=30 velocity=0 time=5
16629	note_on channel=6 note=62 velocity=43 time=10
16630	note_on channel=7 note=62 velocity=43 time=1
16631	note_on channel=6 note=61 velocity=0 time=13
16632	note_on channel=7 note=61 velocity=0 time=1
16633	note_on channel=1 note=31 velocity=32 time=15
16634	note_on channel=6 note=61 velocity=42 time=0
16635	note_on channel=9 note=82 velocity=41 time=0
16636	note_on channel=9 note=27 velocity=43 time=0
16637	note_on channel=7 note=61 velocity=42 time=1
16638	note_on channel=9 note=27 velocity=0 time=9
16639	note_on channel=9 note=82 velocity=0 time=0
16640	note_on channel=1 note=31 velocity=0 time=0
16641	note_on channel=6 note=62 velocity=0 time=4
16642	note_on channel=7 note=62 velocity=0 time=1
16643	note_on channel=6 note=61 velocity=0 time=13
16644	note_on channel=7 note=61 velocity=0 time=1
16645	note_on channel=1 note=33 velocity=33 time=1
16646	note_on channel=6 note=61 velocity=42 time=0
16647	note_on channel=7 note=61 velocity=42 time=1
16648	note_on channel=1 note=33 velocity=0 time=9
16649	note_on channel=6 note=61 velocity=0 time=18
16650	note_on channel=7 note=61 velocity=0 time=1
16651	note_on channel=1 note=30 velocity=51 time=1
16652	note_on channel=6 note=61 velocity=41 time=0
16653	note_on channel=9 note=38 velocity=28 time=0
16654	note_on channel=9 note=82 velocity=30 time=0
16655	note_on channel=9 note=37 velocity=127 time=0
16656	note_on channel=7 note=61 velocity=41 time=1
16657	note_on channel=9 note=37 velocity=0 time=9
16658	note_on channel=9 note=82 velocity=0 time=0
16659	note_on channel=9 note=38 velocity=0 time=0
16660	note_on channel=6 note=61 velocity=0 time=16
16661	note_on channel=7 note=61 velocity=0 time=1
16662	note_on channel=6 note=61 velocity=40 time=3
16663	note_on channel=7 note=61 velocity=40 time=1
16664	note_on channel=6 note=61 velocity=0 time=29
16665	note_on channel=1 note=30 velocity=0 time=0
16666	note_on channel=1 note=31 velocity=29 time=0
16667	note_on channel=6 note=59 velocity=39 time=0
16668	note_on channel=9 note=82 velocity=47 time=0
16669	note_on channel=7 note=61 velocity=0 time=1
16670	note_on channel=7 note=59 velocity=39 time=0
16671	note_on channel=9 note=82 velocity=0 time=9
16672	note_on channel=1 note=31 velocity=0 time=10
16673	note_on channel=1 note=30 velocity=39 time=10
16674	note_on channel=6 note=61 velocity=38 time=0
16675	note_on channel=9 note=38 velocity=24 time=0
16676	note_on channel=9 note=37 velocity=127 time=0
16677	note_on channel=7 note=61 velocity=38 time=1
16678	note_on channel=9 note=37 velocity=0 time=9
16679	note_on channel=9 note=38 velocity=0 time=0
16680	note_on channel=1 note=30 velocity=0 time=0
16681	note_on channel=6 note=59 velocity=0 time=4
16682	note_on channel=7 note=59 velocity=0 time=1
16683	note_on channel=6 note=61 velocity=0 time=13
16684	note_on channel=7 note=61 velocity=0 time=1
16685	note_on channel=1 note=31 velocity=29 time=1
16686	note_on channel=6 note=61 velocity=38 time=0
16687	note_on channel=9 note=82 velocity=37 time=0
16688	note_on channel=7 note=61 velocity=38 time=1
16689	note_on channel=9 note=82 velocity=0 time=9
16690	note_on channel=1 note=31 velocity=0 time=0
16691	note_on channel=1 note=40 velocity=38 time=20
16692	note_on channel=6 note=62 velocity=37 time=0
16693	note_on channel=7 note=62 velocity=37 time=1
16694	note_on channel=6 note=61 velocity=0 time=13
16695	note_on channel=7 note=61 velocity=0 time=1
16696	note_on channel=1 note=40 velocity=0 time=15
16697	note_on channel=1 note=30 velocity=36 time=0
16698	note_on channel=6 note=61 velocity=36 time=0
16699	note_on channel=9 note=38 velocity=21 time=0
16700	note_on channel=9 note=82 velocity=36 time=0
16701	note_on channel=9 note=37 velocity=127 time=0
16702	note_on channel=7 note=61 velocity=36 time=1
16703	note_on channel=9 note=37 velocity=0 time=9
16704	note_on channel=9 note=82 velocity=0 time=0
16705	note_on channel=1 note=30 velocity=0 time=0
16706	note_on channel=9 note=38 velocity=0 time=0
16707	note_on channel=6 note=62 velocity=0 time=4
16708	note_on channel=7 note=62 velocity=0 time=1
16709	note_on channel=6 note=61 velocity=0 time=13
16710	note_on channel=7 note=61 velocity=0 time=1
16711	note_on channel=1 note=31 velocity=27 time=1
16712	note_on channel=6 note=61 velocity=36 time=0
16713	note_on channel=7 note=61 velocity=36 time=1
16714	note_on channel=1 note=31 velocity=0 time=19
16715	note_on channel=6 note=61 velocity=0 time=8
16716	note_on channel=7 note=61 velocity=0 time=1
16717	note_on channel=1 note=40 velocity=36 time=1
16718	note_on channel=6 note=61 velocity=36 time=0
16719	note_on channel=9 note=82 velocity=26 time=0
16720	note_on channel=7 note=61 velocity=36 time=1
16721	note_on channel=9 note=82 velocity=0 time=9
16722	note_on channel=1 note=40 velocity=0 time=10
16723	note_on channel=6 note=61 velocity=0 time=4
16724	note_on channel=7 note=61 velocity=0 time=1
16725	note_on channel=1 note=42 velocity=35 time=5
16726	note_on channel=6 note=61 velocity=35 time=0
16727	note_on channel=7 note=61 velocity=35 time=1
16728	note_on channel=1 note=42 velocity=0 time=9
16729	note_on channel=6 note=61 velocity=0 time=12
16730	note_on channel=7 note=61 velocity=0 time=1
16731	note_on channel=1 note=30 velocity=41 time=7
16732	note_on channel=6 note=59 velocity=34 time=0
16733	note_on channel=9 note=36 velocity=118 time=0
16734	note_on channel=9 note=35 velocity=127 time=0
16735	note_on channel=9 note=82 velocity=41 time=0
16736	note_on channel=7 note=59 velocity=34 time=1
16737	note_on channel=9 note=82 velocity=0 time=9
16738	note_on channel=9 note=35 velocity=0 time=0
16739	note_on channel=9 note=36 velocity=0 time=0
16740	note_on channel=6 note=61 velocity=33 time=20
16741	note_on channel=7 note=61 velocity=33 time=1
16742	note_on channel=6 note=59 velocity=0 time=13
16743	note_on channel=7 note=59 velocity=0 time=1
16744	note_on channel=1 note=30 velocity=0 time=15
16745	note_on channel=1 note=31 velocity=24 time=0
16746	note_on channel=6 note=61 velocity=32 time=0
16747	note_on channel=9 note=82 velocity=32 time=0
16748	note_on channel=9 note=27 velocity=31 time=0
16749	note_on channel=7 note=61 velocity=32 time=1
16750	note_on channel=9 note=27 velocity=0 time=9
16751	note_on channel=9 note=82 velocity=0 time=0
16752	note_on channel=1 note=31 velocity=0 time=0
16753	note_on channel=6 note=61 velocity=0 time=4
16754	note_on channel=7 note=61 velocity=0 time=1
16755	note_on channel=1 note=33 velocity=32 time=15
16756	note_on channel=6 note=62 velocity=32 time=0
16757	note_on channel=9 note=36 velocity=116 time=0
16758	note_on channel=9 note=35 velocity=124 time=0
16759	note_on channel=7 note=62 velocity=32 time=1
16760	note_on channel=9 note=35 velocity=0 time=9
16761	note_on channel=9 note=36 velocity=0 time=0
16762	note_on channel=1 note=33 velocity=0 time=0
16763	note_on channel=6 note=61 velocity=0 time=4
16764	note_on channel=7 note=61 velocity=0 time=1
16765	note_on channel=1 note=37 velocity=24 time=15
16766	note_on channel=6 note=61 velocity=31 time=0
16767	note_on channel=9 note=82 velocity=31 time=0
16768	note_on channel=9 note=27 velocity=30 time=0
16769	note_on channel=7 note=61 velocity=31 time=1
16770	note_on channel=9 note=27 velocity=0 time=9
16771	note_on channel=9 note=82 velocity=0 time=0
16772	note_on channel=1 note=37 velocity=0 time=0
16773	note_on channel=6 note=62 velocity=0 time=4
16774	note_on channel=7 note=62 velocity=0 time=1
16775	note_on channel=6 note=61 velocity=0 time=13
16776	note_on channel=7 note=61 velocity=0 time=1
16777	note_on channel=1 note=38 velocity=23 time=1
16778	note_on channel=6 note=61 velocity=30 time=0
16779	note_on channel=7 note=61 velocity=30 time=1
16780	note_on channel=1 note=38 velocity=0 time=9
16781	note_on channel=6 note=61 velocity=0 time=18
16782	note_on channel=7 note=61 velocity=0 time=1
16783	note_on channel=1 note=28 velocity=30 time=1
16784	note_on channel=6 note=61 velocity=29 time=0
16785	note_on channel=9 note=38 velocity=13 time=0
16786	note_on channel=9 note=82 velocity=24 time=0
16787	note_on channel=9 note=37 velocity=127 time=0
16788	note_on channel=7 note=61 velocity=29 time=1
16789	note_on channel=9 note=37 velocity=0 time=9
16790	note_on channel=9 note=82 velocity=0 time=0
16791	note_on channel=9 note=38 velocity=0 time=0
16792	note_on channel=6 note=61 velocity=0 time=16
16793	note_on channel=7 note=61 velocity=0 time=1
16794	note_on channel=6 note=61 velocity=29 time=3
16795	note_on channel=7 note=61 velocity=29 time=1
16796	note_on channel=6 note=61 velocity=0 time=29
16797	note_on channel=1 note=28 velocity=0 time=0
16798	note_on channel=1 note=30 velocity=35 time=0
16799	note_on channel=6 note=59 velocity=28 time=0
16800	note_on channel=9 note=82 velocity=34 time=0
16801	note_on channel=7 note=61 velocity=0 time=1
16802	note_on channel=7 note=59 velocity=28 time=0
16803	note_on channel=9 note=82 velocity=0 time=9
16804	note_on channel=6 note=61 velocity=27 time=20
16805	note_on channel=9 note=38 velocity=10 time=0
16806	note_on channel=9 note=37 velocity=127 time=0
16807	note_on channel=7 note=61 velocity=27 time=1
16808	note_on channel=9 note=37 velocity=0 time=9
16809	note_on channel=9 note=38 velocity=0 time=0
16810	note_on channel=6 note=59 velocity=0 time=4
16811	note_on channel=7 note=59 velocity=0 time=1
16812	note_on channel=1 note=30 velocity=0 time=5
16813	note_on channel=6 note=61 velocity=0 time=8
16814	note_on channel=7 note=61 velocity=0 time=1
16815	note_on channel=1 note=31 velocity=21 time=1
16816	note_on channel=6 note=61 velocity=27 time=0
16817	note_on channel=9 note=82 velocity=27 time=0
16818	note_on channel=7 note=61 velocity=27 time=1
16819	note_on channel=9 note=82 velocity=0 time=9
16820	note_on channel=1 note=31 velocity=0 time=0
16821	note_on channel=1 note=33 velocity=25 time=20
16822	note_on channel=6 note=66 velocity=26 time=0
16823	note_on channel=7 note=66 velocity=26 time=1
16824	note_on channel=6 note=61 velocity=0 time=13
16825	note_on channel=7 note=61 velocity=0 time=1
16826	note_on channel=1 note=33 velocity=0 time=15
16827	note_on channel=1 note=37 velocity=20 time=0
16828	note_on channel=6 note=61 velocity=26 time=0
16829	note_on channel=9 note=38 velocity=8 time=0
16830	note_on channel=9 note=82 velocity=25 time=0
16831	note_on channel=9 note=37 velocity=127 time=0
16832	note_on channel=7 note=61 velocity=26 time=1
16833	note_on channel=9 note=37 velocity=0 time=9
16834	note_on channel=9 note=82 velocity=0 time=0
16835	note_on channel=1 note=37 velocity=0 time=0
16836	note_on channel=9 note=38 velocity=0 time=0
16837	note_on channel=6 note=66 velocity=0 time=4
16838	note_on channel=7 note=66 velocity=0 time=1
16839	note_on channel=6 note=61 velocity=0 time=13
16840	note_on channel=7 note=61 velocity=0 time=1
16841	note_on channel=1 note=38 velocity=19 time=1
16842	note_on channel=6 note=61 velocity=25 time=0
16843	note_on channel=9 note=36 velocity=107 time=0
16844	note_on channel=9 note=35 velocity=115 time=0
16845	note_on channel=7 note=61 velocity=25 time=1
16846	note_on channel=9 note=35 velocity=0 time=9
16847	note_on channel=9 note=36 velocity=0 time=0
16848	note_on channel=1 note=38 velocity=0 time=0
16849	note_on channel=6 note=61 velocity=0 time=18
16850	note_on channel=7 note=61 velocity=0 time=1
16851	note_on channel=1 note=37 velocity=24 time=1
16852	note_on channel=6 note=61 velocity=24 time=0
16853	note_on channel=9 note=82 velocity=18 time=0
16854	note_on channel=7 note=61 velocity=24 time=1
16855	note_on channel=9 note=82 velocity=0 time=9
16856	note_on channel=1 note=37 velocity=0 time=0
16857	note_on channel=6 note=61 velocity=0 time=14
16858	note_on channel=7 note=61 velocity=0 time=1
16859	note_on channel=1 note=33 velocity=17 time=5
16860	note_on channel=6 note=61 velocity=23 time=0
16861	note_on channel=7 note=61 velocity=23 time=1
16862	note_on channel=1 note=33 velocity=0 time=9
16863	note_on channel=6 note=61 velocity=0 time=12
16864	note_on channel=7 note=61 velocity=0 time=1
16865	note_on channel=8 note=69 velocity=0 time=6
16866	note_on channel=8 note=66 velocity=0 time=0
16867	note_on channel=8 note=73 velocity=0 time=0
16868	
